ply
format ascii 1.0
element vertex 633
property float x
property float y
property float z
end_header
57.5508 14.7568 1.73634
45.8812 16.8814 1.38053
1.27989 23.0188 1.28775
-38.858 41.0787 2.47607
-30.1387 29.5691 2.13567
-30.4045 26.6242 2.11918
-35.94 22.6398 2.25341
-26.9627 -17.8369 2.25827
-18.6089 -16.0917 1.97926
-34.0772 -23.6244 2.58347
-34.0014 -24.3187 2.59635
-34.4068 -24.7033 2.61652
-34.7765 -25.0748 2.63467
-35.9966 -32.7797 2.84791
-35.8161 -32.9181 2.84649
-35.6056 -33.0383 2.84398
-35.4354 -33.1811 2.84257
-34.3148 -34.088 2.83573
-35.1108 -35.1774 2.88474
-33.3728 -34.8406 2.8302
-12.1339 -22.4515 1.94917
-2.16135 -16.1125 1.52239
-1.18659 -15.6863 1.48527
-1.05953 -15.8127 1.48561
-10.8403 -22.8855 1.92787
-10.5386 -22.8296 1.91814
-10.3278 -23.3683 1.92808
-9.25262 -23.2031 1.89633
7.98497 -14.499 1.23081
7.99664 -14.5758 1.23347
8.13688 -14.5227 1.22838
8.14105 -14.608 1.23109
8.33983 -14.4942 1.22364
8.45314 -14.4215 1.21831
8.58188 -14.3767 1.21426
8.66493 -14.3784 1.21248
8.73519 -14.3934 1.21177
62.1214 11.0063 1.61821
-29.4506 36.5918 1.78572
-29.0191 32.0737 1.74483
-31.1035 30.2008 1.77813
-52.9682 -17.906 2.55263
65.4582 -19.8333 2.04332
91.7687 -15.9363 2.73034
91.8152 -15.7166 2.72865
91.8256 -15.604 2.72675
91.8671 -15.384 2.72505
91.9067 -15.1629 2.72333
91.9412 -14.9415 2.7216
91.9669 -14.7176 2.71882
92.0065 -14.4975 2.71711
89.3235 9.46438 2.101
89.3832 9.5812 2.10219
45.9122 16.882 1.05658
81.15 -21.8836 2.22329
81.3246 -21.7362 2.22451
84.3661 -21.8448 2.2988
91.2532 -16.1072 2.38348
91.2363 -15.8749 2.38053
91.2382 -15.6477 2.37767
91.2371 -15.4203 2.3748
91.2587 -15.1971 2.37202
91.27 -15.0866 2.37114
91.3144 -14.8688 2.36946
91.3716 -14.6537 2.36784
91.4299 -14.4386 2.36622
91.4911 -14.2247 2.36561
69.7857 13.02 1.23031
57.009 14.8277 1.00941
-35.3812 26.8766 1.07497
98.2515 -18.6372 1.99723
95.9941 -16.9923 1.93925
97.9101 -14.8161 1.94805
24.1836 17.8309 0.510957
-27.0616 29.939 0.68606
-37.0652 32.1077 0.741952
98.2935 -18.748 1.59822
56.8947 14.7494 0.549759
45.8694 16.7866 0.479241
24.2118 17.7752 0.383478
-39.2376 42.6074 0.20452
68.9185 -16.8906 0.87555
90.3061 -22.6792 1.04503
96.8806 -23.543 1.08911
98.2797 -23.8466 1.099
91.872 -19.8422 1.02757
98.2006 -18.8062 1.05346
93.1962 -16.4107 1.00464
93.2222 -16.1818 1.00182
93.2356 -16.0674 1.00092
95.9635 -16.4291 1.01952
93.379 -15.1631 0.993848
91.0553 -14.2273 0.972521
101.502 7.38019 0.475648
99.6123 7.56533 0.472536
97.8868 7.86936 0.467847
94.5471 8.42908 0.460136
91.8104 8.65318 0.456645
56.9702 14.9049 0.37066
46.3592 16.6025 0.343937
45.9039 16.7335 0.341756
24.1514 17.7298 0.2977
-27.9951 36.2522 -0.049025
75.3533 -20.484 0.675663
77.75 -20.8921 0.681838
92.0064 -19.6082 0.684964
90.9393 -15.867 0.654678
90.9994 -15.6541 0.653078
91.0486 -15.2112 0.649564
91.049 -15.098 0.648637
91.0894 -14.8799 0.646946
91.1308 -14.6619 0.645258
91.1552 -14.442 0.643513
91.1491 -14.2143 0.64163
91.6015 -14.0786 0.641617
93.4576 0.0108557 0.0765299
93.4222 0.235215 0.0756034
93.9324 8.28692 0.00279125
92.0148 8.61495 0.00943897
59.6318 5.98753 0.208275
87.8586 12.1076 -0.00131619
74.4445 9.65995 0.0941557
50.0155 6.89416 0.250462
56.9554 14.7566 0.130832
-31.2058 28.3192 -0.372766
41.413 -17.3083 0.452094
62.5163 -19.7102 0.373098
67.6031 -19.9114 0.350113
78.3537 -21.1638 0.30352
69.6349 -16.6662 0.322431
84.8919 -21.7016 0.273826
86.4599 -22.0108 0.268174
88.6834 -22.2961 0.257919
89.8832 -22.4573 0.253158
97.9202 -23.643 0.219421
90.8599 -16.1415 0.209721
90.5112 -15.3846 0.206664
90.5327 -15.1635 0.204902
90.5671 -14.9461 0.203203
90.5704 -14.8341 0.202292
90.6433 -14.6249 0.200753
90.7153 -14.4156 0.199211
90.9725 -14.2429 0.19642
91.5159 -14.1265 0.192786
99.7446 2.79557 -0.457049
91.339 8.36837 -0.412197
67.7896 9.23661 -0.152559
49.6816 7.12599 0.0737422
49.6048 7.2906 0.0732051
56.9369 14.8238 -0.103774
39.2465 14.2487 0.0749448
37.4453 13.6969 0.099094
-27.8598 36.1432 -0.81983
-35.0061 31.2281 -0.843884
-55.0188 -15.0185 -0.69916
-53.333 -14.9435 -0.672676
76.2893 -20.9364 -0.0433762
80.998 -21.3598 -0.0924579
69.3394 -16.701 0.0169866
92.5179 -20.2275 -0.222746
93.5005 -20.2632 -0.233065
86.3763 -17.3009 -0.167682
88.6371 -17.2279 -0.192786
96.0948 -17.5207 -0.275257
99.2999 0.876437 -0.972406
96.752 2.59759 -0.940718
95.951 2.79832 -0.927311
87.7031 7.63848 -0.823063
58.7695 4.60228 -0.258475
58.7375 4.65617 -0.258994
43.648 12.4604 -0.109692
23.3534 22.9614 -0.209174
23.2794 22.9646 -0.20938
23.2063 22.9648 -0.209559
23.1701 22.9618 -0.209623
-35.3516 31.0106 -1.30196
73.0756 -19.7596 -0.391855
73.2692 -19.6494 -0.395289
73.5461 -19.57 -0.400267
73.8036 -19.4814 -0.404368
74.1091 -19.4096 -0.410214
87.7828 -14.8975 -0.662996
87.8555 -14.481 -0.666236
87.8041 -13.0728 -0.670913
88.6999 -13.0305 -0.687083
90.7673 -12.2004 -0.727868
88.8978 -10.2623 -0.703311
86.8747 2.67006 -1.09033
86.6512 2.86205 -1.08645
23.3681 22.9686 -0.329202
23.296 22.9868 -0.329526
23.2221 22.9719 -0.329584
23.187 23.0059 -0.330948
23.1129 23.0071 -0.331138
64.1349 -19.0275 -0.475599
64.2609 -18.9254 -0.47813
64.1611 -18.7245 -0.476021
64.6059 -18.7597 -0.485651
67.3327 -17.6215 -0.542361
67.5957 -17.5594 -0.548232
67.6911 -17.4316 -0.550048
75.6978 -14.2236 -0.730906
76.5826 -14.2708 -0.751368
77.9455 -13.4108 -0.784112
80.6889 -10.3175 -0.85682
71.4566 -2.49555 -0.975433
71.4414 -2.34044 -0.975742
71.4588 -2.26331 -0.977333
71.4685 -2.10862 -0.978578
71.4553 -1.95262 -0.97889
72.5627 -0.0875758 -1.0265
74.3921 1.31573 -1.09257
74.4948 1.48415 -1.0977
74.6567 1.65423 -1.1037
74.8439 1.82787 -1.11067
75.0139 2.00048 -1.11767
75.2597 2.09567 -1.12586
75.3656 2.26792 -1.13101
75.4394 2.439 -1.13424
75.964 2.80477 -1.15396
76.518 3.26603 -1.1744
68.4065 3.46397 -0.937734
55.056 5.21479 -0.566538
48.6139 7.15451 -0.411105
46.3556 13.455 -0.479281
50.1405 15.9547 -0.635592
23.3501 22.9265 -0.465905
23.2752 22.8947 -0.464826
23.204 22.9278 -0.466271
-33.3829 25.6501 -1.84322
57.0506 -18.111 -0.556342
57.1663 -18.0314 -0.558714
57.2878 -17.9552 -0.561044
57.4055 -17.8758 -0.56441
57.5378 -17.8031 -0.566684
57.5495 -17.7387 -0.567184
57.6436 -17.5096 -0.567834
66.8003 -12.392 -0.805564
69.0453 -12.3695 -0.870293
68.1211 -10.9837 -0.844907
69.2494 -11.0118 -0.876934
69.9846 -9.68644 -0.90002
71.4685 -8.9355 -0.945575
71.8479 -6.76455 -0.963462
71.8628 -6.60815 -0.964709
71.8737 -6.45052 -0.965975
71.903 -6.37505 -0.966523
71.8742 -6.21216 -0.966929
71.8433 -6.05015 -0.966334
71.8343 -5.89138 -0.966658
71.7665 -5.72627 -0.966177
71.7614 -5.56773 -0.96649
71.6996 -5.40395 -0.964984
71.6523 -5.32014 -0.964786
71.6651 -5.16462 -0.966031
71.7935 -5.01967 -0.969908
71.8382 -4.86597 -0.97206
71.886 -4.71344 -0.974195
71.8559 -4.55348 -0.974581
71.7632 -4.38795 -0.972164
71.7137 -4.30601 -0.971956
71.6378 -4.14344 -0.970474
71.6117 -3.98471 -0.97084
71.6105 -3.82839 -0.971125
71.5654 -3.66958 -0.970538
71.5583 -3.51293 -0.97184
64.9109 -2.71744 -1.06153
64.8855 -2.58078 -1.06071
64.8634 -2.51241 -1.06033
64.85 -2.37744 -1.06147
64.8166 -2.24132 -1.06066
64.8022 -2.10629 -1.06081
64.7638 -1.9709 -1.06101
64.7504 -1.83592 -1.06115
64.741 -1.70117 -1.06128
64.7468 -1.6344 -1.06281
64.7414 -1.50088 -1.06292
64.7439 -1.36681 -1.06401
64.7615 -1.23361 -1.06606
64.7801 -1.09945 -1.06712
64.7737 -0.965875 -1.06823
64.7643 -0.831132 -1.06936
64.719 -0.764451 -1.06802
64.6935 -0.629794 -1.06818
64.63 -0.495968 -1.06644
64.5905 -0.362517 -1.06663
64.5991 -0.228793 -1.0677
64.6176 -0.0956412 -1.06975
64.6652 0.0378591 -1.07273
64.7362 0.105929 -1.07611
64.8561 0.241334 -1.08093
64.98 0.377502 -1.08675
65.112 0.515215 -1.09256
65.2189 0.652352 -1.09742
65.3249 0.790536 -1.1033
65.418 0.929471 -1.10721
65.5192 1.00083 -1.11155
65.9641 1.4282 -1.13198
66.1256 1.57324 -1.13978
66.3253 1.72112 -1.1485
68.7835 5.38104 -1.27856
48.6472 7.43259 -0.597312
44.265 7.10113 -0.440241
50.0164 15.3102 -0.826613
46.4539 13.3588 -0.66226
46.3884 13.4226 -0.661943
46.6397 13.6677 -0.676343
49.979 15.6938 -0.835852
28.0158 18.5097 -0.434329
-4.48294 22.7777 -1.14637
62.5161 -11.3433 -0.958587
60.8431 -9.91383 -0.897378
61.4364 -9.99569 -0.918265
65.0469 -5.92128 -1.05092
64.9989 -5.77833 -1.05021
65.0355 -5.64619 -1.0522
65.1357 -5.52069 -1.05599
65.1713 -5.3885 -1.05798
65.1751 -5.3206 -1.05753
65.137 -5.17921 -1.05678
65.0631 -5.03378 -1.05516
65.024 -4.89333 -1.0544
64.9998 -4.75473 -1.0536
64.9855 -4.6177 -1.05376
64.9533 -4.47865 -1.05298
64.9183 -4.40755 -1.05265
64.9558 -4.27547 -1.05464
65.0522 -4.14774 -1.05845
65.1256 -4.01871 -1.06133
65.1453 -3.88362 -1.06339
65.1599 -3.74923 -1.06446
65.1208 -3.60978 -1.0637
65.0577 -3.53808 -1.06144
64.9556 -3.39505 -1.05886
64.8555 -3.25314 -1.05627
64.8581 -3.11808 -1.05737
64.8867 -2.98548 -1.05839
64.8993 -2.85099 -1.06046
60.2804 -2.38554 -1.12351
60.2672 -2.2646 -1.12353
60.2696 -2.20464 -1.12402
60.2613 -2.08498 -1.12402
60.2452 -1.96386 -1.12406
60.23 -1.84281 -1.12409
60.1998 -1.7219 -1.12415
60.1805 -1.60162 -1.12418
60.1403 -1.48114 -1.12327
60.0977 -1.41962 -1.12188
60.0834 -1.30062 -1.12189
60.0681 -1.18056 -1.12191
60.0609 -1.06096 -1.12291
60.0486 -0.942072 -1.12292
60.0544 -0.822211 -1.12388
60.0501 -0.703782 -1.12487
60.0424 -0.644257 -1.12537
60.0452 -0.525225 -1.12634
60.0369 -0.405563 -1.12634
60.0096 -0.286824 -1.12639
59.9733 -0.167576 -1.12645
59.9179 -0.0492344 -1.12456
59.8694 0.0687033 -1.12364
61.6416 2.26229 -1.22033
61.7673 2.39534 -1.22712
61.8599 2.52728 -1.23198
61.9385 2.65901 -1.23687
63.7621 4.57621 -1.33716
49.9887 14.9187 -1.00348
49.9964 15.0374 -1.00743
50.0419 15.2912 -1.0164
46.4447 13.383 -0.828487
46.64 13.5942 -0.841745
38.138 13.5673 -0.552183
33.7497 22.5698 -0.835711
60.4588 -2.87847 -1.12803
60.3728 -2.75238 -1.12528
60.3187 -2.6281 -1.12343
60.3055 -2.50716 -1.12345
46.5032 13.3463 -0.99005
46.3994 13.3883 -0.987647
40.4375 14.1704 -0.781548
27.7884 17.7038 -0.617278
-30.7467 -1.68832 -2.30656
-30.6819 -1.85222 -2.30206
-27.7532 -2.5517 -2.1432
-21.2431 -10.8356 -1.7934
46.9599 -14.9311 -0.798967
52.8543 -11.0858 -1.00519
52.9842 -10.9139 -1.00928
50.0605 15.1228 -1.39799
36.9255 13.2638 -0.746648
32.5038 14.6898 -0.665092
32.4839 14.764 -0.667749
32.405 14.7505 -0.66483
32.5272 15.0319 -0.683842
31.6982 17.6841 -0.812619
27.8958 15.9547 -0.63067
27.6845 17.4554 -0.720497
27.637 17.5011 -0.722987
27.6178 17.6384 -0.73116
27.6075 17.7041 -0.734724
24.5067 18.8009 -0.776261
24.4437 18.7854 -0.774288
17.5964 17.1555 -0.710561
17.3647 16.4097 -0.668004
17.3411 16.2929 -0.661104
50.0037 -0.00407261 -1.19403
49.9907 0.0838111 -1.19378
49.9615 0.257751 -1.19328
49.9654 0.345656 -1.19499
49.9533 0.432485 -1.19474
49.9518 0.476639 -1.1951
49.9438 0.564232 -1.19584
49.9286 0.650232 -1.19558
49.9075 0.737569 -1.19535
49.8934 0.824511 -1.1951
49.8541 0.909879 -1.19389
49.838 0.995936 -1.19364
49.8043 1.03792 -1.19206
49.6411 1.46388 -1.18795
50.012 2.28197 -1.22077
50.0322 2.37197 -1.22245
50.0725 2.46481 -1.22612
50.0977 2.55551 -1.2298
45.6071 12.791 -1.24868
32.47 14.7961 -0.76705
32.4295 14.8404 -0.768512
32.5408 15.1605 -0.790868
31.2905 13.4826 -0.651138
27.5557 17.545 -0.824549
27.5208 17.531 -0.822518
27.4722 17.5748 -0.824996
24.7394 18.9781 -0.892153
24.6792 18.9945 -0.893434
24.6148 18.9711 -0.891399
24.5525 18.9686 -0.89053
24.5099 18.8709 -0.883832
24.4434 18.8276 -0.880639
48.4652 -9.32467 -1.11731
49.754 -6.48331 -1.16749
49.7848 -6.39892 -1.1681
49.7741 -6.30516 -1.1679
49.8078 -6.22195 -1.1695
49.7288 -6.11426 -1.16358
49.8448 -6.04776 -1.17084
49.8453 -6.00272 -1.17021
49.8732 -5.91717 -1.17184
50.937 -4.36125 -1.23002
50.8313 -4.30013 -1.22378
48.5712 6.57997 -1.40753
48.5977 6.67559 -1.41225
48.618 6.76956 -1.41597
48.6512 6.82375 -1.41934
48.6573 6.91453 -1.42207
48.6686 7.00701 -1.4258
41.8494 15.4089 -1.3523
32.5363 15.2518 -0.927633
31.1919 13.5743 -0.769135
27.3983 17.5178 -0.949713
27.3646 17.5067 -0.948704
27.3072 17.52 -0.947952
27.2734 17.612 -0.954789
24.7061 18.9148 -1.02372
24.6505 18.959 -1.02622
24.5919 18.9843 -1.02757
24.5126 18.8397 -1.01657
24.4463 18.8014 -1.01342
46.5792 7.41379 -1.43022
45.3977 10.0558 -1.44276
45.3844 10.1387 -1.44447
45.3607 10.2151 -1.44616
45.3494 10.2979 -1.44887
45.3319 10.379 -1.45057
45.3165 10.46 -1.45327
45.2954 10.4952 -1.45262
45.2666 10.57 -1.4543
45.2275 10.6403 -1.45397
45.1946 10.7133 -1.45465
45.1525 10.7828 -1.45532
45.1206 10.8567 -1.45601
44.9092 11.2443 -1.4587
44.4923 11.9309 -1.46135
44.4398 11.994 -1.46099
35.7251 7.22508 -0.711028
41.8226 15.5136 -1.48123
41.9075 15.685 -1.49543
41.9935 15.8583 -1.50964
32.5784 15.3177 -1.02607
31.2157 13.6013 -0.854302
27.2236 16.9244 -0.991272
27.3277 17.5942 -1.04651
27.2727 17.6123 -1.0468
33.7303 -16.2834 -0.829037
37.2436 -13.4788 -0.866504
44.0582 0.966237 -1.25545
44.0551 1.03452 -1.25602
44.0469 1.13814 -1.25689
44.0337 1.206 -1.25747
44.0176 1.27403 -1.25707
44.0084 1.34266 -1.25666
44.0043 1.41199 -1.25823
44.2731 6.54103 -1.39866
44.4284 6.66533 -1.4143
44.4196 6.73993 -1.41594
44.4067 6.81277 -1.41757
44.4143 6.89244 -1.4212
44.4145 6.93148 -1.42252
44.4475 7.01972 -1.42717
44.4531 7.09951 -1.43081
44.4504 7.17676 -1.43345
44.4498 7.2539 -1.43608
44.4533 7.33381 -1.43873
44.4293 7.40428 -1.43936
43.2145 10.73 -1.4866
43.219 10.7738 -1.48895
43.1713 10.8336 -1.48856
43.1411 10.9024 -1.48919
43.1089 10.9704 -1.48983
43.056 11.0275 -1.48943
42.9762 11.0691 -1.48596
42.9471 11.1378 -1.4866
42.9692 11.1926 -1.49099
39.5414 15.6435 -1.52184
32.7134 15.4482 -1.16482
24.8772 19.1986 -1.27264
24.2778 16.9204 -1.0684
42.8452 7.34169 -1.4477
42.8506 7.41849 -1.45132
42.8498 7.49263 -1.45393
42.8663 7.53574 -1.45724
40.6193 15.8641 -1.73804
40.5242 15.8846 -1.73343
24.8786 19.2176 -1.3878
-3.35675 12.3139 -2.14883
-3.4042 12.2365 -2.14931
-3.41956 12.1953 -2.14801
-3.45332 12.112 -2.14741
36.8503 -10.7539 -0.964816
40.4538 9.71743 -1.49501
31.3606 13.5626 -1.16164
38.845 -9.23386 -1.16244
39.1843 -9.34647 -1.1927
39.9008 -6.96902 -1.18146
39.7777 -6.85978 -1.16865
39.4341 9.11399 -1.50954
39.4062 9.16865 -1.51005
39.4206 9.21188 -1.51337
27.4868 7.92132 -0.558761
24.2628 16.8346 -1.37275
32.4775 14.6412 -1.53579
38.594 8.87986 -1.66566
32.3834 14.4955 -1.63483
32.3504 14.5494 -1.63835
32.3249 14.6119 -1.64292
32.306 14.6851 -1.64857
19.9178 14.8521 -1.37005
36.4841 -8.14427 -1.25012
31.8456 13.7537 -1.63405
31.8045 13.7891 -1.63444
31.746 13.7994 -1.63267
27.3263 -13.1579 -1.03825
36.4718 8.56549 -1.64924
31.7758 12.9273 -1.63744
31.7513 12.9377 -1.63658
19.966 16.5669 -1.77501
4.13438 0.410658 -1.79897
26.307 -12.941 -1.05351
26.4616 -13.006 -1.0666
36.4228 -5.09032 -1.31233
36.6061 -4.82437 -1.32606
36.6256 -4.78141 -1.32737
12.2152 13.0323 -1.91786
30.227 11.7346 -1.67742
30.2305 11.2666 -1.68257
30.1917 11.2878 -1.68284
30.1789 11.3096 -1.68405
30.1368 11.326 -1.68329
30.1045 11.3578 -1.68463
30.0755 11.3945 -1.687
30.0356 11.4138 -1.68626
29.7193 10.9919 -1.70456
29.6802 11.0101 -1.70381
29.6456 11.0361 -1.70411
29.6077 11.0563 -1.70436
29.5709 11.0774 -1.70363
29.5503 11.0866 -1.70375
29.5113 11.1048 -1.703
29.0452 10.3029 -1.69855
29.0059 10.3162 -1.69776
24.5519 8.19763 -1.31719
23.6747 -6.69768 -1.39214
23.6958 -6.69688 -1.39309
17.0295 1.84342 -1.59536
-36.1613 12.1036 -20.7875
26.9209 -16.202 -5.27142
26.83 -15.7288 -5.10852
26.7097 -15.1715 -4.91437
-14.6911 10.9091 -14.0063
-14.7212 10.8547 -14.0109
24.6721 -0.0111826 -0.648535
24.6389 -0.968879 -0.64976
21.0673 1.09971 -0.371401
22.4994 -1.83403 -0.243849
22.4903 -1.78125 -0.221303
22.4867 -1.75693 -0.212512
86.7292 -16.9886 -27.3974
21.3096 0.906322 -0.294223
21.3633 0.814517 -0.246338
21.3512 0.829164 -0.254488
22.4278 -2.11776 -0.407702
22.4188 -2.02678 -0.367469
22.4255 -2.03219 -0.370408
21.285 0.877564 -0.307048
21.1001 1.14224 -0.457674
21.2846 0.8706 -0.303991
21.2786 0.870923 -0.306009
21.241 0.912906 -0.332446
21.2127 0.943398 -0.351765
21.1512 1.02264 -0.397566
21.173 0.984496 -0.3782
21.1763 0.97134 -0.372084
21.1795 0.958184 -0.365968
21.1856 0.94188 -0.357819
21.0529 1.10586 -0.45649
21.2294 0.781716 -0.286396
21.1896 0.76789 -0.293379
23.5983 -1.43514 -0.444457
23.6111 -9.63119 -3.91532
23.6223 -9.60871 -3.90548
23.6776 -9.76872 -3.98203
23.5497 -1.48157 -0.458195
23.5433 -1.46915 -0.452312
23.4623 -1.39504 -0.402115
2.956 5.716 1.15033e-41
