ply
format ascii 1.0
element vertex 558
property float x
property float y
property float z
end_header
133.224 -1.76096 3.5475
133.09 -1.51472 3.54425
133.147 -1.26383 3.54713
133.056 -1.14181 3.54449
132.731 0.340109 3.54029
132.766 0.589724 3.54215
133.351 4.00371 3.58106
132.416 5.41764 3.55924
132.399 5.54065 3.55865
132.332 5.78265 3.55842
132.202 6.01736 3.55613
120.676 6.514 3.16547
108.975 28.45 3.09512
108.877 28.6234 3.09565
108.928 28.8831 3.10156
65.3358 13.8275 1.55892
65.2618 13.8316 1.55788
36.8194 19.7365 1.83172
36.8021 19.6126 1.82829
36.8317 19.3541 1.82044
34.439 15.2924 1.75719
26.8175 18.9944 2.04084
24.2948 18.5302 2.09567
16.0929 20.5153 2.36515
16.033 20.3887 2.36469
15.9675 20.2657 2.36323
14.3896 20.4701 2.41292
8.25268 17.0374 2.52941
9.12426 16.4898 2.49312
0.658226 15.0717 2.73293
-4.34134 14.1477 2.87863
-24.5266 -1.98164 3.41128
26.1776 -10.1563 1.73295
26.148 -10.2575 1.73359
6.48494 -17.2596 2.40241
13.3046 -16.3813 2.18072
21.8208 -16.4776 1.91782
23.656 -16.2048 1.85891
26.5276 -16.2944 1.77344
11.0119 -26.303 2.35174
8.7972 -28.3478 2.44242
8.71934 -28.5791 2.44759
26.6998 -19.3122 1.80735
27.8129 -18.75 1.76796
9.33985 -30.6898 2.45886
26.4779 -20.099 1.82455
27.4634 -19.8859 1.7939
31.3323 -17.9984 1.65874
9.74071 -32.6043 2.47665
9.8906 -32.7044 2.4744
34.7278 -17.7283 1.56281
42.8124 -17.288 1.36445
121.385 -39.8828 3.33017
116.61 -19.434 2.98721
116.654 -19.2349 2.98791
116.677 -19.0312 2.98761
116.675 -18.9252 2.98697
116.663 -18.7121 2.98568
116.725 -18.5171 2.98638
116.744 -18.3129 2.98608
116.773 -18.11 2.98679
116.791 -17.9056 2.98649
133.358 -2.36618 3.04554
132.931 -2.12118 3.0341
132.497 5.31875 3.05896
132.493 5.56817 3.0608
107.641 26.9395 2.63417
56.8166 12.3935 1.28965
20.6285 -8.37817 1.69242
99.2465 -23.6361 2.13795
129.225 -28.6771 2.95802
128.928 -28.3121 2.94806
116.209 -19.1998 2.56374
116.25 -19.0013 2.56444
116.27 -18.7972 2.56414
116.25 -18.6879 2.5635
116.27 -18.4839 2.5632
116.328 -18.0819 2.5636
116.346 -17.8786 2.5633
116.457 -17.6978 2.56598
117.783 -17.5873 2.60219
132.568 5.272 2.68784
132.076 7.96542 2.69363
132.112 8.22087 2.69551
132.344 8.50567 2.70262
107.187 27.066 2.3363
107.157 27.2702 2.33897
107.243 27.5416 2.34495
65.279 13.8403 1.33392
56.8318 12.4514 1.21785
51.939 13.2195 1.23033
51.5441 13.2772 1.23327
123.853 -26.7742 2.45602
121.023 -20.2881 2.37213
107.33 27.0096 1.8742
107.107 27.1046 1.87238
107.126 27.3361 1.87517
107.252 27.519 1.87887
65.2816 13.7791 1.17872
33.3824 18.1809 1.31227
49.6798 -18.0342 0.991299
83.5788 -17.9635 1.28213
103.165 -24.2017 1.58353
120.844 -20.5019 1.84429
121.034 -20.3258 1.84701
122.608 -20.5038 1.87141
115.975 -17.8724 1.76807
128.612 -18.8197 1.96392
132.002 -19.029 2.01638
104.087 12.2641 1.42032
108.743 27.9267 1.5822
108.822 28.1991 1.58517
108.906 28.4759 1.58816
108.965 28.7396 1.59109
65.2768 13.773 1.07469
33.3764 18.2869 1.16263
33.3681 18.162 1.1612
17.1609 16.0076 1.2636
103.598 -24.2914 1.3135
104.114 -21.1328 1.3175
133.131 4.10872 1.13126
91.1499 8.53064 0.991461
108.988 28.2366 1.1464
108.896 28.4142 1.14694
108.953 28.6761 1.14786
65.2652 13.7356 0.932559
65.2317 13.7417 0.932558
33.4436 18.2108 0.95641
124.59 -27.3586 1.00451
128.185 -27.9499 1.0158
115.713 -19.6058 0.991047
115.76 -19.409 0.991742
115.778 -19.2057 0.99244
115.819 -19.0092 0.99313
115.834 -18.8046 0.993831
115.857 -18.6038 0.993524
115.835 -18.4943 0.99388
115.863 -18.2942 0.994574
115.884 -18.0923 0.995269
115.835 -17.8747 0.995973
117.412 -17.6226 1.00283
128.546 -18.8477 1.04078
131.878 -19.1747 1.0518
133.206 4.41313 0.757335
133.124 4.53107 0.757681
133.031 4.77327 0.75844
132.925 5.01408 0.759186
132.814 5.25339 0.759924
77.8357 10.5396 0.823767
77.5932 10.501 0.823482
108.943 28.4699 0.848156
108.97 28.7154 0.849003
65.2979 13.8457 0.837951
21.72 19.0968 0.798936
83.7781 -17.8027 0.722797
115.633 -19.5565 0.689161
115.53 -19.3212 0.69089
115.512 -19.1084 0.691598
115.522 -18.9041 0.692294
115.519 -18.6972 0.692992
115.547 -18.498 0.693682
115.592 -18.3031 0.694369
115.632 -18.2093 0.694712
115.696 -18.0198 0.695393
116.11 -17.706 0.695717
117.908 -17.4963 0.69557
94.0826 1.4786 0.526501
94.1864 1.61795 0.526037
107.525 27.3875 0.455594
107.548 27.6234 0.455406
67.9005 15.8571 0.692403
65.2394 13.796 0.708745
103.487 -24.2995 0.338399
114.173 -25.8176 0.257076
125.205 -24.6226 0.189139
119.647 -21.6939 0.243493
121.308 -21.7112 0.232493
121.931 -21.655 0.22808
116.335 -19.5852 0.278509
116.295 -19.3647 0.280228
115.263 -18.6804 0.290883
115.135 -18.443 0.292604
116.049 -17.9479 0.288858
117.162 -17.5874 0.282785
133.296 -1.95624 -0.256133
131.933 -1.48203 -0.235399
130.917 0.680424 -0.21574
112.187 9.0369 0.0475642
74.3724 10.4959 0.519411
67.9102 15.9108 0.54759
55.8527 19.6806 0.564647
55.7823 19.6984 0.563662
55.7115 19.7041 0.563636
55.6407 19.7098 0.56361
52.7067 13.3486 0.630251
83.8325 -17.943 0.302356
101.49 -23.4005 0.0381622
102.355 -23.1433 0.0305819
103.034 -23.0638 0.0222834
107.22 -22.0812 -0.0217311
99.8889 -18.884 0.0964019
102.72 -18.9235 0.0600718
105.336 -19.42 0.0230602
106.465 -19.2366 0.0103986
116.225 -18.7653 -0.111794
116.182 -18.5463 -0.110081
116.498 -18.416 -0.11244
121.478 -14.6506 -0.154547
113.806 -6.96161 -0.431458
94.0593 0.26617 -0.00561355
92.886 1.66104 0.0203518
92.9589 1.79414 0.0188479
93.1279 1.93957 0.0154469
102.001 3.26093 -0.162439
101.051 3.89488 -0.142902
93.408 8.7344 0.00358129
92.7517 8.67416 0.0169599
107.257 27.4596 -0.348338
74.5022 10.5016 0.345512
55.7376 18.9507 0.419106
55.7025 18.9359 0.419034
90.4943 -22.0905 -0.105416
90.6874 -22.1183 -0.108387
90.7651 -22.011 -0.108975
84.4277 -18.1253 0.0561174
105.643 -17.6913 -0.342906
106.017 -17.6204 -0.349429
105.997 -17.4386 -0.346827
106.164 -17.3967 -0.350579
106.259 -17.2452 -0.351007
115.776 -19.6424 -0.558046
106.371 -16.3049 -0.344759
106.654 -16.2007 -0.349226
106.633 -16.0187 -0.347625
108.987 -15.0502 -0.385854
109.699 -13.6517 -0.389676
109.437 -13.42 -0.38306
108.353 -12.2427 -0.352773
105.198 -7.07547 -0.521326
105.163 -6.91094 -0.519792
113.111 -0.810499 -0.698121
111.642 0.866607 -0.65739
92.2187 4.93691 -0.167007
107.1 27.0931 -0.655678
107.181 27.2484 -0.659102
90.0142 17.6844 -0.189344
55.7515 18.9162 0.306998
55.6812 18.9016 0.307904
55.6125 18.9 0.307855
55.5804 18.9262 0.306923
104.488 -11.2207 -0.530783
104.49 -11.0577 -0.529231
97.1049 -8.22411 -0.582361
97.1613 -8.09303 -0.582883
97.2249 -7.9618 -0.584399
97.2585 -7.82791 -0.584925
97.2792 -7.69243 -0.584454
97.2877 -7.62395 -0.584217
97.208 -7.47712 -0.580772
97.2545 -7.34481 -0.581295
97.3002 -7.21139 -0.581815
97.3748 -7.08052 -0.583326
97.4234 -6.94747 -0.583845
97.4702 -6.81318 -0.584362
97.4856 -6.74555 -0.584124
97.4656 -6.60506 -0.582662
97.4714 -6.46774 -0.582194
97.5062 -6.33298 -0.582717
97.545 -6.19771 -0.583235
97.6008 -6.06353 -0.583746
97.6377 -5.92801 -0.584265
97.6932 -5.8623 -0.586007
97.732 -5.72703 -0.586526
97.7559 -5.58993 -0.586047
97.8279 -5.45572 -0.587548
97.8439 -5.31764 -0.587071
97.8669 -5.18041 -0.587593
97.791 -4.55344 -0.582523
98.2786 -4.29206 -0.59633
98.4283 -4.15634 -0.600776
98.6494 -4.02234 -0.607182
98.8269 -3.95553 -0.611843
98.9658 -3.81747 -0.616289
99.1351 -3.67812 -0.62071
99.3145 -3.53899 -0.626126
99.4639 -3.39719 -0.629552
99.6496 -3.25582 -0.634956
99.8769 -3.11251 -0.641327
100.043 -3.04125 -0.64698
100.278 -2.89595 -0.653339
100.474 -2.74872 -0.659718
100.817 -2.45338 -0.669502
101.014 -2.30244 -0.674866
101.202 -2.15126 -0.680235
101.283 -2.07558 -0.682928
101.671 -1.91882 -0.694151
101.936 -1.76204 -0.702453
102.106 -1.60657 -0.70682
102.256 -1.45075 -0.711198
102.423 -1.29291 -0.716558
102.641 -1.13139 -0.722874
102.89 -1.04522 -0.730424
103.104 -0.882086 -0.736737
103.263 -0.720298 -0.741089
103.351 -0.560875 -0.743494
103.678 -0.388479 -0.753704
103.841 -0.222215 -0.759038
104.027 -0.054672 -0.764353
91.1757 5.63843 -0.370302
95.8798 7.90165 -0.522661
63.5793 13.1517 0.262508
83.3684 -15.8959 -0.254027
92.98 -14.1353 -0.512959
94.2431 -10.8672 -0.516113
96.4629 -10.3355 -0.579903
96.4498 -10.1958 -0.57844
96.432 -10.0546 -0.575974
96.4417 -9.91875 -0.575509
96.478 -9.78721 -0.575041
96.5894 -9.66793 -0.577567
96.6309 -9.53601 -0.578095
96.6911 -9.4074 -0.578623
96.6746 -9.33686 -0.577395
96.713 -9.20457 -0.577923
96.7406 -9.07093 -0.577454
96.7711 -8.93766 -0.577985
96.8056 -8.80489 -0.577514
96.8282 -8.67064 -0.577046
96.8577 -8.53725 -0.577577
96.9127 -8.47551 -0.578333
97.0028 -8.34957 -0.57985
96.1036 0.0603104 -0.794012
96.8985 0.525696 -0.823933
97.0987 0.678386 -0.83129
96.4972 7.80851 -0.829584
96.1751 7.86831 -0.817587
76.1033 4.22205 -0.0606856
67.9115 11.5384 0.0828157
73.2079 17.1769 -0.192763
24.5175 17.1032 -0.516026
64.7692 -19.7269 -0.0198148
79.0544 -18.1257 -0.368309
79.0944 -18.0954 -0.368181
86.8576 -14.7681 -0.568997
86.9777 -14.6932 -0.571667
87.1615 -14.6403 -0.577371
87.187 -14.5316 -0.576988
89.8485 -10.8069 -0.621709
89.85 -10.6892 -0.621311
89.8739 -10.5763 -0.620914
87.6938 -5.79148 -0.697137
87.7587 -5.68965 -0.699752
87.7908 -5.58478 -0.700377
87.8332 -5.53459 -0.701181
87.8732 -5.4307 -0.702804
88.237 -4.3188 -0.711816
88.2773 -4.21193 -0.713429
88.9278 -2.63757 -0.735696
70.6345 11.5421 -0.123439
59.9641 17.8685 -0.0868611
59.897 17.8797 -0.0868657
59.8303 17.895 -0.0868566
59.7632 17.9063 -0.0858612
-10.5685 -7.94952 -2.12802
8.38197 -14.4144 -1.35079
88.8406 1.95326 -0.933243
89.4047 3.34988 -0.967166
89.2943 4.19573 -0.966378
89.2499 4.24452 -0.965242
89.2408 4.35849 -0.964862
88.9113 5.3885 -0.956592
88.8866 5.49935 -0.957234
88.8163 5.59869 -0.953943
88.7446 5.63874 -0.950853
88.6576 5.73409 -0.947586
73.5896 4.25626 -0.216172
73.6915 4.36363 -0.222744
70.3393 9.79227 -0.190539
59.9444 17.8391 -0.209974
59.8843 17.8747 -0.210892
59.8126 17.8734 -0.209942
-0.843769 -6.00569 -1.99226
72.4896 -17.639 -0.428846
72.5811 -17.616 -0.43171
86.0256 4.70954 -1.02272
86.0111 4.81308 -1.02238
86.0257 4.92313 -1.024
85.9854 5.0208 -1.0237
59.9195 17.8335 -0.347009
59.8416 17.8058 -0.344152
59.7837 17.8513 -0.345036
3.02022 15.0487 -2.21667
19.6636 -13.1226 -1.27024
54.2155 -18.7504 -0.147238
71.2152 -16.7875 -0.491781
83.7792 4.36985 -1.0613
83.7431 4.46095 -1.06002
83.7682 4.56668 -1.06265
70.6281 9.72331 -0.445589
55.7771 19.4166 -0.5083
55.7279 19.6716 -0.52247
55.6614 19.7372 -0.526291
55.5921 19.7548 -0.527275
28.525 16.288 -1.11423
11.2685 -1.0311 -1.85474
13.6274 -7.72626 -1.74485
63.0509 -16.9349 -0.278478
65.0139 -18.4861 -0.429469
69.2927 -15.1613 -0.450512
14.0325 9.6901 -2.05376
59.9359 -19.0412 -0.435579
67.03 10.0168 -0.50889
49.1549 8.375 -0.0648189
28.2545 16.5616 -1.51848
22.7602 -8.06738 -1.55819
71.2928 -13.3705 -0.724189
74.6936 -2.94263 -0.860794
74.6795 -2.87741 -0.859582
74.6775 -2.81168 -0.859362
74.7007 -2.74602 -0.860125
74.6866 -2.68081 -0.858914
74.7037 -2.6154 -0.860682
74.723 -2.58151 -0.861555
74.7291 -2.51575 -0.862329
74.7321 -2.45063 -0.862107
74.7321 -2.38514 -0.862886
74.3463 9.43857 -1.06619
70.6148 9.94194 -0.841861
67.1581 10.0095 -0.636834
63.8516 -15.9484 -0.556637
71.1264 -11.8586 -0.781188
73.1346 -7.70394 -0.799872
67.0852 9.49983 -0.710602
67.0606 9.8727 -0.730358
60.2796 11.9903 -0.541522
70.478 -9.62261 -0.755046
66.9166 9.33349 -0.797272
66.9468 9.43963 -0.805895
67.0685 9.59296 -0.823299
67.1594 9.75814 -0.838683
67.1956 9.87259 -0.848273
67.0819 9.47278 -0.931697
67.0895 9.55853 -0.938403
66.9554 9.5095 -0.925654
67.0645 9.6916 -0.944969
67.0551 9.76229 -0.948736
66.887 9.64087 -0.929253
60.5773 5.47784 -0.225333
63.0743 13.9982 -1.03096
62.9927 13.974 -1.02509
66.2923 -12.5688 -0.773666
67.2882 9.78138 -1.08052
67.256 9.83069 -1.08138
66.9304 9.60064 -1.04036
62.9841 14.0098 -1.14598
62.8869 13.9572 -1.13622
62.8066 13.9349 -1.13035
62.7209 13.9021 -1.12351
61.2356 14.0809 -1.07285
59.6522 11.2401 -0.746457
67.2859 9.41926 -1.17475
67.2047 9.4222 -1.16879
67.2667 9.55768 -1.18329
67.214 9.58735 -1.18123
67.1235 9.58134 -1.17331
67.12 9.61805 -1.17618
66.986 9.56902 -1.16143
67.0941 9.75125 -1.18375
42.643 13.7614 -1.37878
41.7471 6.95719 -0.905332
66.7313 8.82671 -1.1951
66.7274 8.86045 -1.19699
66.7049 8.91462 -1.19882
66.6607 8.94827 -1.19774
66.6142 8.98019 -1.19666
66.5826 9.0264 -1.19752
66.5395 9.06093 -1.19644
66.4988 9.09819 -1.19534
66.4669 9.14242 -1.19621
66.1221 8.45347 -1.21075
66.0866 8.4921 -1.21065
66.058 8.53795 -1.21151
66.027 8.58106 -1.21238
65.9858 8.61435 -1.2113
65.8384 8.5468 -1.19262
66.3764 -7.01291 -0.895843
66.4311 -6.98637 -0.901718
58.5463 11.9131 -1.24589
61.7528 -11.9668 -0.850524
64.684 7.19203 -1.26093
64.6621 7.23504 -1.2628
64.638 7.27631 -1.26368
64.6047 7.30862 -1.26359
55.3373 7.08202 -0.598253
64.3869 6.89013 -1.26714
64.3556 6.9222 -1.26705
64.3313 6.96247 -1.26793
64.2829 6.9785 -1.26491
55.0685 6.87135 -0.609136
55.0534 6.8712 -0.609146
55.0231 6.87896 -0.610139
54.9935 6.89268 -0.611111
54.9611 6.88257 -0.609166
54.9307 6.88934 -0.610163
62.2361 -10.4404 -0.871059
58.9755 10.1788 -1.31048
58.9597 10.1979 -1.31242
58.9186 10.216 -1.31239
52.1768 11.5468 -1.38519
52.1323 11.5372 -1.38425
56.7975 -12.0902 -0.710096
64.083 4.21104 -1.22739
64.0663 4.24735 -1.22827
58.1713 9.48292 -1.31634
58.1584 9.50871 -1.31926
58.1156 9.51297 -1.31727
58.0803 9.53747 -1.31921
58.0448 9.55999 -1.32116
58.0081 9.58064 -1.32211
57.973 9.60713 -1.32405
57.8845 8.88054 -1.33556
57.8463 8.88928 -1.33555
57.6763 8.27848 -1.33472
57.6434 8.29765 -1.33668
55.9833 5.44783 -0.918364
55.9589 5.46193 -0.919332
51.8254 7.98399 -1.38545
51.7883 7.99361 -1.38844
51.7516 7.99815 -1.39045
61.2212 -5.87279 -0.917274
-14.1534 11.4152 -23.634
56.3913 -2.75274 -0.314806
52.8917 -1.37338 -0.0233731
52.6409 -4.26742 -0.0323103
53.0651 -1.68332 0.0946908
122.872 -19.4864 -29.9112
122.939 -19.2729 -29.9164
53.129 -1.68816 0.0917152
53.1372 -1.71137 0.101642
53.0378 -1.59405 0.0179747
53.073 -1.65997 0.0517746
53.0705 -1.66369 0.0527604
53.041 -1.62572 0.0308697
53.0164 -1.59643 0.0139529
52.9706 -1.53425 -0.0208664
52.9417 -1.49938 -0.0417671
52.9777 -1.55834 -0.00994312
52.9623 -1.54432 -0.0199057
52.9851 -1.58851 0.00295966
52.9068 -1.47991 -0.0577237
52.9666 -1.68105 0.0336354
53.0417 -1.79127 0.0933113
53.0074 -1.80011 0.0872595
52.8867 -1.65094 0.000686098
55.177 -4.15234 -0.141307
55.1635 -4.13157 -0.130245
55.1069 -4.07536 -0.0930912
-27.5359 27.2704 0.81515
