ply
format ascii 1.0
element vertex 589
property float x
property float y
property float z
end_header
157.569 -4.33835 4.2026
131.607 7.78313 3.14748
154.521 18.003 4.03062
98.708 13.1217 2.04114
91.7102 50.876 2.76836
91.3075 50.7109 2.75953
82.1592 48.6461 2.62662
81.4435 45.078 2.5316
81.2862 46.9401 2.57813
81.0372 45.2591 2.53385
63.7652 11.7574 1.82081
63.747 11.66 1.81953
29.1863 18.2301 2.66785
25.3734 -10.5441 2.83109
16.621 -12.2843 3.09766
21.8122 -12.0153 2.94788
21.8288 -12.2006 2.94953
43.2092 -10.7237 2.33045
44.2583 -11.491 2.31064
48.5389 -11.4446 2.18973
48.9282 -11.5415 2.18068
48.9728 -11.6379 2.18073
54.3681 -15.1022 2.08837
54.4048 -15.1833 2.08825
54.3855 -15.2816 2.09097
54.0997 -15.4685 2.10197
54.4025 -15.4154 2.09319
54.3033 -15.5424 2.09771
24.0393 -26.9364 3.12017
22.2395 -27.7869 3.18443
24.3603 -27.8325 3.12944
43.9672 -21.0994 2.48058
44.0688 -21.1939 2.47993
44.0793 -21.3238 2.48207
44.0873 -21.4563 2.48523
44.1339 -21.5044 2.48489
42.1952 -22.7137 2.56039
53.3384 -18.4082 2.18143
53.4522 -18.4106 2.17908
53.8036 -19.4455 2.19268
11.7277 -39.6357 3.70907
11.9386 -40.0703 3.71387
12.2666 -40.1785 3.70858
25.8246 -35.639 3.26591
53.9972 -22.6852 2.2669
54.0319 -22.7801 2.26789
64.2371 -20.0652 1.96412
121.156 -50.9401 3.82634
130.356 -60.7671 4.41521
143.408 -55.9066 4.65711
146.103 -48.0222 4.52582
137.829 -41.3938 4.06783
150.319 -2.03453 3.46247
137.013 6.63065 2.9898
150.606 17.3111 3.4159
96.9532 14.5818 1.85127
96.0114 14.6856 1.83223
96.0225 14.8457 1.83495
95.2131 13.9572 1.80495
91.0575 58.9523 2.54207
89.9529 59.3345 2.53881
81.3366 45.3295 2.20789
81.1732 45.2197 2.20491
20.7765 -21.5089 2.71576
20.6952 -27.7298 2.81845
122.331 -41.2618 3.21063
143.076 -55.4676 4.13259
143.333 -55.3542 4.13705
133.152 -28.3583 3.23287
143.329 -20.7227 3.42774
143.342 -20.5205 3.42511
143.306 -20.4092 3.42198
143.301 -20.2034 3.41923
143.32 -20.0031 3.41666
157.514 -5.58556 3.36571
157.434 -5.22751 3.36027
158.717 -4.47115 3.39097
139.28 9.64241 2.77299
150.513 17.2179 3.06716
96.6543 15.29 1.72769
95.9431 14.4237 1.70604
91.5392 27.931 1.80367
92.27 50.6921 2.12494
82.1249 45.2358 1.96699
81.2307 46.1514 1.9744
81.0654 45.8115 1.96935
134.321 -40.565 3.2286
134.427 -40.5147 3.22976
140.696 -39.3133 3.3641
142.517 -39.8109 3.41926
159.74 -5.36009 2.83101
152.861 17.3451 2.55795
155.737 20.2757 2.60517
141.987 19.186 2.33784
90.7898 34.0953 1.56189
92.1183 50.7481 1.68161
89.7644 60.4247 1.7276
85.7867 66.3569 1.74005
85.5581 66.3759 1.73864
85.3299 66.4048 1.73814
81.2451 45.4712 1.57016
81.0818 45.4454 1.56948
33.0862 17.059 1.56601
11.5627 -39.1043 2.27164
11.6394 -39.3347 2.27499
115.934 -25.957 2.17321
138.519 -30.061 2.66857
149.261 -31.4959 2.89956
156.162 -31.2427 3.03331
141.377 -20.8667 2.60619
141.398 -20.6718 2.60467
141.365 -20.5639 2.60259
141.393 -20.371 2.60012
141.415 -19.978 2.59595
141.417 -19.7793 2.5943
142.87 -19.3872 2.61898
157.276 -19.7655 2.91822
151.015 21.3627 2.12312
142.225 19.2996 2.00218
100.73 15.2838 1.43409
100.048 15.9807 1.42551
98.1051 13.7862 1.40424
96.3027 14.8482 1.38244
94.1079 38.192 1.38075
91.2095 49.8648 1.37501
91.0621 50.068 1.3745
86.1108 66.3375 1.36797
81.3314 46.6066 1.30611
81.1638 45.4972 1.30349
146.188 -21.8821 2.37409
156.207 18.798 1.66209
142.74 19.453 1.54369
94.199 40.0496 1.04666
87.1753 61.9682 0.888409
86.686 62.6301 0.882176
85.4898 66.3588 0.855359
83.2112 37.908 0.991312
81.2738 44.0275 0.94839
97.958 -19.853 1.48337
116.58 -22.642 1.66394
134.139 -28.7015 1.8701
147.135 -30.5331 1.99677
146.575 -21.384 1.90702
146.635 -21.1814 1.90565
140.965 -19.8217 1.84513
142.33 -19.5189 1.85408
157.182 -19.9257 1.98501
94.1672 39.6726 0.821638
94.3004 40.4323 0.815001
86.8004 61.73 0.564332
86.6065 62.0026 0.560983
78.7614 9.44042 1.03949
78.7283 9.31589 1.04035
116.354 -22.6137 1.48046
116.512 -22.3507 1.47812
143.524 -21.8087 1.58282
143.55 -21.6074 1.58127
143.528 -21.4992 1.58025
145.231 -21.0544 1.58386
146.376 -21.0969 1.5885
142.636 -19.3593 1.55941
153.462 21.0397 0.766192
106.476 19.6919 0.842647
106.797 21.5772 0.815609
97.6338 14.5984 0.912817
94.9215 12.1327 0.9466
91.6109 9.42216 0.984151
88.8217 11.1291 0.952537
90.2233 48.4559 0.360358
87.2774 62.7711 0.114201
86.9631 61.6608 0.130783
82.1714 37.5769 0.498357
82.2327 46.9044 0.34751
90.2753 -22.2824 1.25056
98.0135 -19.8225 1.2464
116.538 -22.4412 1.23301
116.607 -22.4047 1.23308
116.998 -22.4442 1.23256
143.192 -29.9106 1.22488
150.09 -30.9062 1.21708
154.718 -31.6307 1.21255
140.883 -21.2173 1.17735
140.981 -19.7554 1.16763
159.964 -5.49701 0.529273
158.44 -5.27631 0.54006
91.0441 11.0773 0.833161
90.6586 57.6404 -0.185258
91.3922 65.7256 -0.363004
86.9063 60.4333 -0.26226
86.1385 61.5294 -0.290662
83.2484 37.2503 0.239992
80.8055 21.8626 0.571569
80.6117 20.2944 0.60565
43.7162 -4.81315 0.466601
98.3135 -19.9477 1.11309
116.281 -22.6474 0.997315
140.612 -21.2022 0.801712
140.588 -20.9986 0.800874
140.568 -20.7956 0.800062
140.589 -20.6038 0.798573
140.578 -20.4041 0.797836
140.578 -20.3061 0.797015
140.596 -20.1136 0.7965
140.889 -19.9824 0.793012
156.807 -5.38336 0.0289709
152.779 1.45141 0.0245782
117.893 4.85445 0.508641
106.499 10.6692 0.56138
106.378 10.7029 0.562431
95.7636 13.3349 0.605128
89.2047 55.5067 -0.579373
87.8602 59.7916 -0.70867
87.3645 61.2655 -0.753746
86.3291 66.2675 -0.904357
86.1003 66.2995 -0.905882
85.9872 66.328 -0.906741
85.7599 66.37 -0.909341
83.6888 38.4763 -0.0998844
98.1953 -19.7943 0.963151
98.2345 -19.7818 0.962261
116.705 -22.3187 0.722869
143.996 -22.614 0.330092
144.922 -22.6371 0.316368
145.242 -22.5035 0.311001
145.501 -22.4603 0.307065
140.38 -21.0021 0.377741
140.443 -20.8202 0.376561
140.485 -20.6333 0.375226
140.493 -20.4384 0.374637
141.603 -20.2971 0.357541
141.794 -20.2399 0.354111
141.094 -19.885 0.363299
141.508 -19.5792 0.356008
142.544 -19.3988 0.340178
142.132 -10.855 -0.0137095
149.646 -5.98249 -0.205318
146.665 -3.95112 -0.162701
98.5794 47.7026 -0.637524
95.662 50.4069 -0.723202
83.8443 39.0228 -0.349624
81.2404 32.4959 -0.1372
81.1183 30.6498 -0.0743938
98.3087 -19.8187 0.850972
98.3964 -19.7991 0.849289
117.684 -22.7389 0.504756
125.939 -25.866 0.34626
136.031 -7.09995 -0.241672
136.842 -6.14452 -0.271228
136.992 -5.96721 -0.276891
137.29 -4.10991 -0.301823
136.512 2.37024 -0.35741
136.581 2.82896 -0.365874
136.87 3.05887 -0.376215
136.871 3.23959 -0.378725
136.955 3.43555 -0.383907
132.753 5.21552 -0.300881
102.092 9.01287 0.357066
91.765 40.899 -0.688899
81.9911 30.1572 -0.271486
10.7742 -15.05 -1.37247
121.253 -23.5773 0.178351
127.145 -19.4082 0.0417347
128.93 -16.5629 -0.00731812
128.972 -16.4154 -0.00832019
128.764 -16.0609 -0.00343531
126.332 -7.69102 -0.275943
126.411 -7.55091 -0.279684
126.47 -7.4099 -0.283543
128.167 -4.55407 -0.36417
128.328 -4.39858 -0.37159
128.496 -4.24112 -0.378986
128.71 -4.15488 -0.386537
128.94 -3.99217 -0.395641
129.146 -3.82914 -0.404874
130.348 -2.74847 -0.456341
12.8689 -8.51855 -1.78074
18.4705 -9.34663 -1.52804
19.7989 -11.0288 -1.45965
19.8073 -11.222 -1.45799
17.1853 -12.9369 -1.56501
18.2054 -13.0357 -1.51958
24.5567 -16.2789 -1.23153
118.777 -18.6693 -0.00637771
118.968 -18.4686 -0.0120134
119.102 -18.4455 -0.015473
120.384 -16.4479 -0.0521792
124.578 -13.4396 -0.190384
124.553 -13.157 -0.189894
124.522 -13.0131 -0.189268
120.168 -10.8023 -0.287694
120.154 -10.677 -0.287823
120.146 -10.5515 -0.287919
120.164 -10.4299 -0.288836
120.174 -10.307 -0.289812
120.194 -10.2473 -0.291205
120.205 -10.1245 -0.292175
120.231 -10.0031 -0.293046
120.252 -9.88083 -0.294957
120.26 -9.75767 -0.295947
120.241 -9.63276 -0.296095
120.213 -9.50641 -0.295308
120.193 -9.44386 -0.294944
120.202 -9.32084 -0.295927
120.22 -9.19926 -0.296844
120.226 -9.07581 -0.297847
123.028 -3.84723 -0.452301
123.093 -3.7102 -0.456091
123.175 -3.5725 -0.460798
123.22 -3.50231 -0.463137
123.306 -3.36321 -0.467832
123.381 -3.22351 -0.472592
123.454 -3.08354 -0.477366
125.189 0.575783 -0.595516
100.719 10.2993 0.022734
90.4615 53.7168 -1.96154
87.0042 62.8317 -2.44193
19.1945 -6.8805 -1.88276
27.9136 -9.191 -1.43052
30.7655 -14.09 -1.26781
108.083 -20.3498 0.127028
114.017 -19.0437 -0.0693662
114.589 -17.6049 -0.0812869
97.6412 25.5832 -0.788293
91.0592 37.9776 -1.40532
91.2032 40.0081 -1.52256
87.9576 60.6646 -2.71455
84.9692 66.5944 -3.06567
82.8188 35.7197 -1.26461
29.1703 -5.23207 -1.69682
29.1592 -7.35429 -1.67909
29.3681 -7.67643 -1.66425
29.6951 -8.39756 -1.64141
29.6492 -8.56069 -1.64329
106.829 -21.6133 -0.0172706
106.939 -21.5676 -0.0210521
113.927 -13.7938 -0.235869
101.43 7.9059 -0.214316
97.8588 10.7802 -0.211004
89.0601 10.3744 0.0481258
91.5081 37.6316 -1.67697
85.1357 66.5436 -3.52735
85.0232 66.5831 -3.5303
82.3125 32.0652 -1.29876
81.1921 24.6586 -0.822814
86.1084 -21.6822 0.466619
109.376 -15.261 -0.233547
92.0651 15.1982 -0.425837
93.0575 36.8359 -1.87981
85.7655 66.3192 -3.90103
85.5398 66.4003 -3.90695
82.0909 30.5848 -1.40158
81.2005 24.4511 -0.975036
40.8368 -4.84696 -1.52202
40.9844 -6.17871 -1.49804
97.4742 -22.685 0.0153739
96.258 8.678 -0.319175
93.0274 42.3347 -2.6061
85.8572 53.6991 -3.43774
85.6623 53.6444 -3.43335
85.4732 53.6637 -3.43555
85.13 66.3517 -4.41382
75.5456 3.62631 0.288531
75.4612 3.55265 0.289685
75.4355 3.52201 0.290801
107.282 -0.573603 -0.679155
96.2642 41.5865 -2.84008
84.0099 44.918 -3.01626
79.4971 12.4273 -0.37158
102.242 -14.2085 -0.266518
87.7997 63.768 -5.02455
87.5782 63.795 -5.02699
82.4067 32.4909 -2.25686
79.6701 13.5424 -0.593988
79.5345 12.4634 -0.499684
90.5913 38.7154 -3.10616
89.4484 56.8915 -4.79185
89.245 56.8896 -4.78995
89.046 56.9174 -4.79128
86.8995 56.6514 -4.75883
86.8027 56.6876 -4.76166
86.3124 53.3345 -4.44523
84.5162 44.7713 -3.63728
82.1888 31.0364 -2.34487
79.5354 12.4503 -0.608575
79.4978 12.1851 -0.584557
91.4775 -20.5519 -0.110418
93.7775 -19.7223 -0.178753
92.6286 37.2018 -3.2653
90.2321 39.0127 -3.40664
90.9194 53.0833 -4.80486
90.4625 52.6304 -4.75657
89.5154 53.345 -4.81976
89.1097 53.1886 -4.80168
88.9416 53.3594 -4.81703
88.829 53.2313 -4.80358
88.6509 53.3408 -4.81347
88.284 53.4656 -4.82353
88.107 53.5962 -4.8356
87.9188 53.6295 -4.83891
87.0422 53.4797 -4.81946
86.7152 54.0661 -4.87718
86.5214 54.0538 -4.87614
86.2323 54.0391 -4.8736
86.0452 54.1005 -4.87914
85.8571 54.1549 -4.88463
84.7459 46.4068 -4.10775
83.2036 37.0551 -3.17079
82.0527 32.2518 -2.69082
81.9101 28.7749 -2.34245
81.7814 27.9242 -2.25802
81.5437 26.4077 -2.10661
79.5475 12.4315 -0.720356
89.3281 -20.8058 -0.134087
89.3939 -20.7143 -0.130493
100.113 1.39795 -0.783026
100.094 1.46034 -0.784655
100.066 1.51895 -0.784299
100.022 1.5708 -0.782975
99.978 1.62167 -0.781644
99.9403 1.64028 -0.780007
89.9984 49.0186 -4.75185
89.6376 49.0041 -4.74671
89.454 48.9711 -4.74144
89.2784 48.9935 -4.74259
89.1891 48.9984 -4.74212
89.0043 48.9504 -4.73573
88.833 49.0024 -4.73911
88.317 49.1437 -4.75112
88.1448 49.1898 -4.75446
87.9678 49.1953 -4.75347
87.88 49.21 -4.75508
87.7004 49.1976 -4.75196
87.5301 49.2636 -4.75845
87.3572 49.3048 -4.76174
87.1821 49.3301 -4.76392
87.0086 49.3744 -4.76724
86.8272 49.3431 -4.76297
86.739 49.3478 -4.7635
86.0276 49.3406 -4.76034
85.8475 49.3041 -4.75602
85.6674 49.2605 -4.75064
85.5761 49.2303 -4.74689
85.4012 49.2576 -4.75008
82.0151 32.0444 -2.9163
81.5225 26.3839 -2.31454
79.6856 13.5838 -0.963269
89.9478 45.8753 -4.74678
89.0412 46.0338 -4.75509
88.871 46.0312 -4.753
88.7066 46.061 -4.75515
88.5445 46.1137 -4.75948
88.4526 46.0584 -4.75252
85.5893 45.9294 -4.72015
83.1024 35.5905 -3.55209
82.0105 31.6748 -3.11324
89.2378 43.0912 -4.75934
89.1136 43.3141 -4.7839
88.9778 43.4781 -4.80202
88.9035 43.5161 -4.80574
87.7228 43.7142 -4.81688
87.5653 43.743 -4.81899
87.4094 43.7898 -4.82324
87.2505 43.8017 -4.82321
81.2191 23.9947 -2.45018
88.5282 41.3673 -4.84579
88.3842 41.4397 -4.85319
88.3071 41.4377 -4.8516
88.1551 41.4556 -4.85258
88.0005 41.4558 -4.85043
87.8485 41.4667 -4.85036
87.3931 41.5245 -4.85334
87.3238 41.583 -4.86021
87.1751 41.6237 -4.86337
87.0261 41.6624 -4.86651
86.8747 41.6843 -4.86853
82.4855 34.1251 -3.90621
81.323 24.5819 -2.71155
78.4654 11.3112 -1.08492
96.1607 -6.9424 -0.556804
96.1676 -6.89489 -0.557165
96.1745 -6.8474 -0.558525
96.1741 -6.80087 -0.558917
96.1649 -6.75305 -0.558368
96.1593 -6.72899 -0.557601
88.8309 38.7271 -4.787
88.7642 38.7691 -4.79072
88.6304 38.849 -4.79913
88.4943 38.9141 -4.80542
88.3547 38.9616 -4.81058
88.2098 38.9725 -4.80947
88.0625 38.9675 -4.80724
87.916 38.9675 -4.80504
87.8377 38.9365 -4.80021
87.691 38.9355 -4.79801
86.8215 38.9805 -4.79515
86.7547 39.0285 -4.79992
86.618 39.1028 -4.8083
86.4762 39.1355 -4.81135
86.3332 39.1662 -4.81439
86.1889 39.1821 -4.81532
86.0431 39.1799 -4.8141
85.8957 39.1599 -4.81074
85.8232 39.1613 -4.81015
85.1046 39.2511 -4.81684
84.9581 39.237 -4.81453
84.8156 39.2788 -4.81966
84.7456 39.304 -4.82226
84.6005 39.3068 -4.82208
84.3134 39.3615 -4.82911
84.1706 39.4013 -4.83323
83.6427 36.5593 -4.46029
82.5635 34.8722 -4.23806
82.2125 27.8316 -3.31493
81.2743 24.1 -2.82878
79.8311 13.0331 -1.38888
79.8227 12.6982 -1.34511
76.7407 4.20232 -0.345771
95.924 -9.55539 -0.541202
95.9578 -9.53809 -0.545162
95.9568 -9.48943 -0.544575
87.1515 36.7809 -4.73691
87.0098 36.7651 -4.73255
86.8772 36.8125 -4.73768
86.7435 36.8521 -4.74174
86.6094 36.8886 -4.74478
86.4737 36.9214 -4.7478
86.3376 36.9441 -4.74974
86.2016 36.9678 -4.75169
86.1317 36.9598 -4.75
81.3918 24.3584 -3.02031
80.0376 12.5321 -1.41854
86.7015 34.288 -4.68248
86.6346 34.2795 -4.67977
84.9654 34.5442 -4.70115
84.8358 34.5559 -4.70196
84.7074 34.5836 -4.7049
84.5783 34.6063 -4.7078
83.7409 34.7607 -4.72669
83.6109 34.7765 -4.72854
83.4818 34.8062 -4.73249
82.1596 27.6776 -3.71095
81.381 24.8156 -3.30222
81.2792 24.1096 -3.20185
81.1806 23.1064 -3.05798
80.6014 10.327 -1.22996
82.5465 -17.14 -0.19903
88.3456 -15.8029 -0.467426
79.3543 -14.0197 -0.507714
79.3631 -14.0858 -0.521113
84.8348 -9.34029 -0.623864
83.6728 -6.53433 0.106279
83.6858 -6.49382 0.10001
80.1591 -5.07308 0.348762
80.3683 -5.38125 0.478499
80.343 -5.34742 0.460076
80.432 -5.38141 0.47385
80.4519 -5.42454 0.495322
80.4262 -5.38663 0.473862
80.1258 -7.67111 0.490361
80.1567 -7.64514 0.508314
124.992 -20.3801 -18.8989
80.3298 -5.26725 0.387328
80.3845 -5.36872 0.441481
80.3811 -5.37126 0.441484
80.3557 -5.33843 0.422068
80.3324 -5.30489 0.402658
80.3027 -5.26641 0.380172
80.2543 -5.19805 0.341331
80.2875 -5.26021 0.374036
80.2807 -5.25824 0.371982
80.2892 -5.28262 0.383234
80.2408 -5.21427 0.344393
80.2412 -5.33521 0.392411
80.3384 -5.48305 0.475189
80.2278 -5.39174 0.410813
80.1081 -7.61199 0.486768
79.9113 -7.93944 0.319424
79.997 -7.84734 0.376125
80.0439 -7.80135 0.405999
80.0691 -7.77964 0.420956
80.1389 -7.70755 0.465737
80.151 -7.70016 0.472742
80.1608 -7.69547 0.476756
80.0893 -7.78657 0.425125
80.073 -7.80956 0.412227
79.8935 -8.02909 0.284076
82.4167 -7.88796 0.29774
82.416 -7.87874 0.301659
1.15033e-41 0 3.95793e-34
