ply
format ascii 1.0
element vertex 663
property float x
property float y
property float z
end_header
119.85 -1.43858 3.23505
95.4682 15.8766 2.48312
72.7343 9.4706 1.7424
72.4974 9.50394 1.73567
59.8688 14.5424 1.44228
58.9905 14.6873 1.42421
47.0318 24.7845 1.48715
47.1796 25.5109 1.50953
47.2843 26.2605 1.5319
47.386 27.0194 1.55525
47.5194 27.9239 1.58307
26.0427 18.765 1.45239
25.9395 18.7778 1.45451
25.8684 18.8126 1.45751
25.7677 18.8201 1.45964
25.6988 18.7824 1.45988
25.6043 18.7812 1.46203
11.5247 20.849 1.86071
11.4868 20.735 1.86014
11.5113 20.6433 1.85741
1.12031 22.8757 2.19866
9.0011 16.7385 1.87022
8.83868 16.571 1.87303
8.66743 16.2778 1.87427
-26.2334 30.8693 3.15707
-28.0333 30.8261 3.21408
-2.87008 17.8118 2.25964
1.34839 15.4774 2.09857
0.580346 14.2118 2.11095
-4.57486 16.1022 2.29897
-3.90369 15.1239 2.26811
-3.32334 14.7487 2.24542
-3.20359 14.5486 2.23988
-3.12244 14.3652 2.23536
-3.7556 14.2863 2.25562
-3.72799 14.1209 2.25312
-5.8508 13.1128 2.31682
-32.6249 -16.7488 3.33953
-19.0448 -16.1432 2.86388
-34.7754 -24.2166 3.50047
20.9119 -9.12203 1.41509
20.8758 -9.20602 1.41742
20.8951 -9.2681 1.41759
20.8914 -9.33906 1.41883
21.9796 -9.97499 1.39418
22.0024 -9.99923 1.39423
14.0685 -16.3912 1.76586
105.514 -17.9402 2.89607
105.532 -17.726 2.89434
105.564 -17.516 2.8926
105.6 -17.3065 2.89186
105.625 -17.095 2.89012
105.664 -16.8867 2.88938
105.683 -16.6736 2.88765
105.695 -16.5672 2.88628
94.9329 14.2302 2.09337
47.115 25.0844 1.32103
47.2176 25.8101 1.33849
47.3227 26.5636 1.35684
47.4698 27.3142 1.37515
47.5357 27.9499 1.38996
2.83485 20.4812 1.83778
-28.5591 30.1347 2.74419
-30.5929 30.8066 2.80423
-3.80371 16.0827 1.9728
-31.7154 -15.6389 2.83344
33.4609 -16.6508 1.17677
51.2313 -12.3304 1.10925
51.2885 -12.3518 1.11022
83.7862 -21.124 1.97518
104.995 -18.0063 2.45511
105.056 -17.8052 2.45536
105.054 -17.6955 2.454
105.098 -17.4897 2.45326
105.117 -17.2787 2.45153
105.147 -17.0685 2.44979
105.177 -16.8594 2.44906
105.215 -16.653 2.44832
105.256 -16.446 2.44658
105.274 -16.3422 2.44621
105.31 -16.1357 2.44547
105.93 -16.0574 2.46023
95.5709 16.5497 1.84574
95.4073 16.6897 1.84254
47.0786 24.7419 1.18521
47.1789 25.4547 1.19871
47.2807 26.1944 1.21312
47.383 26.9492 1.22748
47.4249 27.4897 1.23764
-19.3801 -15.8016 2.19629
109.801 -18.8204 2.24612
67.2914 13.4271 1.0431
47.1564 25.1015 0.982906
47.2585 25.8231 0.991375
47.363 26.5696 0.999758
47.4642 27.3235 1.00912
47.5304 27.9631 1.01692
27.054 18.5346 0.980525
21.9202 20.1312 1.04948
-19.8078 -16.9772 1.74883
-35.2731 -24.7994 2.05817
57.8166 -19.13 1.07305
90.6206 -22.4795 1.48372
93.3527 -22.8311 1.52051
114.114 -25.8634 1.81035
109.661 -19.0591 1.70112
109.83 -18.8692 1.70223
105.416 10.9637 1.18936
88.2007 14.3022 1.04587
47.1593 25.1871 0.842619
47.2611 25.9168 0.847062
47.3575 26.641 0.851532
47.465 27.4304 0.85677
47.508 27.9828 0.860889
21.9108 20.1085 0.904564
79.122 -20.7559 1.1034
77.1054 -17.2977 1.06127
98.6729 -20.5699 1.2536
98.6486 -20.3587 1.25195
76.9359 9.12347 0.688833
67.2442 13.379 0.667328
54.4229 15.2364 0.652686
47.0944 24.8109 0.649956
47.1909 25.5039 0.649528
47.2947 26.2434 0.648936
47.4484 27.0114 0.64917
47.5349 27.7164 0.648719
48.1504 30.519 0.647539
48.0216 30.4317 0.648031
21.9435 20.1279 0.708447
-26.5315 32.0538 0.892642
24.4282 -15.716 0.799112
48.7932 -18.1406 0.7612
72.217 -20.1719 0.7885
85.4172 -21.6221 0.811201
104.562 -18.0325 0.82288
105.466 -16.0897 0.816062
95.1655 8.35082 0.454286
88.2204 14.2853 0.45389
67.2799 13.4936 0.519894
54.4582 15.3462 0.548268
47.1198 25.1676 0.519744
47.2215 25.8953 0.516194
47.3175 26.6265 0.511641
47.4284 27.4306 0.507825
47.54 28.0609 0.504579
47.9855 30.6686 0.49131
42.5034 16.3578 0.57002
42.3902 16.3715 0.570156
21.8418 20.138 0.575575
86.7521 -21.8531 0.574828
77.356 -17.1472 0.590374
101.014 -23.9338 0.536904
104.475 -17.7662 0.508142
104.416 -17.5366 0.508484
104.416 -17.3217 0.507778
104.372 -17.204 0.507463
104.392 -16.9951 0.506744
104.427 -16.7894 0.506014
104.494 -16.5908 0.505256
104.541 -16.3883 0.504516
105.372 -16.0407 0.501049
119.47 0.133551 -0.0985241
105.208 3.53642 0.0240621
111.029 5.56026 -0.0388665
109.338 5.83207 -0.0240609
104.013 6.59393 0.022934
91.9843 9.95306 0.1201
90.1165 9.87191 0.138346
87.3153 10.2574 0.16255
88.218 14.2533 0.131997
67.3102 13.4017 0.323146
54.5564 15.2712 0.407357
54.4663 15.2747 0.407489
43.1492 17.2658 0.444009
43.103 17.3505 0.442805
21.9227 20.1669 0.39535
21.8983 20.0577 0.396747
111.503 -22.9879 0.028064
105.302 -17.8144 0.0789789
105.032 -17.5299 0.0814751
104.086 -17.0832 0.0895187
104.068 -16.9719 0.0891834
104.127 -16.7737 0.0884373
105.5 -16.667 0.0758967
105.11 -16.146 0.0788107
105.309 -15.976 0.076934
119.093 -0.0455226 -0.579338
118.246 0.0614827 -0.566337
100.554 2.93809 -0.301552
99.8107 3.26122 -0.291427
96.3452 3.42811 -0.238446
93.9532 4.50026 -0.206148
93.9837 4.67516 -0.207771
93.4251 4.95078 -0.200785
87.2812 10.1983 -0.136204
67.2486 13.4219 0.132176
54.4861 15.2734 0.271461
48.5952 19.4964 0.259
47.0176 24.4599 0.186227
47.1401 25.2489 0.172443
47.2512 25.842 0.162319
47.4594 27.3702 0.134972
47.9716 30.6233 0.0774785
43.1434 17.2911 0.325935
43.0766 17.2532 0.327166
-33.5015 21.6079 -0.378968
49.2513 -18.3596 0.431186
49.8124 -18.4265 0.42651
50.429 -18.4917 0.42074
77.6691 -17.3462 0.0795239
97.292 -20.5474 -0.214276
93.2377 -17.3649 -0.151252
105.535 -18.4696 -0.337246
98.322 -4.97875 -0.647014
98.1923 -4.78774 -0.644434
106.184 0.0655725 -0.839111
93.2786 3.62442 -0.564201
91.0554 4.30205 -0.517877
67.3486 13.4208 -0.0859809
47.204 25.5144 -0.0275318
47.4096 27.0045 -0.0637503
47.5335 27.6688 -0.0801278
43.0972 16.7807 0.205682
1.15298 22.2544 -0.311372
78.9818 -20.883 -0.250966
79.8183 -16.4599 -0.245815
92.057 -16.5227 -0.509135
104.656 -17.9806 -0.787452
96.9523 -13.0046 -0.61149
97.2614 -12.8801 -0.618392
96.8776 -12.4331 -0.609246
96.2827 -11.8607 -0.595176
95.1249 -11.1117 -0.569786
95.4014 -10.9801 -0.57566
98.0643 -7.81004 -0.636311
90.2482 -5.73724 -0.721645
90.3288 -5.58514 -0.724273
90.3088 -5.42455 -0.723768
90.3595 -5.26963 -0.725357
90.3744 -5.11134 -0.725901
90.4018 -5.03356 -0.7262
90.4426 -4.87771 -0.727776
90.4885 -4.72132 -0.729362
90.5603 -4.56639 -0.731986
90.5762 -4.40818 -0.73253
90.5852 -4.24932 -0.733066
90.8291 4.38677 -0.774796
67.3535 13.4208 -0.24599
50.0385 7.36049 0.265524
47.0421 24.5429 -0.141086
47.2456 25.99 -0.18416
47.4545 27.5361 -0.230567
47.9521 30.5384 -0.320214
43.1848 17.3497 0.0936748
43.1178 17.3098 0.0949126
38.4403 20.6177 0.0105183
74.5773 -19.4319 -0.351702
74.7171 -19.3657 -0.355142
74.8454 -19.2945 -0.357581
74.9728 -19.2211 -0.360025
75.1277 -19.2297 -0.364244
75.2351 -19.1454 -0.365692
77.8776 -18.1429 -0.424197
77.955 -18.0357 -0.425673
86.0559 -14.843 -0.620075
86.2414 -14.7399 -0.624709
86.2927 -14.6754 -0.626002
86.3403 -14.5323 -0.626548
86.5612 -14.4366 -0.632214
86.6903 -14.3142 -0.634822
86.8409 -14.1978 -0.638444
86.7941 -13.4782 -0.634731
86.6728 -13.1353 -0.630663
88.9162 -12.0732 -0.688728
89.0777 -11.9468 -0.6924
89.1782 -11.8076 -0.695017
89.2868 -11.6682 -0.697648
89.2544 -11.5004 -0.696147
89.2574 -11.34 -0.696678
89.4745 -11.2218 -0.702412
87.8972 -9.90295 -0.657224
87.6683 -9.78494 -0.650246
87.1714 -9.54725 -0.637233
87.059 -9.37594 -0.633616
89.5748 -9.47452 -0.702306
89.3471 -9.27929 -0.695584
89.3648 -9.12326 -0.696124
89.2761 -9.03053 -0.694287
90.0042 -6.42939 -0.713984
90.0927 -6.27904 -0.716619
82.9448 -5.48245 -0.775831
83.0052 -5.35255 -0.778354
83.0076 -5.28448 -0.778581
83.0423 -5.15114 -0.780074
83.072 -5.01734 -0.78056
83.1265 -4.88588 -0.783079
83.1144 -4.74814 -0.782511
83.1131 -4.61242 -0.781955
83.1319 -4.47758 -0.783427
83.1432 -4.41035 -0.783666
83.1719 -4.27645 -0.785151
83.1737 -4.14002 -0.784602
83.2014 -4.00603 -0.786085
83.2292 -3.87104 -0.787573
83.2549 -3.73587 -0.788057
83.3036 -3.60285 -0.790572
83.3474 -3.46837 -0.792083
83.3409 -3.39946 -0.792299
83.3556 -3.26424 -0.792766
83.6283 -2.38397 -0.80409
83.7907 -2.24962 -0.80979
83.9942 -2.11513 -0.816556
84.1406 -1.97828 -0.822238
84.231 -1.84016 -0.825836
84.3424 -1.70201 -0.829467
84.4886 -1.63243 -0.834929
84.6142 -1.49261 -0.839588
84.77 -1.35262 -0.845296
84.9451 -1.21044 -0.852042
85.0972 -1.06808 -0.857752
85.2714 -0.923811 -0.863503
85.4417 -0.779165 -0.870249
85.5782 -0.705655 -0.874708
85.7316 -0.559413 -0.880433
85.8438 -0.413304 -0.885092
86.0216 -0.264338 -0.891864
86.1793 -0.114488 -0.897608
86.2433 0.0321459 -0.900191
86.4838 0.186243 -0.90908
86.6601 0.266045 -0.915623
86.7668 0.417698 -0.919291
86.8775 0.569967 -0.923968
87.0024 0.722914 -0.928669
87.0871 0.875635 -0.932305
88.0386 1.6045 -0.968215
88.2015 1.76692 -0.974008
88.3363 1.92898 -0.979755
89.0963 2.9913 -1.01145
88.9864 3.13625 -1.00875
88.9454 3.28776 -1.00819
88.8841 3.43717 -1.00758
88.9138 3.51773 -1.00889
89.0229 3.68422 -1.01361
88.9352 3.8301 -1.01195
64.869 12.0193 -0.330427
54.4713 15.2814 -0.128544
48.7195 19.9372 -0.166648
45.1265 17.1392 -0.029733
46.9847 24.2133 -0.289914
47.2216 25.588 -0.339804
47.2849 26.1746 -0.35983
6.08719 17.8593 -0.600822
68.3976 -19.0629 -0.396055
68.4655 -18.982 -0.397429
68.5601 -18.9165 -0.398794
71.6015 -17.5188 -0.472234
71.8694 -17.4045 -0.479036
72.0707 -17.4425 -0.485233
80.0143 -13.6585 -0.702324
80.3959 -13.36 -0.712913
76.8695 -12.1978 -0.5931
80.1735 -12.1387 -0.699566
81.9944 -11.2216 -0.755481
82.3663 -10.888 -0.766169
82.6861 -10.4682 -0.775057
81.515 -9.07106 -0.732773
81.6115 -8.9536 -0.735312
82.5942 -8.37329 -0.766785
82.5486 -8.22837 -0.765187
82.4761 -8.08092 -0.762556
82.4967 -7.94726 -0.763027
82.5644 -7.88936 -0.765325
82.6277 -7.76174 -0.766845
82.6563 -7.62883 -0.767327
82.6857 -7.49702 -0.768806
82.6667 -7.35762 -0.767233
82.6507 -7.2185 -0.766665
82.6584 -7.08363 -0.767119
82.6578 -7.01527 -0.767343
82.6625 -6.88011 -0.766794
82.6553 -6.74283 -0.766233
82.678 -6.60937 -0.767707
82.7949 -6.48781 -0.771292
82.903 -6.36341 -0.774873
82.9653 -6.2347 -0.776395
83.0265 -6.17216 -0.778698
83.0153 -6.03451 -0.778132
83.0112 -5.89751 -0.778575
82.9731 -5.75732 -0.776974
82.94 -5.6186 -0.776376
79.4966 -0.105914 -0.931975
83.5466 3.20429 -1.1143
83.3568 3.32163 -1.10738
66.2337 9.85413 -0.5225
66.2015 9.93852 -0.522726
65.7562 9.8389 -0.504689
65.7343 9.92634 -0.504941
57.1591 17.471 -0.41702
54.5033 15.303 -0.275667
46.4597 20.5915 -0.312191
46.5386 21.1304 -0.335085
46.6386 21.6171 -0.355842
46.9558 23.9403 -0.452973
47.0486 24.6064 -0.481307
41.5606 12.8821 0.0499266
73.4293 -13.7424 -0.725544
76.5838 7.62775 -1.10671
76.5081 7.73031 -1.10492
76.4602 7.84029 -1.10421
76.4421 7.9575 -1.10457
76.0777 8.04511 -1.09027
75.9997 8.14487 -1.08847
65.9854 9.72631 -0.678686
66.4348 10.0194 -0.704365
54.5727 6.05623 -0.119432
54.5612 15.2589 -0.407616
54.4846 15.2772 -0.406554
46.5029 20.7215 -0.455688
46.5889 21.2828 -0.482667
46.6551 21.7838 -0.506417
46.8406 22.868 -0.559271
38.1679 16.9292 -0.223944
16.1468 20.3814 -0.817148
60.7563 -18.0131 -0.499311
60.8235 -17.9602 -0.500592
60.8889 -17.9061 -0.500874
60.9291 -17.8315 -0.501182
60.9448 -17.7918 -0.500338
63.391 -15.2813 -0.540479
69.7452 -13.2821 -0.772178
70.9531 -2.54557 -0.94234
70.9523 -2.44806 -0.941659
70.9498 -2.39961 -0.941814
70.981 -2.30312 -0.94418
70.9571 -2.20544 -0.942463
70.9813 -2.10829 -0.94382
71.0004 -2.01166 -0.945168
70.9996 -1.91415 -0.945486
71.0127 -1.81696 -0.946826
71.0234 -1.76774 -0.947005
71.0666 -0.744296 -0.953432
71.1735 -0.642899 -0.958936
71.2522 -0.542858 -0.96439
71.4913 -0.287188 -0.97761
71.5752 -0.184626 -0.982081
71.63 -0.0833234 -0.9855
71.6999 0.0195562 -0.98995
71.7558 0.122756 -0.993377
71.8229 0.226912 -0.997826
71.8952 0.280351 -1.00212
71.9916 0.386763 -1.00762
72.5109 0.931363 -1.03824
72.5927 0.988936 -1.04256
72.647 1.09631 -1.04599
72.7054 1.2043 -1.04944
72.7668 1.313 -1.0539
72.8436 1.42427 -1.05838
72.895 1.53292 -1.06182
72.9647 1.64386 -1.0663
73.0214 1.70179 -1.06958
73.1226 1.81678 -1.07612
73.2888 1.93871 -1.08578
73.4064 2.05717 -1.09336
73.4683 2.17086 -1.09683
73.4967 2.28067 -1.09924
73.2885 7.30016 -1.15238
73.2395 7.39819 -1.15162
73.213 7.4479 -1.15074
73.1557 7.54369 -1.14996
73.1026 7.64111 -1.1482
73.0392 7.73548 -1.14641
72.9923 7.83431 -1.14666
59.3105 10.7964 -0.562548
54.6205 15.2398 -0.536649
54.5236 15.2339 -0.532475
46.4716 20.4117 -0.572622
46.5257 20.8585 -0.596174
46.6109 21.4219 -0.626159
46.6647 21.8868 -0.651771
46.7594 22.5096 -0.684966
46.8414 23.1024 -0.717042
26.6036 16.8231 -0.52215
69.1398 -9.88671 -0.882356
59.3438 10.5436 -0.700773
61.1123 11.7366 -0.82851
59.4772 10.755 -0.71468
54.7002 15.2027 -0.679655
54.6213 15.2182 -0.67658
54.5448 15.2375 -0.674521
46.4929 20.6823 -0.733545
46.6133 21.2253 -0.767519
46.6781 21.7223 -0.797254
46.7696 22.3213 -0.832365
46.8334 22.8385 -0.864165
42.4487 13.1862 -0.23749
-7.36651 -7.9004 -1.94883
64.6574 -8.88171 -0.811503
59.2181 10.6937 -0.821066
46.4014 20.2989 -0.831141
46.4966 20.7559 -0.861793
46.582 21.3212 -0.898785
46.6476 21.8272 -0.93155
46.7438 22.4538 -0.97276
46.8014 22.9595 -1.00551
45.1294 17.1249 -0.608695
46.9551 24.1441 -1.08264
53.0321 -17.4697 -0.583773
56.7241 -15.4875 -0.670168
56.8176 -15.4762 -0.674354
56.886 -15.4435 -0.676571
66.5797 5.03882 -1.28926
46.3984 20.1098 -0.976517
46.4598 20.57 -1.01013
46.5456 21.1293 -1.0501
46.5966 21.5754 -1.08264
46.7047 22.0944 -1.12052
46.7831 22.6604 -1.1615
45.1605 17.1055 -0.742681
46.9601 23.901 -1.25186
47.0261 24.4641 -1.29181
60.2773 -9.75297 -0.852656
59.3641 10.4028 -1.08935
59.3448 10.4749 -1.09055
59.3415 10.5566 -1.09381
59.1696 10.5336 -1.08146
46.4604 20.3647 -1.10745
46.507 20.7851 -1.13991
46.5919 21.3454 -1.18288
46.6624 21.871 -1.22372
46.7557 22.4888 -1.2719
46.8663 23.0337 -1.31486
45.1773 17.1779 -0.842946
59.4465 10.6395 -1.25426
46.4031 20.0985 -1.23449
46.4985 20.5474 -1.27311
46.5728 21.0595 -1.31591
46.6356 21.5456 -1.35661
45.2938 17.1052 -0.967894
46.7807 22.6174 -1.44636
45.179 17.1441 -0.967839
8.0012 8.9275 -2.02957
46.4237 20.2025 -1.37386
46.4804 20.6551 -1.41344
46.559 21.1919 -1.46233
46.6591 21.6795 -1.50609
46.7617 22.3215 -1.56436
46.8121 22.7927 -1.60599
45.1705 17.1194 -1.07675
49.7805 -14.9964 -0.745703
49.8116 -14.9963 -0.747753
49.8255 -14.8379 -0.737295
46.5075 20.5396 -1.5411
46.5728 21.0204 -1.58679
46.586 21.3314 -1.61583
46.5316 21.4149 -1.62202
46.5039 21.4516 -1.62509
45.2016 17.078 -1.18866
14.6881 11.7893 -1.97763
45.8732 19.5968 -1.577
45.8353 19.5883 -1.57491
45.7856 19.6683 -1.58209
45.057 -12.0535 -0.464823
45.0922 -12.0418 -0.464918
45.6957 -14.3215 -0.773402
46.337 -13.4647 -0.725236
46.3561 -13.4112 -0.722442
46.2925 -13.2013 -0.70003
36.2777 17.0446 -1.50232
48.9196 6.21282 -0.765932
49.7404 12.2695 -1.38212
49.7075 12.3147 -1.38422
49.6595 12.3384 -1.38322
49.6361 12.3988 -1.38838
49.6102 12.4545 -1.39152
49.5878 12.5158 -1.39669
49.5562 12.564 -1.39879
49.5487 12.6018 -1.40291
49.5018 12.6263 -1.40191
49.4692 12.6746 -1.40402
49.419 12.6964 -1.40301
49.5258 12.9564 -1.43703
54.3432 7.10383 -1.45051
48.9314 12.0523 -1.39912
50.3778 9.96153 -1.37856
50.3692 9.98744 -1.38064
50.3331 10.02 -1.38068
50.2948 10.0507 -1.38072
50.2643 10.0897 -1.3818
50.2327 10.1278 -1.38288
50.1967 10.1614 -1.38293
50.1538 10.1855 -1.38194
50.1498 10.218 -1.38504
50.1149 10.2524 -1.3851
50.081 10.2868 -1.38616
49.4646 10.845 -1.39301
53.3738 -2.32792 -1.16901
35.9574 8.93291 -0.887181
48.5014 9.182 -1.39201
48.4631 9.20168 -1.39102
48.4318 9.23175 -1.39107
48.3969 9.25613 -1.39109
48.3644 9.2843 -1.39113
47.6968 9.90659 -1.40911
47.6551 9.92257 -1.40809
47.6319 9.96392 -1.41119
47.5926 9.98469 -1.4102
47.5521 10.0026 -1.40919
43.3429 16.338 -2.06627
43.2804 16.3148 -2.0611
43.2239 16.3231 -2.06103
48.0487 -10.1527 -1.05284
46.8058 8.58334 -1.39834
46.7909 8.59579 -1.39836
46.7576 8.616 -1.39837
46.7265 8.63801 -1.3984
46.7014 8.6695 -1.40046
46.6669 8.68681 -1.40046
46.6311 8.70124 -1.39845
46.6 8.72325 -1.39947
50.2727 -1.27648 -1.16752
50.2844 -1.25951 -1.16959
50.2743 -1.22742 -1.16768
50.2842 -0.855727 -1.17391
50.2626 -0.808478 -1.17104
50.2767 -0.775666 -1.17317
50.2606 -0.74401 -1.17124
50.2546 -0.680163 -1.17144
50.2404 -0.648694 -1.16952
50.2268 -0.601203 -1.16766
46.7578 -2.4532 -1.20305
42.5532 -1.29124 -0.457148
42.492 -2.24977 -0.466905
42.4958 -2.24209 -0.467936
39.0367 -0.0158968 -0.174721
38.9835 -0.004915 -0.191673
38.9866 -0.0142373 -0.187647
38.868 -2.91585 -0.166936
65.2107 3.28883 -10.5514
65.2676 3.38179 -10.5838
39.1891 -0.276006 -0.0781102
39.2546 -0.263124 -0.0882571
39.2945 -0.341077 -0.0490647
39.2799 -0.324672 -0.0580954
39.0631 -0.0326774 -0.240709
39.2226 -0.282269 -0.105143
39.229 -0.299918 -0.0970956
39.2213 -0.296191 -0.100096
39.18 -0.244188 -0.1302
39.1457 -0.201878 -0.155285
39.0937 -0.135833 -0.193419
39.1075 -0.160193 -0.181361
39.112 -0.175663 -0.173317
39.1291 -0.208346 -0.156237
39.1247 -0.211953 -0.156218
38.9704 -0.00396827 -0.274655
39.169 -0.382601 -0.0807284
39.1162 -0.377687 -0.0976605
38.8379 -2.93543 -0.260824
41.4446 -2.77232 -0.310518
41.3926 -2.71708 -0.275616
41.3904 -2.70882 -0.271639
-1.75801 1.15033e-41 0
