ply
format ascii 1.0
element vertex 410
property float x
property float y
property float z
end_header
185.989 -7.98875 3.94618
116.69 10.7063 2.32693
116.615 10.7192 2.32623
40.7179 15.4451 4.21558
54.0602 -22.3518 3.53932
70.938 -20.755 2.9139
74.4505 -20.7944 2.78771
60.707 -31.0146 3.38219
60.5693 -36.3697 3.46186
57.1773 -38.5297 3.60597
58.4812 -37.8737 3.55318
58.6354 -39.0017 3.56574
58.496 -39.1885 3.57295
43.8543 -48.6586 4.20202
44.261 -50.7389 4.22306
81.4553 -31.2415 2.7113
71.5624 -41.6221 3.21412
71.8018 -41.6023 3.20725
71.775 -41.8278 3.21298
77.1401 -37.0587 2.95781
78.9783 -37.6891 2.9199
64.8422 -53.192 3.65612
65.1018 -53.1924 3.64915
175.1 -23.6692 3.63797
175.104 -23.4454 3.63632
175.132 -23.2272 3.63658
175.179 -23.0117 3.63676
175.202 -22.9048 3.63685
175.23 -22.6855 3.63711
175.271 -22.4703 3.63731
175.302 -22.2514 3.63656
175.332 -22.0334 3.6368
184.374 -8.99385 3.40055
186.009 -8.22246 3.44172
186.24 -8.09142 3.44707
185.003 -6.63693 3.4211
141.784 24.4659 2.8299
122.125 19.4857 2.45612
98.2697 31.8087 2.81759
97.1626 35.9938 2.94664
98.324 29.5181 2.7516
39.817 12.9271 3.76779
68.1289 -19.3818 2.75566
73.725 -24.6903 2.62799
45.6637 -52.0572 3.73264
45.8754 -52.1931 3.72963
45.7754 -52.5464 3.73642
100.701 -23.6583 1.95091
174.612 -23.4399 3.18117
174.65 -23.2252 3.18138
174.687 -23.0093 3.1806
174.72 -22.7937 3.18083
174.724 -22.6832 3.181
174.757 -22.4667 3.18123
174.776 -22.2481 3.18052
174.82 -22.0343 3.18071
174.848 -21.818 3.18096
153.625 24.187 2.75521
160.752 32.0168 2.97851
141.685 24.7291 2.60071
149.167 47.1627 3.1078
122.534 21.5584 2.34701
115.566 8.7177 2.01884
95.2506 37.6083 2.78044
95.1493 37.7038 2.78398
76.2994 46.7566 3.21635
132.319 -25.1797 2.10928
132.229 -25.0191 2.10588
186.092 -8.32233 2.46424
186.124 -8.07139 2.46453
137.754 7.99965 2.00876
162.316 22.3159 2.37365
120.868 18.8839 2.03182
132.223 -25.2706 1.88049
164.755 -32.8642 2.24442
180.454 -34.7952 2.41659
182.15 -35.0978 2.43575
174.48 -21.8453 2.32329
186.124 -8.4165 2.05596
163.503 14.7847 2.00277
171.127 22.4391 2.08893
158.709 28.9955 2.07415
142.287 24.8676 1.97468
140.325 23.1674 1.9532
115.584 8.67 1.75269
98.4293 15.827 1.8916
186.029 -8.36881 1.50138
186.11 -8.11574 1.5015
163.832 20.669 1.58626
173.554 27.917 1.59991
164.419 25.9648 1.60281
161.59 32.5754 1.62929
140.872 22.3193 1.61876
148.655 43.1582 1.68909
51.8597 -11.5179 1.91842
86.1069 -21.2796 1.67536
147.098 -30.431 1.5024
180.388 -35.209 1.47314
181.888 -35.4557 1.47213
173.987 -23.6685 1.48711
173.852 -23.4214 1.48802
173.873 -23.2052 1.4883
173.9 -22.9899 1.48855
173.908 -22.7717 1.48789
173.965 -22.5627 1.48902
174.009 -22.461 1.48902
174.07 -22.2527 1.48914
174.13 -22.0431 1.48926
174.386 -21.8691 1.48859
174.999 -21.7532 1.48849
186.223 -8.31879 1.12574
186.197 -8.0684 1.12625
168.359 25.2844 1.26096
160.618 31.5955 1.3053
149.279 47.0614 1.3682
99.2978 47.6503 1.57589
96.8316 35.805 1.58355
96.251 34.7051 1.5849
52.311 13.6054 1.69421
133.199 -25.1554 1.37203
174.267 -23.6926 1.16102
173.971 -23.4121 1.16359
173.936 -23.1847 1.1641
173.936 -22.9644 1.16446
173.946 -22.7465 1.16478
173.971 -22.5319 1.16504
174.024 -22.3213 1.16519
174.065 -22.2192 1.16521
174.13 -22.0115 1.16531
174.307 -21.823 1.16496
174.884 -21.7008 1.16201
172.349 -7.11601 0.781554
166.169 -5.50079 0.85531
165.143 -4.83409 0.868243
150.597 4.74439 1.0354
174.284 13.4731 0.762324
120.66 18.4078 1.2868
115.432 8.46412 1.37892
97.3641 33.3348 1.30048
163.603 -31.3427 0.813226
176.351 -23.7157 0.698193
174.409 -22.6709 0.723176
176.514 -22.4934 0.699603
158.89 -15.6133 0.597803
159.345 -15.4936 0.590301
159.403 -15.3313 0.589352
160.675 -14.7687 0.568528
160.337 -14.6548 0.574979
160.521 -14.4987 0.572548
160.892 -14.3566 0.566399
160.638 -14.165 0.570665
162.11 -14.1005 0.54527
162.642 -13.9616 0.536514
181.325 -10.421 0.212562
179.71 -10.298 0.240799
176.439 -8.19491 0.302491
151.716 -2.95276 0.742511
156.892 33.6345 0.490584
148.598 43.4932 0.518845
146.161 42.9233 0.55401
146.07 43.1489 0.552724
145.765 43.0872 0.556761
145.836 43.3597 0.553942
76.9474 45.3855 0.865645
133.604 -25.4372 0.978047
151.536 -29.7868 0.650872
151.648 -29.6656 0.650655
151.856 -29.5869 0.647006
152.102 -29.3527 0.644476
156.033 -28.5709 0.584079
156.242 -28.47 0.581466
156.273 -26.0249 0.596389
156.279 -25.8541 0.596646
168.071 -22.242 0.411558
157.206 -17.4162 0.264113
158.127 -17.3846 0.241724
157.702 -17.16 0.252683
167.355 -8.48494 0.0389447
166.449 -8.31864 0.0616057
156.571 2.54152 0.29144
142.496 20.0781 0.471978
148.939 26.4718 0.268466
149.042 29.9452 0.223815
146.058 35.8852 0.197772
145.861 35.9492 0.200613
146.391 42.7903 0.0909253
146.113 42.7651 0.0959242
145.913 42.8447 0.0978014
145.798 43.0383 0.0975519
145.704 43.2612 0.0952705
145.565 43.4239 0.0950586
133.579 -25.4232 0.760163
133.784 -25.4258 0.756393
139.106 -24.2441 0.64846
144.055 -24.8705 0.528937
144.351 -24.849 0.521866
144.56 -24.7924 0.517181
144.558 -24.5163 0.519642
145.58 -24.274 0.498225
153.043 -22.4722 0.33532
157.531 -18.0395 0.252871
157.231 -17.8281 0.26134
157.143 -17.6515 0.263962
156.864 -17.4473 0.27234
151.095 -16.29 0.187801
151.19 -16.1593 0.185662
151.232 -16.0208 0.184737
151.223 -15.9488 0.185888
151.301 -15.8146 0.183818
151.36 -15.6787 0.182821
151.81 -15.0833 0.172125
151.883 -14.9474 0.171075
151.936 -14.8075 0.170109
152.189 -13.745 0.166916
152.2 -13.6011 0.167113
152.295 -13.4633 0.163986
152.328 -13.3205 0.164099
152.344 -13.2492 0.163155
152.37 -13.1054 0.163296
152.426 -12.964 0.16232
152.403 -12.8171 0.163649
157.698 -6.35027 0.0145471
157.52 -5.95863 0.0198566
143.84 5.59755 0.370049
154.141 30.8627 -0.207722
147.708 33.6757 -0.108046
148.82 35.1348 -0.15779
143.837 32.97 -0.0137462
143.697 33.0822 -0.0130406
143.568 33.2072 -0.0123511
149.235 46.8292 -0.380033
146.221 43.0014 -0.248091
146.123 43.2178 -0.250368
151.216 50.4407 -0.48847
151.081 50.6563 -0.489612
150.919 50.8355 -0.490711
150.543 50.7215 -0.480494
121.208 19.5029 0.674559
117.932 13.3393 0.85862
100.795 35.4282 0.44411
99.995 34.9293 0.457276
81.3708 33.2178 0.405025
89.1605 14.6614 0.863288
124.27 -27.1077 0.802157
148.01 -21.0401 0.245484
145.554 -14.2745 0.126831
147.278 -10.7167 0.0782633
147.44 -10.5907 0.0728668
147.661 -10.3339 0.065464
147.807 -10.2702 0.0610249
148.686 -9.4776 0.0300487
148.851 -9.34198 0.0246553
149.086 -9.27104 0.0158958
151.307 -7.11141 -0.0618361
151.461 -6.95908 -0.068162
151.557 -6.80928 -0.0712717
142.776 19.6468 -0.0477832
144.42 28.3025 -0.265636
140.626 35.0536 -0.323314
140.62 35.3415 -0.329818
152.155 50.9977 -0.970062
144.156 40.6779 -0.539218
144.152 40.8392 -0.542937
151.11 50.592 -0.935827
117.953 13.2254 0.706355
100.091 34.3639 0.203983
99.9067 34.6494 0.196141
74.9045 46.7261 -0.322519
81.0896 31.1681 0.158689
133.348 -25.3447 0.423154
142.966 -18.6161 0.188328
143.623 -18.5238 0.166026
143.773 -18.4343 0.161615
143.873 -18.0245 0.161918
143.929 -17.9133 0.160894
143.997 -17.8041 0.158818
144.037 -17.6896 0.158858
144.039 -17.5666 0.159055
144.113 -17.4582 0.157956
144.166 -17.4072 0.155843
144.246 -17.2987 0.153721
144.616 -16.9968 0.14384
144.726 -16.5823 0.142114
121.21 7.77728 0.622188
123.127 11.3485 0.467922
122.882 11.4489 0.471003
100.038 40.113 -0.299333
99.8265 39.2959 -0.269891
100.323 34.485 -0.0936888
100.281 34.2769 -0.085874
76.5773 44.7802 -0.659985
75.9211 45.3618 -0.688573
75.625 45.4868 -0.697261
139.419 -16.8969 0.105419
139.648 -16.2927 0.10156
139.712 -16.2504 0.0993918
139.685 -16.0282 0.101861
139.733 -15.9292 0.100842
139.742 -15.8223 0.101987
139.758 -15.7175 0.102099
139.809 -15.6178 0.100073
139.38 -9.24831 -0.0498065
139.425 -9.19526 -0.0518874
140.082 -8.38351 -0.0830042
140.182 -8.27275 -0.0881949
140.272 -8.16056 -0.0923463
140.341 -8.05028 -0.0964204
140.396 -7.93997 -0.0984417
140.471 -7.82774 -0.10254
140.546 -7.76882 -0.10572
140.672 -7.65276 -0.111999
140.713 -7.54057 -0.11497
140.815 -7.42501 -0.120159
140.942 -7.30613 -0.126439
141.029 -7.18939 -0.13057
141.114 -7.07238 -0.134693
141.192 -6.95534 -0.13879
141.253 -6.89554 -0.14192
141.318 -6.77875 -0.144972
141.391 -6.66099 -0.149049
141.476 -6.541 -0.153169
141.556 -6.42129 -0.157271
141.63 -6.30268 -0.161351
141.726 -6.23576 -0.166597
141.839 -6.11075 -0.171814
141.916 -5.98961 -0.175902
142.027 -5.86333 -0.18211
142.136 -5.73661 -0.187306
142.217 -5.61308 -0.192407
142.328 -5.48467 -0.197608
142.401 -5.41754 -0.201771
135.858 -2.00352 0.0853127
142.511 18.0095 -0.581502
142.529 18.205 -0.587244
122.699 11.5373 0.312831
99.7778 39.0042 -0.553193
124.979 -25.2782 0.376528
136.443 -15.3742 0.0610506
145.615 13.6127 -0.86736
144.323 17.4721 -0.908162
143.998 18.2411 -0.915676
143.917 18.3651 -0.916169
143.901 18.5382 -0.919822
142.429 17.8681 -0.83643
143.647 18.9985 -0.922116
143.727 19.2506 -0.932999
100.217 38.512 -0.81165
137.806 6.74989 -0.564516
140.758 15.4589 -0.966167
121.93 6.88379 0.211022
100.604 36.151 -0.991993
133.397 3.10694 -0.398058
135.144 8.74939 -0.66227
135.164 8.82727 -0.665218
134.987 8.9693 -0.660321
134.776 9.08695 -0.652337
134.622 9.4388 -0.655181
136.556 12.5721 -0.868234
136.514 12.6155 -0.867008
136.469 12.7302 -0.868651
100.559 35.2432 -1.18533
100.428 35.1318 -1.17902
100.365 35.0652 -1.1759
100.209 35.1485 -1.18118
79.0949 13.1129 -0.530677
53.1965 5.05027 -1.65325
118.708 -24.153 0.310811
125.94 -14.4203 0.218862
130.972 -5.68465 -0.264516
133.635 9.9919 -0.856585
133.355 9.91654 -0.83766
133.289 9.99888 -0.836279
133.275 10.1201 -0.841027
133.232 10.2204 -0.841701
100.725 35.1536 -1.4961
100.617 34.8662 -1.47817
100.47 34.8977 -1.48057
100.333 34.851 -1.47813
58.7413 6.71081 -1.72622
131.146 8.21287 -0.791223
131.134 8.32478 -0.794994
131.152 8.45867 -0.801838
131.109 8.54774 -0.803531
100.408 34.7695 -1.69455
100.243 34.927 -1.70667
68.3234 8.61078 -1.40788
124.556 7.94433 -0.551044
117.972 2.26703 0.0621844
112.94 -23.4233 0.209561
112.981 -23.401 0.209446
113.03 -23.3929 0.208278
98.5579 10.5338 -0.418645
116.08 6.04232 -0.316519
113.881 -21.6381 0.131994
98.9066 8.33177 -0.600585
109.518 -21.6182 0.0313256
109.555 -21.6104 0.0312021
110.191 -21.0866 0.0676904
108.274 3.75198 -0.226139
108.857 6.46479 -0.693841
108.806 6.47426 -0.694635
108.785 6.51166 -0.698495
108.744 5.57072 -0.680896
108.694 5.57495 -0.679702
95.061 2.83884 -0.90029
99.3964 2.98652 -0.677241
99.3366 2.95076 -0.676077
107.847 -17.1384 -0.239037
107.848 -17.0345 -0.215869
2.26383e-39 0 2.35972e-40
