ply
format ascii 1.0
element vertex 614
property float x
property float y
property float z
end_header
136.419 -3.12257 3.56814
136.52 -2.87259 3.57255
123.952 9.47542 3.19903
123.272 9.56028 3.17678
104.193 12.9763 2.57615
108.009 27.7699 2.93203
108.263 28.5909 2.95532
108.582 30.7316 3.00651
108.542 30.8215 3.00661
108.196 30.8233 2.99742
95.236 22.3124 2.45338
95.1514 22.4293 2.45349
64.8187 13.9271 1.51196
64.7573 13.9361 1.51094
64.7165 13.9173 1.50989
36.2749 17.3154 1.85712
35.7674 16.4651 1.84765
35.8096 16.3022 1.84244
27.7741 18.4496 2.09807
28.3102 15.5609 2.0233
11.5414 21.0754 2.60489
2.55308 14.6622 2.78596
-2.63703 16.0565 2.96708
15.363 -9.23834 2.24337
23.6302 -8.98147 1.97025
24.4024 -9.75508 1.94858
6.81075 -17.747 2.56973
6.70478 -17.8632 2.57451
7.03678 -17.9389 2.56459
21.1158 -17.9615 2.12225
21.4619 -17.9523 2.11145
18.8815 -19.9316 2.21326
18.8959 -20.0687 2.21408
19.0729 -20.1342 2.21008
18.8323 -20.3851 2.2206
18.8862 -20.5051 2.22046
-9.86232 -34.8267 3.26961
27.2482 -19.1372 1.95195
43.8231 -11.1929 1.35218
43.8115 -11.2277 1.35312
35.1429 -17.6174 1.7024
30.4189 -21.4748 1.8994
41.399 -17.2914 1.53028
45.3862 -17.5886 1.44504
122.502 -41.726 3.38927
121.838 -40.791 3.35522
119.423 -19.8688 3.03431
119.449 -19.6666 3.03361
119.465 -19.4619 3.03191
119.496 -19.2612 3.0322
119.446 -19.1437 3.02934
119.489 -18.9466 3.02964
119.518 -18.7457 3.02894
119.545 -18.5456 3.02924
119.566 -18.3425 3.02853
120.33 -18.1076 3.05228
136.416 -0.117062 3.07136
136.511 0.136668 3.07477
135.955 6.34412 3.08219
135.616 6.55294 3.0743
123.173 6.15109 2.72593
111.306 8.04781 2.41011
102.951 12.6572 2.22402
89.1582 8.64487 1.81784
108.365 30.0415 2.59842
108.15 30.36 2.59875
108.575 30.8732 2.6177
108.49 30.9327 2.61674
95.396 22.3706 2.16754
95.3879 22.54 2.16978
64.7822 13.8796 1.38987
64.7206 13.8867 1.38985
-4.29163 -17.3513 2.52422
-7.40097 -33.5664 2.72673
-7.23559 -33.7362 2.72458
-6.92818 -33.8379 2.71861
9.67677 -29.0424 2.26742
123.117 -27.4352 2.77669
130.628 -30.0553 2.99512
128.086 -28.3745 2.91509
132.4 -28.1853 3.02771
119.008 -19.6305 2.61242
119.021 -19.4254 2.61171
119.045 -19.2248 2.61201
119.055 -19.0204 2.6103
119.06 -18.9182 2.61045
119.108 -18.5171 2.60904
119.133 -18.3175 2.60933
120.272 -17.9653 2.63845
131.475 -18.9796 2.95015
120.297 6.08996 2.34527
108.176 30.3116 2.31069
108.292 30.6192 2.31719
95.465 22.5273 1.9538
64.7879 13.9072 1.30192
-2.57504 -19.3956 2.19929
114.636 -25.7286 2.24946
123.715 -20.7064 2.42248
136.801 -1.33083 2.10186
136.822 -1.0794 2.10323
91.7087 9.60792 1.44159
108.176 30.513 1.85098
108.223 30.7752 1.85337
108.295 31.0552 1.8578
64.8376 13.8707 1.15889
64.7968 13.8518 1.15784
48.3105 16.4731 1.19752
-0.0743292 15.7837 1.7581
62.0064 -19.0863 1.07502
85.1369 -18.2733 1.32081
115.669 -25.9478 1.79871
105.627 -21.1008 1.63104
105.674 -20.9455 1.63028
130.804 -27.8905 2.03026
134.066 -21.5327 2.06298
120.124 -18.0164 1.8413
109.928 31.8092 1.56175
109.988 32.0898 1.56518
110.09 32.3992 1.56767
110.132 32.6701 1.57008
64.7888 13.8984 1.0619
64.7483 13.8815 1.06186
85.1823 -18.1499 1.15801
101.33 -23.92 1.33072
105.616 -20.8378 1.3664
136.788 -1.37616 1.14079
136.8 -1.25058 1.14098
99.4282 11.0449 1.02683
110.665 32.482 1.1261
110.182 32.4009 1.12372
64.7319 13.8254 0.93077
118.348 -26.4744 1.05044
132.16 -28.5212 1.09811
118.462 -20.0196 1.05357
118.535 -19.8325 1.05387
118.57 -19.6354 1.05417
118.582 -19.4323 1.05446
118.607 -19.2328 1.05476
118.623 -19.0312 1.05505
118.651 -18.8332 1.05534
118.656 -18.732 1.05549
118.607 -18.5148 1.05477
118.653 -18.321 1.05506
136.897 -1.07819 0.766271
98.679 11.0837 0.817473
98.8734 11.2973 0.81788
110.171 32.6671 0.823092
64.8046 13.9178 0.84194
64.7514 13.943 0.841946
39.2247 14.3415 0.818552
80.8511 -20.8789 0.785803
95.6344 -23.0809 0.768789
115.466 -25.8803 0.746695
132.788 -28.4212 0.725593
118.397 -19.7697 0.754886
118.423 -19.5704 0.755181
118.328 -19.3401 0.756452
118.329 -19.1356 0.756741
118.364 -18.9394 0.757035
118.366 -18.7349 0.757324
118.461 -18.5547 0.757629
118.549 -18.4745 0.75779
118.524 -18.2635 0.758073
118.747 -18.1132 0.757406
134.891 -19.0418 0.740926
136.888 -1.15197 0.260162
133.192 4.26482 0.292755
118.357 4.83463 0.400447
91.2805 8.74538 0.593142
110.699 32.5977 0.414282
110.191 32.4997 0.417867
68.133 17.0208 0.69512
68.0699 17.0552 0.695134
64.7602 13.8714 0.72285
33.3517 17.8558 0.608281
85.5207 -18.0007 0.585401
106.813 -21.0594 0.428741
122.656 -26.617 0.29759
121.615 -24.3246 0.314243
125.954 -24.789 0.281962
127.344 -25.1028 0.271281
128.798 -25.308 0.259787
120.977 -22.2475 0.325814
122.844 -22.2424 0.312841
118.74 -20.0156 0.349728
118.889 -19.8485 0.349044
119.098 -19.8002 0.348226
117.98 -19.298 0.357321
118.083 -19.121 0.357626
117.902 -18.8704 0.359879
118.098 -18.7165 0.359203
119.047 -18.7497 0.351675
119.38 -18.6259 0.350031
118.571 -18.1198 0.3573
120.348 -17.9214 0.34555
136.105 -2.33366 -0.219928
114.589 1.91297 0.0732796
108.124 30.353 0.0617195
107.89 30.428 0.0636968
107.767 30.5752 0.0638365
107.778 30.8138 0.0621779
68.0943 16.9948 0.553063
68.0221 17.0133 0.554049
64.7737 13.8506 0.606828
64.7485 13.866 0.606836
33.3768 17.9002 0.411357
104.775 -23.925 0.112599
104.996 -23.8419 0.109836
105.177 -23.7415 0.109076
105.619 -23.6601 0.103432
106.227 -23.554 0.0969138
106.299 -23.4031 0.0971654
106.769 -23.4142 0.091407
107.064 -23.3508 0.0876571
107.436 -23.3167 0.0839082
108.032 -22.3609 0.0825774
106.198 -20.2838 0.118495
107.463 -20.1929 0.102314
107.756 -19.9378 0.0998327
109.895 -20.182 0.0716584
110.674 -20.2466 0.0609936
111.241 -20.2389 0.0543141
112.107 -19.8489 0.0453356
112.91 -19.8994 0.0347036
113.029 -19.7436 0.0339879
121.033 -17.7048 -0.0607714
122.717 -16.4697 -0.0771147
122.749 -16.262 -0.0768057
123.808 -14.5236 -0.0837833
116.709 -7.30909 -0.382524
111.132 1.30234 -0.257468
96.3734 8.36481 0.0223907
96.7289 8.5382 0.0148287
109.782 31.2685 -0.401088
109.724 31.4677 -0.40184
108.7 30.9067 -0.379188
108.542 31.0352 -0.377094
109.551 31.9482 -0.404259
68.1252 16.9295 0.393988
68.0369 16.9178 0.394923
64.8419 13.9095 0.474948
64.7834 13.9242 0.474937
85.9242 -18.3251 0.156165
96.0722 -20.6912 -0.0546136
94.2922 -17.9061 0.00532821
94.2104 -17.606 0.00970536
109.811 -18.1232 -0.296494
110.181 -18.0476 -0.303186
110.21 -17.9666 -0.303056
110.309 -17.8142 -0.303787
108.891 -16.7312 -0.269041
110.319 -16.8353 -0.297406
110.256 -15.9344 -0.291175
110.869 -15.9026 -0.302795
113.732 -15.0848 -0.35508
112.531 -14.11 -0.325366
111.61 -13.576 -0.30412
111.61 -13.4873 -0.303995
111.72 -13.3313 -0.304715
110.874 -13.0008 -0.286713
108.047 -7.9011 -0.469091
108.005 -7.73627 -0.466882
108.085 -7.58229 -0.468622
108.084 -7.42079 -0.468396
108.085 -7.26054 -0.46717
108.124 -7.10224 -0.467926
108.21 -6.94718 -0.469661
108.204 -6.38352 -0.467872
108.278 -6.22691 -0.469611
108.004 -6.05184 -0.461515
117.539 -1.24706 -0.69755
114.457 -0.363126 -0.618992
115.105 0.127029 -0.634949
110.267 1.26256 -0.512997
109.769 31.0831 -0.720356
109.731 31.2938 -0.722081
109.639 31.4702 -0.722883
108.594 31.0107 -0.6941
108.436 31.1374 -0.693009
109.518 32.1053 -0.728056
68.0861 16.9004 0.276925
68.03 16.9491 0.275963
64.9035 13.9944 0.375101
64.8421 14.0034 0.37608
54.8977 19.6382 0.270564
88.2507 -21.7754 -0.109413
89.1841 -21.3236 -0.124268
89.4235 -21.259 -0.128046
89.5657 -21.205 -0.130892
89.6695 -21.1288 -0.131729
85.5524 -18.3004 -0.00100366
85.698 -18.3205 -0.00395218
85.9394 -18.3329 -0.00983762
103.258 -14.3962 -0.384838
103.991 -14.4163 -0.403466
105.218 -14.0704 -0.431309
105.402 -13.9532 -0.435044
105.427 -13.8789 -0.434925
105.647 -13.7674 -0.439649
105.806 -13.6421 -0.442385
104.917 -12.9853 -0.415948
105.712 -12.9874 -0.435516
104.631 -12.0766 -0.402827
99.9749 -8.8919 -0.524896
100.091 -8.83847 -0.527758
100.214 -8.71736 -0.53052
100.31 -8.59175 -0.533291
100.355 -8.45954 -0.534081
100.983 -4.79605 -0.539588
101.182 -4.66469 -0.545295
101.36 -4.5316 -0.551011
101.589 -4.39818 -0.557698
101.774 -4.33261 -0.563504
101.892 -4.19472 -0.567246
102.048 -4.0568 -0.571967
102.222 -3.91811 -0.576677
102.391 -3.7789 -0.581389
102.565 -3.63822 -0.587096
102.755 -3.49664 -0.592793
102.952 -3.42555 -0.598586
103.187 -3.28187 -0.606255
103.363 -3.13637 -0.610955
103.524 -2.99004 -0.616661
104.125 -2.54415 -0.634706
104.215 -2.46924 -0.637551
104.456 -2.31616 -0.645204
104.675 -2.16222 -0.651868
104.821 -2.00886 -0.656573
105.034 -1.85314 -0.663237
105.165 -1.69784 -0.666948
105.425 -1.53718 -0.67458
105.578 -1.4563 -0.679382
105.796 -1.29515 -0.687037
105.971 -1.13451 -0.691715
106.116 -0.973954 -0.69641
106.34 -0.808499 -0.704056
106.466 -0.646469 -0.707759
106.618 -0.48285 -0.712446
106.838 -0.391548 -0.719197
106.444 0.51811 -0.708134
106.552 0.603834 -0.710954
106.49 0.755264 -0.709776
93.4274 4.22022 -0.313045
63.7889 14.3087 0.266933
46.8608 -18.1225 0.237096
58.8943 -19.1493 0.310231
84.9183 -19.7955 -0.199452
99.9226 -10.187 -0.530745
99.9124 -10.0486 -0.529556
99.9153 -9.91077 -0.528361
99.9318 -9.77678 -0.528164
99.9357 -9.70871 -0.528066
99.9297 -9.56976 -0.526874
99.9452 -9.43564 -0.526677
99.9648 -9.30104 -0.526477
100.001 -9.16865 -0.527271
99.995 -9.03168 -0.526082
94.6776 -7.04551 -0.596197
94.7269 -6.93092 -0.598009
94.7621 -6.81552 -0.598827
94.8185 -6.70085 -0.599635
94.8527 -6.58532 -0.600454
94.5417 8.55381 -0.633346
94.3003 8.60552 -0.625405
92.9117 8.34425 -0.572531
71.7516 16.1787 -0.0620859
71.6581 16.1808 -0.060134
63.792 14.1854 0.147762
63.8228 14.4365 0.138131
62.6549 11.7289 0.247688
54.8933 19.5959 -0.0164983
54.8211 19.5912 -0.0165443
74.0878 -17.9059 -0.0307161
80.3799 -19.4109 -0.257392
80.651 -19.3273 -0.264127
83.1089 -18.5473 -0.325687
93.9456 -9.79786 -0.587466
93.9323 -9.67611 -0.585302
93.9465 -9.55996 -0.585131
94.2248 -8.95089 -0.591122
94.2573 -8.71714 -0.590776
94.2445 -8.53796 -0.588531
94.2746 -8.4229 -0.589353
94.5228 7.66811 -0.854601
93.8738 8.29652 -0.835073
94.1184 8.50156 -0.847651
46.6311 18.4576 -0.211615
-15.9902 14.6184 -2.52624
-8.87288 -5.39671 -2.13849
90.2483 -8.37952 -0.636493
90.2579 -8.27489 -0.635341
90.2743 -8.06524 -0.635037
90.2762 -8.01203 -0.634961
90.2888 -7.90779 -0.634808
90.3212 -7.80614 -0.634647
90.7246 6.94947 -0.887688
90.6771 7.04946 -0.886573
90.6256 7.14898 -0.885461
87.5192 11.6062 -0.819894
87.5531 11.742 -0.823685
87.397 11.7825 -0.817713
2.33593 -6.01928 -1.95123
3.98487 -7.61562 -1.87558
62.4037 -19.4754 -0.0323092
62.4667 -19.4948 -0.0343019
65.6187 -19.7464 -0.105933
69.4103 -20.0352 -0.216266
87.475 0.568844 -0.864432
87.4981 0.668689 -0.866279
88.3748 5.0673 -0.957618
88.3504 5.1663 -0.957492
88.3 5.20515 -0.955465
88.1988 5.70349 -0.95682
88.1598 5.74488 -0.954783
88.1501 5.84802 -0.956643
88.1402 5.95015 -0.957505
88.1054 6.04648 -0.956389
88.0609 6.13802 -0.955284
88.025 6.23348 -0.95517
87.9281 6.30969 -0.951116
86.9023 10.7905 -0.984378
86.9689 10.9371 -0.991136
86.9676 11.0513 -0.992976
87.2314 11.2942 -1.01249
87.4357 11.453 -1.02616
2.41898 10.6523 -2.36676
10.7809 -6.09789 -1.81873
71.1341 -18.9079 -0.35774
71.1849 -18.8662 -0.357653
71.2407 -18.8795 -0.359641
71.2978 -18.8436 -0.36056
71.3601 -18.8144 -0.361485
71.3916 -18.751 -0.360378
71.4505 -18.7173 -0.361299
71.5057 -18.6802 -0.361216
71.5549 -18.6362 -0.361128
71.5789 -18.6141 -0.361083
71.6246 -18.5656 -0.36099
71.6746 -18.5227 -0.360903
71.7157 -18.4706 -0.360807
71.7781 -18.4405 -0.36173
71.8202 -18.3885 -0.361634
71.863 -18.3386 -0.360541
76.9249 -14.7201 -0.454688
82.5347 -6.07702 -0.727473
86.0501 5.51449 -0.99926
86.0447 5.61201 -1.00113
86.0278 5.706 -1.001
86.032 5.80732 -1.00286
86.5878 10.8611 -1.14345
86.6523 11.007 -1.15121
86.5271 11.0597 -1.14521
55.0446 19.8179 -0.567104
54.9692 19.8429 -0.56911
54.9319 19.8508 -0.569119
54.8579 19.8555 -0.570153
14.9721 4.44578 -1.82862
81.1105 -8.82466 -0.674114
82.0449 -7.81823 -0.716189
82.1001 -7.6661 -0.716945
82.1369 -7.59225 -0.718821
82.1717 -7.55747 -0.720753
82.1969 -7.48108 -0.720632
82.2013 -7.40097 -0.720517
82.1427 0.288743 -0.876741
83.9992 3.13332 -1.03473
84.0538 3.2351 -1.03955
20.6818 4.47272 -1.73846
20.6294 2.05104 -1.71589
20.6233 1.93485 -1.71606
20.6261 1.81749 -1.71422
62.1232 -19.3697 -0.336314
80.5779 0.230115 -0.887678
80.624 0.312841 -0.891537
80.661 0.356421 -0.894456
80.6906 0.436262 -0.897327
65.3219 -18.1298 -0.422823
72.9686 -13.6318 -0.680321
78.5683 3.38753 -1.06734
48.9695 13.8708 -0.893784
31.8815 -3.70954 -1.50384
72.6245 3.9928 -0.821737
72.6608 4.06975 -0.828609
73.5212 -4.50712 -0.865194
73.513 -4.4546 -0.863125
73.4966 -4.40205 -0.86106
73.503 -4.37665 -0.862021
68.3261 11.065 -1.03515
65.4432 10.3746 -0.807693
60.3398 14.6526 -1.04047
72.3315 -9.26404 -0.860531
68.4708 10.3352 -1.10209
65.4531 10.2262 -0.899896
65.4131 10.3524 -0.908741
71.8458 -1.17679 -0.886429
66.0733 11.2901 -1.13906
65.282 10.1821 -0.983052
65.1355 10.0338 -0.95934
65.2641 10.3458 -0.997832
65.0074 10.0566 -0.954378
59.0616 6.47421 -0.315663
59.9822 14.6936 -1.27061
56.9571 15.0438 -1.28777
56.8891 12.3342 -0.974615
66.1962 10.3089 -1.14537
65.8593 10.7402 -1.16695
65.0244 9.83966 -1.02167
65.0807 10.031 -1.04437
65.0447 10.0176 -1.04141
64.979 10.0009 -1.03547
59.0572 6.51017 -0.377615
59.0292 6.53501 -0.379595
59.0039 6.57262 -0.383556
59.169 14.1666 -1.29879
65.1781 9.94275 -1.12145
65.1361 9.96842 -1.12143
65.1194 10.0331 -1.12735
65.0776 10.0608 -1.12733
59.0732 13.4409 -1.29687
56.9731 12.374 -1.14951
56.8786 12.1069 -1.11594
65.6035 -12.3823 -0.753591
70.5761 -5.67413 -0.898444
65.1579 9.82653 -1.21462
65.1502 9.85982 -1.21758
65.067 9.91002 -1.21755
64.9961 9.88499 -1.20963
64.9655 9.92833 -1.21258
64.9139 9.93506 -1.2096
64.8923 9.99337 -1.21553
55.5214 5.71584 -0.391664
69.5027 3.81852 -1.16269
69.5086 3.84801 -1.16564
69.5017 3.89531 -1.16758
69.489 4.04523 -1.17738
69.4724 4.08775 -1.17833
64.7124 9.32708 -1.22657
64.6914 9.33588 -1.22556
64.6626 9.37797 -1.22852
64.6054 9.37233 -1.22356
64.7489 8.78074 -1.22731
64.7082 8.80119 -1.22731
64.6962 8.82495 -1.22928
64.654 8.84156 -1.22828
64.6208 8.87313 -1.22925
64.5696 8.87478 -1.22528
64.5376 8.9082 -1.22725
64.5058 8.94262 -1.22922
64.4817 8.98915 -1.23317
64.462 9.0008 -1.23316
64.4173 9.0137 -1.23117
64.375 9.02932 -1.23017
64.4372 8.3324 -1.24711
64.4008 8.3553 -1.2471
64.3699 8.3886 -1.24907
64.3401 8.42276 -1.25104
64.3171 8.42475 -1.25005
64.2849 8.45619 -1.25102
64.2472 8.47624 -1.25102
64.2086 8.49742 -1.25101
64.1697 8.51563 -1.25
64.2878 8.8018 -1.29654
63.7973 7.64253 -1.25143
63.7732 7.68199 -1.25439
63.7399 7.7045 -1.25538
63.7143 7.74013 -1.25734
63.6784 7.75893 -1.25733
63.658 7.76463 -1.25634
57.0461 9.29883 -1.3488
57.0061 9.28591 -1.34684
56.9668 9.28601 -1.34686
56.947 9.30473 -1.34984
56.9075 9.29577 -1.34888
66.0566 -6.37124 -0.818895
66.099 -0.184307 -0.974176
66.1043 -0.151711 -0.977127
66.0865 -0.126184 -0.976101
52.1949 -9.10004 -1.02131
63.7249 -6.27908 -0.90204
58.4379 -9.73792 -0.885792
60.4899 -5.92165 -0.939306
60.4956 -5.90928 -0.938285
56.2536 -1.75772 0.00323202
56.2147 -1.77784 0.00218247
55.9765 -4.67945 -0.00202606
60.4153 -5.93707 -0.962368
56.4255 -2.07081 0.122886
56.3355 -2.21845 0.152629
123.189 -19.5168 -28.5282
123.242 -19.31 -28.5289
58.0386 0.760749 -1.09325
56.4754 -2.03596 0.100962
56.5142 -2.11674 0.14087
56.4937 -2.08881 0.124898
56.4448 -2.05412 0.08392
56.3356 -1.87128 -0.0128828
56.4396 -2.05546 0.0829153
56.442 -2.06788 0.0888991
56.3977 -2.00556 0.0539625
56.3683 -1.96841 0.0329986
56.3213 -1.90371 -0.00393623
56.3361 -1.93694 0.0130252
56.334 -1.93767 0.013023
56.3447 -1.9633 0.0249929
56.3352 -1.95902 0.0209937
56.1854 -1.73958 -0.0997799
56.3867 -2.15145 0.107751
56.3195 -2.12547 0.0797512
58.5138 -4.46449 -0.045337
58.5594 -4.4553 -0.0582992
58.548 -4.58887 -0.114493
58.5175 -4.55264 -0.092459
58.5032 -4.53062 -0.0804358
58.5495 -4.52354 -0.0944006
