ply
format ascii 1.0
element vertex 842
property float x
property float y
property float z
end_header
151.364 -3.58743 3.93393
139.442 -2.18776 3.493
119.669 1.38478 2.77003
138.724 5.4333 3.47306
135.949 6.7452 3.37681
133.896 7.10512 3.30458
122.733 9.62957 2.92056
148.699 18.6971 3.90129
123.142 10.6894 2.94261
105.902 18.2724 2.46924
91.939 9.65895 1.90313
95.2645 12.8511 2.05956
95.2204 13.0466 2.06184
90.8926 42.4369 2.73797
90.7867 42.6243 2.74209
90.6851 42.8272 2.74618
92.9134 49.8658 2.98181
92.6667 49.6998 2.97357
92.8043 51.3404 3.02308
44.3175 16.2055 2.22278
39.4928 13.7879 2.30955
38.8464 13.8536 2.32741
28.5486 18.2703 2.66033
28.0181 16.7149 2.65639
27.9366 16.5732 2.65657
23.0274 18.2213 2.81093
14.4493 20.0445 3.06976
17.2803 17.88 2.96872
27.6315 13.1107 2.62901
27.5647 12.9659 2.62925
17.2373 13.4835 2.93074
1.94557 14.8405 3.38884
1.22055 14.7975 3.40979
1.32211 13.41 3.39825
19.5881 -10.517 2.83157
14.7259 -11.7978 2.98882
-4.04122 -15.5902 3.5889
46.201 -12.2607 2.03456
47.6819 -12.5905 1.99399
51.6055 -11.9328 1.86979
29.0232 -20.7164 2.64536
31.0932 -20.4151 2.58166
52.6646 -18.4233 1.94437
52.6941 -18.4984 1.94469
32.9379 -32.0168 2.73489
24.6165 -38.3836 3.08199
24.7101 -38.4347 3.08042
27.6124 -49.2274 3.26941
27.8724 -49.2606 3.26428
38.3278 -39.7275 2.78912
136.715 -21.1821 3.51063
136.732 -20.9795 3.50908
136.741 -20.7746 3.50749
136.75 -20.1583 3.50068
148.042 2.59926 3.33947
104.169 17.1322 2.16045
97.5135 13.1108 1.94052
98.4796 34.9068 2.35824
96.1021 51.0898 2.67671
90.7903 41.973 2.40305
90.9667 42.9963 2.42852
92.7281 48.8004 2.58344
92.7444 49.4287 2.59861
92.8223 49.9591 2.61126
92.5561 49.7364 2.60313
3.2146 -17.101 2.92017
3.64383 -41.1286 3.18632
32.929 -31.9678 2.42072
33.0131 -32.0974 2.42136
24.4135 -37.7655 2.69553
26.9967 -49.2795 2.87471
26.7269 -49.8018 2.89047
26.8409 -49.9752 2.89233
39.2577 -38.6895 2.4348
46.4081 -32.1111 2.16956
126.202 -27.8603 2.87708
126.172 -27.6559 2.87338
135.136 -21.3738 3.05947
135.326 -21.2199 3.06358
135.213 -20.9881 3.05855
135.174 -20.574 3.05319
135.182 -20.2739 3.05032
135.19 -20.074 3.04874
135.167 -19.8684 3.04606
136.125 -19.4825 3.07178
147.114 -19.8075 3.4027
149.74 19.1263 3.06612
149.181 19.4631 3.05444
92.2232 26.3124 1.90318
94.1936 31.8391 2.02456
91.817 28.5785 1.93618
91.9388 29.5118 1.95376
90.8043 42.3383 2.173
92.7157 49.1644 2.31931
92.5598 49.2732 2.32052
92.4534 49.5324 2.32343
26.6568 15.3882 2.10028
27.1082 -20.9944 2.15344
140.368 -38.4037 3.08109
134.861 -19.8526 2.74609
134.869 -19.6557 2.74453
136.261 -19.1635 2.77523
137.855 8.4162 2.24552
149.932 18.8752 2.47045
149.041 19.3638 2.45531
99.4066 36.3541 1.80368
96.1108 32.2512 1.72707
96.0333 32.3909 1.72842
93.2935 31.2356 1.68766
95.1281 49.8694 1.90943
91.0472 42.2693 1.78993
90.9265 42.4113 1.79114
90.9481 42.7235 1.79427
93.399 50.566 1.90317
93.1686 50.4633 1.90078
91.3455 48.0474 1.85854
149.364 -30.7951 2.6113
141.209 -21.7083 2.40267
141.297 -21.3968 2.402
135.814 -19.2963 2.29028
124.019 6.14684 1.73882
95.8868 11.808 1.40254
95.9701 11.9898 1.40324
95.9649 12.0987 1.4039
96.0437 12.2226 1.40577
98.0303 32.082 1.51833
104.113 42.2516 1.62615
97.198 34.3025 1.52419
93.8185 31.3783 1.48081
94.4941 35.0098 1.50797
93.6089 38.1639 1.52088
91.3666 41.0311 1.52459
90.5847 40.6759 1.5173
90.5425 41.0288 1.51912
90.7753 42.2085 1.52829
93.3968 50.2896 1.59798
92.8657 49.8591 1.59168
91.3845 48.1896 1.57223
91.2912 48.1871 1.57096
18.9612 -20.1928 1.56962
94.1588 -19.6002 1.45429
94.1938 -19.5335 1.4542
94.2547 -19.4839 1.45523
124.786 -27.3265 1.87923
113.228 -22.067 1.70085
113.267 -21.9403 1.70058
149.399 17.4855 1.514
105.873 18.4271 1.25768
106.012 18.6138 1.25854
106.065 18.8133 1.2591
95.0566 27.1377 1.1972
93.4203 26.1601 1.18922
98.0817 35.6668 1.20876
92.9727 42.7653 1.18521
90.3188 40.2885 1.17466
90.9061 42.4987 1.17681
92.7552 48.526 1.18433
92.6858 48.8859 1.18405
92.9414 49.9521 1.18562
92.7668 50.0091 1.18493
92.4948 49.767 1.18384
92.3041 49.7697 1.18226
91.557 48.0126 1.17927
91.4159 48.1536 1.17943
91.2258 48.1391 1.1779
90.8294 47.4493 1.17678
91.64 50.4161 1.18033
130.312 -28.2125 1.53545
149.564 -30.9117 1.66124
139.674 -21.0566 1.56411
134.346 -19.6002 1.52578
109.505 10.2766 1.10894
133.655 23.8785 1.09767
105.434 16.6445 1.07769
105.855 18.407 1.07169
97.4755 37.7352 0.973753
97.127 37.3993 0.974713
89.3044 32.9 0.975717
90.1623 40.319 0.9451
90.1552 40.7799 0.9437
89.9867 40.7612 0.943251
92.3891 48.6145 0.913965
92.1866 48.5704 0.91349
92.0761 48.5199 0.913309
91.8314 48.3406 0.914112
91.6881 48.4799 0.912266
91.9629 49.9657 0.906646
91.1705 48.0111 0.913116
90.9545 47.9094 0.913773
91.3926 49.9777 0.9049
91.1948 49.6358 0.90633
94.2673 -19.3217 1.17378
124.139 -27.1643 1.2408
113.902 -21.9357 1.21247
113.854 -21.7721 1.21184
134.492 -21.3072 1.24232
134.528 -20.7152 1.24066
134.53 -20.5164 1.24007
134.489 -20.3062 1.23932
134.511 -20.2124 1.2391
134.533 -20.0186 1.23859
134.537 -19.821 1.23801
134.516 -19.6169 1.23734
150.757 -19.3907 1.26135
139.224 9.39789 0.736671
139.262 9.62076 0.735118
98.4543 13.6007 0.882869
92.7023 9.27959 0.935549
92.5755 38.6914 0.6542
93.2943 42.4094 0.616235
93.0401 42.1991 0.618102
89.0656 32.9607 0.712817
90.6987 39.25 0.647902
89.8877 39.4257 0.645945
89.7937 39.6184 0.644087
89.8595 40.294 0.637264
89.7238 40.3675 0.636637
89.5717 40.3918 0.636108
92.1053 48.7725 0.549639
92.0117 49.0712 0.546464
91.862 48.8981 0.547533
91.8694 49.5267 0.541675
91.1264 47.7367 0.559802
91.0073 47.9513 0.557803
90.8663 48.0922 0.555958
90.7663 48.3748 0.552814
113.562 -21.8127 0.944081
145.52 -30.3281 0.805361
149.169 -30.8125 0.789751
150.504 -30.9963 0.783302
134.009 -20.832 0.851449
134.002 -20.6309 0.850827
134 -20.4324 0.851227
134.02 -20.2393 0.85071
134.056 -20.0505 0.850253
134.083 -19.8594 0.849762
134.112 -19.7676 0.849573
134.271 -19.6082 0.848576
134.631 -19.4932 0.84631
150.676 -19.4488 0.771282
153.988 -14.8697 0.256512
153.935 -14.3595 0.255826
154.005 -14.1151 0.255305
152.756 -4.62506 0.246178
146.5 -3.4718 0.310973
146.386 -3.02347 0.31129
146.166 -2.58179 0.312309
153.506 1.60204 0.214801
109.454 10.1878 0.631053
96.8894 8.43998 0.765611
97.9755 13.5159 0.698686
90.1746 39.8861 0.345426
90.2709 40.6451 0.333444
89.9725 40.2372 0.33977
89.9073 40.2821 0.33944
92.6471 49.1155 0.191234
89.876 41.1701 0.32469
89.7324 41.2316 0.324076
89.6731 41.5566 0.318926
91.6621 48.403 0.204412
91.5813 48.7404 0.19916
91.5104 48.8154 0.197723
91.295 48.7248 0.199349
91.0841 48.6446 0.200956
90.8944 48.633 0.201422
43.6025 -4.2327 0.577751
91.4949 -22.461 0.877859
91.526 -22.3867 0.87873
123.885 -27.144 0.568973
113.37 -21.7862 0.687422
133.225 -28.1921 0.474107
139.493 -26.696 0.412424
138.413 -23.1829 0.426682
135.102 -21.2603 0.463002
133.805 -20.6312 0.477234
133.689 -20.4039 0.478206
133.748 -20.2216 0.477838
134.368 -19.5798 0.471777
134.302 -19.466 0.472238
139.715 -11.3243 -0.0478885
139.9 -10.6177 -0.0514452
144.855 -3.59025 -0.158609
143.238 4.29838 -0.168051
98.0222 31.5956 0.145748
99.2448 40.4959 -0.0522078
91.3432 30.3225 0.219531
99.1394 47.5325 -0.204571
89.8239 39.2313 0.0263297
89.6564 39.1993 0.0279235
89.6344 39.6068 0.0186387
89.4722 39.3557 0.0249033
89.9213 41.209 -0.0192934
89.9703 41.8658 -0.0341111
89.9304 42.2547 -0.0433939
89.7955 42.3544 -0.0450966
91.5053 48.3513 -0.188907
91.4343 48.7215 -0.197227
91.1899 48.5371 -0.191409
90.9877 48.1787 -0.182943
94.5545 -19.5035 0.703185
119.198 -25.5579 0.280174
119.396 -25.4778 0.277527
119.553 -25.3786 0.275701
119.719 -25.3676 0.273167
119.851 -25.2556 0.271227
120.379 -24.3851 0.267206
124.174 -24.2309 0.205122
133.875 -18.8323 0.0550585
129.571 -12.1537 -0.148821
136.105 -3.51577 -0.317065
136.066 -3.32399 -0.316758
135.974 -2.84449 -0.316468
135.782 -2.66172 -0.312589
137.012 1.84431 -0.364379
136.748 1.9114 -0.358372
118.526 0.861586 0.0641389
114.987 1.69768 0.139031
113.694 2.47991 0.161814
120.893 4.9852 -0.022097
120.879 5.13488 -0.0225879
95.6015 12.285 0.398247
98.3084 31.178 -0.0731474
97.7761 31.236 -0.0679164
102.454 46.6003 -0.508847
98.3409 39.2009 -0.278047
92.9701 41.646 -0.301462
92.8513 41.7797 -0.304218
89.6363 38.7469 -0.201786
89.6119 39.1385 -0.21303
89.5225 39.3416 -0.217906
89.3184 39.1978 -0.213087
89.4099 39.9646 -0.234107
89.3832 40.1272 -0.238673
89.2551 40.2248 -0.241349
91.509 47.8952 -0.465535
91.3846 48.0873 -0.470482
91.2276 48.1811 -0.472234
91.1265 48.4567 -0.479361
91.7069 51.0032 -0.553238
91.3555 50.4757 -0.536713
111.883 -24.3587 0.190654
112.451 -24.1248 0.181658
113.002 -23.9479 0.171779
113.099 -23.8461 0.170768
113.205 -23.8221 0.168013
113.427 -23.7769 0.164543
113.588 -23.7036 0.161808
116.641 -22.9128 0.103594
123.694 -17.3568 -0.0228774
134.492 -19.615 -0.271754
123.761 -16.9654 -0.0238486
124.57 -16.2453 -0.0395761
125.338 -14.836 -0.054489
121.272 -12.5474 -0.239526
121.261 -12.471 -0.238787
121.294 -12.3263 -0.23912
121.34 -12.1836 -0.240409
121.354 -12.036 -0.240809
121.427 -11.8961 -0.243008
121.591 -11.7676 -0.2469
121.749 -11.6382 -0.251815
121.823 -11.5723 -0.253789
121.935 -10.4566 -0.255792
122.019 -10.3154 -0.258962
122.085 -10.1714 -0.260195
122.101 -10.0221 -0.260594
122.136 -9.87473 -0.261928
122.166 -9.72749 -0.263279
122.167 -9.65183 -0.262502
122.253 -9.50877 -0.265673
122.291 -9.36071 -0.267002
122.346 -9.21413 -0.268276
122.425 -9.06921 -0.27047
122.498 -8.92327 -0.272688
122.551 -8.77541 -0.274971
122.582 -8.70214 -0.276097
122.668 -8.55596 -0.278279
122.654 -7.79901 -0.278583
122.764 -7.65237 -0.282693
122.937 -7.58277 -0.287383
123.742 -6.84195 -0.312184
123.937 -6.69169 -0.318049
124.048 -6.61704 -0.32194
124.181 -6.4637 -0.326001
124.381 -6.31021 -0.331859
125.042 -5.60573 -0.352986
125.019 -5.44781 -0.353525
125.352 -5.2865 -0.363009
125.564 -5.12457 -0.369859
125.644 -4.96353 -0.3731
125.744 -4.80129 -0.376286
125.792 -4.63955 -0.378626
125.902 -4.55669 -0.381544
125.969 -4.39362 -0.384832
126.092 -4.22879 -0.388956
126.265 -4.06217 -0.393935
126.827 -3.71623 -0.412284
126.928 -3.54707 -0.415488
127.318 -3.28304 -0.428107
130.055 -1.4969 -0.516245
129.936 -1.33181 -0.514096
130.716 -1.0037 -0.537739
130.426 1.18664 -0.543159
109.797 2.58479 0.0338165
97.6475 35.4585 -0.454934
92.6791 36.8177 -0.442895
94.3708 41.2041 -0.600944
94.0329 40.8101 -0.584778
91.9035 39.6694 -0.528751
90.0285 37.8052 -0.451796
89.7009 38.1899 -0.462928
89.6083 38.3713 -0.467749
89.543 38.4081 -0.469055
89.3447 38.2766 -0.463256
89.447 39.0478 -0.489256
89.4545 39.546 -0.505724
89.2907 39.5255 -0.504153
89.0133 39.1509 -0.489865
89.6167 41.5374 -0.573194
91.7451 48.5247 -0.821713
91.6027 48.6699 -0.825574
91.4271 48.7058 -0.826208
91.1612 48.4507 -0.815242
90.9887 48.4943 -0.815889
73.746 12.8886 0.454917
17.4238 15.7543 -1.08153
-4.63514 -13.6313 -1.65378
-3.4587 -13.7615 -1.61287
109.583 -22.0657 0.0278999
107.072 -20.4566 0.110559
117.641 -13.7505 -0.137812
118.03 -13.6823 -0.148849
121.234 -13.1423 -0.23886
121.292 -13.0012 -0.240108
121.298 -12.8515 -0.240538
121.284 -12.6998 -0.240034
116.577 -5.9882 -0.381219
116.71 -5.85707 -0.386215
116.847 -5.72468 -0.392198
116.983 -5.59102 -0.39719
117.126 -5.45738 -0.402161
117.255 -5.3893 -0.40698
117.343 -5.25474 -0.411117
117.521 -5.11714 -0.417996
117.679 -4.9796 -0.423934
117.82 -4.84172 -0.428922
117.985 -4.70223 -0.435845
118.152 -4.56091 -0.441769
118.273 -4.48885 -0.446619
118.399 -4.34765 -0.451664
118.742 -4.19897 -0.46508
118.915 -4.05358 -0.471996
119.049 -3.90845 -0.47703
119.159 -3.76393 -0.481132
119.271 -3.61758 -0.486236
119.378 -3.54235 -0.49014
119.464 -3.39731 -0.494316
119.57 -3.25024 -0.498436
119.749 -3.09765 -0.505356
119.881 -2.94714 -0.511412
120.085 -2.79127 -0.519264
120.185 -2.64119 -0.523414
120.327 -2.48719 -0.529449
120.442 -2.40704 -0.534344
121.147 -1.62017 -0.563585
121.35 -1.45396 -0.572472
121.519 -1.36455 -0.578234
121.672 -1.20112 -0.585263
121.834 -1.03489 -0.592275
121.877 -0.88148 -0.594605
122.059 -0.712079 -0.602568
122.188 -0.547133 -0.607673
122.342 -0.378754 -0.614715
122.316 -0.305108 -0.614015
122.543 -0.127264 -0.623865
92.2197 27.4947 -0.386388
93.8195 40.2028 -0.889605
91.7752 37.7855 -0.772503
89.8423 37.5974 -0.744735
89.6831 37.5803 -0.742161
89.5211 37.5505 -0.739558
89.3542 37.5083 -0.735932
89.1774 37.4332 -0.732238
89.0268 37.4331 -0.730689
88.8267 37.2826 -0.722838
89.3049 38.9678 -0.793446
89.1418 38.9453 -0.790867
89.0343 39.0935 -0.796633
73.731 12.9279 0.330753
73.6722 12.9405 0.330539
73.6188 12.8382 0.334685
16.2101 -14.8831 -1.31754
17.2529 -15.5515 -1.27741
102.06 -18.799 0.0585738
113.012 -14.1799 -0.265407
114.074 -3.22767 -0.537982
114.156 -3.09818 -0.542124
114.241 -2.96714 -0.547261
114.318 -2.83692 -0.550421
114.425 -2.76678 -0.555309
114.517 -2.63379 -0.56043
90.881 27.4866 -0.58638
97.5644 41.4813 -1.2982
97.3932 41.5065 -1.29579
92.0352 41.026 -1.19742
89.9172 37.4058 -1.00994
89.7573 37.3838 -1.00635
89.9731 38.2192 -1.04621
89.8095 38.1927 -1.04362
89.6225 38.0968 -1.03689
89.421 37.9567 -1.02808
89.1626 37.6429 -1.01191
89.2552 38.3761 -1.04583
89.1787 38.6117 -1.05576
89.1152 38.6544 -1.05708
88.9762 38.6991 -1.05763
73.7574 12.8782 0.22298
3.07436 10.511 -2.41788
11.3077 -7.71222 -1.89269
25.3903 -11.8675 -1.22703
92.9451 -18.1475 0.2163
107.299 -17.2961 -0.300217
107.391 -17.2126 -0.30319
93.9141 5.7255 0.00580284
96.3818 34.9358 -1.26317
96.7367 40.7401 -1.54747
93.8073 38.0779 -1.36529
94.937 41.4652 -1.55104
90.5967 37.1952 -1.27128
90.4884 37.3182 -1.27497
90.3226 38.3562 -1.32557
90.1114 38.1982 -1.31473
89.9537 38.191 -1.31218
89.7458 38.0356 -1.30134
90.0361 39.3361 -1.37036
89.5158 38.0381 -1.29804
89.2265 39.9966 -1.39376
70.4066 10.5351 0.203941
21.3188 3.38544 -1.79387
92.9497 -22.3969 -0.0309793
104.154 -6.72851 -0.471252
104.158 -6.63604 -0.471518
104.192 -6.54411 -0.472689
104.203 -6.45067 -0.473937
104.197 -6.35773 -0.473234
104.192 -6.31161 -0.473385
104.188 -6.21797 -0.473679
104.987 -4.08462 -0.524662
105.057 -3.98577 -0.528748
105.111 -3.88657 -0.532883
105.208 -3.83209 -0.537755
105.292 -3.73018 -0.543809
105.363 -3.6295 -0.547896
105.442 -3.52686 -0.552967
105.493 -3.4251 -0.55612
105.538 -3.3246 -0.559286
96.6068 11.1821 -0.444448
99.7534 43.5816 -2.09293
92.0498 28.7569 -1.12668
96.5519 40.6785 -1.86684
94.9156 41.3604 -1.87079
91.6058 35.4586 -1.48206
90.5392 37.0038 -1.54988
90.0283 37.9216 -1.59315
89.9129 38.0305 -1.59683
89.8284 38.2329 -1.60769
89.6751 38.2352 -1.60515
89.5809 38.4128 -1.61397
89.4824 38.3474 -1.60807
73.869 -20.1735 0.330167
73.914 -20.1973 0.329373
90.7164 -19.7503 -0.00859038
92.106 -20.7723 -0.0993685
91.527 -17.6568 0.0245788
103.112 -2.75519 -0.587262
92.6917 4.8443 -0.164228
92.673 4.90971 -0.16548
98.9074 41.973 -2.27266
97.4878 42.3139 -2.25793
95.6407 42.0576 -2.2007
95.5335 42.2219 -2.20852
90.3055 38.3027 -1.86747
90.0021 37.8824 -1.83612
89.8098 37.7702 -1.82636
89.8412 38.3072 -1.85987
90.2806 40.0445 -1.97375
90.764 41.9502 -2.1
90.5141 41.4533 -2.06427
98.9786 -9.17062 -0.501466
101.349 -0.434852 -0.702487
101.384 -0.384366 -0.705533
101.519 1.2432 -0.743997
101.567 1.34539 -0.749161
101.532 1.42727 -0.748509
101.525 1.47071 -0.749659
98.9874 39.9311 -2.51631
99.2792 40.6502 -2.57059
97.971 39.9066 -2.48529
99.4396 43.15 -2.73559
90.9708 40.578 -2.36028
90.7233 40.3384 -2.33931
90.4707 40.0784 -2.31629
90.616 40.9696 -2.38052
90.6775 41.6356 -2.42632
99.0033 -10.5933 -0.515137
98.9005 -10.178 -0.504687
98.9059 -10.0999 -0.503904
98.9036 -10.0602 -0.50403
98.907 -9.98183 -0.503254
98.9202 -9.90594 -0.503442
98.9236 -9.8276 -0.502666
98.926 -9.74912 -0.502893
98.9451 -9.6741 -0.50306
97.3469 12.7739 -1.039
98.4596 37.326 -2.5771
97.3156 38.8259 -2.64302
91.0106 35.6754 -2.2495
91.522 37.1657 -2.36842
92.5875 40.7269 -2.64888
91.4657 38.233 -2.44378
91.2059 37.9649 -2.41776
91.0628 38.0021 -2.4173
90.3622 36.7438 -2.31064
90.6312 40.1058 -2.55989
90.5888 40.4495 -2.58404
90.4328 40.234 -2.56487
76.7287 10.4307 -0.135795
76.5636 9.92035 -0.0957631
92.9918 -16.5903 -0.378223
93.0929 -16.494 -0.381208
96.161 -4.18655 -0.565821
96.1935 -4.11654 -0.568932
96.2201 -4.04566 -0.572065
96.2659 -3.97458 -0.57614
96.2976 -3.9378 -0.579155
94.5611 9.69836 -0.902147
92.3989 28.4698 -2.03478
91.3738 36.1448 -2.58682
91.5932 37.0796 -2.66495
91.6958 37.7356 -2.71861
92.0641 39.0851 -2.83354
91.8531 38.7503 -2.80217
91.4726 38.1766 -2.7476
91.2954 38.1268 -2.73898
91.1114 38.0579 -2.72933
90.7681 37.5586 -2.68186
90.593 37.5024 -2.67222
90.5685 37.8577 -2.70035
91.9659 43.3306 -3.16354
91.6939 43.0482 -3.13451
90.6097 40.4194 -2.90189
90.4217 40.3439 -2.89223
93.8892 -13.3718 -0.476159
90.453 19.621 -1.49115
99.1234 45.0463 -3.81822
90.9218 37.7657 -2.96802
90.732 37.6713 -2.95431
90.5979 37.7284 -2.95588
90.5369 37.987 -2.97584
90.5937 39.6924 -3.12077
90.3993 39.5937 -3.10706
90.3349 39.8709 -3.12908
90.037 39.9349 -3.12716
70.8209 11.7783 -0.496541
90.0215 35.1032 -2.97976
90.9019 37.6376 -3.2317
90.7157 37.5538 -3.21801
90.5953 37.6493 -3.22365
92.0128 43.3808 -3.77655
91.9377 43.413 -3.77687
91.7649 43.4131 -3.77239
91.5909 43.4124 -3.76791
90.1826 39.8046 -3.40534
70.825 11.7896 -0.604563
89.9687 35.088 -3.25387
90.7436 37.5651 -3.51296
90.6025 37.602 -3.51249
90.5375 37.6348 -3.51379
91.6786 43.1077 -4.07074
91.5793 43.3193 -4.08767
91.1575 38.2069 -3.87564
90.7627 37.5717 -3.79793
90.6167 37.5961 -3.79544
90.555 37.8497 -3.81938
91.0769 40.853 -4.1408
90.9048 40.8308 -4.13325
90.785 40.9575 -4.14199
90.5831 40.8497 -4.12427
69.4156 -19.1717 -0.376187
89.9338 34.1793 -3.70826
90.8549 37.5998 -4.10774
90.7961 37.86 -4.13269
90.6623 37.9191 -4.13427
90.7136 38.4875 -4.19682
90.6338 39.8199 -4.33804
90.4628 39.7914 -4.32847
90.3123 39.8196 -4.327
90.124 39.7351 -4.31132
62.7997 11.0783 -1.2595
92.7185 34.2536 -4.09714
89.9917 33.8933 -3.94124
90.0757 34.4842 -4.01075
90.066 34.8372 -4.04984
90.8928 37.4116 -4.37206
90.7645 37.481 -4.37465
90.7132 37.5512 -4.38102
90.6224 37.7241 -4.39681
90.5781 39.3383 -4.57777
90.4112 39.3173 -4.56921
90.0465 39.4083 -4.56657
89.9076 39.4671 -4.56817
89.1075 -6.85636 -0.631983
89.1251 -6.81245 -0.634062
89.1067 -6.76527 -0.631258
89.1 -6.74205 -0.630348
89.1307 -6.69806 -0.634387
89.1103 -6.65158 -0.631588
89.109 -6.60491 -0.630731
89.1175 -6.56068 -0.631838
84.7452 10.5798 -1.26922
91.8653 28.8654 -3.69158
91.7316 28.8699 -3.68599
91.6174 28.9119 -3.68446
91.5152 28.9794 -3.68697
91.5132 29.2546 -3.7178
91.9819 33.1517 -4.18705
91.986 33.3238 -4.20656
91.5893 32.7577 -4.12305
91.664 33.258 -4.18433
91.552 33.3351 -4.18789
89.9769 33.7119 -4.16274
90.0324 34.2262 -4.22611
90.0931 34.7619 -4.29153
90.6783 37.1019 -4.59078
90.5914 37.2804 -4.60858
90.5601 37.4042 -4.62204
90.0629 38.1674 -4.69281
79.054 11.1158 -1.06988
89.614 26.9383 -3.54457
90.0015 33.8391 -4.39605
90.0793 34.4087 -4.46952
90.2231 34.9736 -4.54478
90.1352 35.516 -4.60767
90.0479 35.6783 -4.62341
89.4934 35.9831 -4.63899
78.5607 9.68555 -0.963081
78.2276 8.88344 -0.956681
78.1524 8.77121 -0.93957
78.8088 6.60254 -1.06012
78.7685 6.61048 -1.05926
78.7318 6.629 -1.06043
78.6882 6.62833 -1.05856
78.6442 6.62469 -1.05568
78.6098 6.65197 -1.05886
78.5635 6.63957 -1.05496
78.5446 6.64842 -1.05505
78.5022 6.64859 -1.05317
77.6064 6.83976 -1.04843
82.8337 -12.5433 -0.619784
77.4895 6.23528 -1.06997
84.0281 -2.66212 -0.704757
84.0427 -2.62486 -0.709825
77.4937 5.62418 -1.07113
77.381 5.6276 -1.06748
77.3463 5.63876 -1.06862
77.0706 4.75238 -1.0768
77.0329 4.7367 -1.07186
71.2419 5.09445 -1.20729
78.7394 -12.8386 -0.625176
82.1403 -2.31726 -0.729449
82.0986 -6.79261 -0.695188
82.1059 -6.77044 -0.696233
82.1037 -6.75799 -0.695277
82.1091 -6.73453 -0.69533
82.1215 -6.7121 -0.69736
82.1189 -6.68847 -0.696439
82.1313 -6.66604 -0.698469
82.119 -6.63996 -0.695584
82.1373 -6.6184 -0.698593
82.1371 -6.60624 -0.69863
82.1325 -6.58231 -0.696716
82.0949 -6.94874 -0.698733
82.0885 -6.92354 -0.696827
82.1021 -6.91342 -0.699817
82.0967 -6.88836 -0.696908
82.102 -6.86589 -0.697959
82.1134 -6.84332 -0.699992
82.1089 -6.8184 -0.69808
68.8792 -4.32767 -0.955196
68.8883 -4.34819 -0.950108
68.9002 -4.37014 -0.945006
68.8793 -4.37517 -0.951054
68.8864 -4.39541 -0.946972
68.8896 -4.41507 -0.944904
68.8918 -4.43459 -0.942839
46.1759 -2.91559 -9.33656
46.1788 -3.00596 -9.33228
46.1547 -3.09441 -9.33709
46.1533 -3.13867 -9.33596
46.154 -3.22974 -9.33269
47.2329 -3.1966 -9.51955
47.2274 -3.2827 -9.51931
46.4666 -3.1432 -10.116
46.4566 -3.2317 -10.1168
73.6774 -4.15987 0.262698
73.6722 -4.16112 0.261686
73.4058 -7.03487 0.282483
118.862 -10.9867 -18.0116
73.869 -4.44241 0.378119
73.7855 -4.6039 0.416352
73.9291 -4.426 0.36425
73.9592 -4.49503 0.398547
73.9449 -4.47577 0.387446
73.6431 -6.73791 0.392307
73.9004 -4.44912 0.350233
73.7898 -4.25525 0.24732
73.8921 -4.44387 0.346192
73.8806 -4.43309 0.339125
73.8479 -4.38793 0.313892
73.8151 -4.34375 0.288661
73.7715 -4.28287 0.254348
73.7885 -4.31866 0.272506
73.7886 -4.32474 0.275525
73.803 -4.35713 0.290665
73.7913 -4.34735 0.284601
73.628 -4.09934 0.148368
73.841 -4.54343 0.373337
73.7652 -4.50308 0.337989
73.505 -6.66721 0.351681
73.5851 -6.72038 0.363081
73.4591 -6.96901 0.242445
73.5312 -6.89661 0.288445
73.5577 -6.87417 0.304458
73.5962 -6.83833 0.328466
73.5991 -6.86 0.32154
73.5551 -6.91933 0.288585
75.9143 -6.87167 0.239515
75.9503 -6.99944 0.169005
75.9142 -6.95566 0.194766
75.9117 -6.94518 0.198727
75.9563 -6.93761 0.186838
-41.9966 -9.38095 2.01915e-39
