ply
format ascii 1.0
element vertex 374
property float x
property float y
property float z
end_header
173.527 -5.36234 3.65988
159.865 -5.58895 3.25647
159.026 -5.45137 3.2314
175.841 12.7995 3.74915
166.894 17.2952 3.53007
163.184 17.5807 3.43146
161.046 30.4232 3.52292
160.833 30.5576 3.51923
160.902 30.8761 3.52554
160.865 31.1268 3.52859
141.728 23.0084 2.958
148.516 43.1179 3.46885
148.65 43.4262 3.47793
148.717 43.8309 3.48786
148.782 44.2358 3.49681
148.851 44.6503 3.50669
101.7 39.1738 2.89958
101.662 42.1554 2.98761
101.405 39.4422 2.90864
101.252 39.4285 2.90934
100.978 35.2892 2.78772
97.3475 14.6194 2.19903
90.5157 22.3588 2.49476
79.3886 46.8633 3.33879
78.5576 48.0344 3.38414
79.1736 46.0989 3.32206
78.9716 46.1135 3.32485
78.9415 45.6683 3.31394
78.7762 45.5858 3.314
78.6293 45.4552 3.31319
80.3523 19.8758 2.61855
80.3218 19.7256 2.61534
79.406 13.0736 2.49049
74.7216 10.6706 2.58182
67.0172 13.6675 2.87011
62.9686 12.1114 2.98203
46.4943 16.6016 3.59472
44.2489 17.3653 3.68083
44.0994 16.2664 3.6753
47.7322 13.6289 3.52259
47.6082 13.489 3.52573
47.5657 13.4103 3.52626
47.4359 13.2722 3.53041
47.2594 13.1529 3.53568
44.9571 13.5247 3.61975
45.1437 13.2466 3.61119
44.162 13.4452 3.64746
40.8051 14.7018 3.77708
44.6265 12.9557 3.62665
44.6856 12.7321 3.62339
44.5237 12.5956 3.62767
38.9089 14.3652 3.84256
37.4712 13.9147 3.8906
38.2151 12.657 3.855
38.1629 12.2412 3.85405
24.0483 -8.19432 4.35855
23.8964 -8.43124 4.36524
20.8175 -11.1294 4.4951
33.4665 -17.3971 4.05836
33.4534 -17.6093 4.06035
41.4142 -25.4656 3.85038
42.0733 -25.4758 3.82665
71.2543 -19.6463 2.67793
74.292 -21.4431 2.60203
75.0865 -21.2968 2.57204
78.2481 -22.2799 2.48504
86.4946 -22.3518 2.23158
81.1869 -30.4697 2.61371
79.0903 -36.4285 2.84979
66.2375 -55.4619 3.76381
66.3996 -55.5435 3.76348
70.059 -54.2159 3.63421
74.5387 -48.1828 3.33575
74.7128 -48.1803 3.33201
74.6867 -48.3564 3.33789
77.3017 -44.4884 3.15183
75.0059 -48.3988 3.33273
162.137 -32.1303 3.57577
164.003 -22.1985 3.49316
164.05 -21.9981 3.49208
164.056 -21.894 3.4916
164.067 -21.6854 3.48964
164.11 -21.4844 3.48857
164.138 -21.2793 3.48755
164.176 -21.0767 3.4865
164.198 -20.8717 3.4845
164.216 -20.6653 3.48351
164.256 -20.568 3.48292
165.66 17.6715 3.04761
134.559 8.98517 2.33997
148.583 43.0546 3.01584
148.641 43.4444 3.02288
148.784 43.7645 3.02987
148.848 44.1685 3.03681
148.927 44.5907 3.04462
101.415 38.5107 2.57869
101.283 39.0316 2.59095
78.7348 47.2041 2.97804
90.3572 -22.191 2.02359
137.215 -29.0307 2.58417
163.198 -32.1612 3.17742
175.089 -34.4829 3.46652
163.498 -22.3892 3.06713
163.52 -22.1843 3.06613
163.547 -21.9811 3.06412
163.579 -21.7787 3.06309
163.577 -21.6743 3.06164
163.616 -21.4728 3.06059
163.657 -21.2725 3.05954
163.661 -21.065 3.05861
163.697 -20.8641 3.05657
163.729 -20.6617 3.05554
163.712 -20.4511 3.05369
164.064 -20.4094 3.06102
165.888 20.1577 2.7267
148.622 43.3443 2.68339
148.683 43.7408 2.68839
148.741 44.1397 2.69439
148.804 44.5439 2.69934
111.193 9.60001 1.85576
101.691 38.4522 2.35278
101.362 39.778 2.37833
176.152 13.5752 2.2764
176.26 13.7376 2.27823
163.226 15.5461 2.14622
163.212 15.7714 2.14628
148.725 35.1974 2.08982
148.615 42.9517 2.13714
148.685 43.355 2.14007
148.738 43.7434 2.14313
148.798 44.1429 2.14612
148.866 44.5535 2.14903
104.149 42.4509 2.02681
102.406 46.6843 2.07851
101.73 39.2004 1.99932
101.586 39.4228 2.00294
101.477 40.5849 2.01529
22.5372 -24.5331 3.07484
126.946 -24.35 1.91284
127.042 -24.292 1.91318
150.834 -31.0079 2.21245
174.064 -33.9913 2.47466
175.043 -34.0561 2.48581
174.783 15.2681 1.85871
174.792 15.5325 1.85851
174.96 16.2439 1.85867
159.769 27.0449 1.78115
150.313 35.2271 1.75599
149.073 35.532 1.75287
148.879 35.497 1.75184
148.195 35.1551 1.74923
148.789 43.6636 1.77426
148.839 44.0533 1.77533
148.917 44.4735 1.77716
101.933 35.6428 1.73112
78.88 46.1933 1.92586
163.564 -32.8323 2.00881
171.898 24.4884 1.28326
171.668 24.9342 1.28227
171.57 25.1644 1.28167
148.704 43.3155 1.27314
148.738 43.6824 1.27239
148.886 44.0079 1.27133
148.946 44.4094 1.27031
98.8718 31.039 1.43729
98.7445 31.0884 1.43861
97.1348 14.145 1.46701
99.4804 -23.4846 1.59381
174.974 -34.0873 1.52723
163.041 -22.4271 1.48019
163.086 -22.2285 1.47912
163.115 -22.0265 1.47811
163.156 -21.8273 1.47706
163.185 -21.6264 1.47606
163.165 -21.5185 1.47566
163.064 -21.292 1.47409
163.195 -21.1107 1.47374
163.255 -20.9152 1.47263
163.283 -20.7131 1.47162
163.448 25.1116 0.952137
160.318 33.4493 0.926621
148.625 43.2816 0.935619
148.715 43.7093 0.93336
148.756 44.0882 0.930515
103.371 46.4372 1.13752
99.7308 16.7433 1.32962
98.7094 32.7329 1.23952
127.719 -24.4769 1.38413
127.78 -24.4533 1.38377
163.054 -21.989 1.1732
163.028 -21.7762 1.17237
162.904 -21.5454 1.17288
162.913 -21.3406 1.17194
162.924 -21.2402 1.17145
162.96 -21.0412 1.17042
163.127 -20.8661 1.16795
163.471 -20.7222 1.16586
179.329 -8.62671 0.517736
175.811 -0.597272 0.521211
149.414 28.6101 0.615893
149.44 28.8761 0.612613
145.557 29.9626 0.643197
147.492 35.2403 0.571801
121.455 11.4988 1.06412
127.321 -24.1464 1.18535
147.072 -30.4357 0.967768
160.254 -32.0193 0.818164
160.546 -31.9114 0.814458
160.893 -31.8225 0.810603
161.227 -31.7266 0.806774
163.031 -31.3777 0.78463
167.624 -30.62 0.729931
163.11 -22.4698 0.764073
163.146 -22.2698 0.763042
163.671 -22.1689 0.756383
163.645 -21.9541 0.755546
162.597 -21.5381 0.767132
162.609 -21.3348 0.766187
149.499 28.6152 0.230504
148.768 28.3052 0.24595
149.482 29.0974 0.224453
148.472 35.0985 0.159284
147.756 35.2814 0.167499
89.1163 26.2328 0.854574
35.5032 16.787 0.670191
147.556 -29.8084 0.640959
153.381 -24.8688 0.541651
152.378 -16.2863 0.176081
152.884 -15.0817 0.161643
153.114 -13.159 0.151205
153.134 -13.076 0.150756
153.088 -12.9037 0.151192
158.187 -6.54699 -0.00429854
145.315 16.6427 0.0778585
154.858 29.2875 -0.329058
155.931 30.1647 -0.366446
154.851 29.6701 -0.335717
154.801 29.8934 -0.338489
79.8337 56.7481 -0.165679
79.7362 56.3257 -0.155407
148.796 -21.7374 0.267183
163.348 -20.5514 -0.0923935
150.309 -7.7382 -0.0588413
142.084 20.2461 -0.171392
153.52 28.421 -0.622608
153.895 28.9371 -0.642464
153.583 28.9715 -0.634299
89.5857 26.4899 0.403454
33.1702 -16.7385 0.0516373
131.626 -23.2419 0.4982
141.593 -21.9287 0.218393
134.168 -0.421707 0.158994
80.1741 43.1203 -0.450112
146.727 15.5812 -0.875438
146.663 15.7357 -0.87585
146.752 15.8776 -0.882849
103.082 8.86863 0.68215
98.2637 11.7818 0.587636
80.1339 56.1832 -1.35148
80.0801 55.9899 -1.3434
82.0315 48.8488 -1.03518
82.5999 36.7026 -0.533081
131.884 -11.6674 -0.0818645
140.744 12.0377 -0.840609
128.437 -17.6878 0.0621804
129.138 -10.8096 -0.118063
129.161 -10.718 -0.119564
129.178 -10.6265 -0.121039
129.18 -10.5329 -0.12146
132.987 6.41973 -0.574163
132.783 6.45278 -0.565451
132.675 6.52884 -0.56233
132.723 6.6786 -0.56819
132.907 6.89569 -0.582923
133.195 7.36055 -0.609186
133.104 7.44622 -0.607181
132.643 7.8029 -0.594806
100.572 10.7136 0.392602
119.389 -21.325 0.286349
125.807 -16.4304 0.0397315
125.847 -16.3967 0.037414
125.874 -16.3157 0.0369446
125.908 -16.2368 0.0364517
125.938 -16.1562 0.0349716
125.995 -16.0825 0.032407
126.854 -9.76947 -0.170017
126.868 -9.68461 -0.17045
126.892 -9.59905 -0.172925
126.902 -9.55606 -0.173158
126.929 -9.47106 -0.175647
126.922 -9.38522 -0.174995
126.939 -9.2998 -0.176444
130.075 4.77469 -0.600647
130.094 4.90026 -0.605279
61.8333 6.33428 -0.737815
52.6923 -12.2184 -0.967589
121.459 -19.9787 0.059686
128.2 3.53354 -0.627278
128.193 3.63761 -0.630705
128.203 3.75032 -0.634243
123.323 -6.47406 -0.270644
92.5198 15.3974 -0.355086
113.807 -22.5368 0.138212
122.049 -6.28148 -0.291118
122.095 -6.20427 -0.296654
113.101 2.59186 0.0565391
100.318 8.03948 0.134446
92.427 24.2026 -1.15048
111.533 3.02506 0.0112402
104.382 11.2896 -0.313009
104.319 11.3067 -0.312818
118.36 -13.3709 -0.23035
108.261 2.92157 0.0284918
108.223 2.94815 0.0285334
104.191 11.2964 -0.553239
104.159 11.305 -0.554141
94.8463 8.89553 -0.295264
103.78 10.4315 -0.589698
101.981 10.709 -0.581336
101.934 10.8521 -0.594766
115.501 -14.216 -0.201572
110.599 6.05613 -0.58918
107.755 -19.4868 0.117298
100.073 4.97491 -0.151033
110.055 4.32647 -0.617269
110.023 4.37241 -0.619337
109.974 4.39559 -0.617232
109.942 4.44252 -0.619305
109.908 4.48577 -0.621351
109.87 4.5245 -0.622361
109.801 4.56761 -0.621262
100.708 6.91008 -0.479238
100.684 6.92166 -0.480185
108.603 2.55663 -0.598353
108.558 2.57316 -0.596236
108.48 2.50857 -0.581623
102.162 -19.8542 0.0274941
102.207 -19.8939 0.0214801
111.658 -10.6076 -0.335262
102.329 -16.1603 -0.255483
101.301 -16.0421 -0.280667
99.8734 -15.3 -0.181916
102.185 -9.04064 0.363786
102.224 -9.01185 0.347497
150.727 -14.8665 -20.0496
150.775 -14.7088 -20.0635
150.784 -14.5475 -20.0612
150.783 -14.3846 -20.0539
150.822 -14.0629 -20.0585
150.823 -13.9823 -20.0569
150.823 -13.8196 -20.0516
150.829 -13.6578 -20.0483
98.9178 -7.89434 0.774522
98.9852 -7.90295 0.772275
98.9898 -7.92073 0.780334
100.956 -10.3634 0.594796
98.9107 -7.83607 0.713294
98.9219 -7.86386 0.726369
98.914 -7.85569 0.721366
98.8876 -7.82071 0.701323
98.8636 -7.79011 0.684289
98.8131 -7.71846 0.644186
98.811 -7.72623 0.647229
98.8282 -7.76192 0.665314
98.8221 -7.76207 0.663341
98.829 -7.77717 0.671378
98.7458 -7.65757 0.604201
98.8418 -7.91607 0.727937
98.8459 -7.98722 0.756233
101.007 -10.2777 0.583206
100.972 -10.3871 0.542834
100.94 -10.3501 0.565806
100.916 -10.3194 0.583772
2.20542e-39 0 1.37888e-42
