ply
format ascii 1.0
element vertex 411
property float x
property float y
property float z
end_header
149.027 0.365058 2.99116
133.499 9.19121 2.50527
104.556 19.0203 1.94131
99.9603 16.2203 1.84696
98.4285 14.4795 1.80378
98.7589 40.4585 2.28369
98.1781 38.3951 2.24333
98.0064 38.2893 2.24065
77.2251 46.1433 2.50823
79.3364 12.0602 1.85138
69.017 13.2735 2.1192
63.8622 13.5888 2.27316
63.7999 13.04 2.27112
57.073 12.2351 2.48444
52.5183 13.5406 2.64263
51.2098 13.5231 2.68731
44.2578 16.805 2.93571
43.3928 16.0885 2.96396
42.689 16.2732 2.98885
38.9645 16.7374 3.11969
39.3391 13.7318 3.10579
39.3876 13.6187 3.10413
38.5005 13.0721 3.13712
28.9091 16.7001 3.47968
18.9313 15.6496 3.84842
15.2311 13.3424 3.99482
28.21 -9.34314 3.71055
25.5751 -10.1117 3.82424
43.4713 -11.0505 3.1463
49.8348 -13.291 2.94127
48.1288 -14.3877 3.02697
42.623 -16.0496 3.27024
50.2169 -16.0475 2.98086
44.6248 -18.3635 3.24269
31.8569 -21.8494 3.80215
27.2491 -24.862 4.04387
28.1242 -25.2339 4.01975
55.1027 -20.2118 2.89594
53.5868 -23.1604 3.03056
48.2406 -28.013 3.35758
66.8461 -19.8761 2.46749
68.3723 -21.3125 2.46203
72.8435 -20.2183 2.27977
72.8513 -20.3759 2.28593
72.9957 -20.341 2.27973
132.898 -53.0797 3.90232
135.351 -55.2992 4.03325
144.955 -48.2171 3.97721
145.051 -48.0178 3.97296
144.535 -30.2474 3.42046
150.122 -21.4629 3.36241
150.152 -21.2672 3.35853
150.184 -21.0718 3.35565
150.199 -20.873 3.3518
150.224 -20.6766 3.34794
150.264 -19.7783 3.33021
150.518 -19.6266 3.33484
151.244 -19.5634 3.35439
167.268 -21.4583 3.84612
162.288 -20.3472 3.68308
162.817 18.1457 2.77424
161.525 19.6359 2.73979
107.848 25.4637 1.8372
107.902 27.3091 1.85619
99.8371 16.3445 1.67981
98.9 16.1631 1.67195
97.1096 12.9661 1.62536
90.9777 10.2933 1.57779
62.0898 11.722 2.1069
40.7182 16.6891 2.7167
48.3923 -27.737 3.05795
160.652 -33.0009 3.43867
164.593 -32.0021 3.49837
164.848 -31.8203 3.50057
149.598 -21.6295 2.95427
149.639 -21.4374 2.95138
149.661 -21.2416 2.94854
149.678 -21.044 2.9447
151.131 -19.423 2.94494
162.131 -20.1904 3.20261
161.394 20.307 2.36803
120.924 11.3627 1.7697
78.2909 50.6095 1.9276
77.9915 45.949 1.8911
76.3247 45.9196 1.90771
47.7333 -26.038 2.82246
144.995 -30.8883 2.77607
163.257 13.5434 1.8582
163.103 18.2563 1.81218
163.143 18.5325 1.81013
155.981 19.7625 1.73316
160.232 26.6018 1.71783
140.73 21.6298 1.58506
140.731 21.8467 1.58402
97.6292 29.9128 1.3603
97.6363 30.4715 1.36047
78.8515 43.8106 1.46867
75.1057 47.683 1.50305
14.331 -12.0156 2.90098
151.732 -31.1946 2.38319
154.36 -22.1757 2.2444
154.515 -21.9927 2.24209
165.827 -22.8188 2.36903
163.151 18.4295 1.40749
163.204 18.7108 1.4053
122.231 12.1197 1.29366
117.491 53.1486 1.0304
117.363 53.3739 1.02988
120.466 60.5435 0.99258
79.4043 46.3915 1.18591
74.0103 52.5014 1.19916
27.7313 15.437 1.97693
120.34 -23.2594 1.75969
120.39 -23.1605 1.75806
134.992 -28.7768 1.92168
141.452 -29.7464 1.96746
155.57 28.4102 0.747406
120.97 11.2262 1.03629
120.613 11.1519 1.03809
97.1491 25.9322 0.939157
97.9769 29.7119 0.89434
79.0468 44.2501 0.829508
70.5393 68.5324 0.613458
75.8977 45.286 0.836532
75.7617 45.1196 0.838523
77.9133 35.7354 0.928907
25.3051 -28.7005 2.15578
25.8766 -28.7307 2.15239
120.145 -23.3564 1.51597
120.101 -23.2118 1.51317
149.246 -20.8925 1.42254
149.262 -20.6968 1.41974
149.273 -20.4994 1.41693
149.266 -20.3994 1.41556
149.302 -20.0095 1.40995
149.271 -19.8052 1.40725
162.068 -20.1109 1.38761
150.653 4.37872 0.769917
154.242 21.0962 0.505967
158.147 26.2579 0.405733
155.987 26.1232 0.421231
95.4149 16.9984 0.923343
95.3652 16.9682 0.92401
97.0971 25.911 0.776691
97.8786 29.798 0.712602
73.9747 52.3161 0.479845
77.9455 35.5903 0.71975
20.9967 -18.2011 1.7134
116.421 -26.0547 1.40892
119.17 -26.3941 1.39614
120.932 -23.0723 1.34112
146.665 -30.2699 1.27407
153.061 -31.2586 1.24643
149.115 -21.3415 1.13843
149.03 -21.0243 1.13442
148.988 -20.8163 1.13172
149.031 -20.6276 1.12888
149.018 -20.4268 1.12614
149.047 -20.235 1.12331
149.079 -20.0435 1.12049
166.562 -6.72883 0.329672
167.862 0.777684 0.204518
125.719 7.52108 0.629607
106.856 11.013 0.784615
76.1353 44.3666 0.25313
77.9749 35.5406 0.438269
104.066 -24.269 1.31772
120.165 -23.265 1.12556
158.83 -31.8364 0.747081
158.96 -31.6349 0.743626
164.215 -30.0318 0.65942
163.945 -28.0367 0.638903
164.377 -27.8985 0.63185
149.279 -21.6334 0.746649
149.884 -21.3685 0.735975
149.558 -21.1956 0.737165
149.449 -19.875 0.722272
136.513 -0.469581 0.326026
96.2055 15.163 0.647039
94.8234 14.9637 0.664615
97.2859 26.0039 0.339418
97.2046 26.1276 0.337091
76.7346 43.845 -0.0625717
102.831 -20.4122 1.18096
142.171 -29.3038 0.569603
143.062 -28.7748 0.548836
137.708 -26.5217 0.625724
144.615 -27.3798 0.508732
136.783 -24.2833 0.621033
146.49 -24.239 0.443681
150.039 -22.371 0.358163
151.381 -21.3449 0.322242
149.097 -20.7483 0.35815
149.233 -20.579 0.354116
151.425 -20.0189 0.306521
156.384 -17.383 0.183354
142.174 -15.0491 0.0466168
142.256 -14.8892 0.0429798
142.283 -14.7213 0.0405045
142.268 -14.5485 0.0391652
142.192 -14.4537 0.0392182
142.211 -14.2847 0.037766
142.319 -14.1275 0.0330393
142.305 -12.6781 0.0158807
142.372 -12.5139 0.0122609
142.322 -11.4078 7.04098e-05
145.331 -4.22584 -0.177956
145.191 -4.05638 -0.176635
102.334 10.3804 0.545641
98.9144 8.27438 0.668852
97.5422 11.9291 0.570587
96.4653 13.9158 0.518152
96.2591 13.5545 0.533209
80.8393 43.5797 -0.425084
80.6192 43.9342 -0.436951
81.8519 35.1562 -0.135486
80.2981 26.149 0.176875
102.871 -20.3825 1.04733
131.799 -26.6608 0.404684
140.136 -22.0271 0.166017
149.365 -19.8707 -0.0864603
142.317 -15.5848 0.0493864
142.247 -15.403 0.0491944
137.017 -8.42753 -0.148456
137.138 -8.27728 -0.155151
137.25 -8.20236 -0.158746
138.552 -6.57177 -0.222904
138.622 -6.41314 -0.227463
138.711 -6.25324 -0.232134
138.797 -6.17154 -0.235695
139.771 -5.01737 -0.283597
139.857 -4.93269 -0.287201
139.488 5.62915 -0.466789
95.1229 14.534 0.394109
81.7642 39.8533 -0.543645
81.3759 28.5157 -0.0934782
81.2281 28.6549 -0.0996951
80.3503 25.9168 0.00783988
127.401 -24.6332 0.282993
134.735 -15.7772 0.00633729
132.458 3.32459 -0.475079
132.435 3.46529 -0.476927
115.666 8.15873 -0.0169449
96.5705 14.106 0.253952
127.178 -16.4112 0.00732653
127.246 -16.2986 0.00442361
128.573 -0.704586 -0.516763
128.616 -0.56731 -0.520889
128.666 -0.429057 -0.526065
128.696 -0.294041 -0.530099
128.655 -0.171001 -0.530614
128.765 -0.0856661 -0.537342
129.441 0.841336 -0.58661
129.528 0.926829 -0.592231
129.455 1.04536 -0.591526
129.907 2.16323 -0.635349
129.95 2.31053 -0.640618
129.934 2.44316 -0.643388
129.956 2.58637 -0.647498
105.347 2.52203 0.360473
105.279 11.014 0.0322688
105.215 11.0605 0.0319344
115.514 -23.924 0.22352
121.547 -9.5088 -0.262342
121.515 -9.40314 -0.261658
121.549 -9.30205 -0.264239
121.552 -9.1984 -0.265699
121.557 -9.09503 -0.267164
121.557 -8.99209 -0.268604
121.563 -8.94047 -0.269355
121.565 -8.83668 -0.270812
106.964 3.4334 0.141781
106.769 3.62802 0.143026
99.5262 10.5606 0.0858781
81.3165 62.6541 -2.75485
82.6146 48.5482 -1.93431
18.6014 -10.3974 -1.40007
113.307 -21.27 0.155325
118.268 -16.186 -0.058028
118.279 -16.0896 -0.0584269
118.264 -15.9845 -0.0578231
118.273 -15.8867 -0.0582307
118.276 -15.8377 -0.0589301
118.29 -15.7417 -0.0603374
118.304 -15.6456 -0.0607449
118.631 -15.2319 -0.0771266
118.764 -15.2157 -0.0840097
118.862 -15.1398 -0.0885494
118.654 -11.9254 -0.270402
118.625 -11.8728 -0.268994
118.622 -11.7763 -0.269324
118.611 -11.6799 -0.269618
118.62 -11.5851 -0.270982
118.563 -11.482 -0.268141
118.588 -11.3906 -0.27054
118.631 -11.2999 -0.273019
118.677 -11.2579 -0.275828
118.713 -11.1662 -0.279287
118.744 -11.0747 -0.281718
118.735 -10.9784 -0.282015
118.549 -10.0587 -0.279935
118.538 -9.96328 -0.280215
118.546 -9.9169 -0.280899
118.552 -9.82286 -0.282243
118.557 -9.72953 -0.283566
118.549 -9.63451 -0.284855
119.947 -3.86297 -0.450282
119.953 -3.76287 -0.45271
119.966 -3.66065 -0.455198
119.99 -3.55816 -0.45875
120.046 -3.5005 -0.462829
120.083 -3.39478 -0.467488
111.103 9.27231 -0.420102
99.6057 10.5818 -0.0398213
88.8587 13.8918 -0.0481879
81.4785 62.8137 -3.17092
110.783 -20.7696 0.122743
110.927 -20.8084 0.114577
118.719 -12.561 -0.269851
118.717 -12.5122 -0.269521
118.73 -12.4182 -0.2709
118.701 -12.317 -0.270168
118.678 -12.2168 -0.269454
118.675 -12.1203 -0.269784
118.637 -12.0189 -0.268012
116.919 -3.63788 -0.470543
116.943 -3.5443 -0.473965
116.962 -3.45015 -0.477375
89.7935 15.4478 -0.300522
82.6871 35.194 -1.68129
29.3031 9.49717 -2.10736
28.5716 9.50413 -2.14387
107.143 -22.8988 0.106343
107.157 -22.8129 0.107075
107.184 -22.7389 0.107911
109.333 9.79305 -0.681698
105.284 6.5401 -0.295363
102.98 8.47857 -0.294088
89.7445 15.5599 -0.432861
82.8904 37.2395 -2.06587
101.6 7.13628 -0.28657
83.0331 36.2065 -2.29518
100.94 4.83151 -0.190157
100.858 4.78678 -0.182128
101.066 -21.5732 0.0977136
93.3509 10.7758 -0.473833
93.3012 10.8233 -0.476252
93.6533 -22.768 0.24684
92.0152 9.97458 -0.473087
79.8944 40.246 -3.48426
81.086 35.9807 -3.86964
103.535 -14.7799 -0.356265
81.9569 37.724 -4.3643
81.3606 37.0546 -4.56805
81.8065 30.8977 -3.76424
93.6256 -18.638 0.0563224
81.7538 30.7729 -3.97326
80.3569 18.3266 -2.34554
75.1539 5.9752 -1.15348
75.1052 5.9387 -1.15373
81.8819 30.9533 -4.19743
75.3762 5.40367 -1.1736
102.198 -9.99056 -0.452534
101.006 -7.47492 -0.474786
101.006 -7.43645 -0.47532
89.1948 -18.7829 -0.217906
99.3098 -7.69027 -0.478442
99.3086 -7.65676 -0.478903
99.3224 -7.62342 -0.481437
96.7055 -11.8723 -0.325268
90.0152 -14.4503 -0.450423
85.2291 -11.9525 -0.539763
91.2397 -7.56994 0.213621
149.907 -14.9124 -24.436
149.92 -14.7182 -24.4348
149.95 -14.5266 -24.4416
149.951 -14.4297 -24.4389
149.959 -14.2349 -24.4367
149.977 -14.0424 -24.4395
150.006 -13.8507 -24.4463
87.8171 -6.1634 0.510849
87.7462 -6.10733 0.475411
87.7516 -6.12616 0.483649
87.7354 -6.11186 0.474527
87.9644 -6.43548 0.614933
87.9632 -6.43633 0.614951
88.0136 -6.40846 0.595312
88.0283 -6.45469 0.616887
119.707 -11.3002 -13.1047
119.703 -11.2015 -13.0991
119.705 -11.1027 -13.0965
119.695 -11.0032 -13.0888
119.687 -10.903 -13.0821
87.9773 -6.4147 0.573575
87.8794 -6.24949 0.483741
87.9672 -6.40728 0.568521
87.963 -6.40871 0.567561
87.9275 -6.35959 0.540047
87.9 -6.32565 0.519707
87.856 -6.26531 0.485077
87.8723 -6.29972 0.502479
87.8679 -6.30212 0.502534
87.8772 -6.32249 0.512774
87.8638 -6.30959 0.504659
87.7159 -6.09124 0.381326
87.9193 -6.51011 0.598194
87.848 -6.47816 0.567096
89.9984 -8.91605 0.423529
90.0001 -8.91122 0.424454
89.9388 -8.84629 0.465854
-20.6986 -13.5235 1.15033e-41
