ply
format ascii 1.0
element vertex 422
property float x
property float y
property float z
end_header
154.555 34.1057 3.45529
154.327 34.0891 3.44964
121.212 12.4377 2.34587
104.992 16.931 2.08282
104.887 16.9113 2.08109
104.788 16.905 2.07924
104.705 16.9298 2.07907
104.613 16.9396 2.07805
104.569 16.9468 2.07702
80.5518 20.9354 2.20532
78.1216 11.9562 2.07058
73.8278 10.0606 2.14218
66.0689 13.7794 2.3934
65.9639 13.7225 2.39603
52.5324 13.9654 2.78901
45.9679 13.5275 2.99069
48.048 -13.1789 3.01941
48.128 -13.3143 3.01863
18.9406 -17.6368 4.08119
19.4291 -17.8115 4.06744
40.9709 -19.2674 3.35215
31.3054 -21.9086 3.72335
123.577 -40.6807 3.17307
123.706 -40.615 3.17333
132.637 -48.7011 3.64961
144.469 -48.0693 3.91769
157.149 -21.4077 3.666
157.162 -21.3066 3.66403
157.157 -21.0969 3.66104
157.193 -20.896 3.6591
157.209 -20.6902 3.65614
157.242 -20.4888 3.6542
157.269 -20.2856 3.65125
157.288 -20.0823 3.6493
173.329 -6.40878 3.50506
172.976 -5.79194 3.4905
169.213 16.8712 3.28555
162.769 17.552 3.12349
152.519 17.3003 2.87047
158.078 20.1868 3.01042
142.159 21.7074 2.64033
140.894 24.1093 2.62559
121.401 12.4172 2.12989
121.323 12.4958 2.12821
106.175 21.2962 1.98639
106.073 21.3146 1.9863
105.958 21.3004 1.98453
94.9243 23.5147 1.96377
93.9601 22.7813 1.95054
93.9467 36.5869 2.19954
78.4182 45.7776 2.43335
16.1731 -18.6228 3.69586
149.285 -30.8268 3.21597
169.076 17.1604 2.90591
162.285 21.3305 2.76102
141.624 24.3165 2.368
141.406 24.3894 2.36449
112.569 8.94957 1.8002
93.3634 38.8724 2.01833
78.3267 47.328 2.1887
19.2966 -17.9169 3.24752
155.318 -20.7665 2.89741
155.316 -20.5643 2.8945
155.352 -20.3695 2.89262
156.13 -3.73674 2.25307
163.306 17.6407 2.22116
167.395 21.1556 2.26137
141.098 21.3777 1.92431
110.226 35.4869 1.67529
110.043 35.4197 1.67409
116.003 57.1266 1.80507
115.622 58.0405 1.80772
77.0999 33.3758 1.69013
147.686 -30.5695 2.45084
149.87 -30.8461 2.48363
152.211 -31.2488 2.52049
168.738 -33.4201 2.77524
169.216 -33.3154 2.78085
161.642 -22.5262 2.52979
161.71 -22.0936 2.52563
165.383 -20.4956 2.55838
167.754 -20.6581 2.59394
141.192 23.241 1.63054
121.308 11.8639 1.52419
117.353 57.0704 1.45446
108.534 44.8466 1.43287
108.367 44.8903 1.4316
108.205 44.9583 1.43209
98.3842 12.9431 1.40618
104.96 45.9677 1.42723
92.8522 39.1564 1.42103
77.0435 33.3401 1.4615
24.0703 19.0011 1.94306
168.72 -33.5194 2.37018
167.965 -20.6721 2.20988
162.996 13.3225 1.35736
120.652 5.70823 1.33116
158.459 27.5708 1.22993
147.437 29.1532 1.19716
121.154 12.2811 1.28135
107.156 45.2602 1.04508
106.738 45.3785 1.04431
106.573 45.4339 1.04392
76.7863 34.6445 1.14232
77.1549 33.2983 1.15079
168.901 -33.533 1.81813
157.284 -20.7219 1.66029
167.659 -20.696 1.68333
163.136 17.81 0.968638
165.62 24.5934 0.894169
140.613 22.1919 0.973949
149.484 28.1736 0.893729
140.487 23.707 0.958674
145.44 28.2852 0.901063
107.164 45.3515 0.784198
106.992 45.3798 0.784075
106.664 45.5024 0.783185
106.582 45.5312 0.782982
93.0953 38.9222 0.869028
92.8574 48.1793 0.767363
76.8235 33.7497 0.934776
106.088 -21.1475 1.47327
123.551 -23.4447 1.45642
168.791 -33.4535 1.44246
154.982 -20.9563 1.36143
154.99 -20.7565 1.35953
155.021 -20.561 1.35764
155.022 -20.4601 1.35669
155.033 -20.2617 1.35479
164.754 -5.55928 0.741067
165.147 -5.31844 0.735452
170.298 1.22097 0.62406
163.741 13.1537 0.547304
164.386 24.4871 0.402192
155.521 26.1698 0.450662
155.458 26.3906 0.447619
107.18 45.2682 0.43396
107.014 45.3187 0.433619
77.4427 35.637 0.617329
77.0311 33.2705 0.657136
154.432 -21.2961 0.970096
154.442 -21.0975 0.968204
154.459 -20.9009 0.966324
154.499 -20.5088 0.963568
154.531 -20.3164 0.961715
154.566 -20.2233 0.959802
172.951 -7.79924 0.202425
170.905 -7.56967 0.230964
169.238 -6.87024 0.248725
153.55 -4.42423 0.456683
149.34 -3.37004 0.508212
149.166 -3.20925 0.508833
159.072 1.573 0.309123
125.128 5.6033 0.745373
153.861 -26.8046 0.627842
160.474 -27.1096 0.535184
158.936 -26.3465 0.552232
159.076 -25.7209 0.547177
122.287 -14.4398 1.009
154.249 -21.0084 0.587503
154.192 -20.8964 0.587488
154.181 -20.6949 0.586585
154.246 -20.5092 0.583767
155.771 -19.6973 0.55678
152.739 -15.9496 0.156738
153.006 -15.6035 0.149227
153.017 -15.5102 0.148332
153.367 -14.9796 0.137003
153.217 -14.7727 0.138166
153.27 -14.5874 0.135361
153.389 -14.4102 0.13158
153.35 -14.2159 0.131769
153.284 -14.1137 0.131854
153.342 -13.93 0.129062
153.27 -13.7331 0.129253
152.752 -12.4658 0.13066
152.633 -12.2703 0.131905
120.979 6.13086 0.57584
142.532 17.5686 -0.062829
142.538 17.7697 -0.0667427
120.564 6.24256 0.582128
94.5498 39.822 -0.0777759
76.902 33.9826 0.0494587
77.1093 33.257 0.0721727
140.257 -24.0627 0.462225
138.948 -23.3033 0.487117
143.4 -23.3043 0.394387
143.668 -15.1501 0.0877571
143.739 -14.2755 0.0803965
144.184 -13.4404 0.0630959
144.069 -13.2677 0.0655536
144.152 -13.1148 0.0620323
144.178 -12.0723 0.0531163
144.257 -11.9179 0.0505835
144.342 -11.7631 0.0470437
144.274 -11.6778 0.0482915
148.371 -5.2891 -0.122789
148.18 -4.86756 -0.12163
148.063 -4.70267 -0.120097
147.972 -4.53644 -0.119598
147.804 -4.37647 -0.116975
147.696 -4.21283 -0.116437
160.315 15.4272 -0.744457
159.948 15.5322 -0.737146
158.55 17.6054 -0.74065
158.676 17.8938 -0.749492
98.1128 8.60653 0.766538
95.8221 41.5926 -0.389662
78.4339 32.837 -0.130962
18.6004 14.6925 -0.807579
138.067 -9.52828 -0.0679074
138.241 -9.39213 -0.0753456
138.324 -9.25334 -0.0787327
138.391 -9.18404 -0.082447
138.469 -9.04358 -0.085846
138.581 -8.90375 -0.091267
138.669 -8.76269 -0.0946801
138.844 -8.62158 -0.102166
138.955 -8.47863 -0.106616
139.089 -8.33593 -0.113083
139.195 -8.26398 -0.116855
139.34 -8.11983 -0.123345
139.464 -7.9746 -0.128828
139.555 -7.82888 -0.133287
139.669 -7.68238 -0.137774
139.773 -7.53536 -0.143256
139.911 -7.38726 -0.148779
140.082 -7.31023 -0.155653
140.219 -7.16086 -0.161186
140.317 -7.01103 -0.16669
140.38 -6.86141 -0.170164
140.471 -6.71059 -0.174672
140.542 -6.5601 -0.17816
140.628 -6.4076 -0.18268
140.801 -6.32688 -0.189591
140.901 -6.17322 -0.194133
140.999 -6.01843 -0.199685
141.108 -5.86305 -0.204251
141.29 -5.70283 -0.211925
141.432 -5.54412 -0.218551
141.522 -5.38709 -0.223117
141.624 -5.22876 -0.228706
141.762 -5.14417 -0.234625
151.706 14.5153 -0.881585
119.789 4.98617 0.293689
122.4 10.6739 0.0745062
72.4585 11.4799 0.296771
133.948 -19.9106 0.114096
134.319 -18.5006 0.100401
134.611 -18.1619 0.0909414
134.99 -18.1142 0.07817
134.721 -17.8451 0.0858425
134.817 -17.7304 0.0826726
134.882 -17.6082 0.0804585
137.081 7.04208 -0.580372
137.162 7.14775 -0.585443
137.273 7.34313 -0.593391
137.284 7.50222 -0.59791
137.426 7.70941 -0.607996
137.446 7.87418 -0.612577
137.508 8.44995 -0.628095
137.485 8.59964 -0.630496
137.758 8.8651 -0.646246
101.921 10.9884 0.384719
35.5891 7.77128 -1.02815
104.315 -24.3026 0.783675
106.426 -21.2409 0.791845
127.284 -20.6337 0.0855487
127.439 -13.0817 -0.125266
127.46 -12.9746 -0.126301
127.755 -12.6313 -0.140807
127.794 -12.5269 -0.143832
127.802 -12.4178 -0.143873
127.774 -12.3049 -0.142921
127.741 -12.2467 -0.142446
127.755 -12.1386 -0.143484
127.731 -12.0262 -0.14253
127.742 -11.9187 -0.14356
127.738 -11.809 -0.143597
127.785 -11.7045 -0.146628
127.821 -11.5985 -0.148665
127.848 -11.5468 -0.150178
127.973 -11.1212 -0.158324
130.429 -4.84676 -0.330943
130.486 -4.72446 -0.335151
130.638 -4.59136 -0.344542
131.529 -3.22836 -0.404229
131.592 -3.15949 -0.407936
131.655 -3.02799 -0.413237
131.688 -2.90136 -0.416466
131.761 -2.76729 -0.421801
131.894 -2.62545 -0.430259
116.178 1.20365 0.179614
30.3902 -10.7077 -1.34042
31.1802 -11.9511 -1.29728
117.154 -24.2742 0.245607
123.132 -20.2822 0.0496946
123.168 -20.1882 0.0487727
123.13 -20.0637 0.051623
123.088 -19.9396 0.0544807
123.063 -19.822 0.0563854
123.089 -19.7258 0.0554497
123.088 -19.6176 0.0564236
123.115 -19.5749 0.0549963
123.135 -19.4757 0.055038
123.161 -19.3784 0.0540923
123.834 -18.8196 0.0292234
127.335 -14.1042 -0.117475
127.353 -13.9976 -0.118501
127.357 -13.8892 -0.119534
127.36 -13.7796 -0.119577
127.356 -13.6698 -0.119615
127.342 -13.6124 -0.119148
127.339 -13.5028 -0.119185
127.379 -13.4005 -0.121191
127.402 -13.2947 -0.123214
127.414 -13.1873 -0.124244
125.97 -5.57846 -0.308255
129.577 2.90389 -0.651804
129.538 3.0165 -0.652839
114.367 1.49036 0.11441
106.487 -21.3738 0.571045
113.313 -24.2709 0.239799
122.016 -8.7408 -0.251922
121.992 -8.65049 -0.251758
121.991 -8.56055 -0.252611
121.981 -8.47034 -0.25246
122.023 -7.48063 -0.264889
122.946 -5.44978 -0.344941
122.996 -5.35083 -0.348923
123.03 -5.30098 -0.351424
123.845 -2.72898 -0.442523
123.885 -2.67206 -0.446097
123.947 -2.46167 -0.454146
110.641 3.33125 0.0850624
95.2793 14.2637 -0.109816
117.256 0.502763 -0.29166
115.712 8.19082 -0.506342
113.102 6.69656 -0.304961
101.762 10.8899 -0.0982346
96.2611 8.80063 0.149221
96.2064 8.79922 0.149281
88.4034 12.4323 -0.125667
49.07 6.82071 -1.61647
59.436 7.4447 -1.49409
59.3515 7.35353 -1.49615
105.075 11.0676 -0.624725
98.2664 9.72 -0.288207
109.336 2.77433 -0.403579
109.349 2.85733 -0.409378
109.309 2.90432 -0.40979
105.127 8.9792 -0.709952
102.338 8.42791 -0.52637
102.283 8.45266 -0.52656
99.1689 5.03708 -0.0835093
99.6212 11.0128 -0.669631
91.6972 9.42699 -0.41892
78.6325 11.8511 -1.09
101.374 -22.0525 0.0467526
101.394 -21.9876 0.0511202
101.493 -21.7165 0.0644653
101.527 -21.6789 0.0660796
74.6568 5.76304 -1.17888
98.2064 -21.4539 0.0427291
94.5198 -4.34448 0.888476
99.5084 -20.4502 -0.0978954
99.5201 -20.4246 -0.0961485
103.981 -18.0308 -0.216616
94.0975 -20.9575 -0.052539
90.3299 -20.368 -0.0909742
96.2244 -18.7799 0.0160125
97.1749 1.9832 -0.819885
97.1425 1.99682 -0.820988
97.1078 2.0017 -0.819005
97.0715 2.00177 -0.816975
97.0388 2.01342 -0.817058
95.8284 0.612972 -0.487736
99.4541 -15.2999 -0.341743
95.9417 0.613531 -0.772849
95.9189 -8.20312 0.274896
95.9445 -8.17854 0.264641
95.9486 -8.14984 0.262365
150.375 -14.5936 -22.3642
150.399 -14.1434 -22.3595
150.432 -13.9654 -22.3672
150.446 -13.7866 -22.3679
92.1513 -9.65037 0.561806
120.331 -14.2085 -10.2901
120.361 -14.126 -10.2969
120.481 -13.8856 -10.3273
92.6242 -7.04073 0.656646
92.6807 -7.01952 0.640397
92.7141 -7.09052 0.676044
92.705 -7.08324 0.670982
92.4931 -6.76656 0.478146
92.6452 -7.02788 0.618505
92.6482 -7.04238 0.62564
92.6267 -7.01529 0.6094
92.5985 -6.97922 0.588081
92.5718 -6.94638 0.56879
92.531 -6.88444 0.534235
92.5438 -6.91538 0.549519
92.5369 -6.91442 0.548515
92.5466 -6.93889 0.55974
92.5414 -6.94019 0.558757
92.425 -6.76928 0.463228
92.577 -7.11106 0.635352
92.5361 -7.12156 0.628486
94.7081 -9.47725 0.502015
120.082 -11.4642 -11.2289
120.094 -11.3811 -11.2317
129.442 -2.25211 -15.8564
129.467 -2.19012 -15.8741
129.47 -2.07256 -15.8862
129.475 -1.95429 -15.8993
129.497 -1.83338 -15.9205
94.6957 -9.55161 0.46473
94.6886 -9.53742 0.471601
125.671 -20.5689 -14.6994
125.694 -20.4608 -14.6934
125.774 -20.3754 -14.7153
125.991 -20.3401 -14.8058
