ply
format ascii 1.0
element vertex 484
property float x
property float y
property float z
end_header
180.001 -6.76898 3.78911
154.702 -4.10801 3.05547
172.253 14.9062 3.64085
150.826 21.1879 3.15803
149.486 20.5776 3.11608
154.429 23.9718 3.28636
141.348 18.7377 2.896
140.661 18.9134 2.88283
105.377 49.5394 3.31901
99.3849 37.8615 2.97871
98.2877 13.2488 2.2222
98.2427 13.0279 2.215
98.0432 13.1931 2.22252
95.8711 16.2606 2.33882
95.2649 12.3103 2.2262
95.1717 12.3854 2.23044
89.3276 30.0041 2.8388
89.1871 30.0244 2.84143
88.9542 30.1257 2.84727
89.8997 25.8314 2.70612
89.7639 25.8773 2.70965
89.6447 25.8702 2.71124
90.2284 22.8427 2.61346
90.0169 23.1348 2.6247
80.954 45.6625 3.4295
79.9749 46.705 3.47544
79.8823 45.1249 3.43107
76.8322 45.6909 3.50121
76.59 45.7703 3.50816
80.2321 18.9418 2.70977
79.3577 12.577 2.58584
76.4203 12.4034 2.6684
76.3505 12.3963 2.67075
75.881 12.6711 2.69027
74.774 10.1078 2.67738
67.8659 11.3384 2.92328
67.807 11.2307 2.92385
67.9756 11.0549 2.9155
67.8824 10.9693 2.91718
55.0921 15.3469 3.41597
43.3961 16.0264 3.8363
42.0054 16.1966 3.88853
47.2716 13.8215 3.67355
40.2263 14.7305 3.93695
40.1219 13.5645 3.93054
39.3279 12.9829 3.9539
39.0116 12.3303 3.96014
28.1194 13.9669 4.37509
28.1407 13.7082 4.37167
25.8591 14.0403 4.45874
24.5136 -8.23769 4.45024
27.8268 -10.0057 4.32703
27.5135 -10.7011 4.34137
45.8051 -12.9482 3.64453
52.9152 -12.8532 3.37015
51.4785 -14.7626 3.43611
47.1054 -15.5059 3.60907
47.1071 -15.6769 3.61052
44.0281 -17.9557 3.74433
42.8001 -24.8254 3.85744
61.7569 -32.3954 3.28951
65.621 -41.4519 3.37197
77.4979 -38.008 2.94384
65.4687 -54.9156 3.74739
65.6617 -55.5607 3.76117
148.975 -31.1395 3.1126
165.821 -22.3783 3.46253
165.841 -22.1712 3.46089
165.88 -21.9666 3.46016
165.921 -21.7624 3.45942
165.89 -21.6508 3.45727
165.96 -21.4527 3.45741
165.997 -21.249 3.45669
166.019 -21.041 3.45604
166.052 -20.8365 3.45534
166.152 -20.6429 3.45634
168.225 -3.30969 3.01745
167.059 16.456 3.06466
164.319 18.4198 3.02361
153.302 17.7454 2.79726
100.56 35.1995 2.60713
99.0557 16.3649 2.14926
79.5228 45.2139 3.06855
43.8686 -17.9157 3.38399
31.8032 -21.4052 3.79415
148.904 -31.1687 2.77701
156.624 -34.0627 2.97363
152.772 -32.1532 2.86906
165.319 -22.5722 3.03345
165.394 -22.3768 3.03357
165.418 -22.1712 3.03191
165.439 -21.9651 3.03127
165.488 -21.764 3.0305
165.498 -21.5553 3.0289
165.529 -21.4568 3.02848
165.543 -21.2486 3.02787
165.572 -21.0447 3.02618
165.593 -20.8385 3.02554
165.608 -20.6315 3.02392
170.157 20.0086 2.80237
164.111 26.7284 2.75758
142.843 19.6491 2.3824
102.282 46.7623 2.62222
98.8586 17.475 2.05126
98.7783 16.4277 2.03042
170.109 -23.3934 2.81363
176.164 12.3781 2.27176
166.873 21.1749 2.20803
159.982 27.3458 2.17675
159.594 28.7858 2.18079
147.842 35.25 2.14106
147.314 35.3068 2.13745
121.513 11.4656 1.79045
105.487 45.8029 2.17337
100.519 38.4358 2.10174
44.6053 -17.7313 2.65895
28.6438 -22.0963 2.99813
127.798 -24.5023 1.88062
176.694 -34.4865 2.41742
170.148 -23.3282 2.27926
172.195 26.1426 1.86732
147.271 35.707 1.81059
147.296 36.0156 1.81165
172.415 -34.0381 1.98576
164.233 26.4403 1.32973
148.825 35.2815 1.35725
101.754 39.0904 1.51906
101.453 39.3631 1.52079
101.301 39.4639 1.52225
32.4598 -17.8613 2.06758
128.215 -24.3687 1.50626
128.322 -24.3164 1.50561
164.891 -22.6159 1.43359
165.04 -21.8079 1.43074
165.056 -21.602 1.43012
165.093 -21.4002 1.4294
165.117 -21.3007 1.42902
165.148 -21.0981 1.42834
165.168 -20.8928 1.4277
165.241 -20.6983 1.42683
178.697 -7.39465 0.999989
178.908 -7.26749 0.998638
172.024 25.3286 0.943285
122.199 5.85176 1.31603
147.414 36.6709 1.05233
112.529 9.02654 1.36103
108.55 10.274 1.37782
101.14 39.3418 1.29334
97.5491 15.0751 1.41189
89.9832 26.4647 1.39902
26.6687 15.8037 1.66714
164.76 -22.3525 1.12652
164.708 -21.9247 1.12564
164.736 -21.7226 1.12497
164.748 -21.5173 1.12436
164.78 -21.3158 1.12368
164.832 -21.1172 1.1229
164.872 -21.0209 1.12245
164.936 -20.825 1.12163
165.157 -20.6568 1.11912
165.711 -20.5447 1.11617
168.53 -16.2211 0.656169
168.488 -15.039 0.654237
180.696 -8.7998 0.485112
178.242 -8.45026 0.51496
173.474 -0.597705 0.551034
172.461 26.155 0.431989
162.112 24.9612 0.560821
161.462 34.8185 0.499814
147.499 36.9734 0.634117
99.0425 35.2432 1.03727
98.9529 34.1306 1.04965
159.568 -31.3421 0.781258
159.89 -31.2522 0.777474
165.2 -30.0635 0.71184
165.035 -22.3582 0.709208
165.557 -22.3597 0.702706
164.45 -21.5131 0.715778
164.448 -21.3057 0.715235
165.877 -21.1549 0.696982
165.286 -20.7333 0.7047
165.364 -20.5385 0.702807
153.813 -0.793914 0.470909
157.455 33.4963 0.119545
147.286 33.8921 0.272302
117.324 6.04426 1.06392
106.56 10.8709 1.12378
100.91 34.9681 0.760029
100.771 34.7335 0.764317
145.184 -29.9064 0.655484
145.407 -29.8405 0.65224
145.492 -29.7103 0.651485
145.777 -29.6705 0.646014
146.473 -29.5567 0.63437
146.697 -29.4839 0.630104
146.635 -29.2861 0.631874
147.365 -29.2579 0.619299
147.902 -29.0534 0.610181
148.075 -28.952 0.608081
147.748 -27.9583 0.616015
149.456 -24.8511 0.591584
151.397 -25.1228 0.555989
153.711 -25.213 0.514118
150.531 -23.5785 0.57405
154.839 -23.8136 0.494995
154.972 -23.667 0.492972
151.028 3.31832 0.140373
155.162 30.4912 -0.278493
149.698 27.556 -0.116488
149.391 27.5639 -0.110036
149.298 27.733 -0.110033
81.0383 48.5209 0.157471
78.1819 43.967 0.251251
139.721 -23.8711 0.480703
150.814 -7.69544 -0.0484121
150.923 -7.53535 -0.0523593
142.91 4.80822 0.103383
145.027 17.0064 -0.123107
149.172 26.859 -0.40212
114.124 8.55446 0.807618
145.3 16.575 -0.428279
101.873 10.2451 0.813935
81.3359 47.9212 -0.497378
78.195 43.6852 -0.380075
128.327 -22.4829 0.42671
138.918 -16.9005 0.0950794
136.474 -9.60274 -0.0435363
136.583 -9.49116 -0.0483552
136.703 -9.43574 -0.0540786
136.84 -9.32307 -0.0600321
136.937 -9.20978 -0.0647987
137.04 -9.09636 -0.0695947
137.106 -8.9826 -0.0722125
137.164 -8.8677 -0.0757952
137.699 -8.22552 -0.101065
137.777 -8.10754 -0.104755
137.893 -7.98777 -0.110626
137.977 -7.86852 -0.114344
138.062 -7.80612 -0.117921
138.135 -7.6863 -0.121588
138.215 -7.56549 -0.126293
138.294 -7.44454 -0.129993
138.39 -7.32092 -0.134779
138.49 -7.19703 -0.139591
138.596 -7.07286 -0.144428
138.722 -7.00614 -0.150208
139.26 -6.18662 -0.177964
139.353 -6.05748 -0.182749
139.477 -5.92486 -0.188697
139.578 -5.79291 -0.194531
139.702 -5.65929 -0.200482
139.783 -5.52858 -0.205219
148.062 11.7738 -0.775814
148.072 11.9563 -0.779346
148.924 14.9349 -0.871332
148.619 15.0637 -0.861211
148.448 15.1652 -0.856658
148.344 15.3003 -0.855518
148.194 15.4108 -0.852092
147.731 15.8282 -0.842975
147.672 15.9853 -0.844108
147.603 16.1376 -0.84418
147.43 16.2333 -0.839603
147.469 16.445 -0.845349
147.237 16.5076 -0.838405
147.314 16.742 -0.846396
147.288 16.8226 -0.846482
82.1833 43.6357 -0.71909
81.9766 43.6877 -0.722236
82.3422 41.6581 -0.64061
82.7307 39.6403 -0.559126
133.29 -16.716 0.0805976
133.392 -16.6316 0.0768887
134.761 -14.3548 0.0292808
133.719 -8.63213 -0.121887
133.787 -8.57834 -0.125358
133.839 -8.4746 -0.127879
133.919 -8.36893 -0.132543
133.975 -8.26294 -0.136096
134.051 -8.15669 -0.139742
134.139 -8.04919 -0.14445
134.215 -7.94196 -0.149099
134.305 -7.88622 -0.153678
134.404 -7.77619 -0.159444
134.492 -7.6667 -0.164159
134.61 -7.55528 -0.170016
134.695 -7.44438 -0.174721
134.766 -7.33431 -0.179351
134.836 -7.22325 -0.182984
134.915 -7.16495 -0.187518
135.103 -6.93737 -0.19802
135.194 -6.71518 -0.203049
138.286 6.71413 -0.533484
142.107 11.7436 -0.814158
142.09 11.8168 -0.815271
142.082 11.9766 -0.818655
142.04 12.1181 -0.819827
141.922 12.5512 -0.824412
141.88 12.6937 -0.826587
141.923 12.7997 -0.831073
141.89 12.9489 -0.832309
141.964 13.1554 -0.841213
25.1431 -9.37986 -1.51084
128.379 -18.4533 0.101772
131.34 -15.1491 -0.011194
131.323 -15.0466 -0.0103861
131.342 -15.0008 -0.0105973
131.364 -14.906 -0.0119531
131.388 -14.8115 -0.012322
131.406 -14.7161 -0.0126603
131.391 -14.615 -0.0108578
131.406 -14.5181 -0.0111863
131.43 -14.4245 -0.0125476
131.434 -14.3756 -0.0126966
131.45 -14.2799 -0.0130262
131.464 -14.1839 -0.012347
130.439 -8.8475 -0.128574
133.076 3.64919 -0.432355
132.968 3.7233 -0.429036
133.705 4.26364 -0.478003
133.613 4.34564 -0.474777
133.776 5.20903 -0.502852
133.485 5.26415 -0.489601
133.321 5.31316 -0.48194
134.222 6.09947 -0.54635
134.056 6.14863 -0.538685
133.818 6.10115 -0.526416
134.096 6.35899 -0.546436
134.117 6.49642 -0.5509
134.199 6.66346 -0.558735
134.161 6.77395 -0.559847
134.161 6.90334 -0.563188
134.301 7.10227 -0.574391
134.353 7.19185 -0.579874
134.427 7.36088 -0.587681
133.961 7.25743 -0.561168
134.439 8.09465 -0.606683
134.823 8.43027 -0.634414
134.557 8.69691 -0.627846
134.413 8.75508 -0.622308
134.173 8.76035 -0.611171
133.898 8.74545 -0.596813
134.006 8.87244 -0.605664
125.049 8.55511 -0.173829
103.258 7.631 0.582211
108.138 44.9985 -1.43328
126.907 -12.8689 -0.101966
127.368 -11.336 -0.125242
127.398 -11.2545 -0.126602
127.445 -11.2168 -0.129927
127.461 -11.1342 -0.130222
127.487 -11.0521 -0.132565
128.321 -7.96361 -0.189753
128.363 -7.91912 -0.193071
128.387 -7.83076 -0.194425
128.409 -7.74297 -0.196762
128.448 -7.65464 -0.199183
128.488 -7.56546 -0.202612
128.518 -7.47683 -0.204991
128.546 -7.38692 -0.207364
128.583 -7.34172 -0.20966
128.629 -7.25028 -0.213121
128.672 -7.15955 -0.21657
128.715 -7.06882 -0.220018
128.758 -6.97795 -0.223463
128.79 -6.88664 -0.22586
128.842 -6.79408 -0.229353
128.887 -6.74507 -0.232701
128.913 -6.65488 -0.235066
128.939 -6.56356 -0.237429
128.977 -6.47112 -0.240859
128.99 -6.38007 -0.242164
129.025 -6.28805 -0.244573
129.051 -6.19588 -0.246944
129.079 -6.10287 -0.250323
129.132 -6.05189 -0.253711
129.123 -5.96377 -0.253904
129.217 -5.86222 -0.260626
129.327 -5.75886 -0.268428
129.367 -5.66261 -0.271875
129.369 -5.57196 -0.273125
129.397 -5.47696 -0.27551
129.456 -5.42387 -0.279935
129.468 -5.33055 -0.281237
129.518 -5.23177 -0.284742
129.508 -5.14238 -0.285929
129.525 -5.04779 -0.28726
129.566 -4.94971 -0.290718
130.976 5.35267 -0.577793
130.929 5.56442 -0.581132
130.939 5.6873 -0.584504
130.939 5.74584 -0.586661
130.983 5.88606 -0.593241
131.015 6.02078 -0.598754
130.938 6.21986 -0.59991
100.058 10.5211 0.324903
116.007 -24.1231 0.267181
116.025 -24.0954 0.26702
116.073 -24.0488 0.266666
116.157 -24.0376 0.263236
127.962 -3.31551 -0.363354
128.017 -3.21434 -0.367886
116.909 5.53785 0.0302364
124.304 -6.9747 -0.240094
125.602 -2.59064 -0.40095
125.622 -2.50158 -0.404282
125.742 -2.42694 -0.414055
125.741 -2.34294 -0.415272
125.741 -2.25908 -0.417494
125.755 -2.17114 -0.420793
125.778 -2.07954 -0.424148
125.777 -1.99553 -0.425365
125.807 -1.94424 -0.428644
125.83 -1.85264 -0.432998
125.858 -1.75864 -0.43638
126.005 1.0397 -0.519505
126.182 2.48396 -0.575186
126.221 2.59958 -0.581679
126.196 2.68503 -0.582785
126.223 2.79529 -0.588207
126.211 2.98494 -0.593651
103.962 10.8709 0.0232375
102.783 7.51056 0.277807
103.933 10.9364 -0.0817966
103.975 10.9127 -0.214939
112.091 9.0453 -0.454943
111.706 -20.2768 0.148626
112.79 7.27335 -0.480604
108.442 10.078 -0.504172
109.763 -20.6019 0.162814
111.689 8.09642 -0.614501
111.33 8.69753 -0.646376
80.332 8.53539 -1.13218
111.116 6.92718 -0.598654
111.09 6.94206 -0.598568
102.365 7.55217 -0.43531
101.821 10.3191 -0.742036
101.791 10.3345 -0.743933
101.609 10.4295 -0.753309
106.506 -20.6339 0.09453
115.686 -1.51987 -0.552199
112.245 -15.5804 -0.0604135
96.5279 -0.0718507 -0.00608261
95.7427 -17.2177 -0.133874
103.952 -16.3863 -0.233477
102.892 -16.1669 -0.229973
103.643 -14.2582 -0.169631
106.518 -9.21652 -0.399798
103.517 -9.14425 0.356425
103.378 -10.1466 0.359751
150.848 -14.7946 -19.5871
150.863 -14.638 -19.5865
150.86 -14.4779 -19.5789
150.882 -14.3216 -19.5825
150.889 -14.1639 -19.5789
150.918 -14.0075 -19.5855
150.931 -13.8507 -19.585
150.935 -13.6927 -19.5814
100.058 -7.77784 0.68541
99.9816 -7.72453 0.649634
99.9984 -7.76227 0.666654
100.19 -8.03699 0.777466
100.243 -8.00938 0.758136
100.284 -8.09093 0.799156
100.277 -8.08895 0.796183
100.203 -8.00969 0.732331
99.9864 -7.63871 0.537382
100.209 -8.02975 0.742354
100.205 -8.03328 0.742381
100.17 -7.9848 0.715423
100.146 -7.94806 0.69544
100.102 -7.88728 0.66149
100.103 -7.89957 0.666516
100.103 -7.90974 0.670541
100.109 -7.92769 0.679562
100.121 -7.95666 0.693581
100.027 -7.81801 0.616666
100.134 -8.09469 0.749887
100.125 -8.14385 0.76606
102.318 -10.6279 0.511115
102.242 -10.5451 0.56326
102.233 -10.5286 0.572258
102.161 -10.4493 0.622396
25.8528 2.21455e-39 0
