ply
format ascii 1.0
element vertex 560
property float x
property float y
property float z
end_header
162.202 -5.95372 4.05984
149.65 -2.73776 3.5875
142.71 -2.50813 3.33972
138.421 -2.03101 3.18493
154.705 18.6717 3.70129
104.677 19.3883 2.18617
80.9764 48.6779 2.5841
80.0434 44.9136 2.4934
79.8919 44.7111 2.48913
79.6566 45.9093 2.51801
65.0292 13.8463 1.94262
54.6999 15.3126 2.19913
54.3199 15.4666 2.20999
54.1433 15.4608 2.21476
53.9385 15.547 2.22057
53.796 15.512 2.22368
52.6461 13.9291 2.23727
52.6304 13.8 2.23651
44.1418 15.8523 2.48234
42.8759 16.2597 2.51925
42.5204 16.2959 2.52931
41.6555 16.4503 2.55436
41.4392 16.4008 2.56049
40.2441 16.6342 2.59522
39.8322 16.6857 2.60703
39.6129 16.6295 2.61322
36.3968 17.1624 2.70667
38.9203 14.3925 2.61997
26.7108 18.5785 2.99274
25.442 18.7206 3.03025
28.848 15.0996 2.91735
28.8173 15.0131 2.91814
27.3615 15.3995 2.96195
28.2247 14.8553 2.93571
28.2047 13.191 2.93197
18.8808 16.0442 3.21757
18.8843 15.8164 3.21781
18.0493 14.183 3.24142
17.9285 13.9974 3.24503
18.0956 13.7196 3.23903
17.8955 13.5586 3.24527
17.6597 13.4088 3.25235
17.5502 13.3297 3.25594
16.3129 13.2561 3.29361
16.3995 13.002 3.29124
16.2896 12.8078 3.29496
15.9266 12.6865 3.30555
9.40089 13.4698 3.50706
21.9959 -8.57546 3.22478
19.6005 -9.04126 3.30737
24.1926 -9.06596 3.16023
23.7998 -9.26678 3.17454
24.1147 -10.6409 3.18052
19.0896 -11.6699 3.35426
19.095 -11.8707 3.35624
18.9715 -12.0822 3.3631
19.9531 -12.898 3.34172
20.0982 -13.0827 3.33977
48.4562 -10.5894 2.40037
43.4814 -11.2559 2.56765
43.5328 -11.3128 2.56729
48.6053 -10.8443 2.39912
48.6582 -10.9469 2.39821
48.4809 -11.9022 2.41827
52.2648 -11.5403 2.292
52.3866 -11.5711 2.2885
48.6803 -12.2564 2.41707
53.7595 -12.5809 2.26066
53.8266 -12.6623 2.26057
52.8516 -12.9557 2.29583
27.691 -19.996 3.20504
27.809 -20.1514 3.20476
27.9324 -20.3956 3.20536
28.8202 -20.3563 3.17644
23.9474 -21.772 3.35423
42.4628 -17.2115 2.69527
42.5654 -17.3203 2.69351
50.5552 -16.221 2.42599
23.8837 -25.1875 3.42056
23.9447 -25.269 3.42046
23.9605 -25.4673 3.42343
27.8553 -24.8062 3.29142
27.6692 -25.0591 3.30258
27.4065 -25.3393 3.31589
24.115 -27.3646 3.45826
24.1697 -27.5523 3.46019
26.5585 -26.9078 3.37484
26.6648 -26.9696 3.37263
26.7977 -27.1202 3.37132
41.9885 -22.3506 2.81281
52.7848 -19.1215 2.41909
35.7287 -26.2691 3.0858
35.7087 -26.45 3.09053
54.2395 -19.3198 2.38044
54.9006 -19.4507 2.36482
41.5663 -25.6313 2.90023
53.488 -22.9699 2.49294
44.7013 -28.51 2.88262
44.7612 -28.6338 2.88493
19.6538 -50.51 4.1705
20.0244 -50.5464 4.16247
20.7474 -50.3327 4.13758
20.8277 -50.5676 4.14201
54.4198 -27.9574 2.60732
54.4914 -28.0425 2.60827
54.5879 -28.1089 2.60808
55.039 -28.1822 2.59855
55.0791 -28.2901 2.60067
54.74 -28.6229 2.61937
57.0778 -27.5971 2.5302
57.1433 -27.745 2.53276
70.8752 -20.5954 1.98152
72.9969 -19.9949 1.91916
131.158 -55.7882 4.13723
144.87 -46.6228 4.23726
141.37 -29.7065 3.6988
158.932 -30.2435 4.30024
145.234 -21.4115 3.666
145.219 -21.2012 3.66192
145.226 -20.9972 3.65793
145.253 -20.797 3.65602
145.187 -20.5763 3.64975
145.193 -20.3731 3.64677
145.199 -20.1688 3.64278
155.28 -5.22391 3.34717
120.323 4.96919 2.27831
150.521 17.7999 3.10285
150.057 17.8708 3.08938
150.022 21.8922 3.08996
149.975 22.1222 3.08963
93.8208 37.877 2.09814
80.54 48.013 2.21986
80.2169 44.1486 2.15116
79.8106 45.6464 2.17782
79.7289 45.6258 2.17689
24.3448 -9.73409 2.791
45.1299 -12.7352 2.29486
29.0214 -19.2643 2.80107
29.002 -19.4474 2.80383
26.9063 -25.8302 2.96685
10.4503 -38.6006 3.6136
58.0552 -19.0701 2.08832
48.5143 -27.3222 2.4923
48.3038 -27.5201 2.50188
152.672 -31.1023 3.63722
157.199 -32.0212 3.77974
143.593 -21.4123 3.21226
143.609 -21.2146 3.20935
143.617 -21.0147 3.20641
160.644 -21.0299 3.69384
155.452 -3.10806 2.99173
157.787 -2.15947 3.04032
106.551 20.8919 1.85054
106.621 21.1516 1.85412
93.679 37.674 1.87688
93.7082 38.4156 1.88666
80.1857 45.8526 1.93241
80.1205 43.9723 1.90871
79.9438 44.2535 1.91167
79.6977 45.6775 1.93032
10.624 -38.8748 3.24355
141.62 -39.9364 3.20935
141.661 -39.8372 3.20845
143.305 -19.5057 2.8831
143.705 -19.3895 2.89063
154.964 19.5575 2.28097
99.969 14.3292 1.48685
95.8451 15.1575 1.4459
91.4902 37.6986 1.51899
90.8464 48.0386 1.57069
83.88 47.5133 1.54727
80.2475 44.9001 1.52782
80.0847 44.8994 1.52756
79.9323 44.6971 1.52629
79.7845 44.4435 1.52552
14.159 -11.5539 2.22989
53.5132 -23.0745 1.86997
154.679 -32.166 2.77692
155.396 -31.6522 2.78109
149.613 -21.8492 2.5495
148.108 -21.1887 2.51653
153.684 -22.1806 2.6215
154.652 21.2739 1.87363
151.437 21.5164 1.83692
95.0686 14.0164 1.31077
91.024 28.4012 1.28423
85.2747 66.4607 1.27806
80.2857 44.1232 1.26248
80.0373 45.7696 1.26295
79.9484 45.8744 1.26277
79.7702 46.0749 1.26251
80.7911 22.1636 1.25631
53.8972 -22.9033 1.69293
53.8916 -23.0257 1.69512
117.295 -22.667 1.84484
147.922 -21.9946 2.1821
156.568 20.3487 1.35385
153.201 20.7537 1.33429
84.9946 66.4275 0.766898
81.409 48.5588 0.879897
80.0984 45.2258 0.899353
79.9377 45.1692 0.899641
79.9031 44.3276 0.904824
79.7685 14.3821 1.10379
19.8042 -10.7441 1.38229
18.3829 -19.4842 1.4735
18.5544 -19.6605 1.47451
18.7803 -19.7194 1.47546
98.9472 -20.0179 1.47043
117.057 -22.8311 1.58203
154.433 -31.6291 1.85021
156.804 -32.0612 1.86538
158.016 -32.2109 1.87286
145.187 -21.5195 1.69888
148.335 -21.2857 1.71082
159.032 -19.9144 1.74815
152.659 1.77205 1.17122
120.287 1.27082 1.17241
152.912 21.5719 0.969783
144.327 20.2499 0.981479
95.2529 13.3486 1.0356
88.1233 62.4912 0.471614
81.1959 49.366 0.608627
80.3633 32.897 0.794493
38.7703 -6.74921 1.10664
39.1737 -6.88724 1.10966
43.663 -12.0785 1.17394
142.914 -20.964 1.39166
142.928 -20.7678 1.38976
142.938 -20.5713 1.38785
142.922 -20.469 1.38683
142.931 -20.2723 1.38491
160.762 -16.2473 0.851073
153.317 21.5282 0.488859
95.3042 13.2458 0.885689
81.7797 37.1312 0.469373
155.123 -31.6529 1.00855
156.38 -31.8264 1.00234
157.61 -31.9817 0.996896
142.506 -20.2277 0.996752
142.601 -20.0515 0.994185
142.661 -19.8682 0.992489
142.813 -19.7042 0.990136
159.05 -19.9545 0.893529
161.113 -5.96304 0.27194
147.652 -3.26872 0.410227
139.734 -1.55314 0.489295
146.702 3.59102 0.344487
102.449 7.43734 0.80041
97.5393 13.6632 0.717304
89.8391 38.5233 0.172105
87.2504 60.8986 -0.360283
85.5339 69.7783 -0.573079
85.4156 69.8267 -0.573749
85.1724 69.7729 -0.573626
82.5818 38.3352 0.171902
80.8607 30.5586 0.353191
22.8573 -10.4036 0.341968
146.641 -30.2623 0.63084
147.343 -30.29 0.622277
147.991 -30.2927 0.615379
148.759 -28.2556 0.595708
149.17 -28.1584 0.590438
150.388 -28.3152 0.576994
152.439 -28.4842 0.554052
153.526 -28.5785 0.541778
154.495 -28.7519 0.531083
153.843 -26.2571 0.523575
142.964 -21.5776 0.624709
142.967 -21.379 0.622771
143.347 -21.3693 0.618307
147.91 -13.9804 0.0525112
147.603 -11.6889 0.0405652
153.601 -6.56871 -0.121617
152.486 -4.71222 -0.118644
151.528 -4.52525 -0.103064
134.741 -0.492873 0.174612
134.333 0.0328584 0.175788
91.9461 10.269 0.68825
82.5741 46.0546 -0.380715
82.4082 45.9836 -0.378295
82.0075 45.0697 -0.351011
80.7374 30.8467 0.0831528
80.6692 31.0111 0.0774299
118.457 -22.833 0.64433
130.789 -27.3777 0.434281
131.033 -27.3039 0.429963
131.984 -27.0725 0.413275
132.208 -26.9836 0.408776
132.495 -26.919 0.40362
132.739 -26.8351 0.399204
137.394 -22.6539 0.301988
140.428 -22.4589 0.245112
143.421 -22.1509 0.18806
137.171 -13.8949 -0.0221539
137.943 -10.7582 -0.0635835
138.061 -10.5924 -0.0680115
138.014 -10.2412 -0.0695271
140.955 -3.10421 -0.212528
141.485 2.62839 -0.297778
141.595 2.83578 -0.303627
141.415 3.56491 -0.310064
142.088 4.55165 -0.339609
139.917 6.5718 -0.318989
121.713 5.30084 0.130264
115.721 5.0345 0.272934
115.707 5.14651 0.270816
86.2238 66.2882 -1.3738
84.1581 66.5995 -1.38628
83.9275 66.6257 -1.38792
82.1274 32.3099 -0.158878
81.9527 34.7027 -0.245599
81.5131 34.156 -0.226975
81.2493 29.8256 -0.0720082
80.7592 32.5255 -0.17026
80.7283 30.8704 -0.111104
99.5224 -19.924 0.850436
124.537 -25.2266 0.307839
126.842 -24.7717 0.256208
135.441 -16.8083 0.0355033
129.5 -13.3028 -0.120686
129.708 -13.1824 -0.12752
131.255 -8.40698 -0.208709
131.332 -8.25736 -0.212048
131.405 -8.1831 -0.214653
131.541 -8.03302 -0.220897
131.711 -7.88384 -0.227076
131.82 -7.73186 -0.231383
131.984 -7.58084 -0.23759
132.097 -7.42746 -0.242904
133.381 -6.17141 -0.294073
133.661 -5.84821 -0.305773
133.824 -5.68488 -0.313102
133.987 -5.52056 -0.31944
134.111 -5.3566 -0.324841
134.283 -5.18961 -0.332189
134.362 -5.10603 -0.334877
134.589 -4.93575 -0.344169
134.742 -4.7659 -0.350578
134.863 -4.59754 -0.356025
134.911 -4.43175 -0.359569
135.107 -4.25801 -0.366945
135.009 -4.09834 -0.366671
134.08 1.56125 -0.413625
134.159 1.7407 -0.418251
134.265 1.9235 -0.423866
134.414 2.11612 -0.431505
133.684 2.7318 -0.419743
95.0128 13.9935 0.289856
93.4199 42.7304 -0.845193
91.6324 36.0284 -0.56053
86.1233 62.9181 -1.66799
82.6829 34.9262 -0.500588
118.566 -20.8998 0.214564
124.574 -19.9419 0.0441483
124.88 -19.2445 0.0348273
125.051 -19.151 0.030196
125.29 -19.0754 0.0228502
126.334 -15.7507 -0.0149676
126.354 -15.6122 -0.016291
129.038 -15.0253 -0.098587
129.035 -14.9491 -0.0983387
129.081 -14.8083 -0.10064
129.387 -14.41 -0.112031
129.424 -14.2659 -0.113382
129.367 -14.1059 -0.112043
129.299 -13.8719 -0.111446
123.267 -12.6119 -0.204798
123.289 -12.4848 -0.206006
123.302 -12.3574 -0.207231
123.526 -12.0624 -0.216749
123.622 -11.9449 -0.22074
123.705 -11.8246 -0.224781
123.687 -11.6916 -0.224113
123.659 -11.5584 -0.224463
123.62 -11.4244 -0.22384
123.605 -11.2928 -0.224153
124.601 -7.37948 -0.289816
124.679 -7.24923 -0.293963
124.745 -7.11741 -0.297143
125.132 -6.52177 -0.317334
125.197 -6.38769 -0.321539
125.281 -6.25336 -0.325715
125.366 -6.11819 -0.330897
125.414 -5.98364 -0.333135
125.497 -5.91479 -0.337672
125.561 -5.77956 -0.34089
129.072 -0.637069 -0.53642
129.11 -0.484001 -0.540856
129.282 -0.310802 -0.549267
129.424 -0.141511 -0.556688
129.951 1.14913 -0.596452
129.957 1.30283 -0.598946
130.071 1.47528 -0.606446
130.226 1.656 -0.61496
130.265 1.81797 -0.61948
99.8653 7.92136 0.260356
96.9312 13.833 0.101601
83.9004 66.5865 -2.30363
6.85511 -12.1149 -1.76294
7.62261 -12.18 -1.73203
8.59274 -12.3459 -1.69179
10.6298 -12.6513 -1.60842
14.7868 -15.3402 -1.42618
15.5154 -15.4643 -1.39576
118.209 -18.4184 -0.0163353
118.303 -18.3259 -0.0190845
118.396 -18.2938 -0.0222451
118.446 -17.8181 -0.0238186
123.106 -13.886 -0.193591
123.081 -13.752 -0.193944
123.045 -13.6801 -0.192708
123.138 -13.5663 -0.196668
123.211 -13.4475 -0.19971
123.265 -13.326 -0.201811
123.295 -13.201 -0.202984
123.273 -13.0675 -0.203328
123.237 -12.9319 -0.201715
123.232 -12.8666 -0.202363
123.243 -12.7378 -0.203607
119.855 -6.78469 -0.34052
119.917 -6.72597 -0.342992
120.013 -6.60963 -0.34897
123.917 0.3306 -0.611452
89.463 12.7451 0.14386
84.0315 66.6098 -2.74166
81.018 24.19 -0.445236
24.4382 -9.79285 -1.42148
24.5161 -10.0647 -1.41568
24.4894 -10.2498 -1.41592
26.2249 -11.1321 -1.33039
26.0016 -11.3283 -1.33884
25.974 -11.8699 -1.33659
26.6274 -11.9902 -1.30632
105.63 -19.707 0.246418
94.9785 8.66287 0.12298
89.6249 12.7368 0.0232043
84.4776 67.9401 -3.24197
83.8701 66.5402 -3.15827
80.9949 23.9422 -0.608856
27.5289 3.84371 -1.77787
26.9274 2.2381 -1.77915
26.0695 -2.50795 -1.74811
24.9537 -4.97521 -1.7748
25.1042 -6.61335 -1.74952
26.8166 -8.4671 -1.64352
33.536 -10.9906 -1.27764
34.9405 -14.4602 -1.19234
103.205 4.28191 -0.143489
100.881 7.63415 -0.176168
89.8751 13.0185 -0.131146
34.1967 -2.11504 -1.64346
42.6638 -15.1849 -1.05742
100.972 -19.3872 0.151552
101.322 -19.3317 0.137588
101.785 -19.4716 0.113726
83.9875 66.5515 -4.01622
81.9821 27.1295 -1.19345
54.8674 14.672 -1.19549
40.3202 -9.35147 -1.43344
83.6744 45.169 -2.84634
83.4821 43.0845 -2.68324
97.4129 -21.7547 -0.0191846
97.4088 -21.657 -0.015147
97.6148 -21.5393 -0.0199582
106.24 -6.54207 -0.446495
106.209 -6.46889 -0.445263
107.746 -0.469898 -0.674456
84.9164 66.4304 -4.87854
83.7068 43.1729 -2.93575
83.2004 38.727 -2.56504
106.915 -11.5079 -0.478759
106.808 -11.3308 -0.47067
95.8988 12.6042 -0.808126
91.337 43.4368 -3.33169
89.6215 58.6772 -4.67881
87.0633 62.6322 -5.0218
93.8567 -20.5764 -0.0146219
103.336 -3.70478 -0.538098
95.6138 12.5937 -0.929502
91.1675 55.5673 -4.7738
86.5469 56.2027 -4.80469
84.2226 43.8266 -3.61432
83.9471 39.0298 -3.1548
81.0063 23.2708 -1.65232
80.5037 19.7676 -1.32184
102.642 -0.669956 -0.693968
100.818 -8.4687 -0.486632
100.815 -8.41071 -0.486205
100.805 -8.3537 -0.485779
100.56 -4.58293 -0.507106
100.575 -4.52456 -0.509652
100.45 2.03562 -0.7561
100.427 2.05815 -0.755358
100.4 2.11447 -0.755953
93.5087 10.6373 -0.926842
84.2507 43.002 -4.14923
81.7256 30.3937 -2.78891
91.8415 -18.0396 -0.0418042
80.8098 21.6143 -2.02244
79.7115 13.9948 -1.17062
90.8691 34.73 -3.85625
89.2777 42.628 -4.77426
89.518 39.143 -4.64573
82.1795 33.2573 -3.85425
90.1386 37.6381 -4.72597
82.118 36.2056 -4.47625
82.2061 33.2079 -4.28374
80.1397 15.7145 -1.89578
78.7577 8.98588 -1.01616
87.1256 -18.8108 -0.256091
86.1634 9.48456 -1.16676
82.171 33.2809 -4.57453
81.9504 27.2203 -3.69752
81.8471 27.0727 -3.67724
69.898 5.2082 -1.28489
85.8871 -18.8103 -0.297154
85.704 -17.4849 -0.131425
85.7899 -17.6673 -0.155498
95.2998 -6.53614 -0.565715
95.2904 -6.49638 -0.56512
95.2808 -6.45761 -0.564516
95.2793 -6.419 -0.564896
91.2959 -5.3664 -0.601814
91.2886 -5.34009 -0.602084
87.3397 -14.1124 -0.504748
80.6744 -13.0076 -0.596631
85.3588 -6.76659 0.139077
81.9155 -5.33236 0.405334
81.6009 -8.20479 0.427936
82.0583 -5.60057 0.506202
82.1313 -5.61312 0.506446
82.1548 -5.66678 0.533012
81.8673 -7.87526 0.555158
124.973 -20.5485 -18.3042
125.015 -20.4162 -18.3054
125.238 -20.3421 -18.3907
82.0072 -5.46687 0.402803
82.0783 -5.59571 0.471186
82.0741 -5.59712 0.471193
82.0672 -5.5891 0.466103
82.0383 -5.55179 0.444688
82.0029 -5.50351 0.416155
81.9519 -5.43085 0.375357
81.985 -5.49492 0.409041
81.9782 -5.49296 0.406011
81.9886 -5.51859 0.419279
81.9625 -5.48268 0.398884
82.042 -5.72042 0.512349
81.9255 -5.54993 0.415481
81.9414 -5.64881 0.458478
81.5532 -8.24337 0.323229
81.8496 -7.94283 0.511788
81.8619 -7.93444 0.518726
81.823 -7.98771 0.489182
81.6881 -8.16115 0.391651
84.1296 -8.13835 0.325477
84.1069 -8.10662 0.342129
84.0496 -8.04748 0.379457
-42.8266 12.4554 2.09679e-39
