ply
format ascii 1.0
element vertex 619
property float x
property float y
property float z
end_header
121.696 8.39249 3.24997
114.833 8.29047 3.02485
89.8718 9.6504 2.22827
105.459 21.444 2.86308
105.499 21.675 2.86841
105.542 21.9068 2.87274
105.608 22.0415 2.8769
67.5768 13.6405 1.62481
67.3177 13.5429 1.61585
45.4126 23.515 1.64936
35.477 16.3544 1.51257
33.6287 14.9981 1.50983
33.5104 15.0381 1.51298
33.4132 15.0507 1.51607
33.3132 15.0655 1.51817
33.207 15.0881 1.52128
33.1176 15.0888 1.52334
33.0146 15.1593 1.52753
32.9188 15.1667 1.52961
32.8169 15.1818 1.53271
28.8991 18.3392 1.70747
28.771 18.3541 1.71059
28.5305 18.3631 1.71678
28.3931 18.385 1.72091
28.2602 18.4025 1.72404
28.1299 18.4156 1.72715
28.0344 18.4532 1.73028
28.2035 15.2422 1.64419
24.2547 18.1787 1.81763
24.2409 18.0615 1.81546
24.1669 18.0001 1.81542
24.1528 17.4444 1.80257
23.4834 17.1992 1.81468
18.248 19.8851 2.01768
9.54725 20.9858 2.28977
9.22535 20.9393 2.29794
9.6569 17.7179 2.22664
9.67286 17.5593 2.22338
10.7739 16.7598 2.17533
10.8343 16.5842 2.17102
8.55471 15.8128 2.2285
8.8163 15.545 2.21589
9.27681 14.4047 2.18379
9.24487 14.2774 2.18361
9.11975 14.1904 2.18557
9.05608 14.0766 2.18644
-0.476898 13.8776 2.49213
-0.410847 13.6893 2.48679
-0.464045 13.5422 2.4876
-0.543545 13.403 2.48845
-7.19379 15.2959 2.72926
-30.6018 -16.0343 3.43796
19.2044 -8.43847 1.71115
19.6653 -10.3072 1.70892
24.6969 -10.2017 1.54239
7.598 -16.5209 2.16216
7.63722 -16.5765 2.16105
0.578867 -19.6626 2.42145
-12.8918 -24.9615 2.91314
-5.18392 -27.0729 2.69221
2.41232 -24.9244 2.42696
25.2973 -15.898 1.60013
26.9287 -16.3246 1.56027
27.8258 -16.6132 1.54017
29.4537 -16.5908 1.49601
49.1546 -17.9712 1.25041
57.2839 -19.0396 1.37179
72.549 -20.1282 1.7469
80.079 -20.8249 1.9683
111.102 -18.8039 2.90465
111.121 -18.5948 2.90396
111.04 -18.3597 2.89939
111.058 -18.1503 2.8987
111.096 -17.9453 2.89799
111.112 -17.7368 2.8973
111.133 -17.6344 2.89744
111.159 -17.4281 2.89674
111.188 -17.222 2.89704
111.249 -17.0234 2.8973
96.9116 16.5726 2.19482
0.0312591 15.9281 2.18293
-5.77188 15.3603 2.33031
-8.98858 -22.8982 2.38647
57.1867 -19.0349 1.24487
58.7548 -19.1842 1.27049
110.617 -18.5484 2.4704
110.649 -18.3437 2.4697
110.678 -18.1386 2.46999
110.706 -17.9324 2.46929
110.721 -17.7238 2.4686
110.764 -17.5223 2.46888
110.756 -17.4148 2.46806
110.8 -17.2134 2.46834
112.017 -16.8548 2.498
103.928 11.5034 2.04982
90.3296 11.6825 1.76308
105.791 22.627 2.18567
105.864 22.8767 2.19
66.3322 13.6585 1.31675
105.379 -24.5412 2.08297
115.44 -19.6193 2.26821
120.839 7.36613 1.829
123.14 8.02744 1.86434
114.874 8.2295 1.74672
89.9992 11.2743 1.41069
107.45 23.6314 1.732
66.343 13.5932 1.12564
66.2413 13.6103 1.12474
50.1083 -18.1619 0.956415
86.4339 -21.6552 1.34635
80.2971 -17.6538 1.24604
80.3218 -17.6022 1.2461
98.2159 -23.4987 1.50984
105.512 -24.6203 1.61175
119.3 -26.5772 1.8066
121.988 -26.9619 1.84404
115.438 -19.5419 1.73333
110.482 -16.9091 1.65804
105.869 10.8852 1.32244
107.568 23.586 1.39585
107.627 23.837 1.39819
66.3227 13.5926 0.997655
66.2156 13.6063 0.997755
53.5222 15.4762 0.947966
53.4586 15.474 0.948009
33.4959 19.1957 1.03442
86.6465 -21.8449 1.1239
120.458 0.87862 0.918243
121.048 7.46941 0.931009
109.306 9.86262 0.908332
89.161 10.8411 0.863633
66.2886 13.6318 0.823741
53.517 15.4387 0.816912
53.476 15.413 0.816902
33.5606 19.2191 0.857411
86.3323 -21.8636 0.814097
105.877 -24.5864 0.855537
115.906 -26.2001 0.877678
101.24 -20.891 0.84766
120.773 -26.8636 0.888079
122.038 -27.0262 0.890899
110.124 -18.8647 0.869274
109.916 -18.5977 0.86884
109.87 -18.48 0.869056
109.888 -18.2737 0.868362
109.882 -18.0618 0.868695
109.916 -17.8603 0.868981
109.95 -17.6588 0.869268
110.002 -17.4623 0.869534
110.059 -17.2663 0.869796
110.104 -17.1727 0.869907
111.522 -16.869 0.873336
122.985 -18.3578 0.899618
87.563 10.9104 0.658913
89.0664 15.1478 0.660367
66.4409 13.7291 0.706779
58.5816 14.8927 0.721349
58.5161 14.9098 0.721424
53.5163 15.5254 0.728046
53.4657 15.5591 0.728135
50.1597 15.9977 0.732241
33.4716 19.2521 0.738527
82.1543 -21.3209 0.617003
80.6221 -17.3885 0.629214
101.754 -20.4738 0.576927
109.958 -18.3694 0.563162
109.946 -18.2615 0.563338
109.923 -18.0447 0.563691
109.949 -17.8413 0.563986
109.896 -17.4091 0.564694
110.101 -17.2494 0.56479
111.228 -16.7733 0.5627
70.5103 13.6252 0.518631
66.4006 13.7115 0.546781
53.535 15.4672 0.608942
53.473 15.4699 0.608992
104.437 -24.4764 0.171763
102.665 -20.8206 0.201722
113.392 -23.1486 0.104245
115.214 -20.9283 0.0973436
111.053 -18.7051 0.139838
110.797 -18.4248 0.14346
109.687 -17.8274 0.154199
111.065 -17.5325 0.143644
111.15 -17.3396 0.14388
111.205 -16.8214 0.145642
114.327 0.874505 -0.255265
92.7781 0.828074 0.0614811
92.802 0.974344 0.0616899
92.832 1.12096 0.0608947
92.8248 1.19317 0.0610118
95.7865 8.30799 0.0148483
94.389 8.39742 0.0350125
53.5147 15.4384 0.492912
53.4599 15.4615 0.492988
-30.4011 16.8157 -0.297361
71.153 -19.5861 0.271763
95.2184 -22.531 -0.0664597
95.338 -22.4031 -0.0673496
95.5673 -22.3194 -0.0703885
96.8998 -21.8686 -0.085669
99.9783 -20.993 -0.122574
110.388 -19.2196 -0.25947
111.519 -16.3008 -0.260784
105.257 -5.90622 -0.539102
105.167 -5.71738 -0.536743
114.734 -1.19182 -0.735762
114.12 -0.98937 -0.721998
112.761 -0.392099 -0.692076
112.581 0.531659 -0.686515
91.9389 5.55078 -0.243595
79.4136 10.2798 0.00091795
79.362 10.9061 -0.00207498
72.1813 10.1952 0.146096
66.4494 13.7007 0.217728
53.5362 15.4705 0.360946
53.4742 15.4742 0.361997
83.31 -21.1576 -0.181593
98.4568 -16.6628 -0.447756
99.0023 -16.2895 -0.456579
98.8762 -16.0797 -0.452162
99.1914 -16.0767 -0.459388
110.196 -18.8008 -0.708682
99.0156 -15.1584 -0.448838
98.9731 -14.9747 -0.446523
98.5133 -14.6894 -0.435744
98.5096 -14.6025 -0.434606
100.033 -14.619 -0.46675
100.592 -14.5722 -0.479088
101.19 -14.5325 -0.491465
101.997 -13.9009 -0.50408
102.434 -13.6305 -0.511982
102.777 -13.5189 -0.519062
102.679 -13.3171 -0.515678
102.267 -12.6036 -0.502271
102.192 -12.4093 -0.499915
101.102 -11.8554 -0.474258
101.17 -11.6917 -0.474054
104.866 -8.72241 -0.540172
96.5014 -7.27246 -0.608789
96.5984 -7.20353 -0.611753
96.695 -6.89718 -0.61235
96.7239 -6.58547 -0.611889
96.7767 -6.43228 -0.612691
96.7508 -6.27255 -0.611425
96.7434 -6.19328 -0.611296
96.8291 -6.04266 -0.613126
96.885 -5.88979 -0.613931
96.9738 -5.7385 -0.615762
97.0089 -5.58237 -0.616546
97.0278 -5.42651 -0.616319
97.0749 -5.27068 -0.617112
104.716 0.342229 -0.812035
90.7913 5.30357 -0.446135
87.652 12.0068 -0.397457
66.4205 13.7131 0.0887685
53.5273 15.5561 0.263085
53.4666 15.5627 0.26314
52.7625 16.3956 0.250946
77.9975 -20.4758 -0.256639
79.8977 -19.4288 -0.286413
92.0741 -14.2301 -0.535306
91.9689 -14.0507 -0.530952
91.8587 -13.8708 -0.526592
91.9108 -13.7336 -0.527418
91.9462 -13.5926 -0.527226
93.718 -12.8757 -0.567417
94.002 -12.8633 -0.575606
94.5114 -12.822 -0.587917
94.4268 -12.6469 -0.584583
95.9979 -10.2777 -0.61107
95.8482 -10.1739 -0.6058
95.7612 -10.0025 -0.60247
89.5953 -6.71323 -0.676854
90.7045 -3.24369 -0.700299
90.8699 -3.10976 -0.705213
91.0284 -2.97508 -0.710121
91.1609 -2.83859 -0.715007
91.2744 -2.70104 -0.717878
91.4527 -2.63389 -0.723905
91.5866 -2.49453 -0.727787
91.7365 -2.3549 -0.732681
91.9268 -2.21462 -0.738604
92.0668 -2.07391 -0.742489
92.2422 -1.93101 -0.748397
92.4734 -1.85855 -0.755454
92.6339 -1.71403 -0.761348
92.7905 -1.56909 -0.766239
93.086 -1.27526 -0.775001
93.3104 -1.12562 -0.782934
93.2709 -0.980501 -0.780681
93.5693 -0.900245 -0.790776
93.7689 -0.747903 -0.797686
93.9273 -0.595111 -0.802566
94.0565 -0.443167 -0.806426
94.1464 -0.290988 -0.809256
94.298 -0.136447 -0.814129
94.4589 0.0201064 -0.820004
94.646 0.177828 -0.825898
94.7898 0.26079 -0.830875
95.5535 0.911153 -0.855429
95.9228 1.08932 -0.867424
53.8351 15.8447 0.138305
53.5163 15.5947 0.150153
52.7834 16.645 0.127316
52.8628 17.0056 0.115816
88.7228 -9.49528 -0.665519
88.6157 -9.34183 -0.661203
88.5234 -9.19198 -0.656904
88.5989 -9.07043 -0.658771
88.5234 -8.92342 -0.654488
88.5463 -8.86052 -0.655407
88.6437 -8.74135 -0.657294
88.7608 -8.62632 -0.660202
88.8544 -8.50571 -0.663084
88.8876 -8.37654 -0.662909
88.9326 -8.24866 -0.663744
88.9342 -8.11404 -0.663537
88.9473 -8.04907 -0.663446
88.9439 -7.91391 -0.662234
88.9692 -7.78288 -0.66205
89.0063 -7.65413 -0.662878
89.0316 -7.5231 -0.662694
89.1592 -7.40418 -0.666603
89.3066 -7.28742 -0.670531
89.4349 -7.23597 -0.674546
89.522 -7.11063 -0.676416
89.613 -6.98573 -0.679289
89.6127 -6.8499 -0.678079
84.0478 -6.15775 -0.737923
84.6409 -3.78188 -0.750681
84.6917 -3.66569 -0.752539
84.7236 -3.54844 -0.753381
84.9255 -2.54135 -0.757971
85.0374 -2.48309 -0.762963
85.6733 -1.8802 -0.786496
85.7802 -1.75702 -0.790384
85.8901 -1.63417 -0.795275
86.0016 -1.57083 -0.799258
86.243 -1.32043 -0.809048
86.3775 -1.19321 -0.81395
86.504 -1.06611 -0.818846
86.672 -0.936488 -0.825769
86.7937 -0.806868 -0.829658
86.8894 -0.740811 -0.833626
87.5738 0.0499414 -0.860904
87.7377 0.123678 -0.866911
87.8449 0.258896 -0.87178
87.9501 0.394327 -0.875648
88.0099 0.527659 -0.878485
88.1405 0.665363 -0.883368
88.2592 0.804363 -0.88824
88.383 0.943818 -0.893115
88.5058 1.019 -0.898089
88.649 1.16137 -0.903974
88.6483 1.29323 -0.903769
88.9695 1.4535 -0.916757
89.1669 1.60407 -0.924669
89.4132 1.7604 -0.934608
89.6374 1.91711 -0.94453
72.8241 10.265 -0.372269
66.4223 13.6771 -0.224289
59.9667 16.2603 -0.117553
59.927 16.2656 -0.116515
52.7777 16.4728 0.0040534
52.8301 16.8534 -0.0093961
52.8763 17.2236 -0.0228572
52.9298 17.6232 -0.038278
43.5935 17.5802 -0.00749143
11.4432 20.3992 -0.829531
-14.8339 -13.4587 -1.66264
67.529 -19.792 -0.352897
67.6101 -19.7495 -0.35489
69.4845 -18.6988 -0.38564
69.6773 -18.7298 -0.39283
83.4985 -7.73265 -0.726957
83.5279 -7.61917 -0.726803
83.5425 -7.50406 -0.726635
83.554 -7.38863 -0.726465
83.5497 -7.27048 -0.725279
83.9079 -6.43627 -0.734251
83.9731 -6.32667 -0.736129
84.0193 -6.27234 -0.737079
85.8947 4.058 -1.03947
85.8696 4.17941 -1.03926
70.6874 8.85559 -0.430881
70.688 9.03758 -0.4336
66.333 13.5412 -0.366434
59.9586 16.2423 -0.250575
59.891 16.2687 -0.249484
52.8214 16.6261 -0.118742
44.6598 17.9242 -0.134742
43.8021 17.2599 -0.11114
43.7397 17.2597 -0.112095
43.7066 17.2703 -0.112054
52.155 -18.6282 -0.0648103
65.8545 -15.5031 -0.33003
79.7245 -10.2406 -0.804068
79.717 -9.96721 -0.800639
70.7304 8.9477 -0.584771
70.6104 8.98185 -0.57963
17.4923 16.7407 -0.976633
-14.6863 14.5734 -2.40537
49.7801 -18.3872 -0.121694
52.1433 -18.5966 -0.161753
52.1995 -18.5977 -0.162796
74.8488 -3.87167 -0.869633
74.8573 -3.78408 -0.869503
74.858 -3.7409 -0.869437
74.8635 -3.65298 -0.869305
74.858 -3.56487 -0.869165
74.8635 -3.47695 -0.869033
74.8379 -3.38867 -0.866877
73.599 10.0036 -0.924243
73.6402 10.1238 -0.929087
70.8669 8.93715 -0.757888
37.8408 15.2765 -0.348834
74.3907 -6.85667 -0.867916
75.9818 3.30932 -1.10635
76.0642 3.42008 -1.11324
73.5126 9.70033 -1.06765
73.4691 9.7815 -1.06649
73.4678 9.88122 -1.06934
73.4439 9.92004 -1.06926
73.4078 10.0044 -1.0691
73.3271 10.0675 -1.06594
73.0738 10.0497 -1.05079
48.5863 16.468 -0.398878
7.0442 -7.66961 -1.74174
63.8168 -13.8138 -0.56492
63.8381 -13.6733 -0.560719
71.5571 9.02466 -1.12726
71.5233 9.10276 -1.12811
71.4885 9.17998 -1.12797
66.8495 13.4488 -0.997957
41.9514 13.4489 -0.37068
29.5577 16.2014 -0.970324
69.4568 -2.39358 -0.942388
69.4474 -2.32314 -0.942272
69.4409 -2.25304 -0.941158
69.4637 -2.18208 -0.943065
69.4574 -2.1472 -0.942007
69.4531 -2.07631 -0.941894
69.4808 -2.0059 -0.943805
69.508 -1.79259 -0.945495
69.5126 -1.72267 -0.94639
69.5296 -1.68629 -0.947347
69.5404 -1.61504 -0.948244
69.5521 -1.54389 -0.949143
69.5507 -1.47333 -0.949032
70.2769 8.55523 -1.16005
70.2309 8.62259 -1.15891
68.823 7.60775 -1.19045
68.8055 7.64083 -1.19038
68.7706 7.708 -1.19025
68.7324 7.7735 -1.18912
68.6847 7.83401 -1.18799
66.1102 12.6633 -1.20363
66.0524 12.7149 -1.20251
44.768 17.8894 -0.856876
44.6943 17.9789 -0.864684
18.6239 16.4703 -1.94388
18.5948 16.4252 -1.94393
18.5565 16.3227 -1.94206
18.4779 16.2467 -1.94412
18.4274 16.1526 -1.94423
18.3392 16.0818 -1.94728
67.6301 7.16403 -1.21926
67.5915 7.22556 -1.21813
67.5631 7.25077 -1.21607
67.5 7.29987 -1.21295
64.6627 11.6447 -1.19114
64.637 11.7139 -1.19202
64.6191 11.7902 -1.19489
64.6046 11.8693 -1.19875
64.5734 11.934 -1.19963
64.5646 11.9732 -1.20056
64.5456 12.0487 -1.20343
57.5038 14.8835 -0.973877
57.4604 14.8731 -0.971861
57.3958 14.8892 -0.969789
52.0629 15.9562 -0.864223
51.9944 15.9275 -0.860217
51.9298 15.9164 -0.858187
44.6616 17.9474 -0.978708
65.4238 -7.08245 -0.931684
65.4066 -6.95385 -0.927472
65.5745 -3.54694 -0.999323
57.659 14.8135 -1.0961
57.4658 14.8586 -1.08989
57.3925 14.8595 -1.08583
57.3467 14.8454 -1.08282
48.3312 13.3628 -0.680497
47.7605 12.3403 -0.58466
44.7688 17.9722 -1.10075
44.7082 17.9425 -1.09875
64.4479 -2.75966 -1.00128
64.4498 -2.70555 -1.0012
65.5735 3.63043 -1.18822
65.4065 6.16841 -1.25816
65.3679 6.21989 -1.25606
65.3123 6.26414 -1.25295
65.2981 6.32805 -1.25484
62.6608 10.4118 -1.23758
62.623 10.4621 -1.23748
62.5996 10.525 -1.23936
59.0365 14.6148 -1.28342
58.9594 14.6182 -1.27936
51.3546 15.8363 -1.06689
45.3645 22.5162 -1.66216
50.9345 -15.803 -0.689543
51.7842 16.32 -1.24046
51.7529 16.3184 -1.23944
51.253 15.7721 -1.17191
51.2133 15.7301 -1.16695
45.654 20.5695 -1.61238
45.4388 20.5798 -1.61521
42.9765 15.7156 -1.15393
42.2888 17.4885 -1.34768
30.6239 15.0224 -1.70993
30.5646 14.9766 -1.71096
57.9016 6.51634 -0.813117
57.7072 11.9336 -1.22259
56.0717 11.2943 -1.05938
61.3349 -6.80418 -0.961252
61.9269 -3.57711 -1.04169
61.9449 -3.53178 -1.04264
43.6837 17.4972 -1.57369
43.571 16.1726 -1.53266
43.5186 16.134 -1.52868
43.4571 16.1427 -1.53162
43.4253 16.1552 -1.53358
43.3624 16.1691 -1.53651
43.2936 16.2118 -1.54339
43.2354 16.2041 -1.54336
43.1731 16.2138 -1.5463
43.1052 16.2464 -1.5522
43.0403 16.2685 -1.55612
44.7621 15.7576 -1.55317
49.1059 13.7968 -1.42139
49.0269 13.579 -1.39167
54.9781 9.6834 -1.34907
54.8921 9.71587 -1.34596
54.8557 9.74196 -1.34589
54.8321 9.74753 -1.34486
54.7994 9.77925 -1.34579
54.7533 9.79029 -1.34374
54.7169 9.81638 -1.34367
54.6866 9.85186 -1.3456
54.643 9.86766 -1.34454
54.6042 9.88998 -1.34348
54.5795 9.89367 -1.34245
54.543 9.91876 -1.34239
54.498 9.93068 -1.34034
54.4666 9.96628 -1.34226
54.4278 9.9886 -1.34219
54.3889 10.0099 -1.34213
54.3428 10.021 -1.34008
54.2728 10.0336 -1.33601
34.525 9.21918 -1.71278
34.4345 9.22903 -1.72369
58.5011 1.0923 -1.11095
58.5116 1.1153 -1.11292
58.5389 1.16264 -1.11887
54.2856 9.35527 -1.35107
45.5649 7.81632 -0.80305
53.6163 8.62931 -1.3467
53.5873 8.65861 -1.34864
53.5545 8.68128 -1.34858
53.5156 8.69355 -1.34653
53.4731 8.70018 -1.34449
53.3958 8.0075 -1.3635
53.3651 8.02996 -1.36345
53.3342 8.05142 -1.36439
53.2936 8.05783 -1.36135
53.2677 8.0878 -1.36328
53.2467 8.08908 -1.36227
53.2196 8.11717 -1.3632
53.1863 8.13487 -1.36315
51.7552 -10.5977 -0.99509
52.9907 7.56567 -1.36589
52.9533 7.57275 -1.36285
52.9342 7.61004 -1.36678
52.9106 7.60556 -1.36377
52.8905 7.64295 -1.3677
52.8652 7.66984 -1.36964
45.2234 9.53014 -1.42715
45.1872 9.52099 -1.42614
45.144 9.54983 -1.43206
50.4056 -10.3354 -0.997694
54.9327 -2.63409 -1.1281
49.5433 -1.97223 -0.387118
46.0311 -0.647585 -0.0944892
45.9915 -0.660374 -0.0994799
45.971 -0.635999 -0.112427
45.8218 -3.54693 -0.0998224
46.1948 -0.938122 0.0149412
46.2388 -0.893579 -0.0120223
46.2794 -0.974488 0.0278228
46.2667 -0.961034 0.0198529
46.0638 -0.679218 -0.153562
46.2162 -0.926307 -0.0220563
46.2188 -0.938678 -0.0160774
46.2068 -0.92931 -0.0230541
46.1689 -0.879886 -0.0509498
46.1447 -0.852091 -0.066889
46.0911 -0.78082 -0.107739
46.107 -0.809737 -0.0927959
46.0975 -0.804674 -0.0967811
46.1176 -0.842091 -0.0778537
46.1089 -0.839125 -0.0818427
45.9768 -0.655642 -0.183462
46.1559 -1.01836 -0.00215447
46.1093 -1.02133 -0.0141249
45.8321 -3.59016 -0.190897
48.4023 -3.43979 -0.243551
48.3372 -3.37244 -0.199399
48.3523 -3.38211 -0.207425
1.83687e-39 0 3.16399e-41
