ply
format ascii 1.0
element vertex 481
property float x
property float y
property float z
end_header
178.581 12.8813 3.86559
177.377 13.0155 3.83442
135.808 9.24064 2.69102
162.297 31.4169 3.81006
162.145 31.8576 3.81675
160.609 31.425 3.77186
161.857 33.8856 3.85998
144.558 21.1356 3.16886
148.451 42.7391 3.84577
116.811 9.20839 2.31454
116.803 9.32578 2.31809
116.858 9.54405 2.32575
116.916 9.76909 2.33442
100.411 38.4521 3.3948
99.9103 40.6437 3.48285
99.4333 38.3105 3.39827
98.9925 38.1507 3.39587
98.6059 38.1953 3.40107
99.0244 33.5975 3.22307
98.8773 33.6696 3.22715
98.7232 33.7832 3.23244
98.1575 32.429 3.18754
98.0123 32.4928 3.19057
98.3869 29.2 3.06243
98.3522 28.6261 3.04113
98.2077 28.7503 3.04742
98.1087 28.5991 3.04328
98.053 28.5638 3.04242
99.9645 15.5758 2.53249
99.9143 15.3993 2.52599
99.486 15.2902 2.52775
96.6569 29.0089 3.07459
98.8535 16.1318 2.56666
96.2071 12.7401 2.47979
95.7866 12.4712 2.47681
95.7125 12.4548 2.47813
95.6141 12.5006 2.48183
91.1891 22.3492 2.91128
78.9615 45.5003 3.9586
76.8561 46.0968 4.02111
91.3979 11.2821 2.52548
90.504 9.15746 2.47796
90.4222 9.20583 2.4816
80.1246 18.5223 3.03925
79.8926 16.7069 2.99163
79.8653 16.5694 2.98818
79.8322 16.4398 2.98579
79.6406 15.1137 2.95307
79.4313 13.5011 2.91421
79.4 13.3845 2.91187
79.3892 13.2486 2.90934
78.4324 12.0305 2.90606
78.253 12.0406 2.91103
78.0403 12.0789 2.9193
75.6391 12.4357 3.00431
78.26 9.76775 2.8542
74.6867 10.8753 2.99753
74.627 10.5031 2.99024
74.6399 10.4254 2.98784
73.8204 10.2877 3.0125
73.2225 10.4693 3.03639
66.9983 13.6761 3.31855
66.077 13.9192 3.35538
65.9713 13.9014 3.35785
62.4648 12.895 3.45773
61.9714 12.9895 3.4767
61.4349 13.1894 3.50035
56.1472 15.2373 3.72664
55.6793 15.2857 3.74428
57.0756 12.9002 3.64875
52.1197 14.6681 3.85911
44.1978 17.3363 4.19276
43.1099 16.1061 4.21011
48.4173 13.6621 3.97501
35.3616 16.9752 4.50811
44.8951 13.0724 4.09376
45.0471 12.7995 4.0838
38.7038 13.6852 4.33157
39.9497 13.1267 4.27669
36.8629 13.9831 4.40441
38.5324 12.2408 4.31623
25.4565 -9.49142 4.61148
44.5613 -10.3968 3.86233
40.1452 -12.7698 4.02604
43.4902 -12.995 3.89569
82.1443 -33.1279 2.63612
128.072 -27.345 2.3285
141.775 -29.217 2.67727
149.544 -31.1329 2.89266
152.207 -32.2079 2.9712
158.203 -32.9865 3.1317
171.329 -23.1183 3.43307
171.457 -22.9247 3.43624
171.307 -22.6773 3.43109
171.395 -22.3668 3.43297
171.41 -22.1518 3.43282
171.471 -21.9454 3.43439
171.503 -21.7338 3.43514
171.601 -21.5339 3.43749
171.66 -21.3262 3.43908
170.681 19.7621 3.30626
160.466 30.8097 3.31494
122.329 18.7958 2.48621
122.335 18.9051 2.48965
98.0932 33.0963 2.93774
97.8756 33.6315 2.95718
97.9973 28.683 2.80021
99.6106 15.2715 2.36302
88.945 -22.5668 2.10631
166.698 -33.7705 2.9372
176.801 -34.3227 3.14835
179.588 -34.7436 3.20806
170.861 -23.328 2.98959
170.895 -23.1177 2.99032
170.945 -22.9097 2.99096
170.966 -22.6975 2.99176
171.007 -22.4882 2.99245
171.019 -22.2737 2.99231
171.058 -22.0642 2.99301
171.065 -21.9571 2.99344
171.101 -21.7471 2.99416
171.156 -21.5408 2.99476
171.104 -21.3159 2.994
121.579 18.1827 2.30746
98.9973 35.1333 2.78082
98.8467 35.1948 2.78387
98.2207 31.239 2.68307
78.2765 46.8229 3.32884
76.9737 48.6752 3.3946
152.715 -31.1908 2.38993
170.384 20.2807 2.41902
162.962 17.9106 2.32935
166.54 20.0784 2.38312
160.092 26.5734 2.4076
154.066 25.5004 2.34927
160.889 31.0105 2.47159
161.071 31.4133 2.47738
147.276 36.0476 2.458
100.515 39.4325 2.51146
98.4206 38.6905 2.51115
77.9963 45.6478 2.83922
164.052 -32.7285 2.09242
165.855 -32.8717 2.10943
176.313 -34.3851 2.2056
178.612 -34.6526 2.2265
179.928 -34.8313 2.2389
176.71 15.9153 2.03934
166.322 20.9605 2.03804
122.53 12.3589 1.81841
147.637 -30.5186 1.69919
172.263 26.6708 1.57579
160.655 31.068 1.63103
160.194 30.8677 1.63056
141.267 21.9066 1.62624
141.057 23.7828 1.63842
141.304 24.2226 1.64103
121.967 18.6032 1.66425
101.478 46.9625 1.96691
99.6435 47.4881 1.9807
98.2954 38.0601 1.91806
25.0798 -9.22141 2.19254
25.2766 -9.47159 2.18944
131.25 -24.9151 1.42045
179.883 -35.258 1.27727
170.633 -23.406 1.3384
170.225 -23.1066 1.34081
170.257 -22.898 1.34154
170.179 -22.6673 1.34194
170.167 -22.4502 1.34294
170.204 -22.2435 1.34364
170.238 -22.0351 1.34436
170.28 -21.8291 1.34503
170.328 -21.731 1.3452
170.719 -21.3719 1.34572
171.33 -21.2624 1.34502
176.572 18.0307 1.15316
166.843 25.7262 1.24486
163.857 26.8026 1.26801
163.132 26.6108 1.27195
153.099 22.0043 1.3212
155.9 26.916 1.32083
159.52 31.2194 1.31157
150.038 35.4473 1.38605
149.549 35.3866 1.38932
149.422 35.5418 1.39066
120.731 7.66238 1.4805
148.436 41.6351 1.41604
122.004 18.6428 1.50722
121.918 18.7049 1.50794
104.68 11.3959 1.58497
104.613 11.3734 1.58522
104.546 11.3831 1.5856
104.48 11.4121 1.58607
101.457 47.0059 1.6992
100.175 39.9775 1.68656
100.15 39.3627 1.68504
52.6429 15.4981 1.81592
172.08 -33.653 0.961707
176.689 -32.8773 0.935111
170.571 -23.1451 1.02184
170.795 -21.3546 1.0284
171.188 -21.2071 1.02599
170.159 -16.5552 0.635377
184.199 -9.33194 0.485584
164.524 -4.50673 0.761577
175.015 12.7494 0.67247
166.057 24.5756 0.797973
100.576 39.1972 1.37111
100.433 39.0515 1.37222
100.283 39.0026 1.37279
96.356 26.2906 1.4334
77.1169 35.6232 1.44655
156.138 -29.0822 0.739205
162.933 -29.4475 0.651334
164.066 -29.1012 0.638941
172.623 -23.2837 0.565571
172.666 -23.1797 0.565798
172.711 -22.9661 0.566483
170.513 -22.3255 0.598662
170.622 -22.1302 0.59894
172.851 -22.1032 0.569477
172.851 -21.8809 0.571434
156.261 -3.7079 0.550932
161.467 25.0962 0.44305
156.524 27.6207 0.517605
142.088 20.1418 0.785353
142 20.2648 0.786341
98.6089 34.4108 1.12269
82.437 37.8754 1.11062
97.8412 -23.2517 1.29213
97.8881 -23.2627 1.29184
116.12 -25.8785 1.11687
131.645 -25.0944 0.880611
131.819 -25.0795 0.877772
145.008 -27.5733 0.617512
150.197 -27.9021 0.520144
143.441 -22.5258 0.69341
153.757 -24.5287 0.484194
161.791 -7.1871 0.0342014
161.817 -7.00491 0.0348533
161.816 -6.82388 0.0346374
161.74 -6.64698 0.0377955
161.69 -6.46988 0.0398176
147.996 -3.65181 0.403099
147.218 -1.82665 0.425009
158.174 31.0838 0.00695187
141.967 20.4002 0.451087
148.387 33.6187 0.189714
144.333 32.9776 0.277006
144.274 33.1835 0.275204
144.193 33.3682 0.275421
148.726 43.7431 0.0695887
123.33 20.0488 0.816379
123.197 20.046 0.818057
121.603 18.0044 0.871536
101.921 41.6989 0.680888
101.745 41.9907 0.677063
101.714 39.5178 0.717565
101.511 40.3704 0.704297
101.419 40.5931 0.700732
101.388 38.5236 0.735976
101.077 38.6135 0.734975
112.864 -25.3373 1.04311
135.216 -28.275 0.532344
131.704 -25.1276 0.661154
131.765 -25.0487 0.661177
139.948 -26.7226 0.442457
153.655 -17.36 0.192617
149.646 -11.3324 0.103417
149.954 -11.1997 0.0943868
151.366 -10.1361 0.0556367
153.496 -8.60868 -0.00484252
153.662 -8.45002 -0.0100196
154.647 -6.0485 -0.0337879
154.612 -5.89168 -0.0319268
154.53 -5.81912 -0.0291917
154.466 -5.66615 -0.0271973
154.367 -5.51618 -0.0230353
154.226 -5.3703 -0.0186776
154.301 -5.20538 -0.0203548
154.356 -5.04167 -0.0219365
154.364 -4.88302 -0.0222895
118.083 12.4725 0.869977
101.903 46.8677 0.305256
102.055 41.6267 0.417878
101.897 41.5376 0.420313
101.641 40.3391 0.447479
101.175 40.2194 0.452385
78.7348 43.0418 0.356097
28.8069 -16.1797 -0.0868609
32.4702 -16.5513 -0.0134877
132.01 -25.2447 0.490054
143.803 -20.953 0.204297
143.829 -20.8941 0.204417
143.832 -20.7612 0.205973
142.773 -12.919 0.0802752
142.8 -12.7998 0.0796459
142.837 -12.6808 0.0789684
144.801 -9.90517 0.0217302
145.652 -9.13134 -0.00735538
145.805 -9.06371 -0.0118556
145.946 -8.93085 -0.0170192
146.069 -8.79722 -0.0210803
146.22 -8.66269 -0.0262852
146.426 -8.5251 -0.0337628
146.528 -8.38942 -0.0367064
146.721 -8.25094 -0.0431126
146.9 -8.11043 -0.049438
147.057 -8.03745 -0.0549401
147.207 -7.89669 -0.0601126
147.307 -7.7576 -0.0640283
147.466 -7.61419 -0.0692385
147.597 -7.47168 -0.0743049
147.746 -7.32766 -0.0794552
147.899 -7.18141 -0.0846238
148.079 -7.10256 -0.0912153
148.199 -6.95647 -0.0952112
148.388 -6.80624 -0.101544
148.551 -6.65535 -0.107744
148.677 -6.50702 -0.111758
148.781 -6.35946 -0.115659
148.898 -6.20982 -0.119622
149.031 -6.12827 -0.123962
143.491 32.2229 -0.332888
136.632 25.0823 -0.0110329
136.454 25.1094 -0.00699189
136.288 25.1479 -0.00296287
101.575 46.9371 -0.0317525
77.2569 44.8558 -0.0494169
37.7683 -17.1603 -0.305637
79.603 -20.8032 0.738401
96.2141 -23.0263 1.01255
108.409 -24.7868 0.942618
129.778 -22.4532 0.430679
138.993 -10.6818 0.0065495
133.267 -0.926841 0.249339
133.177 -0.00596622 0.245778
126.84 11.3867 0.310801
102.428 39.8357 -0.163791
103.531 10.7676 0.826206
103.466 10.772 0.826563
83.0856 38.6006 -0.192656
79.7501 33.8933 -0.0906195
77.1436 36.2841 -0.196779
133.024 -20.9956 0.142095
136.332 -16.3753 0.0728285
136.421 -16.3408 0.0695152
147.297 17.3118 -0.837938
147.31 17.5091 -0.842154
146.844 17.6834 -0.825985
147.009 17.9807 -0.838559
146.837 18.0585 -0.833328
146.792 18.2198 -0.834399
146.915 18.4937 -0.844862
146.569 18.9366 -0.840153
143.871 17.4669 -0.696473
143.81 17.6083 -0.696546
125.863 9.44415 0.214499
125.752 9.46646 0.218171
125.635 9.48257 0.222847
125.469 9.51399 0.227846
125.374 9.54912 0.23049
125.298 9.59974 0.232106
125.225 9.65488 0.233721
103.043 39.8295 -0.461019
102.883 39.9793 -0.465542
102.724 40.0481 -0.468421
79.3592 40.2936 -0.618014
89.8713 14.9265 0.43307
38.6537 -16.8112 -1.10475
39.7315 -17.313 -1.06651
130.834 -18.4195 0.112577
142.726 11.9066 -0.791494
142.64 12.1769 -0.792884
142.637 12.335 -0.796186
142.604 12.4763 -0.797407
142.558 12.6104 -0.798589
142.596 12.7131 -0.802341
142.586 12.8691 -0.805619
142.664 13.079 -0.81312
142.695 13.2605 -0.818497
142.739 13.4511 -0.824905
142.787 13.6453 -0.831315
142.84 13.8447 -0.838734
142.968 14.0069 -0.848699
143.024 14.209 -0.855118
143.075 14.4096 -0.862521
143.167 14.6367 -0.872019
143.203 14.8297 -0.877371
143.355 15.0974 -0.891009
143.6 15.4284 -0.909858
143.675 15.5641 -0.91666
143.551 15.659 -0.913609
143.392 15.7298 -0.907476
143.176 15.7624 -0.898216
143.018 15.8331 -0.892088
142.911 15.9357 -0.889089
142.577 16.1493 -0.878436
142.532 16.2935 -0.880578
124.851 9.22804 0.0988191
124.843 9.34051 0.0953495
102.749 46.5796 -1.05341
102.766 40.6656 -0.781986
110.208 -25.0322 0.608212
119.248 -24.3877 0.337033
127.763 -19.2214 0.0960698
127.792 -19.1914 0.095045
135.75 7.50933 -0.588208
138.1 12.0372 -0.826904
138.064 12.1637 -0.828171
138.029 12.2163 -0.827764
137.952 12.4682 -0.830277
102.962 42.8619 -1.21755
102.8 42.7695 -1.2121
102.724 42.5592 -1.20061
42.1772 -3.08817 -1.66091
132.921 9.26651 -0.663945
108.513 10.3048 0.322326
102.787 42.4479 -1.47243
102.698 42.6448 -1.48412
102.537 42.5473 -1.4777
102.381 42.3315 -1.46482
81.768 30.4252 -1.03707
51.3984 5.60478 -1.54633
65.8457 -16.1855 -0.720274
119.97 5.37363 0.0135556
119.097 5.31044 0.0628194
102.839 41.3335 -1.76451
102.683 41.1987 -1.75528
102.527 41.0973 -1.7479
102.453 40.9302 -1.73724
129.033 5.84037 -0.687518
129.039 5.95365 -0.692064
121.309 5.39934 -0.174291
112.504 2.45027 0.452745
102.586 41.2422 -2.00859
92.4084 9.93423 -0.0286361
126.604 3.87463 -0.625377
117.593 -18.6308 0.0474323
111.251 2.63631 0.0610436
117.78 -14.1784 -0.0393454
119.754 -12.8158 -0.206732
119.767 -12.7682 -0.207594
111.864 8.52307 -0.629784
111.814 8.56385 -0.631345
109.909 8.33473 -0.643441
108.807 3.71059 -0.617648
110.275 -16.3693 -0.184812
110.318 -16.3757 -0.190066
108.782 -17.2268 -0.210758
112.887 -12.1542 -0.319214
112.883 -12.1244 -0.317066
112.894 -12.0987 -0.317012
112.899 -12.057 -0.315859
47.8746 -3.25351 -18.1456
47.8108 -3.42603 -18.161
106.952 -9.6523 0.393411
106.927 -9.6456 0.402571
106.833 -10.6111 0.379898
151.082 -14.5928 -18.2525
151.1 -14.4468 -18.253
151.127 -14.2264 -18.2542
151.158 -13.9318 -18.2551
151.171 -13.7852 -18.2545
151.188 -13.638 -18.2549
151.181 -13.4895 -18.2473
103.163 -11.0879 0.691907
103.692 -8.45913 0.790496
103.731 -8.54076 0.829944
103.722 -8.53236 0.825026
103.652 -8.46539 0.767673
103.444 -8.10262 0.580317
103.66 -8.48781 0.778536
103.658 -8.49361 0.780521
103.616 -8.43165 0.747009
103.6 -8.40905 0.734189
105.722 -11.0452 0.5608
105.691 -11.0074 0.584123
105.684 -10.9912 0.592233
105.687 -10.9453 0.605411
28.2996 1.0828 2.24298e-39
