ply
format ascii 1.0
element vertex 299
property float x
property float y
property float z
end_header
174.399 -6.93523 3.92746
172.722 -5.98926 3.86815
170.772 15.6988 3.75237
170.443 15.8556 3.74276
170.293 16.0693 3.73931
170.264 16.3217 3.73829
170.143 16.5445 3.73571
169.876 16.717 3.72784
169.688 16.9157 3.72259
153.961 34.3466 3.40755
149.348 35.0578 3.30227
149.067 35.1111 3.29641
148.804 35.18 3.29039
104.673 16.4664 2.09735
104.59 16.484 2.09638
104.506 16.5017 2.0964
99.2923 17.7397 2.09003
88.5782 10.0444 1.93874
80.4349 20.2022 2.29593
80.141 18.0345 2.25441
74.7316 10.3235 2.23523
74.7134 10.2221 2.2341
63.7005 12.4191 2.57788
63.6732 12.2957 2.57796
63.6129 11.9133 2.57524
52.6511 14.8102 2.94315
56.678 12.357 2.796
41.8039 16.3775 3.30378
41.6787 16.2324 3.30723
41.2033 16.2482 3.32309
35.4707 16.9877 3.51592
35.4388 16.7801 3.51569
39.815 14.4134 3.35911
38.7864 13.7118 3.39003
38.8704 12.4662 3.38213
28.3871 13.5658 3.74186
27.4672 12.8178 3.77194
43.0798 -10.8528 3.29764
45.524 -11.9845 3.22089
30.864 -22.2816 3.87828
41.7323 -20.7242 3.47184
54.7719 -19.8665 3.00365
54.0038 -23.7874 3.10358
143.594 -47.9744 3.76184
153.207 -31.0139 3.59602
166.581 -32.1057 4.01524
159.022 -20.9969 3.59634
158.961 -20.7764 3.59065
159.049 -20.6887 3.59275
159.089 -20.4873 3.591
159.089 -20.2783 3.58828
163.006 -20.5543 3.71442
173.59 -6.81583 3.40214
170.594 15.6545 3.24309
170.503 15.8874 3.24136
170.389 15.982 3.23782
170.298 16.2148 3.23609
170.543 16.5583 3.24175
170.106 16.6757 3.23169
169.418 18.6795 3.21659
161.395 19.2501 3.02955
153.962 34.2254 2.94453
149.092 35.0159 2.85413
115.895 57.7671 2.73553
98.9727 14.7361 1.86445
132.517 -28.5159 2.67439
157.064 -21.3067 3.13695
157.093 -21.1098 3.13527
157.12 -20.9117 3.13358
157.143 -20.7129 3.13089
157.181 -20.5174 3.1292
157.213 -20.3198 3.1275
157.229 -20.2222 3.12666
170.334 16.6913 2.86307
169.449 16.9172 2.84504
140.121 24.0496 2.32217
148.96 35.1164 2.52556
107.465 24.9351 1.92772
107.333 24.903 1.92626
107.212 24.8976 1.92555
107.103 24.9229 1.92557
107.036 24.9039 1.92486
104.675 46.064 2.20832
93.0721 39.7572 2.12143
92.9264 39.6099 2.11994
153.301 -32.1505 2.92517
165.596 -33.3154 3.18023
165.665 -33.0898 3.17823
163.973 -32.0175 3.1289
165.753 -32.2509 3.16713
157.16 -20.9774 2.83602
157.178 -20.7779 2.83434
157.197 -20.5786 2.83166
170.819 16.1369 2.26861
170.581 16.3226 2.26557
170.188 16.456 2.26029
165.474 19.0313 2.19385
165.073 26.2588 2.17409
92.7718 28.9199 1.68139
91.7762 26.7806 1.66909
92.1638 9.90426 1.55243
78.3563 9.49385 1.67251
18.2865 -18.1076 2.82796
123.896 -23.7995 1.98039
123.942 -23.7655 1.98001
170.775 -33.7239 2.68182
163.527 -22.6296 2.4554
163.594 -22.1937 2.45167
173.187 -23.472 2.58928
169.603 -20.9683 2.51508
162.645 21.8299 1.77364
153.648 34.1825 1.67449
120.631 12.3782 1.52387
107.104 45.3028 1.50352
106.934 45.3365 1.5036
106.766 45.3801 1.50358
106.604 45.4481 1.50336
91.4967 31.5677 1.4972
91.8497 26.7587 1.48812
88.088 10.5369 1.47568
143.29 -29.9148 2.02551
169.644 -21.0732 2.12885
165.231 26.1409 1.2297
164.928 26.2659 1.2283
154.027 34.0911 1.17043
104.622 45.9783 1.11909
104.452 46.0161 1.11914
93.9877 25.8652 1.24103
93.8257 25.8766 1.24127
71.4821 52.7649 1.16501
123.722 -24.0239 1.58559
156.777 -20.3713 1.58178
156.82 -20.1784 1.5811
156.788 -20.0709 1.57928
167.244 24.3955 0.868897
155.968 26.6749 0.887538
150.363 28.9003 0.886837
104.878 46.0161 0.85824
104.112 42.2733 0.896695
104.621 46.0591 0.858421
92.5105 36.5522 0.977976
72.2749 53.2102 0.85068
162.072 -32.619 1.36275
156.645 -20.3241 1.28565
142.099 24.1461 0.593199
146.25 27.8544 0.510994
103.452 42.0877 0.573583
75.2283 44.7462 0.567318
71.7857 53.1879 0.433865
71.6879 52.8623 0.438753
52.0651 12.3849 0.954287
153.667 -31.3427 0.982678
168.081 -31.0188 0.84305
169.05 -31.063 0.834399
170.092 -31.1224 0.824723
156.618 -21.8867 0.897578
156.967 -21.7586 0.892797
157.105 -21.584 0.89107
156.791 -21.314 0.891498
156.853 -21.1249 0.889808
156.697 -20.9921 0.891037
156.734 -20.7973 0.889354
174.065 -9.41991 0.145505
150.204 16.7482 0.237339
153.889 25.9727 0.0476167
153.93 26.2467 0.0432725
108.527 10.5499 0.899079
76.8143 34.2568 0.447503
129.122 -27.858 0.949954
149.355 -30.4107 0.656943
149.696 -30.3482 0.651719
149.937 -30.3444 0.648187
156.134 -21.029 0.512498
155.469 15.1593 -0.272522
147.747 16.3814 -0.127545
142.696 18.7797 -0.0658191
142.731 18.9998 -0.0707086
108.616 10.5694 0.733727
104.4 11.2992 0.768472
104.328 11.3053 0.769573
104.266 11.336 0.769447
92.8255 36.2677 0.107636
77.5965 34.9164 0.110427
136.646 -28.0654 0.520012
152.501 16.4862 -0.551303
152.512 16.7067 -0.556145
152.489 16.9127 -0.559797
104.438 11.3354 0.655091
104.357 11.3275 0.656325
92.751 30.8184 0.0657196
136.775 -13.649 0.0158642
140.654 -4.30925 -0.189212
140.782 -4.15244 -0.195771
140.771 -3.93484 -0.197542
140.668 -3.50853 -0.198842
140.017 7.12206 -0.340144
151.083 15.3017 -0.855603
94.1559 -22.8226 1.07211
113.592 -25.6103 0.702688
136.269 -15.9149 0.0405971
136.216 -15.7711 0.042523
136.512 -14.8825 0.0295806
136.621 -14.7655 0.0253887
136.672 -14.6393 0.0232426
133.108 -8.82941 -0.13926
133.213 -8.70972 -0.144465
137.526 5.99512 -0.533684
137.58 6.16427 -0.539191
137.656 6.26477 -0.544177
138.262 7.78325 -0.599958
138.098 7.87775 -0.595397
138.283 8.10331 -0.607642
138.23 8.23903 -0.608649
138.363 8.4476 -0.617646
138.366 8.52792 -0.620314
138.333 8.98978 -0.629055
138.187 9.08886 -0.625569
138.995 9.74132 -0.671629
128.963 -9.04397 -0.171878
132.282 4.16092 -0.527663
131.872 4.15156 -0.509732
132.346 4.44477 -0.537136
131.468 4.20699 -0.492349
131.772 4.57233 -0.514994
117.699 -24.2737 0.260116
123.595 -18.1851 0.0836557
125.107 -17.133 0.0208378
125.835 -15.0185 -0.00711182
125.856 -14.9719 -0.0075389
129.843 3.39427 -0.614276
129.765 3.4899 -0.612903
119.833 4.94859 -0.175273
120.478 -19.7403 0.0469557
43.806 -9.69628 -1.36157
115.256 8.12252 -0.395938
88.393 13.9917 -0.210497
120.506 -1.88167 -0.519368
120.547 -1.7854 -0.525247
115.518 7.66448 -0.570713
106.844 2.54303 0.173566
108.935 9.9249 -0.366662
108.938 10.0123 -0.486394
97.316 8.48692 -0.11365
114.383 -13.7766 -0.209558
102.501 8.97202 -0.390436
80.1844 17.8703 -1.37446
103.933 -22.439 0.0755889
104.001 -22.4464 0.0715096
99.6866 7.79986 -0.406923
103.954 -21.1575 -0.0360242
97.3652 3.98262 -0.0296116
100.674 -18.5646 0.266425
109.795 0.067669 -0.603186
97.3253 4.10246 -0.12652
97.4357 3.98252 -0.192763
97.3046 3.94026 -0.185142
98.5864 -20.3781 -0.0942971
105.877 -15.0451 -0.288425
96.4991 0.382285 -0.178132
97.4116 -8.38671 0.296289
97.4194 -8.38175 0.293232
150.465 -14.6487 -21.8461
150.474 -14.5612 -21.8469
150.498 -14.2112 -21.8458
150.526 -14.0373 -21.8503
150.544 -13.8622 -21.8528
150.554 -13.6869 -21.8523
93.9147 -6.94229 0.558656
93.6554 -9.84107 0.589097
120.435 -14.1907 -9.72006
120.478 -14.116 -9.73177
120.493 -14.0353 -9.73247
120.541 -13.9613 -9.74618
120.573 -13.9265 -9.75653
120.58 -13.8437 -9.75323
94.1283 -7.25061 0.688759
94.1901 -7.24918 0.681619
94.2063 -7.2856 0.699886
94.0786 -7.12135 0.588793
94.1392 -7.23027 0.646567
94.1324 -7.22834 0.643566
94.1156 -7.21095 0.633457
94.079 -7.15462 0.602067
94.0415 -7.1052 0.573737
94.0073 -7.06028 0.547436
94.0327 -7.11004 0.573795
94.0216 -7.10249 0.567755
94.0455 -7.14902 0.59209
94.0012 -7.08964 0.557692
94.0112 -7.22083 0.611754
94.0913 -7.34247 0.678593
93.9857 -7.2596 0.620127
96.2841 -9.74167 0.47481
129.588 -2.0004 -15.2958
129.589 -1.8865 -15.3067
96.2318 -9.79107 0.458326
96.1768 -9.72957 0.495934
96.1738 -9.72206 0.499879
1.15033e-41 0 -1.67214e+20
