ply
format ascii 1.0
element vertex 440
property float x
property float y
property float z
end_header
180.009 -7.58441 3.8102
174.095 -6.77903 3.63547
179.367 -5.73281 3.78636
172.384 15.4694 3.62921
162.341 17.5202 3.37553
161.262 18.0837 3.35219
161.575 21.2869 3.39315
151.748 20.8884 3.14184
149.551 20.1239 3.07837
155.933 24.8814 3.29633
123.917 6.51046 2.27704
160.944 31.7264 3.51087
148.904 45.2282 3.50403
148.967 45.6436 3.51397
149.112 45.9825 3.52386
149.17 46.3986 3.53282
149.237 46.8285 3.54369
103.508 13.3151 2.15275
103.434 13.3055 2.15313
107.087 55.9771 3.40224
106.772 54.9098 3.37124
105.582 50.6377 3.24691
102.675 46.6357 3.13648
100.579 34.4701 2.78483
100.443 34.5826 2.78899
99.961 34.5212 2.78951
98.2449 15.4692 2.23626
98.1214 15.9961 2.25261
88.6218 25.6389 2.64323
78.0732 46.1962 3.38152
78.3537 45.0032 3.34426
77.7998 45.8747 3.37816
77.3069 46.5798 3.40548
91.3581 10.2068 2.1758
91.0508 9.17585 2.15561
90.9212 9.14591 2.15734
80.0349 17.7167 2.614
79.7111 15.4636 2.57206
75.3781 12.4404 2.63515
78.6765 8.24875 2.46047
63.5916 12.3711 3.01363
63.5759 12.2258 3.01232
63.6143 12.0496 3.00889
55.9787 15.2758 3.30997
52.7486 15.6156 3.42465
56.5081 12.3571 3.25786
39.6041 13.9752 3.87715
40.6202 12.9456 3.83176
28.244 14.737 4.29711
24.8577 -9.05503 4.39778
27.0128 -10.4399 4.32056
49.3401 -12.1396 3.47122
53.6114 -14.6248 3.32475
28.9088 -17.7354 4.2956
32.7353 -17.492 4.14765
50.9421 -16.514 3.44326
50.9179 -16.6762 3.44506
40.5676 -18.633 3.85881
44.5471 -18.1822 3.70227
44.7194 -18.3332 3.6971
54.9908 -20.3501 3.33056
55.2217 -21.1226 3.33175
74.3175 -20.3133 2.61791
76.9839 -21.0905 2.53872
61.2621 -32.9998 3.3238
74.6998 -24.9046 2.69557
83.7158 -23.3159 2.36763
86.0033 -21.9559 2.26215
75.0757 -33.2129 2.89102
75.2133 -33.2326 2.88746
87.6385 -22.7973 2.23906
80.2673 -30.8852 2.67785
80.523 -30.743 2.66705
80.5586 -30.84 2.6683
65.6181 -53.2801 3.74035
71.002 -48.0336 3.44091
71.1292 -48.1185 3.44067
65.5342 -60.1223 3.95774
74.7583 -49.5182 3.39861
92.8987 -22.5742 2.10249
92.9476 -22.5852 2.10131
93.4236 -22.6544 2.09437
130.489 -27.6728 2.62813
149.748 -30.8104 3.17927
164.886 -34.7929 3.65029
164.907 -22.3873 3.47762
164.898 -22.1738 3.47576
164.937 -21.9703 3.47471
164.954 -21.8688 3.4732
164.98 -21.6623 3.47221
165.013 -21.458 3.47118
165.053 -21.2556 3.47014
165.055 -21.0448 3.46824
165.1 -20.8431 3.46717
165.133 -20.6386 3.46615
173.669 -6.42935 3.15698
167.732 17.3843 3.05786
169.84 19.2294 3.11217
163.265 17.3566 2.96489
168.857 20.2206 3.09857
170.305 25.5133 3.16637
162.206 21.7441 2.97526
152.028 20.5364 2.76602
148.852 20.2564 2.70207
153.497 23.5297 2.82245
151.26 22.3769 2.76881
148.953 45.1401 3.04016
149.022 45.5617 3.04805
149.087 45.9828 3.05596
149.241 46.3315 3.06376
100.969 39.9878 2.63362
100.65 38.7232 2.60547
96.5815 14.7641 2.07603
78.9177 45.0015 2.96462
78.7109 45.025 2.96849
78.461 45.1558 2.9751
78.2457 45.1977 2.97893
78.1503 45.1872 2.98042
77.5164 46.2479 3.0129
27.9008 16.2264 3.8334
55.0057 -14.423 2.98036
42.1433 -19.0668 3.42827
40.6764 -21.4466 3.49722
23.9269 -27.0172 4.08125
83.0265 -21.0279 2.19916
125.786 -27.1698 2.308
146.57 -31.4181 2.78172
152.508 -34.0697 2.94416
153.481 -31.7189 2.92764
154.128 -31.7943 2.94193
174.184 -34.3706 3.39996
164.43 -22.1646 3.0469
164.467 -21.9617 3.04587
164.491 -21.757 3.04389
164.504 -21.6549 3.04339
164.535 -21.4523 3.04239
164.556 -21.2471 3.04042
164.586 -21.0433 3.03942
164.61 -20.8387 3.03844
164.641 -20.6361 3.03743
164.775 -20.4511 3.03803
176.274 14.5115 2.85004
171.711 17.4749 2.78284
167.856 17.2507 2.71784
166.223 16.9701 2.68967
163.54 17.646 2.64837
171.846 21.4409 2.8014
153.594 23.5255 2.53001
148.934 45.0362 2.69568
149 45.4551 2.7016
149.061 45.8697 2.70756
149.121 46.2883 2.7135
149.206 46.7379 2.7202
100.872 40.3431 2.40957
100.717 40.4966 2.41264
100.562 40.724 2.4174
48.5715 -12.9767 2.93236
170.446 -33.5265 2.95988
171.125 -33.5125 2.97064
172.197 -33.7537 2.99165
173.952 -33.8362 3.02278
169.226 -23.1927 2.8328
176.366 14.2257 2.24881
176.631 14.5697 2.25111
164.273 16.6233 2.13326
158.75 27.6716 2.1143
135.856 20.7313 1.90688
149.001 45.0512 2.1443
149.056 45.4575 2.14732
149.121 45.8765 2.15124
149.184 46.2978 2.15416
149.254 46.7313 2.15799
101.419 40.0731 2.02914
90.5181 9.89682 1.78404
149.545 -30.7742 2.17205
153.836 -31.3631 2.21746
158.284 -32.0401 2.2665
169.555 -33.5077 2.38896
164.108 -22.2941 2.24094
169.234 -23.2349 2.29993
170.307 22.4665 1.80724
166.992 25.502 1.7929
159.052 28.5318 1.76323
158.764 28.477 1.76181
147.619 35.3005 1.73908
148.959 45.0382 1.77154
149.022 45.4534 1.77248
149.095 45.8834 1.77432
149.229 46.2088 1.77532
149.317 46.6619 1.77699
102.103 41.866 1.78434
101.947 42.0389 1.78534
101.319 38.989 1.7702
61.4582 11.8847 2.03166
127.453 -24.1956 1.74259
169.853 -33.5895 2.01491
173.121 -34.0938 2.03474
174.05 -34.1521 2.03964
174.814 16.8101 1.2821
171.324 25.5711 1.26132
147.834 35.1493 1.2867
147.593 35.205 1.28659
148.995 44.983 1.26459
149.065 45.4044 1.26348
149.121 45.8145 1.26248
146.059 42.694 1.27604
149.368 46.6187 1.25992
102.455 41.9139 1.42648
97.3551 -23.1712 1.61015
160.413 -32.3798 1.51196
175.796 -34.5612 1.49719
163.962 -22.4115 1.4551
164.096 -21.6053 1.45106
163.98 -21.4785 1.45007
164.128 -21.2987 1.44961
164.164 -21.0977 1.4486
164.184 -20.8947 1.44764
164.176 -20.6854 1.44579
154.509 -14.5869 1.1762
176.154 -6.68757 1.00839
163.71 26.4647 0.93117
152.261 21.6562 1.02415
155.459 26.9301 0.977827
147.692 35.3347 0.980571
147.218 35.4472 0.982317
148.961 44.9993 0.921679
122.645 16.1551 1.22711
149.195 46.6578 0.910553
108.114 10.3727 1.33964
102.534 42.1609 1.18406
102.371 42.1439 1.18489
98.3558 31.5806 1.26445
81.3689 49.2728 1.23701
83.7489 39.0626 1.28513
92.0222 10.3232 1.41518
90.6443 10.0265 1.42189
79.6796 15.311 1.43483
35.3856 16.9479 1.57626
35.2349 15.7118 1.5832
111.013 -21.723 1.46907
164.062 -22.406 1.14861
163.832 -21.7356 1.14685
163.806 -21.5229 1.14606
163.827 -21.3198 1.1451
163.854 -21.2215 1.14456
163.952 -21.0336 1.14331
164.086 -20.8507 1.14191
164.088 -20.6439 1.14102
164.358 -20.4846 1.13908
168.915 -16.8329 0.657265
178.729 -8.52563 0.502116
152.561 -0.365052 0.791045
161.487 2.6285 0.662571
159.211 30.5172 0.487051
147.218 35.9411 0.566215
122.381 16.014 1.01694
122.319 16.1047 1.01584
81.4277 45.9472 0.885818
126.806 -27.4909 1.19057
159.316 -31.9858 0.812415
159.561 -31.8674 0.808765
162.456 -31.3102 0.77385
160.006 -29.8056 0.800946
164.09 -22.4666 0.734726
164.161 -22.2727 0.733572
164.564 -22.1446 0.728141
163.403 -21.2924 0.739965
163.549 -21.1143 0.737528
164.272 -20.7309 0.72752
164.114 -20.4962 0.729262
164.93 -20.4312 0.718169
173.573 -9.42183 0.121042
172.184 -9.19247 0.145575
147.584 -2.69931 0.572232
159.738 30.8163 0.0383075
158.741 31.4945 0.046101
150.197 30.6758 0.192571
136.487 25.1282 0.476266
136.351 25.2154 0.477533
122.328 16.0388 0.811074
103.073 10.3629 1.11727
98.6743 31.5194 0.754211
81.7683 46.5159 0.517806
81.5776 46.5038 0.51875
146.273 -29.9737 0.655943
146.95 -29.9262 0.644574
148.446 -29.2455 0.618684
148.721 -29.1819 0.614127
146.923 -25.6684 0.648657
150.966 -26.2031 0.575996
152.46 -25.4362 0.548753
154.414 -24.9302 0.513459
153.571 -23.0648 0.528501
145.579 -2.12869 0.287197
142.458 5.80682 0.290181
120.715 1.25023 0.869292
124.275 5.75747 0.721523
148.855 26.6284 -0.155005
108.782 44.8725 0.0732986
78.6226 57.2095 -0.154793
81.5784 46.0623 0.120609
85.518 -21.4208 1.20914
128.535 -24.7546 0.74787
128.81 -24.7899 0.740733
141.637 -23.9034 0.438921
164.295 -20.5334 -0.124445
148.207 -9.73735 0.01813
149.37 -8.90193 -0.0218554
149.95 -8.27287 -0.0422363
144.413 22.7594 -0.273814
144.293 22.7785 -0.270336
108.914 44.8461 -0.207215
108.747 44.8923 -0.206628
93.7593 13.9355 0.795731
79.4865 44.2441 -0.134899
79.1773 44.046 -0.130611
129.981 -27.8104 0.516047
130.313 -27.5621 0.509438
142.76 -20.6215 0.191754
148.798 16.2566 -0.599795
147.567 17.0512 -0.5744
146.257 16.4188 -0.519583
119.251 5.75583 0.564049
103.831 11.995 0.694803
109.187 44.7277 -0.530996
81.3038 48.9487 -0.626351
79.6731 43.6087 -0.452086
79.4266 43.75 -0.458531
79.2949 43.8396 -0.463294
79.2252 43.5284 -0.452649
78.8307 44.0333 -0.472942
138.803 -3.65621 -0.215618
138.722 -3.5436 -0.212717
138.723 -3.42057 -0.214245
138.671 -3.30501 -0.21349
146.778 16.3817 -0.883875
82.2387 45.8839 -0.894747
81.7674 36.4088 -0.515383
137.933 7.1858 -0.584497
137.956 7.3371 -0.588244
138.581 9.3626 -0.662755
141.305 12.0528 -0.848911
141.212 12.1672 -0.847957
141.201 12.3253 -0.851577
141.103 12.4384 -0.849597
141.047 12.5726 -0.850906
122.894 -21.3872 0.292003
132.951 5.56986 -0.528324
132.916 5.67692 -0.528613
132.955 5.94402 -0.537929
133.502 6.51615 -0.579912
133.621 6.70105 -0.590255
133.463 6.75402 -0.583739
133.2 7.92203 -0.601457
133.226 8.19903 -0.610755
133.308 8.37617 -0.619889
123.693 4.85408 -0.0519399
130.747 -1.51404 -0.464987
130.448 5.19045 -0.604998
130.509 5.33522 -0.612898
130.422 5.41035 -0.609808
130.483 5.67531 -0.621217
54.4689 -15.536 -0.884484
122.561 -18.3353 0.0606236
128.658 2.35555 -0.590606
128.669 2.464 -0.59412
128.674 2.57048 -0.59759
128.734 3.01629 -0.613764
128.78 3.09051 -0.618294
128.789 3.20037 -0.6228
128.811 3.31645 -0.627393
128.802 3.41968 -0.629791
128.808 3.52998 -0.633285
128.8 3.63405 -0.635692
128.816 3.74901 -0.640251
128.834 3.81108 -0.642598
128.821 3.91487 -0.64498
128.809 4.01768 -0.647357
128.804 4.12444 -0.650786
116.227 -21.3472 0.224043
102.11 7.93141 0.220065
124.228 1.88658 -0.618879
74.9184 12.3443 -0.938358
122.484 0.836084 -0.616265
122.494 0.924593 -0.620686
92.9491 2.64161 0.272369
92.9255 2.59651 0.275671
92.8937 2.56471 0.276955
79.3845 13.301 -1.33333
103.517 9.4096 -0.465799
103.433 9.26319 -0.448782
80.0001 17.7341 -1.846
108.66 -21.3628 0.047528
111.111 6.2084 -0.598785
111.061 6.23882 -0.597679
110.97 6.31649 -0.598583
110.989 6.39649 -0.607013
110.25 5.71333 -0.616657
110.164 5.78717 -0.61757
96.4895 0.558603 0.235621
108.804 3.07056 -0.624688
108.712 3.02114 -0.612049
107.72 1.91344 -0.403711
95.1718 -19.392 -0.11268
93.2337 -16.9105 -0.180123
106.837 -16.7903 -0.180317
95.8041 2.38406 -0.822927
95.7698 2.36371 -0.82168
95.7312 2.35509 -0.822463
95.7066 2.31015 -0.816157
108.559 -12.6112 -0.204086
99.3958 -7.70162 0.681025
120.836 -14.178 -7.60307
120.85 -14.1134 -7.60241
120.865 -14.0822 -7.60561
120.889 -14.02 -7.60999
120.905 -13.9556 -7.61134
120.919 -13.8899 -7.61068
120.918 -13.8211 -7.60497
99.5262 -7.95725 0.7725
99.6123 -7.99879 0.787273
99.6082 -7.99922 0.786294
99.5372 -7.92873 0.727327
99.5443 -7.94991 0.737383
99.5418 -7.95358 0.738411
99.5093 -7.90461 0.711355
99.486 -7.87611 0.694343
99.4288 -7.7944 0.649263
99.4287 -7.80244 0.652298
99.4473 -7.84239 0.67238
99.4363 -7.83477 0.6664
99.4435 -7.85496 0.676452
99.4654 -8.00728 0.740996
99.4598 -8.06095 0.75925
101.633 -10.3681 0.584849
101.581 -10.4609 0.555484
101.565 -10.4413 0.567477
101.512 -10.381 0.60447
101.664 -10.4759 0.52216
0 2.27571e-42 0
