ply
format ascii 1.0
element vertex 441
property float x
property float y
property float z
end_header
182.34 -5.30406 3.73171
178.065 12.7054 3.72066
154.805 18.9484 3.2134
167.49 26.0273 3.62829
152.363 34.8685 3.47502
114.702 2.09261 2.01164
101.065 35.7376 3.06616
98.7072 31.4105 2.93896
99.7499 16.3238 2.41992
99.6668 16.336 2.42143
98.9982 13.3412 2.32814
98.3048 14.9113 2.38852
97.9591 15.0559 2.39764
97.5555 16.2591 2.44322
78.7277 47.2615 3.75592
78.6751 45.924 3.71609
78.3589 46.1725 3.73003
77.6651 47.0301 3.77034
77.5629 46.7813 3.76393
91.7268 10.4099 2.3589
91.7704 10.0387 2.34659
90.7293 9.98193 2.3689
80.2793 19.3767 2.89634
79.9782 17.2468 2.84892
78.981 11.919 2.74836
74.8172 11.5354 2.87357
74.2764 10.1067 2.86369
72.3407 10.5368 2.93747
65.4144 14.0225 3.24087
64.7788 14.0913 3.26374
64.5963 14.0392 3.26984
64.2839 14.0658 3.28073
63.6757 13.0249 3.2843
63.6713 12.8638 3.28131
63.6622 12.7884 3.28036
57.0297 15.1617 3.55585
53.3485 15.6645 3.69623
57.1711 12.2029 3.50566
46.046 16.7413 3.97864
44.0048 16.0235 4.04493
48.0013 13.4723 3.86141
48.1143 13.2233 3.85469
47.8109 13.2486 3.86554
47.8782 13.0184 3.8601
37.1435 16.9457 4.31265
44.1677 13.1556 4.00162
44.1278 12.9593 3.99984
39.6996 13.6393 4.17577
38.7608 12.6246 4.19935
27.9464 15.1871 4.63922
27.0105 13.792 4.66074
26.945 13.5519 4.66111
41.1396 -10.8662 3.97626
27.3741 -11.4068 4.52568
49.4099 -11.0194 3.64709
52.8209 -11.7869 3.51132
48.7711 -12.8219 3.67476
53.9251 -12.5823 3.46853
49.4891 -16.8353 3.65895
40.0296 -18.5382 4.04112
40.145 -18.7229 4.0374
41.5855 -18.6085 3.97968
41.6262 -18.7994 3.97941
42.9433 -19.1763 3.92938
55.364 -20.651 3.45089
55.5835 -20.6771 3.44256
32.4014 -27.9287 4.40232
71.576 -20.4 2.82261
75.3404 -21.7781 2.69862
61.3476 -31.7624 3.35635
61.4241 -31.8888 3.35587
82.4756 -23.4195 2.47117
83.6556 -22.7859 2.41908
47.8076 -50.0892 4.15639
66.04 -41.7649 3.38977
66.2656 -41.7696 3.3824
81.5787 -30.2061 2.64584
72.4203 -42.8288 3.22196
76.9174 -38.2462 2.9782
76.8955 -38.3613 2.98132
75.3664 -41.7615 3.11121
75.4718 -41.8426 3.11056
67.0634 -55.8041 3.70598
93.9182 -22.6962 2.10686
93.9702 -22.7069 2.10554
135.971 -28.7929 2.61419
165.134 -32.2414 3.38298
168.382 -22.7217 3.38336
168.435 -22.5171 3.38307
168.45 -22.3061 3.382
168.505 -22.103 3.38269
168.545 -21.8965 3.38247
168.546 -21.7896 3.38147
168.628 -21.5903 3.383
168.644 -21.3794 3.38193
168.755 -21.1854 3.38428
168.837 -20.9862 3.3848
154.965 19.1723 2.84245
154.93 19.2603 2.84267
164.707 33.5659 3.22102
98.5423 30.7795 2.66189
76.5318 48.2913 3.42834
47.6309 -13.9629 3.37154
51.0792 -15.3261 3.25947
39.2402 -19.0819 3.66684
26.1181 -26.4054 4.13759
43.1313 -24.5434 3.56763
171.583 -33.835 3.10369
178.357 -34.5034 3.24454
168.064 -22.9563 2.95326
168.133 -22.7572 2.95386
168.176 -22.5513 2.95362
168.222 -22.3469 2.95337
168.227 -22.1343 2.95236
168.253 -21.9258 2.95123
168.285 -21.7193 2.95106
168.304 -21.616 2.95095
168.336 -21.4093 2.95079
168.367 -21.2017 2.95062
168.336 -20.9839 2.94883
168.782 -20.8481 2.95815
166.951 25.6923 2.80051
151.409 20.752 2.53218
162.784 32.1644 2.82351
76.2235 46.2765 3.09298
76.0803 46.1267 3.09183
27.5387 13.2814 3.76646
119.728 -26.4671 1.95993
129.184 -24.7177 2.0508
129.099 -24.5597 2.04733
173.487 -33.8189 2.79014
176.317 -34.0171 2.83496
176.331 15.2878 2.25544
164.597 17.5954 2.17285
168.153 21.0103 2.22268
168.226 26.6148 2.26287
121.245 12.9379 1.85119
98.7048 44.8402 2.37749
98.9622 39.2589 2.29029
98.8204 39.1048 2.28913
89.2502 26.1144 2.18369
129.073 -24.8047 1.81946
129.049 -24.7366 1.8186
129.074 -24.6403 1.81846
129.142 -24.5694 1.81806
129.232 -24.5107 1.81852
157.282 -31.9072 2.0806
165.214 -32.8999 2.1504
166.186 21.7093 1.85068
156.036 19.2512 1.80895
159.235 29.5513 1.87272
147.633 38.0149 1.91102
147.79 38.3296 1.91311
24.4899 -8.10231 2.78251
172.491 -4.62159 1.31446
172.254 24.8924 1.34324
159.049 29.4843 1.39583
147.684 37.993 1.45571
147.733 38.3456 1.45645
147.866 38.6393 1.45667
98.1443 16.2763 1.62964
115.369 -25.7472 1.50343
129.828 -24.758 1.44887
177.873 -34.898 1.3084
167.722 -22.9095 1.33031
167.43 -22.7434 1.3311
167.416 -22.5291 1.33121
167.412 -22.3163 1.33126
167.408 -22.1046 1.3303
167.449 -21.9023 1.33008
167.478 -21.6964 1.32992
167.52 -21.4943 1.32969
167.552 -21.3948 1.33051
167.646 -21.2014 1.32996
167.935 -21.0416 1.32823
168.539 -20.9362 1.32657
178.551 -7.85714 0.93934
177.205 -7.65399 0.949523
177.105 -7.42198 0.950158
175.959 -7.34002 0.959118
175.965 -7.10953 0.959105
171.451 -5.96325 0.993609
172.475 24.506 0.976849
147.753 38.7123 1.14636
103.97 42.6908 1.4343
103.803 42.5183 1.4353
26.554 14.0214 1.85748
175.651 -32.7102 0.953111
167.824 -22.6882 1.01771
168.406 -20.8835 1.01338
165.717 -16.3332 0.633193
166.001 -16.1625 0.629492
166.198 -15.9822 0.627317
166.747 -15.3278 0.620064
180.25 -8.743 0.434931
162.789 -5.60858 0.677166
162.815 -5.41733 0.67703
159.421 -3.4942 0.722828
176.732 -0.951973 0.481145
152.556 -3.35082 0.818474
147.884 39.3901 0.722637
148.012 39.6837 0.719895
148.079 40.069 0.716529
72.2749 52.0228 1.16554
87.3522 -21.6311 1.45378
154.736 -31.4978 0.753068
155.506 -31.2398 0.743425
155.735 -31.1399 0.741048
155.925 -31.0222 0.738909
156.102 -30.8995 0.736852
156.345 -30.8988 0.733375
156.216 -30.6524 0.736189
156.754 -30.6696 0.728924
156.93 -30.5428 0.726869
157.142 -30.4282 0.723598
162.488 -27.963 0.658458
162.374 -27.6198 0.661191
162.034 -27.3132 0.666288
161.958 -27.089 0.66777
161.912 -26.873 0.669074
161.901 -26.6672 0.669166
167.704 -21.9767 0.598505
167.925 -21.8069 0.596185
170.082 -21.776 0.566114
170.07 -21.5561 0.567207
172.689 -9.30255 0.110708
171.574 -9.09073 0.132493
170.316 -8.67505 0.158168
146.613 35.7577 0.370926
147.866 39.3055 0.314728
150.318 54.7107 0.113601
101.589 39.0692 0.846318
98.1928 32.2453 0.958139
98.1734 16.68 1.1735
98.0893 16.6721 1.17301
130.469 -24.9624 0.900953
145.171 -28.7773 0.60237
145.83 -28.5878 0.591393
148.606 -27.7796 0.54365
149.632 -27.762 0.523435
148.486 -25.3596 0.557655
148.241 -25.1155 0.56317
147.901 -24.8403 0.571261
149.877 -24.1181 0.536358
149.062 -23.7077 0.553347
151.017 -24.1385 0.513443
152.063 -23.5286 0.496173
154.031 -23.3054 0.458265
151.674 -16.2951 0.181344
151.681 -16.1396 0.181316
152.697 -13.893 0.159414
152.756 -13.7391 0.158068
152.791 -13.6633 0.157868
153.155 -12.1814 0.149826
146.616 -1.4737 0.314694
149.841 28.3979 -0.0344895
141.073 22.8613 0.234056
141.021 23.0235 0.23239
140.93 23.1531 0.232958
146.384 27.9351 0.0484221
125.895 10.8724 0.72974
125.835 10.948 0.730116
125.805 11.0523 0.729305
125.827 11.1371 0.727184
136.19 20.78 0.368434
125.861 11.5617 0.721027
125.904 11.7362 0.717782
144.83 33.1726 0.00744152
135.423 26.2367 0.3047
121.328 11.9507 0.808559
104.864 46.0216 0.342237
104.69 46.04 0.343295
104.516 46.0887 0.343354
104.43 46.1326 0.342878
81.8783 45.5039 0.413555
77.8701 44.2697 0.428719
130.551 -25.0089 0.677448
136.616 -27.2223 0.506416
136.714 -27.1377 0.50483
136.839 -27.067 0.502083
136.934 -27.0475 0.49951
141.134 -23.5857 0.42343
147.652 -21.7751 0.265114
147.74 -21.6476 0.263592
148.157 -21.6066 0.253066
148.372 -21.5108 0.247773
148.317 -10.2551 0.0493812
149.999 -8.87022 -0.00466273
151.411 -7.62473 -0.0510851
151.621 -7.46241 -0.0573384
149.592 -4.06651 0.000350153
145.107 17.9204 -0.0559683
143.773 17.1455 -0.00796583
143.508 17.1561 -0.000356209
143.272 17.1835 0.00607485
125.87 10.1483 0.584807
148.072 35.2493 -0.416993
105 46.0147 0.0574081
104.826 46.0612 0.0574628
104.653 46.0997 0.0575177
104.478 46.1274 0.057581
104.304 46.167 0.0586411
77.8992 44.5431 0.119568
81.5699 34.1871 0.381143
141.854 -21.5103 0.209295
143.007 -19.2768 0.188558
143.027 -19.1483 0.188452
133.892 -1.17589 0.293877
145.239 17.7885 -0.357792
148.008 27.0489 -0.619536
147.851 27.1568 -0.616572
125.117 10.1302 0.427371
125.689 10.7599 0.396973
105.457 45.82 -0.270395
105.285 45.8745 -0.270346
105.113 45.9159 -0.2703
104.94 45.9595 -0.270243
104.855 45.9902 -0.270721
104.682 46.0387 -0.270668
150.348 15.7989 -0.851004
150.078 16.7147 -0.857262
149.476 17.4467 -0.847527
149.487 17.6502 -0.851574
149.451 17.8262 -0.853337
145.375 16.9902 -0.677712
145.449 17.4109 -0.689111
126.585 10.5173 0.170509
118.738 5.15701 0.580486
118.727 5.2395 0.579563
118.836 5.43385 0.569928
105.49 45.8352 -0.633596
105.319 45.8896 -0.634554
105.145 45.9231 -0.634495
104.973 45.9806 -0.635449
78.995 40.6427 -0.476529
81.0981 33.5503 -0.20808
135.318 -14.7984 0.0436862
135.389 -14.7048 0.0402644
144.693 13.2221 -0.862005
145.597 14.8573 -0.937303
145.773 15.1367 -0.95134
145.704 15.2773 -0.951903
145.571 15.2906 -0.946099
144.799 15.9142 -0.925343
144.639 15.9072 -0.918375
144.554 16.036 -0.917844
144.411 16.1287 -0.913966
144.491 16.3595 -0.922426
105.572 45.8118 -0.962105
105.399 45.8462 -0.962053
81.5849 32.7228 -0.455129
70.3023 4.47099 0.141096
121.132 -24.4829 0.34561
131.009 -16.3454 0.0476372
139.249 12.4882 -0.847078
139.202 12.6164 -0.847779
139.24 12.7959 -0.853986
117.308 5.27237 0.38317
105.373 45.7931 -1.27691
117.161 -25.4395 0.345584
117.211 -25.3943 0.345286
129.474 -8.5448 -0.162175
129.988 -7.53869 -0.197179
130.059 -7.44701 -0.202599
105.568 45.7451 -1.6281
105.396 45.7854 -1.62806
105.224 45.8279 -1.629
105.051 45.8733 -1.63095
121.983 5.65053 -0.119145
105.371 45.8404 -1.9259
105.2 45.8888 -1.92786
123.259 -16.8507 0.039574
123.272 -16.7829 0.039503
123.306 -16.7222 0.0383027
123.321 -16.6546 0.0392198
123.194 -16.5754 0.0489978
128.507 4.5593 -0.663835
128.497 4.65876 -0.666765
117.34 1.7544 0.154572
105.564 45.7462 -2.30709
105.393 45.8026 -2.31004
105.22 45.839 -2.31099
105.048 45.8925 -2.31294
126.522 3.40776 -0.627931
115.882 5.57074 -0.0421616
94.9941 5.66774 0.191512
123.331 1.57173 -0.624791
113.515 2.95116 0.0288969
121.972 0.69956 -0.607645
112.996 8.74725 -0.476305
91.8689 22.0159 -1.48572
119.171 -4.42352 -0.386239
98.7107 9.59106 -0.503593
110.357 8.15523 -0.671375
97.2325 5.1819 -0.294124
105.762 -20.515 0.0322535
113.526 -16.2128 -0.181342
113.539 -16.1743 -0.179415
113.494 -16.1 -0.169136
109.346 4.72859 -0.649632
109.247 4.75015 -0.647029
109.199 4.76517 -0.645741
114.899 -10.5339 -0.294025
114.913 -10.4966 -0.296109
99.0669 -19.4678 0.029968
113.145 -7.97379 -0.300103
113.138 -7.87462 -0.302044
47.6853 -3.28621 -17.621
47.7 -3.46219 -17.6091
105.283 -9.43336 0.38442
101.827 -7.97193 0.686546
121.077 -14.1512 -6.67601
121.094 -14.0941 -6.67711
121.101 -14.0648 -6.67715
121.101 -14.0042 -6.67114
121.123 -13.9477 -6.67427
121.131 -13.8883 -6.67231
121.157 -13.8334 -6.67746
121.144 -13.7698 -6.66637
101.985 -8.275 0.799553
102.052 -8.2676 0.791149
102.063 -8.30964 0.809077
101.92 -8.10788 0.681965
102.017 -8.27963 0.771361
102.005 -8.26474 0.763436
101.998 -8.26274 0.760477
101.967 -8.21977 0.736671
101.944 -8.19112 0.720815
101.892 -8.11584 0.679137
101.911 -8.15806 0.700016
101.905 -8.15719 0.698052
101.919 -8.18453 0.711963
101.907 -8.1736 0.70504
101.73 -7.90525 0.56014
101.961 -8.37447 0.794692
104.028 -10.6957 0.62589
104.088 -10.8481 0.537507
104.044 -10.795 0.569784
104.041 -10.7845 0.5748
103.942 -10.679 0.642416
1.15033e-41 0 -1.06982e+20
