ply
format ascii 1.0
element vertex 483
property float x
property float y
property float z
end_header
167.216 -5.38631 3.6481
133.332 8.40032 2.57543
132.827 8.66882 2.56134
141.678 22.5395 2.85248
140.698 22.7118 2.82819
141.47 23.4014 2.85278
136.546 20.5865 2.70981
121.391 11.9873 2.272
105.138 18.963 2.04525
105.076 18.9515 2.0436
96.1128 38.6283 2.41059
80.7247 47.5263 2.68557
77.3813 46.7088 2.70286
80.6881 21.7892 2.12225
80.1022 17.6058 2.04434
79.7723 15.2219 2.00173
77.5081 12.0567 1.98781
76.2864 12.2438 2.01826
76.185 12.2553 2.02051
74.9306 11.4105 2.0374
74.9028 11.3215 2.03648
74.8281 10.7462 2.03008
68.0018 13.4192 2.24988
65.4298 13.8625 2.32849
65.2424 13.8872 2.33391
64.8823 13.99 2.3461
54.2175 15.5081 2.68873
57.0226 12.7403 2.57878
38.0996 16.6764 3.23229
34.3726 -21.0573 3.65335
33.3026 -31.7407 3.92061
73.6843 -21.1282 2.28427
107.173 -24.7678 2.28791
165.999 -33.2981 4.05707
164.511 -31.7661 3.98173
152.06 -21.4126 3.41586
152.079 -21.2133 3.4126
152.167 -20.1189 3.39526
152.197 -19.9222 3.39299
152.217 -19.7251 3.39075
152.893 -19.6501 3.40944
169.203 -1.95607 3.17509
164.123 17.0872 2.95169
163.692 17.1988 2.94205
107.024 24.1099 1.93578
106.953 24.0967 1.93519
106.827 24.0984 1.93363
97.2779 34.5665 2.04687
97.1998 34.5079 2.0458
97.2523 38.4993 2.11079
97.0226 37.949 2.10167
95.8899 37.6766 2.09784
134.046 -36.412 2.94385
137.866 -30.5355 2.87826
151.651 -19.6968 2.9765
168.945 -2.40641 2.80196
140.112 21.8905 2.16732
105.522 11.0582 1.6456
108.612 29.4264 1.82555
108.447 29.3861 1.8246
108.354 29.3428 1.82342
117.214 57.3451 2.14836
98.6736 38.6169 1.89125
96.3327 37.3202 1.8771
96.1733 37.2004 1.87601
96.0182 37.1114 1.87455
95.8644 37.0312 1.874
95.7159 36.9886 1.87301
31.3491 -22.1388 3.11332
22.855 -24.4193 3.36966
165.731 -34.0539 3.1843
165.916 -33.8528 3.18441
163.865 15.0967 2.00543
160.708 26.4325 1.91159
158.732 27.2143 1.88828
140.23 22.1455 1.72906
140.334 22.4216 1.72864
117.459 53.6889 1.60357
120.722 61.677 1.63485
110.566 39.4607 1.54517
112.242 43.8267 1.56206
112.072 43.8753 1.56215
111.907 43.9381 1.56207
96.2595 34.2103 1.51849
82.2753 47.5786 1.62922
79.7772 45.2469 1.63602
76.4722 44.7775 1.65734
76.3152 44.7029 1.65874
47.8613 -13.2407 2.22276
25.2346 -23.3744 2.78438
121.263 -23.3314 1.93823
155.905 -31.7363 2.43798
156.952 -31.8809 2.45172
151.208 -21.499 2.23087
151.361 -19.7322 2.2069
152.647 -19.5774 2.21947
141.267 22.7755 1.4323
141.108 22.789 1.43174
122.382 11.6021 1.40252
136.132 20.771 1.41822
136.022 20.8028 1.41728
111.928 9.28463 1.36646
101.22 14.3893 1.32184
120.737 61.4804 1.24692
96.2573 27.6272 1.30777
77.7857 48.2795 1.36704
77.2703 46.182 1.37197
77.6723 35.2278 1.38276
77.5252 35.2235 1.38435
18.5311 -18.7855 2.47366
121.32 -23.2596 1.76023
140.453 -29.5754 1.96113
145.014 -30.2335 1.99656
163.259 20.2494 1.02402
160.348 26.1972 0.968439
159.859 26.2302 0.968874
159.364 26.2572 0.969402
158.278 26.9246 0.963072
141.788 22.8149 1.01792
141.451 22.8325 1.01797
141.115 22.7388 1.01924
140.97 22.8695 1.01833
140.909 23.2681 1.01418
114.353 45.6469 0.864252
113.686 45.2732 0.868813
113.69 45.7393 0.864682
121.814 64.9927 0.689356
121.686 65.3251 0.687179
111.665 43.9576 0.884702
111.151 44.0973 0.884059
110.982 44.1477 0.88413
92.4217 9.56801 1.21117
82.9306 48.22 0.944718
82.9337 46.8701 0.955528
77.8037 43.4039 1.00448
77.3925 43.3392 1.0067
77.2461 43.2398 1.00833
76.578 45.162 0.99669
73.6838 53.173 0.945386
69.0468 68.7757 0.843143
73.2587 52.8476 0.950525
50.0773 -20.2388 1.7724
25.8764 -28.2047 2.029
91.4068 -22.2965 1.55479
129.327 -27.9396 1.57011
153.931 -31.5229 1.59486
151.043 -21.6085 1.47862
151.089 -21.418 1.47637
151.107 -21.2227 1.47415
151.127 -21.0265 1.47193
151.161 -20.8343 1.46969
151.192 -20.3419 1.46417
151.177 -20.1399 1.461
151.198 -19.9448 1.45879
143.941 6.74765 0.910399
163.953 20.294 0.651956
163.778 20.4916 0.650431
163.644 20.7056 0.649575
160.44 25.3365 0.611526
151.746 21.5683 0.69992
155.414 27.1925 0.615656
155.503 27.5061 0.611885
141.37 20.5552 0.764256
141.317 20.7364 0.762461
140.949 23.0945 0.736923
114.811 48.852 0.546354
119.668 60.7144 0.378213
95.2766 4.81925 1.17579
83.1806 48.9378 0.668897
82.8448 47.3999 0.68902
75.509 46.3997 0.726018
75.3697 46.2367 0.728321
73.2961 52.6177 0.655892
77.6097 34.7459 0.865246
151.121 -21.5058 1.18419
150.884 -21.1529 1.18119
150.88 -20.9534 1.18001
150.879 -20.7532 1.17782
150.948 -20.1722 1.17118
150.978 -20.0796 1.17006
151.062 -19.8975 1.16775
151.266 -19.7397 1.16426
152.122 -19.5029 1.15751
170.089 -7.12183 0.42336
169.784 -6.99969 0.425142
97.8596 36.6214 0.482059
79.9903 43.5459 0.413829
79.835 43.4841 0.415079
73.5852 52.1135 0.266337
77.8713 33.9258 0.597269
121.108 -23.4821 1.14041
166.241 -30.4438 0.698615
164.823 -28.3766 0.696139
164.918 -28.1507 0.69231
165.112 -27.951 0.688403
151.773 -21.5021 0.781721
151.67 -21.3783 0.781743
151.511 -20.3397 0.773923
151.88 -20.2133 0.768178
151.081 -19.7553 0.77309
152.133 -19.5586 0.759054
145.335 3.83056 0.23425
98.271 47.7345 -0.0735104
76.5684 43.4458 0.0955069
76.4518 43.2362 0.101238
76.3066 43.1387 0.103844
76.1705 43.0056 0.106807
78.6958 31.3163 0.392871
144.553 -28.9964 0.57058
145.998 -27.6679 0.537669
143.706 -25.171 0.560697
153.275 -21.4739 0.368853
153.352 -20.3546 0.358281
153.329 -20.1443 0.357056
145.117 -13.057 0.0544591
144.839 -12.8577 0.0592978
144.894 -12.6899 0.0572511
144.978 -12.5241 0.0531208
144.981 -12.4377 0.0521603
144.979 -12.2647 0.0502674
145.081 -12.1004 0.04709
145.074 -11.9267 0.0452077
150.974 -6.16473 -0.160798
150.139 -5.99935 -0.142538
149.047 -5.48012 -0.121214
148.999 -5.38949 -0.121033
148.894 -5.20895 -0.12063
148.834 -5.02769 -0.121399
148.665 -4.85213 -0.119704
148.609 -4.67143 -0.120482
136.589 -1.81011 0.138384
160.87 15.2821 -0.717753
121.01 4.83902 0.404763
124.878 7.07965 0.272911
96.1451 29.7397 0.120908
90.2795 8.79329 0.820538
80.3084 43.62 -0.275202
80.1218 43.7142 -0.278549
77.6708 35.5866 -0.0272688
80.093 26.8453 0.250806
80.09 26.6538 0.25592
129.524 -27.996 0.505935
122.64 -23.6338 0.653399
131.582 -27.3629 0.4594
133.436 -22.7836 0.40229
142.184 -21.8872 0.19022
142.57 -21.8159 0.180016
143.012 -20.1749 0.160368
144.81 -16.0686 0.0876578
144.347 -15.8249 0.0966882
137.735 -13.1628 -0.00719813
137.721 -13.0103 -0.00782154
137.899 -12.2752 -0.0195503
137.928 -12.2015 -0.021465
137.966 -11.904 -0.0248732
139.593 -8.70272 -0.104017
141.173 -3.68713 -0.210914
139.287 9.08863 -0.365249
98.3797 36.0362 -0.323484
80.561 27.0422 0.0599081
118.787 -26.4295 0.566278
122.775 -23.6329 0.46588
135.522 -19.1553 0.0957511
135.598 -19.0226 0.0930163
136.201 -17.8046 0.0694194
136.621 -16.9099 0.0520485
137.091 -16.0143 0.0324837
137.066 -15.8592 0.0318741
137.005 -15.698 0.0333284
137.045 -15.5533 0.0305896
136.994 -15.3945 0.0310345
137.043 -15.2519 0.0282902
137.178 -15.1228 0.0243726
137.287 -15.0645 0.0203335
137.36 -14.9244 0.0175254
133.832 -7.3293 -0.205888
133.923 -7.19083 -0.210745
134.036 -7.12108 -0.215927
134.107 -6.98176 -0.21972
134.834 -6.26728 -0.254243
134.918 -6.19443 -0.258353
134.998 -6.0513 -0.263219
135.07 -5.90703 -0.267068
135.173 -5.7622 -0.27304
135.216 -5.61879 -0.275771
135.309 -5.47241 -0.28072
135.36 -5.3273 -0.284504
135.49 -5.24879 -0.290843
135.611 -5.09942 -0.29693
135.702 -4.95077 -0.301897
135.796 -4.80056 -0.306893
135.874 -4.65206 -0.31181
135.935 -4.50328 -0.31567
134.295 2.60607 -0.371694
135.102 3.24545 -0.411688
135.25 3.35678 -0.418453
135.229 3.50214 -0.419973
135.365 3.6877 -0.428513
135.582 3.89406 -0.440579
135.72 4.08246 -0.448156
135.716 4.23461 -0.45081
135.897 4.43601 -0.461689
136 4.54054 -0.467215
136.25 4.76432 -0.479597
136.423 4.96699 -0.489457
137.066 5.46307 -0.522275
137.137 5.64282 -0.52751
98.2164 32.9003 -0.45446
82.0035 34.1476 -0.450452
122.432 -21.2267 0.268712
128.08 -18.841 0.0757034
127.697 -18.349 0.0877141
127.234 -8.61159 -0.198515
127.397 -8.43987 -0.207
127.48 -8.32446 -0.211574
127.533 -8.20877 -0.215038
127.626 -8.09181 -0.220667
127.699 -7.97484 -0.225217
127.742 -7.85788 -0.227663
127.78 -7.79862 -0.230453
127.816 -7.68053 -0.232882
127.853 -7.56259 -0.236313
127.882 -7.4445 -0.238717
127.928 -7.32585 -0.24219
127.969 -7.20648 -0.244652
128.034 -7.0874 -0.249197
128.088 -7.02644 -0.252066
128.192 -6.78573 -0.259092
128.23 -6.66595 -0.262548
128.284 -6.54433 -0.266081
128.351 -6.4227 -0.270666
128.369 -6.30193 -0.273056
128.424 -6.24012 -0.275938
128.536 -5.99447 -0.284047
128.575 -5.75166 -0.288859
128.755 -5.61982 -0.297971
128.832 -5.49338 -0.302642
128.892 -5.42918 -0.306567
128.958 -5.30331 -0.311193
128.965 -5.18112 -0.312562
128.983 -5.05739 -0.314985
129.058 -4.92967 -0.319663
129.117 -4.80183 -0.324286
129.153 -4.67668 -0.327793
129.258 -4.6068 -0.332947
129.708 -3.94378 -0.361885
129.747 -3.81509 -0.365443
129.837 -3.68045 -0.371253
131.123 2.35221 -0.532234
131.148 2.49503 -0.535896
131.174 2.63884 -0.539569
131.168 2.70529 -0.541278
131.027 2.80523 -0.536854
120.916 0.55486 -0.0758841
120.608 0.520983 -0.0633778
95.7887 12.7535 0.282733
76.4409 13.6422 0.179215
122.338 -19.6684 0.0489332
122.299 -19.5973 0.0512934
122.27 -19.473 0.0520347
123.684 -16.2573 -0.00448097
123.785 -16.0596 -0.00902364
123.871 -15.9688 -0.0123365
123.929 -15.871 -0.0146245
123.954 -15.7655 -0.0158755
123.93 -15.5934 -0.0156768
123.933 -15.4827 -0.0159022
123.953 -15.3765 -0.0171427
123.831 -15.2389 -0.0122044
124.04 -15.1738 -0.0216903
124.023 -15.0592 -0.0208851
126.282 -14.1329 -0.118379
126.4 -14.0366 -0.123871
126.49 -13.9353 -0.127315
126.505 -13.8789 -0.128991
126.526 -13.7657 -0.130311
126.505 -13.6455 -0.129552
126.498 -13.5284 -0.129814
126.5 -13.4126 -0.131094
126.5 -13.2964 -0.131368
126.5 -13.1803 -0.131644
126.528 -13.1257 -0.133347
123.592 -7.89635 -0.249957
123.624 -7.79183 -0.252223
123.693 -7.73907 -0.256057
123.919 -7.3158 -0.272537
124.977 -4.95197 -0.354393
125.015 -4.83827 -0.357783
125.032 -4.78213 -0.359462
125.055 -4.67028 -0.362775
125.087 -4.55672 -0.366141
125.116 -4.44359 -0.368487
125.137 -4.33145 -0.371796
126.286 -2.20398 -0.462395
126.334 -2.08053 -0.466927
126.39 -1.95524 -0.47151
126.445 -1.82966 -0.476088
126.492 -1.70508 -0.480629
126.529 -1.63975 -0.484485
126.567 -1.51686 -0.487973
126.721 -0.601691 -0.512592
126.755 -0.475278 -0.517106
126.764 -0.354387 -0.520467
126.79 -0.229806 -0.52393
126.98 0.594437 -0.54968
127.001 0.7217 -0.553156
127.048 0.792828 -0.557108
127.075 0.921226 -0.560619
127.108 1.05188 -0.565174
127.131 1.17984 -0.569665
127.169 1.31177 -0.574253
127.193 1.44158 -0.577769
127.245 1.57761 -0.583453
127.329 1.66162 -0.588684
127.355 1.79213 -0.593215
120.69 0.156695 -0.245693
123.635 0.70183 -0.592544
19.3746 10.0205 -2.25704
24.4113 -7.11801 -1.72338
96.8797 24.2802 -0.882921
88.646 12.8822 -0.0494006
105.455 10.9683 -0.408309
43.7202 6.32507 -1.64708
114.76 -14.4297 -0.231701
48.5047 -3.43267 -1.43854
113.806 -12.4102 -0.331366
113.789 -12.331 -0.330173
113.81 -12.2583 -0.33105
113.809 -12.2199 -0.33147
100.057 8.06189 -0.238507
102.918 11.0101 -0.727447
100.478 7.72487 -0.354366
100.233 7.66605 -0.337814
70.4473 10.8992 -1.13669
97.1382 23.8839 -2.0146
92.4571 15.3491 -1.06059
106.985 0.469227 -0.635682
96.9992 -21.3943 -0.00581452
81.6975 30.0675 -3.10371
100.927 -17.6961 -0.272902
82.159 11.1659 -1.37976
85.0493 -18.4193 -0.321496
97.6858 1.88117 -0.805952
97.6635 1.91564 -0.808248
97.6455 1.92426 -0.808277
98.0092 -13.5481 -0.299701
94.2559 -16.3955 -0.307617
92.8929 -7.75412 0.220558
92.7834 -8.74463 0.220837
92.7807 -8.73513 0.222743
150.096 -14.7497 -23.7459
150.11 -14.5608 -23.746
150.123 -14.2768 -23.7422
150.159 -14.0901 -23.7514
150.161 -13.9003 -23.7465
89.3754 -6.34075 0.499011
89.3534 -6.31758 0.485837
89.5884 -6.64933 0.629624
89.661 -6.67171 0.634603
119.907 -11.2932 -12.3949
119.863 -10.7713 -12.3565
89.5681 -6.57052 0.556828
89.608 -6.64543 0.596507
89.5956 -6.63365 0.588423
89.5723 -6.60528 0.572196
89.5409 -6.56271 0.547842
89.5061 -6.51566 0.520452
89.4778 -6.48055 0.49917
89.4995 -6.51976 0.520521
89.4901 -6.51444 0.516497
89.5163 -6.56533 0.542961
89.4497 -6.47163 0.489174
89.5024 -6.66395 0.578098
89.4281 -6.63858 0.549091
91.7051 -9.11413 0.435879
119.813 -11.2394 -12.6592
119.812 -11.1452 -12.6552
119.799 -11.0969 -12.6477
91.6541 -9.16669 0.417643
91.6164 -9.1196 0.445266
91.6253 -9.1209 0.442247
91.5889 -9.03651 0.479457
-27.145 -11.1718 2.14484e-39
