ply
format ascii 1.0
element vertex 559
property float x
property float y
property float z
end_header
139.633 -3.92261 3.91317
136.051 0.0634977 3.77025
133.293 0.0303042 3.66432
137.905 3.90524 3.84425
135.162 6.08906 3.74292
124.967 5.41788 3.35223
103.05 13.673 2.58829
89.7118 10.1205 2.07259
92.9312 23.4256 2.40395
93.2505 23.8791 2.42255
93.1416 23.9598 2.42087
64.2405 14.0332 1.49266
64.1223 14.0112 1.49015
64.0942 14.0192 1.49
64.038 14.029 1.48972
56.31 15.1604 1.50702
53.0858 13.614 1.48494
18.425 14.258 2.24431
24.0881 -10.2437 2.02336
-0.199473 -19.2537 2.79407
18.5753 -18.3039 2.26163
31.4851 -18.3671 1.91859
34.7384 -18.9925 1.84718
34.6159 -19.1178 1.85286
34.8236 -19.2224 1.84905
10.6244 -33.3742 2.71153
9.66885 -34.1471 2.74959
11.6866 -33.1785 2.68214
11.5808 -33.4525 2.6892
47.5215 -17.7781 1.53197
79.0849 -20.6307 1.84047
133.251 -38.1037 3.99797
133.544 -37.9656 4.00607
133.372 -37.6087 3.99454
133.199 -37.2524 3.982
133.521 -37.1275 3.99127
133.432 -36.8134 3.98322
133.596 -36.614 3.98659
133.86 -36.5971 3.9948
134.241 -36.221 4.00284
124.616 -20.3353 3.43946
124.646 -20.1315 3.43819
124.663 -19.925 3.43686
124.684 -19.5078 3.43312
124.705 -19.3028 3.4318
124.714 -19.2 3.43064
124.712 -18.9887 3.4292
124.766 -18.7924 3.42906
133.709 -1.40609 3.22317
136.87 3.33849 3.32351
103.049 13.6283 2.30138
110.086 32.5721 2.72637
93.0852 23.515 2.1445
93.007 23.6207 2.14392
76.7789 12.1382 1.54957
4.39954 -17.1831 2.27157
-4.22247 -29.5072 2.58277
-3.75438 -29.5611 2.57409
122.61 -39.6533 3.20793
133.129 -38.5822 3.49735
132.982 -38.2336 3.48796
133.173 -38.0482 3.49048
133.732 -38.1762 3.50937
133.798 -37.6522 3.50363
133.735 -37.3467 3.49772
133.754 -37.0798 3.49527
133.864 -36.8558 3.49533
134.089 -36.6831 3.49905
123.224 -20.3638 2.98195
123.225 -20.157 2.97954
123.041 -20.0053 2.97337
123.059 -19.8029 2.97205
123.121 -19.6126 2.97196
123.086 -19.3977 2.96936
123.122 -19.2017 2.96813
123.109 -18.993 2.96665
123.143 -18.7958 2.96541
123.233 -18.7155 2.96768
138.894 5.8123 3.02405
138.913 5.93881 3.02389
114.668 7.6731 2.36813
114.61 7.83564 2.36753
89.1181 11.525 1.72096
109.218 34.6186 2.44515
111.816 38.7144 2.55415
98.2092 27.581 2.11245
93.2481 23.4961 1.9513
93.324 23.6502 1.95435
93.223 23.7369 1.9537
93.1128 23.8158 1.95202
20.2686 -11.2102 1.67631
27.053 -17.0829 1.60711
11.701 -24.3375 1.93539
133.72 -37.6774 3.12631
133.812 -37.4438 3.12627
134.105 -37.3027 3.13237
134.087 -37.0186 3.12871
134.223 -36.8052 3.12892
122.973 -18.4032 2.65982
132.206 5.95012 2.30025
131.265 6.6027 2.2825
98.2973 27.643 1.74874
98.244 27.7968 1.74818
98.1152 27.8873 1.74739
98.0094 27.896 1.74587
76.8124 12.1302 1.27774
47.1488 16.6831 1.17377
127.222 -26.9601 2.31708
122.563 -18.5366 2.17415
123.959 -18.2519 2.20015
138.479 -19.3232 2.48974
139.388 9.73123 2.03948
88.2539 10.9215 1.30609
98.4627 27.8802 1.50303
98.2836 27.9282 1.50109
95.434 25.6463 1.45626
97.7224 27.8416 1.49462
76.8036 12.1282 1.1647
87.2576 -18.5171 1.35072
87.3051 -18.4368 1.35178
107.438 -21.1464 1.64812
121.003 5.41014 1.35253
103.899 11.8864 1.21088
95.8633 25.6146 1.14634
95.7598 25.7127 1.14466
76.7871 12.0838 1.00971
-4.70277 16.3227 0.766137
107.712 -24.8528 1.32088
97.9394 -18.4473 1.22491
107.223 -21.3402 1.30549
107.461 -21.1835 1.3073
133.838 -28.6974 1.53275
136.386 -29.049 1.55346
122.235 -20.4286 1.4184
124.643 -20.8728 1.43865
124.66 -20.6652 1.43831
124.679 -20.4579 1.43798
124.682 -20.3523 1.43778
124.737 -20.155 1.43765
127.462 -20.4162 1.45901
122.506 -18.5621 1.41592
135.037 -19.1587 1.51518
138.396 -19.3543 1.5414
107.846 10.6739 1.01392
77.9766 9.02714 0.919473
18.8146 14.9468 0.588735
71.6649 -20.0764 0.951373
119.531 -26.4443 1.12278
122.389 -20.2403 1.12275
122.421 -20.0439 1.1225
122.44 -19.8436 1.12219
122.45 -19.642 1.12183
122.441 -19.5378 1.12158
122.456 -19.3379 1.12124
122.464 -19.1362 1.12088
122.453 -18.7267 1.12
122.447 -18.523 1.11956
124.419 -18.2667 1.12533
116.112 6.30234 0.698676
116.217 6.67838 0.697416
97.3507 8.42321 0.74499
87.9469 12.7554 0.744945
110.347 31.9898 0.579749
112.279 39.9336 0.521846
67.38 17.6538 0.70815
90.0489 -22.2622 0.803412
107.716 -20.8865 0.763898
126.9 -27.6132 0.706857
131.314 -28.2289 0.694896
135.982 -28.9436 0.681335
121.929 -20.1659 0.724423
121.921 -19.9599 0.723971
121.911 -19.7546 0.724511
121.911 -19.5516 0.724102
121.936 -19.3562 0.723826
121.935 -19.2541 0.723616
121.926 -18.849 0.723755
122.058 -18.6796 0.724039
124.396 -18.3136 0.716317
140.727 -2.7702 0.159952
132.701 5.32839 0.20981
67.3611 17.6583 0.571051
53.8049 20.59 0.454257
53.7773 20.4131 0.456483
89.6984 -22.2199 0.597672
93.0363 -22.6712 0.571311
87.6815 -18.2821 0.633233
98.0239 -18.35 0.550108
123.31 -26.4672 0.313622
123.439 -26.2933 0.31288
129.443 -25.255 0.264082
127.018 -21.9199 0.291936
121.727 -19.7548 0.34264
121.717 -19.5495 0.34318
121.642 -19.329 0.34338
123.004 -18.347 0.33282
124.271 -18.2291 0.321554
131.191 -9.4399 -0.226552
138.646 -4.45167 -0.353476
136.715 -2.66516 -0.326175
139.341 1.54057 -0.381272
112.083 2.05613 0.0582367
112.03 2.13116 0.0588349
89.1567 11.8045 0.331557
92.1805 22.7655 0.137717
74.5287 10.9681 0.516308
53.7688 20.5422 0.276181
105.503 -24.2035 0.131145
105.783 -24.1647 0.127386
105.949 -24.0715 0.125978
106.408 -24.0263 0.119052
106.566 -23.9281 0.117599
107.333 -23.7538 0.107859
108.19 -23.5195 0.0964276
106.061 -19.8014 0.148902
111.422 -20.6679 0.0639121
119.24 -11.8345 -0.33305
119.515 -10.854 -0.336728
119.286 -10.6425 -0.332234
119.472 -10.4796 -0.335685
119.495 -10.2979 -0.335946
119.569 -10.1214 -0.337953
119.568 -9.93655 -0.337328
119.599 -9.84804 -0.338358
119.646 -9.66868 -0.338503
119.646 -9.48398 -0.338873
119.637 -9.29903 -0.338286
119.66 -9.11736 -0.338548
119.67 -8.93403 -0.338869
119.731 -8.75475 -0.340941
119.879 -8.12215 -0.343517
119.873 -7.93748 -0.34392
119.801 -7.74783 -0.34164
130.217 0.641372 -0.581463
110.562 1.43701 -0.167684
110.111 1.54315 -0.158027
110.095 1.69568 -0.158406
90.3385 21.1785 -0.0117674
74.5456 11.0494 0.413223
67.4141 17.7101 0.299192
67.3452 17.7227 0.298842
53.7519 20.6333 0.141916
53.7178 20.4755 0.146073
100.088 -22.4949 0.00118185
113.372 -18.7855 -0.233696
114.015 -18.6133 -0.246014
114.155 -18.4753 -0.248631
114.302 -18.426 -0.251036
122.334 -20.4307 -0.42515
113.18 -17.2485 -0.222696
113.897 -16.4727 -0.233882
115.164 -13.8692 -0.251157
114.827 -13.6337 -0.243219
114.668 -13.4319 -0.239374
114.645 -13.2551 -0.238838
118.957 -12.9945 -0.329047
119.221 -12.0165 -0.332774
109.975 -10.5848 -0.425231
109.926 -10.4225 -0.423789
109.925 -10.2679 -0.423105
110.075 -10.1323 -0.426671
110.248 -9.76658 -0.430593
110.249 -9.61116 -0.430904
110.058 -8.97083 -0.425093
110.066 -8.8175 -0.424364
110.091 -8.74329 -0.425393
110.101 -8.5901 -0.425659
110.102 -8.4358 -0.424964
110.068 -8.27966 -0.424438
110.094 -7.13035 -0.42463
110.09 -6.97636 -0.423959
110.491 -5.99912 -0.435042
110.767 -5.85676 -0.443027
115.475 -2.14911 -0.578312
117.995 -1.18058 -0.650387
118.125 -1.08546 -0.653969
92.3238 0.883842 0.0364828
92.3245 1.23103 0.0337867
92.3397 1.33291 0.0326529
92.3809 1.44027 0.0306305
92.4106 1.54518 0.0295591
90.7744 21.466 -0.253296
90.4703 21.2831 -0.24336
53.8171 20.6543 -0.0108211
53.7864 20.4839 -0.00562262
93.7241 -21.4127 -0.0879922
93.8003 -21.3223 -0.0888155
92.2641 -17.8399 -0.00907096
103.123 -18.0857 -0.284406
107.269 -14.7502 -0.369588
107.55 -14.664 -0.376439
107.72 -14.5513 -0.379865
107.919 -14.4436 -0.385145
108.054 -14.3979 -0.387599
108.113 -14.2576 -0.388604
108.172 -14.1174 -0.389609
108.277 -13.9866 -0.392378
110.546 -12.241 -0.445204
110.258 -12.0346 -0.436974
110.144 -11.8581 -0.433871
110.119 -11.7759 -0.432154
110.155 -11.6244 -0.433289
110.155 -11.468 -0.432602
110.116 -11.1495 -0.43043
110.089 -10.9892 -0.429881
110.049 -10.8283 -0.42839
109.985 -10.7406 -0.425871
102.759 -9.55496 -0.501311
102.745 -9.48628 -0.500519
102.772 -9.35875 -0.50065
102.785 -9.22831 -0.500851
102.817 -9.10062 -0.500953
102.893 -8.97785 -0.503844
102.973 -8.85563 -0.505716
102.994 -8.72629 -0.505877
102.995 -8.5942 -0.506138
102.976 -8.52596 -0.505364
102.999 -8.39689 -0.505516
102.914 -8.2558 -0.502203
102.903 -8.12404 -0.50152
102.927 -7.99525 -0.502662
102.95 -7.86618 -0.502814
102.957 -7.73477 -0.50305
102.982 -7.67174 -0.504055
102.999 -7.54171 -0.504241
103.018 -7.41209 -0.504413
103.005 -7.28005 -0.50374
103 -7.14813 -0.504029
103.004 -7.01744 -0.504273
103.005 -6.88633 -0.503533
103.012 -6.82167 -0.50363
103.027 -6.69151 -0.504822
103.056 -6.56227 -0.504945
103.056 -6.43202 -0.505208
103.092 -6.30277 -0.506298
103.123 -6.17381 -0.507412
103.092 -6.04029 -0.506827
103.105 -5.97546 -0.506896
103.082 -5.84403 -0.50627
103.072 -5.7124 -0.505582
103.103 -5.58345 -0.506696
103.061 -5.45039 -0.505162
102.993 -5.31786 -0.503747
97.4499 8.09993 -0.416906
90.6493 21.4649 -0.503886
90.6656 21.6403 -0.509163
65.1182 15.5501 0.113723
64.9918 15.5484 0.11413
64.9441 15.6338 0.110733
63.2191 17.4814 0.0368802
88.0482 -20.6652 -0.153247
100.88 -12.4227 -0.451389
102.795 -11.0864 -0.508057
102.778 -10.9507 -0.506413
102.774 -10.817 -0.505699
102.798 -10.687 -0.506848
102.809 -10.5563 -0.506059
102.743 -10.4129 -0.503658
102.708 -10.3403 -0.501971
102.728 -10.2109 -0.502138
102.714 -10.0767 -0.501473
102.717 -9.94488 -0.500724
102.725 -9.81361 -0.500955
102.761 -9.68647 -0.501037
102.705 0.675391 -0.760186
89.6287 17.5136 -0.583735
90.7057 21.6152 -0.739927
71.0307 16.3666 -0.093062
70.9952 16.3725 -0.0932414
70.9289 16.3968 -0.0926029
70.8644 16.427 -0.0929674
-0.0161194 14.5261 -2.2872
-5.27888 10.6153 -2.48712
-5.9584 10.541 -2.51917
2.92715 -6.00015 -1.98296
14.4128 -12.5671 -1.4376
15.5223 -12.8129 -1.38587
77.0353 -18.1932 0.0608751
84.4299 -19.852 -0.203938
95.8481 -10.9186 -0.485133
97.6677 -10.41 -0.552584
97.661 -10.291 -0.551856
97.5979 -10.2216 -0.548293
97.5742 -10.1012 -0.546647
97.598 -9.98843 -0.547762
97.6523 -9.88088 -0.548723
97.677 -9.76821 -0.549834
97.7126 -9.65705 -0.54989
97.7403 -9.5448 -0.550985
97.7581 -9.43116 -0.55113
97.765 -9.37457 -0.551212
96.4126 -1.62318 -0.698206
96.4923 -1.50705 -0.702065
96.0251 8.54959 -0.806532
77.0278 8.69513 -0.0573419
70.8537 16.4323 -0.22203
11.9966 -6.07975 -1.82106
12.023 -7.56247 -1.82095
91.1761 -6.10666 -0.639849
91.1969 -6.01466 -0.640936
91.1858 -5.92023 -0.640179
91.2256 -5.82985 -0.642173
88.6112 15.1042 -0.883679
76.851 12.0601 -0.312959
65.9481 10.1809 0.0564521
66.482 14.2003 -0.176134
53.8399 20.512 -0.634435
52.0002 -11.6293 0.17367
46.6934 -18.0927 -0.306321
78.4855 -19.0976 -0.281473
78.4317 -18.9538 -0.274016
78.5401 -18.9073 -0.276599
89.0251 -12.7055 -0.588688
89.3146 -10.8154 -0.577132
89.1071 -9.71332 -0.555331
89.3863 -2.52159 -0.700508
89.4138 -2.43253 -0.702558
89.4637 -2.38595 -0.705417
89.5178 -2.29453 -0.709346
89.5689 -2.20269 -0.71229
89.6097 -2.11245 -0.71528
89.6436 -2.02124 -0.717304
89.8297 8.05565 -0.893734
89.77 8.13461 -0.893175
89.6331 8.18089 -0.886913
88.5691 15.1946 -1.06106
64.1036 13.9812 -0.243902
64.0488 14.0009 -0.2442
61.7166 5.55408 0.294837
48.3633 14.3061 -0.590739
21.6382 6.88562 -1.86875
24.6521 -8.13507 -1.56527
24.85 -8.22916 -1.55215
76.188 -19.0665 -0.309363
76.2455 -19.031 -0.310164
76.2658 -18.9571 -0.308217
77.7943 -15.7477 -0.24848
86.4071 -4.09893 -0.69837
86.4256 -4.06011 -0.699361
58.8715 -19.0379 -0.145024
84.9073 -3.11438 -0.719422
84.9145 -3.04067 -0.720536
85.2073 -2.05965 -0.747134
85.2372 -1.98204 -0.749149
85.5073 -1.39057 -0.773068
85.5352 -1.34903 -0.77602
85.584 -1.26696 -0.779956
86.151 6.95589 -0.992856
86.1809 7.06178 -0.997928
86.1537 7.14229 -0.999218
78.5199 8.87088 -0.615672
69.2129 5.13096 0.0410131
55.922 6.3833 -0.0131457
51.4648 7.48021 -0.292365
74.3443 -17.8061 -0.410593
84.6316 5.99463 -1.03208
84.6186 6.07519 -1.0333
84.569 6.13962 -1.03267
84.5559 6.22018 -1.03389
84.5333 6.29702 -1.03515
84.5245 6.37901 -1.03736
73.6604 -16.7844 -0.442875
72.4736 -15.409 -0.306238
81.5812 -2.47803 -0.741378
81.5786 -2.44636 -0.741455
82.8879 1.05263 -0.899337
79.127 9.26875 -0.937617
66.9163 -18.8416 -0.416511
72.3595 -16.7169 -0.472142
72.3465 -16.6212 -0.465396
80.8688 -9.91573 -0.743749
82.1166 4.68294 -1.07429
82.0914 4.74902 -1.07554
82.1122 4.83296 -1.07961
82.0558 4.88521 -1.07698
82.0533 4.96128 -1.08015
82.0835 5.01159 -1.08411
82.054 5.07526 -1.08438
82.0418 5.14761 -1.08658
66.2268 -18.0271 -0.424402
70.8636 -16.4305 -0.473768
80.7532 4.46834 -1.09128
80.7306 4.53104 -1.09152
80.7175 4.59647 -1.09271
80.6872 4.65518 -1.09297
56.0046 11.6419 -0.781363
76.5407 -11.8408 -0.688265
76.6632 -10.9251 -0.762535
71.8253 10.9414 -1.0894
61.3346 6.38271 -0.26564
71.3428 10.1422 -1.09206
70.9448 10.2721 -1.0802
76.4381 3.72559 -1.10712
76.4197 3.77459 -1.10731
75.4656 -0.6025 -0.87898
75.467 -0.556253 -0.881066
75.4693 -0.532346 -0.882104
65.6309 11.677 -1.17607
65.4335 11.224 -1.11409
62.0963 5.81234 -0.432904
62.4304 10.0293 -1.26784
62.3087 9.08712 -1.26651
56.1294 8.39609 -1.36024
56.08 8.40394 -1.36549
56.0507 8.36763 -1.36156
62.6986 8.37573 -1.27624
62.66 8.37402 -1.27542
62.6228 8.38928 -1.27763
62.5858 8.41359 -1.28185
62.548 8.4249 -1.28305
62.5088 8.4263 -1.28324
62.4903 8.43796 -1.28435
62.4524 8.45633 -1.28756
62.4116 8.43171 -1.28271
62.3751 8.45193 -1.28592
67.5896 -6.90839 -0.84539
67.7568 -1.08823 -0.93833
67.7554 -1.07692 -0.93936
62.8313 1.50549 -1.07777
64.0608 -3.77353 -0.199327
60.6269 -2.35452 0.0746345
60.5668 -2.33712 0.055316
60.5449 -2.30683 0.0401512
60.3203 -5.20343 0.0689301
103.902 -18.9427 -17.8792
89.6177 0.0457181 -11.2737
89.6016 0.132774 -11.272
89.6031 0.223418 -11.2792
89.5962 0.312199 -11.2814
60.7672 -2.62021 0.172832
123.567 -19.7952 -26.422
123.648 -19.6086 -26.437
123.66 -19.5083 -26.4311
60.8024 -2.55749 0.135871
60.8379 -2.63506 0.174195
60.8447 -2.6582 0.185274
60.7199 -2.74284 0.186856
45.3881 -2.99608 -6.46497
60.7622 -2.56406 0.112695
60.7921 -2.6237 0.142956
60.7846 -2.61964 0.139913
60.7582 -2.5857 0.119719
60.7234 -2.53851 0.0934604
60.6838 -2.48358 0.0621623
60.6655 -2.46289 0.0500343
60.683 -2.49658 0.0671847
60.6892 -2.51662 0.0762547
60.6941 -2.53243 0.0843094
60.6293 -2.44072 0.0318189
60.6807 -2.63452 0.119453
60.7537 -2.74653 0.182023
60.7194 -2.75389 0.174876
60.5972 -2.59772 0.0839844
60.2743 -5.2406 -0.0352133
60.4074 -5.15904 0.0332507
62.8438 -5.13086 -0.0303254
62.8396 -5.11714 -0.0243727
62.7476 -5.0215 0.0360017
44.8641 1.15033e-41 0
