ply
format ascii 1.0
element vertex 738
property float x
property float y
property float z
end_header
70.5242 12.9468 2.06405
11.6942 21.7461 0.984184
-36.0803 54.0312 2.65579
-36.4071 54.0395 2.66475
-30.1971 44.9875 2.34666
-41.196 54.8153 2.80585
-16.949 29.7481 1.73766
-17.0885 27.9616 1.71435
-34.6478 41.5696 2.41784
-26.993 34.0009 2.08826
-27.1307 33.8956 2.09047
-28.1343 33.7181 2.1179
-26.9832 32.5976 2.06864
-27.2212 32.5728 2.07457
-27.3852 32.4884 2.0787
-27.5281 32.4933 2.08311
-27.7839 32.268 2.08757
-28.2054 32.3776 2.10207
-27.0821 31.3211 2.05442
-27.3133 31.289 2.06138
-4.52111 14.0788 1.15239
-4.56952 14.0674 1.15363
-28.5125 31.2444 2.09643
-29.4206 31.6921 2.12993
-29.3788 31.4525 2.12557
-29.4053 31.2632 2.12406
-28.3339 30.2986 2.0799
-27.4483 29.5745 2.04352
-27.7383 29.5795 2.05239
-28.2442 29.7341 2.06981
-28.3233 29.5887 2.07113
-28.4512 29.477 2.07336
-27.8722 28.8856 2.04895
-27.9795 28.7632 2.05019
-28.1275 28.7654 2.05564
-27.8954 28.4151 2.04352
-27.9586 28.2632 2.04384
-28.1373 28.1893 2.04894
-28.1604 28.012 2.04733
-28.3253 27.9276 2.05147
-30.2122 28.6573 2.11891
-30.398 28.5776 2.12407
-30.6162 28.5171 2.1302
-30.5152 28.2545 2.12484
-30.5218 28.0616 2.12329
-31.0829 27.7187 2.13757
-31.2522 27.6245 2.1418
-31.1588 27.3721 2.13638
-33.4425 26.1351 2.19865
-33.0077 24.8402 2.17391
-32.6416 24.4603 2.15859
-33.0864 24.5017 2.17367
-35.2041 23.9295 2.23948
-35.1584 23.7158 2.23693
-35.0908 23.5874 2.23367
-38.5481 24.8226 2.35823
-38.1768 24.4466 2.34287
-32.4223 20.7983 2.12409
-32.2893 20.5635 2.11842
-32.8729 20.6417 2.13865
-37.3714 21.1575 2.29578
-37.3739 20.9685 2.29519
-37.4306 20.8014 2.29561
-53.2355 27.0047 2.87361
-53.1411 26.7212 2.86842
-53.1357 26.4729 2.86725
-51.1742 25.4674 2.79462
-51.3108 25.0449 2.79718
-52.5225 24.6645 2.83777
-53.1012 24.1552 2.85534
-53.1203 23.9217 2.85513
-52.9653 23.6281 2.84883
-58.4093 24.6369 3.04324
-58.3636 24.3662 3.0411
-58.6107 24.1926 3.04916
-58.4648 -14.1706 3.24145
-58.6744 -14.4495 3.25317
-58.6424 -14.6827 3.2558
-58.7978 -14.9535 3.2653
-58.6397 -17.5783 3.29829
-58.0448 -17.6769 3.27818
-58.0178 -17.912 3.28084
-50.8019 -18.2236 3.02676
-50.6886 -18.3025 3.02399
-50.7973 -18.5549 3.0322
-51.4446 -18.9627 3.06224
-50.6786 -19.4104 3.04219
-50.5084 -19.5834 3.03994
-50.4924 -20.1372 3.049
-50.4658 -20.3532 3.05152
-39.7072 -19.8489 2.6644
-39.8574 -20.2919 2.67815
-42.5893 -22.2334 2.81004
-39.651 -21.6837 2.69784
-40.9002 -22.2838 2.75317
-40.6861 -22.3992 2.74737
-41.6682 -23.0026 2.79389
-39.1789 -22.1842 2.69109
-28.6913 -19.8075 2.28391
-19.8454 -16.4957 1.91388
-19.2519 -16.3421 1.8899
-13.2726 -14.1728 1.64124
-12.7257 -14.3307 1.62672
-11.5236 -13.9641 1.57927
-11.2017 -14.0012 1.56954
-11.3028 -14.2669 1.57883
-8.86602 -14.3081 1.50057
-7.80231 -14.0987 1.46172
-7.61965 -14.082 1.45503
-6.04654 -14.0143 1.40365
-6.03042 -14.0989 1.40622
-5.70898 -13.974 1.3923
-3.85662 -13.8449 1.33259
-2.7985 -14.0615 1.30692
-2.69207 -14.0212 1.30229
3.11405 -14.2806 1.1532
3.18871 -14.2331 1.14962
3.1959 -14.3154 1.1522
68.1824 -19.8603 2.30483
87.5809 -15.2111 2.79917
87.6139 -14.9791 2.79634
87.6429 -14.7459 2.79452
87.6828 -14.5162 2.79169
87.7148 -14.2832 2.78986
87.7547 -14.0534 2.78803
87.7767 -13.9381 2.78711
62.4546 10.6981 1.51176
61.6284 10.8233 1.49139
-26.9745 43.5904 1.85402
-29.7402 44.6315 1.92887
-41.5099 54.9225 2.31801
-34.7023 21.498 1.86496
-25.4109 -15.8221 1.81614
-24.4705 -16.8171 1.80661
69.5257 -20.4311 1.98289
71.2805 -20.8802 2.02978
85.6376 -14.677 2.27321
85.6654 -14.4499 2.27044
85.7061 -14.2261 2.26865
85.7537 -14.0036 2.26685
85.9853 -13.4673 2.26615
70.6864 12.8585 1.43319
34.9143 14.2845 0.788536
-30.7194 43.5883 1.64264
-34.7337 25.965 1.6229
-20.697 -14.0423 1.4703
-25.2015 -16.2641 1.61576
55.6597 -19.1268 1.4372
69.4215 -20.0614 1.69946
72.1541 -20.445 1.75483
82.8157 -21.3597 1.96556
83.3464 -21.2888 1.97438
-27.8504 43.7841 1.12627
-28.6743 43.8005 1.13771
-31.0515 44.3576 1.17295
-28.8147 41.5208 1.13206
-30.8936 34.9142 1.14655
-37.5323 33.3987 1.24739
-59.7731 -15.4437 1.89192
69.2814 -19.9389 1.25397
81.4534 -21.093 1.40678
85.1252 -21.4008 1.45168
90.4614 -16.1546 1.45519
77.7027 10.033 0.766372
38.7685 16.6655 0.488899
25.0528 17.7322 0.435522
25.4649 18.5716 0.437014
69.1598 -19.987 0.956691
83.042 -21.2202 1.05979
93.3697 8.31234 0.333535
92.3938 8.33282 0.33341
70.5106 12.7549 0.303463
-28.1238 36.3787 0.430064
-27.4017 33.5403 0.440892
-34.4547 28.1794 0.51156
-55.41 25.4636 0.65372
-55.0122 25.0707 0.653402
69.3784 -20.1146 0.553947
66.1113 -16.3865 0.522409
91.1046 -22.8764 0.574058
85.1437 -15.3067 0.512361
85.2519 -15.0973 0.510471
85.2519 -14.9823 0.509617
85.2786 -14.7561 0.507855
85.3034 -14.5298 0.506099
85.2795 -14.2938 0.504422
85.3868 -14.0834 0.502527
85.4205 -13.8594 0.50076
85.4423 -13.633 0.499012
85.6619 -13.5595 0.498785
86.2166 -13.4325 0.497122
70.6677 8.69624 0.0640923
87.9507 11.6425 -0.0393861
33.7082 22.748 0.115437
-35.6327 32.1861 0.214466
-33.9531 23.6617 0.281528
-55.2272 25.1045 0.304807
69.6431 -20.1938 0.278706
66.5982 -16.3491 0.265613
83.9483 -21.5368 0.2223
89.8012 -19.0153 0.17743
85.0254 -14.5548 0.168136
85.0006 -14.4339 0.167315
85.0382 -14.212 0.165552
85.06 -13.9857 0.163804
85.1413 -13.7723 0.161969
86.1144 -13.2625 0.154166
57.8786 14.6195 -0.213212
36.4607 13.2541 0.0213628
36.4599 13.3481 0.0206669
36.3978 13.4033 0.0204502
36.4297 13.5183 0.0184977
16.4917 16.884 0.124362
-29.2646 28.7251 -0.101608
-34.4474 28.5026 -0.117882
-37.4135 27.2406 -0.114315
-59.0694 26.4293 -0.196125
66.0742 -16.3127 -0.0750429
83.0486 -21.5633 -0.228727
83.8189 -21.5668 -0.23609
85.0101 -21.6958 -0.248828
84.257 -19.2085 -0.253954
90.5568 -20.0476 -0.316268
91.8944 -20.1406 -0.330727
83.5508 -17.2791 -0.256084
82.8639 -16.538 -0.253453
83.1465 -16.3787 -0.256513
85.5939 -16.727 -0.281519
86.1916 -16.6305 -0.28809
87.799 -16.7609 -0.305108
89.7146 -16.9508 -0.324641
92.0125 -17.3411 -0.346873
92.2655 -17.1416 -0.351137
85.5421 -13.4554 -0.299642
55.3725 6.16612 -0.360701
65.0111 10.8398 -0.570293
47.7893 11.8492 -0.296359
47.6971 11.9334 -0.295698
29.1201 16.344 -0.083806
24.3883 21.331 -0.129146
24.4221 21.586 -0.135143
24.4289 21.7848 -0.13864
1.53059 24.3278 -0.13949
-36.9155 27.0287 -0.468298
-58.08 26.3758 -0.665812
69.0072 -19.7702 -0.44349
69.2688 -19.6701 -0.448044
69.5976 -19.5934 -0.453633
70.516 -19.623 -0.469263
66.1536 -16.3899 -0.406727
72.2466 -18.1187 -0.501797
72.8306 -18.0998 -0.511749
74.3415 -14.6288 -0.5492
77.4234 -14.857 -0.600066
86.2276 -9.36594 -0.776136
86.3081 -9.14758 -0.778007
24.35 21.014 -0.284679
24.3802 21.255 -0.291562
24.4161 21.5119 -0.29858
24.4671 21.7162 -0.304255
2.38157 23.0727 -0.293819
1.52586 24.3225 -0.331443
-43.8358 34.2127 -1.10518
55.4892 -19.1188 -0.541398
57.4022 -18.4784 -0.584087
57.5831 -18.3966 -0.587255
57.6519 -18.3459 -0.588845
60.7125 -16.8034 -0.657789
60.8959 -16.7057 -0.662083
60.943 -16.5582 -0.663324
61.0701 -16.4396 -0.666599
61.2212 -16.4107 -0.669282
61.4275 -16.3178 -0.674612
61.618 -16.2193 -0.678934
61.0046 -14.7953 -0.6656
61.0674 -14.6544 -0.667841
70.9643 -12.8275 -0.902106
70.9905 -12.6473 -0.903524
71.0226 -12.4693 -0.904945
71.17 -12.3153 -0.908545
71.34 -12.2591 -0.91249
70.0503 -10.8918 -0.886637
69.5902 -10.7128 -0.876538
72.3381 -10.4955 -0.942676
73.6909 -9.87975 -0.977444
73.6228 -9.67828 -0.975728
73.7198 -9.50352 -0.979326
73.4885 -9.27741 -0.974286
73.1368 -8.56387 -0.969491
72.2212 -8.24512 -0.949017
71.8282 -8.00643 -0.940569
73.5021 -7.39279 -0.983317
73.9394 -4.62326 -1.00823
65.8026 -1.78805 -1.09304
65.8034 -1.70804 -1.09363
65.8099 -1.54717 -1.09485
65.8204 -1.38644 -1.09607
65.8579 -1.22565 -1.09838
65.8215 -1.0643 -1.09847
65.783 -0.902877 -1.09855
65.7035 -0.741042 -1.0975
65.6837 -0.500222 -1.09823
65.6782 -0.339943 -1.0994
48.6404 11.7296 -0.743125
48.5332 11.8123 -0.741407
48.3864 11.8794 -0.738449
30.6395 15.9164 -0.369355
25.6065 16.9602 -0.300489
25.5285 18.5966 -0.347394
24.3073 20.8875 -0.398611
24.3365 21.1266 -0.406476
24.3711 21.3785 -0.415454
24.4168 21.661 -0.424693
24.4312 21.8776 -0.431345
1.82526 23.9611 -0.459693
-42.9452 55.377 -1.92905
-40.9174 27.8055 -1.26668
50.9293 -18.2437 -0.647753
50.9321 -18.1027 -0.647809
50.9841 -17.9864 -0.647833
51.0814 -17.8917 -0.650838
51.1035 -17.8324 -0.650346
51.2136 -17.7432 -0.653351
51.305 -17.6453 -0.655361
51.4161 -17.557 -0.65836
51.4613 -17.4365 -0.658395
51.4847 -17.3062 -0.659435
51.5279 -17.1857 -0.659464
51.6789 -17.0438 -0.662985
51.7526 -16.9362 -0.665012
54.8854 -15.6775 -0.746074
52.308 -14.3408 -0.672999
53.6903 -14.2354 -0.71107
53.7632 -14.1228 -0.713132
61.4893 -12.3694 -0.929117
62.7235 -12.2099 -0.96413
61.2584 -11.607 -0.92306
62.1239 -11.6629 -0.94733
62.9202 -11.6954 -0.97056
63.2224 -11.6068 -0.979155
63.1733 -11.434 -0.978285
62.9743 -11.228 -0.972197
63.4811 -11.1834 -0.9871
63.4183 -11.0882 -0.985612
62.969 -9.954 -0.974636
62.9078 -9.78379 -0.97371
63.9835 -9.51676 -1.00503
64.329 -9.42063 -1.01481
64.4876 -9.28803 -1.02029
65.0864 -8.66232 -1.03879
65.279 -8.53189 -1.04536
65.4109 -8.38937 -1.04983
65.3618 -8.21857 -1.04894
65.3556 -8.1353 -1.04854
64.9474 -7.26169 -1.03976
64.9828 -7.10582 -1.04102
64.8202 -7.00315 -1.03728
64.5259 -6.80288 -1.02986
66.4122 -6.55985 -1.08551
66.4249 -6.39619 -1.08577
66.0631 -3.49802 -1.09015
65.9778 -3.32998 -1.08814
66.0278 -3.00952 -1.09167
65.9925 -2.84521 -1.09178
65.9868 -2.60288 -1.09356
65.9494 -2.43949 -1.09266
65.886 -2.27521 -1.09268
65.8286 -2.11113 -1.09172
65.7971 -1.94896 -1.09183
58.8906 -1.57631 -1.15617
58.8614 -1.43622 -1.15512
58.7948 -1.36488 -1.15344
58.7766 -1.22517 -1.15443
58.7564 -1.08639 -1.15439
58.7431 -0.946852 -1.15439
58.7159 -0.807831 -1.15433
58.7157 -0.668745 -1.15537
58.7154 -0.530659 -1.15639
58.6968 -0.46098 -1.15685
58.6935 -0.322783 -1.15687
58.6483 -0.184144 -1.15675
58.596 -0.0452576 -1.15562
58.5637 0.0919359 -1.15554
58.4974 0.230304 -1.15436
58.418 0.367119 -1.15313
58.4008 0.504797 -1.1531
58.5573 0.575427 -1.15911
58.7412 0.717148 -1.16673
59.5127 1.01164 -1.19631
59.6928 1.1585 -1.20396
59.8038 1.30274 -1.20938
59.8578 1.44695 -1.21261
59.9254 1.52066 -1.21537
60.0635 1.66797 -1.22089
60.1876 1.81576 -1.22737
60.3629 1.96779 -1.23405
60.5903 2.12201 -1.2439
60.7145 2.2728 -1.2494
60.929 2.42947 -1.25823
61.0789 2.51134 -1.2643
61.1902 2.66357 -1.26978
61.3727 2.82135 -1.27752
61.5984 2.98364 -1.28742
61.7519 3.14242 -1.29408
61.8994 3.30141 -1.30071
62.0961 3.46569 -1.30954
62.4408 3.56684 -1.32236
62.5192 3.72421 -1.32677
62.6067 3.88227 -1.33122
62.7694 4.04774 -1.33895
63.0065 4.22163 -1.34898
63.0861 4.38197 -1.35342
63.2449 4.55058 -1.36016
64.0965 5.02339 -1.39531
48.0099 11.5077 -0.932528
33.8329 8.70913 -0.412767
25.5008 18.5865 -0.475238
13.2234 16.9651 -0.281116
1.6528 24.1688 -0.631705
-39.5891 52.2296 -2.24311
52.447 -11.2924 -0.909063
53.1612 -10.3935 -0.931951
56.8588 -10.2562 -1.05744
56.8874 -10.1231 -1.05852
53.6417 -8.96026 -0.94808
56.6639 -7.86103 -1.05262
59.1424 -2.63662 -1.15808
59.0723 -2.49211 -1.15694
59.0591 -2.35158 -1.15694
59.0335 -2.28065 -1.15639
59.0103 -2.13977 -1.15636
59.0122 -1.99975 -1.15741
58.98 -1.85856 -1.15736
58.9458 -1.71729 -1.1563
53.0609 2.21141 -1.23321
54.8497 3.46217 -1.32004
57.0703 5.34531 -1.43391
57.3289 5.44641 -1.44546
57.5587 5.61354 -1.45742
58.3944 6.49607 -1.50356
53.3874 12.9846 -1.40619
48.3853 11.5339 -1.1799
8.32243 15.0446 -0.335661
-28.9451 43.4736 -2.17513
-60.8557 13.934 -2.44091
-55.8326 -14.9092 -2.0584
51.1605 -9.3466 -1.10952
51.1735 -9.22799 -1.11044
51.1459 -9.09995 -1.10931
49.0386 -8.35055 -1.02233
52.7159 -6.67378 -1.17219
52.5428 -6.09343 -1.16496
53.7116 -4.2778 -1.21806
53.2475 -2.76084 -1.20488
52.377 6.70373 -1.48644
52.4926 7.21598 -1.4996
49.3642 11.8276 -1.44212
-17.8572 24.6947 -1.51212
-17.9416 24.5976 -1.51114
-42.6559 16.9462 -2.21872
-43.6424 17.0408 -2.25936
-39.5575 -13.719 -1.82771
-39.3366 -13.8436 -1.81947
-39.15 -13.976 -1.81206
47.7124 -4.56482 -1.16732
-46.0147 14.3375 -2.65995
-47.5058 14.2791 -2.72689
34.5521 -15.999 -0.837623
34.6305 -15.9587 -0.839165
34.7099 -15.9194 -0.841703
34.79 -15.8301 -0.843614
34.8382 -15.7647 -0.844249
37.3303 -14.3429 -0.923535
37.6797 -14.1619 -0.935962
44.2303 -3.86501 -1.17571
44.1449 -3.75998 -1.17123
37.6882 13.3861 -1.29447
39.3006 14.4286 -1.41621
36.1316 12.891 -1.19596
36.1523 13.0883 -1.20449
-36.295 -4.5739 -2.31072
-36.159 -4.72261 -2.30404
-34.1752 -5.93659 -2.19618
-33.9725 -6.06655 -2.18584
-34.0161 -6.22817 -2.18751
-19.8641 -13.5499 -1.49904
-19.7345 -13.6234 -1.49389
-19.4681 -13.7045 -1.48112
34.54 -14.1563 -0.949266
34.6752 -14.0639 -0.954371
36.3028 -10.8969 -0.969926
36.149 12.9744 -1.33464
36.1288 13.0541 -1.33617
36.1116 13.1367 -1.33873
21.2496 18.1424 -0.968771
32.6537 -13.9847 -0.974689
36.5257 13.268 -1.54599
36.3894 13.2318 -1.5363
25.5289 18.5376 -1.26999
21.2099 17.9287 -1.08707
20.8136 17.0163 -1.01106
27.3734 -15.1317 -0.899796
27.7918 -14.4866 -0.890881
30.5527 -13.5385 -0.998485
36.9144 -8.0122 -1.25224
36.8832 -7.72591 -1.24627
36.949 0.0529977 -1.33021
36.9644 0.123493 -1.33279
36.9398 0.193392 -1.33123
36.9653 0.264543 -1.33384
36.9557 0.33392 -1.33332
36.9701 0.404457 -1.33489
36.9505 0.474177 -1.33435
36.9657 0.509667 -1.33566
36.9561 0.580035 -1.33615
36.9535 0.650164 -1.33666
36.9299 0.720028 -1.33511
36.9193 0.789439 -1.33459
36.9177 0.859526 -1.3361
36.9011 0.929151 -1.33457
36.8912 0.963507 -1.33479
36.8926 1.0335 -1.33532
36.869 1.10236 -1.33475
36.8494 1.17208 -1.33421
36.8648 1.24258 -1.33578
36.8582 1.31284 -1.33628
36.8556 1.38297 -1.3368
36.869 1.45354 -1.33836
36.8532 1.48711 -1.33756
36.8536 1.55813 -1.33909
36.1138 12.0861 -1.59194
36.0618 12.1449 -1.59122
36.0139 12.2076 -1.59054
35.9997 12.2891 -1.5931
35.9487 12.3489 -1.59238
35.9131 12.4182 -1.59279
35.885 12.4462 -1.59291
35.8473 12.5135 -1.59329
35.8056 12.58 -1.59365
35.774 12.6511 -1.59408
35.7056 12.7005 -1.59224
35.6373 12.7499 -1.58939
25.599 18.6093 -1.38474
25.5643 18.6186 -1.3837
28.725 -11.9883 -0.93032
35.2664 10.695 -1.62799
35.2357 10.7621 -1.6284
35.1917 10.8207 -1.62769
35.1498 10.8822 -1.62802
35.1028 10.9398 -1.6263
35.0644 10.9601 -1.62533
35.0388 11.0291 -1.62577
35.005 11.0943 -1.62614
34.9844 11.166 -1.62861
34.9405 11.2255 -1.62792
34.8649 11.2672 -1.62399
34.8321 11.3323 -1.62538
34.8141 11.364 -1.62555
34.7681 11.4216 -1.62484
34.7262 11.4821 -1.62416
34.6934 11.5472 -1.62454
34.6606 11.6124 -1.62592
34.6196 11.6728 -1.62524
34.5756 11.7314 -1.62554
34.5561 11.8041 -1.62702
34.53 11.832 -1.62715
34.4891 11.8924 -1.62647
34.4277 11.9396 -1.62463
34.3632 11.9859 -1.62277
30.9399 17.755 -1.73798
21.3287 18.233 -1.3367
20.8522 17.0214 -1.22123
21.3742 18.6274 -1.37077
16.9416 17.7412 -1.19644
34.0832 -0.649247 -1.34511
34.1022 -0.618899 -1.3474
34.1133 -0.558253 -1.34888
34.1284 -0.496744 -1.35039
34.1435 -0.436236 -1.35188
34.1466 -0.374308 -1.35235
34.1317 -0.312755 -1.35176
34.1348 -0.251827 -1.35222
34.1169 -0.190171 -1.35163
34.107 -0.159804 -1.35082
34.1011 -0.0985597 -1.35026
34.0872 -0.0370408 -1.34967
34.0773 0.0233415 -1.34909
34.0703 0.0846128 -1.34952
33.4892 11.0991 -1.64248
33.4542 11.1584 -1.64281
33.4285 11.2243 -1.64422
33.4145 11.2558 -1.64441
21.2259 17.9557 -1.42033
20.8194 17.0078 -1.32403
20.2394 18.9837 -1.4829
14.9702 15.0384 -1.02826
-11.7531 12.9042 -2.15656
32.3497 10.7849 -1.66261
32.333 10.8515 -1.66406
27.2584 14.2617 -1.51762
21.2388 17.8744 -1.52777
15.5802 18.5323 -1.4691
25.4389 17.9479 -1.84835
25.3884 17.9927 -1.85053
25.3719 18.0933 -1.85822
25.3745 18.2292 -1.87124
23.5259 -12.7335 -1.06967
23.6435 -12.6885 -1.07337
15.6882 18.1379 -1.65951
25.3018 -9.53343 -1.06793
10.8384 18.829 -1.8836
21.0041 -12.2757 -1.07324
29.1671 8.34731 -1.69265
20.5601 16.0487 -1.76712
20.5064 16.0586 -1.76502
28.5465 5.59199 -1.54827
28.5513 5.64483 -1.55168
28.3505 8.52227 -1.71342
13.629 17.1934 -1.86612
24.5705 11.0373 -1.74336
24.5408 11.0743 -1.74454
24.5142 11.1152 -1.74576
25.7431 8.81773 -1.73552
25.7276 8.83427 -1.7356
25.7214 8.88648 -1.73997
25.708 8.93395 -1.74228
25.6905 8.97656 -1.74454
22.0703 11.6873 -1.76343
26.3648 -2.62107 -1.39154
25.3524 0.0970442 -1.43058
25.3435 0.130374 -1.42979
25.3487 0.165208 -1.43107
25.3659 0.198623 -1.43337
25.337 0.231663 -1.42953
25.3406 0.248542 -1.43066
25.3477 0.282308 -1.43194
25.3339 0.315817 -1.43014
25.3451 0.350437 -1.43243
25.3312 0.382947 -1.43063
25.3364 0.417781 -1.43191
25.3165 0.450504 -1.42909
25.312 0.466666 -1.42919
25.3022 0.500038 -1.42741
25.2983 0.533189 -1.42764
25.3005 0.567127 -1.4289
25.2886 0.599568 -1.42711
25.2807 0.632864 -1.42633
25.2799 0.666911 -1.42658
25.2574 0.681715 -1.42362
25.2525 0.7149 -1.42385
25.2557 0.748803 -1.42511
25.2418 0.781313 -1.42331
25.247 0.816147 -1.42459
25.2381 0.848478 -1.4238
25.2192 0.88016 -1.42197
25.2304 0.91478 -1.42427
25.2169 0.930266 -1.42234
25.2171 0.96428 -1.42259
25.2202 0.998183 -1.42385
25.2204 1.03219 -1.42511
25.2185 1.06527 -1.42535
25.2167 1.09935 -1.42659
25.2249 1.13407 -1.42888
25.2094 1.14863 -1.42594
25.2096 1.18264 -1.42719
25.2097 1.21664 -1.42844
25.2049 1.24983 -1.42867
25.195 1.28219 -1.42788
25.2062 1.31781 -1.43018
25.1822 1.34768 -1.42733
25.1894 1.38243 -1.42961
25.1759 1.39792 -1.42768
25.167 1.43025 -1.4269
25.1783 1.46586 -1.43019
25.1754 1.49898 -1.43043
25.1736 1.53306 -1.43168
25.1476 1.56299 -1.42782
25.1703 1.5832 -1.43204
25.1574 1.61566 -1.43124
25.1455 1.6471 -1.43044
25.1406 1.68028 -1.43067
25.0281 -3.83743 -1.45337
25.056 -3.81039 -1.45565
25.0879 -3.7855 -1.45994
25.0664 -3.74069 -1.4542
25.0855 -3.71034 -1.45649
25.059 -3.66436 -1.44975
15.3163 11.083 -1.844
-16.3318 11.572 -6.46961
20.6457 -1.00254 -1.47682
20.6447 -0.973474 -1.47503
19.5979 -14.7006 -5.01201
19.6229 -14.6995 -5.0151
19.6639 -14.6719 -5.01043
19.7077 -14.6484 -5.00774
-15.3881 10.915 -11.1488
-15.3838 10.8069 -11.133
-15.4032 10.7076 -11.1272
-15.404 10.6546 -11.1198
-15.1973 10.839 -11.7379
-15.2336 10.7452 -11.7371
-15.2232 10.6359 -11.7193
17.1461 0.318861 -0.739745
17.1752 0.351775 -0.75408
15.1118 -1.80736 -0.432644
15.0855 -1.70106 -0.38835
39.102 5.97919 -10.7152
39.0947 6.05845 -10.7207
39.1358 6.15088 -10.7486
16.8147 3.46821 -1.53212
16.8067 3.46651 -1.52908
16.8044 3.48754 -1.53723
13.7332 1.10642 -0.339992
13.8146 1.08567 -0.33209
13.823 1.06644 -0.322973
13.7238 1.15633 -0.398335
13.7505 1.11755 -0.377129
13.7531 1.10549 -0.372048
13.7145 1.14766 -0.397242
13.6787 1.18673 -0.421422
13.6352 1.23403 -0.450639
13.6177 1.24756 -0.460685
13.627 1.2273 -0.450563
13.6317 1.21718 -0.445502
13.6439 1.19483 -0.434374
13.5648 1.28418 -0.489794
13.6608 1.06855 -0.383488
13.7377 0.97428 -0.327025
13.6908 0.978773 -0.342913
13.5446 1.12815 -0.439571
13.5551 -1.58856 -0.529443
16.2554 -8.3944 -3.5884
16.3637 -8.80784 -3.78468
16.0847 -1.20332 -0.560149
16.0519 -1.17101 -0.538287
16.0298 -1.14612 -0.523402
16.0635 -1.12532 -0.530661
1.6501e-39 0 1.95036e-40
