ply
format ascii 1.0
element vertex 750
property float x
property float y
property float z
end_header
58.0271 14.7063 1.99213
13.7178 49.7124 1.70929
13.4939 47.535 1.64933
13.3089 46.2511 1.61449
11.8631 23.3841 0.989893
-30.5691 43.7845 2.03467
-17.3326 29.1513 1.49435
-29.4165 35.2598 1.86808
-58.6878 -14.5182 2.73704
-58.9221 -14.7982 2.74839
-58.9321 -15.033 2.75194
-59.1323 -15.3089 2.76134
-60.0489 -15.8623 2.79702
-58.5397 -15.7624 2.74967
-58.743 -16.0412 2.76008
-58.6112 -16.2447 2.75873
-58.4975 -16.4517 2.75836
-58.3445 -16.7657 2.75779
-58.2056 -17.6675 2.76711
-61.0065 -18.8622 2.87094
-62.5646 -19.8911 2.93339
-63.0496 -20.2726 2.95487
-39.9642 -14.2075 2.15704
-39.8599 -14.3542 2.15625
-40.0025 -14.5696 2.16437
-52.9225 -18.5237 2.61942
-52.7952 -18.708 2.61793
-50.8036 -18.5606 2.55531
-50.7205 -18.7498 2.55576
-51.086 -19.0754 2.57213
-50.3059 -19.5898 2.55727
-50.0019 -19.7087 2.55073
-50.6762 -20.1403 2.57813
-50.5305 -20.3101 2.57659
-50.3606 -20.4716 2.57404
-50.7892 -20.7215 2.59176
-50.7519 -21.3676 2.60116
-40.1465 -20.3532 2.26965
-39.5763 -20.317 2.25166
-38.9419 -20.6235 2.2391
-42.6045 -22.6091 2.38432
-40.9423 -22.7031 2.33859
-25.7744 -16.2637 1.77089
-25.7032 -16.3736 1.77178
-28.3386 -17.6706 1.87365
-25.7035 -16.6567 1.77767
-26.9247 -18.0063 1.84
-27.0056 -18.1933 1.84607
-27.7172 -18.83 1.87975
-28.4171 -19.474 1.91352
-28.7253 -20.1771 1.93753
-14.8613 -14.1 1.41639
-14.6278 -14.084 1.4088
-14.2033 -14.07 1.39664
-14.1387 -14.0887 1.3959
-11.988 -13.1232 1.31418
-11.8992 -13.1725 1.3137
-11.8551 -13.2457 1.31329
-11.884 -13.36 1.31698
-12.4673 -13.7879 1.34256
-12.3306 -13.7615 1.33868
-12.1971 -13.7859 1.33514
-11.688 -13.5941 1.31698
-11.3352 -13.4892 1.30505
-11.2544 -13.5403 1.30457
-11.0173 -13.4984 1.29681
-10.9975 -13.584 1.29842
-10.8179 -13.5266 1.29244
-10.6071 -13.4981 1.28571
-10.443 -13.4953 1.28105
-10.4892 -13.6191 1.28577
-10.2559 -13.5732 1.27798
-10.2178 -13.6462 1.27855
-10.0708 -13.652 1.27491
-9.82098 -13.5444 1.26574
-9.83363 -13.6471 1.2684
-9.8402 -13.747 1.27105
-9.66983 -13.7354 1.26635
-9.43635 -13.6814 1.2595
-9.31472 -13.6976 1.25687
-9.14425 -13.682 1.25114
-9.046 -13.7125 1.24956
-8.98415 -13.7191 1.24874
-8.90725 -13.7631 1.24721
-8.89749 -13.8504 1.24981
-8.83077 -13.9011 1.24929
-8.64287 -13.869 1.24349
-8.38062 -13.7858 1.23451
-8.29552 -13.822 1.23294
-7.99835 -13.6646 1.22154
-7.67893 -13.5369 1.20939
-7.57133 -13.5537 1.20774
-7.32312 -13.4721 1.19874
-7.08502 -13.3942 1.19074
-6.94168 -13.3829 1.18698
-6.91447 -13.4527 1.18851
-6.84736 -13.4494 1.18663
-6.73249 -13.4564 1.18393
-6.57173 -13.4295 1.1791
-6.45377 -13.4326 1.17638
-6.35005 -13.4453 1.17369
-6.23819 -13.4522 1.17099
-5.99675 -13.3614 1.16291
-5.88365 -13.3203 1.15888
-5.80637 -13.3493 1.15725
-5.76277 -13.4045 1.15771
-5.7161 -13.4567 1.15816
-5.55716 -13.4228 1.15328
-5.46352 -13.4382 1.15159
-5.38926 -13.4682 1.14995
-5.32113 -13.5029 1.14934
-5.29063 -13.5227 1.14953
-5.15915 -13.5061 1.14571
-5.13084 -13.5719 1.14721
-5.08819 -13.625 1.14766
-4.97919 -13.6268 1.14491
-4.77943 -13.639 1.14043
-4.30914 -13.5571 1.12692
-4.20838 -13.6457 1.12673
-3.40517 -13.6885 1.10978
-2.92584 -13.6439 1.09753
-2.46867 -13.6057 1.08528
-2.39427 -13.7077 1.08712
-2.29909 -13.7021 1.0843
81.3902 -31.0681 3.28589
81.2169 -30.7307 3.27325
14.0774 53.601 1.47612
1.2164 22.7439 0.870798
-31.9999 37.7803 1.59959
-36.402 33.8695 1.64602
-34.4433 31.1027 1.58078
-54.0724 24.3498 1.98178
-59.1726 -17.5775 2.33038
82.8642 -23.008 2.71132
61.9752 11.5458 1.55587
30.1638 13.8209 0.821864
26.5919 18.4603 0.800067
13.8791 53.6064 1.22265
13.6654 49.6871 1.15933
13.4808 48.7674 1.14406
1.19085 22.8288 0.754173
-37.2543 54.1689 1.55269
-30.7047 38.5244 1.31346
-30.8582 25.7372 1.22745
-42.4344 -18.5077 1.6683
67.8065 -22.7503 2.00154
83.7529 -15.0179 2.28194
83.747 -14.7817 2.27935
83.76 -14.5489 2.27683
83.7909 -14.3207 2.27537
83.8317 -14.0946 2.27395
83.8526 -13.8641 2.27146
83.8795 -13.7528 2.27078
83.9263 -13.5269 2.26937
83.9881 -13.3054 2.26903
84.1125 -13.0935 2.26989
88.9978 10.2539 1.6368
63.387 11.1769 1.19242
31.8487 16.9327 0.681793
13.891 53.4864 0.815464
13.0959 34.377 0.650234
12.9883 34.3948 0.649879
-26.6124 44.0041 0.865859
-39.4847 54.753 1.01889
-35.7514 24.0894 0.901697
-35.7271 23.5155 0.901579
-62.6284 -21.2183 1.51207
-51.4415 -19.1254 1.35065
72.9592 -20.4137 1.60224
85.8873 -21.6851 1.8321
88.2042 -22.1056 1.876
88.462 -16.0515 1.81716
77.6533 9.28377 1.10536
13.9765 53.5594 0.542158
-36.7952 54.198 0.621483
-37.7801 54.2543 0.625946
-57.6693 -15.4111 1.02419
58.0085 14.626 0.508588
18.764 14.359 0.322245
11.7669 22.3784 0.273375
-32.9871 32.9888 0.21036
-33.3376 27.9572 0.235167
-33.4583 27.9333 0.235062
59.2652 -19.4998 0.748075
71.9456 -20.5378 0.821829
87.7556 -22.2874 0.917201
88.3987 -22.2159 0.920135
85.7052 -15.2816 0.85395
85.7472 -15.0487 0.852488
85.9232 -13.9989 0.845868
59.3637 10.9005 0.308417
41.3772 13.2517 0.279256
47.4873 16.2865 0.261413
25.8887 18.6006 0.222573
11.7209 22.3679 0.168341
-33.8204 54.2669 -0.22047
-27.7363 34.9908 -0.0504833
-37.0325 30.0051 -0.0446139
-39.4862 30.5143 -0.0563967
-34.0058 20.3924 0.0371761
88.6641 -18.8922 0.524529
79.1662 9.73004 -0.100327
44.0739 15.6346 0.0372669
37.9491 13.3146 0.0903088
25.8942 18.5695 0.075789
2.04271 24.8783 -0.0466541
-56.6251 26.0683 -0.55135
-58.8382 -14.7714 -0.275675
29.663 -16.5973 0.310735
67.8374 -20.2416 0.141821
88.523 -19.4471 0.0269093
88.1668 -19.1018 0.0278235
88.0748 -18.8253 0.0267769
83.3043 -15.0502 0.0341171
83.7908 -14.9177 0.0313005
83.7829 -14.6804 0.0296997
83.6825 -13.9576 0.0266558
83.4784 -13.8013 0.027165
83.7512 -13.6203 0.0245555
83.5809 -13.3558 0.024417
83.6636 -13.1379 0.022144
84.3665 -13.032 0.0179796
91.8076 0.900509 -0.597679
91.9566 1.40381 -0.60371
91.875 1.654 -0.603559
63.3149 11.3036 -0.347619
26.2506 18.8374 -0.0742206
26.1679 18.8515 -0.0734963
13.283 20.8506 -0.0771115
11.7223 22.242 -0.108822
3.92572 23.2095 -0.165389
1.87213 24.6485 -0.208499
-28.8121 42.9909 -0.856249
76.7104 -18.4562 -0.326633
82.0546 -18.9112 -0.385871
87.2515 -16.3044 -0.453864
89.3282 -16.4991 -0.477008
85.4915 -14.8395 -0.438501
85.6025 -14.1412 -0.442918
85.6405 -13.9091 -0.444383
54.1819 5.30153 -0.482611
54.5674 13.3598 -0.580541
32.6281 14.6358 -0.232192
33.5674 21.8972 -0.39259
27.0406 18.7719 -0.246054
12.0269 24.2645 -0.319655
11.7101 21.9883 -0.257159
4.02306 23.1279 -0.333635
2.014 24.3916 -0.386478
-38.8424 24.6077 -1.10859
31.5106 -16.7832 -0.0329787
64.4801 -15.6453 -0.577235
66.9018 -14.1384 -0.622978
78.2898 -13.0213 -0.832448
77.6219 -12.0357 -0.82349
77.6864 -11.9403 -0.824985
77.9746 -11.7787 -0.830431
78.971 -11.7405 -0.8495
78.9696 -11.5234 -0.849952
78.6554 -8.6843 -0.853587
70.6606 -1.20028 -1.04208
70.3373 -1.01086 -1.03605
58.4257 4.82014 -0.797094
27.0019 18.5811 -0.362868
26.9462 18.6315 -0.364327
24.0862 19.8375 -0.360651
16.0227 16.9399 -0.208006
14.0704 23.005 -0.400768
11.9643 24.1123 -0.43978
11.6591 21.9368 -0.368931
3.90132 23.2832 -0.465941
-41.7336 54.848 -2.13576
-27.7474 36.6918 -1.39189
-28.3888 30.78 -1.26785
-36.3723 33.6047 -1.51622
-64.8194 11.4839 -1.92004
-64.9855 11.015 -1.91928
57.2283 -16.3729 -0.695297
57.2849 -16.2323 -0.696111
57.4397 -16.1272 -0.699472
60.5487 -12.5544 -0.766493
62.3573 -12.5992 -0.808227
65.336 -12.8093 -0.877289
67.3075 -12.2752 -0.923529
67.5795 -11.9691 -0.929974
67.4276 -11.8461 -0.926128
68.5693 -9.96802 -0.956156
69.1605 -9.42513 -0.971482
69.5129 -9.29721 -0.980563
69.6034 -9.12649 -0.982503
69.8433 -8.97765 -0.98897
70.0982 -8.8302 -0.995395
70.2205 -8.66231 -0.998247
69.1105 -7.67426 -0.975276
68.1696 -7.18975 -0.954573
68.0114 -7.07962 -0.951655
61.9686 -1.29035 -1.13155
61.9586 -1.13304 -1.13162
61.9997 -0.977054 -1.13357
62.0327 -0.898886 -1.13502
62.0518 -0.741334 -1.13703
62.0358 -0.583868 -1.13712
61.9428 -0.42641 -1.13537
63.2005 1.25151 -1.18481
63.4178 1.3379 -1.19191
65.0647 2.63261 -1.25094
65.2123 2.80784 -1.25678
65.5522 2.99408 -1.26828
65.8391 3.1797 -1.27889
65.9126 3.35385 -1.28289
66.0653 3.53394 -1.28876
66.3391 3.63788 -1.29785
66.545 3.8236 -1.30564
66.8241 4.01642 -1.31531
67.1172 4.21188 -1.32598
67.4866 4.41537 -1.33852
67.833 4.61945 -1.35112
68.0872 4.81792 -1.36089
48.8716 5.75816 -0.80132
33.0332 8.70628 -0.390739
37.2866 12.773 -0.586548
36.9932 12.7236 -0.577861
11.7084 22.0527 -0.503599
3.92581 23.2886 -0.611927
-39.4417 52.759 -2.4738
-33.6998 26.1487 -1.6096
-60.2779 14.1377 -2.2598
-60.2571 13.8981 -2.25615
-64.914 11.0691 -2.37949
-58.1635 -15.3393 -1.99945
52.5037 -11.7946 -0.832219
56.9616 -10.9748 -0.95891
57.9686 -9.55143 -0.9872
58.865 -9.43063 -1.01404
60.0126 -9.03622 -1.04715
60.2287 -8.99881 -1.05393
59.5306 -8.25146 -1.03445
60.97 -7.94765 -1.07632
61.0737 -7.80629 -1.08003
60.5696 -7.25804 -1.0658
60.1719 -7.04367 -1.0551
62.3602 -5.43484 -1.12404
62.4411 -5.28288 -1.12687
62.4611 -5.20537 -1.12735
62.4273 -5.04145 -1.12751
62.3516 -4.87443 -1.12579
62.2729 -4.70733 -1.12408
62.263 -4.54702 -1.12417
62.1494 -4.21897 -1.12161
62.0765 -4.05503 -1.12087
62.1525 -3.98198 -1.12319
62.3535 -3.36098 -1.13189
62.1629 -3.03194 -1.1275
62.081 -2.94779 -1.12525
62.0461 -2.78883 -1.12538
62.0691 -2.63238 -1.12638
62.0862 -2.47477 -1.12839
62.1162 -2.3185 -1.12937
62.1193 -2.16153 -1.13041
62.0973 -2.00291 -1.13051
62.0364 -1.9213 -1.12919
61.9885 -1.76202 -1.12936
61.9835 -1.60483 -1.12942
61.9766 -1.44761 -1.13049
54.8121 1.61516 -1.21865
54.9448 1.75476 -1.22429
55.0584 1.89585 -1.22998
55.2121 2.0379 -1.23659
55.427 2.18537 -1.2451
59.9631 5.22449 -1.43943
60.4465 6.28124 -1.46843
53.7732 12.7101 -1.32697
37.3286 12.7937 -0.773598
37.3961 12.929 -0.779353
26.5147 14.0922 -0.492986
14.7152 20.2113 -0.565715
14.6808 20.1972 -0.564696
11.7161 22.2596 -0.657966
11.6592 21.491 -0.622962
7.07935 19.2664 -0.556166
-43.9457 33.8299 -2.51937
-64.7626 11.1939 -2.88401
-52.6846 -10.2241 -2.24756
-50.4043 -10.4662 -2.15594
-46.2894 -14.3603 -1.99592
40.1518 -17.3814 -0.747042
40.2849 -17.3418 -0.751014
40.3737 -17.2731 -0.752278
40.4398 -17.1908 -0.753682
40.5325 -17.1251 -0.755917
40.6312 -17.0617 -0.758124
40.7165 -17.0519 -0.760002
40.8191 -16.9905 -0.762186
40.902 -16.9176 -0.764491
40.9899 -16.8469 -0.76577
41.0738 -16.773 -0.768079
41.1498 -16.6959 -0.769426
41.2614 -16.6378 -0.77157
41.3487 -16.6261 -0.774456
41.3853 -16.525 -0.774051
41.4209 -16.4239 -0.774647
41.495 -16.3437 -0.776019
41.5809 -16.2699 -0.777323
41.6708 -16.1982 -0.779605
41.7617 -16.1266 -0.781883
41.8027 -16.0886 -0.782047
41.9084 -16.0243 -0.785244
42.0062 -15.9548 -0.787493
42.1198 -15.8947 -0.790645
42.1337 -15.7811 -0.789373
42.2631 -15.7274 -0.792447
43.8606 -15.3056 -0.839757
44.4831 -14.6725 -0.854616
44.6039 -14.6046 -0.857804
43.2579 -13.6513 -0.805118
43.4365 -13.67 -0.810602
43.4355 -13.5519 -0.809392
43.4889 -13.4582 -0.8109
44.8413 -11.9477 -0.845013
49.8398 -0.940031 -1.24451
49.8159 -0.820372 -1.24436
49.761 -0.699903 -1.24228
49.726 -0.580962 -1.24215
49.7001 -0.462244 -1.241
49.6671 -0.343354 -1.24087
49.5866 -0.165205 -1.23823
49.5387 0.0711139 -1.23792
49.5137 0.188799 -1.23776
49.5137 0.305835 -1.23854
53.6407 5.87213 -1.46863
32.3824 7.49806 -0.62211
43.6007 14.464 -1.22399
37.3842 12.8012 -0.94453
17.3725 19.75 -0.681808
11.7219 22.0455 -0.779528
-43.0344 33.7591 -2.8689
-17.1268 12.1632 -1.1999
-50.5535 -2.73026 -2.5539
-50.5786 -7.98238 -2.53991
-50.391 -8.15721 -2.53133
-33.8299 -10.0098 -1.77061
-33.5007 -10.3132 -1.75586
46.9962 -10.2144 -1.12686
47.8625 -8.89539 -1.15576
48.0216 -8.8155 -1.16194
45.2959 -7.98134 -1.04649
50.3272 -3.73261 -1.2538
50.3723 -3.61575 -1.25649
50.3399 -3.55188 -1.25498
50.3091 -3.42704 -1.25388
50.2523 -3.30152 -1.25185
50.1925 -3.17493 -1.24982
50.1407 -3.05053 -1.24776
50.1019 -2.92649 -1.24668
50.051 -2.80312 -1.24461
49.9896 -2.7385 -1.24218
49.9338 -2.61402 -1.24113
49.9319 -2.49492 -1.24093
49.9819 -2.37819 -1.2436
50.0629 -2.26325 -1.24719
50.1269 -2.14688 -1.25083
50.154 -2.02755 -1.25256
50.1481 -1.90735 -1.25238
50.0987 -1.84505 -1.2509
50.0708 -1.72328 -1.24978
49.9719 -1.59968 -1.24682
49.8323 -1.11789 -1.24334
49.8608 -1.05961 -1.24466
45.725 -0.844295 -1.26418
45.7173 -0.791083 -1.26455
45.7301 -0.685377 -1.26523
45.7198 -0.57908 -1.26596
45.7315 -0.473349 -1.26664
45.7112 -0.366789 -1.26639
45.6999 -0.261466 -1.26712
45.6427 -0.154941 -1.26496
45.619 -0.10231 -1.26436
45.5824 0.108709 -1.26385
46.4999 4.30903 -1.34887
46.5254 4.36638 -1.35119
46.5744 4.48314 -1.35487
46.6295 4.60173 -1.35954
47.975 6.9293 -1.45712
46.9112 10.5688 -1.47574
40.7277 12.8661 -1.25463
37.6098 12.8472 -1.11935
37.3378 12.8103 -1.1067
25.9234 18.4852 -0.906609
25.8344 18.4875 -0.903819
-24.0205 31.4568 -2.3408
-40.6389 -3.40243 -2.39166
-40.0439 -7.9991 -2.35468
-39.9187 -8.14734 -2.34841
-26.9052 -12.7104 -1.70539
43.708 -8.93968 -1.17458
43.7972 -8.85698 -1.17894
43.8188 -8.75549 -1.17857
43.754 -8.63076 -1.17454
43.704 -8.50941 -1.17146
43.6591 -8.3912 -1.16935
43.952 -8.36181 -1.1829
44.005 -8.32117 -1.18506
46.0173 -3.48078 -1.26894
46.037 -3.37526 -1.2706
46.0577 -3.26976 -1.27126
46.0775 -3.16324 -1.27293
46.0713 -3.05504 -1.27267
45.7978 -2.17562 -1.26213
45.7685 -2.06783 -1.26092
45.7892 -1.96233 -1.26258
45.8429 -1.85869 -1.26515
45.8996 -1.75514 -1.26872
45.9453 -1.65029 -1.27132
45.9541 -1.54449 -1.272
45.9525 -1.49043 -1.27237
45.8105 -1.05859 -1.26756
45.7262 -0.950368 -1.26447
42.7984 3.94699 -1.36557
42.8552 4.05354 -1.37016
42.9026 4.10932 -1.37343
42.9624 4.21579 -1.37801
42.9981 4.31988 -1.38163
43.0267 4.42316 -1.38425
43.0615 4.52828 -1.38788
43.1108 4.73505 -1.39415
43.1372 4.78937 -1.39645
43.1876 4.99711 -1.40173
43.4023 5.48863 -1.42154
43.4673 5.60197 -1.42715
43.5011 5.70911 -1.43079
43.5138 5.81481 -1.43247
43.5305 5.9204 -1.43514
43.7061 6.83404 -1.46085
43.7467 6.89499 -1.46417
43.8374 7.2297 -1.4752
43.3542 9.17171 -1.49122
43.3408 9.27408 -1.49294
43.2962 9.36826 -1.49266
37.5799 12.7938 -1.29806
37.1831 12.6941 -1.27526
12.0802 24.1974 -1.18211
-31.3647 -8.90456 -2.18958
31.2279 -12.8348 -0.829967
41.059 -3.61697 -1.21891
41.152 -3.58238 -1.22394
41.0406 -3.47644 -1.21789
40.8332 5.59061 -1.44186
40.8467 5.68728 -1.44447
40.9313 5.75109 -1.45071
40.9871 5.85665 -1.4563
41.0197 5.95883 -1.45991
41.0413 6.05828 -1.46352
41.0599 6.15782 -1.46615
37.4532 12.7161 -1.44082
37.396 12.7866 -1.44042
37.5557 12.9684 -1.45528
11.9472 23.915 -1.29152
6.77314 17.9433 -0.940018
-26.845 4.09785 -2.18043
-27.1447 -6.26888 -2.14691
28.48 -15.2935 -0.902592
28.5175 -15.2324 -0.901917
28.5581 -15.1734 -0.902221
38.795 -3.43482 -1.2401
38.7413 -3.34338 -1.23683
38.8333 -3.26875 -1.24212
38.7297 -3.21403 -1.23671
38.9818 7.84612 -1.57897
38.9953 7.94178 -1.58258
39.0348 7.99976 -1.58588
39.0453 8.0955 -1.5895
39.0537 8.1903 -1.59211
37.4303 11.3472 -1.58874
37.3863 11.4234 -1.58835
37.3473 11.5014 -1.58895
37.3103 11.5814 -1.58957
37.2814 11.6641 -1.59018
37.2452 11.6951 -1.58947
37.2022 11.7722 -1.59008
37.1743 11.8549 -1.59069
37.112 11.9226 -1.58928
37.0436 11.9864 -1.58786
37.0107 12.0682 -1.58847
36.9748 12.1472 -1.59008
36.821 12.3152 -1.58654
36.8286 12.416 -1.5912
20.928 16.3461 -1.0243
20.9643 16.4742 -1.03407
12.005 23.9704 -1.46277
11.7228 22.1879 -1.32849
-21.7185 0.678649 -2.05036
-21.7402 0.573162 -2.0517
-21.7203 0.413614 -2.0486
-22.049 -5.95128 -2.06484
37.8124 8.4209 -1.65338
35.7001 11.5535 -1.62192
35.6478 11.6199 -1.62047
35.627 11.7025 -1.62307
35.5815 11.7257 -1.62033
35.5211 11.7883 -1.61888
21.003 16.6085 -1.13689
11.7125 22.0905 -1.42986
-19.4191 5.32979 -2.10535
-19.3988 5.22424 -2.1026
29.9275 -9.58364 -1.04652
34.0963 10.9533 -1.65743
34.0722 11.028 -1.65898
25.5006 14.8019 -1.33097
11.7653 22.2231 -1.58664
10.704 18.3243 -1.25394
-16.0785 4.57611 -2.02799
33.8086 -1.37456 -1.34879
33.8264 -1.34101 -1.34998
33.8272 -1.27301 -1.35043
33.8519 -1.20564 -1.35282
33.8297 -1.13504 -1.35134
33.8355 -1.06616 -1.35179
32.4393 2.12863 -1.38917
32.9848 4.9739 -1.49497
33.0158 5.0511 -1.49941
33.0449 5.09235 -1.50262
33.083 5.17236 -1.50808
33.0858 5.24329 -1.51054
33.1118 5.32063 -1.514
33.1257 5.39427 -1.51746
33.1387 5.46895 -1.52093
33.1355 5.53904 -1.52241
32.7369 10.373 -1.67054
32.6884 10.4303 -1.67003
25.8941 18.4764 -1.73464
19.5915 17.2825 -1.37649
11.724 22.0834 -1.7018
10.9747 20.4211 -1.55135
-0.749699 18.6727 -1.75141
-4.65443 16.3169 -1.80426
-11.8496 13.5707 -2.15574
-11.9201 13.5115 -2.1585
-11.9571 13.4334 -2.15706
-11.985 13.3991 -2.15789
-12.0497 13.3367 -2.15961
31.6849 5.10826 -1.51372
31.7188 5.18337 -1.51914
31.7347 5.25397 -1.52258
31.7505 5.32456 -1.52602
31.7755 5.36391 -1.52922
31.7924 5.43548 -1.53266
31.8173 5.50984 -1.53711
31.817 5.57685 -1.53955
31.7926 5.63651 -1.539
31.8044 5.7082 -1.54246
31.8193 5.77982 -1.5459
31.8312 5.81651 -1.54812
31.8451 5.88816 -1.55157
32.1191 6.69906 -1.60338
32.1038 6.76447 -1.60385
31.7707 9.55744 -1.69222
31.717 9.60785 -1.69068
31.6977 9.63735 -1.69091
31.6734 9.701 -1.69139
18.4605 14.8227 -1.22555
11.9515 23.4353 -1.96633
11.0928 20.2603 -1.65602
-10.3661 12.7152 -2.15277
-10.4128 12.6494 -2.15343
-10.4477 12.5753 -2.15202
-10.4796 12.5011 -2.15059
20.9393 16.2964 -1.68496
16.9847 19.7679 -1.90481
13.9746 20.4974 -1.93828
13.9439 20.5122 -1.93945
13.8789 20.5108 -1.93858
21.0326 -11.2195 -1.06012
22.4319 15.0111 -1.76111
22.3868 15.0473 -1.76245
13.4259 19.658 -1.97089
-3.34928 13.6757 -2.06078
-3.39155 13.6268 -2.06055
-3.42881 13.6167 -2.06356
-3.45348 13.5524 -2.06019
18.8676 -12.0874 -1.09808
19.1149 -12.1189 -1.11433
21.3606 -10.2949 -1.10658
20.4794 15.0943 -1.76595
20.4384 15.1334 -1.7673
20.4037 15.1823 -1.7707
20.3626 15.2203 -1.77305
13.4936 17.7513 -1.85801
16.3692 16.5299 -1.85755
16.3109 16.5184 -1.8546
16.2718 16.4775 -1.84841
15.2804 17.1328 -1.90696
13.2573 16.8872 -1.84676
9.99215 15.5377 -1.68892
9.93795 15.5691 -1.69425
-1.94101 12.3071 -2.05256
-1.98894 12.2713 -2.05442
-2.02414 12.2252 -2.05319
25.7386 5.59805 -1.56103
25.7258 5.64439 -1.56137
-0.850646 11.0626 -2.04586
-0.854382 10.9957 -2.03942
14.5284 -11.5801 -1.16699
24.2237 4.92399 -1.52886
24.2188 4.96711 -1.53116
24.218 5.01214 -1.53346
17.8625 13.3398 -1.79798
17.8364 13.3365 -1.79602
17.796 13.3585 -1.79726
17.7556 13.3825 -1.7985
17.7119 13.3947 -1.79768
17.6725 13.4197 -1.79893
17.6289 13.4338 -1.79812
17.5863 13.4519 -1.79834
17.5405 13.4601 -1.79749
11.1461 -11.4787 -1.2591
11.1613 -11.5081 -1.26287
15.1461 5.90303 -1.64632
17.236 -14.5523 -5.03131
17.2562 -14.4666 -5.00584
17.3335 -14.5369 -5.0372
17.3855 -14.5373 -5.04409
10.908 1.43006 -0.496739
12.5146 -1.87557 -0.518156
11.1092 1.13659 -0.374336
11.1486 1.18541 -0.401577
11.1946 1.11246 -0.362988
11.1867 1.11664 -0.366033
14.2455 -10.3876 -4.36865
11.1142 1.17015 -0.422551
10.8652 1.5034 -0.615326
11.116 1.16013 -0.41848
11.1119 1.15723 -0.418469
11.075 1.19804 -0.442823
11.04 1.23779 -0.467166
10.9866 1.29693 -0.504679
10.9903 1.28388 -0.498583
11.0056 1.25657 -0.484367
11.0015 1.25367 -0.484357
11.008 1.23754 -0.477235
10.8616 1.40868 -0.5807
11.0626 1.07159 -0.401006
11.0291 1.05142 -0.403945
10.8773 1.20771 -0.505323
13.4417 -1.0292 -0.530769
13.4782 -1.0102 -0.539816
13.4779 -1.14359 -0.593928
13.4418 -1.10749 -0.570248
13.4076 -1.07346 -0.548549
13.4874 -1.08774 -0.58228
1.15033e-41 0 -4.91532e-30
