ply
format ascii 1.0
element vertex 835
property float x
property float y
property float z
end_header
135.634 -0.744905 3.35352
123.983 5.78861 2.94464
149.047 18.3612 3.89049
103.944 16.3445 2.37416
95.7506 12.6845 2.07112
95.8958 12.9168 2.07967
93.602 26.5285 2.31998
91.4181 28.0238 2.31471
91.8927 41.6588 2.69252
91.7383 41.7017 2.69201
91.6437 41.8975 2.69612
91.427 41.7848 2.68899
91.2224 41.6986 2.6838
91.1915 42.06 2.69349
75.1054 12.3532 1.64018
66.63 13.6519 1.68663
52.9558 15.1783 1.93796
38.2043 17.2302 2.32694
3.19776 21.6561 3.35573
15.0219 14.0759 2.94558
24.3213 -8.52271 2.62544
24.3582 -9.13154 2.6276
24.2117 -9.22018 2.63255
25.1478 -9.59832 2.60506
23.7025 -10.3471 2.65517
14.3958 -12.4872 2.96133
15.1392 -13.0412 2.94298
20.7485 -14.3054 2.7786
6.78039 -18.5126 3.25071
45.1584 -11.4885 1.99903
45.0494 -11.6039 2.00316
30.1603 -21.8793 2.58669
8.72886 -30.3886 3.34468
25.5568 -28.794 2.83625
11.1062 -38.8983 3.42724
48.7001 -19.4831 2.0206
49.1208 -19.3368 2.0061
56.2889 -19.4301 1.82745
58.3472 -18.8988 1.76654
46.5399 -33.5757 2.42235
46.5243 -33.7715 2.42798
46.57 -33.9005 2.43052
41.4047 -39.7329 2.70107
46.4286 -34.6013 2.45357
46.658 -34.8078 2.45482
47.9282 -34.095 2.40841
26.8177 -58.812 3.54123
26.862 -58.9297 3.54373
27.1695 -59.2518 3.54756
135.514 -54.8247 4.10497
132.57 -46.568 3.82492
134.545 -40.6159 3.75839
134.922 -21.0397 3.45578
134.912 -20.83 3.45304
134.934 -20.6282 3.45141
134.934 -20.3178 3.44835
134.94 -20.1136 3.44568
134.967 -19.9133 3.44506
134.964 -19.7067 3.44235
122.855 7.48144 2.5842
104.052 16.6815 2.14027
95.7514 12.0399 1.87631
95.9068 12.2718 1.88289
99.8148 35.4252 2.35952
93.8532 26.6446 2.08418
97.8809 34.5205 2.309
100.182 38.4815 2.42601
98.251 35.6781 2.33795
100.527 47.1359 2.60843
91.8791 41.2777 2.36178
91.8051 41.5171 2.36579
91.9961 42.4189 2.38818
91.8407 42.2487 2.38239
91.6426 42.1868 2.37913
91.2569 41.6451 2.36206
91.2532 42.0742 2.37159
61.452 11.2415 1.55852
61.3786 11.2371 1.55936
24.3805 -10.0798 2.32387
9.77886 -28.8716 2.86402
46.6972 -33.4591 2.17232
46.6913 -33.5542 2.17463
39.9573 -41.025 2.46001
47.4004 -33.1379 2.1529
121.954 -27.5835 2.76219
133.154 -21.2817 3.0004
133.163 -21.0809 2.99874
133.217 -20.4884 2.99385
133.237 -20.2922 2.99323
133.234 -20.0897 2.99054
133.22 -19.9866 2.98915
145.307 -19.7922 3.34122
123.212 7.68501 2.35036
105.669 17.4483 2.0005
92.3191 9.46267 1.64291
91.3489 9.2362 1.62137
118.086 52.8336 2.6788
100.344 31.2926 2.07482
93.4539 26.5925 1.89641
98.3337 35.7067 2.11204
97.2442 36.7117 2.11304
91.8229 41.4136 2.12519
91.8294 41.8574 2.13369
91.802 42.2213 2.13939
91.5052 41.9071 2.13075
91.3113 41.8527 2.12748
91.3501 42.1724 2.13448
-4.86174 -14.4116 2.71311
141.071 -38.3484 3.08819
133.028 -20.9012 2.6998
133.009 -20.6954 2.69806
133.077 -19.7077 2.69086
133.054 -19.6032 2.68945
133.011 -19.3928 2.68664
133.304 -19.261 2.69288
134.457 -19.116 2.71913
120.57 5.94711 1.90898
98.0437 13.2921 1.5615
101.728 38.6336 1.80816
91.1556 30.9298 1.62721
90.4629 30.6797 1.61842
90.3908 30.6772 1.61725
91.8209 40.9589 1.73772
92.3385 42.6457 1.76022
-3.33599 -19.0777 2.12858
123.271 -26.7461 2.11347
141.066 -29.449 2.43194
138.191 -23.0284 2.33229
139.25 -21.8648 2.34186
139.51 -21.2633 2.34243
145.221 -19.5216 2.43009
96.7108 12.1623 1.38417
98.0059 36.7658 1.49966
97.4474 36.8791 1.49595
89.8588 29.9825 1.40435
89.7546 30.0504 1.40387
90.505 32.2285 1.42125
90.3676 32.2426 1.42088
93.1565 -19.465 1.43217
93.1682 -19.3787 1.43191
93.2313 -19.3274 1.43188
120.124 -26.6557 1.79568
112.389 -21.9408 1.67028
112.424 -21.8094 1.66992
139.249 -21.8466 1.99179
105.759 17.9442 1.21202
97.1354 31.9824 1.15784
94.7131 34.861 1.14531
98.5838 44.3543 1.15525
89.6758 29.7154 1.12982
89.3903 29.4026 1.1292
89.3545 29.4685 1.12889
89.3568 29.7593 1.12791
90.23 31.9122 1.13067
90.1779 32.1079 1.12988
90.1582 32.6899 1.12986
90.0031 32.6662 1.12957
89.9095 32.6203 1.1285
89.7806 32.6514 1.12809
89.6011 32.5716 1.12794
33.229 17.2163 1.05815
93.0618 -19.1979 1.25804
123.745 -27.1715 1.45504
112.194 -22.0242 1.3711
112.367 -21.6595 1.37027
138.026 -23.0269 1.51389
134.95 -21.6745 1.49099
134.956 -21.4672 1.4903
137.565 -21.167 1.50347
137.818 -21.0122 1.50455
132.538 -19.5483 1.46903
133.936 -19.2716 1.47541
105.717 17.5991 1.02309
105.721 17.7571 1.02257
91.3343 8.96673 1.04425
90.4353 9.27363 1.04207
89.6544 29.9444 0.944987
89.5208 29.9499 0.944651
89.4309 29.9024 0.944599
89.3119 29.9381 0.944195
90.1874 32.121 0.934859
90.2208 32.5063 0.93363
94.7142 42.6943 0.891695
90.1156 32.9119 0.931002
99.724 54.6975 0.84282
91.8955 37.3907 0.913015
91.7439 37.412 0.912583
93.1574 -19.1961 1.14226
93.2039 -19.1342 1.14216
112.312 -21.9289 1.16905
113.152 -21.833 1.16972
130.627 -28.173 1.20379
138.535 -29.2691 1.2143
132.728 -20.9699 1.18531
132.72 -20.8667 1.18494
132.714 -20.6647 1.18424
132.724 -20.467 1.18359
132.732 -20.2691 1.18294
132.74 -20.0711 1.18228
132.717 -19.8667 1.18153
132.872 -19.6044 1.18101
145.402 -19.4468 1.19125
152.464 -3.79655 0.639857
152.123 -3.67881 0.641648
98.3786 13.0052 0.834264
96.4478 11.9577 0.850234
89.1948 13.8227 0.858664
110.593 44.3166 0.51291
100.062 30.5899 0.670521
96.7975 35.8227 0.624987
91.2452 32.3257 0.668675
90.3974 31.77 0.675548
90.3053 31.8796 0.674957
90.1803 31.7645 0.676051
91.9026 35.7757 0.632516
91.8862 36.0833 0.628432
91.8503 36.3483 0.626446
94.1499 41.7705 0.56649
92.0372 37.469 0.614083
91.8693 37.4543 0.614734
112.318 -22.0226 0.897385
112.685 -21.6622 0.895033
142.748 -29.8731 0.75036
132.198 -20.6821 0.794069
132.174 -20.5765 0.794653
132.168 -20.3765 0.793959
132.192 -20.184 0.793363
132.221 -19.993 0.792781
132.247 -19.8008 0.79319
132.293 -19.6146 0.791668
132.466 -19.458 0.790546
132.803 -19.4378 0.78928
145.363 -19.3899 0.72196
152.03 -4.59946 0.15855
138.119 -0.328926 0.303989
148.28 3.58656 0.166828
102.029 7.62497 0.660214
98.32 8.00011 0.695127
97.5631 12.5352 0.652921
97.3031 12.4642 0.656544
99.7362 31.507 0.38163
98.2481 29.6962 0.417246
99.4589 33.651 0.351687
93.7374 31.2665 0.417193
95.5996 38.6226 0.293626
89.8671 30.2472 0.44946
89.8004 30.3985 0.446787
92.5875 36.6131 0.337296
90.1554 31.7482 0.424045
90.5663 32.9421 0.402965
91.6968 35.7242 0.3542
91.9826 36.5211 0.340172
91.7673 36.3971 0.343081
91.6459 36.4786 0.342516
93.9746 42.0571 0.244097
93.8975 42.2887 0.241126
64.0648 21.2683 0.579654
63.9712 21.2709 0.578423
65.6051 16.0958 0.675888
44.558 -4.09794 0.617479
93.4188 -19.1364 0.832672
123.34 -27.0754 0.507737
128.986 -27.3228 0.446993
129.573 -27.3464 0.440468
129.891 -27.3659 0.437291
135.648 -26.2306 0.376112
127.968 -22.8342 0.463327
133.105 -23.1038 0.406447
133.976 -22.9416 0.396966
134.562 -22.481 0.390793
136.351 -22.7589 0.370988
137.843 -23.054 0.354535
132.738 -21.272 0.411353
133.359 -21.2318 0.40469
132.994 -20.031 0.408745
133.297 -19.9027 0.405029
134.59 -19.087 0.390331
135.228 -13.4168 -0.0604223
137.23 -10.8062 -0.100532
136.93 -10.5782 -0.0960201
137.083 -10.1842 -0.0989952
144.931 -5.31454 -0.257893
142.24 -3.35351 -0.214949
141.35 1.92591 -0.224
150.751 3.80196 -0.408036
142.78 4.31229 -0.264709
115.723 1.1011 0.252914
99.138 30.175 0.0967314
99.2938 32.4594 0.0483402
98.7023 32.3685 0.0562437
98.7025 32.6241 0.0503755
94.4792 31.3082 0.115812
103.089 46.4202 -0.280073
89.7952 30.2064 0.175425
90.9807 32.8399 0.108295
90.8886 32.9565 0.10668
90.7732 33.024 0.105176
90.6403 33.0546 0.105756
91.724 35.7243 0.0392612
93.9993 41.0417 -0.095398
91.8185 36.622 0.0184358
91.7253 36.5933 0.0193121
97.9936 50.9446 -0.342552
64.0495 21.2983 0.382515
65.6386 16.1763 0.516692
115.591 -25.4093 0.262663
115.799 -25.3418 0.259928
116.136 -25.3327 0.254698
116.468 -25.3197 0.249441
116.612 -25.3015 0.246722
116.703 -25.1774 0.245517
116.821 -25.0645 0.244415
117.038 -24.9942 0.240691
117.215 -24.9059 0.238811
117.444 -24.8395 0.235129
117.683 -24.7756 0.23148
117.812 -24.7481 0.229694
118.061 -24.6856 0.225072
113.641 -22.1279 0.312882
121.728 -23.7488 0.166603
122.027 -23.6845 0.162094
118.968 -21.161 0.224253
125.512 -21.1989 0.108931
126.171 -21.2128 0.0975444
127.105 -21.2116 0.0807598
129.365 -18.4498 0.0457457
129.873 -18.379 0.0357139
132.182 -16.1804 -0.00426881
131.556 -15.9721 0.00753514
127.233 -11.8374 -0.194786
134.926 -3.2317 -0.397744
134.74 -3.04371 -0.394824
134.906 1.87537 -0.425142
101.82 9.95885 0.242785
96.9117 11.2037 0.319894
98.0124 37.3324 -0.297262
98.2825 38.1043 -0.320243
95.4581 40.0757 -0.343652
93.1877 36.3332 -0.222332
90.6665 31.4614 -0.0687701
90.5797 31.5792 -0.0713767
94.7127 40.554 -0.350048
90.9522 32.9718 -0.112223
90.8325 33.0308 -0.112708
90.7893 33.0947 -0.114028
90.6465 33.1066 -0.113407
90.5057 33.1182 -0.111781
94.3813 41.9509 -0.384582
92.1094 37.3174 -0.239238
94.0619 42.0403 -0.384644
93.9842 42.268 -0.389603
94.0257 42.5641 -0.39851
64.0675 21.2669 0.239663
65.5809 16.1733 0.398564
110.224 -23.8288 0.14754
110.416 -23.7761 0.143817
110.67 -23.7528 0.138341
110.659 -23.6006 0.139798
110.822 -23.5315 0.13695
110.998 -23.4684 0.134154
111.186 -23.4102 0.130404
114.275 -22.5946 0.0699715
114.501 -22.3823 0.0657877
111.845 -21.0216 0.132856
121.096 -16.5198 -0.0564606
121.175 -16.3778 -0.0577539
121.285 -16.2424 -0.0599531
121.406 -16.1096 -0.0631151
121.579 -15.9864 -0.0661232
121.69 -15.8491 -0.0683256
121.802 -15.713 -0.0715221
121.87 -15.0043 -0.0717688
122.155 -14.4973 -0.0778147
125.616 -14.2743 -0.157348
120.079 -7.20886 -0.313511
120.209 -7.1391 -0.317438
120.389 -6.99572 -0.323498
120.533 -6.85007 -0.327651
120.899 -6.55825 -0.338772
121.071 -6.41074 -0.344864
121.215 -6.26099 -0.349032
121.437 -6.18864 -0.355748
121.619 -6.03848 -0.361827
121.775 -5.88652 -0.366973
122.374 -5.26811 -0.38665
122.539 -5.1893 -0.392525
122.623 -5.0328 -0.394858
122.893 -4.87339 -0.403758
123.037 -4.7136 -0.408959
123.132 -4.55376 -0.412276
123.223 -4.39432 -0.415601
123.326 -4.23252 -0.418907
123.437 -4.15081 -0.422921
123.529 -3.98841 -0.426255
123.676 -3.82411 -0.431463
123.781 -3.66062 -0.434769
123.873 -3.49723 -0.438106
124.02 -3.32982 -0.443326
124.158 -3.16223 -0.448565
124.277 -2.9957 -0.45285
124.413 -2.90758 -0.457825
124.529 -2.73863 -0.461124
124.567 -2.57346 -0.463594
124.489 -2.41532 -0.462318
124.756 -2.23524 -0.471296
124.963 -2.0586 -0.478402
126.529 -1.02325 -0.5302
126.177 -0.883656 -0.52051
125.649 -0.760601 -0.506182
127.061 0.13763 -0.552879
93.7303 1.75393 0.399438
89.3206 10.829 0.324129
88.5732 12.5731 0.292428
98.4455 42.0128 -0.744138
99.3626 47.4134 -0.927307
95.7146 40.5292 -0.662586
93.142 36.1956 -0.493975
94.7409 40.1831 -0.640724
94.6456 40.3528 -0.644527
94.5211 40.462 -0.647193
90.8472 33.0299 -0.365672
90.7499 33.1382 -0.367271
91.7112 35.5316 -0.456119
78.897 9.61568 0.526485
64.103 21.2713 0.0727308
64.0016 21.2963 0.0704048
65.6463 16.1481 0.264804
102.415 -19.3139 0.153647
103.275 -19.6 0.127661
107.916 -21.6901 -0.0172117
113.601 -17.4244 -0.140197
118.831 -13.4629 -0.276228
115.147 -4.5978 -0.453101
115.268 -4.46197 -0.458274
115.384 -4.3254 -0.462463
115.523 -4.18709 -0.468603
115.652 -4.04846 -0.473767
116.123 -3.69118 -0.492861
116.214 -3.55083 -0.496123
116.341 -3.40781 -0.501307
116.456 -3.26502 -0.506519
116.586 -3.12045 -0.5117
116.771 -3.04145 -0.519531
116.978 -2.89097 -0.52755
117.187 -2.73881 -0.535569
117.384 -2.58574 -0.543623
117.561 -2.43288 -0.550721
117.796 -2.27446 -0.5607
113.939 0.72537 -0.445056
99.5958 4.09415 0.0164221
107.389 8.11424 -0.313721
106.851 8.02748 -0.294703
98.6544 5.10981 0.0307348
90.6517 11.6921 0.112358
99.1478 37.7276 -0.951913
95.9855 40.447 -1.00067
95.9358 40.528 -1.00306
95.6963 40.4116 -0.995233
95.5677 40.5134 -0.996884
93.5089 36.6915 -0.821791
93.1642 36.3198 -0.802347
93.4691 37.2866 -0.843907
93.4255 37.5406 -0.852874
94.3958 40.1116 -0.964303
93.1816 37.9029 -0.862684
92.2824 36.3311 -0.79048
92.1369 36.7092 -0.803111
4.48253 -11.9175 -1.7012
93.2506 -19.344 0.224972
98.817 -22.2293 0.00799941
98.8764 -22.2097 0.00607431
98.9919 -22.1671 0.00320361
98.6781 -19.031 0.0628045
111.446 -14.4289 -0.325496
110.502 -4.14304 -0.511683
110.578 -4.08141 -0.514713
110.685 -3.95768 -0.519879
110.77 -3.8357 -0.524092
110.876 -3.71083 -0.529264
110.996 -3.58504 -0.535405
111.042 -3.46233 -0.537714
111.185 -3.3338 -0.54481
111.381 -3.26262 -0.552585
111.514 -3.1325 -0.559713
111.66 -3.00143 -0.56581
111.742 -2.87392 -0.57005
111.83 -2.74432 -0.575281
112.391 -2.01732 -0.603417
112.5 -1.88271 -0.609616
112.608 -1.74598 -0.614824
112.702 -1.61116 -0.620059
112.791 -1.53941 -0.624091
112.808 -1.4105 -0.625488
112.943 -1.26963 -0.632646
112.216 -0.150998 -0.612175
112.052 -0.0470887 -0.605916
111.962 0.0662747 -0.603517
111.939 0.125199 -0.602771
111.888 0.243916 -0.602296
111.892 0.36962 -0.603713
111.889 0.495354 -0.604146
92.3473 21.1535 -0.430761
96.2743 39.7861 -1.28274
96.0567 39.715 -1.27601
96.6561 41.2348 -1.35175
95.6504 39.6191 -1.26465
95.8864 40.6193 -1.31149
95.6499 40.5095 -1.30268
93.505 36.5356 -1.09327
93.3372 36.529 -1.09065
95.7249 41.7688 -1.35878
79.8143 9.49847 0.313061
0.0931238 10.5559 -2.45499
7.45352 -5.96791 -1.97636
8.25072 -7.48274 -1.93532
8.92367 -7.66236 -1.90311
20.467 -10.9837 -1.36239
20.289 -13.1802 -1.37535
24.121 -15.5347 -1.20824
108.949 -11.9956 -0.444696
98.9272 38.3262 -1.56448
96.2616 39.969 -1.58339
96.1004 40.0068 -1.5819
95.7315 40.7078 -1.60816
95.5554 40.5346 -1.59599
93.6816 37.0849 -1.39172
93.6126 37.283 -1.40056
17.78 16.4874 -2.09511
92.5123 -21.2246 -0.0853956
92.5773 -21.1745 -0.0864113
92.6484 -21.1304 -0.0883921
92.6805 -21.1048 -0.0884029
92.7473 -21.056 -0.08941
92.842 -20.9274 -0.0896219
92.9424 -20.9047 -0.0924604
101.886 -5.94893 -0.493021
101.884 -5.85671 -0.493338
101.877 -5.76561 -0.493666
101.866 -5.67406 -0.493003
101.905 -4.89655 -0.498551
101.973 -4.8035 -0.502705
102.048 -4.75586 -0.506689
102.138 -4.66092 -0.511799
103.524 -2.54013 -0.60171
103.598 -2.43479 -0.605892
103.69 -2.32797 -0.612038
103.769 -2.22139 -0.617211
104.062 1.75405 -0.684021
96.7081 35.1557 -1.66398
98.9479 40.4201 -1.99854
92.3378 29.1029 -1.2338
95.7298 40.6555 -1.93299
95.5316 40.621 -1.92634
93.6386 37.1307 -1.69398
95.7371 41.5923 -1.98316
97.3702 45.336 -2.223
93.8192 38.3654 -1.76575
90.2456 37.4828 -1.64324
26.4193 -6.77091 -1.64556
89.1204 -19.8954 -0.0639707
100.728 -13.4715 -0.468215
100.423 -3.32567 -0.57541
101.54 -1.45539 -0.660111
102.213 1.31894 -0.739936
102.169 1.40638 -0.73934
99.1216 37.8704 -2.13947
99.0611 40.9988 -2.31524
98.0018 42.0438 -2.34631
97.4338 41.6867 -2.31045
96.039 39.7078 -2.15904
97.0667 42.0701 -2.32362
96.397 40.9396 -2.24037
96.6677 42.2096 -2.32204
99.1169 47.5158 -2.69525
95.6035 40.8087 -2.21281
95.3199 40.5987 -2.19277
92.4255 35.8257 -1.84043
92.2829 35.8598 -1.83889
92.0947 35.7965 -1.83012
87.2221 -20.7579 -0.133552
96.4622 32.5243 -2.07163
98.128 39.1421 -2.54016
97.6115 41.9737 -2.705
97.6625 42.4371 -2.73646
93.7148 35.1634 -2.15112
93.5757 35.2071 -2.1506
93.4351 35.2479 -2.14907
93.3693 35.2748 -2.14832
93.2245 35.3072 -2.14678
93.0749 35.3282 -2.1442
92.9438 35.3848 -2.14371
92.8086 35.435 -2.1432
65.5424 11.955 -0.292202
36.461 -4.38054 -1.50782
87.7972 -19.1497 -0.23565
93.8946 -14.1119 -0.410277
98.2225 36.0827 -2.59054
98.1788 39.0975 -2.79088
97.655 41.0207 -2.90366
97.5536 41.1831 -2.91146
97.4804 41.4 -2.92437
97.7255 42.228 -2.9886
93.7119 34.7064 -2.34458
93.5817 34.7629 -2.34408
93.4433 34.8045 -2.34255
93.3049 34.846 -2.34102
93.1667 34.8896 -2.3405
93.0321 34.9366 -2.33897
92.8861 34.9611 -2.3364
92.8102 34.9672 -2.33461
92.6731 35.0106 -2.33308
92.537 35.0549 -2.33255
98.202 35.9918 -2.90228
98.4025 41.9789 -3.34715
98.1407 41.8486 -3.32733
98.0796 42.093 -3.3443
100.537 47.0987 -3.80247
98.9615 44.5008 -3.55439
97.3553 41.8003 -3.29703
97.4181 42.1034 -3.32191
93.4184 34.7051 -2.63127
93.277 34.7401 -2.62873
93.1326 34.7684 -2.62617
92.9881 34.7967 -2.62361
91.0233 33.9254 -2.49331
78.0142 7.94936 -0.107957
92.5532 -10.4604 -0.492871
92.5305 -10.3884 -0.49017
92.571 -10.3327 -0.492262
92.6378 -7.57434 -0.582475
92.636 -7.5114 -0.582694
92.666 -7.45114 -0.584827
93.7762 -0.0139911 -0.753456
94.6794 35.5618 -3.00519
94.722 35.9547 -3.03842
94.6856 36.2016 -3.05635
94.6481 36.4486 -3.07428
94.8886 37.2378 -3.14639
94.8291 37.4517 -3.16126
93.354 34.7361 -2.88953
93.205 34.7539 -2.88595
93.0577 34.7766 -2.88238
92.9133 34.8049 -2.87981
92.7568 34.8066 -2.87419
92.6153 34.8406 -2.87164
93.5889 37.157 -3.0932
93.4375 37.1863 -3.08966
78.1679 -18.3138 -0.0623687
91.6972 -11.659 -0.565834
93.8866 33.5828 -3.08135
94.7161 36.5206 -3.36436
94.8219 37.0467 -3.4129
93.4185 34.654 -3.1531
93.2671 34.6692 -3.14852
93.1252 34.7012 -3.14596
93.0397 34.6905 -3.14213
92.899 34.7233 -3.13957
92.7557 34.7524 -3.13601
74.6222 3.02313 0.257722
94.6406 36.4894 -3.65844
94.9079 37.3302 -3.74666
93.37 34.6623 -3.43825
93.22 34.6803 -3.43367
93.0784 34.7142 -3.43112
92.9308 34.7349 -3.42654
92.7933 34.7754 -3.425
92.6601 34.8252 -3.42349
92.5609 34.7832 -3.41558
92.4001 34.7756 -3.40894
92.259 34.8064 -3.40538
80.8402 11.4588 -0.800171
79.3784 8.78582 -0.495561
79.2481 8.97877 -0.508526
75.6749 -19.6564 -0.288733
75.6981 -19.6568 -0.289677
75.787 -19.6365 -0.289534
94.5076 36.0402 -3.90023
94.7026 36.733 -3.97512
94.747 37.1448 -4.01642
93.3778 34.6482 -3.71419
93.215 34.6408 -3.70655
93.0861 34.6991 -3.70605
92.9245 34.6936 -3.69842
92.6174 34.7084 -3.6862
92.4713 34.7319 -3.68262
92.386 34.7162 -3.67677
79.1729 8.64496 -0.569571
79.0088 8.63573 -0.56193
93.9563 34.0671 -3.97884
94.0883 34.463 -4.02587
94.271 35.1131 -4.10065
94.3215 35.518 -4.1449
94.3455 35.8802 -4.18208
94.2895 36.0905 -4.20092
93.4061 34.6906 -4.01526
93.255 34.7078 -4.00968
93.1148 34.7445 -4.00714
93.0348 34.7432 -4.00333
92.8757 34.7403 -3.99569
92.7294 34.7628 -3.99112
92.5614 34.741 -3.98044
80.8944 11.4855 -1.04313
65.4354 -17.6909 -0.478743
87.9791 1.1577 -0.848213
92.3747 29.9934 -3.73676
92.3808 30.2684 -3.76668
92.2811 30.3528 -3.7702
92.169 30.4157 -3.77068
92.1013 30.5601 -3.78233
91.8952 30.8561 -3.80383
91.8274 31.0065 -3.8165
91.8299 31.2911 -3.84646
91.755 31.4284 -3.8571
91.6909 31.5904 -3.87181
91.6384 31.7759 -3.88856
92.5332 33.844 -4.15746
92.455 33.8414 -4.15264
92.3662 33.9727 -4.1633
79.6773 8.93598 -0.822364
80.8339 11.4708 -1.15423
71.2033 9.79688 -0.771424
91.159 24.8214 -3.33007
91.0182 25.1281 -3.35445
90.9147 25.1736 -3.35385
90.7934 25.1874 -3.34818
90.6885 25.2301 -3.34658
90.2933 26.8442 -3.502
90.3704 27.231 -3.54913
90.3038 27.3549 -3.55871
90.1332 27.281 -3.54187
89.9989 27.2755 -3.53317
90.1446 27.6815 -3.5872
90.0487 27.7511 -3.58966
90.0237 27.9589 -3.61143
89.7805 27.7421 -3.57427
89.5882 27.6238 -3.55032
89.5504 27.8062 -3.56903
89.4605 27.8891 -3.57353
89.617 28.3339 -3.63267
89.626 28.6216 -3.66563
89.5412 28.7189 -3.67216
89.5278 28.9644 -3.69902
79.5192 8.89024 -0.900585
86.598 -0.358492 -0.790343
86.5908 -0.310953 -0.792522
86.6085 -0.280203 -0.795584
86.6077 -0.230568 -0.797755
81.3257 9.91162 -1.20276
81.3044 9.9865 -1.21007
81.2917 10.0793 -1.22041
81.2791 10.1721 -1.23076
81.2064 10.0969 -1.21768
81.2524 10.2993 -1.24326
81.2888 10.4849 -1.2668
81.2786 10.5874 -1.27817
81.2643 10.6825 -1.28853
80.3661 9.09285 -1.05226
80.3862 9.24346 -1.07073
80.4197 9.42244 -1.09325
80.4427 9.52413 -1.10655
80.4398 9.63469 -1.11993
80.4086 9.6908 -1.12419
80.3445 9.68103 -1.11931
80.3423 9.79653 -1.13371
80.3316 9.89511 -1.14407
83.5581 -6.161 -0.683852
78.8551 6.01669 -1.0824
78.8166 6.03042 -1.08154
78.7828 6.05459 -1.0827
78.768 6.07091 -1.08379
78.7228 6.07252 -1.08091
78.6802 6.07877 -1.07903
78.6448 6.09913 -1.07918
78.6091 6.11752 -1.07933
78.565 6.11997 -1.07644
78.5267 6.13468 -1.07658
78.4883 6.14842 -1.07572
78.4648 6.14682 -1.07377
78.4281 6.16535 -1.07392
78.3851 6.16864 -1.07203
78.3513 6.19281 -1.0732
78.3138 6.20639 -1.07233
78.2789 6.22972 -1.07349
78.233 6.22737 -1.0706
71.6937 6.92903 -1.13752
71.6721 6.95343 -1.14165
77.752 4.96891 -1.06946
77.7332 4.97168 -1.06852
77.7119 5.01219 -1.07371
77.5028 4.63455 -1.07892
71.6518 5.47358 -1.16367
71.6175 5.47357 -1.16476
71.5994 5.48127 -1.16682
71.5637 5.48551 -1.16792
71.5351 5.42909 -1.1578
78.2155 -10.7894 -0.601823
78.218 -10.7585 -0.597922
78.2203 -10.7285 -0.594018
46.1038 -2.91512 -8.69295
46.0695 -2.99704 -8.70175
46.0743 -3.08161 -8.69745
46.0651 -3.16516 -8.69719
71.9898 -10.2463 -0.775462
71.8569 -3.87834 0.237597
71.8049 -3.87478 0.225461
118.739 -11.0861 -18.8197
118.721 -10.4991 -18.7857
72.0172 -4.18151 0.353009
109.282 -19.611 -15.7292
109.294 -19.4833 -15.7146
72.0727 -4.15535 0.335051
72.1044 -4.22762 0.370373
72.0916 -4.21162 0.361288
74.1194 -6.74582 0.172714
72.0432 -4.17734 0.320056
71.9307 -3.98223 0.216125
72.0397 -4.18086 0.321059
72.0273 -4.16896 0.31299
71.9954 -4.12493 0.288764
71.9683 -4.08968 0.26858
71.9265 -4.03108 0.235281
71.9367 -4.0578 0.248396
71.932 -4.05511 0.245376
71.9505 -4.09415 0.265552
71.9346 -4.0787 0.255462
71.7829 -3.84759 0.128316
71.9869 -4.27815 0.346265
71.9168 -4.24672 0.315991
71.6259 -6.68258 0.231575
71.6788 -6.63162 0.264527
71.6858 -6.67412 0.252688
74.1344 -6.62267 0.183331
74.0642 -6.69528 0.165411
74.0342 -6.65846 0.187215
2.0002e-39 0 2.35972e-40
