ply
format ascii 1.0
element vertex 954
property float x
property float y
property float z
end_header
150.066 -5.55659 3.88478
150.407 -4.81611 3.89496
150.885 -4.31593 3.91024
151.103 -4.06393 3.91683
150.438 -3.95043 3.89307
150.906 -3.69346 3.90916
150.893 -3.44494 3.90829
137.995 4.11727 3.44095
131.653 7.0935 3.22373
104.412 16.1425 2.38976
90.8976 8.7794 1.86897
90.8198 8.81402 1.8677
90.4557 11.0706 1.89726
92.0299 28.6151 2.33676
91.9764 28.7674 2.33913
91.0352 35.5083 2.50123
90.9108 35.4103 2.49631
90.7344 35.3654 2.4921
90.4592 35.1075 2.48041
90.2982 35.0916 2.47713
75.0443 11.4941 1.60205
43.3738 16.2304 2.14564
43.1515 16.2579 2.15209
27.0662 18.554 2.61212
24.9388 18.8454 2.67574
24.1452 18.5957 2.69495
24.131 18.4159 2.69254
28.4949 14.8215 2.52877
27.8039 14.9752 2.54983
17.2786 19.6196 2.90131
28.4784 13.603 2.51589
17.8229 16.4603 2.8542
18.1806 16.1209 2.84009
18.2482 15.1256 2.82962
17.6014 13.8276 2.83771
17.6565 13.6174 2.83454
0.285677 14.8719 3.36746
0.537347 13.3595 3.35213
0.297565 13.3026 3.35883
-3.72092 13.8427 3.48471
22.0836 -8.94931 2.66652
25.5978 -9.93092 2.5621
25.1107 -10.0546 2.57852
25.6966 -10.7266 2.56502
20.6263 -11.4889 2.73016
20.2042 -13.9374 2.76363
47.4777 -13.2001 1.91333
25.2684 -22.9167 2.71765
43.7898 -18.6933 2.10944
43.6978 -18.8456 2.11477
43.7579 -18.9252 2.11416
26.5869 -27.6555 2.76051
2.04806 -41.3331 3.70552
2.36944 -41.4438 3.69856
36.1549 -24.7606 2.43737
36.1613 -24.903 2.44087
36.2366 -24.9343 2.43913
36.2386 -25.0791 2.44163
11.6294 -39.0576 3.39551
11.6813 -39.2764 3.39837
49.4263 -19.8765 1.97809
49.2595 -20.4423 1.99467
49.1045 -20.652 2.00406
49.1854 -20.7002 2.0024
47.0501 -34.0738 2.40254
47.3229 -33.9369 2.39364
47.6693 -33.7107 2.37958
47.9419 -33.5677 2.36966
27.4074 -59.8838 3.54597
27.2394 -60.4444 3.56553
27.411 -60.9434 3.57758
140.788 -38.8762 3.92713
133.918 -20.8659 3.42263
133.928 -20.6611 3.42095
133.961 -20.2547 3.41664
133.953 -19.9432 3.41356
133.954 -19.7372 3.41086
122.274 -14.3847 2.94555
150.043 -4.92704 3.38458
151.302 -4.42099 3.42045
150.938 -4.17667 3.40887
151.291 -3.92117 3.41873
151.144 -3.79963 3.41401
149.209 -1.76405 3.35209
143.248 -1.13364 3.17465
96.3612 12.2599 1.89538
96.4277 12.4241 1.89896
98.5992 28.689 2.20305
91.3042 30.8622 2.11961
91.1329 34.6441 2.19737
90.7475 34.1648 2.18121
91.1684 35.3636 2.213
91.0528 35.4503 2.21346
90.9223 35.5048 2.21301
91.6545 37.408 2.26404
91.5962 37.4589 2.26374
90.2202 34.8302 2.18886
90.0853 34.8682 2.18745
75.1001 11.5837 1.49586
21.3636 18.3956 2.4179
15.1503 20.2434 2.5748
2.8914 21.8325 2.87212
1.81673 15.85 2.86428
-3.46286 -18.5416 3.06153
53.6901 -19.8263 1.7217
122.543 -26.9942 2.77005
139.801 -30.2857 3.29084
146.669 -30.0359 3.48014
147.481 -30.0406 3.50283
132.061 -21.1867 2.96589
132.093 -20.9922 2.96429
132.083 -20.8887 2.96292
132.089 -20.6885 2.96125
132.1 -20.489 2.95959
132.12 -20.2929 2.95797
132.142 -20.097 2.95735
132.155 -19.8987 2.9557
132.174 -19.7024 2.95407
132.157 -19.5979 2.95268
132.191 -19.4057 2.95209
144.29 -19.7282 3.30413
147.759 -19.7991 3.40552
150.783 -4.23512 3.03275
151.056 -3.9819 3.03845
120.639 6.39529 2.2794
105.758 18.008 2.00318
96.4116 12.3461 1.75419
119.086 52.7827 2.67922
118.638 52.6026 2.66891
101.439 38.0363 2.18306
98.4958 33.8703 2.07518
93.7185 31.3967 1.96776
89.911 32.3056 1.93382
91.0897 35.4018 2.0007
91.9227 37.5034 2.04626
91.7856 37.5609 2.04578
91.5742 37.4564 2.0417
92.5327 39.8975 2.09437
92.433 40.2456 2.09998
75.1037 11.7517 1.41729
112.847 -25.4896 2.26993
132.045 -20.6335 2.66697
132.024 -20.5273 2.66557
132.043 -20.331 2.66394
132.066 -20.1353 2.66232
132.057 -19.9318 2.6606
110.326 9.51501 1.73052
97.5378 12.8628 1.54375
96.3846 31.7575 1.67403
89.7792 32.4836 1.61794
91.9589 39.3608 1.70801
-0.893479 -27.5394 2.15346
80.4057 -20.7924 1.41306
145.892 -30.4074 2.5018
147.117 -30.5593 2.52284
138.367 -21.7186 2.3097
144.395 -19.3756 2.39614
100.392 14.0506 1.41459
98.0122 12.6211 1.38655
97.9623 12.7082 1.38615
89.3624 26.5446 1.3673
96.5053 39.6366 1.48844
90.1821 29.1696 1.38705
92.6177 -19.2578 1.416
92.6396 -19.2256 1.41594
132.409 -28.4074 1.93119
136.895 -21.5559 1.9401
150.583 3.25209 1.45482
150.963 3.54509 1.45561
150.885 3.78789 1.45462
151.055 4.06026 1.45504
150.797 4.2809 1.45276
150.657 4.51558 1.45167
97.9117 12.6139 1.16437
97.7571 36.2646 1.1375
96.9106 35.77 1.13544
95.1363 35.2687 1.12849
89.4752 26.4959 1.1147
89.4246 26.6408 1.1141
95.624 38.1383 1.12872
95.5598 38.1831 1.12844
95.4204 38.253 1.12791
91.4514 31.2357 1.11863
90.9995 30.6682 1.11663
90.9056 30.7658 1.1171
90.6815 30.6157 1.11615
90.3155 30.1932 1.11484
90.2062 30.2547 1.1144
61.5558 -18.9752 1.15101
122.208 -26.9675 1.42226
111.89 -21.5695 1.3456
143.48 -30.1433 1.54292
133.962 -21.6091 1.45823
133.981 -21.4047 1.45658
136.816 -20.9454 1.46986
131.528 -19.4731 1.43694
133.118 -19.1398 1.44308
147.558 -19.6675 1.51965
150.871 3.57764 1.08031
150.955 3.83912 1.07959
150.986 4.09542 1.07878
151.021 4.35197 1.07798
94.5745 28.9892 0.937717
97.6818 37.3412 0.901677
90.6722 26.3647 0.944612
94.3889 35.9039 0.904784
94.3319 36.1083 0.902971
94.2348 36.2387 0.902326
91.5537 31.4203 0.92221
91.4929 31.5848 0.921525
90.8519 31.2107 0.922478
90.6374 31.0774 0.922489
90.1214 30.3555 0.924884
111.82 -21.6882 1.14186
111.913 -21.5785 1.14168
137.758 -29.1765 1.17983
131.695 -20.9912 1.15146
131.731 -20.7993 1.15087
131.74 -20.6007 1.15122
131.725 -20.4964 1.15083
131.732 -20.2983 1.15017
131.74 -20.0993 1.14951
131.752 -19.9029 1.14887
147.871 -19.4374 1.15551
151.464 -3.35689 0.599142
151.36 -3.23448 0.59951
150.776 -3.00053 0.60151
150.575 3.46876 0.577063
150.593 3.72085 0.576241
150.62 3.9756 0.575429
97.8005 12.8837 0.811217
95.851 28.3013 0.679689
97.9634 35.5516 0.60235
98.7535 38.4224 0.572201
92.491 31.5844 0.653581
98.1877 42.0414 0.535709
92.3815 31.934 0.650165
92.2552 31.9828 0.649738
92.1234 32.0213 0.650336
91.8584 31.8125 0.652501
94.5012 36.9972 0.59429
91.586 31.726 0.654234
90.8325 31.142 0.661669
90.0362 29.8932 0.675281
92.7267 -19.0458 0.962503
111.865 -21.9463 0.86683
111.778 -21.8365 0.867276
111.835 -21.7135 0.866976
111.978 -21.6242 0.866965
112.158 -21.5496 0.865084
144.323 -30.0853 0.699453
131.269 -21.1281 0.76104
131.238 -20.9194 0.761265
131.214 -20.7139 0.760517
131.209 -20.5129 0.76082
131.207 -20.3146 0.760142
131.182 -20.2089 0.760731
131.198 -20.0141 0.760099
131.352 -19.4575 0.758521
147.843 -19.5066 0.66468
150.867 -4.28873 0.120081
146.966 -3.74893 0.165202
150.545 3.54245 0.0907452
105.772 18.0609 0.482014
97.6042 13.0513 0.61624
110.184 44.443 0.098254
98.9486 34.2058 0.318961
90.7325 23.0194 0.534126
98.2793 36.0956 0.294145
97.7501 37.1544 0.281449
92.2186 31.4032 0.397635
92.4186 32.0379 0.386885
95.6382 38.0204 0.278146
92.239 32.1299 0.386202
91.8331 31.6627 0.395956
95.736 39.1854 0.25938
91.3465 31.3146 0.403139
91.1584 31.238 0.405012
90.035 29.7845 0.433647
89.8577 29.7124 0.435527
63.4378 -5.2567 0.936169
92.8406 -19.0851 0.806871
92.9058 -19.033 0.806828
111.979 -21.604 0.599898
112.04 -21.5543 0.598854
135.821 -22.4971 0.330082
132.238 -21.0286 0.371695
130.958 -20.4986 0.387252
130.972 -20.3036 0.386617
131.952 -20.0499 0.375773
131.841 -19.4232 0.376409
133.41 -19.0778 0.358466
145.488 4.42773 -0.371697
135.59 5.79413 -0.195752
109.723 9.71595 0.240576
97.9349 32.4331 0.0319073
100.601 47.1189 -0.304617
100.504 47.138 -0.303881
95.9912 39.2521 -0.0963241
95.8158 39.2616 -0.0947181
99.9524 47.3027 -0.303579
95.5902 39.5159 -0.0990493
95.476 39.6398 -0.100707
94.0869 37.3389 -0.0387329
93.7205 36.962 -0.0282047
109.314 -22.5054 0.339472
115.343 -24.9385 0.223184
115.432 -24.8959 0.222223
116.359 -24.4769 0.208708
116.489 -24.3655 0.206595
116.695 -24.3704 0.203038
120.807 -23.4392 0.13534
128.18 -18.0516 0.0161887
126.676 -8.93246 -0.24097
126.79 -8.76612 -0.244303
126.648 -8.58474 -0.241212
117.613 0.708282 -0.0634838
112.783 1.52274 0.0457867
107.125 2.94863 0.166268
105.725 2.84734 0.199728
111.315 44.1073 -0.668277
99.7002 36.9752 -0.338926
96.2278 34.0991 -0.224288
96.1062 34.1795 -0.224812
91.2187 29.8603 -0.0591751
100.559 47.1311 -0.610747
96.7418 40.5219 -0.397104
96.4605 40.3468 -0.389087
96.5687 40.8928 -0.404724
96.8293 41.554 -0.425439
96.7128 41.6903 -0.427143
96.3828 41.4243 -0.416918
94.1966 37.6 -0.293398
93.7573 37.0852 -0.27555
93.419 36.7558 -0.263126
74.7933 15.8357 0.446736
74.7308 15.8712 0.445486
107.83 -23.8432 0.148968
109.087 -23.4622 0.125261
109.236 -23.3891 0.122319
109.366 -23.3061 0.120305
109.57 -23.1115 0.117062
112.203 -22.5177 0.0644659
112.6 -22.3849 0.0568327
110.291 -20.5044 0.119669
117.896 -17.3905 -0.0392604
117.986 -17.2582 -0.0405254
118.312 -17.1866 -0.0480975
119.468 -16.2897 -0.0727693
119.53 -16.1461 -0.0731318
120.628 -14.6312 -0.0960281
120.884 -14.5201 -0.101879
121.166 -14.332 -0.108938
124.66 -14.2827 -0.190904
124.369 -14.0642 -0.184249
124.386 -13.897 -0.183783
117.789 -12.0283 -0.302745
117.78 -11.8793 -0.302272
117.803 -11.7352 -0.302716
117.799 -11.6608 -0.302978
117.777 -11.5111 -0.302532
117.796 -11.3663 -0.302986
117.954 -11.2387 -0.307096
118.078 -11.1074 -0.310287
118.137 -10.9664 -0.312646
118.098 -10.8141 -0.311245
118.067 -10.7369 -0.31057
117.981 -10.5788 -0.307286
117.88 -10.4205 -0.305034
117.956 -10.282 -0.306349
117.969 -10.1364 -0.306818
117.986 -9.99234 -0.307273
118.06 -9.85259 -0.309597
118.056 -9.77819 -0.309859
118.093 -9.63506 -0.31127
118.075 -9.48678 -0.310813
118.058 -9.3388 -0.310352
117.991 -9.18653 -0.308008
117.986 -9.03929 -0.308519
118.035 -8.89677 -0.309905
118.032 -8.75081 -0.309408
118.036 -8.67771 -0.309648
118.046 -8.53264 -0.310121
118.099 -8.38971 -0.3125
118.162 -8.24738 -0.313854
118.185 -8.10222 -0.315301
118.179 -7.95583 -0.314812
118.149 -7.80794 -0.314377
118.021 -7.58191 -0.311412
117.994 -7.43545 -0.310966
118.675 -6.87627 -0.332467
118.811 -6.80618 -0.336426
119.363 -6.37567 -0.353754
119.53 -6.22932 -0.359908
119.702 -6.08172 -0.365056
119.936 -5.93405 -0.372077
120.105 -5.86083 -0.377977
120.328 -5.71058 -0.385029
120.509 -5.5592 -0.391172
120.648 -5.40568 -0.395409
120.95 -5.09817 -0.405835
121.128 -4.94139 -0.411
121.318 -4.86301 -0.417877
121.49 -4.70537 -0.423058
121.688 -4.54528 -0.430197
121.829 -4.38611 -0.434447
121.884 -4.22735 -0.436875
121.986 -4.06748 -0.440209
122.033 -3.90869 -0.442652
122.149 -3.74675 -0.446965
122.308 -3.66189 -0.451926
122.413 -3.49935 -0.456264
122.547 -3.33506 -0.460547
122.71 -3.16891 -0.466777
122.859 -3.00171 -0.47204
123.015 -2.83256 -0.477295
123.177 -2.66328 -0.482537
123.33 -2.57459 -0.487522
123.483 -2.40288 -0.492793
123.542 -2.23664 -0.496238
123.641 -2.06728 -0.49961
123.804 -1.89306 -0.505867
124.187 -1.28815 -0.520139
124.253 -1.11698 -0.523585
124.405 -0.939046 -0.528879
124.586 -0.756407 -0.535127
124.544 -0.593626 -0.534767
124.718 -0.40983 -0.542036
96.634 25.549 -0.254331
97.82 38.7482 -0.665843
74.8675 15.781 0.321074
74.8327 15.778 0.321013
74.767 15.7917 0.320831
74.7017 15.8083 0.320639
74.6346 15.806 0.320509
74.5689 15.8267 0.320303
51.4397 6.69378 0.231731
117.501 -13.0918 -0.295717
117.886 -12.4881 -0.305981
117.873 -12.3376 -0.305521
117.831 -12.183 -0.304132
113.683 -4.57035 -0.464612
113.811 -4.43561 -0.469805
113.923 -4.30137 -0.475032
115.874 -2.44666 -0.555327
116.081 -2.29395 -0.563422
102.901 6.92316 -0.199978
99.4354 30.7739 -0.751355
90.5482 22.009 -0.264819
90.4026 21.9808 -0.260023
98.3049 35.8699 -0.906042
90.9218 26.3471 -0.426825
97.3778 38.2419 -0.975033
94.8214 34.8994 -0.807917
94.7039 34.9874 -0.809459
91.7272 30.0177 -0.575667
91.7678 30.3503 -0.588716
91.5062 30.1441 -0.576553
91.3427 30.1114 -0.572779
90.9801 36.9927 -0.827965
90.9002 37.1722 -0.83374
78.7228 16.4107 0.129875
74.8506 15.8154 0.179921
74.7858 15.835 0.179721
74.7192 15.8427 0.179557
74.6857 15.8486 0.179468
74.6183 15.8504 0.179323
74.5538 15.873 0.178113
107.323 -10.1178 -0.439827
107.295 -10.0004 -0.438285
107.287 -9.88516 -0.437693
107.318 -9.83308 -0.438807
107.396 -9.72927 -0.441
107.469 -9.62375 -0.444209
107.475 -9.51034 -0.444583
107.496 -9.39926 -0.444918
107.488 -9.28496 -0.444323
107.485 -9.17125 -0.444717
107.481 -9.11311 -0.443923
107.461 -8.99792 -0.443357
107.414 -8.87994 -0.440855
107.392 -8.76446 -0.440295
107.369 -8.64898 -0.438734
107.362 -8.53567 -0.438136
107.373 -8.42413 -0.438493
107.38 -8.36857 -0.438667
107.405 -8.25708 -0.439995
107.397 -8.14363 -0.439399
107.401 -8.03107 -0.439773
107.381 -7.91702 -0.439202
107.37 -7.80412 -0.438611
107.37 -7.69197 -0.438992
107.349 -7.63434 -0.438232
107.342 -7.52118 -0.437631
107.356 -7.40992 -0.437982
107.358 -7.29807 -0.438359
107.372 -7.18597 -0.438711
107.373 -7.07397 -0.43909
107.379 -6.96155 -0.439462
107.39 -6.85001 -0.440818
107.388 -6.79414 -0.440013
107.374 -6.68096 -0.440426
107.379 -6.56939 -0.440798
107.913 -5.33782 -0.465892
108.024 -5.2248 -0.471047
104.933 1.97502 -0.399938
93.8215 5.11453 -0.00853167
97.059 8.02782 -0.197782
91.1568 26.3191 -0.650247
91.1216 26.486 -0.656888
91.9065 29.0914 -0.781144
91.8728 29.2823 -0.788864
98.7677 42.3019 -1.474
91.7075 30.1412 -0.82113
91.5335 30.0918 -0.815321
91.3265 29.9827 -0.807376
91.2467 30.1005 -0.810941
96.6288 40.1888 -1.34221
90.8256 36.8508 -1.0948
74.8474 15.7841 0.05402
74.7825 15.8037 0.0538196
74.7151 15.8055 0.0536745
19.2276 -10.2205 -1.36907
20.3392 -11.5049 -1.31941
92.5854 -19.1573 0.0445847
98.51 -17.8754 -0.14957
103.513 -9.91498 -0.463371
103.501 -9.86162 -0.462578
103.497 -9.75992 -0.461933
103.504 -9.65897 -0.461261
103.506 -9.55715 -0.461605
103.516 -9.45748 -0.461924
103.538 -9.3587 -0.462214
103.547 -9.2579 -0.46254
103.567 -9.21031 -0.46366
103.624 -9.11562 -0.465865
103.664 -9.01832 -0.467115
103.613 -8.2529 -0.463826
103.617 -8.15236 -0.463161
103.635 -8.053 -0.464461
103.662 -7.95481 -0.465741
103.697 -7.85594 -0.467004
103.688 -7.805 -0.467198
103.709 -7.70608 -0.46749
103.683 -7.60317 -0.466895
103.688 -7.50277 -0.466227
103.698 -6.6472 -0.468121
103.695 -6.54678 -0.467468
103.707 -6.49705 -0.468612
103.711 -6.39651 -0.468947
103.724 -6.29628 -0.469262
103.739 -6.19551 -0.470573
103.706 -6.09455 -0.468986
103.7 -5.9937 -0.469341
103.698 -5.89328 -0.468688
103.669 -5.84255 -0.46792
103.605 -5.44111 -0.466418
103.563 -5.34097 -0.463846
103.689 -5.24017 -0.47093
103.713 -5.19005 -0.472052
103.784 -5.08933 -0.476248
103.882 -4.98743 -0.480393
103.968 -4.88592 -0.485561
104.067 -4.78205 -0.490712
104.138 -4.67935 -0.494914
104.206 -4.57607 -0.498127
104.276 -4.4721 -0.502337
104.342 -4.41916 -0.50538
104.409 -4.31475 -0.509598
104.486 -4.20882 -0.5138
106.466 -1.56306 -0.62673
106.548 -1.49915 -0.63178
106.599 -1.38238 -0.635072
106.634 -1.26824 -0.637389
106.731 -1.14499 -0.643609
106.836 -1.02092 -0.649815
106.917 -0.898463 -0.655064
91.3629 27.6878 -0.931486
91.3259 28.9604 -0.989897
98.6489 42.1344 -1.77668
101.249 46.9124 -2.06059
97.7281 41.0162 -1.70276
91.3772 29.9453 -1.03815
91.2601 29.9947 -1.03756
91.1214 30.007 -1.03488
90.8792 36.64 -1.35098
90.7648 36.5628 -1.34495
75.1913 12.1967 0.119947
14.9564 -3.58156 -1.90749
16.9465 -6.22329 -1.79339
17.2386 -6.98961 -1.77618
17.565 -7.83172 -1.75764
17.8975 -7.90054 -1.74072
27.9322 -11.0898 -1.22117
91.3828 -21.0859 -0.103327
100.303 -14.972 -0.354765
101.173 -11.1962 -0.358831
103.648 -10.808 -0.473051
103.64 -10.7026 -0.472428
103.588 -10.591 -0.468914
103.537 -10.532 -0.46622
103.513 -10.4254 -0.464632
103.516 -10.3237 -0.464973
103.504 -10.2189 -0.463355
103.501 -10.1163 -0.462711
103.505 -10.0148 -0.463049
103.441 0.866507 -0.714242
103.486 0.979049 -0.718531
103.45 1.02373 -0.716757
103.485 1.13489 -0.721065
103.324 1.20491 -0.712634
103.413 1.32734 -0.719868
103.351 1.41836 -0.717307
103.345 1.52019 -0.718665
94.794 24.2592 -1.10574
92.1077 21.7707 -0.898798
91.4253 28.8754 -1.2384
98.4992 41.8168 -2.10191
97.3408 40.1119 -1.98249
97.2911 40.3597 -1.99443
97.1666 40.3031 -1.9885
97.1943 40.6922 -2.00976
96.4653 39.7106 -1.93892
80.1562 -20.9731 0.13215
98.2975 -8.23001 -0.520861
92.4912 2.24206 -0.281493
97.0924 34.1553 -1.91671
97.1091 34.3175 -1.92623
96.5912 34.6046 -1.92627
96.1641 34.6146 -1.91319
91.7088 29.1232 -1.47167
94.8531 34.8419 -1.88766
94.7615 34.9756 -1.89331
97.6645 40.3921 -2.28577
99.3533 43.73 -2.52466
97.2318 40.2948 -2.26734
97.3238 40.7986 -2.29886
90.4634 36.5931 -1.87568
98.3681 0.624362 -0.775873
98.0384 34.7635 -2.31383
97.2032 34.5746 -2.27291
96.624 36.2094 -2.35368
91.0072 27.0829 -1.59716
90.8188 26.9974 -1.58526
96.183 36.3589 -2.34909
91.7297 29.2749 -1.75814
91.6554 29.2717 -1.75628
94.7718 34.964 -2.21525
98.6793 42.1309 -2.79361
98.4725 42.1127 -2.78597
98.1903 41.96 -2.76703
98.8689 36.7641 -2.71094
93.9626 31.2592 -2.1673
93.8581 31.3463 -2.16881
93.759 31.4426 -2.17134
99.2892 40.8464 -2.99698
90.924 27.0501 -1.77723
90.8241 27.1132 -1.77765
91.4219 28.3716 -1.8837
91.3105 28.4253 -1.88311
94.8875 34.8877 -2.44175
94.8259 35.0746 -2.45252
96.9323 33.7102 -2.74253
92.6492 28.8236 -2.21971
92.5748 28.9436 -2.22528
92.4671 29.0089 -2.22572
92.5946 29.4651 -2.26401
92.6295 29.7722 -2.28698
92.4787 29.7711 -2.28129
95.1704 34.7433 -2.74668
94.9988 34.7381 -2.73902
94.8269 34.7309 -2.73235
94.8005 34.9783 -2.74924
99.4638 43.466 -3.54555
95.5116 36.8304 -2.91209
91.2908 -8.13345 -0.582633
91.2918 -8.07094 -0.582844
91.3038 -8.01003 -0.583027
91.3023 -7.97849 -0.582137
97.0208 34.1228 -3.04376
91.9676 28.0517 -2.36049
92.1686 28.6235 -2.41302
92.402 29.2572 -2.4717
92.4719 29.6238 -2.50381
92.4603 29.8549 -2.52062
92.3697 29.954 -2.52514
95.0572 34.6974 -3.00376
94.9219 34.7536 -3.00323
94.7867 34.8108 -3.0017
98.1065 40.9306 -3.61471
94.4013 34.7187 -2.97918
80.154 -19.0194 -0.253512
80.5495 -15.6162 -0.0472854
90.3871 -12.0014 -0.576323
90.3955 -11.9713 -0.576408
90.4202 -11.9132 -0.576555
90.4563 -11.8599 -0.578662
90.4894 -11.8061 -0.579777
90.5477 -11.7601 -0.582814
90.5656 -11.7001 -0.582981
90.6009 -11.6456 -0.585094
90.6537 -11.4987 -0.585485
91.2498 -8.6621 -0.584917
91.2539 -8.59903 -0.584124
91.258 -8.53696 -0.584327
91.2729 -8.47649 -0.584502
91.2799 -8.41485 -0.584697
91.2715 -8.38229 -0.583825
91.2787 -8.31967 -0.584024
91.2708 -8.25585 -0.582258
91.2758 -8.19393 -0.582458
91.9977 27.9567 -2.58611
92.0835 28.3351 -2.62122
92.2282 28.6949 -2.65715
92.3981 29.2196 -2.70758
92.39 29.4542 -2.7274
93.6163 31.7794 -2.97379
93.5972 32.0146 -2.99263
93.6042 32.2965 -3.01558
93.5303 32.4407 -3.02422
93.7121 32.895 -3.07039
75.3193 12.312 -0.640188
90.1968 19.6182 -2.02942
91.77 26.1786 -2.66752
91.9475 26.6791 -2.71986
91.9467 27.1288 -2.75839
91.9329 27.2207 -2.76573
92.0353 27.6159 -2.80587
91.9458 27.7018 -2.80835
91.8795 27.8287 -2.81592
92.1066 28.4401 -2.88053
92.0491 28.5859 -2.89115
92.0886 28.8964 -2.92012
92.3501 29.4603 -2.9825
92.3503 29.7098 -3.00435
93.4569 31.8595 -3.2464
93.4653 32.1442 -3.27235
93.5433 32.5521 -3.31158
93.6318 32.9837 -3.35386
93.5771 33.1685 -3.36761
93.8507 33.9387 -3.44967
94.1066 34.5398 -3.51419
94.2913 35.1655 -3.57894
94.3914 35.6479 -3.62637
91.5166 25.2461 -2.79787
91.9064 25.9538 -2.88348
92.0249 26.3548 -2.9266
91.9564 26.4669 -2.93312
91.971 26.7113 -2.95692
91.9254 26.8624 -2.96753
91.8432 26.9563 -2.97202
91.8972 27.2697 -3.00398
91.8408 27.4093 -3.01357
91.827 27.5012 -3.02191
91.9558 27.9451 -3.06916
92.0214 28.2891 -3.10419
92.0265 28.538 -3.12803
92.2504 29.1548 -3.19667
92.2411 29.3876 -3.21848
93.5089 31.9268 -3.51952
93.4849 32.1556 -3.54035
93.6265 32.6734 -3.59582
93.7136 33.1022 -3.6401
91.5105 25.1038 -3.0224
91.6643 25.5531 -3.07461
91.7732 25.9372 -3.1177
92.1301 26.8266 -3.22499
92.2717 27.2757 -3.27623
92.1283 27.2765 -3.26853
92.0093 27.3131 -3.2659
91.8717 27.3191 -3.2582
92.0507 27.8435 -3.31962
92.1307 28.2097 -3.3597
92.3006 28.6102 -3.40871
92.2966 28.8451 -3.43152
92.2689 29.0422 -3.44925
92.1813 29.1409 -3.45477
92.1855 29.3969 -3.47963
93.1966 31.3776 -3.73129
93.2652 31.7626 -3.77246
92.7079 30.9329 -3.66079
79.5913 8.43623 -0.722183
92.2963 31.0073 -3.64589
59.4659 11.1527 -1.29492
85.1265 6.10313 -1.00683
85.0973 6.15187 -1.00806
85.0883 6.18047 -1.00917
85.0588 6.22723 -1.01039
85.0388 6.28372 -1.01363
87.6425 17.5477 -2.24063
87.6823 17.757 -2.26426
90.997 23.8932 -3.09033
90.8967 23.9402 -3.0887
91.5452 25.1364 -3.25044
91.5262 25.317 -3.26809
91.5506 25.566 -3.29489
92.1031 26.646 -3.43843
92.0889 26.8451 -3.45814
92.2488 27.2116 -3.50506
92.3503 27.6009 -3.55118
91.2945 26.136 -3.33736
92.5811 28.437 -3.65155
92.5098 28.5575 -3.65911
92.3647 28.5606 -3.65141
92.4767 28.9867 -3.70164
92.3464 29.0149 -3.697
92.3419 29.1287 -3.7084
92.324 29.3445 -3.73017
92.2007 29.3858 -3.72756
92.0459 29.3711 -3.71683
71.2907 4.4138 -0.109588
82.0138 8.85764 -1.11163
81.9754 8.89864 -1.11385
81.9804 8.95347 -1.12002
81.9904 9.06314 -1.13138
81.9521 9.10513 -1.1336
81.9251 9.16262 -1.13785
81.9302 9.26595 -1.14819
81.9229 9.35391 -1.15751
81.8912 9.40704 -1.16075
81.9237 9.50433 -1.17302
81.8949 9.5631 -1.17728
81.8801 9.64105 -1.18457
81.8604 9.71365 -1.19086
81.8199 9.75494 -1.19208
81.8149 9.85165 -1.20242
81.7992 9.93074 -1.20973
81.7998 10.0378 -1.22109
81.8567 10.1779 -1.23945
81.8156 10.2213 -1.24168
81.8464 10.3765 -1.26015
81.8119 10.431 -1.2634
81.8236 10.5586 -1.27781
81.8081 10.6458 -1.28614
81.8015 10.7457 -1.2965
81.8007 10.8024 -1.30269
81.7907 10.8999 -1.31204
81.7491 10.9464 -1.31529
81.7273 11.0254 -1.3216
90.2427 25.1983 -3.38334
90.1754 25.3041 -3.39084
90.0693 25.3459 -3.3882
90.0489 25.4207 -3.39549
89.9644 25.4987 -3.39893
89.9645 25.72 -3.42269
89.8751 25.7927 -3.42612
71.8598 11.9447 -1.11307
71.8054 11.9527 -1.11421
71.7785 12.0102 -1.12146
71.7236 12.0566 -1.12773
71.6692 12.0918 -1.13197
71.5113 4.42177 -0.165161
81.0003 8.32089 -1.07089
80.9763 8.37794 -1.07613
80.9607 8.40246 -1.07725
79.978 8.28377 -0.998868
79.9247 8.29259 -0.996008
79.8834 8.32088 -0.99619
79.8407 8.34733 -0.997368
79.8893 8.52711 -1.02088
71.5544 11.3284 -1.1216
71.5019 11.329 -1.12171
71.4451 11.5687 -1.15365
64.3648 10.4854 -1.23455
64.3369 10.4814 -1.2356
79.8429 7.88496 -1.05279
79.807 7.87406 -1.04883
79.7557 7.88259 -1.04696
79.7045 7.89211 -1.0441
79.6543 7.90148 -1.04223
79.6032 7.911 -1.03937
79.5558 7.92602 -1.03852
79.5002 7.92608 -1.03464
79.4488 7.93362 -1.03177
60.9691 7.43865 -1.36618
83.0045 -8.1964 -0.6865
82.9904 -8.1549 -0.68267
83.0055 -8.12073 -0.683756
83.0242 -8.0689 -0.684894
83.0061 -8.02682 -0.681074
83.026 -7.99437 -0.683144
83.042 -7.96133 -0.684223
83.0405 -7.92272 -0.683358
83.0507 -7.88782 -0.683456
83.0601 -7.87202 -0.68449
78.7506 5.51003 -1.07995
78.7151 5.53037 -1.08009
78.681 5.55255 -1.08024
78.6467 5.57374 -1.08038
78.6163 5.60043 -1.08154
78.5743 5.61062 -1.07966
78.5282 5.61334 -1.07576
78.5196 5.63782 -1.07886
78.4812 5.65153 -1.07799
78.4299 5.64593 -1.07208
78.4037 5.68108 -1.07525
78.3665 5.69663 -1.07438
78.3271 5.71049 -1.07351
78.2915 5.72985 -1.07265
78.2668 5.7264 -1.07069
76.9724 -14.0745 -0.590914
71.8002 6.48166 -1.14359
71.7821 6.48935 -1.14465
71.7447 6.47563 -1.14168
71.634 6.4787 -1.14292
73.6675 3.19283 -0.723535
75.7696 -9.15501 -0.775149
75.8339 -9.19278 -0.797888
46.8646 -3.17689 -8.27915
46.8752 -3.25624 -8.27186
46.8458 -3.33282 -8.28066
46.9522 -3.42002 -8.23814
74.2993 -5.20516 -0.0456262
74.2983 -5.19795 -0.0456528
74.1785 -6.1547 -0.0506412
74.1971 -6.15239 -0.057611
70.779 -3.731 0.213099
118.611 -10.952 -19.2369
118.606 -10.8765 -19.2311
118.579 -10.5754 -19.2062
108.696 -19.4841 -15.9392
108.728 -19.3634 -15.9336
108.758 -19.2414 -15.9279
124.313 -19.9696 -22.3644
124.358 -19.8044 -22.3649
124.414 -19.6428 -22.3703
71.0571 -4.04521 0.338743
71.0781 -4.0947 0.361955
70.9497 -3.92465 0.250111
71.01 -4.03638 0.308616
71.0081 -4.04217 0.309632
70.9869 -4.01485 0.294495
70.9603 -3.97566 0.272306
70.9266 -3.93038 0.246083
70.8946 -3.88736 0.22187
70.9087 -3.92172 0.239016
70.9068 -3.9275 0.240032
70.9131 -3.94658 0.25011
70.8767 -3.8989 0.221872
70.8716 -4.00918 0.264238
70.9664 -4.1542 0.342928
70.8514 -4.05673 0.276358
70.6603 -6.22474 0.336348
70.6727 -6.34085 0.305769
70.5829 -6.54834 0.20929
70.649 -6.48308 0.252204
70.6719 -6.46416 0.265187
70.7262 -6.41035 0.300116
70.6976 -6.46791 0.272253
70.6522 -6.53009 0.237371
73.0517 -6.48833 0.181174
73.0398 -6.55643 0.145381
72.9975 -6.50668 0.176125
1.15033e-41 0 -1.06982e+20
