ply
format ascii 1.0
element vertex 635
property float x
property float y
property float z
end_header
144.423 -5.86571 3.88276
144.238 -5.61215 3.87553
136.853 -2.54602 3.59658
136.749 -0.507232 3.58944
137.508 0.221277 3.61642
143.949 1.1245 3.8514
138.937 5.96855 3.67181
136.304 5.83251 3.57602
135.617 6.98766 3.55383
131.01 6.46634 3.38576
119.971 5.65177 2.98598
103.376 14.8242 2.47336
112.268 32.4174 3.0201
112.042 32.4807 3.0153
111.831 32.5542 3.01051
109.479 31.1702 2.91607
111.015 35.5731 3.04262
110.999 35.8128 3.04689
111.066 36.1265 3.05517
89.926 22.932 2.21038
89.7388 22.901 2.20496
89.6948 23.0255 2.20648
63.9676 13.5651 1.51546
38.0358 16.8967 1.98215
39.5238 14.0891 1.89628
33.7947 17.4614 2.09496
34.6168 15.7041 2.04625
34.4232 15.764 2.05155
34.083 15.8507 2.06138
33.8378 15.8735 2.06864
33.4915 15.9601 2.07845
33.2366 15.9863 2.08568
32.8729 16.0784 2.09642
28.9512 18.2725 2.23142
28.6701 18.37 2.23938
28.3889 18.3888 2.24755
26.6792 18.6339 2.29519
26.4703 18.6778 2.30149
28.6125 17.0833 2.22191
28.6411 16.9145 2.21948
28.3955 16.601 2.22071
24.269 18.8898 2.36288
24.1532 18.1174 2.35578
26.7972 15.8101 2.25362
27.8086 13.8855 2.2019
27.6346 13.8981 2.20639
27.4066 13.8649 2.21287
27.4829 13.6833 2.2086
27.5621 13.5014 2.20433
27.4428 13.4153 2.20626
27.5382 13.227 2.20106
27.4179 13.1411 2.20398
11.1601 20.6359 2.7431
9.85564 20.8255 2.782
16.6907 16.7909 2.54523
16.7424 16.6785 2.5427
18.7223 14.9585 2.46804
9.58763 17.1697 2.75177
16.4056 13.6476 2.52248
11.3911 15.2244 2.68227
9.0162 14.9117 2.74869
10.4242 13.9508 2.69929
2.16311 14.455 2.94631
-0.0927812 12.9325 3.00453
-4.84849 13.729 3.15127
-6.01336 13.5573 3.18559
-13.0626 -1.79605 3.37545
-13.0349 -2.0414 3.37423
20.1824 -8.88859 2.3685
22.927 -9.00216 2.28431
22.7622 -9.75645 2.29503
25.0222 -10.4788 2.23127
24.4279 -10.7014 2.25129
21.459 -11.3134 2.34695
21.0693 -11.5176 2.36047
25.8051 -10.9831 2.21085
25.8271 -11.1054 2.21126
25.8052 -11.5507 2.21648
25.9736 -11.6454 2.21221
25.5261 -11.8585 2.22761
7.92815 -15.4473 2.79691
8.04247 -15.5171 2.79442
4.37572 -16.639 2.91664
2.6607 -18.7262 2.98996
8.10771 -18.6817 2.82469
9.07693 -19.2751 2.80303
8.46815 -19.6279 2.82539
8.49147 -19.812 2.82598
7.87521 -20.1748 2.84934
7.97191 -20.532 2.85063
17.2559 -18.0333 2.54378
16.1321 -18.4422 2.58189
17.3136 -18.2597 2.54459
9.26988 -30.1087 2.95367
47.5349 -12.4078 1.58222
47.4015 -12.6716 1.59061
44.2703 -17.4925 1.76792
57.7676 -18.8844 1.53273
88.5885 -22.0054 2.08578
132.385 -45.7131 3.95135
132.295 -45.3671 3.94112
132.428 -45.1567 3.94087
132.606 -44.9739 3.94283
133.059 -45.0988 3.95943
133.308 -40.1529 3.87191
134.193 -37.6102 3.85502
132.71 -27.7721 3.64972
140.585 -28.7635 3.93805
140.805 -28.5704 3.94309
127.399 -20.5656 3.37253
127.429 -20.3638 3.37103
127.444 -20.1569 3.36948
127.415 -20.0456 3.36708
127.46 -19.8471 3.36664
127.483 -19.4341 3.36251
127.496 -19.2289 3.36096
131.717 6.70934 2.98098
110.714 8.19121 2.36343
110.455 8.27444 2.35648
107.121 9.68847 2.26632
106.95 9.77942 2.2626
106.813 9.80703 2.25814
106.624 9.89046 2.25339
106.428 9.97078 2.24862
106.241 10.0529 2.24388
106.049 10.1317 2.23813
105.883 10.219 2.23442
105.684 10.2946 2.22866
105.537 10.3146 2.2252
105.344 10.3894 2.21946
105.133 10.4568 2.21469
104.954 10.5357 2.20998
104.781 10.6149 2.20528
104.593 10.6881 2.20056
104.394 10.7558 2.19482
103.408 14.7988 2.20052
110.919 35.1424 2.64559
110.972 35.4398 2.65188
111.027 35.7401 2.65717
111.106 36.0642 2.66446
89.9709 22.8594 1.97371
89.9031 22.9579 1.97424
89.6908 22.8143 1.96708
89.6383 22.9279 1.96761
8.51575 -31.2437 2.59887
9.65069 -33.0797 2.60224
49.7792 -12.9807 1.42198
97.7577 -23.3833 2.15775
132.763 -40.5332 3.37251
137.035 -37.4303 3.44225
129.635 -28.7676 3.11818
131.955 -28.3234 3.17824
140.133 -29.258 3.42423
140.308 -29.0525 3.42712
140.478 -28.8455 3.42999
140.762 -28.6737 3.43627
125.498 -20.7662 2.90792
125.516 -20.5658 2.90639
125.517 -20.3618 2.90381
125.536 -20.1626 2.90229
125.55 -19.9615 2.90075
125.573 -19.7637 2.90024
125.601 -19.5678 2.89876
125.601 -19.3648 2.89717
125.601 -19.2628 2.89588
137.909 -19.5084 3.26217
139.374 -0.408353 2.85931
144.08 1.46728 2.97576
144.094 1.71888 2.97608
120.257 0.341081 2.371
134.886 6.60679 2.74092
123.73 5.72516 2.45902
123.628 10.0536 2.46431
104.859 14.9072 2.03116
99.1876 29.9815 2.0664
91.6548 24.954 1.85929
98.8009 32.9536 2.09981
76.3427 12.2472 1.408
4.8398 21.4673 2.20947
33.2178 -18.6912 1.70621
135.518 -36.7966 3.02429
125.54 -20.3224 2.60775
125.548 -20.2225 2.60749
125.548 -20.0186 2.60591
125.535 -19.8117 2.60328
125.568 -19.6164 2.60281
125.591 -19.4187 2.6013
123.708 5.50506 2.00558
104.92 15.0856 1.69582
104.958 15.26 1.69742
91.4554 24.7381 1.55336
91.3944 24.8559 1.55286
76.3441 12.183 1.25419
64.0036 13.5905 1.18148
21.6263 18.7614 1.52203
-11.27 -21.3847 1.98858
129.921 -27.8093 2.2622
134.148 -28.719 2.34235
135.235 -28.8522 2.3617
136.415 -29.0118 2.38337
137.633 -29.1748 2.40517
131.76 -21.4316 2.24791
132.004 -20.8199 2.24782
125.334 -18.7783 2.11776
126.735 -18.5987 2.14106
137.831 -19.3541 2.3415
141.307 -19.3188 2.40189
104.879 14.8261 1.46645
104.924 15.0027 1.46706
111.513 37.4956 1.60345
111.552 37.7952 1.60569
95.0132 28.6884 1.40272
94.8916 28.7643 1.40217
76.356 12.2002 1.15117
21.6529 18.8368 1.27188
88.8167 -18.7459 1.35304
88.8579 -18.7194 1.35407
108.753 -21.4407 1.60916
108.778 -21.2917 1.60881
130.25 -21.2483 1.87326
119.831 41.5201 1.20658
119.591 41.6118 1.20466
119.435 41.627 1.20419
119.155 41.6859 1.20326
111.67 36.1339 1.16878
111.527 36.2664 1.16801
111.358 36.3783 1.16723
111.281 36.4397 1.16684
111.361 36.7688 1.16711
111.441 37.1007 1.16738
111.522 37.4357 1.16764
23.3636 -15.5873 1.0164
23.999 -15.5513 1.01603
91.1524 -22.4276 1.18698
108.574 -21.4767 1.27878
138.951 -29.415 1.48344
125.066 -19.7592 1.36684
125.104 -19.5677 1.36639
125.1 -19.364 1.36579
125.1 -19.264 1.36551
125.111 -19.0656 1.36497
141.173 -19.4657 1.45994
114.817 2.07664 1.00117
98.5538 11.7252 0.949093
104.865 14.8744 0.946266
111.158 35.4676 0.879298
110.987 35.5728 0.878527
111.443 36.4806 0.875164
111.374 37.0711 0.873281
111.503 37.4498 0.871545
78.9409 14.1362 0.910664
78.98 14.2478 0.91045
70.5027 13.1114 0.898587
62.3355 11.7259 0.883285
139.568 -29.3168 1.11484
125.154 -19.0523 1.07204
125.2 -18.8619 1.07162
137.986 -19.154 1.08834
111.276 35.5074 0.490502
110.959 35.4879 0.491691
111.511 37.3901 0.474735
78.9418 14.2811 0.761249
21.6797 18.7853 0.392098
18.4126 -15.3697 0.491269
108.741 -21.2441 0.757561
138.473 -29.2856 0.619762
137.584 -24.3483 0.621158
124.929 -20.6605 0.680045
124.685 -19.8885 0.680163
124.872 -18.9323 0.678925
125.185 -18.8072 0.676422
127.168 -18.5587 0.667117
141.191 -19.3764 0.597719
144.541 -3.32947 0.0557727
142.796 -3.10564 0.0753698
134.353 -1.04782 0.163429
111.286 9.28161 0.367841
78.9428 14.1998 0.618484
69.5327 13.6153 0.661492
117.341 -26.2391 0.367363
119.831 -26.4658 0.341806
120.611 -26.5746 0.333245
120.241 -26.2261 0.338236
108.786 -21.1543 0.467423
125.153 -21.4872 0.294027
126.294 -21.602 0.28147
126.747 -21.519 0.276468
128.307 -21.6285 0.259036
125.91 -20.5647 0.286444
125.435 -19.5224 0.292155
125.749 -19.3973 0.288651
125.924 -19.2374 0.28667
125.747 -18.991 0.28848
126.383 -18.632 0.282183
127.013 -18.572 0.274729
130.385 -9.35404 -0.227546
138.095 -4.28899 -0.37906
110.864 2.35847 0.0885669
123.876 4.41921 -0.157855
111.27 9.2457 0.0308971
109.931 32.7828 -0.25035
78.999 14.2934 0.453368
69.5838 13.6593 0.531504
109.973 -21.4753 0.11758
113.681 -19.9471 0.060307
120.17 -17.6971 -0.0464541
120.297 -17.5434 -0.0485492
120.447 -17.3941 -0.0515674
122.293 -16.2152 -0.081919
119.472 -11.4332 -0.311347
119.557 -11.3564 -0.313337
109.931 2.17236 -0.127445
78.9536 14.1491 0.336657
69.5486 13.665 0.435391
66.639 17.8297 0.321493
11.4013 -14.7999 -0.572503
90.3725 -22.3282 0.263559
101.314 -22.7093 0.0435021
111.44 -17.1261 -0.139911
112.63 -17.2903 -0.167191
114.161 -17.3717 -0.201781
112.559 -16.5479 -0.163517
125.269 -18.7815 -0.457432
115.158 -13.3085 -0.21373
119.32 -12.6388 -0.3083
119.347 -12.4669 -0.308719
111.217 -10.8307 -0.398599
111.208 -10.68 -0.398056
111.103 -10.5175 -0.394809
111.168 -10.3773 -0.397033
111.292 -10.2445 -0.400077
111.394 -10.1832 -0.402976
111.454 -10.0423 -0.404215
111.456 -9.89307 -0.404638
111.382 -9.735 -0.402295
111.281 -9.57526 -0.399028
111.205 -9.41889 -0.396687
111.254 -9.27645 -0.397961
111.24 -9.20066 -0.398218
111.243 -9.05372 -0.39763
111.26 -8.90762 -0.398004
111.286 -8.7618 -0.399352
111.318 -8.61682 -0.399682
111.273 -8.46609 -0.398236
111.264 -8.31732 -0.398688
111.235 -8.24139 -0.396986
111.216 -8.09234 -0.396464
111.242 -7.94751 -0.39781
111.238 -7.80044 -0.397244
111.26 -7.65518 -0.3986
111.258 -7.5074 -0.39803
111.291 -7.36256 -0.399357
111.263 -7.28791 -0.398647
111.302 -7.14293 -0.399957
111.265 -6.99432 -0.399484
111.233 -6.84528 -0.398
111.273 -6.70044 -0.399307
111.047 -6.54304 -0.393376
111.039 -6.39653 -0.392817
111.445 -6.26843 -0.405077
111.625 -6.20214 -0.410776
111.857 -6.0634 -0.417542
112.042 -5.92102 -0.423447
112.231 -5.77821 -0.429341
112.379 -5.63259 -0.433356
112.729 -5.34091 -0.44424
112.912 -5.26895 -0.449947
113.118 -5.12161 -0.456806
113.349 -4.97255 -0.463606
115.072 -3.65104 -0.517701
115.262 -3.49012 -0.523646
115.563 -3.24613 -0.533524
115.605 -3.08446 -0.535873
115.743 -2.92132 -0.539964
118.132 -1.76515 -0.614769
118.214 -1.59299 -0.618039
118.51 -1.40783 -0.627764
119.143 -1.20294 -0.646625
119.432 -0.927843 -0.656627
119.265 -0.765738 -0.652548
98.4151 3.75584 -0.081408
108.55 31.8848 -0.845544
108.61 32.1661 -0.853188
66.8575 17.7367 0.192355
66.7883 17.7475 0.192135
66.7538 17.7534 0.192024
66.6852 17.7612 0.191815
88.9258 -18.6088 0.165931
111.892 -12.4448 -0.421123
111.914 -12.2954 -0.421491
111.866 -12.2109 -0.419864
111.698 -12.0314 -0.414839
111.503 -11.8481 -0.408898
111.479 -11.6932 -0.407406
111.433 -11.5361 -0.405984
111.409 -11.3823 -0.40549
111.373 -11.2266 -0.404037
111.332 -11.146 -0.40238
111.254 -10.9844 -0.400057
107.642 1.51373 -0.611802
96.1319 0.0469671 -0.190987
97.6544 3.58672 -0.279999
110.274 33.1415 -1.29845
110.362 33.4552 -1.30911
96.6972 30.509 -0.876927
62.5088 13.8399 0.195682
-3.15438 -9.01306 -1.83484
-2.78808 -9.09337 -1.81961
-2.10526 -9.25601 -1.79128
-1.70665 -9.43585 -1.77568
-1.30365 -9.61329 -1.75907
-4.07605 -11.0356 -1.87355
-3.07254 -11.1519 -1.83247
3.56363 -14.0944 -1.56692
3.80795 -14.2513 -1.5568
4.14248 -14.3917 -1.54449
5.28235 -14.586 -1.49782
100.319 -6.71541 -0.525148
100.319 -6.60327 -0.52547
100.324 -6.49083 -0.52578
100.346 -6.37994 -0.527036
100.359 -6.26864 -0.527321
100.374 -6.21319 -0.527439
100.395 -6.10202 -0.528702
100.417 -5.99 -0.529963
100.424 -5.87785 -0.530267
100.433 -5.76598 -0.530564
100.446 -5.65467 -0.530849
101.066 -4.19245 -0.560356
101.177 -4.07698 -0.565384
101.261 -4.01923 -0.569321
89.5379 16.7808 -0.484032
96.5297 30.121 -1.13927
96.7212 30.4372 -1.15566
-0.93481 -7.40312 -2.13441
-0.810797 -7.60355 -2.1285
-0.652636 -7.69874 -2.12079
12.1867 -10.3606 -1.51812
10.1718 -12.1602 -1.61845
12.5128 -12.5785 -1.50986
18.3534 -15.5191 -1.25648
70.4603 -20.0392 0.274665
88.0826 -19.5029 -0.174804
89.4865 -19.4904 -0.223011
88.2958 -16.9362 -0.131593
93.279 -15.9834 -0.303736
96.7366 30.4686 -1.42871
70.7138 17.5208 -0.225508
70.631 17.4851 -0.222632
9.15835 4.37195 -2.04069
9.26628 3.90918 -2.03007
10.0188 -5.88094 -1.9329
10.0744 -6.05144 -1.92926
9.91994 -6.22849 -1.93717
85.3329 -16.3495 -0.150361
91.614 -16.3157 -0.413325
96.2607 -9.15968 -0.5452
96.2286 29.8948 -1.68445
19.0742 -5.60506 -1.74398
18.5991 -6.19817 -1.77158
18.7198 -6.26581 -1.76405
18.443 -6.42246 -1.78036
19.6852 -7.99979 -1.70844
82.224 -16.655 -0.170965
91.5061 -4.94888 -0.626263
91.525 -4.86571 -0.62745
91.523 -4.78058 -0.6277
91.5561 -4.73983 -0.629727
91.5631 -4.65497 -0.629952
91.5801 -4.57053 -0.631148
92.4197 2.20044 -0.747303
92.3453 7.28929 -0.85512
92.335 7.38671 -0.857428
92.3201 7.43125 -0.857596
92.2701 7.5131 -0.856968
92.2437 7.60472 -0.858303
92.2226 7.69762 -0.859627
92.1542 7.77097 -0.858024
92.1051 7.85169 -0.85739
92.0885 7.94798 -0.859712
92.0381 7.97737 -0.857934
91.9555 8.04265 -0.855347
78.9033 9.39737 -0.264839
76.3946 12.2053 -0.309747
60.1076 13.6074 -0.251204
60.1 13.5186 -0.24497
60.066 13.4214 -0.239784
60.0215 13.3641 -0.236741
59.9704 13.332 -0.235788
59.9085 13.3438 -0.237991
88.4871 -7.64889 -0.621745
88.5024 -7.61267 -0.621808
88.508 -7.53771 -0.622008
90.8128 0.466143 -0.811706
89.238 7.91066 -0.897381
60.2057 13.584 -0.375871
60.1734 13.4775 -0.369653
60.1463 13.3511 -0.361364
60.1096 13.2634 -0.356212
60.0534 13.2522 -0.356333
60.0872 13.0141 -0.338557
60.0792 12.8234 -0.326031
60.0477 12.7299 -0.319848
77.4391 -16.5224 -0.187399
88.4265 -8.28872 -0.622073
88.441 -8.21503 -0.622245
88.4557 -8.14035 -0.62342
88.459 -8.10245 -0.62252
88.4676 -8.02791 -0.62271
88.4694 -7.9514 -0.621925
88.474 -7.8763 -0.622128
88.4758 -7.79979 -0.621343
88.4825 -7.72398 -0.621542
89.9626 3.40675 -0.943471
89.9406 3.48663 -0.943761
88.5399 6.21796 -0.929425
88.4942 6.28709 -0.928748
88.4405 6.44219 -0.93034
88.4078 6.51754 -0.930646
88.3579 6.72058 -0.934365
88.3344 6.98146 -0.942178
88.3255 7.06856 -0.944453
88.3417 7.16827 -0.948695
88.3238 7.20516 -0.94885
88.2564 7.26424 -0.947203
88.2118 7.33421 -0.946526
79.4135 9.53428 -0.532843
60.109 13.7258 -0.479542
60.1315 13.4085 -0.45557
60.067 13.2036 -0.442157
59.9872 13.2816 -0.449599
59.9381 13.2421 -0.447619
85.7426 -6.42965 -0.677735
85.7469 -6.36361 -0.677912
87.0444 0.0260533 -0.821723
87.0988 0.11022 -0.827816
87.3332 4.6915 -0.962334
87.3287 4.77295 -0.96558
87.3057 4.84591 -0.965852
87.2624 4.91065 -0.965156
87.2567 4.99125 -0.967403
87.2532 5.03113 -0.968527
87.2368 5.1072 -0.969791
87.242 5.19332 -0.973024
78.2072 11.9223 -0.747993
60.1649 13.4207 -0.575514
60.1029 13.2053 -0.560065
84.5223 7.51204 -1.0081
84.4846 7.57396 -1.00838
84.458 7.64238 -1.00965
73.8148 3.10637 -0.0506536
73.0504 12.5524 -0.68787
72.9846 12.5517 -0.685047
83.5125 -10.8771 -0.687046
83.7648 6.79339 -1.05211
83.7479 6.82406 -1.05224
83.7175 6.88697 -1.0535
83.6582 6.93177 -1.05079
83.6177 6.98803 -1.05007
83.5739 7.04272 -1.05034
82.4783 6.11366 -1.05066
82.4481 6.17148 -1.05191
82.4123 6.22505 -1.05116
82.3789 6.28132 -1.05142
82.3704 6.31383 -1.05253
82.3545 6.37972 -1.05476
72.8177 -16.659 -0.438617
81.766 -0.0873196 -0.845797
81.6177 5.70766 -1.07985
81.5834 5.75798 -1.08008
81.5595 5.81693 -1.08132
72.5994 12.648 -1.02538
80.8749 5.12836 -1.10621
80.8457 5.17897 -1.10643
80.8123 5.22817 -1.10567
80.7842 5.27962 -1.10589
80.7839 5.34834 -1.11009
64.3666 13.0289 -1.22593
64.3125 12.9962 -1.22299
64.2573 13.0272 -1.22623
67.6206 -16.0942 -0.494417
67.6539 -16.0726 -0.492388
67.6874 -16.0501 -0.491361
67.7107 -16.0645 -0.493256
70.0555 10.4752 -1.08508
50.52 7.02112 -1.43846
67.2849 -13.3301 -0.38427
73.6834 5.86769 -1.13295
73.639 5.88209 -1.13011
73.6162 5.92068 -1.13229
73.5753 5.93861 -1.13045
73.477 5.8587 -1.11149
61.5795 9.67756 -1.29291
61.5333 9.67908 -1.29504
61.4923 9.6536 -1.29208
61.4402 9.67815 -1.29829
61.4214 9.65962 -1.29629
61.3756 9.65704 -1.29741
72.4674 -10.9213 -0.699051
63.5465 -10.6627 -0.860132
69.6312 -5.2906 -0.91396
69.6255 -5.28069 -0.911004
69.6241 -5.24816 -0.909101
69.6235 -5.21676 -0.907193
67.2369 -4.20394 -0.144606
63.74 -2.74874 0.108678
105.418 -19.1801 -17.2226
63.9437 -3.05413 0.235111
123.823 -19.8214 -25.2396
123.838 -19.6264 -25.2251
63.9894 -3.01019 0.208109
64.0311 -3.09984 0.252481
64.0164 -3.08262 0.242391
63.8187 -2.78629 0.0619995
63.9567 -3.0278 0.19007
63.9605 -3.04348 0.198126
63.9595 -3.0504 0.200143
63.911 -2.97998 0.160808
63.8935 -2.96135 0.149707
63.8504 -2.89573 0.113401
63.8567 -2.91578 0.122475
63.8653 -2.9402 0.134569
63.8602 -2.94049 0.133556
63.8607 -2.95066 0.137587
63.7393 -2.77002 0.0377359
63.894 -3.11985 0.211164
63.8516 -3.12698 0.203069
63.5097 -5.59979 0.0732361
63.5911 -5.51628 0.126219
66.0543 -5.51307 0.0519287
66.0341 -5.59211 0.0141002
66.0047 -5.55657 0.0359182
66.0182 -5.56152 0.0299691
65.9673 -5.46328 0.0775487
37.5006 1.57597 -1.34653
