ply
format ascii 1.0
element vertex 573
property float x
property float y
property float z
end_header
153.782 20.3973 3.12775
142.343 19.3743 2.817
141.908 19.3759 2.80556
141.175 21.1559 2.78808
141.09 21.546 2.78588
141.076 21.7572 2.78595
140.828 21.8411 2.77967
97.6447 27.6537 2.02632
91.7018 10.901 1.68479
81.76 46.9098 2.41928
78.9186 45.6523 2.41745
77.1882 44.8225 2.4185
76.9462 45.1917 2.42717
76.615 46.0023 2.44592
75.0478 11.968 1.86462
75.0297 11.8625 1.86318
68.4188 13.3539 2.04229
67.507 13.4912 2.06768
68.014 11.1173 2.03038
63.816 12.5702 2.1632
63.9074 12.0528 2.15618
63.7544 12.0566 2.16069
52.7158 14.4414 2.51738
52.6939 14.3031 2.51741
42.1921 16.4017 2.86919
38.516 16.9015 2.99358
36.986 17.0803 3.04565
35.8942 17.2163 3.08272
35.6568 17.2302 3.0914
35.616 17.0512 3.09207
35.5913 16.8648 3.0928
38.7994 13.4337 2.98355
26.6631 18.3349 3.4007
25.9108 18.4291 3.42712
24.4109 18.5995 3.4792
38.0901 12.7426 3.00892
38.0323 12.5863 3.01134
28.682 16.1843 3.33271
28.4933 15.9397 3.33985
28.9339 15.3418 3.32569
26.5722 16.0465 3.40737
28.1316 14.6996 3.3547
28.4204 13.2345 3.34835
18.5291 15.5111 3.69438
18.3801 14.2475 3.70378
18.3698 14.0136 3.70513
18.3421 13.7852 3.70746
18.2632 13.5733 3.71074
17.7803 13.6014 3.72811
17.5869 13.4221 3.73635
15.6814 13.0185 3.80703
16.4535 -1.36608 3.89352
16.4507 -1.58994 3.8957
20.8839 -8.93857 3.82634
23.9543 -10.3584 3.73218
28.4632 -10.3337 3.56332
25.5917 -11.1547 3.68444
22.4654 -11.5481 3.80744
26.2311 -12.9437 3.69039
43.8206 -11.5547 3.00937
42.5763 -11.8139 3.06059
46.0299 -11.8646 2.93267
45.9461 -12.0051 2.93796
52.9969 -12.5281 2.68555
51.7099 -15.8386 2.80105
51.6276 -15.9752 2.80729
44.3037 -18.0259 3.12008
46.6743 -17.5066 3.02206
41.6396 -19.218 3.24368
41.5874 -19.3843 3.24922
41.5824 -19.5391 3.25343
44.9127 -18.7943 3.11471
40.7522 -20.1508 3.29712
40.5352 -20.3681 3.30998
40.5832 -20.5123 3.31184
20.8912 -27.0661 4.17756
43.4991 -21.1845 3.22267
42.0702 -22.6534 3.30967
54.1309 -19.4473 2.7992
54.4341 -19.4536 2.78918
54.6342 -19.4955 2.78304
55.125 -19.658 2.76954
42.3051 -24.9667 3.36151
54.802 -20.5437 2.80425
55.4923 -21.4359 2.80533
55.3347 -21.6263 2.8156
55.3413 -21.7424 2.81922
33.9851 -32.4832 3.85722
34.0112 -32.6748 3.86183
55.0582 -25.2797 2.93226
69.9033 -21.1005 2.32085
98.8236 -23.4425 2.1762
133.262 -48.7924 3.83375
142.657 -56.7323 4.32767
139.836 -28.9081 3.35763
156.079 -3.75516 2.91469
155.726 16.4056 2.72902
155.87 16.6972 2.73137
156.45 17.0233 2.74264
152.648 20.5448 2.64376
140.92 20.9343 2.39511
140.929 21.1562 2.39494
99.6464 15.3726 1.66854
99.9073 31.3073 1.84839
99.7818 31.3344 1.84747
77.3511 44.6941 2.07768
76.8436 46.015 2.09887
26.2149 13.7652 3.01688
35.3402 -25.144 3.26447
43.5007 -24.22 3.00255
68.1099 -20.3256 2.20444
132.366 -41.4079 3.19159
134.05 -28.7138 2.86698
140.278 -29.4554 3.01971
148.545 -30.8705 3.2345
161.146 -32.6571 3.55672
163.212 -31.9023 3.5855
147.823 -21.4084 3.00839
147.8 -21.3021 3.00597
147.783 -21.0986 3.00116
147.784 -20.8988 2.99733
147.776 -20.6966 2.9935
147.802 -20.5024 2.98966
121.953 5.54573 1.85689
100.176 31.3336 1.65702
98.6463 27.1404 1.62087
98.5336 27.1646 1.61994
98.4802 27.1864 1.61983
99.6899 31.2942 1.65535
82.6995 46.2477 1.80514
79.0923 46.9403 1.83354
77.2975 47.1677 1.84889
76.5417 47.4065 1.85628
76.1311 48.5861 1.87011
43.764 -18.5786 2.65682
128.534 -27.3844 2.49832
160.638 -32.5473 3.17699
166.673 -5.81146 2.21694
166.656 -5.56257 2.21349
162.955 16.1529 1.91807
162.92 16.2731 1.9165
162.935 16.5397 1.91368
162.999 16.8215 1.91246
163.037 17.3606 1.9077
161.552 19.4916 1.87201
151.38 22.1886 1.74307
158.951 26.7772 1.78454
98.6208 26.7257 1.3438
98.551 26.8732 1.34397
98.4482 26.9243 1.34362
98.3624 27.0305 1.34343
98.2502 26.8678 1.34314
83.4576 46.5371 1.39424
83.1782 46.8641 1.39564
78.164 47.9101 1.42419
76.8375 45.9454 1.43081
12.8549 20.2323 2.40626
13.0546 -21.0752 2.92941
150.446 -31.0212 2.4506
153.317 -31.383 2.48822
156.419 -31.892 2.53108
157.496 -32.0241 2.54501
158.686 -32.1875 2.56097
159.803 -32.3192 2.57475
160.984 -32.4641 2.59048
162.216 -32.6193 2.60717
148.915 -19.5225 2.22366
160.327 -19.9743 2.36033
163.781 -20.3186 2.40458
162.873 16.2839 1.50947
162.896 16.5525 1.5066
162.942 16.8298 1.50451
162.95 17.0952 1.50173
163.031 17.2524 1.50021
99.8834 31.0296 1.13933
98.4263 26.9924 1.15872
94.2756 14.9179 1.21556
94.1899 14.8908 1.21525
78.2797 44.5725 1.14991
77.4308 45.0561 1.15318
76.7625 45.8551 1.15333
80.6372 20.9301 1.23645
119.5 -23.1214 1.78702
119.525 -23.0089 1.78534
119.699 -22.9661 1.7851
166.539 -5.87403 1.25721
166.529 -5.62501 1.25373
162.895 16.4657 0.954768
162.92 16.7358 0.951857
162.958 17.0103 0.947841
162.989 17.2836 0.943864
159.815 25.1845 0.843786
159.569 25.3472 0.842389
116.379 6.26076 1.12109
144.128 19.7796 0.925542
146.559 22.0957 0.893915
121.987 11.4244 1.0506
96.823 13.9732 1.05558
94.9788 16.2582 1.03502
76.9152 46.1418 0.771675
77.0356 44.6154 0.787812
151.307 -31.1677 1.63644
157.524 -32.0938 1.6458
147.48 -20.5753 1.47971
147.484 -20.3769 1.47589
147.499 -20.1821 1.47308
156.512 -21.2918 1.48481
148.84 -19.5572 1.46334
160.252 -20.0192 1.46415
163.744 -20.3726 1.46737
166.617 -5.58354 0.878786
104.129 41.456 0.485373
95.1245 16.2537 0.91654
80.6953 43.4392 0.544029
80.5118 43.5968 0.542471
79.9311 33.4002 0.703726
77.3501 44.2262 0.543136
77.2192 44.0318 0.546362
77.1326 43.618 0.553529
77.0534 43.594 0.554157
38.7103 -17.9353 1.56808
147.435 -21.4418 1.20109
147.264 -20.7072 1.19133
147.292 -20.5152 1.18851
147.292 -20.3173 1.18571
147.351 -20.1318 1.18288
147.403 -19.9453 1.18005
149.129 -19.3909 1.1639
162.555 -15.2626 0.555403
162.676 -14.5558 0.543968
164.434 -6.4422 0.411853
161.963 1.20571 0.328786
158.262 14.9654 0.153824
94.1304 13.572 0.821067
82.8136 67.6427 -0.31989
77.0789 44.043 0.213681
107.084 -24.7375 1.28221
119.347 -23.1413 1.1398
133.277 -28.4295 1.0466
160.91 -32.2881 0.78607
161.414 -32.1978 0.778951
161.537 -29.9223 0.75134
161.853 -29.7616 0.745912
147.511 -21.3131 0.804946
147.33 -21.0728 0.804215
147.15 -20.8339 0.803495
147.16 -20.7363 0.80208
147.148 -20.5366 0.7993
147.243 -19.9644 0.791864
149.134 -19.4469 0.763635
163.473 -7.94549 -0.0244335
162.056 -7.70154 -0.0026994
139.668 5.76058 0.17991
160.221 14.8986 -0.336444
139.286 9.3011 0.122257
124.644 6.30768 0.426131
103.492 40.11 -0.119336
103.354 39.954 -0.113627
100.084 30.7854 0.163942
102.881 39.532 -0.0979334
85.7865 62.7577 -0.653754
82.873 67.3506 -0.774029
81.026 43.3288 -0.094689
80.9597 43.2121 -0.0907965
81.1756 31.6862 0.232351
102.739 -24.0663 1.17659
119.941 -26.5394 0.935629
143.075 -29.5225 0.582171
143.331 -29.4189 0.576769
143.906 -29.4389 0.567948
143.995 -29.2677 0.565206
145.516 -27.5649 0.523572
146.665 -27.7512 0.506002
143.298 -25.5278 0.540894
146.023 -25.085 0.490664
146.967 -25.1619 0.475301
144.261 -24.1682 0.51115
147.332 -24.6548 0.463795
147.399 -24.4695 0.459931
147.363 -24.3572 0.459476
147.233 -24.1173 0.459561
146.874 -23.8152 0.462604
147.056 -23.2594 0.454083
147.212 -23.0991 0.449245
148.162 -23.2436 0.434813
148.038 -23.0077 0.43393
147.818 -22.7487 0.435076
148.838 -22.7993 0.41806
148.628 -22.5417 0.419189
149.475 -22.5423 0.404097
150.555 -22.5924 0.385855
151.145 -22.6266 0.376181
146.799 -20.8082 0.431375
147.856 -20.3448 0.40796
148.247 -19.4282 0.390573
142.973 -11.6465 -0.00216959
148.426 -5.78993 -0.215906
147.563 -5.62342 -0.197102
143.616 -3.42665 -0.133713
146.137 3.73618 -0.316184
158.502 13.8006 -0.80569
122.126 9.66232 0.130895
94.9968 16.278 0.429612
94.9287 16.3242 0.428209
82.8357 67.1807 -1.28955
101.468 -20.3114 1.04316
127.347 -27.6827 0.512665
120.778 -23.263 0.638229
131.428 -26.9308 0.416107
132.305 -26.475 0.393455
132.459 -26.3728 0.389449
132.582 -26.3401 0.386534
135.236 -22.3119 0.295889
140.803 -22.0222 0.161429
140.836 -21.8503 0.158875
141.06 -21.7289 0.152341
141.269 -21.6023 0.145788
140.934 -21.0642 0.149407
141.184 -20.9466 0.14283
141.323 -20.801 0.137262
135.223 -14.2503 -0.029038
135.26 -14.102 -0.0322675
135.203 -13.9403 -0.0323458
135.217 -13.8645 -0.0334679
135.512 -12.9776 -0.0520838
135.577 -12.9081 -0.0543025
135.591 -12.7557 -0.0565112
135.61 -12.6038 -0.0587263
135.636 -12.4519 -0.0609672
135.675 -12.3019 -0.0642289
135.757 -12.1562 -0.0685906
135.742 -12.0005 -0.0697365
135.743 -11.9239 -0.0708231
135.761 -11.7709 -0.0730511
135.788 -11.6192 -0.0752936
135.809 -11.4666 -0.0785264
135.821 -11.3139 -0.0807319
135.847 -11.1621 -0.0829728
135.902 -11.0123 -0.0862893
135.88 -10.9334 -0.0863245
135.682 -9.92413 -0.0938674
135.738 -9.77358 -0.0972001
138.237 4.19921 -0.401855
138.483 4.42549 -0.412953
139.173 5.10394 -0.447069
139.098 5.25813 -0.447975
120.678 1.98659 0.151676
116.21 2.02527 0.279481
81.9377 67.2352 -1.67207
101.432 -20.3905 0.944395
101.491 -20.3616 0.943771
101.523 -20.3086 0.942905
132.083 -21.3923 0.122403
132.847 -18.7646 0.0814636
133.006 -18.651 0.0762779
133.195 -18.5439 0.0700712
133.205 -18.4695 0.0689846
133.198 -18.3149 0.0678259
133.406 -18.2105 0.0605887
133.277 -17.8758 0.0623286
133.677 -17.6585 0.0487946
133.672 -17.581 0.0477177
133.604 -17.4136 0.0486006
132.958 -16.3005 0.0572285
134.041 -16.2037 0.0248984
134.675 -15.32 -0.00291125
134.682 -15.1684 -0.00407818
134.728 -15.0225 -0.00730925
134.771 -14.8752 -0.00955016
134.874 -14.8142 -0.013788
129.575 -11.107 -0.150827
129.589 -10.9737 -0.152763
129.619 -10.8416 -0.155739
129.617 -10.7069 -0.156634
129.629 -10.5742 -0.158552
129.666 -10.4422 -0.161554
129.685 -10.3096 -0.163499
129.701 -10.2433 -0.165496
129.755 -10.1127 -0.168541
129.751 -9.97775 -0.170433
129.758 -9.84328 -0.172357
129.934 -8.70794 -0.193049
130.017 -8.57552 -0.197227
130.143 -8.51075 -0.202601
130.254 -8.37823 -0.20888
130.34 -8.24413 -0.21409
130.42 -8.1103 -0.218278
130.46 -7.97459 -0.221341
130.545 -7.83935 -0.226564
130.614 -7.70282 -0.230747
130.678 -7.6353 -0.233936
130.797 -7.49784 -0.240314
130.88 -7.36133 -0.245548
130.968 -7.2234 -0.249818
131.041 -7.08449 -0.25505
131.143 -6.94559 -0.260386
131.23 -6.80555 -0.265683
131.27 -6.73559 -0.26782
131.34 -6.59611 -0.273046
131.447 -6.45495 -0.278433
131.485 -6.314 -0.281566
131.629 -6.17106 -0.289112
131.8 -6.02503 -0.297804
131.836 -5.88366 -0.300932
131.948 -5.80884 -0.306399
131.987 -5.66705 -0.309548
131.991 -5.52523 -0.312568
132.113 -5.37816 -0.319093
132.447 -4.93521 -0.337574
132.45 -4.79225 -0.339607
132.656 -4.70777 -0.348556
132.832 -4.55326 -0.357383
132.857 -4.40736 -0.360537
132.96 -4.25561 -0.367061
133.098 -4.10163 -0.37474
133.158 -3.9518 -0.37908
133.333 -3.79206 -0.387977
133.178 -3.73137 -0.383267
133.335 -3.57316 -0.391079
132.365 1.86829 -0.459446
132.359 2.01564 -0.461506
132.413 2.17549 -0.466964
132.457 2.48226 -0.475462
132.252 2.58655 -0.470185
132.021 2.68337 -0.46371
131.849 2.71819 -0.458573
131.623 2.81443 -0.453104
131.757 2.99302 -0.461122
97.4983 14.5144 0.190367
97.4572 14.5162 0.191491
72.5543 12.0615 0.315248
72.5397 11.9525 0.318842
124.501 -9.47108 -0.235405
124.527 -9.35359 -0.237161
124.529 -9.23665 -0.23882
124.55 -9.11945 -0.241553
124.555 -9.00208 -0.243232
124.554 -8.94325 -0.244058
124.541 -8.82431 -0.244694
124.532 -8.70678 -0.245321
124.526 -8.5887 -0.246967
124.513 -8.47075 -0.247589
124.553 -8.35428 -0.251382
126.715 -3.09896 -0.425581
126.936 -2.94791 -0.437524
127.096 -2.80331 -0.447154
127.293 -2.65196 -0.458017
127.678 -1.76287 -0.490991
127.692 -1.63069 -0.494914
128.051 -0.392477 -0.534729
128.054 -0.259571 -0.537618
128.105 -0.11753 -0.542815
128.138 0.0212837 -0.546895
128.178 0.161931 -0.551031
128.319 0.322384 -0.560816
128.46 0.416249 -0.568658
128.48 0.554787 -0.572689
128.468 0.687717 -0.574527
128.431 0.815289 -0.576194
128.516 0.967759 -0.582658
128.533 1.10672 -0.586685
128.535 1.24274 -0.589616
128.548 1.38128 -0.593621
128.567 1.45423 -0.595724
128.634 1.60515 -0.602103
128.639 1.74286 -0.605066
128.772 1.90956 -0.61391
99.4377 8.0543 0.288591
97.457 15.3337 -0.00808332
95.6014 13.8556 0.0996036
96.005 15.0778 0.0318463
81.9133 67.1251 -2.60253
83.0734 45.7721 -1.47985
115.415 -21.3384 0.194587
82.0452 67.1199 -3.04598
81.8772 63.0172 -2.80536
83.0939 44.3472 -1.71381
11.5587 -8.45059 -1.75405
117.959 -5.66941 -0.373233
104.382 3.87617 0.0555402
23.061 3.9485 -1.87736
30.3185 -12.261 -1.26874
32.8618 -16.7236 -1.11695
33.0334 -16.7814 -1.10875
106.987 -24.067 0.177964
116.185 -2.80432 -0.521256
116.266 -2.74434 -0.527402
110.35 9.43381 -0.632901
106.705 10.5534 -0.516387
102.767 7.44775 -0.175057
30.5034 -7.41154 -1.67799
36.0676 -9.66288 -1.35448
107.03 10.4864 -0.670643
106.834 10.5359 -0.663625
106.563 10.6274 -0.654927
95.417 0.370096 0.467916
82.0915 31.0852 -1.6167
108.72 2.10168 -0.525303
105.316 8.40083 -0.637898
105.195 8.39604 -0.631388
83.3747 66.3446 -4.80407
83.1415 66.3458 -4.80424
77.3373 -0.822585 0.443873
109.479 -10.3031 -0.38874
109.472 -10.2303 -0.388741
110.189 -1.04652 -0.626188
109.649 -11.1197 -0.39882
109.637 -11.0817 -0.398315
109.625 -11.0071 -0.397323
107.838 -8.60204 -0.411784
107.835 -8.53584 -0.411707
107.838 -8.50403 -0.412169
107.843 -8.43898 -0.413104
84.1561 59.6329 -5.01909
83.9477 59.5598 -5.0113
84.1847 45.3639 -3.97541
80.5409 40.1835 -3.47482
80.3884 40.177 -3.47517
93.1093 6.24202 -0.277718
84.7577 44.8578 -4.56942
80.7768 20.5794 -1.88644
81.17 39.3029 -4.25276
81.8358 30.6658 -3.22901
81.0254 37.6136 -4.35436
81.2109 37.5013 -4.61748
92.2159 -19.3154 -0.188223
85.3814 -19.458 -0.145216
93.6218 -14.634 -0.316543
84.3519 3.59855 -1.01842
91.1369 -14.5459 -0.425715
91.8336 -7.23025 -0.586675
47.9526 -3.64742 -13.6043
47.6997 -3.74784 -13.6939
89.651 -7.37651 0.196455
89.6472 -7.36786 0.197347
89.6483 -7.35996 0.196231
89.6811 -7.30729 0.181366
89.5527 -8.30105 0.193882
149.876 -14.818 -25.0153
149.885 -14.6192 -25.0121
149.935 -14.3244 -25.0244
149.938 -14.1248 -25.0203
86.1998 -5.89547 0.46417
86.1695 -5.91638 0.464576
86.1633 -5.91751 0.464615
86.1314 -5.8789 0.443184
86.3794 -6.22944 0.598248
86.4497 -6.24655 0.601233
86.444 -6.24377 0.598214
119.633 -11.1253 -13.7727
86.3796 -6.18482 0.54361
86.1561 -5.80418 0.337026
86.3859 -6.20477 0.552871
86.3767 -6.19846 0.548815
86.3441 -6.15073 0.522256
86.3169 -6.11481 0.500846
86.2729 -6.05446 0.46615
86.2694 -6.05798 0.467213
86.2822 -6.08888 0.482604
86.2771 -6.08917 0.481627
86.2966 -6.12906 0.502121
86.1837 -5.95767 0.406102
86.3128 -6.27092 0.563074
86.2971 -6.30992 0.574684
86.1758 -6.15446 0.48192
88.478 -8.67519 0.408122
125.233 -20.4052 -17.0733
125.27 -20.2843 -17.0742
125.282 -20.1554 -17.063
88.4484 -8.74718 0.377244
88.4008 -8.69237 0.410647
88.4124 -8.69614 0.404657
1.15033e-41 0 -1.24626e+20
