ply
format ascii 1.0
element vertex 402
property float x
property float y
property float z
end_header
182.528 -8.97425 3.77938
158.003 16.9258 3.28533
161.432 30.756 3.60604
161.716 33.4503 3.66547
142.792 19.5317 2.96998
100.97 38.7417 3.17877
98.0448 14.037 2.38087
97.971 14.0165 2.38126
97.9718 13.698 2.37026
96.8251 12.434 2.34625
78.7093 45.1247 3.69278
91.4247 11.8088 2.42824
95.1658 5.01806 2.14713
90.2909 10.7693 2.42415
74.9084 12.4306 2.90573
52.5718 15.2694 3.71828
42.3996 -25.0089 3.98553
61.1677 -31.2994 3.3646
82.174 -25.3776 2.54259
45.7024 -52.1539 4.2635
45.7654 -52.248 4.26318
76.5827 -37.7541 2.99103
72.1615 -42.4189 3.23111
170.413 -23.0683 3.47865
170.433 -22.8549 3.47753
170.409 -22.6321 3.47565
170.446 -22.4222 3.47445
170.468 -22.2102 3.47433
170.491 -21.9973 3.4732
170.537 -21.7897 3.47396
170.557 -21.6844 3.47385
170.6 -21.4765 3.47362
170.636 -21.2665 3.47342
169.767 -2.09907 3.00717
154.847 20.48 2.88853
161.339 31.5323 3.17049
103.424 12.852 2.14607
103.353 12.8623 2.14643
34.6497 -20.7346 3.80949
35.1133 -24.6867 3.81424
74.0839 -35.7425 2.76689
169.948 -22.9529 3.03705
169.974 -22.8506 3.03691
170 -22.6401 3.03577
170.044 -22.4324 3.03553
170.06 -22.2195 3.03543
170.093 -22.011 3.03526
170.13 -21.8021 3.03506
170.144 -21.5899 3.03398
170.175 -21.4873 3.03381
170.148 -21.2681 3.03194
170.505 -21.1143 3.03909
166.872 21.1253 2.79524
121.647 7.9143 2.00291
122.011 18.3945 2.19161
130.275 -24.9297 2.08452
170.812 25.5189 2.32766
166.917 25.6553 2.29682
159.978 30.3172 2.28057
121.998 17.8242 1.9307
122.109 18.1818 1.93611
121.914 18.0749 1.93412
101.863 46.8865 2.39381
101.774 46.9108 2.39428
44.1082 -17.6135 2.75038
130.245 -24.787 1.85167
157.721 -31.9956 2.13369
121.959 18.0166 1.76389
121.787 17.9429 1.76279
101.947 46.8448 2.10338
98.1681 30.9618 1.96657
130.189 -24.6141 1.69395
170.717 22.6547 1.41026
171.717 25.9465 1.41295
148.418 40.8508 1.503
78.3979 8.85567 1.75379
112.392 -25.305 1.53612
127.507 -27.5807 1.49495
130.675 -24.8868 1.48244
173.062 -34.2827 1.39734
169.33 -22.9596 1.39622
169.238 -22.7268 1.39569
169.2 -22.6121 1.39588
169.207 -22.4008 1.39584
169.23 -22.192 1.39571
169.273 -21.9871 1.39548
169.318 -21.7824 1.39524
169.383 -21.5818 1.39489
169.455 -21.3821 1.39451
169.692 -21.3178 1.39429
170.274 -21.2051 1.39226
175.603 12.7711 1.03434
173.96 28.0216 1.03525
158.975 30.5178 1.13074
109.16 10.1196 1.46347
78.9125 48.3991 1.55257
52.4481 14.5036 1.69993
130.754 -24.949 1.33703
141.527 -29.5827 1.26243
169.616 -22.9877 1.07874
169.349 -22.7201 1.08111
169.352 -22.5063 1.08109
169.304 -22.39 1.08133
169.316 -22.1796 1.08126
169.367 -21.9759 1.08099
169.386 -21.7664 1.08088
169.431 -21.5618 1.08064
170.104 -21.1459 1.07614
173.502 -17.9918 0.609419
170.861 -16.2907 0.645027
182.741 -9.13545 0.492234
175.92 12.5514 0.553702
175.525 12.6761 0.558743
158.217 15.342 0.768252
158.193 15.5376 0.767368
158.251 15.8768 0.766056
159.769 31.0277 0.685599
122.368 18.9123 1.15673
171.73 -23.0301 0.625789
169.785 -22.1103 0.652823
171.885 -21.8431 0.62594
174.534 -9.56789 0.164736
168.368 -6.73939 0.282554
156.081 3.64491 0.494765
142.824 6.82575 0.726282
142.858 6.98359 0.725104
155.254 26.831 0.370137
159.898 33.6807 0.236821
148.247 41.6835 0.338833
148.314 42.0881 0.333474
122.002 18.4524 0.957641
153.893 -16.4454 0.203877
153.837 -16.1188 0.206155
161.469 -7.64445 0.0133045
161.102 -7.11659 0.0231855
161.304 -6.92683 0.017134
158.759 2.3727 0.0579458
147.165 3.62098 0.345931
143.791 6.69801 0.408281
148.913 16.561 0.193367
145.418 28.1113 0.127014
145.245 28.0739 0.130907
145.06 28.1434 0.133862
144.727 28.3136 0.137583
144.695 28.5235 0.13574
144.56 28.6383 0.136434
135.246 25.8035 0.36377
122.217 18.5854 0.718518
102.877 42.3288 0.433719
101.702 41.0942 0.465853
101.545 41.0233 0.467669
101.467 40.9933 0.468074
63.5306 11.8492 0.771637
47.4914 -18.0112 0.61985
140.752 -24.1292 0.500222
152.417 -19.1478 0.232628
147.451 -15.6233 0.147199
147.502 -15.4902 0.145931
147.765 -15.1741 0.139554
147.846 -15.0445 0.137131
147.933 -14.9137 0.134676
148.038 -14.7855 0.132129
148.108 -14.6523 0.129761
148.155 -14.5167 0.129511
148.194 -14.3799 0.128303
148.257 -14.3164 0.126975
148.29 -13.6148 0.126776
148.343 -13.4779 0.125499
148.406 -13.4134 0.12417
148.477 -13.2773 0.121795
148.443 -13.1338 0.122968
148.523 -12.999 0.121546
148.57 -12.8615 0.120295
148.63 -12.7237 0.117981
148.63 -12.5821 0.118978
148.694 -12.5157 0.116643
148.716 -12.3755 0.11652
148.745 -12.2352 0.115366
148.74 -12.094 0.115384
148.78 -11.9543 0.115174
148.777 -11.8123 0.115186
148.605 -11.6639 0.121067
148.716 -11.5973 0.11749
148.946 -11.4652 0.110296
149.196 -11.332 0.102997
150.621 -10.2797 0.0585745
150.833 -10.1348 0.0524751
154.838 -6.5611 -0.0754038
154.172 -6.52217 -0.0549604
153.823 -6.07074 -0.0451702
153.865 -5.91009 -0.0463925
153.737 -5.76198 -0.0427363
153.628 -5.61252 -0.0401754
153.541 -5.5412 -0.03773
153.474 -5.38992 -0.0353903
144.53 -2.85143 0.233823
148.791 3.52786 0.0655107
103.026 41.2567 0.194987
102.869 41.0755 0.200807
102.715 40.7928 0.208613
102.551 41.0362 0.203455
102.416 40.1787 0.226186
132.131 -22.0032 0.569774
143.055 -21.8998 0.24721
144.415 -21.0058 0.213128
144.373 -20.9258 0.214347
144.401 -20.7965 0.214197
144.458 -20.6745 0.213895
144.568 -20.5673 0.211323
145.346 -19.5949 0.193255
141.748 -14.7347 0.10069
142.218 -13.5746 0.0872103
142.252 -13.4562 0.0860322
142.303 -13.3395 0.084761
142.354 -13.2216 0.0834942
143.292 -10.6323 0.0525339
143.419 -10.5115 0.0488722
143.612 -10.3901 0.0408701
143.753 -10.33 0.0361366
143.905 -10.2066 0.0303475
144.046 -10.0819 0.0256096
144.146 -9.95608 0.0210853
144.25 -9.83074 0.0175457
144.361 -9.70359 0.0139628
144.471 -9.57614 0.00939018
144.577 -9.51191 0.00583655
144.7 -9.38239 0.00119427
144.841 -9.25237 -0.00453739
145.001 -9.12229 -0.0103738
145.167 -8.98996 -0.0162381
145.277 -8.85743 -0.0208097
145.404 -8.72454 -0.0254756
145.508 -8.6569 -0.0290162
145.652 -8.52138 -0.034768
145.788 -8.38569 -0.040478
145.958 -8.24885 -0.0463616
146.151 -8.10842 -0.0543685
146.3 -7.96953 -0.0601438
146.434 -7.83044 -0.064841
146.552 -7.7579 -0.0694587
146.667 -7.61803 -0.074057
146.775 -7.47729 -0.0776246
146.936 -7.33306 -0.0844618
147.076 -7.18989 -0.0901935
147.216 -7.0446 -0.0949217
147.373 -6.89782 -0.10174
147.552 -6.81801 -0.107672
147.68 -6.67097 -0.113339
147.792 -6.52473 -0.117927
147.921 -6.37586 -0.1226
147.979 -6.23168 -0.124904
148.037 -6.08765 -0.128212
142.796 17.2232 -0.197989
102.75 40.2629 -0.0745515
62.9667 -19.1239 0.390765
128.49 -26.4602 0.438802
128.52 -26.3665 0.439644
128.573 -26.2905 0.439363
128.99 -25.9453 0.432193
129.091 -25.8984 0.429669
129.177 -25.8423 0.428221
129.283 -25.7973 0.425667
129.393 -25.7547 0.4231
129.489 -25.7031 0.420598
129.548 -25.6836 0.419289
138.097 -21.3762 0.184859
138.24 -21.3041 0.180116
138.253 -21.1878 0.181044
138.091 -21.0145 0.188873
138.767 -20.3314 0.171345
138.808 -20.2242 0.171129
138.871 -20.1232 0.169802
138.962 -20.0305 0.167326
139.042 -19.9937 0.164909
139.211 -19.1432 0.166
140.025 -18.2124 0.143751
140.072 -18.1031 0.142501
140.205 -18.0145 0.138808
140.346 -17.8654 0.134072
140.311 -17.7369 0.136252
140.498 -17.6582 0.130278
140.545 -17.5468 0.129032
140.635 -17.4459 0.126559
140.677 -17.3944 0.12534
140.758 -17.2901 0.122917
140.848 -17.188 0.120448
140.88 -17.0725 0.120278
140.998 -16.9756 0.116661
141.136 -16.5773 0.113935
141.238 -16.474 0.110403
141.304 -16.3645 0.109054
141.389 -16.2587 0.105608
141.371 -16.1338 0.107697
141.385 -16.0145 0.107623
151.182 17.3525 -0.828424
151.103 17.5055 -0.828022
150.491 18.2371 -0.818881
150.753 18.594 -0.835248
150.59 18.6967 -0.831409
150.39 19.2817 -0.835401
145.018 17.3034 -0.592503
143.607 17.099 -0.535187
143.421 17.0646 -0.527223
143.196 17.0934 -0.520063
80.242 39.9735 -0.478006
80.1058 39.8581 -0.475297
66.5683 -19.4328 0.230128
125.743 -22.2876 0.43286
133.442 -20.7736 0.148937
133.494 -20.6862 0.147663
135.422 -17.5346 0.102554
135.444 -17.4873 0.101438
135.512 -17.3992 0.0990852
135.561 -17.3053 0.0978272
147.039 14.7247 -0.911868
146.172 15.7512 -0.897423
146.083 15.8776 -0.895964
146.031 16.0277 -0.897702
145.939 16.1543 -0.896233
145.851 16.2825 -0.895781
145.777 16.3277 -0.893398
145.624 16.4148 -0.889609
145.751 16.6771 -0.901279
144.825 17.2799 -0.875507
144.777 17.4325 -0.877262
145.247 17.9306 -0.909716
124.133 6.62165 0.256063
103.563 39.9159 -0.685751
103.408 39.6566 -0.673942
96.0054 8.7152 0.671617
81.5852 29.8295 -0.382562
122.612 -24.8577 0.349168
122.9 -24.6482 0.343672
137.551 9.86584 -0.61255
137.605 10.0399 -0.619835
140.589 12.804 -0.835399
140.569 12.9515 -0.838302
140.544 13.2543 -0.845183
140.574 13.3541 -0.849341
140.622 13.5461 -0.856599
140.673 13.7398 -0.863868
140.721 13.9338 -0.871128
132.019 -6.4591 -0.231264
134.021 9.37663 -0.657257
134.151 9.59111 -0.669935
133.718 9.44945 -0.642688
103.532 46.3203 -1.64686
59.2873 -14.3981 -0.780385
103.504 46.2777 -1.94272
103.377 41.0865 -1.62085
130.023 5.67447 -0.707409
130.038 5.7389 -0.710492
130.043 5.85245 -0.71452
130.009 5.94435 -0.716347
129.983 6.04104 -0.71722
129.926 6.11719 -0.716925
129.861 6.19041 -0.715591
129.822 6.27894 -0.715395
129.831 6.34127 -0.718444
120.092 1.93703 0.0581634
103.704 46.2915 -2.33376
103.528 46.3265 -2.33484
103.234 41.1365 -1.97611
125.67 3.16538 -0.629773
90.178 8.94319 -0.264232
110.687 -23.0983 0.186844
129.508 -24.6733 -1.17256
79.4579 11.5965 -1.32885
111.921 3.39261 -0.0365894
107.474 3.90225 0.116419
117.245 -14.8526 -0.0544384
119.53 -4.11988 -0.413696
119.549 -4.08531 -0.417797
116.849 0.712195 -0.400002
110.218 8.8064 -0.686993
99.6877 8.2967 -0.508447
109.962 7.50994 -0.652613
109.908 7.52697 -0.652333
100.402 -21.4794 0.097029
113.473 1.00802 -0.477534
109.153 5.24832 -0.650337
95.4159 3.465 -0.832145
112.259 -4.67906 -0.416027
106.379 -9.57931 0.38862
106.378 -9.57209 0.388625
102.586 -11.0261 0.687322
121.135 -14.2141 -6.21569
121.149 -14.1595 -6.21576
121.165 -14.1053 -6.21685
121.147 -14.043 -6.20276
121.189 -13.8794 -6.20298
121.214 -13.8567 -6.21111
121.197 -13.7945 -6.19802
121.198 -13.7371 -6.19303
103.084 -8.43395 0.813639
103.15 -8.44565 0.812297
103.161 -8.47341 0.825246
103.098 -8.41873 0.77457
103.09 -8.41559 0.770609
103.051 -8.53113 0.806816
105.154 -10.9763 0.558018
0 0 1.15033e-41
