ply
format ascii 1.0
element vertex 411
property float x
property float y
property float z
end_header
156.978 -5.40207 3.20733
172.933 14.9697 3.72142
172.212 16.2695 3.70939
164.49 17.2295 3.50116
164.103 17.3115 3.49125
163.887 17.4612 3.4864
136.307 6.93738 2.63848
162.518 30.687 3.59614
148.302 41.6327 3.45921
148.369 42.0221 3.46823
148.422 42.3986 3.47638
104.057 13.8697 2.15102
103.972 13.8251 2.14954
103.893 13.809 2.14891
103.852 13.7896 2.14815
103.771 13.7577 2.14659
103.694 13.7523 2.14691
103.624 13.7713 2.14709
105.938 51.6435 3.24916
104.937 47.5779 3.13087
102.337 38.4761 2.86683
102.164 38.1409 2.85696
102.021 38.2227 2.85914
101.876 38.2917 2.86138
100.907 38.2693 2.86312
97.3777 15.1128 2.19663
89.7033 29.3597 2.67955
91.3187 22.0866 2.4536
91.1674 22.2736 2.46134
80.3139 46.2516 3.27824
80.4644 45.5242 3.25589
80.33 45.3594 3.25312
80.0548 45.5984 3.2641
79.863 45.5993 3.26681
91.5667 10.7696 2.13464
80.4916 20.7254 2.60229
80.4652 20.5605 2.59812
79.9586 16.8171 2.52155
79.9418 16.67 2.51927
78.5442 11.9327 2.45344
78.4293 11.9843 2.45764
74.9392 12.0271 2.55757
74.9197 11.9107 2.55615
66.1021 13.8988 2.85751
65.982 13.828 2.86027
62.224 12.1341 2.95887
61.8243 12.2857 2.9737
61.3768 12.3844 2.98995
55.4999 15.3642 3.22187
57.0796 12.8608 3.13899
52.6783 15.0639 3.3128
52.0789 14.4458 3.32578
50.7804 14.8115 3.37405
50.0575 14.9765 3.40004
42.702 16.0992 3.66472
41.479 16.3199 3.70934
40.7133 15.2477 3.72595
37.2305 13.3432 3.83445
28.6666 15.0754 4.15098
28.5461 14.131 4.1496
25.959 13.5895 4.23971
30.3058 -2.4113 4.04204
30.0697 -6.84995 4.06053
20.4063 -7.65856 4.42642
27.7531 -9.2416 4.1568
27.8043 -9.46498 4.1566
28.0921 -9.68652 4.14649
26.4655 -10.9559 4.21421
44.3457 -10.6497 3.54067
43.2131 -11.2103 3.5864
49.3744 -11.3589 3.35591
49.5119 -11.6642 3.35274
52.4976 -12.0175 3.24308
55.4636 -13.2728 3.14048
47.2624 -14.239 3.45556
55.2223 -13.9224 3.15525
54.1387 -14.4728 3.19976
52.4756 -15.4926 3.27051
43.5228 -19.2447 3.64072
43.5744 -19.4157 3.64028
40.8998 -20.3901 3.74964
41.393 -20.8589 3.73685
43.6786 -20.5706 3.64899
28.2733 -24.8338 4.26571
54.419 -19.4308 3.2406
54.5555 -19.4723 3.23627
35.2594 -25.6052 4.01886
54.5549 -20.7336 3.25184
54.5822 -20.8758 3.25337
35.7739 -26.1093 4.00716
35.8065 -26.3139 4.00894
54.7813 -23.3167 3.2794
55.1891 -23.4896 3.26763
67.2717 -19.7212 2.77759
68.5835 -21.0138 2.75137
74.3413 -25.4517 2.64633
80.7154 -21.8383 2.35942
81.8182 -30.6244 2.57208
81.9941 -30.4726 2.56275
82.357 -31.0632 2.572
78.7268 -37.2252 2.85385
76.265 -41.8308 3.05845
75.6117 -43.0016 3.11107
69.5049 -53.0451 3.57538
77.0536 -43.5106 3.0959
121.194 -26.3675 2.42335
121.591 -26.3933 2.43297
163.126 -22.2138 3.50848
163.15 -22.0081 3.50648
163.192 -21.807 3.50543
163.215 -21.6021 3.50444
163.25 -21.4 3.50342
163.284 -21.1969 3.50139
163.278 -21.091 3.49995
163.318 -20.8895 3.49991
155.501 -4.49015 2.80184
136.447 -1.08689 2.35339
175.716 11.6924 3.28044
169.648 16.6477 3.16335
162.138 17.9315 3.00689
153.915 25.3257 2.89912
122.247 6.08054 2.08508
148.307 41.1904 3.00413
148.363 41.5643 3.01027
148.427 41.9501 3.01733
148.49 42.3371 3.02438
102.108 38.9019 2.5748
101.984 39.3427 2.58433
80.9805 46.1887 2.89801
79.941 46.1227 2.9092
74.9427 11.9064 2.35308
67.285 -19.7009 2.56444
167.85 -33.1916 3.33021
162.619 -22.2965 3.08174
162.616 -22.1922 3.08129
162.638 -21.9882 3.07931
162.672 -21.7871 3.07829
162.694 -21.5831 3.07731
162.71 -21.3793 3.07535
162.758 -21.1811 3.07429
162.77 -20.9757 3.07334
163.016 -20.2945 3.07241
174.053 -4.59942 2.88763
175.74 11.6407 2.90757
170.982 16.4351 2.83327
153.907 25.0163 2.59152
121.949 6.02919 1.94943
120.407 7.28853 1.93766
148.264 41.5433 2.67673
148.4 41.8432 2.6819
148.489 42.2549 2.68775
148.518 42.6104 2.69207
105.547 20.4048 2.00956
102.038 39.3511 2.35608
142.729 -29.8125 2.50665
174.575 -33.8946 3.11504
173.119 14.9362 2.27685
161.072 26.2529 2.17413
149.88 34.9854 2.11461
149.634 35.0515 2.11324
120.097 11.739 1.75617
148.287 41.197 2.14017
148.33 41.5576 2.14241
148.392 41.9407 2.14549
148.437 42.309 2.14869
103.793 46.2983 2.0598
102.935 46.5207 2.06404
81.3614 48.9462 2.20939
129.548 -27.909 1.99176
170.102 -33.5913 2.4625
173.036 -33.8274 2.49552
174.535 -34.0667 2.51394
167.289 -23.1458 2.34293
174.653 14.1557 1.88853
149.502 35.0978 1.76953
148.493 42.2356 1.7838
148.534 42.6026 1.78502
102.988 41.6275 1.75145
102.84 41.8039 1.75222
99.1491 17.4802 1.62651
98.8553 17.8026 1.62919
98.0092 16.8264 1.62768
154.564 -14.1206 1.46587
175.687 12.4293 1.34426
174.744 15.5409 1.33406
174.761 15.8102 1.3328
174.791 16.0838 1.33148
174.816 16.3569 1.33118
148.518 42.1711 1.28798
148.587 42.5654 1.28698
101.439 34.8337 1.41127
101.076 30.5473 1.41856
51.0225 13.4612 1.72407
50.461 13.5396 1.72784
108.692 -24.8415 1.56756
169.567 -33.7059 1.555
174.346 -34.4526 1.55534
162.24 -21.6256 1.49718
162.132 -21.3982 1.49658
162.208 -21.2071 1.49545
162.33 -21.0243 1.49418
162.357 -20.8242 1.4932
162.376 -20.7249 1.49269
174.736 15.9795 0.957142
172.267 22.9531 0.935622
172.014 23.1161 0.935852
171.805 23.2973 0.935839
166.012 25.7802 0.953636
148.551 35.3405 0.990017
148.195 35.3 0.992534
148.411 41.7887 0.956066
148.463 42.1641 0.953212
148.526 42.553 0.951257
101.036 35.1472 1.20439
99.353 16.2874 1.32301
97.7438 14.4427 1.3402
162.185 -21.8991 1.19559
161.994 -21.5519 1.19477
162.037 -21.355 1.19374
162.023 -21.147 1.19287
162.196 -20.7685 1.19055
162.147 -20.5546 1.18979
162.281 -20.4766 1.18894
162.66 -20.3383 1.18591
163.184 -20.2235 1.18343
171.505 -17.2048 0.66383
172.786 -16.6468 0.646553
145.065 29.3724 0.659467
149.142 34.952 0.566509
148.886 35.0064 0.56823
148.132 35.1715 0.574331
122.888 15.8075 1.0037
102.4 41.7334 0.837173
102.083 39.2726 0.868231
100.066 31.8889 0.967423
98.7135 32.1195 0.969484
82.2921 45.1326 0.851709
162.173 -31.9314 0.808928
162.469 -31.8136 0.805298
166.05 -28.5593 0.758471
166.255 -28.3894 0.755951
162.238 -22.3783 0.787495
162.541 -20.371 0.777491
163.193 -20.2793 0.769639
143.453 20.0551 0.434667
149.14 35.0279 0.156172
122.365 12.057 0.852225
122.806 15.7293 0.794351
122.718 15.7145 0.795747
103.091 10.852 1.08696
99.5017 35.0415 0.660614
98.9568 31.1386 0.733898
95.7754 13.3493 1.07042
79.9685 68.5656 0.0829387
149.146 -29.4249 0.617798
149.36 -29.3279 0.614567
151.667 -28.3587 0.575617
152.947 -25.9916 0.554357
153.186 -25.5074 0.55032
154.357 -25.3893 0.530399
158.75 -7.01292 -0.0122704
158.009 -6.01727 0.00111591
147.902 3.8911 0.173333
146.299 16.5308 0.0565318
152.839 26.6269 -0.239632
35.2879 15.0775 0.178025
30.0451 -16.2921 0.311262
127.917 -24.6403 0.746432
138.362 -27.3485 0.497142
138.515 -27.3438 0.493549
138.699 -27.2789 0.489572
162.233 -22.2788 -0.0589409
162.448 -20.5649 -0.0653147
150.743 -5.70483 -0.086966
125.285 5.17145 0.533657
122.201 8.18023 0.557956
91.147 23.7726 0.478766
153.267 18.3466 -0.796679
124.575 8.08567 0.317452
79.265 55.9921 -0.914907
126.423 -26.0183 0.414124
127.362 -25.5696 0.389614
135.885 -20.4592 0.150018
135.926 -20.0286 0.150964
124.543 8.13056 0.115369
103.559 10.3673 0.601338
81.8914 45.5876 -0.910825
82.8474 38.589 -0.615504
137.055 8.15872 -0.602776
136.501 9.49353 -0.609587
136.627 9.70381 -0.620992
99.2516 11.5274 0.466395
129.707 -8.06515 -0.188513
129.728 -7.96811 -0.19002
131.659 3.66392 -0.464648
131.622 3.7681 -0.46497
132.167 5.0158 -0.521529
132.246 5.11163 -0.52825
132.335 5.27279 -0.536294
132.245 5.35824 -0.534333
132.305 5.5082 -0.541223
132.378 5.66553 -0.548192
132.187 5.70575 -0.539651
132.207 5.83926 -0.544315
132.221 5.90899 -0.546675
132.316 6.07822 -0.555782
132.288 6.19132 -0.557175
132.629 7.31646 -0.602425
103.599 10.4083 0.239
126.891 -2.29493 -0.436419
127.034 -1.74568 -0.456384
127.05 -1.64696 -0.45988
127.069 -1.54767 -0.46239
127.082 -1.44952 -0.465872
127.098 -1.3508 -0.468368
127.123 -1.29576 -0.471705
127.126 -1.20016 -0.473136
127.224 -0.644604 -0.491961
127.234 -0.545039 -0.494438
127.271 -0.437104 -0.499052
127.27 -0.340099 -0.501479
127.711 2.75013 -0.606785
127.735 2.86596 -0.612384
127.773 2.93529 -0.615834
127.774 3.0412 -0.619305
127.793 3.15562 -0.623882
127.8 3.26564 -0.627396
127.774 3.36134 -0.628718
97.6298 10.9938 0.145839
97.5617 11.0549 0.141825
88.2987 11.9756 -0.0404424
123.417 -4.96012 -0.340594
123.453 -4.87537 -0.344105
123.484 -4.83023 -0.347419
124.751 1.63897 -0.589753
124.754 1.73541 -0.593193
124.785 1.79568 -0.596574
124.787 1.89226 -0.60001
117.58 5.15162 -0.26932
103.82 10.39 -0.00975282
88.5058 10.528 -0.104828
88.6557 9.95954 -0.0628808
114.196 -22.0147 0.0983739
78.3107 9.65702 -0.590687
116.593 -13.2481 -0.130352
102.449 9.46523 -0.355523
101.593 -23.8463 0.144812
111.581 6.33603 -0.597017
103.573 8.81091 -0.436858
103.803 9.96951 -0.558842
110.698 5.61852 -0.596534
110.3 4.88699 -0.623806
110.254 4.91974 -0.623779
110.238 4.94517 -0.624832
110.209 4.99886 -0.626958
101.727 7.66588 -0.492868
101.437 7.5161 -0.470117
113.154 -15.2559 -0.269568
113.156 -15.2036 -0.266804
113.169 -15.1034 -0.264296
108.855 -18.7071 -0.139171
108.76 -18.5543 -0.119491
109.324 3.55246 -0.625247
109.255 3.54815 -0.618968
102.998 -20.5788 -0.0558995
111.19 -13.3346 -0.208673
97.5127 -19.2268 0.0147398
96.2205 3.4567 -0.685594
107.665 -13.391 -0.155177
105.171 -16.7514 -0.25697
108.548 -7.3168 -0.368324
108.544 -7.28697 -0.368441
108.536 -7.25657 -0.368546
101.638 -17.7221 -0.25241
101.658 -17.6915 -0.247618
101.667 -17.6696 -0.24475
101.558 -8.94017 0.35412
101.583 -8.93169 0.343987
98.117 -7.49555 0.642671
98.0602 -7.4755 0.622796
98.0641 -7.49116 0.629851
97.8288 -10.3543 0.66538
120.803 -14.1265 -8.11042
120.829 -14.0606 -8.11581
120.833 -14.0258 -8.11398
120.843 -13.9555 -8.11233
120.864 -13.8877 -8.11471
120.901 -13.8244 -8.12513
98.274 -7.79494 0.755406
98.3281 -7.76935 0.737089
98.359 -7.83719 0.770273
98.3442 -7.81999 0.761253
98.1336 -7.50532 0.571651
98.2899 -7.77417 0.714254
98.2914 -7.78546 0.719298
98.2822 -7.77913 0.714305
98.2532 -7.7408 0.692244
98.2199 -7.69683 0.668174
98.1917 -7.66062 0.64712
98.1836 -7.65344 0.642119
98.1785 -7.65373 0.641139
98.2005 -7.69815 0.663253
98.1919 -7.69492 0.660271
98.0597 -7.499 0.551901
98.2285 -7.86637 0.735892
98.1776 -7.86127 0.72106
97.8795 -10.3517 0.604177
100.331 -10.2927 0.542706
100.325 -10.2787 0.548667
100.248 -10.1958 0.601591
-0.538468 97.6178 1.15033e-41
