ply
format ascii 1.0
element vertex 414
property float x
property float y
property float z
end_header
185.817 -9.20726 3.8863
185.553 -8.33389 3.88494
185.789 -7.32447 3.89914
185.473 -6.83475 3.89262
185.522 -5.2028 3.90755
167.209 19.2324 3.74192
162.011 20.075 3.62685
136.774 9.53769 2.75934
141.623 24.4181 3.27176
148.081 40.6894 3.8955
115.738 8.99747 2.33984
98.6391 33.2645 3.32867
96.6158 32.848 3.3343
94.2906 41.9639 3.71959
94.2674 41.6874 3.70897
96.3513 31.8459 3.29828
96.5927 30.2113 3.23101
96.5281 29.9216 3.2205
98.3225 16.006 2.6548
58.0581 -38.5011 3.46846
58.1358 -38.5568 3.46676
58.1487 -38.7528 3.46849
52.592 -42.3348 3.69455
52.6509 -42.5273 3.69508
42.6683 -50.1542 4.11618
42.6936 -50.4176 4.11842
42.6642 -50.7165 4.1227
50.3877 -47.6168 3.83076
50.4418 -47.8349 3.83216
82.2563 -31.9057 2.60615
81.9442 -32.2655 2.62134
64.7599 -52.6038 3.46924
179.928 -36.736 3.70099
180.514 -36.1566 3.71393
181.309 -36.1685 3.73623
174.125 -23.4211 3.50021
174.188 -23.211 3.50223
174.151 -22.6487 3.5009
174.218 -22.4392 3.5029
174.241 -22.2212 3.50315
174.285 -22.0083 3.50527
174.376 -21.8023 3.50714
185.286 -4.44703 3.40231
172.64 16.2385 3.37254
169.002 17.3635 3.31512
163.222 20.4067 3.25338
155.128 16.3191 3.01585
154.912 16.4031 3.01335
162.466 22.2036 3.274
97.7064 29.1492 2.92232
96.9054 31.0483 2.99378
97.1847 29.1818 2.9289
97.0751 29.0957 2.92687
90.9007 11.6806 2.47073
40.3171 15.5849 3.93559
166.847 -33.0749 2.91235
167.377 -33.0542 2.92407
173.61 -23.6284 3.04726
173.672 -23.4192 3.04928
173.716 -23.2063 3.0504
173.755 -22.9937 3.05155
173.776 -22.7765 3.0518
173.786 -22.6678 3.05243
173.824 -22.4541 3.05359
173.857 -22.2395 3.05477
173.873 -22.0226 3.05505
173.898 -21.807 3.05627
173.987 -21.6016 3.05814
121.734 19.8718 2.42612
121.647 19.935 2.42691
97.3441 28.7089 2.72523
177.317 -34.1926 2.78468
180.964 -34.7722 2.84746
175.795 19.5535 2.56175
162.627 21.6187 2.4676
149.549 22.1113 2.36727
123.24 11.2434 2.0126
121.824 19.8389 2.1695
118.073 13.1771 2.02917
96.1642 35.0474 2.56701
156.529 -31.7311 2.0147
181.147 -35.0118 2.25011
180.755 17.7369 2.17984
180.65 17.9655 2.18074
140.804 24.2299 2.08929
97.3301 38.8784 2.38551
150.45 3.75428 1.57101
150.469 3.91318 1.57191
178.264 18.5649 1.63432
170.589 23.9081 1.68752
150.25 22.4847 1.71438
120.983 18.448 1.75067
120.891 18.4897 1.75135
94.7148 39.9932 2.06435
132.414 -25.1767 1.42235
166.062 -32.899 1.32798
173.047 -23.4178 1.36809
172.93 -22.9571 1.37048
172.94 -22.7402 1.37179
172.97 -22.5273 1.37298
172.979 -22.4205 1.3736
173.225 -22.029 1.37491
173.729 -21.68 1.37678
173.326 2.06691 1.20225
176.108 14.2499 1.25631
176.138 14.5073 1.25778
143.56 24.8811 1.50676
121.898 6.53232 1.53542
121.491 19.1599 1.59978
121.281 19.2048 1.60101
120.995 18.8796 1.6013
101.08 38.3298 1.78799
100.913 38.4654 1.78959
100.733 38.712 1.79195
98.8476 47.7625 1.84181
99.7601 39.6733 1.80036
97.8705 29.6663 1.76176
174.848 -32.5542 0.974066
179.923 -31.7913 0.948678
173.42 -23.4592 1.04312
172.996 -22.5001 1.05201
173.599 -21.6239 1.05371
171.498 -16.2777 0.682516
170.239 -5.51878 0.766143
171.445 23.6787 0.870175
167.432 25.6339 0.92062
121.479 19.0285 1.39001
121.349 19.3374 1.39152
120.934 18.7694 1.39488
100.067 42.1225 1.47818
99.7378 39.4287 1.48293
162.319 -29.5848 0.69062
164.553 -29.0281 0.6689
164.876 -28.9286 0.665047
173.532 -22.6556 0.610592
175.59 -22.5897 0.585622
175.573 -22.473 0.587427
175.588 -22.2498 0.588744
167.124 -17.8482 0.346678
158.781 -13.7575 0.532142
158.46 -13.5682 0.539782
159.101 -13.5283 0.528106
178.271 -10.1318 0.194841
177.735 -9.9052 0.206693
148.934 45.4265 0.704972
149.022 45.9029 0.701534
121.487 18.9426 1.18843
121.062 18.582 1.19513
121.035 18.6395 1.19561
120.974 18.7413 1.19552
74.179 9.17656 1.28434
74.1967 9.09717 1.28476
52.558 -11.7659 1.02367
27.1786 -15.8564 0.755905
117.609 -26.0873 1.10715
156.789 -12.7641 0.221384
165.585 -8.18411 0.0267634
164.598 -8.02825 0.0532303
163.916 -7.41247 0.0731686
149.06 45.4887 0.214772
149.13 45.9404 0.208261
121.062 18.7995 0.967471
121.089 19.0686 0.964025
106.7 -24.5505 1.13943
142.73 -23.6114 0.464034
142.816 -23.5776 0.461849
153.115 -19.431 0.255682
154.934 -17.4132 0.229936
155.209 -17.2965 0.224409
148.874 -16.1957 0.172124
148.998 -16.0753 0.170309
148.899 -15.9234 0.174705
148.976 -15.7962 0.173144
149.089 -15.7429 0.169961
149.198 -15.6183 0.168238
149.279 -15.4907 0.166661
149.431 -15.3713 0.163711
149.521 -15.243 0.162097
149.651 -15.1194 0.159277
149.782 -14.995 0.156451
149.884 -14.6571 0.156088
149.762 -14.5041 0.161592
149.9 -14.3786 0.157745
150.016 -14.2509 0.156012
150.129 -14.1208 0.153306
150.188 -14.0568 0.152431
150.213 -13.9188 0.152178
150.273 -13.7831 0.151748
150.291 -13.6443 0.152528
150.362 -13.5101 0.152038
150.424 -13.3737 0.150602
150.469 -13.2366 0.150253
150.554 -13.1722 0.148265
150.603 -13.0349 0.147894
150.651 -12.8963 0.147539
150.722 -12.7602 0.14706
150.727 -12.6183 0.147921
150.76 -12.4787 0.147636
150.796 -12.3394 0.147341
150.828 -12.2703 0.146623
150.838 -12.1293 0.147452
150.753 -11.9846 0.151739
150.78 -11.8439 0.151493
151.095 -11.715 0.142859
151.37 -11.5822 0.135431
151.633 -11.4477 0.128068
152.849 -10.6749 0.0963289
153.005 -10.5288 0.0925274
153.221 -10.4573 0.086985
154.572 -9.55246 0.0504541
155.574 -8.84044 0.0243129
156.75 -6.00942 0.00255008
156.706 -5.85246 0.00372559
152.764 2.17774 0.138621
150.847 4.04665 0.193979
142.655 30.6131 0.196482
148.884 44.8301 -0.131533
149.043 45.2112 -0.140886
149.114 45.6626 -0.148407
149.18 46.11 -0.156923
121.168 19.0014 0.796241
120.989 18.8809 0.801309
75.3915 45.2284 0.376918
81.3657 33.7791 0.615516
89.8152 13.9318 1.00963
89.4496 14.3076 1.00063
31.9698 -16.4209 -0.0984663
141.222 -22.2286 0.3275
145.986 -20.0355 0.216415
148.928 -16.3409 0.168976
145.116 -11.2472 0.0960137
145.067 -11.1228 0.0990134
145.201 -11.0644 0.094766
145.548 -10.825 0.0836725
145.77 -10.7048 0.0764047
145.959 -10.5827 0.0703044
146.108 -10.4589 0.0653928
146.285 -10.3341 0.0603626
146.411 -10.2716 0.0561751
146.515 -10.1452 0.0524903
146.667 -10.0178 0.0475899
146.837 -9.88895 0.0426142
146.998 -9.75984 0.0376816
147.205 -9.6293 0.0305496
147.35 -9.49774 0.026709
147.505 -9.36578 0.0208198
147.667 -9.29734 0.0155089
147.842 -9.16318 0.0105445
148.001 -9.0277 0.00466112
148.172 -8.89084 -0.000265273
148.4 -8.75229 -0.00844471
148.359 -8.61995 -0.00543359
148.687 -8.47474 -0.0170276
148.891 -8.40033 -0.0244942
149.042 -8.25861 -0.0293014
149.15 -8.11875 -0.0319256
149.272 -7.97681 -0.035598
149.419 -7.83352 -0.0403783
149.549 -7.68975 -0.0450775
149.692 -7.54376 -0.0498196
149.822 -7.46774 -0.053941
150.023 -7.3171 -0.0609198
150.184 -7.16777 -0.0657262
150.367 -7.01651 -0.0716188
150.521 -6.86518 -0.0763819
150.666 -6.71354 -0.0811019
150.308 -5.47486 -0.0637643
150.323 -5.33164 -0.0639461
150.486 3.99363 -0.0727135
135.906 27.9929 0.0899455
148.925 44.8001 -0.545917
149.006 45.2593 -0.556432
149.18 45.6615 -0.567724
149.251 46.1151 -0.578229
117.046 6.46285 0.955081
100.452 34.7738 0.399704
76.1301 44.7902 0.0208165
90.5261 12.8587 0.870711
138.722 -21.3632 0.206271
139.008 -20.9977 0.202237
138.995 -20.8786 0.205036
140.481 -19.0637 0.180549
140.514 -19.014 0.179705
140.537 -18.9042 0.180283
140.603 -18.8047 0.179601
140.664 -18.7045 0.178945
140.746 -18.6082 0.177171
141.329 -18.3414 0.160174
141.703 -18.311 0.147657
141.72 -17.9598 0.151764
141.86 -17.8135 0.148033
141.928 -17.7092 0.147373
142.014 -17.6096 0.145599
142.092 -17.5077 0.143879
142.146 -17.4003 0.1433
142.232 -17.2988 0.141537
142.283 -17.1899 0.140985
142.345 -17.0837 0.140362
142.392 -17.0331 0.139459
142.571 -16.949 0.133166
142.74 -16.6219 0.13143
142.785 -16.5102 0.130921
142.84 -16.4 0.130353
142.849 -16.3416 0.130677
144.456 27.4851 -0.476193
100.686 37.4998 0.0165749
100.53 37.5427 0.0155498
100.419 35.3443 0.08639
77.3662 43.5781 -0.336364
81.5089 33.0097 0.0120614
78.829 31.5824 0.00940257
78.6957 30.7994 0.0271422
136.837 -17.7812 0.119127
136.877 -17.688 0.118524
136.907 -17.5924 0.118982
136.973 -17.505 0.117223
137.836 -16.711 0.0932277
137.952 -16.4733 0.0911744
137.974 -16.3734 0.0916969
138.014 -16.2762 0.0911169
138.053 -16.1787 0.0905475
138.163 -16.0947 0.0875671
138.182 -16.046 0.0877824
137.532 -10.4146 -0.0162478
100.536 38.0791 -0.28815
77.8473 43.897 -0.699585
77.5396 44.0743 -0.71008
76.2178 46.3797 -0.807726
78.9176 31.0081 -0.26558
77.3954 10.0109 0.244833
146.78 13.7823 -0.87399
146.074 17.0638 -0.908371
145.954 17.1672 -0.904179
145.869 17.2928 -0.903013
145.64 18.1549 -0.912609
145.459 18.9705 -0.922717
145.426 19.042 -0.923122
145.425 19.2323 -0.927932
145.325 19.3509 -0.925739
145.241 19.4805 -0.92555
100.869 39.1571 -0.611977
100.716 39.1249 -0.610479
100.629 39.2103 -0.614553
100.475 39.1914 -0.613968
100.337 39.0336 -0.607318
52.2317 -12.6483 -0.931385
111.135 -25.1628 0.612394
131.1 -15.9057 0.0859322
132.42 -14.781 0.0339075
132.328 -10.5032 -0.0810794
132.374 -10.422 -0.0827851
132.405 -10.3387 -0.0844097
132.409 -10.2554 -0.0839104
132.447 -10.1729 -0.0855675
141.45 12.8223 -0.870664
141.51 13.2583 -0.884229
141.551 13.4445 -0.891256
142.532 15.6839 -0.998811
141.246 16.1319 -0.94516
140.944 16.0798 -0.929109
101.025 39.3171 -0.932703
100.887 39.135 -0.924207
100.726 39.1868 -0.927151
74.9586 12.3118 -0.337773
103.254 -24.012 0.654467
111.91 -25.2661 0.485214
133.887 -4.08768 -0.323309
107.269 11.0175 0.360938
100.806 39.7477 -1.22104
101.074 35.744 -0.999141
100.601 38.7344 -1.1654
79.7613 15.7849 -0.452074
101.234 35.6961 -1.31518
101.086 35.7247 -1.31733
100.941 35.7257 -1.31766
61.6924 -4.20791 -1.29204
100.988 35.8828 -1.5539
100.867 35.669 -1.53968
69.5386 10.3472 -1.24031
129.33 3.7388 -0.66389
129.301 3.77225 -0.662552
129.29 3.86479 -0.664927
101.169 34.3983 -1.74596
103.302 10.0787 0.0511714
103.234 9.86819 0.0661731
103.176 9.83837 0.0682563
103.112 9.84266 0.0665749
102.998 9.74593 0.0734893
126.957 4.90647 -0.683818
112.292 -20.2361 0.402741
76.2357 4.26837 -1.26363
119.55 -16.8153 0.0269195
97.0165 8.6687 -0.46296
111.376 3.44917 -0.102845
109.612 7.91275 -0.706074
110.616 -17.4872 -0.184547
47.9708 -3.30727 -18.6484
47.9357 -3.39508 -18.6578
108.441 -9.86267 0.416789
151.211 -14.6589 -17.6335
151.219 -14.5873 -17.6331
151.235 -14.4452 -17.6333
151.477 -14.3242 -17.7286
151.26 -14.1597 -17.6306
151.278 -13.8734 -17.6259
151.292 -13.7299 -17.6251
151.296 -13.6588 -17.6247
151.314 -13.5169 -17.6259
104.665 -11.3116 0.695999
105.215 -8.69728 0.820747
105.242 -8.75793 0.849249
105.224 -8.73404 0.836478
107.211 -11.2275 0.588914
-43.1603 1.66592 -2.35452
