ply
format ascii 1.0
element vertex 835
property float x
property float y
property float z
end_header
131.328 7.43871 3.20966
95.6288 14.0109 2.07379
97.6789 32.8946 2.5743
92.0517 29.3925 2.37432
92.4918 50.5879 2.98008
93.5742 58.6944 3.22847
90.7256 58.454 3.18729
90.5613 58.6782 3.19183
90.3624 58.7416 3.19182
90.2919 58.9096 3.19593
90.0679 58.8565 3.19225
89.8274 58.7188 3.18583
89.9663 61.5508 3.26995
89.9036 62.3595 3.29373
89.8372 63.1707 3.31649
89.575 62.3863 3.29136
89.3559 62.4011 3.28945
89.1775 62.6395 3.29488
74.9155 11.04 1.64724
66.1574 13.7262 1.77834
63.8377 12.2938 1.7746
43.7485 16.0159 2.26487
13.615 20.2076 3.1014
27.6149 13.9361 2.66085
18.7081 14.8495 2.91489
18.5429 14.2935 2.9153
16.767 13.5539 2.96012
23.3461 -10.0667 2.75055
23.1616 -10.2499 2.75651
44.1201 -12.0398 2.1495
48.1365 -12.2152 2.03375
48.1547 -12.3048 2.03415
50.4061 -15.4589 2.0115
25.2271 -29.1261 2.92696
58.916 -20.022 1.88334
48.6296 -28.5983 2.32793
22.0328 -51.4755 3.49476
22.6711 -51.5203 3.48141
22.7091 -51.7785 3.48751
22.3815 -52.3521 3.50934
136.767 -47.347 3.99531
144.894 -46.1317 4.23241
151.679 -31.1904 4.20381
151.946 -31.0161 4.21021
138.749 -21.1351 3.60159
138.736 -21.029 3.60015
138.773 -20.8313 3.59857
138.68 -20.6025 3.59236
138.7 -20.4013 3.5907
138.751 -20.2076 3.59119
138.741 -19.9989 3.58838
138.742 -19.7939 3.58563
121.87 9.95813 2.57564
151.54 20.6396 3.51863
104.396 17.7669 2.16503
94.722 25.0383 2.0827
92.7817 27.5001 2.10011
91.4813 59.5258 2.80128
90.8015 58.4143 2.76872
90.5796 58.369 2.76503
90.4163 58.593 2.76957
90.0901 58.0555 2.75328
90.0035 58.6453 2.76677
89.9276 58.7898 2.76895
90.3793 62.0469 2.84872
90.0997 61.7583 2.8397
89.8129 61.4283 2.8288
89.735 62.1604 2.8458
89.5537 62.3719 2.84932
89.2644 62.6123 2.85231
89.0841 62.8448 2.85576
88.8003 62.5073 2.8449
74.4532 8.45412 1.47695
14.3106 -24.491 2.7475
9.79741 -26.2884 2.86958
22.71 -51.6618 3.03607
145.135 -46.983 3.75147
145.085 -46.3704 3.73902
151.71 -31.3167 3.70339
137.101 -21.4189 3.14723
137.114 -21.2197 3.14554
137.135 -21.0226 3.1449
137.133 -20.8203 3.14215
137.125 -20.617 3.14037
137.131 -20.4168 3.13866
150.352 -20.2925 3.54357
136.6 -1.29472 2.72625
131.785 7.4266 2.59747
123.166 10.8503 2.38639
95.1877 12.3947 1.73901
88.8577 14.6493 1.65713
100.992 37.9442 2.2156
100.895 38.0959 2.21666
96.516 38.3784 2.15961
90.492 26.757 1.88195
90.845 58.3504 2.45712
90.5949 58.1737 2.4518
90.3751 58.1361 2.44909
90.2981 58.7639 2.46048
90.1161 58.9088 2.46124
89.8815 58.8036 2.45771
89.6951 60.543 2.48859
89.3954 61.2448 2.49885
89.3423 62.1258 2.5154
88.991 61.4232 2.49862
88.7929 61.5341 2.49944
52.8771 -19.3383 1.71336
147.09 -30.0645 3.19883
137.769 -19.3104 2.85206
155.57 -5.20658 2.64334
155.585 -4.95816 2.64248
156.393 -3.9444 2.65489
150.8 16.8982 2.5235
150.735 17.134 2.52238
149.012 19.8884 2.49456
106.07 19.0428 1.74884
95.819 12.6282 1.5506
95.5528 12.4872 1.54609
92.0395 36.1383 1.72545
90.7549 58.265 1.95708
90.58 58.4371 1.95777
90.5038 58.5726 1.95897
90.3171 58.6919 1.95881
90.1406 58.8602 1.95951
90.0752 59.5742 1.96662
89.9072 59.8009 1.96814
89.9453 61.0637 1.98264
89.8046 61.4633 1.98563
89.6698 61.3365 1.98357
89.577 61.9939 1.99079
89.2762 61.575 1.98416
89.1009 61.8138 1.9856
88.9683 62.2891 1.98934
88.7974 62.5718 1.99164
78.9245 -20.487 1.42277
142.989 -21.9082 2.49289
143.183 -21.7335 2.496
136.507 -19.6569 2.35643
148.329 -21.8824 2.59254
152.542 -19.5878 2.65647
149.147 19.9634 2.1018
96.1898 12.713 1.41773
95.8637 12.695 1.41453
91.4733 25.2851 1.42917
90.6622 28.7853 1.44214
90.3904 47.7791 1.55323
90.4723 58.4923 1.62014
90.436 58.818 1.6218
90.177 58.6012 1.61859
90.0201 58.8626 1.61902
89.5372 61.3032 1.63217
89.348 61.4613 1.63185
88.9691 61.7865 1.63119
88.8943 62.5949 1.63592
88.5767 62.0542 1.63068
89.0236 65.9051 1.65725
95.3025 -19.7149 1.49456
95.3501 -19.6592 1.49454
143 -22.0039 2.14428
106.237 19.2311 1.28179
106.287 19.4341 1.28123
106.362 19.6606 1.28169
106.312 19.7802 1.28106
98.1882 14.493 1.23894
93.9867 26.3761 1.20091
91.6344 25.4811 1.18907
95.7333 51.5454 1.19013
92.3786 61.3683 1.16796
90.9275 58.3707 1.16335
90.3873 58.8166 1.16061
90.1601 58.7487 1.15898
90.041 58.6873 1.15874
89.8237 58.6595 1.158
89.6498 58.8456 1.15664
89.8347 60.8358 1.15704
90.163 63.6196 1.15608
89.5257 61.4934 1.15442
89.3173 61.5542 1.15339
89.2077 61.5581 1.15295
88.9261 61.2223 1.15209
88.7311 61.3469 1.15187
84.2309 37.3342 1.14571
84.0969 37.372 1.14505
88.2345 62.2634 1.14857
83.8334 37.4702 1.14367
83.7116 37.1626 1.14332
152.004 -31.3142 1.7735
140.393 -21.3269 1.64765
140.385 -21.2187 1.64723
141.995 -21.1692 1.6583
136.317 -19.6526 1.61166
152.413 -19.6133 1.72405
100.568 11.2965 1.11994
95.992 35.5478 0.986967
89.3635 55.0825 0.864365
89.9999 59.136 0.844928
89.9039 59.1844 0.844377
89.6872 59.1676 0.843597
89.5401 59.5024 0.841794
89.2382 59.0483 0.843291
89.4044 61.021 0.833682
89.2044 61.118 0.832548
88.9857 61.1156 0.831707
84.4931 37.6217 0.937668
84.5655 38.4135 0.934037
88.4431 61.1232 0.829571
88.1924 60.9295 0.82931
83.9201 37.1587 0.938145
83.8484 37.5664 0.935367
83.6739 37.3615 0.935442
83.5311 37.3389 0.934971
95.5225 -19.6145 1.22304
114.543 -22.0093 1.27874
114.705 -21.937 1.2781
145.67 -30.2403 1.37993
136.406 -21.3431 1.32922
136.4 -21.1411 1.32845
136.42 -20.7469 1.32708
136.431 -20.5494 1.3264
136.439 -20.3525 1.32571
136.442 -20.1548 1.32499
136.431 -20.0521 1.32457
136.441 -19.8566 1.32389
136.371 -19.6422 1.32283
152.734 0.929794 0.802724
106.378 20.1451 0.841966
96.4561 32.335 0.730583
91.8786 60.0484 0.416864
89.6456 55.23 0.466913
89.5348 55.6545 0.461921
89.9494 58.6196 0.429626
89.8138 58.9911 0.424732
89.6006 58.9849 0.423927
89.4887 58.9589 0.424588
89.0377 57.7413 0.437314
88.9042 58.1277 0.432374
88.8523 58.9539 0.423134
88.5982 58.7232 0.424995
84.5594 37.8728 0.652998
84.2728 37.0739 0.661823
84.2309 37.2296 0.660087
84.2092 37.9039 0.652523
83.9986 37.5072 0.656164
83.9872 38.2719 0.647307
83.7891 37.94 0.650758
83.5415 37.284 0.657209
114.012 -22.3579 1.01795
130.202 -28.1481 0.967145
133.802 -28.5908 0.954758
136.164 -21.2302 0.937861
136.102 -21.0148 0.937826
135.93 -20.8714 0.93763
135.91 -20.6684 0.937806
135.934 -20.4769 0.937195
135.932 -20.2786 0.936461
136.049 -20.1097 0.936293
136.142 -19.9332 0.935003
136.138 -19.7357 0.935263
136.305 -19.6751 0.933687
136.632 -19.5512 0.932503
136.975 -19.4296 0.931389
155.754 -16.2173 0.360519
155.708 -15.9578 0.360382
155.69 -15.7036 0.36038
155.587 -15.4389 0.361007
155.678 -15.1975 0.359472
155.527 -15.0542 0.360359
155.575 -14.8085 0.359642
155.612 -14.3096 0.357949
155.697 -14.0673 0.356388
155.706 -13.8171 0.355504
155.878 -13.5825 0.353308
155.871 -13.4561 0.352817
155.901 -13.2078 0.352017
156.413 -5.07846 0.322109
156.058 -4.83246 0.324825
150.503 -3.98542 0.377129
149.752 -3.77542 0.384437
147.169 -3.2986 0.408652
147.266 -2.293 0.403329
139.539 -2.1036 0.480618
95.8157 12.1119 0.772478
96.5383 32.3848 0.464716
96.4143 32.4424 0.464023
98.5404 40.4244 0.329922
98.609 40.9489 0.320259
93.6669 36.7148 0.399634
94.7363 41.9853 0.309402
90.3275 48.8624 0.193979
89.9344 58.3113 0.0296955
89.7743 58.5571 0.0251696
89.6439 58.9571 0.0181912
89.5477 59.5432 0.00766192
89.1792 58.7512 0.0211433
88.9306 58.5511 0.0239136
88.7394 58.1011 0.0318264
88.5279 58.0855 0.0320621
88.3886 58.4596 0.0251449
84.4332 37.6853 0.382193
84.2849 37.6464 0.382761
84.1196 37.5109 0.385617
84.019 37.7418 0.381376
83.8114 36.9314 0.394551
83.7124 37.1732 0.390277
83.524 36.8734 0.395648
138.771 -28.9247 0.531283
139.212 -28.8628 0.526767
143.938 -27.2783 0.484299
143.28 -24.7869 0.491581
136.509 -21.5677 0.556435
136.466 -21.3563 0.556491
136.933 -21.274 0.552002
135.677 -20.7588 0.564229
135.746 -20.5789 0.563834
135.561 -20.4346 0.565584
135.686 -20.268 0.564459
143.548 -12.4683 0.00630526
143.833 -11.1114 -0.00057712
152.513 -6.51355 -0.161772
151.572 -6.27079 -0.14632
150.004 -4.30211 -0.127651
148.543 -4.10849 -0.10304
144.121 -3.4787 -0.0305335
135.383 -2.03847 0.111225
134.417 -1.92035 0.127037
153.095 3.02442 -0.217591
153.105 3.14727 -0.219005
99.0994 35.4766 0.0792879
94.4851 40.3484 -0.00855764
90.7615 31.0996 0.219998
93.7469 42.7069 -0.0611011
102.02 67.1624 -0.659921
101.788 67.2397 -0.661104
94.9555 49.1282 -0.215026
89.4216 55.0975 -0.349482
90.0311 58.4817 -0.431562
89.8939 58.8423 -0.440422
89.7643 59.2483 -0.450419
89.6364 59.6723 -0.460475
89.2662 58.8836 -0.441012
89.0499 58.8556 -0.440749
88.88 59.0755 -0.446218
88.7094 58.7316 -0.437616
88.3636 57.999 -0.419264
88.1713 58.0867 -0.421334
88.0003 58.2926 -0.426756
84.2085 37.8809 0.0685963
84.073 37.922 0.067919
83.935 37.9462 0.067294
83.8225 37.6948 0.0727812
63.6894 20.3387 0.37341
29.3285 -16.3674 -0.0240736
95.6714 -19.4325 0.76794
95.7269 -19.4265 0.767134
123.745 -25.8291 0.316519
124.052 -25.7832 0.312547
124.186 -25.6633 0.310625
121.48 -22.2697 0.366629
134.987 -21.9135 0.149791
135.699 -21.9074 0.137532
136.367 -21.8869 0.127052
139.852 -18.619 0.0725694
132.73 -12.9876 -0.0988107
133.01 -12.8426 -0.105257
134.529 -10.1755 -0.142166
134.206 -9.97041 -0.135177
134.307 -9.79525 -0.137428
134.135 -9.60233 -0.133805
139.089 -4.10779 -0.261771
138.676 -2.84971 -0.259004
139.978 2.14122 -0.317303
139.811 2.22028 -0.314244
140.008 2.44913 -0.32032
140.211 2.68007 -0.326378
140.187 2.88069 -0.32721
140.151 3.07894 -0.328078
140.283 3.30222 -0.332388
140.9 3.59907 -0.348085
140.199 3.59651 -0.332798
115.551 5.94792 0.17781
115.975 7.44634 0.150943
116.023 7.60103 0.14856
97.7181 38.8551 -0.242509
97.6231 39.0206 -0.246487
89.2514 54.512 -0.651994
88.0342 50.4771 -0.53188
87.9494 50.5127 -0.53334
89.509 59.3099 -0.792642
89.1889 58.7594 -0.77586
90.3493 65.9061 -0.986642
88.6425 58.0986 -0.755553
88.5219 58.573 -0.769766
84.4278 37.2388 -0.140193
84.3635 37.2694 -0.141555
84.232 37.3169 -0.142241
84.0945 37.337 -0.142849
83.9594 37.3669 -0.143484
83.8272 37.4095 -0.145154
83.673 37.3229 -0.142434
83.4891 37.0537 -0.134159
114.515 -25.488 0.239409
114.616 -25.4655 0.237719
114.875 -22.1509 0.257532
119.712 -20.9951 0.165073
127.729 -17.7618 0.00632266
128.237 -17.2812 -0.00347165
128.419 -17.1502 -0.00724713
128.529 -17.0036 -0.00935739
128.806 -15.5271 -0.0137136
124.065 -12.9231 -0.193713
124.128 -12.7798 -0.194994
124.177 -12.6333 -0.196344
124.256 -12.5681 -0.198276
124.305 -12.4226 -0.199622
124.517 -12.297 -0.206259
124.671 -12.1639 -0.21015
124.803 -12.0266 -0.214142
124.787 -11.8715 -0.212777
124.757 -11.7136 -0.212472
124.76 -11.6372 -0.212741
124.692 -11.4756 -0.210601
124.785 -11.3326 -0.212767
124.848 -11.1863 -0.215057
124.954 -11.0441 -0.21817
125.028 -10.8982 -0.220419
125.116 -10.7525 -0.222613
125.146 -10.679 -0.223767
125.214 -10.5313 -0.225046
125.266 -10.3813 -0.227394
125.317 -10.2321 -0.228745
125.34 -10.0788 -0.229221
125.411 -9.93053 -0.23149
125.439 -9.77789 -0.231945
125.509 -9.70629 -0.234936
125.596 -9.55838 -0.237141
125.682 -9.40933 -0.239353
125.739 -9.25792 -0.241691
125.74 -9.10251 -0.242256
126.15 -8.11339 -0.255304
127.046 -7.11974 -0.283477
127.161 -6.96273 -0.286608
127.274 -6.80543 -0.290747
128.078 -5.92855 -0.315852
130.536 -3.55054 -0.396049
132.5 -2.31689 -0.45796
132.266 -2.15544 -0.452459
131.778 1.22985 -0.461807
131.926 1.42549 -0.466952
132.025 1.52725 -0.470943
110.106 9.54338 0.022429
101.341 10.0286 0.225597
98.8983 37.0212 -0.489183
89.2683 55.334 -1.04696
89.1873 55.9199 -1.06743
88.9758 55.877 -1.06609
89.267 58.3628 -1.1531
89.1927 58.5182 -1.15896
88.9094 58.1433 -1.14469
88.7511 58.4079 -1.15427
88.602 58.7289 -1.16503
88.3984 58.7667 -1.16596
88.4124 60.0086 -1.20948
88.2597 60.3533 -1.22134
88.1759 60.4919 -1.22617
83.967 37.3144 -0.403265
77.5969 15.9567 0.353555
73.3749 13.3151 0.42387
-1.18781 -13.7958 -1.6401
-0.20455 -13.9406 -1.60475
0.631761 -14.0951 -1.57493
115.783 -20.1298 0.00262249
116.852 -19.2402 -0.0194966
116.833 -19.0939 -0.0181085
117.227 -18.3098 -0.0234596
117.416 -18.2261 -0.0280365
117.714 -18.1748 -0.0360653
117.711 -17.8237 -0.0343695
118.714 -16.7608 -0.0563809
119.044 -16.7029 -0.0653122
119.062 -16.4942 -0.0650122
119.536 -15.6844 -0.0741488
119.673 -15.5731 -0.0780237
119.754 -15.4495 -0.0801647
120.032 -15.3669 -0.087389
119.782 -15.0292 -0.0796015
119.828 -14.8964 -0.0799124
119.897 -14.8398 -0.0818529
120.064 -14.7319 -0.0865995
120.172 -14.6112 -0.0886254
124.08 -13.3832 -0.19496
124.072 -13.2293 -0.194561
124.049 -13.0724 -0.193225
101.282 10.1599 0.030883
89.9684 18.0898 0.033765
96.1729 29.8915 -0.499547
91.7717 22.4744 -0.157359
95.0595 40.4274 -0.89263
90.1131 54.0097 -1.40681
89.5322 54.0664 -1.40627
89.3268 54.0307 -1.40394
89.3423 54.5711 -1.42587
89.2641 55.1485 -1.4503
89.0056 54.8669 -1.43727
89.0867 56.2557 -1.49506
89.2121 57.9198 -1.56469
89.0135 57.9711 -1.56565
88.7969 57.928 -1.56334
88.6829 57.8739 -1.56058
88.6435 58.7781 -1.59806
88.4179 58.6938 -1.59363
77.5747 15.9797 0.208381
77.5073 16.0169 0.206983
103.74 -19.8981 0.111988
107.418 -21.6524 -0.0242714
113.62 -11.2373 -0.36949
113.597 -9.81594 -0.36581
113.627 -9.70107 -0.367116
113.618 -9.58253 -0.366587
113.643 -9.46792 -0.367912
113.634 -9.34937 -0.367382
113.656 -8.94032 -0.3688
113.651 -8.82235 -0.368253
113.63 -8.70405 -0.36777
113.617 -8.58592 -0.367255
113.607 -8.46822 -0.366727
113.596 -8.40906 -0.365986
113.608 -8.29257 -0.366368
113.619 -8.17594 -0.367754
113.616 -8.05925 -0.367195
113.618 -7.94231 -0.367618
113.62 -7.82536 -0.368041
113.628 -7.70928 -0.368437
113.632 -7.65131 -0.368633
113.643 -7.53467 -0.369019
113.636 -7.4184 -0.369475
89.8364 11.5999 0.139124
91.7558 22.8157 -0.362679
92.5106 36.9756 -1.00184
91.9907 52.4031 -1.70861
90.5816 55.6034 -1.84886
89.9899 53.8821 -1.76482
89.8222 54.0137 -1.76996
89.6988 54.3511 -1.78568
89.5255 54.4725 -1.7898
89.3401 54.5309 -1.79174
89.1683 54.6621 -1.79689
89.1667 55.1343 -1.81963
89.0116 55.352 -1.82903
89.0115 57.3871 -1.92552
88.8913 57.8291 -1.94561
88.7011 57.9246 -1.9487
88.4863 57.8863 -1.9464
6.64772 10.5129 -2.39409
12.8031 4.3705 -2.02558
24.9377 -9.76345 -1.35544
95.9536 -19.7383 0.200153
107.993 -18.8718 -0.20927
109.346 -18.2381 -0.252345
109.346 -16.7898 -0.23667
109.835 -16.4319 -0.251087
111.932 -15.1055 -0.321822
112.138 -14.6839 -0.326572
112.154 -14.569 -0.326933
97.6775 4.79188 -0.0163767
105.63 8.97166 -0.451863
95.8674 4.88403 0.0542537
95.3764 4.68507 0.0790781
90.0245 11.4658 0.0133462
95.1626 40.3135 -1.47082
92.7099 58.0819 -2.35771
90.7596 55.6277 -2.21426
91.0981 58.0145 -2.34173
90.7642 57.4671 -2.31101
90.0244 54.6106 -2.15537
89.7288 54.1728 -2.12991
89.6037 54.5125 -2.14665
90.1263 57.907 -2.32911
88.8507 57.2579 -2.28767
88.6664 57.3728 -2.29281
88.6631 58.4545 -2.3498
88.7488 60.0537 -2.43535
68.923 16.5658 -0.17539
17.4002 10.015 -2.23248
113.632 -22.0075 -0.692835
107.214 -4.75831 -0.48921
107.26 -4.65991 -0.492394
107.328 -4.56073 -0.496494
107.373 -4.50969 -0.498508
107.446 -4.40926 -0.503592
93.3885 24.262 -0.871663
98.8537 40.9103 -1.89068
98.7382 41.0464 -1.89563
90.5129 41.0877 -1.76373
91.4241 52.0735 -2.41261
92.7454 58.0491 -2.77546
90.5121 49.9809 -2.28145
90.3342 50.015 -2.28227
90.0882 49.771 -2.26533
94.2744 70.6098 -3.52673
91.2575 58.5244 -2.78999
91.1151 58.8352 -2.80669
90.8423 58.574 -2.78878
90.6308 59.0687 -2.81643
91.7753 65.4178 -3.20034
77.7834 15.9025 -0.183529
95.2088 41.7145 -2.1398
93.1965 37.3699 -1.83663
92.5037 58.0995 -3.12759
91.7993 56.0998 -2.99297
90.1579 50.1752 -2.59755
89.9974 49.8935 -2.57714
94.8369 71.084 -3.9813
91.1138 56.2567 -2.99521
94.2281 70.6607 -3.9481
91.2856 58.8223 -3.16098
91.0814 58.8704 -3.16195
91.289 60.777 -3.28616
91.2321 61.527 -3.33414
91.9623 65.4266 -3.59065
91.7381 65.4766 -3.5917
91.5106 65.5099 -3.59171
91.2847 65.555 -3.59275
36.5071 0.0539917 -1.55061
90.6558 -16.9768 0.120414
103.085 1.88461 -0.699687
103.043 1.96253 -0.699138
102.972 2.0325 -0.695669
91.4941 53.1007 -3.22213
92.543 58.0782 -3.58637
91.8483 56.1317 -3.4399
92.4913 59.6216 -3.69424
95.0499 71.1754 -4.54181
94.7525 71.0017 -4.52533
94.5744 70.7862 -4.50823
94.2731 70.5858 -4.49066
91.3196 58.7785 -3.62069
91.1167 58.8284 -3.62267
91.5255 61.6312 -3.82539
93.085 69.7754 -4.41929
91.0388 61.4416 -3.80658
91.669 65.4518 -4.09789
91.5485 65.4361 -4.0953
91.3176 65.4537 -4.09426
89.8941 -20.5823 -0.124287
97.4573 11.1603 -0.844667
97.0897 43.0612 -2.89046
92.235 35.4274 -2.22523
92.0926 35.4422 -2.22384
93.7109 42.2824 -2.75672
90.4536 42.3052 -2.69746
90.0155 53.6232 -3.5418
91.7546 65.5008 -4.46174
91.5229 65.5125 -4.45968
91.295 65.5438 -4.45968
91.1813 65.5614 -4.45919
55.6151 15.1749 -1.22199
55.4599 15.1986 -1.23168
55.3466 15.2455 -1.24129
88.5767 -20.2684 -0.14656
88.5336 -20.0377 -0.132576
88.6943 -20.135 -0.144594
88.6394 -19.8945 -0.129691
97.0151 13.0766 -1.10544
92.0625 28.9953 -2.00924
96.8868 42.0592 -3.15457
91.676 52.9416 -3.91085
91.8787 57.4264 -4.27956
47.9361 5.67734 -1.50289
87.2171 -19.635 -0.168171
94.799 30.8453 -2.46942
97.7447 42.8208 -3.54304
95.72 40.3315 -3.27675
91.2032 51.5406 -4.12953
89.8841 52.0498 -4.15253
89.6998 52.0818 -4.15236
89.515 52.1108 -4.15219
89.909 57.1404 -4.59916
89.7285 57.2678 -4.60733
89.7403 52.0444 -4.50307
89.1251 52.7427 -4.55903
89.3892 54.9015 -4.76495
59.0018 12.3244 -1.33635
94.942 38.3166 -3.67536
89.7396 40.9287 -3.78118
89.0597 39.0499 -3.58091
88.9143 39.0783 -3.58058
90.4664 49.1283 -4.60553
87.3096 39.308 -3.57066
89.6635 50.0076 -4.67688
89.4852 50.0387 -4.67669
89.2989 50.0367 -4.67341
89.213 50.0644 -4.67384
89.0473 50.1543 -4.68082
88.8747 50.2109 -4.68269
88.7049 50.2801 -4.68661
88.533 50.3417 -4.6905
79.8783 10.1274 -0.534155
82.4133 -19.1266 -0.212704
89.908 40.889 -4.08039
89.2241 39.032 -3.87021
89.0738 39.0409 -3.86683
89.2692 46.7099 -4.67529
87.316 39.2677 -3.85249
88.9283 46.7497 -4.67276
88.7614 46.7832 -4.67253
88.5994 46.8362 -4.67535
88.4339 46.8796 -4.67615
88.2637 46.8974 -4.67488
88.1805 46.9156 -4.67527
88.0156 46.9559 -4.67706
87.8474 46.9876 -4.67683
89.1576 39.0519 -4.17654
87.3359 39.3316 -4.16465
87.1903 39.3519 -4.16329
88.2922 44.4088 -4.75162
88.1311 44.4334 -4.75133
87.9639 44.4306 -4.74797
87.7992 44.4375 -4.74464
87.6477 44.5072 -4.74948
87.4704 44.4563 -4.74099
87.3235 44.5435 -4.74788
87.2482 44.5817 -4.75031
87.0846 44.5895 -4.74797
89.4346 39.649 -4.54167
89.1984 39.9129 -4.56556
88.169 42.0103 -4.78528
87.3532 39.2756 -4.44438
87.863 42.0672 -4.78467
87.7101 42.0926 -4.78436
87.6166 42.0345 -4.77551
87.4914 42.1801 -4.78953
87.3377 42.2067 -4.78923
87.1932 42.2692 -4.79402
87.0461 42.3271 -4.7978
86.8931 42.3525 -4.79749
86.7412 42.3848 -4.7982
87.42 39.3307 -4.71933
87.2662 39.3158 -4.71387
87.1293 39.3742 -4.71762
87.0008 39.4698 -4.72647
86.8694 39.5527 -4.73428
86.7914 39.5378 -4.73053
86.6556 39.6041 -4.7353
77.4492 11.331 -1.06203
77.344 11.4202 -1.07276
90.7289 -9.27038 -0.592657
85.168 9.4175 -1.154
85.144 9.4877 -1.16035
90.1401 36.1568 -4.63909
90.0186 36.2312 -4.64383
89.8885 36.2815 -4.64552
89.7609 36.3416 -4.64924
87.0574 37.3079 -4.6903
86.9937 37.3425 -4.69267
86.8689 37.4214 -4.69945
86.7374 37.476 -4.70316
86.6104 37.5471 -4.70891
86.4812 37.6104 -4.71365
86.343 37.6398 -4.71429
86.2052 37.665 -4.71392
79.2761 10.4716 -1.05677
85.6616 -15.3335 -0.47204
88.9613 33.9099 -4.6064
88.8362 33.9524 -4.60804
88.7726 33.9668 -4.60734
88.6454 34.0026 -4.60797
88.5214 34.046 -4.60961
88.3971 34.0874 -4.61025
88.2748 34.1356 -4.6129
88.1531 34.1877 -4.61556
88.0275 34.2273 -4.6162
87.898 34.2543 -4.6158
87.8321 34.2599 -4.61408
87.7109 34.3151 -4.61775
87.5827 34.3439 -4.61735
87.4555 34.3797 -4.61898
87.3364 34.4426 -4.62367
87.2194 34.5132 -4.62939
87.1594 34.5453 -4.63174
87.0407 34.6111 -4.63644
86.9212 34.6781 -4.64215
86.8008 34.7392 -4.64685
86.4136 4.48484 -0.976019
82.9411 -14.7032 -0.472927
87.4652 -6.64758 -0.638983
77.1699 6.96146 -1.05104
77.1295 6.97545 -1.05225
77.0889 6.96724 -1.05138
84.6354 -12.8027 -0.569336
82.5029 -13.3771 -0.579508
76.9258 5.34668 -1.08305
80.4172 -11.5746 -0.683242
80.4418 -11.5721 -0.686155
47.4018 -3.14505 -10.2056
47.3836 -3.23537 -10.2084
47.3733 -3.32684 -10.2091
46.6691 -3.14282 -10.8055
46.6565 -3.23598 -10.8072
46.6368 -3.32913 -10.8109
79.0776 -5.89672 0.0326805
79.0758 -5.88837 0.0326427
79.0977 -5.88352 0.0237101
78.9889 -6.8419 0.0138124
75.3201 -7.31099 0.305289
75.785 -4.72371 0.40458
75.6926 -4.87079 0.435763
75.8425 -4.70387 0.389731
75.8729 -4.77188 0.423099
75.8531 -4.74175 0.406911
77.8867 -7.28237 0.224153
75.8135 -4.72293 0.373688
75.6985 -4.52451 0.26851
75.8042 -4.71754 0.369632
75.7952 -4.71017 0.36457
75.7714 -4.68046 0.347368
75.7321 -4.62529 0.316012
75.6828 -4.55554 0.276563
75.7013 -4.59456 0.296779
75.6952 -4.59469 0.294756
75.707 -4.6176 0.306886
75.6943 -4.60768 0.2998
75.7549 -4.81938 0.396815
75.6774 -4.77682 0.361357
75.4622 -6.90296 0.402342
75.3914 -7.22549 0.277251
75.4426 -7.17123 0.311251
75.4739 -7.1434 0.331271
75.5026 -7.14757 0.338397
75.4302 -7.23619 0.286441
77.8495 -7.16972 0.249595
77.916 -7.17144 0.226859
77.8584 -7.26215 0.198969
77.8385 -7.23898 0.212806
77.805 -7.19762 0.237525
6.4388 1.15033e-41 0
