ply
format ascii 1.0
element vertex 497
property float x
property float y
property float z
end_header
184.8 -8.62274 3.78604
173.063 -5.26546 3.49335
166.627 -5.3101 3.31317
162.017 17.7655 3.60771
171.505 23.2631 3.97425
167.194 21.3638 3.82242
157.59 16.9644 3.47982
158.123 17.4461 3.50525
161.276 32.0236 3.97538
161.492 32.4599 3.99222
160.274 32.3686 3.96441
141.796 22.0288 3.26858
141.688 22.3416 3.27613
142.016 23.1465 3.30777
142.089 23.4207 3.31791
122.841 6.60173 2.40793
147.521 37.8364 3.89735
147.563 38.1869 3.91039
147.617 38.5529 3.9235
148.633 43.9855 4.13145
148.703 44.4189 4.1471
148.85 44.7772 4.1626
148.923 45.2201 4.17932
148.982 45.651 4.19601
149.052 46.1005 4.21281
149.129 46.5611 4.23068
116.305 9.3213 2.40218
116.239 9.34727 2.40281
116.204 9.35644 2.4031
116.143 9.39157 2.40378
116.073 9.40993 2.40336
100.111 38.6875 3.66667
99.9542 38.7084 3.66877
99.7958 38.7518 3.67209
98.9927 44.715 3.93553
99.9842 34.9436 3.50637
99.3273 39.471 3.70753
99.16 39.5642 3.71237
99.0953 38.7916 3.68052
98.9736 38.5134 3.66962
98.8122 38.5704 3.67309
99.5646 31.5658 3.36519
99.4016 31.7978 3.37731
99.2992 32.0643 3.38939
98.6236 36.0024 3.56515
98.8137 31.71 3.37989
98.5297 31.3929 3.36857
98.3762 31.5245 3.37669
98.1644 32.0101 3.39945
98.2867 28.2065 3.23516
98.266 27.9751 3.22611
100.311 15.8864 2.68617
97.1395 30.6374 3.35254
96.9827 30.7674 3.36067
96.9282 30.7057 3.35841
99.4563 17.4371 2.76263
98.946 14.0745 2.62712
98.8693 14.0615 2.62744
98.7947 14.0421 2.62769
98.6478 14.2949 2.63991
98.7424 13.6304 2.61114
98.0259 15.5397 2.70115
97.9118 15.6433 2.70778
97.5434 15.7224 2.71666
97.6349 12.2456 2.5696
97.3007 12.7784 2.59752
97.224 12.6552 2.59381
97.0785 12.8483 2.60446
95.8441 13.0995 2.63595
94.009 14.3407 2.72119
94.5538 12.9426 2.65395
94.4985 12.8749 2.65264
89.9403 22.5334 3.13039
89.8648 22.5627 3.1331
89.3195 22.9243 3.15864
89.2211 22.8659 3.15866
89.1358 22.7804 3.15736
89.1267 22.5392 3.14715
89.0243 22.6199 3.1525
89.1176 22.1738 3.13279
89.0376 22.0834 3.1314
90.9337 9.48586 2.60356
90.9007 9.46745 2.60358
90.9306 9.29939 2.59684
89.4471 9.48488 2.64216
88.5752 9.8649 2.67976
80.1545 19.0725 3.23565
80.1767 18.9551 3.23143
80.0223 18.0532 3.20388
79.9949 17.9076 3.19968
80.0109 17.8033 3.19561
79.988 17.654 3.19135
79.7018 15.6255 3.13103
79.5102 14.3319 3.09403
79.4906 14.1984 3.0899
79.4677 14.0693 3.08682
79.3048 12.7513 3.04943
79.2791 12.6308 3.04645
79.2572 12.5087 3.04344
79.2414 12.3806 3.03933
79.2565 12.2976 3.03647
79.2274 12.1816 3.03355
77.6205 12.1799 3.08484
76.3875 12.3712 3.13077
74.7943 11.9108 3.16868
78.6708 8.55563 2.94285
78.6701 8.43348 2.93871
72.7718 10.7826 3.20483
72.1336 10.9021 3.23065
67.4302 13.6273 3.46737
67.9695 11.474 3.3901
67.7285 11.4567 3.39834
67.7908 11.3435 3.39292
68.1711 10.8221 3.36684
67.832 10.8595 3.37915
63.0824 12.9933 3.60261
57.7777 15.0283 3.84236
57.4122 15.0301 3.85549
54.9802 15.4097 3.95212
53.9405 15.5342 3.99331
52.9127 15.74 4.03518
52.6673 15.6576 4.04183
52.5054 14.9254 4.02992
56.244 12.3249 3.83295
49.9491 14.9805 4.12523
44.0262 16.3954 4.37476
47.852 13.7973 4.17531
47.3698 13.1544 4.17908
46.5968 13.2511 4.20946
45.6582 13.2993 4.24535
45.4555 13.1642 4.25026
45.574 12.9043 4.24014
44.5864 12.6323 4.27131
44.5728 12.4221 4.26742
44.5102 12.2291 4.26598
44.4492 12.144 4.26654
44.3676 11.9589 4.26528
39.983 12.6185 4.44483
39.66 12.3858 4.45153
31.3075 4.31692 4.6284
53.997 -14.8071 3.51314
42.051 -22.444 3.94887
72.9227 -25.242 2.77597
113.846 -25.5164 1.94652
165.36 -32.7184 3.15712
171.895 -23.309 3.33132
171.874 -22.5408 3.33363
171.921 -22.3314 3.33532
171.964 -22.1214 3.33703
172.019 -21.9141 3.33966
172.061 -21.7041 3.34137
172.114 -21.4956 3.34302
172.2 -21.402 3.3464
173.521 -4.88525 3.07423
171.231 20.2161 3.4333
171.269 20.4854 3.43959
163.344 19.3489 3.26482
162.787 19.871 3.26492
117.37 11.4249 2.3387
117.343 11.5329 2.34186
99.6617 38.9893 3.37107
97.2696 31.531 3.12213
91.0128 27.2345 3.05015
77.518 46.0492 3.92629
90.5566 10.4022 2.48831
44.2962 13.8099 3.89498
40.9786 -18.5464 3.59551
130.938 -24.9484 2.06993
131.018 -24.8853 2.07106
178.802 -34.5084 3.01657
180.028 -34.6558 3.0411
171.833 -22.617 2.90013
171.886 -22.4095 2.90176
171.921 -22.1984 2.90353
171.939 -21.9836 2.90444
172.01 -21.7788 2.90694
172.037 -21.5665 2.90877
170.389 17.9393 3.03485
166.04 19.3283 2.996
169.47 22.8558 3.11516
97.6893 34.1974 3.00464
96.5185 34.7314 3.03241
96.4656 34.626 3.02973
99.2338 18.1543 2.47961
96.0576 13.2252 2.36387
91.0182 12.1787 2.41325
53.6813 -22.1834 2.91494
130.932 -25.0059 1.92742
130.789 -24.8142 1.92504
131.025 -24.8406 1.92843
159.082 -32.0429 2.34672
175.989 11.9203 2.45711
175.911 15.1099 2.50139
166.148 18.2942 2.46768
167.569 20.5104 2.51418
162.191 32.3514 2.67908
141.75 21.7563 2.35425
98.0637 29.2092 2.54179
97.9183 29.3134 2.5456
97.7126 29.7517 2.55789
37.6603 13.9817 3.23095
31.0258 -20.7377 2.99558
150.349 -30.856 1.83533
180.689 -34.9768 2.07422
174.237 -23.7291 2.07776
171.609 16.3708 2.11606
164.822 18.0497 2.11504
159.517 30.6754 2.28285
148.266 35.2341 2.3356
147.55 37.6724 2.37556
121.896 19.012 2.04345
121.802 18.956 2.04247
121.553 18.7359 2.03786
106.145 10.8959 1.92968
52.9809 -11.7415 2.34063
178.207 -34.8898 1.65737
171.569 -22.6289 1.71347
171.601 -22.4183 1.71526
171.619 -22.2046 1.71715
171.65 -21.9929 1.71895
171.68 -21.782 1.72075
171.722 -21.573 1.72246
152.916 -0.292435 1.49834
172.973 27.1394 1.72887
168.137 25.1601 1.72234
168.252 25.4848 1.72471
168.308 25.7767 1.72812
167.898 25.8074 1.72978
166.398 25.5995 1.73252
156.161 20.3542 1.70569
155.809 20.3613 1.7068
159.222 29.0865 1.79267
159.805 30.5575 1.80805
121.443 18.2456 1.80289
171.11 -23.1348 1.23837
171.123 -22.9203 1.2403
171.069 -22.6941 1.24173
171.079 -22.4804 1.24367
171.083 -22.3739 1.24464
171.129 -22.1673 1.24631
171.651 -21.8314 1.24843
171.818 -21.4274 1.25124
172.131 23.6446 1.34003
171.972 23.8286 1.34267
120.574 1.42171 1.51754
159.193 30.1495 1.48776
160.085 31.3439 1.49177
143.554 20.4422 1.51547
123.088 19.418 1.64733
121.451 18.6449 1.65157
101.68 42.6051 1.96013
101.007 39.5938 1.94085
100.301 38.0003 1.93203
98.0748 17.3131 1.7824
91.142 12.165 1.77737
35.4829 17.3778 2.07325
35.3439 17.1809 2.07221
152.284 -31.138 0.978443
169.699 -31.5541 0.848761
171.598 -31.2621 0.837501
171.458 -23.3891 0.914957
171.349 -23.1488 0.917838
172.048 -22.8509 0.915576
170.958 -22.4247 0.92787
171.811 -21.3923 0.931593
168.763 -17.3288 0.585222
179.778 -8.70472 0.518136
174.376 12.9339 0.76582
163.22 18.5822 0.948223
156.468 19.7581 1.0413
164.454 25.7177 0.972824
154.059 21.4354 1.08093
146.373 22.4084 1.17952
121.473 18.4818 1.44191
151.187 -30.1521 0.674994
152.263 -29.8316 0.665761
152.525 -29.7657 0.662864
152.748 -29.6832 0.660344
153.067 -29.6379 0.656922
157.595 -28.839 0.607187
157.771 -28.8082 0.605455
158.217 -28.7794 0.600143
154.193 -27.174 0.672455
156.778 -26.7215 0.643722
158.746 -26.9892 0.613828
171.689 -23.5991 0.47863
151.34 -2.69468 0.670935
152.118 -2.34652 0.657691
162.683 16.279 0.552763
155.389 28.9768 0.709757
155.279 29.0181 0.711781
157.455 33.536 0.677446
148.847 44.5343 0.80614
121.263 18.0301 1.24489
121.137 18.0161 1.24648
90.0378 13.8415 1.44742
81.127 -20.7345 1.20056
105.81 -24.2696 1.18865
142.094 -28.2003 0.562861
142.295 -28.1529 0.560142
140.807 -24.7741 0.638367
142.364 -25.2828 0.601593
148.693 -23.3768 0.508789
148.699 -23.3028 0.509447
149.215 -23.158 0.501813
149.39 -23.0572 0.499746
149.69 -22.994 0.494599
149.915 -22.9066 0.491114
154.759 -12.4398 0.170968
155.029 -12.2953 0.165759
155.3 -12.2299 0.1588
159.606 1.38354 0.148219
145.951 16.8371 0.516812
152.718 27.106 0.332692
144.919 30.6601 0.484076
148.792 44.1988 0.322295
148.891 44.6695 0.317124
149.008 44.9909 0.313448
98.717 33.2276 1.0575
97.8114 17.0662 1.24059
38.1784 -16.9321 0.443625
38.8237 -17.0742 0.451562
131.648 -27.8368 0.531717
140.446 -23.086 0.405233
141.268 -23.1335 0.384026
146.673 -21.8438 0.264803
146.749 -21.7236 0.265486
146.899 -21.695 0.261888
147.968 -13.1492 0.123629
156.176 -6.91753 -0.078592
157.596 30.9449 -0.130659
147.322 35.3763 0.0912631
148.852 44.374 -0.0364383
122.583 19.2301 0.813442
121.495 18.5301 0.843196
114.914 8.36173 1.10118
101.943 43.6753 0.650534
100.306 34.9417 0.802324
98.7084 14.6304 1.1376
98.6235 14.6438 1.13722
81.4026 37.1764 0.73562
129.38 -26.3691 0.463566
129.595 -26.3461 0.458534
129.709 -26.3091 0.456222
138.45 -22.0348 0.290608
144.816 26.8203 -0.092278
38.2301 -17.1365 -0.298631
43.9872 -17.7704 -0.156868
68.4445 -19.4786 0.444654
103.804 -24.1314 0.943535
103.826 -24.1287 0.94343
107.693 -24.6985 0.890718
107.738 -24.6818 0.890615
107.79 -24.6985 0.890157
107.817 -24.7095 0.888899
141.343 -8.32476 -0.0729179
141.45 -8.20586 -0.0774213
141.544 -8.08623 -0.0808481
141.653 -7.96466 -0.0843405
142.142 -7.52875 -0.103095
142.287 -7.40135 -0.108743
142.394 -7.27653 -0.112195
140.669 22.8675 -0.23926
135.842 25.3167 -0.125413
122.22 10.0129 0.600315
114.608 8.43389 0.847613
114.582 8.45294 0.846945
113.102 8.87765 0.869483
101.937 40.5469 0.0732728
101.209 42.9807 0.0052451
101.291 39.6053 0.103205
101.135 39.5978 0.103036
100.987 39.492 0.106903
77.9269 43.4404 -0.116726
79.2157 31.7423 0.184413
43.1851 14.24 -0.440826
63.0109 -19.4729 0.0251265
132.085 -20.6397 0.143485
132.073 -20.5865 0.145048
132.089 -20.4938 0.146825
132.129 -20.4107 0.146368
132.32 -20.1879 0.144351
132.358 -20.1046 0.143907
132.393 -20.0682 0.144047
132.473 -19.9992 0.142225
132.756 -19.707 0.136325
132.885 -19.654 0.132073
132.96 -19.5812 0.130319
133.066 -19.5684 0.126825
133.231 -19.5257 0.120269
133.222 -19.4233 0.123281
135.337 -16.3763 0.0915387
135.541 -16.3697 0.0834189
135.653 -16.2931 0.0794853
135.734 -16.2089 0.0778036
139.911 -3.22634 -0.196951
150.598 16.4825 -0.83448
150.522 16.8211 -0.835875
150.562 17.0377 -0.840079
150.45 17.1642 -0.837248
149.924 18.1104 -0.826351
149.976 18.3392 -0.832515
149.921 19.1984 -0.842159
142.452 17.2398 -0.494235
142.44 17.4102 -0.496574
121.484 6.69892 0.546573
102.181 40.27 -0.216749
102.02 40.331 -0.218248
101.846 40.6013 -0.227709
136.6 -5.74714 -0.221369
130.747 0.28609 0.0799549
139.513 6.10716 -0.435356
145.337 12.9663 -0.821925
145.959 14.4352 -0.875788
146.083 14.6839 -0.886181
146.43 15.0679 -0.909599
146.407 15.2321 -0.910928
146.252 15.2264 -0.903081
145.654 15.7474 -0.882748
145.483 15.8188 -0.876093
145.477 15.9046 -0.877252
145.086 16.551 -0.869946
145.069 16.7194 -0.872268
144.988 16.7574 -0.869447
144.496 18.3556 -0.876652
144.521 18.5612 -0.881874
102.111 41.2372 -0.543318
102.019 40.0586 -0.495804
101.939 40.0916 -0.496032
76.7366 -20.6795 0.0764119
129.282 -16.0373 0.066749
140.355 12.4133 -0.835269
140.673 14.5373 -0.898242
140.674 14.7029 -0.901699
140.791 14.9487 -0.913076
102.191 40.0968 -0.814462
102.038 40.0201 -0.810296
134.665 9.97436 -0.670143
136.922 11.7699 -0.844417
136.889 11.8222 -0.843738
136.805 11.9113 -0.841419
136.764 12.0305 -0.842065
136.725 12.1505 -0.842718
102.179 39.9583 -1.0727
102.021 39.9834 -1.07355
101.437 46.9418 -1.43711
118.148 -22.7948 0.182983
131.721 8.26696 -0.684074
131.82 8.45765 -0.695868
102.102 41.6845 -1.52214
102 40.6367 -1.45934
101.856 40.3867 -1.44485
119.568 2.00908 0.16377
112.357 7.35139 0.264477
102.172 40.1181 -1.6742
102.122 39.6218 -1.64255
101.961 39.7223 -1.64868
101.811 39.6046 -1.64092
101.664 39.4653 -1.63237
128.019 4.57899 -0.658145
128.027 4.68592 -0.662195
128.014 4.77792 -0.664254
127.995 4.86752 -0.666311
128.007 4.92648 -0.668827
127.998 5.02286 -0.671873
127.985 5.22082 -0.677949
121.657 1.17768 -0.07611
126.062 3.47454 -0.620147
126.044 3.55693 -0.622276
126.056 3.65833 -0.626396
126.064 3.75721 -0.63152
117.435 11.5415 -0.475757
116.927 1.18184 0.0613125
112.177 6.31667 -0.10418
117.82 -15.816 -0.00485613
104.313 7.06654 -0.186661
100.948 11.3896 -0.644779
93.4223 11.4333 -0.886832
108.038 3.42003 -0.0403195
108.627 6.15138 -0.360196
116.309 -13.8699 -0.0659088
115.684 0.791254 -0.479183
115.632 0.806961 -0.475734
108.429 3.27254 -0.354978
108.366 3.20477 -0.34325
108.796 4.47956 -0.635827
107.428 -9.7326 0.40721
107.439 -9.7169 0.403297
107.471 -9.68718 0.389386
103.664 -11.1638 0.688623
104.202 -8.54604 0.811005
104.232 -8.61333 0.842205
104.219 -8.59821 0.833421
103.658 -11.1552 0.610736
106.193 -11.0793 0.580776
106.189 -11.0677 0.585904
2.24836e-39 0 2.35972e-40
