ply
format ascii 1.0
element vertex 736
property float x
property float y
property float z
end_header
161.887 -6.34412 4.21806
151.563 -3.99377 3.8132
141.979 -1.72693 3.43972
138.589 6.10838 3.2844
132.597 7.88488 3.06512
150.28 21.3231 3.7237
150.328 21.594 3.72645
104.861 19.8815 2.26474
92.1751 34.6214 2.34044
90.7942 50.7787 2.71772
80.5784 45.1924 2.52038
80.3998 45.6912 2.53227
80.2337 45.7303 2.53233
64.4905 13.9326 1.90222
64.231 13.8428 1.9051
64.0047 13.8432 1.90929
63.9493 13.3267 1.90172
57.1799 14.9843 2.06576
57.0845 12.2596 2.03384
52.807 14.8066 2.16277
36.9835 17.2634 2.5824
36.9161 17.1186 2.58346
35.6716 17.129 2.61593
35.6489 16.9574 2.61539
35.0884 16.4141 2.62726
28.2909 17.0948 2.81495
28.9144 16.0244 2.79276
28.3367 14.1104 2.80186
27.9573 13.6732 2.81043
27.1727 13.0895 2.83087
27.0576 12.9365 2.83383
18.7042 15.3682 3.07628
10.4454 14.0416 3.31076
9.84311 13.7266 3.32844
10.0495 13.5462 3.32179
17.9541 -8.34116 3.18513
24.6894 -8.71089 2.98543
24.5698 -8.89564 2.99066
24.6613 -8.98264 2.98876
24.7218 -9.33996 2.99118
25.6019 -9.65527 2.96714
25.406 -9.84313 2.97513
25.3198 -10.0267 2.98046
24.9022 -10.2309 2.99481
21.5521 -10.722 3.10128
21.7641 -10.8982 3.09661
22.0009 -11.0708 3.092
15.899 -11.7223 3.28311
22.3645 -11.4215 3.08544
19.3253 -12.3546 3.18798
18.8374 -12.5982 3.20543
18.8982 -12.7929 3.20539
19.2277 -12.9598 3.19806
45.0689 -11.8021 2.40671
52.2932 -12.872 2.20803
54.2643 -13.1472 2.15352
54.2798 -13.5576 2.16025
27.4035 -20.3737 3.06363
43.9881 -17.1811 2.52408
55.7915 -14.5088 2.13316
50.6869 -16.7271 2.32187
43.8882 -19.0326 2.56132
9.72524 -30.2011 3.75477
9.85262 -30.4104 3.7551
44.8597 -19.5611 2.54352
44.7962 -19.7135 2.54866
23.3616 -27.5152 3.31326
36.1461 -28.0237 2.96934
36.5871 -27.9925 2.95664
36.647 -28.1376 2.95915
12.07 -41.2418 3.93009
32.9795 -32.1721 3.15325
48.4759 -26.672 2.61114
53.841 -23.5954 2.39367
47.8684 -27.8398 2.65744
47.8792 -27.9818 2.66076
48.127 -28.4975 2.66826
19.8001 -49.9792 3.96094
121.728 -51.1374 3.78945
134.669 -54.994 4.27115
143.24 -56.4533 4.56678
143.509 -56.3517 4.57183
156.26 -33.0766 4.40063
157.46 -32.1747 4.42482
157.623 -32.0972 4.42971
131.165 7.3297 2.68898
123.383 8.71396 2.45684
149.775 21.5051 3.24025
141.24 18.1703 2.98772
92.185 25.8348 1.91621
93.5538 35.7216 2.10348
91.4265 59.933 2.51991
89.7252 62.8033 2.56012
80.7553 47.0579 2.22528
80.6026 46.3847 2.21277
80.4356 46.3896 2.21213
10.0618 -24.1355 3.16557
122.989 -40.5419 3.14295
106.139 -25.9575 2.34016
153.992 -31.6243 3.80751
156.839 -32.346 3.90412
157.545 -31.6628 3.91351
142.819 -21.4244 3.30225
142.824 -21.223 3.29947
142.839 -21.0251 3.29674
142.85 -20.8257 3.294
142.869 -20.6283 3.29129
142.876 -20.3294 3.28764
155.804 -4.56466 3.15939
120.293 1.29005 2.18936
135.545 7.70518 2.55821
134.909 8.70027 2.53903
94.3334 38.9238 1.94554
90.8886 40.6977 1.93937
91.3502 50.5838 2.07541
91.7432 59.5198 2.19973
89.9224 60.2467 2.19772
82.6858 48.3906 1.9972
80.6145 44.8842 1.94224
80.5265 45.1354 1.94468
20.4507 -20.8604 2.5782
134.873 -37.844 3.0981
156.345 -31.9768 3.51303
156.547 -31.7847 3.51503
157.324 -31.519 3.53042
142.323 -21.4634 2.99482
142.293 -21.256 2.99186
142.263 -21.1487 2.98879
142.265 -20.9489 2.986
142.28 -20.752 2.98429
142.294 -20.5559 2.98158
142.313 -20.3607 2.9789
142.33 -20.1651 2.97721
142.341 -19.9687 2.97449
142.352 -19.8723 2.97366
142.381 -19.6794 2.97204
160.99 -16.3023 2.81106
155.342 20.507 2.441
154.673 21.3027 2.42548
149.05 20.4756 2.32885
110.761 9.41801 1.69252
91.7987 50.3587 1.63701
91.6197 50.3926 1.63607
82.784 47.8667 1.57723
81.5128 45.9354 1.56001
80.6138 45.4822 1.55386
80.3894 47.5942 1.56714
10.4206 -38.8182 2.45742
10.968 -38.8408 2.45257
147.341 -31.2843 2.74771
155.62 -32.3026 2.91034
147.058 -21.8961 2.61655
154.683 -19.6253 2.73037
95.6973 14.5281 1.34604
93.7516 39.2897 1.34116
81.1403 48.5302 1.29241
80.6977 45.3891 1.28699
80.5344 45.3429 1.28682
154.575 -19.7038 2.35167
156.44 19.6634 1.50943
106.237 21.6863 1.18142
95.976 14.3186 1.1729
96.5098 15.4954 1.16825
94.6575 42.073 0.998429
94.3755 41.6106 0.999569
92.859 36.2756 1.02498
88.0096 61.7808 0.856095
87.2696 63.4568 0.843436
86.4275 60.7818 0.855413
81.1252 46.3427 0.919944
80.9609 46.2199 0.92046
80.8668 46.7781 0.917121
80.7592 44.1384 0.931398
80.881 33.429 0.994824
20.6032 -8.29599 1.22007
129.903 -28.1151 1.75913
155.451 -31.7819 1.96303
147.484 -21.3927 1.80752
147.515 -21.292 1.80673
141.838 -19.8326 1.75542
143.032 -19.8938 1.76422
158.126 -19.9199 1.86423
151.896 21.3565 1.11204
98.8598 13.2109 1.0721
86.4139 66.3197 0.478711
80.9032 32.7867 0.811652
80.768 33.1447 0.807961
139.998 -29.3837 1.54446
142.015 -20.7426 1.47519
142.033 -20.5482 1.47351
142.032 -20.35 1.47173
147.286 -21.1061 1.48923
155.732 -22.11 1.51532
155.648 -21.8514 1.5127
90.9933 50.1172 0.299242
88.0694 60.9252 0.109943
86.3597 66.2367 0.0152398
80.8558 32.6672 0.562543
80.7973 32.5554 0.564336
24.0367 -10.8404 0.603077
117.595 -22.6422 1.1922
141.643 -21.4004 1.08975
141.566 -21.1832 1.08853
141.557 -20.9828 1.0877
141.527 -20.8764 1.08663
141.532 -20.6802 1.08589
141.543 -20.4857 1.08419
141.562 -20.2924 1.08252
141.588 -20.1023 1.08091
141.642 -19.9171 1.07945
158.123 -19.956 1.01051
156.185 -14.911 0.521363
160.662 -5.72651 0.397985
159.387 -5.49977 0.409412
156.37 -4.4978 0.431684
156.308 -4.26548 0.43038
150.622 -3.4858 0.482135
150.268 -3.28708 0.484092
149.967 -2.87377 0.483315
150.116 -2.65087 0.47985
153.45 1.057 0.407489
98.9554 13.7773 0.733345
98.943 13.8942 0.731252
92.5077 29.7666 0.408046
94.4815 42.6993 0.116148
91.7143 40.3876 0.168011
90.3796 54.6175 -0.158303
86.1695 62.2993 -0.343163
86.1781 66.244 -0.434494
85.9504 66.291 -0.435726
85.7217 66.3231 -0.436828
80.788 32.4345 0.325376
78.7599 9.97004 0.830524
116.736 -22.7747 0.961321
151.206 -31.0309 0.666112
154.051 -31.3938 0.640501
155.578 -28.9805 0.614309
156.612 -29.036 0.604489
157.971 -29.3113 0.591801
141.859 -21.5046 0.711432
142.432 -21.4439 0.704927
142.39 -21.2327 0.704884
142.209 -20.7903 0.703275
142.103 -20.6658 0.703781
142.156 -20.4795 0.7023
141.901 -19.8284 0.701557
151.44 -12.1486 0.0646748
159.948 -7.65567 -0.11929
97.1593 14.6546 0.542074
94.9188 12.9752 0.604147
87.4162 59.4453 -0.737159
86.6605 60.5989 -0.773193
86.578 60.9432 -0.783574
86.3747 61.1029 -0.788729
86.1441 60.8493 -0.781278
85.2248 66.4612 -0.951861
82.1869 37.7183 -0.10102
133.179 -27.7075 0.440093
133.44 -27.6259 0.436289
133.731 -27.5549 0.430689
133.998 -27.4733 0.426911
134.346 -27.4216 0.420687
134.652 -27.3506 0.416138
134.99 -27.2914 0.41081
136.032 -23.1318 0.385241
146.151 -22.1957 0.212892
144.023 -21.4766 0.245867
141.748 -20.7374 0.281138
142.273 -20.4617 0.270536
143.422 -20.4197 0.251252
144.035 -20.3518 0.240827
144.056 -20.1517 0.239108
144.063 -19.9496 0.238322
139.44 -14.3681 -0.00918573
139.162 -14.1489 -0.00414205
140.552 -11.6291 -0.0507783
140.213 -11.4165 -0.0448881
140.269 -11.0527 -0.0489507
140.455 -10.6977 -0.0554717
94.9659 12.6189 0.493503
86.4603 61.6341 -1.1552
86.258 61.8491 -1.16285
86.0019 61.1679 -1.13966
85.8941 61.1704 -1.14006
85.0455 66.4597 -1.3275
84.8168 66.4988 -1.32867
84.7016 66.5195 -1.33027
82.6208 40.2074 -0.413798
82.4469 37.6152 -0.32418
81.1091 27.3315 0.0312447
72.6269 12.7911 0.456371
98.9212 -19.8739 0.848847
99.0176 -19.8636 0.847098
123.795 -26.6694 0.349349
123.935 -26.4948 0.346284
124.002 -26.365 0.345361
138.117 -17.2693 0.0341049
131.1 -13.2931 -0.12354
131.102 -13.1359 -0.123941
131.015 -12.9687 -0.122749
130.997 -12.8882 -0.122538
131.053 -12.7388 -0.124674
131.032 -12.5791 -0.125181
131.114 -12.4323 -0.128205
131.141 -12.2796 -0.129477
131.194 -12.1287 -0.131641
131.294 -11.9825 -0.135595
131.326 -11.9083 -0.137147
131.37 -11.7561 -0.139354
131.438 -11.6052 -0.141467
131.478 -11.4524 -0.143693
131.558 -11.3033 -0.146743
131.608 -11.151 -0.14993
131.624 -10.9946 -0.151276
131.666 -10.9199 -0.152796
131.692 -10.7651 -0.154089
131.765 -10.6129 -0.157195
131.836 -10.4616 -0.160297
131.894 -10.3082 -0.163467
131.904 -10.1511 -0.164837
131.937 -9.99522 -0.166119
131.961 -9.839 -0.168435
132.004 -9.76342 -0.169958
131.837 -9.5958 -0.166055
131.888 -9.44148 -0.169258
132.461 -8.83642 -0.189639
132.992 -8.29691 -0.208585
133.171 -8.14197 -0.215336
133.324 -7.9843 -0.221204
133.476 -7.82648 -0.227076
133.627 -7.74827 -0.23124
134.69 -6.77561 -0.270172
135.495 -6.18783 -0.298576
135.601 -6.01833 -0.302717
135.728 -5.84773 -0.307795
135.899 -5.67553 -0.314728
136.009 -5.58834 -0.319119
136.099 -5.41655 -0.323336
136.255 -5.24205 -0.329346
136.403 -5.06655 -0.33539
136.464 -4.89343 -0.338727
136.608 -4.71721 -0.344794
136.75 -4.53986 -0.349875
135.713 2.68863 -0.410365
135.809 2.87978 -0.415736
135.549 3.00724 -0.410802
135.808 3.22849 -0.420865
135.912 3.42358 -0.427244
136.121 3.55088 -0.434639
119.42 0.993144 0.0688093
116.905 1.62693 0.128169
98.0783 8.29073 0.446383
93.7472 42.2441 -0.781431
92.6479 38.305 -0.619033
89.9669 38.5954 -0.623188
88.0575 58.4828 -1.43128
87.8512 58.4884 -1.43207
84.8755 66.4503 -1.76205
84.6466 66.4813 -1.76414
84.4172 66.5084 -1.7662
83.2477 38.2175 -0.609739
81.0019 23.8665 -0.0290839
72.6511 12.6956 0.331307
72.6275 12.5879 0.335189
126.36 -19.2889 0.0233208
126.62 -19.2103 0.0165422
130.223 -15.1931 -0.0906337
130.293 -15.0496 -0.0936689
130.33 -14.8994 -0.0948845
130.386 -14.8308 -0.0972987
130.425 -14.6808 -0.0985046
129.55 -2.46377 -0.482143
129.736 -2.3715 -0.489307
129.614 -2.23156 -0.486997
130.737 1.6986 -0.581227
130.783 1.78591 -0.583846
130.868 1.9584 -0.590087
106.704 10.577 -0.0023984
106.609 10.6261 -0.00217669
93.0068 38.387 -0.928503
90.4937 54.1115 -1.65643
88.3428 60.056 -1.93539
84.6783 66.5232 -2.24642
84.447 66.5243 -2.24626
83.1293 37.613 -0.875755
81.736 27.9625 -0.422199
72.661 12.7799 0.186581
11.8245 -9.04068 -1.70667
12.8658 -9.22411 -1.66131
12.7865 -9.44405 -1.66263
15.7208 -10.9986 -1.52823
11.8767 -12.5744 -1.67981
19.1613 -15.6644 -1.36015
118.543 -19.456 -0.019033
118.512 -19.3172 -0.0183856
118.486 -19.18 -0.0167106
118.485 -19.0516 -0.015864
119.119 -17.5347 -0.033204
119.149 -17.4168 -0.0341532
119.213 -17.3088 -0.0358924
119.33 -17.2157 -0.0403085
120.489 -15.4788 -0.0777512
120.602 -15.4407 -0.0816882
120.646 -15.1954 -0.0837317
120.72 -15.0838 -0.0864693
119.721 -12.1606 -0.285237
119.721 -12.0402 -0.285318
119.713 -11.9179 -0.285442
119.714 -11.8573 -0.284982
121.851 -5.09835 -0.419956
121.93 -4.97038 -0.423821
122.045 -4.83853 -0.430594
122.143 -4.70721 -0.435422
122.221 -4.63977 -0.439747
122.262 -4.5113 -0.442754
124.644 0.581102 -0.610917
101.091 10.7938 -0.0153385
90.4945 38.892 -1.21599
88.8514 64.0666 -2.54755
86.7073 60.6868 -2.36789
84.5835 66.6635 -2.68904
18.2382 -1.60678 -1.88946
18.0517 -1.79307 -1.89545
17.9079 -1.98452 -1.90025
21.5831 -8.62458 -1.65763
99.2023 -20.1727 0.438507
110.647 -22.0219 0.0228347
119.756 -12.2868 -0.285983
102.567 3.99207 0.0388847
92.0177 15.6189 -0.167921
89.0587 11.1626 0.125494
93.9097 42.4986 -1.71618
91.1335 65.5089 -3.04537
88.712 56.7724 -2.52567
88.5185 56.8529 -2.53008
84.4238 66.6628 -3.11062
26.8817 -1.98394 -1.78728
27.8673 -8.36974 -1.66753
99.0828 -20.0665 0.320124
92.8162 9.2002 0.0324651
95.3682 45.1916 -2.22414
94.2002 41.2976 -1.96439
90.0679 41.1393 -1.92069
110.757 -13.4518 -0.280603
110.277 -5.58943 -0.434787
110.339 -5.49736 -0.439392
98.1642 5.56592 -0.0839128
84.9376 59.9045 -3.48923
84.9952 66.4216 -3.95046
84.536 66.4809 -3.95463
99.2277 -19.0436 0.0884608
107.666 -10.4319 -0.434686
98.1749 10.8644 -0.520385
84.5847 66.3817 -4.45759
83.1428 38.254 -2.27152
80.7501 21.2599 -0.958661
107.7 -10.6026 -0.437036
107.67 -10.5154 -0.434924
106.023 -7.70091 -0.45302
94.3694 0.700276 0.137189
92.2242 42.1647 -2.86124
89.9051 65.7254 -4.77277
87.6329 66.0616 -4.79288
84.9469 59.9075 -4.28226
80.729 21.1164 -1.08546
54.0386 -11.9806 -0.920887
95.7207 -18.807 0.0358438
102.056 -17.9207 -0.295544
104.283 -11.67 -0.333638
104.299 -11.637 -0.334878
92.6311 34.5224 -2.52928
91.4238 56.7906 -4.46926
90.1051 62.8846 -4.9996
89.8836 62.8903 -4.99844
87.556 62.8095 -4.98201
87.4515 62.869 -4.98692
84.9021 53.4889 -4.14689
82.2575 31.7925 -2.21375
95.3282 41.2091 -3.43964
96.2266 45.0723 -3.81209
89.3058 56.2473 -4.76995
89.2022 56.2229 -4.7671
89.0033 56.2375 -4.76694
84.3628 44.3107 -3.62152
90.3321 40.597 -3.59097
89.6767 38.9895 -3.42388
88.0121 39.1957 -3.42766
87.94 39.2071 -3.42802
87.7959 39.2239 -3.42869
86.8553 39.3365 -3.43305
86.7104 39.3544 -3.43372
86.5675 39.3862 -3.43652
86.421 39.3932 -3.4361
86.2776 39.422 -3.43887
86.1333 39.4439 -3.43958
86.061 39.4543 -3.44093
84.8312 39.648 -3.45605
84.6841 39.644 -3.45554
84.5396 39.6649 -3.45724
81.9749 31.5488 -2.6406
93.2911 -19.5814 -0.190882
89.864 40.4177 -3.87204
90.146 48.5097 -4.7336
90.0384 48.3809 -4.71883
89.8593 48.3653 -4.71533
89.6714 48.2824 -4.70426
89.4995 48.3164 -4.70617
89.3146 48.2532 -4.69827
89.1465 48.3138 -4.70341
88.9736 48.3338 -4.7032
88.7896 48.2705 -4.69529
88.7113 48.3505 -4.70329
88.5342 48.3417 -4.70084
88.026 48.5019 -4.71409
87.8509 48.5141 -4.71382
87.676 48.5202 -4.7135
87.5886 48.5237 -4.71284
87.4105 48.501 -4.71027
87.242 48.5657 -4.71545
87.07 48.6057 -4.71942
86.892 48.5839 -4.71586
86.713 48.5411 -4.71011
86.5378 48.5382 -4.70871
86.3661 48.5802 -4.7127
85.7486 48.4957 -4.70114
85.5706 48.4457 -4.69533
85.392 48.3776 -4.68835
85.2053 48.1633 -4.6641
80.6876 21.0378 -1.76393
90.7874 40.3515 -4.17217
90.694 40.258 -4.15966
90.4167 40.4151 -4.17406
90.2596 40.3904 -4.1684
89.867 42.2056 -4.36608
89.8506 45.2071 -4.70305
89.6794 45.1763 -4.69739
89.5486 45.4244 -4.72408
89.3829 45.4382 -4.72379
89.2993 45.4402 -4.72311
89.139 45.4845 -4.72608
88.9712 45.4836 -4.72366
88.8153 45.5656 -4.73196
88.6487 45.5735 -4.73062
88.3159 45.5843 -4.7289
88.1518 45.61 -4.73072
87.9025 45.6187 -4.72968
87.7375 45.6375 -4.73044
87.5709 45.6313 -4.72798
87.4059 45.6501 -4.72973
87.237 45.628 -4.72514
87.0723 45.6417 -4.72585
86.9895 45.6496 -4.72621
86.8224 45.6395 -4.72472
86.6573 45.6441 -4.72335
86.4922 45.6548 -4.72403
86.3264 45.6687 -4.72475
86.1594 45.6524 -4.7222
85.5622 45.3944 -4.69001
85.399 45.419 -4.69281
81.8866 31.1123 -3.07102
67.1957 -16.6436 -0.594203
88.7918 42.9608 -4.76769
88.5837 43.1978 -4.79356
88.4219 43.1828 -4.79
88.2707 43.2481 -4.79613
88.112 43.2548 -4.79575
87.9585 43.3043 -4.79974
87.3989 43.2912 -4.79362
86.9344 43.4189 -4.80442
86.777 43.4345 -4.80512
86.6178 43.4373 -4.80471
86.4572 43.4242 -4.80217
86.3765 43.4035 -4.79927
86.2181 43.4194 -4.79998
86.0559 43.3741 -4.79415
85.5762 43.3132 -4.78431
85.4156 43.2788 -4.77957
85.3325 43.2212 -4.77235
89.5789 -19.0232 -0.238113
88.9643 40.6501 -4.78937
88.8262 40.7428 -4.79969
88.688 40.8485 -4.81113
87.8719 41.0179 -4.82256
87.7174 41.0049 -4.81899
87.1225 41.1322 -4.82925
86.6036 41.2747 -4.84338
86.4548 41.3073 -4.8462
86.3036 41.3171 -4.84583
86.1451 41.2552 -4.83784
86.0702 41.268 -4.83822
85.9122 41.1889 -4.82807
85.455 41.165 -4.82249
85.3028 41.1537 -4.81993
82.2936 33.693 -3.87674
80.8026 19.5916 -2.10557
89.6206 37.9146 -4.71851
89.4813 37.9499 -4.72132
89.4173 37.9965 -4.72597
89.2803 38.0415 -4.72986
89.1397 38.0679 -4.7306
89.0016 38.1121 -4.73449
88.8618 38.1373 -4.73521
88.7258 38.1963 -4.74122
88.5918 38.2682 -4.74835
88.5278 38.3218 -4.75506
88.3907 38.38 -4.76006
88.2502 38.4074 -4.76181
88.1045 38.3991 -4.75926
87.961 38.4128 -4.75889
87.8173 38.4113 -4.75739
87.6723 38.4081 -4.75488
87.5983 38.3925 -4.752
87.4519 38.3793 -4.7484
87.3079 38.3759 -4.74689
87.1631 38.3666 -4.74432
87.0199 38.3751 -4.7439
86.8838 38.4402 -4.75097
86.746 38.5005 -4.757
86.6782 38.5416 -4.76161
86.5383 38.5799 -4.76546
86.3988 38.6213 -4.77032
86.2556 38.6369 -4.77097
86.1132 38.6444 -4.77055
85.9676 38.6371 -4.769
85.824 38.6296 -4.76645
85.6798 38.6242 -4.76491
85.6094 38.6475 -4.76737
85.4673 38.6639 -4.76903
85.3251 38.6794 -4.77067
85.1824 38.699 -4.77236
82.3466 33.751 -4.11608
80.6816 20.5979 -2.39104
79.7102 10.7479 -1.10915
96.0109 -1.90308 -0.669666
89.0484 35.9062 -4.66954
88.9172 35.9494 -4.6734
88.853 35.9738 -4.67485
88.7253 36.0407 -4.6819
88.5926 36.073 -4.68466
88.4619 36.1191 -4.68854
88.334 36.185 -4.69559
88.1984 36.2046 -4.69625
88.0637 36.223 -4.69689
87.996 36.2369 -4.69726
87.8592 36.2415 -4.69679
87.7223 36.2522 -4.69637
87.5864 36.2627 -4.69495
87.4523 36.2851 -4.69663
87.3142 36.2808 -4.69408
87.1779 36.2955 -4.6947
87.0409 36.2981 -4.69321
86.9717 36.2879 -4.69137
86.8359 36.2995 -4.69195
86.7041 36.3518 -4.69689
86.5725 36.4061 -4.70385
86.4387 36.4376 -4.70661
86.3016 36.4402 -4.70512
86.1666 36.4567 -4.70675
86.0986 36.4615 -4.70703
85.9618 36.4661 -4.70656
85.8248 36.4687 -4.70507
85.6907 36.4982 -4.70882
85.5539 36.5098 -4.70941
85.4182 36.5214 -4.70999
85.282 36.537 -4.71062
85.2147 36.5467 -4.71195
85.0786 36.5623 -4.71357
84.9425 36.5719 -4.71414
84.8094 36.6224 -4.72007
84.6732 36.6309 -4.72063
84.5368 36.6516 -4.7223
84.402 36.6903 -4.72713
84.3338 36.6941 -4.72741
84.199 36.7256 -4.73217
82.4558 34.2664 -4.39432
82.3851 33.661 -4.31114
80.7781 20.5898 -2.52963
80.7139 20.1056 -2.46351
86.1548 34.0539 -4.66525
86.0267 34.0694 -4.66585
85.9012 34.1097 -4.67066
85.7728 34.1232 -4.67123
85.71 34.1434 -4.67364
85.5828 34.1719 -4.67635
85.3263 34.2079 -4.67958
84.2305 34.2944 -4.68626
84.1024 34.317 -4.68892
84.0382 34.3202 -4.68918
83.9087 34.3328 -4.69075
83.1361 34.4746 -4.70978
83.0726 34.5039 -4.71427
82.9394 34.3799 -4.69563
82.8094 34.326 -4.68861
82.679 34.2842 -4.6827
82.5491 34.2525 -4.67788
82.4204 34.2428 -4.67725
82.2883 33.7644 -4.60843
75.8159 6.24835 -1.1227
82.1338 -17.5754 -0.336619
90.7618 -0.94108 -0.741993
86.2438 -9.8578 -0.607162
47.7435 -3.32236 -12.0884
47.7379 -3.43066 -12.0855
47.4509 -3.51134 -12.1918
84.5049 -6.67916 0.129187
84.5229 -6.6596 0.121075
81.0108 -5.19617 0.368457
119.356 -11.2169 -15.3947
119.369 -11.0996 -15.3957
119.346 -10.9779 -15.3809
119.318 -10.8565 -15.3641
81.2559 -5.44097 0.461529
81.2982 -5.53157 0.506494
81.2914 -5.52255 0.501389
81.0089 -7.76403 0.529474
81.2295 -5.47058 0.4507
81.0329 -5.1305 0.266943
81.239 -5.4951 0.461954
81.2281 -5.48651 0.455838
81.1979 -5.44495 0.432357
81.1704 -5.4048 0.409898
81.1351 -5.35649 0.381338
81.1267 -5.35226 0.37827
81.1377 -5.38002 0.391559
81.1341 -5.38453 0.392586
81.1468 -5.41454 0.407901
81.0358 -5.24873 0.315015
81.16 -5.55236 0.466186
81.1392 -5.59071 0.475456
81.0137 -7.81552 0.497951
83.278 -7.92565 0.356998
83.7324 -5.92406 0.229671
83.2674 -8.00021 0.319627
83.2514 -7.97759 0.331368
83.28 -7.95447 0.329263
-42.4143 1.15033e-41 0
