ply
format ascii 1.0
element vertex 548
property float x
property float y
property float z
end_header
138.421 -4.38609 3.73537
135.5 -2.44549 3.62561
136.776 0.128534 3.66971
138.475 5.08541 3.73423
137.933 5.27592 3.71556
102.958 13.1248 2.52143
108.9 31.1256 2.96799
94.3335 22.9104 2.38684
94.0995 22.9037 2.3803
94.1247 23.0971 2.38498
69.3734 13.2796 1.52647
52.4446 12.4704 1.41738
16.0349 14.5742 2.32388
8.68307 16.6254 2.55827
0.846542 17.4305 2.7959
24.1435 -9.38014 2.00755
22.7437 -16.3794 2.12268
21.1077 -18.7319 2.20229
13.5514 -25.6725 2.52653
31.909 -18.8015 1.89837
31.8798 -18.9872 1.90265
38.3409 -17.6985 1.70668
130.905 -30.3985 3.67748
132.246 -28.4489 3.69694
121.546 -20.0073 3.22596
121.538 -19.9013 3.22474
121.558 -19.6982 3.2234
121.592 -19.4978 3.22209
121.6 -19.2921 3.22071
121.624 -19.0905 3.21938
121.657 -18.8911 3.21808
121.669 -18.6879 3.21671
121.647 -18.5789 3.21445
122.002 -18.4565 3.22607
136.291 -1.33022 3.16535
134.785 -0.781116 3.11968
109.155 32.9918 2.617
94.4342 23.1123 2.1147
6.96116 20.8031 2.28908
-3.03924 -30.1409 2.63831
-3.64176 -30.5134 2.65658
90.9879 -22.3994 1.99318
130.716 -30.5655 3.18934
129.316 -29.7855 3.14148
130.32 -29.2756 3.16391
131.567 -28.9612 3.19529
130.92 -28.1045 3.16709
120.844 -20.3155 2.80087
120.852 -20.1107 2.79849
120.847 -19.9031 2.79708
120.865 -19.7018 2.79573
120.85 -19.5938 2.79449
120.858 -19.3911 2.79312
120.876 -19.1896 2.79177
120.875 -18.9837 2.78938
120.924 -18.7904 2.78912
120.981 -18.6004 2.78989
121.801 -18.2816 2.81024
122.491 -18.2358 2.83081
133.28 -19.4047 3.15498
136.625 -19.6146 3.25442
122.677 9.52913 2.46972
88.7807 13.3907 1.68186
108.828 32.9225 2.31935
108.985 33.5229 2.32957
109.049 33.815 2.33416
97.39 25.4856 1.99622
61.8555 11.8002 1.20227
61.4676 11.8568 1.20123
52.3942 12.0046 1.21415
102.777 -24.0664 2.10671
104.141 -24.2825 2.1404
106.225 -24.5345 2.19189
131.104 -31.5469 2.85017
121.727 -27.2211 2.58431
120.995 -19.0711 2.49483
121.016 -18.6652 2.4921
138.46 7.26178 2.25299
138.435 7.5105 2.25245
122.598 9.06782 1.97841
108.932 33.2065 1.85705
109.018 33.5127 1.86066
109.084 33.8065 1.86325
109.154 34.1047 1.86685
109.241 34.4169 1.87045
97.501 25.5599 1.63534
121.446 -26.7043 2.07163
125.077 -27.0066 2.13393
130.4 -27.9054 2.22945
125.548 -21.0238 2.10353
125.68 -20.8357 2.10448
127.248 -21.0169 2.1326
127.383 -20.5973 2.13211
127.4 -20.4885 2.13194
120.714 -18.4161 2.00589
122.187 -18.1485 2.02991
110.821 34.7513 1.5676
110.903 35.0651 1.57019
110.991 35.3843 1.57179
111.039 35.6774 1.57434
111.203 36.0598 1.577
86.1971 -18.3808 1.27192
86.239 -18.2947 1.27186
95.2115 -23.0565 1.40559
106.536 -21.2285 1.52526
106.592 -21.0806 1.52511
110.735 9.28649 1.1355
53.3173 -18.5132 0.935217
53.3462 -18.5081 0.935277
65.3132 -19.3002 0.967543
74.3917 -20.2509 1.00818
84.8914 -21.3255 1.06347
86.2784 -18.3135 1.05899
113.472 -25.6251 1.22639
116.8 -26.2507 1.24559
120.191 -26.7133 1.26563
127.866 -27.8057 1.31017
128.864 -28.0368 1.31601
131.413 -28.4277 1.33089
135.052 -28.8885 1.35152
120.334 -20.3024 1.24761
120.46 -20.1307 1.24758
120.492 -19.9343 1.24728
120.514 -19.7345 1.24695
120.526 -19.5321 1.24659
120.529 -19.4307 1.2464
120.544 -19.2299 1.24605
120.535 -19.0228 1.24463
120.573 -18.8281 1.24434
120.564 -18.6221 1.24392
136.637 -19.2661 1.33377
87.7404 10.5231 0.860892
78.9163 13.389 0.843174
85.0703 -21.3479 0.916939
86.2839 -18.2236 0.914829
86.3352 -18.1428 0.914796
98.3133 -18.3844 0.927028
120.396 -20.0883 0.950347
120.286 -19.8543 0.94963
120.247 -19.6392 0.949123
120.272 -19.4418 0.948802
120.285 -19.2407 0.948445
120.283 -19.1385 0.948243
120.288 -18.9363 0.947865
120.368 -18.7523 0.947701
120.385 -18.5539 0.947361
133.363 -19.0451 0.959475
138.414 -1.70011 0.432155
138.478 -1.45046 0.430828
138.151 -0.964054 0.432103
98.1767 10.8664 0.608291
97.8595 10.8862 0.609492
89.6901 9.81154 0.654945
78.9133 13.4003 0.679144
67.801 17.432 0.669683
73.1689 -20.1118 0.764973
85.7948 -18.4412 0.722073
86.4255 -18.1876 0.720098
116.615 -26.0996 0.564856
125.365 -27.4165 0.520407
128.717 -27.8931 0.503377
127.229 -27.1313 0.511334
127.331 -26.9282 0.511188
131.861 -28.3595 0.486827
133.738 -28.4806 0.477567
134.903 -28.6083 0.471612
120.684 -20.2177 0.547284
121.136 -20.1327 0.545207
121.037 -19.8982 0.545516
120.722 -19.6093 0.547203
120.216 -19.2724 0.550339
120.816 -19.2224 0.546682
120.881 -19.1364 0.546672
120.947 -18.9475 0.546466
120.405 -18.4058 0.54912
120.758 -18.2871 0.547739
122.479 -18.1773 0.538661
136.646 -19.299 0.463846
131.551 -1.00277 0.0253256
131.441 -0.780958 0.0256332
131.383 -0.556222 0.0260621
131.314 -0.332847 0.0264641
131.204 -0.112162 0.0267759
131.185 0.113416 0.0262956
131.204 0.226971 0.0261209
131.477 0.468504 0.0223105
116.286 7.04724 0.174144
90.6125 9.81536 0.442152
108.596 33.2995 0.0540511
108.815 33.7069 0.0477908
108.74 33.8946 0.04625
78.889 13.367 0.521149
72.8763 17.6249 0.507498
67.7811 17.4385 0.530622
54.7414 18.9532 0.491385
54.7124 18.7392 0.493729
54.676 18.5675 0.496972
44.3319 -2.94004 0.619606
114.667 -24.9835 0.212024
107.757 -21.186 0.298107
107.762 -21.0161 0.297791
120.158 -21.0493 0.162624
120.434 -20.9212 0.160039
121.139 -20.9107 0.151712
122.06 -20.9569 0.142013
122.852 -20.9622 0.132924
123.919 -21.0363 0.120631
124.708 -21.1391 0.111723
122.615 -20.1531 0.136796
120.559 -19.2053 0.16103
122.076 -19.0689 0.14441
122.755 -18.8148 0.137551
123.241 -8.18546 -0.310781
132.931 -2.52576 -0.498425
116.784 0.312727 -0.206674
112.474 1.10987 -0.130562
90.5579 10.0182 0.204628
108.821 33.4036 -0.378611
109.242 33.9641 -0.392681
109.323 34.271 -0.398078
78.9278 13.4119 0.339155
78.9421 13.532 0.337957
72.934 17.5856 0.332712
54.7824 19.0443 0.328308
54.7495 18.8459 0.332611
54.7209 18.6349 0.336949
35.9259 16.8159 0.119319
101.968 -22.8521 0.0284152
103.937 -18.9613 0.0176417
104.834 -19.1122 0.00108643
108.729 -19.1578 -0.0674712
115.049 -17.661 -0.174182
115.745 -17.6494 -0.186533
116.068 -16.1331 -0.18768
116.439 -15.1863 -0.192616
116.625 -15.0369 -0.195458
116.726 -13.7518 -0.194692
116.984 -13.6113 -0.199343
117.216 -13.4651 -0.203069
113.095 -9.79982 -0.400033
113.274 -6.92167 -0.403156
112.972 -6.73447 -0.396241
120.906 -2.07203 -0.591178
96.8723 3.88625 -0.0523838
91.3433 8.55011 0.0303448
109.02 33.4891 -0.699299
91.2483 20.3414 -0.140622
94.4193 22.9036 -0.243949
94.3582 22.9442 -0.243174
94.0398 22.8733 -0.236802
72.888 17.638 0.2035
64.3109 17.2121 0.281723
64.2507 17.2525 0.281501
64.2079 17.3683 0.278175
54.7076 18.9442 0.21232
54.7117 18.7509 0.217703
54.6681 18.6156 0.220859
95.497 -21.8573 -0.0640433
107.568 -16.4648 -0.291454
108.071 -16.435 -0.302305
108.31 -16.3343 -0.306923
109.904 -15.1516 -0.339378
109.046 -12.4398 -0.309667
104.893 -9.67238 -0.479977
104.889 -9.52646 -0.479269
105.01 -9.39648 -0.48223
105.101 -9.2626 -0.485268
105.159 -9.12402 -0.486398
105.023 -8.16513 -0.480572
105.063 -8.02426 -0.481747
105.102 -7.95582 -0.482786
105.153 -7.81643 -0.483932
105.131 -7.66909 -0.48327
105.099 -7.52152 -0.48263
105.172 -6.44461 -0.483531
105.494 -5.23185 -0.494097
105.718 -5.16633 -0.500686
105.884 -5.0264 -0.505556
106.081 -4.88555 -0.511356
106.304 -4.74423 -0.518093
106.403 -4.59926 -0.521133
106.554 -4.45521 -0.526049
106.746 -4.30972 -0.531868
106.944 -4.2376 -0.537533
107.121 -4.09109 -0.54339
108.25 -3.25922 -0.578283
108.439 -3.10414 -0.584129
111.232 -0.958997 -0.673557
110.353 -0.201022 -0.65013
110.296 -0.0448785 -0.64957
110.398 0.0431152 -0.652492
109.963 0.49072 -0.641402
109.996 0.653735 -0.643637
109.852 0.801346 -0.640266
109.896 0.965002 -0.641478
109.713 1.02805 -0.637037
109.57 1.17368 -0.633663
91.5089 20.3683 -0.38305
91.2832 20.3565 -0.377569
91.2282 20.4719 -0.378923
94.2441 22.9239 -0.50141
72.8673 17.5568 0.0566059
64.1228 16.2172 0.18819
64.2838 17.1812 0.155717
64.2424 17.2999 0.152389
64.1794 17.3266 0.151186
64.1115 17.3317 0.152013
54.7481 19.0243 0.0732625
54.7251 18.7802 0.080678
54.6909 18.5951 0.0869529
-10.8848 15.2278 -1.66804
-12.5175 15.1825 -1.72188
-14.3489 15.4134 -1.78472
79.2856 -21.0094 0.10339
93.7876 -16.9818 -0.204551
101.924 -11.8109 -0.399983
101.942 -11.6761 -0.400199
104.928 -10.9184 -0.48449
104.907 -10.7692 -0.482828
104.906 -10.6227 -0.482114
104.95 -10.4823 -0.483279
104.938 -10.3344 -0.482593
104.907 -10.1838 -0.480958
104.903 -10.038 -0.481248
104.898 -9.96467 -0.480402
104.876 -9.81534 -0.479743
75.9997 2.9713 0.207256
79.4426 8.25953 -0.00467502
79.2696 8.24161 0.000944171
64.1138 16.1183 0.0593582
64.3334 17.1945 0.0148102
64.2774 17.2505 0.0135677
64.2339 17.3613 0.00924947
64.1561 17.3234 0.0111357
64.0703 17.2483 0.0140744
54.7316 18.9668 -0.0766668
54.7109 18.7173 -0.0672354
54.6621 18.6028 -0.0631319
50.62 16.0233 -0.0208647
42.5312 16.5813 -0.227367
96.0839 -13.7594 -0.491252
97.351 -11.6475 -0.520281
96.8604 8.31073 -0.812948
96.8473 8.37103 -0.814096
90.9423 8.60245 -0.583722
89.9708 19.7182 -0.813492
73.1922 18.265 -0.291981
64.1452 16.2581 -0.0678366
64.2955 17.1732 -0.11124
64.2564 17.3016 -0.116582
2.06934 15.3236 -1.99412
-10.7117 14.7518 -2.56171
-10.8421 14.6685 -2.56687
-12.1192 14.5216 -2.62365
-2.19831 -6.03488 -2.02018
-2.43597 -6.33672 -2.03117
-1.24792 -7.71869 -1.97665
81.4962 -19.0904 -0.249003
93.4795 -11.7638 -0.593355
93.4514 -11.1373 -0.586631
93.3856 -0.440861 -0.770416
93.431 -0.328954 -0.772523
93.0438 7.26774 -0.847103
93.0722 7.33554 -0.850165
93.0571 7.44758 -0.851418
93.0526 7.56323 -0.852652
92.99 7.65952 -0.851988
92.9454 7.76244 -0.851293
92.8847 7.85845 -0.850624
92.8676 7.97076 -0.851881
91.6715 8.58704 -0.809942
79.2119 8.30247 -0.268313
1.54266 14.364 -2.35054
1.18441 14.2743 -2.36722
89.9483 7.23301 -0.91247
89.9297 7.33442 -0.91371
89.8858 7.42716 -0.912995
89.8524 7.52351 -0.91426
89.7861 7.60719 -0.912581
89.6272 7.65598 -0.905057
7.56002 10.4909 -2.32462
7.3062 10.4718 -2.33919
87.8743 6.79144 -0.959599
87.8589 6.88637 -0.960819
87.7937 6.96383 -0.959125
87.8094 7.0717 -0.962296
76.573 10.8001 -0.505468
63.7254 11.4983 -0.124666
20.6732 -6.48669 -1.62638
82.2467 -14.036 -0.610949
84.0801 -1.33639 -0.783037
84.1112 -1.25584 -0.786118
85.682 6.09444 -1.01552
86.9818 12.1806 -1.28314
87.0315 12.3242 -1.29129
87.019 12.4329 -1.29453
76.2345 10.8609 -0.647399
54.9564 13.5217 -0.396629
20.8672 9.45095 -2.05365
24.0038 4.4762 -1.73553
87.0067 12.7037 -1.46109
87.136 13.0172 -1.48138
64.7473 13.9386 -0.50692
64.6916 13.9522 -0.50708
64.6634 13.96 -0.507162
64.6038 13.959 -0.506304
64.5485 13.9756 -0.506469
64.491 13.9834 -0.505622
63.7318 11.5123 -0.312679
63.6227 11.6754 -0.322255
61.7894 5.00797 0.196202
61.7417 4.93877 0.202221
51.3406 13.5402 -0.585348
25.9662 6.28191 -1.80629
82.6449 4.71872 -1.07416
82.6376 4.79843 -1.07633
82.592 4.86415 -1.07457
82.5654 4.93637 -1.07477
64.2052 12.2249 -0.480917
64.0858 12.007 -0.461783
63.9059 11.5813 -0.424394
63.8152 11.4483 -0.412356
63.7582 11.5186 -0.416628
63.7525 11.6778 -0.428949
30.5542 11.9733 -1.86825
77.4492 -10.5956 -0.629105
81.2389 4.15036 -1.08844
81.1884 4.20969 -1.08568
72.7238 4.31938 -0.449214
64.7649 13.8632 -0.726733
64.202 12.1919 -0.573861
64.0782 11.9564 -0.550704
63.908 11.5577 -0.513344
63.8209 11.4363 -0.501319
63.7686 11.4303 -0.499433
63.7754 11.6362 -0.516814
54.5539 14.6322 -0.805738
31.4387 8.31338 -1.84207
69.8525 -16.4755 -0.510009
64.7511 13.7962 -0.828638
64.1973 12.1701 -0.669831
64.0933 11.9168 -0.644592
63.9322 11.5553 -0.608282
63.843 11.4261 -0.594247
49.1311 12.398 -0.940454
68.1616 -16.1818 -0.497637
68.6093 -16.2667 -0.526398
77.8012 -6.3335 -0.79348
64.7905 13.8835 -0.953712
64.7242 13.8633 -0.950832
64.1476 12.1293 -0.768872
64.0289 11.9093 -0.744733
63.8885 11.5217 -0.704322
70.9843 11.3163 -1.10689
70.9658 11.3884 -1.11207
69.9606 12.3995 -1.14144
64.849 13.8664 -1.06654
64.8048 13.8229 -1.06056
64.7522 13.8442 -1.06173
64.1725 12.1318 -0.870818
64.047 11.8915 -0.842656
65.0544 -16.2724 -0.544924
65.0934 -16.1485 -0.535069
65.2344 -16.1434 -0.540741
65.2928 -16.1665 -0.545556
65.3544 -16.1435 -0.545452
69.5369 10.793 -1.09135
65.03 13.8517 -1.19108
64.9717 13.8606 -1.18923
64.9124 13.8626 -1.18838
64.8587 13.883 -1.18855
64.8103 13.9208 -1.19174
64.0725 11.9434 -0.955695
65.1995 13.0839 -1.22219
65.1598 13.1408 -1.22739
65.1117 13.1725 -1.22957
65.0682 13.2168 -1.23276
65.0213 13.2504 -1.23494
64.9738 13.2871 -1.23712
64.9136 13.2821 -1.23526
64.8878 13.2927 -1.23534
64.8342 13.307 -1.2355
64.7847 13.3359 -1.23667
64.7248 13.3339 -1.23481
64.6749 13.3599 -1.23598
64.35 12.4908 -1.12609
44.0761 9.09291 -1.53122
44.0155 9.06276 -1.53431
43.9647 9.02322 -1.53636
62.9126 -15.6129 -0.56934
64.5169 12.4993 -1.2297
64.4699 12.5249 -1.23086
64.4184 12.5399 -1.23102
59.5018 6.45527 -0.443086
71.7615 3.3114 -1.12358
55.616 11.3187 -1.3578
63.7327 9.9596 -1.23369
63.6957 9.99186 -1.23584
63.6499 9.99605 -1.23496
63.6072 10.0089 -1.23508
63.5044 9.47283 -1.2533
63.4622 9.48158 -1.25241
52.0946 5.91515 -1.01684
52.0824 5.86939 -1.01278
52.0511 5.84738 -1.01281
52.0331 5.84075 -1.01384
63.0361 8.00538 -1.27559
63.0026 8.02606 -1.27771
62.012 4.68767 -0.762651
62.0161 4.67994 -0.825626
60.7729 4.83896 -1.06192
60.7602 4.84269 -1.06196
60.734 4.85027 -1.06303
63.1969 -7.48407 -0.990334
-13.7367 11.2931 -25.6244
61.9674 -3.48757 -0.23599
61.9775 -3.47987 -0.239981
61.9686 -3.47158 -0.237018
61.9947 -3.44285 -0.248011
58.5234 -2.07284 0.0410123
58.4678 -2.0522 0.0218387
58.4566 -2.04565 0.0167991
58.665 -2.34415 0.140876
58.5889 -2.51037 0.181014
123.429 -19.7092 -27.4542
123.461 -19.6107 -27.4573
58.7089 -2.29665 0.11189
58.752 -2.38719 0.157168
58.7443 -2.37707 0.15113
58.6902 -2.33753 0.106924
58.5235 -2.05179 -0.0450286
58.6867 -2.34109 0.107922
58.6759 -2.33156 0.100878
58.641 -2.28449 0.0747029
58.6185 -2.25724 0.0585962
58.5691 -2.18301 0.0173344
58.5829 -2.21512 0.0334294
58.5768 -2.21531 0.0314152
58.5857 -2.2387 0.0434817
58.5805 -2.24001 0.0424717
58.4621 -2.06568 -0.0541493
58.6208 -2.41791 0.120912
58.5826 -2.43191 0.115847
60.7768 -4.87601 -0.0791713
60.7437 -4.83618 -0.0553273
60.7403 -4.8246 -0.0503579
60.7336 -4.76917 -0.0304808
3.07459e-41 1.15033e-41 0
