ply
format ascii 1.0
element vertex 793
property float x
property float y
property float z
end_header
95.6225 12.9109 3.02209
95.3721 13.1225 3.01385
-27.2103 41.3905 2.22716
-29.7907 43.5313 2.32767
-30.8616 44.2481 2.36651
-34.6412 40.8339 2.40934
-30.7638 37.5213 2.25667
-27.2781 31.9369 2.08162
-30.0889 31.9774 2.1597
-32.3633 29.3707 2.19353
-32.233 27.6376 2.17087
-30.4417 25.1747 2.09237
-55.6807 24.326 2.87536
-58.1091 25.011 2.95655
-9.98599 -14.0965 1.53353
-0.573914 -14.5075 1.27489
-0.479458 -14.5225 1.27297
4.25794 -14.446 1.15397
54.8678 -19.8702 1.97254
80.4708 -32.3399 3.00707
48.6534 -13.1253 1.64597
47.9176 -12.6542 1.61424
89.4424 -15.5034 3.00249
89.484 -15.2749 3.00112
89.5217 -15.0453 2.99875
89.4978 -14.8031 2.9953
89.5871 -14.7028 2.99669
89.6208 -14.473 2.99532
89.6028 -14.233 2.99089
89.6098 -13.9971 2.98848
-37.6583 23.8834 1.92191
-42.8502 -19.5796 2.27108
-28.217 -19.0487 1.88421
77.2373 -21.3736 2.28994
80.9529 -22.4609 2.40201
88.0447 -15.5408 2.49587
88.1096 -14.0422 2.48091
39.4935 16.7509 0.95159
-31.7043 39.5528 1.61764
-56.6795 28.2325 2.05513
56.2729 -19.0882 1.5167
67.945 -19.7833 1.76951
71.3003 -20.3942 1.84977
76.1932 -20.8553 1.95996
81.1967 -21.258 2.07279
88.6137 11.1991 1.44109
88.7868 12.1517 1.44038
57.4736 14.7806 0.977284
35.7038 19.2918 0.706848
-36.9577 33.0999 1.18877
-50.7294 -19.1345 1.60832
68.266 -19.7422 1.36122
79.3017 -20.8874 1.53079
81.0317 -21.019 1.55637
91.2147 -22.6839 1.72115
92.1902 -16.4265 1.67366
93.9291 -16.2992 1.6977
87.2274 8.86194 1.0682
87.1674 9.07764 1.06592
74.1753 9.75179 0.935389
57.5007 14.7091 0.756704
35.6965 19.3083 0.568748
-51.5709 -18.5828 1.25111
80.0689 -21.0187 1.20348
96.5429 8.08249 0.608773
87.8364 11.827 0.561414
57.4226 14.6605 0.456998
43.8927 16.758 0.411031
24.9279 18.6615 0.365849
-27.5978 42.6677 0.35954
-30.2516 43.3938 0.36351
-29.0794 41.2547 0.368149
-31.3709 34.6431 0.400899
-35.08 23.4501 0.460173
66.456 -16.6335 0.671849
66.9021 -16.5221 0.672133
89.9996 -19.6399 0.76109
90.0624 -19.2882 0.758983
87.0291 -15.4677 0.724515
87.0277 -15.2374 0.722141
87.0651 -15.0158 0.720813
87.0915 -14.7917 0.719471
87.1278 -14.57 0.718143
87.1632 -14.3473 0.716809
87.2015 -14.1257 0.715481
87.2112 -14.0141 0.714813
95.5224 8.01903 0.234263
73.4657 9.96673 0.259176
69.9715 9.51103 0.2673
66.3667 9.73457 0.272381
50.8785 7.12356 0.313761
50.5731 7.16742 0.313534
57.5741 14.7871 0.254221
43.947 16.8349 0.260562
38.9358 17.1255 0.265405
39.2375 17.4211 0.263605
15.6737 17.3032 0.283027
-28.2624 39.8535 0.0874185
-26.3896 32.0922 0.143554
-55.5065 24.7238 0.155917
70.8541 -20.2748 0.440084
90.0163 -19.3605 0.404413
86.9568 -15.1884 0.38585
86.8393 -14.9343 0.384346
86.826 -14.7025 0.382963
86.8931 -14.4881 0.381675
86.8986 -14.2612 0.380319
87.6726 -13.6111 0.375347
95.8768 3.37216 -0.238035
96.2552 7.63993 -0.268566
95.323 7.79724 -0.262398
93.6306 7.99052 -0.250357
70.2078 8.91556 -0.071177
62.9264 11.4417 -0.0334228
57.4899 14.7369 -0.0194749
49.8617 15.2008 0.0336351
36.7787 15.3336 0.121352
36.5056 15.218 0.125075
34.7445 25.1392 0.0180257
34.6339 25.1508 0.0179688
-31.727 28.7852 -0.200087
31.218 -16.5383 0.339339
66.9607 -16.6522 0.0928924
67.041 -16.5044 0.0910007
89.11 -22.3769 -0.0554762
90.566 -22.5742 -0.0664657
91.6735 -22.6568 -0.0741002
93.5993 -23.1082 -0.0876272
92.6301 -18.2322 -0.0996354
93.3108 -18.0156 -0.105008
87.0775 -15.6266 -0.0665553
87.0792 -15.3964 -0.0679298
87.5749 -15.2722 -0.0727293
86.5684 -14.7144 -0.0669442
86.4181 -14.4548 -0.0664769
86.5904 -14.2629 -0.068643
87.4348 -13.7459 -0.0778279
87.5091 -13.646 -0.0794335
96.3905 2.97232 -0.726715
59.5605 12.9908 -0.293291
59.5433 13.0586 -0.293694
33.4655 23.0702 -0.125473
33.6035 23.4226 -0.132594
33.5158 23.4554 -0.131779
1.39469 23.7709 -0.127959
-33.606 30.4923 -0.594072
8.43611 -0.356827 0.294328
12.7966 -0.245389 0.355161
63.2627 -19.7924 -0.177932
77.5606 -20.4302 -0.366775
66.7724 -16.468 -0.228191
67.0471 -16.3855 -0.231716
78.271 -19.8165 -0.376522
80.7098 -18.6331 -0.411872
76.2127 -16.3239 -0.356143
75.255 -15.9643 -0.34418
76.3073 -16.0506 -0.357786
77.1564 -15.8742 -0.369938
79.1578 -15.6702 -0.397387
83.7839 -15.7178 -0.461638
90.8908 -10.2949 -0.578845
90.9723 -10.0691 -0.581203
80.1513 -2.48202 -0.903272
88.5834 2.36918 -1.11022
87.6715 2.55973 -1.09225
67.6987 5.08172 -0.691003
49.0506 7.30564 -0.323127
47.1564 11.9142 -0.341432
47.157 12.0242 -0.343089
36.523 15.0822 -0.198122
33.4565 23.1414 -0.324901
1.37596 23.8726 -0.329568
1.33846 23.7661 -0.327928
-33.6686 31.24 -1.01954
61.7627 -19.0226 -0.496362
62.0135 -18.9621 -0.500752
62.1256 -18.8437 -0.503472
62.3971 -18.7891 -0.50783
61.2712 -17.1192 -0.483672
65.9426 -15.1351 -0.575062
66.8314 -14.8962 -0.592591
72.7413 -14.0222 -0.713495
73.9616 -14.1377 -0.737946
76.1927 -13.6092 -0.784361
77.1184 -11.8496 -0.806976
76.9667 -11.624 -0.804306
77.4187 -11.5149 -0.81301
78.3257 -11.4871 -0.832281
80.4076 -10.7461 -0.876947
80.2015 -10.5072 -0.87335
79.1863 -9.44049 -0.855603
78.9231 -9.2022 -0.850996
78.0722 -8.49075 -0.835146
80.1012 -5.46151 -0.888472
71.3815 -1.43558 -1.00251
71.2956 -1.26381 -1.00053
71.1812 -1.17591 -0.998039
50.0101 5.74892 -0.498944
59.0723 10.0638 -0.779763
43.3181 7.86758 -0.353822
43.2865 7.94798 -0.354299
47.1513 11.9114 -0.507417
47.1621 12.025 -0.509097
47.0069 12.0716 -0.506357
36.6103 15.1829 -0.328736
23.8201 22.8575 -0.350095
1.30499 23.8266 -0.476288
-4.56549 23.0089 -0.549729
-34.9249 24.5405 -1.22939
-61.2853 14.1715 -1.74143
-61.3117 13.9224 -1.73894
55.53 -17.9576 -0.590005
55.6764 -17.8787 -0.593493
59.0175 -16.2309 -0.667721
59.1311 -16.1236 -0.669375
59.2615 -16.022 -0.672997
59.4806 -15.9522 -0.677439
58.7868 -14.2184 -0.655713
58.9488 -14.1261 -0.659283
58.9845 -13.9925 -0.660085
68.589 -12.1814 -0.901013
68.5862 -12.0101 -0.901035
68.7439 -11.8757 -0.904857
87.0827 -15.3413 -1.37228
68.6866 -10.9284 -0.903507
68.6847 -10.7592 -0.903518
68.2164 -10.4952 -0.89204
70.9023 -8.76782 -0.963667
71.155 -7.16004 -0.973298
72.1847 -7.11739 -1.00067
71.4882 -3.06449 -0.996796
63.8415 -2.08814 -1.07975
63.8226 -1.94022 -1.07963
63.7877 -1.86568 -1.07907
63.8129 -1.71961 -1.07994
63.8361 -1.57347 -1.08182
63.8242 -1.42584 -1.0817
63.8434 -1.27952 -1.08358
63.8765 -1.13379 -1.08545
63.8898 -0.986219 -1.08633
63.9068 -0.912879 -1.08777
63.863 -0.765899 -1.08665
63.8071 -0.618415 -1.08552
63.7943 -0.47075 -1.0864
63.7374 -0.324223 -1.08527
63.7015 -0.177584 -1.08514
63.7597 -0.0309128 -1.08802
63.8509 0.0433055 -1.09148
64.0063 0.190883 -1.09738
64.1246 0.339021 -1.10227
64.289 0.489218 -1.10819
64.3944 0.638906 -1.1121
64.4878 0.790097 -1.11601
64.6884 0.942768 -1.12395
64.845 1.0963 -1.12988
64.9965 1.17598 -1.13537
65.1762 1.33153 -1.14232
65.4191 1.49143 -1.15131
66.2713 2.21612 -1.18373
66.4413 2.37909 -1.19073
66.6073 2.54423 -1.19673
66.8778 2.71497 -1.20678
67.05 2.88285 -1.21381
67.2282 3.05148 -1.22083
67.4195 3.22256 -1.22788
67.5373 3.30967 -1.23241
67.6304 3.47588 -1.23741
67.9654 3.65992 -1.24955
56.1741 5.02124 -0.885316
43.2688 7.90772 -0.516059
46.9929 11.9039 -0.695358
47.0634 11.987 -0.698862
35.3504 8.56503 -0.289068
1.35706 23.7314 -0.643728
48.7574 -17.9717 -0.648141
48.8117 -17.8709 -0.648749
48.9413 -17.8123 -0.652114
49.064 -17.7494 -0.654504
49.0851 -17.6292 -0.654225
49.1455 -17.5977 -0.65542
49.2389 -17.5176 -0.657909
49.3157 -17.4287 -0.658449
49.3671 -17.3258 -0.659069
49.4272 -17.2282 -0.660659
49.4257 -17.0971 -0.659442
49.4477 -16.9789 -0.65815
49.5062 -16.9443 -0.660363
49.585 -16.8565 -0.661897
49.6834 -16.7776 -0.66338
49.7808 -16.6976 -0.665868
49.8429 -16.6002 -0.666458
49.9178 -16.5092 -0.668009
50.5751 -14.3479 -0.670993
50.7239 -14.2861 -0.675379
50.7506 -14.1731 -0.675057
50.7542 -14.1122 -0.675421
50.9708 -14.0783 -0.681649
51.1019 -14.0068 -0.685091
51.1458 -13.343 -0.68206
51.5547 -13.3783 -0.694897
53.7035 -12.6422 -0.755542
53.8786 -12.5725 -0.760978
53.9155 -12.4569 -0.761673
54.1212 -12.3966 -0.767057
54.3911 -12.3559 -0.775331
60.6181 -11.94 -0.965536
59.1801 -11.2658 -0.919396
59.8998 -11.3132 -0.942197
61.3954 -10.4484 -0.987534
61.7632 -8.48218 -0.998319
62.5936 -8.56325 -1.02393
62.7378 -8.44223 -1.02867
62.7558 -7.63226 -1.02951
62.7162 -7.47845 -1.02842
61.738 -7.03281 -0.997972
62.5715 -7.01594 -1.02417
62.694 -6.88799 -1.02895
62.8453 -6.76426 -1.0337
64.1602 -6.12614 -1.07667
64.048 -5.96225 -1.07263
63.9511 -5.57683 -1.07092
64.0142 -5.43436 -1.07278
64.0841 -5.29319 -1.07563
64.0904 -5.14432 -1.07652
63.988 -4.98486 -1.07346
63.9563 -4.90646 -1.07293
63.9047 -4.75314 -1.07184
63.882 -4.60205 -1.07074
63.8573 -4.45188 -1.07063
63.8705 -4.3043 -1.07151
63.9096 -4.15983 -1.07338
63.9756 -4.01749 -1.07624
64.0616 -3.87599 -1.07909
64.1346 -3.807 -1.08151
64.1099 -3.65683 -1.08141
63.8584 -2.89956 -1.0759
63.8885 -2.82777 -1.07733
63.8847 -2.67948 -1.07822
63.8948 -2.53278 -1.0791
63.9 -2.38587 -1.07997
63.8822 -2.23799 -1.07986
57.6227 -1.73821 -1.14712
57.588 -1.60964 -1.14688
57.5744 -1.48095 -1.14665
57.5581 -1.4172 -1.14603
57.5265 -1.28876 -1.14579
57.4918 -1.16118 -1.14455
57.4551 -1.03352 -1.14431
57.4194 -0.905904 -1.14307
57.4138 -0.778556 -1.14383
57.4031 -0.651998 -1.14458
57.3984 -0.524686 -1.14434
57.371 -0.461477 -1.14372
57.3543 -0.334667 -1.14447
57.3486 -0.208312 -1.14422
57.359 -0.0816425 -1.14598
57.3002 0.0439452 -1.14473
57.2795 0.170929 -1.14448
57.2347 0.295929 -1.14322
57.1793 0.358322 -1.14159
57.1335 0.484363 -1.14034
57.1118 0.609385 -1.14108
57.1271 0.73585 -1.14184
57.2396 0.86421 -1.14762
57.4363 0.996025 -1.15543
57.7303 1.13273 -1.16828
57.9815 1.20519 -1.17874
58.1253 1.33824 -1.18455
58.2119 1.47169 -1.18936
58.3788 1.60777 -1.19719
58.5467 1.7458 -1.20403
58.7217 1.88453 -1.21188
58.9128 2.02559 -1.22075
59.1192 2.10294 -1.22923
59.3034 2.24629 -1.23711
59.4836 2.3898 -1.24599
59.5966 2.53116 -1.25085
59.7398 2.67424 -1.25772
61.6387 4.77587 -1.35049
62.0198 4.96094 -1.36764
62.1485 5.11964 -1.3736
48.3081 7.14139 -0.87107
36.6706 15.0924 -0.638208
13.2454 18.1547 -0.417791
13.222 18.1217 -0.416591
9.03914 15.0199 -0.338583
-55.0097 29.1535 -2.75465
-55.1161 28.9328 -2.75332
-55.0029 28.6248 -2.74349
43.4512 -17.7712 -0.708728
43.5466 -17.7141 -0.71108
43.6664 -17.6742 -0.714332
43.7765 -17.6268 -0.716628
43.8564 -17.5591 -0.718042
43.9173 -17.5386 -0.720171
43.9905 -17.4656 -0.721615
44.0909 -17.4108 -0.723954
44.1766 -17.3463 -0.725349
44.6083 -16.9592 -0.734711
44.6931 -16.8927 -0.736118
44.7833 -16.5331 -0.734276
44.9199 -16.3787 -0.736214
44.9746 -16.293 -0.737732
45.0507 -16.2201 -0.739176
45.8801 -13.7016 -0.737312
45.8542 -13.5794 -0.735039
50.3951 -11.3209 -0.880053
51.0958 -11.1993 -0.904861
53.9458 -11.0454 -1.00911
54.2773 -11.0164 -1.02132
54.9612 -10.3176 -1.04357
54.9596 -10.1894 -1.04334
54.9718 -10.0658 -1.04308
55.084 -9.96745 -1.04668
55.1438 -9.85487 -1.04836
55.2481 -9.75418 -1.05197
55.3228 -9.64523 -1.05463
54.3846 -8.48458 -1.01645
54.4348 -8.43465 -1.01776
54.7148 -8.2483 -1.0279
55.1942 -8.22651 -1.04609
55.6657 -8.19938 -1.06431
56.109 -8.03594 -1.08033
55.016 -7.63045 -1.03863
56.8437 -7.34332 -1.10756
56.8534 -7.27967 -1.10794
56.669 -7.11874 -1.10088
56.726 -7.00004 -1.10259
55.3811 -6.08846 -1.05088
56.0409 -5.94017 -1.07584
55.9715 -5.80512 -1.07364
55.7638 -5.65121 -1.06554
58.4282 -5.43447 -1.16814
58.2705 -5.28267 -1.16203
58.2132 -5.14413 -1.15985
58.159 -5.00672 -1.15866
58.1365 -4.87366 -1.15745
58.1303 -4.80734 -1.15785
58.1676 -4.6808 -1.15961
58.192 -4.55272 -1.16038
58.1736 -4.42082 -1.16016
58.1332 -4.286 -1.15896
58.0908 -4.15109 -1.15776
58.0533 -4.01839 -1.15655
58.0391 -3.95173 -1.15595
58.0316 -3.8213 -1.15573
57.9891 -3.68839 -1.15452
57.9237 -3.55351 -1.15231
57.7955 -3.41397 -1.14813
57.8208 -3.28693 -1.14889
57.9121 -3.16467 -1.15263
58.0045 -3.10753 -1.15699
58.0279 -2.9794 -1.15775
58.0403 -2.85081 -1.15952
58.0108 -2.72045 -1.1583
57.9274 -2.58581 -1.15509
57.6719 -1.99551 -1.14759
57.6463 -1.86632 -1.14736
44.9302 6.33126 -0.901843
47.0359 11.7356 -1.09636
25.7146 14.3478 -0.426494
13.527 21.4962 -0.692784
13.461 21.475 -0.69165
-28.5104 35.7775 -2.37925
-27.9249 35.0865 -2.3362
51.3618 -5.55759 -1.10359
46.9652 11.6964 -1.27713
25.1248 18.6026 -0.725842
16.4493 16.7743 -0.538919
-38.1739 -2.0067 -2.34649
-38.1611 -2.17938 -2.34546
-38.2326 -2.35656 -2.34839
-36.6396 -6.3685 -2.25962
40.4417 -14.4559 -0.881183
40.5601 -14.3768 -0.884669
40.6386 -14.223 -0.885597
46.244 2.58158 -1.26461
46.272 2.67647 -1.26718
46.3 2.77237 -1.26975
46.313 2.86589 -1.27231
47.4278 5.31472 -1.36907
47.4581 5.41853 -1.37169
47.4815 5.52162 -1.37531
47.4907 5.62231 -1.37691
47.4959 5.72217 -1.37951
47.5071 5.82278 -1.38111
47.5506 5.88098 -1.38446
47.6094 5.99259 -1.39014
47.6651 6.10332 -1.39481
46.5995 10.9721 -1.44276
46.56 11.0098 -1.44098
46.5503 11.1123 -1.44359
46.5081 11.2022 -1.44312
46.4902 11.302 -1.44572
46.4439 11.39 -1.44524
27.9317 14.6824 -0.717753
25.2025 18.5956 -0.856811
25.1347 18.6015 -0.855838
-30.8046 -4.15553 -2.27651
-30.8582 -4.31144 -2.27957
-30.6876 -4.37259 -2.26922
-20.1056 -11.0264 -1.7107
35.3126 -15.4473 -0.84567
38.5914 -12.3045 -0.915818
38.5775 -12.2068 -0.9134
39.035 -12.06 -0.93333
39.0896 -12.0003 -0.934693
39.2112 -11.7982 -0.935914
39.2305 -11.7189 -0.93539
39.1755 -11.6465 -0.931816
39.2291 -11.5857 -0.933185
39.3297 -11.549 -0.937416
39.4059 -11.5001 -0.939717
39.4621 -11.3524 -0.939606
39.6817 -11.1524 -0.947825
39.7432 -11.095 -0.949175
45.6745 -6.75661 -1.21277
46.1681 -5.4893 -1.2324
44.2493 -1.25216 -1.26748
44.3132 4.12766 -1.32362
44.3624 4.17962 -1.32694
44.3933 4.27238 -1.33049
44.4132 4.36362 -1.33304
44.4401 4.45655 -1.3366
44.467 4.54949 -1.33916
44.4849 4.64081 -1.3417
44.4997 4.73225 -1.34425
44.5056 4.77803 -1.34553
45.0642 7.23231 -1.42725
45.0874 7.3324 -1.43085
45.1005 7.38289 -1.43215
44.1956 10.5956 -1.46124
39.1975 16.0347 -1.38314
37.0467 14.7999 -1.22351
36.992 14.8562 -1.22384
27.9636 14.6804 -0.816747
25.1952 18.6833 -0.971336
25.1173 18.6626 -0.967203
25.0912 18.6847 -0.968332
7.23249 15.017 -0.797366
-28.3096 8.63094 -2.49616
-28.2582 8.47367 -2.49023
-28.1621 8.30854 -2.48125
-28.1314 8.15614 -2.47734
-28.1395 8.01037 -2.47447
-28.1108 7.93211 -2.47201
-25.6155 0.501142 -2.22891
-24.9389 -3.1432 -2.17223
-25.0047 -3.28058 -2.1764
32.8847 -15.3684 -0.857862
32.9685 -15.3529 -0.860964
32.8904 -14.9952 -0.844091
35.6066 -13.7857 -0.933629
43.8128 -5.85387 -1.24895
43.7658 -5.75579 -1.24553
44.1708 -3.26264 -1.26047
44.1785 -3.17688 -1.26098
44.2189 -3.09552 -1.26347
44.2485 -3.01169 -1.26497
44.273 -2.92866 -1.26647
44.2856 -2.84312 -1.26799
44.2425 -2.79625 -1.26526
44.1903 -2.70496 -1.2618
44.1749 -2.61723 -1.26032
44.1546 -2.53029 -1.25984
44.1303 -2.44218 -1.25836
44.1129 -2.35536 -1.25688
44.1065 -2.26902 -1.25639
44.0753 -2.22466 -1.25465
44.0999 -2.14062 -1.25616
44.0785 -2.05364 -1.25568
44.096 -1.97031 -1.25618
44.0477 -1.88118 -1.2537
41.5582 -0.12725 -1.27689
41.5614 -0.0503193 -1.27735
41.534 0.180034 -1.27772
41.5266 0.218383 -1.27695
41.5118 0.295077 -1.27641
41.4922 0.448037 -1.27632
41.4804 0.524604 -1.27577
41.4726 0.600998 -1.27623
41.4558 0.676776 -1.27568
41.4544 0.715867 -1.27591
41.4456 0.791303 -1.27636
41.4308 0.867996 -1.27582
41.432 0.944012 -1.27627
41.4322 1.02107 -1.27673
41.4305 1.0982 -1.27819
41.4126 1.17302 -1.27764
41.4243 1.21256 -1.27888
41.4054 1.28842 -1.27833
41.4077 1.3654 -1.27879
41.4099 1.44236 -1.28025
41.4031 1.51772 -1.2797
41.3943 1.59416 -1.28015
41.3905 1.67038 -1.28061
41.3791 1.70889 -1.28084
42.1186 8.71 -1.47274
42.0929 8.78915 -1.4732
42.0702 8.86916 -1.47468
42.0253 8.94212 -1.47411
42.0159 8.98255 -1.47435
41.9801 9.05812 -1.4738
41.9361 9.13104 -1.47323
41.8941 9.20387 -1.47266
41.8573 9.27948 -1.47311
41.8285 9.35776 -1.47357
41.7988 9.43607 -1.47403
41.8159 9.48638 -1.47634
41.7516 9.55115 -1.47472
36.9501 13.381 -1.32703
25.0801 18.6353 -1.10704
20.3767 17.1045 -0.90135
20.3169 17.0871 -0.899239
20.2658 17.1092 -0.900365
19.8083 19.3935 -1.06396
-21.4803 7.75843 -2.34073
33.4326 -13.6916 -0.971941
37.8108 14.6176 -1.55652
36.4141 14.4156 -1.46315
36.4017 14.5492 -1.46895
36.4006 14.6443 -1.47452
36.3097 14.6712 -1.47067
25.1075 18.7156 -1.21452
22.0298 16.3802 -0.961216
20.3904 17.1685 -0.992735
20.3356 17.1748 -0.992767
20.2848 17.2029 -0.993929
18.0247 19.749 -1.17688
30.2268 -12.1188 -0.830962
35.8782 14.1192 -1.57132
35.844 14.1867 -1.57272
35.8181 14.2138 -1.57288
20.3864 17.1189 -1.10444
20.3546 17.1023 -1.10234
17.7337 17.5636 -1.11879
12.9885 17.4455 -1.14454
10.6079 17.3611 -1.19176
26.0139 -15.3874 -0.918957
26.0751 -15.383 -0.92099
26.1224 -15.3529 -0.921175
26.165 -15.3167 -0.920397
34.7601 13.2843 -1.58221
34.7008 13.3259 -1.58045
34.6209 13.3523 -1.5766
25.0998 18.6724 -1.46327
20.3852 17.0904 -1.20327
20.3369 17.1324 -1.20552
19.1434 17.3837 -1.21288
19.092 17.4239 -1.21611
10.3392 17.8258 -1.34751
-11.3008 6.72343 -2.13872
25.1153 18.5899 -1.57778
20.4554 17.2849 -1.32744
20.3624 17.0957 -1.3073
20.3024 17.0732 -1.30416
19.2334 17.6204 -1.34231
19.15 17.3978 -1.31997
19.1249 17.6569 -1.34451
-9.4228 10.4471 -2.27418
-9.54196 10.3981 -2.28287
-9.39631 10.2439 -2.26397
35.4819 -5.77159 -1.32848
33.1393 11.6316 -1.62015
33.1024 11.6822 -1.62045
33.0686 11.7347 -1.62176
33.0317 11.7853 -1.62206
32.9989 11.8387 -1.62237
32.9558 11.8856 -1.62265
32.9168 11.9332 -1.62193
32.901 11.9609 -1.62309
32.8558 12.0059 -1.62235
26.6356 8.10686 -0.882337
25.1645 18.6871 -1.71837
25.0677 18.6242 -1.70898
20.3909 17.1789 -1.42781
20.3181 17.0889 -1.41726
20.2658 17.1071 -1.41836
-3.72461 13.1915 -2.09622
21.4404 -14.517 -0.981629
21.4824 -14.4938 -0.980772
21.5254 -14.4715 -0.97991
21.5735 -14.4696 -0.981927
21.6094 -14.425 -0.978197
21.7049 -14.415 -0.980268
21.7229 -14.3927 -0.979403
21.7559 -14.3441 -0.975698
21.7908 -14.3005 -0.972962
21.9033 -14.3383 -0.979749
32.1683 11.317 -1.64016
25.1711 18.6781 -1.84432
25.0777 18.623 -1.83398
20.3687 17.0541 -1.52306
20.3151 17.0664 -1.52313
-2.41025 12.4577 -2.08699
-2.47813 12.4145 -2.09073
-2.52456 12.3574 -2.09138
-2.57196 12.3014 -2.09204
-2.6215 12.2894 -2.09596
-2.6709 12.2334 -2.09662
-2.69294 12.1613 -2.09419
-2.71403 12.0881 -2.09175
31.2577 10.9408 -1.65681
20.4447 17.1243 -1.64749
20.4144 17.2616 -1.66231
20.3366 17.1488 -1.64762
20.2873 17.1899 -1.65186
19.266 17.729 -1.69697
15.1845 18.4695 -1.77892
15.1698 18.3321 -1.7631
30.8291 10.22 -1.67145
30.8192 10.2465 -1.67261
30.7787 10.2832 -1.67183
30.7423 10.3238 -1.67106
30.7185 10.3748 -1.67337
30.6831 10.4143 -1.6726
20.6086 17.0707 -1.75319
20.5539 17.078 -1.75223
20.4991 17.0843 -1.75226
20.476 17.1073 -1.75439
20.4226 17.1215 -1.75447
20.3718 17.1517 -1.75765
20.3132 17.1391 -1.75456
20.2586 17.1484 -1.75461
19.2933 17.6632 -1.79958
19.236 17.6556 -1.79853
12.8034 16.9192 -1.75339
26.5059 -9.5839 -1.09868
31.3273 4.68835 -1.47047
31.3081 4.7322 -1.46973
31.3417 4.76878 -1.47596
31.3245 4.81254 -1.47621
20.2523 15.6654 -1.74976
20.199 15.6596 -1.74772
20.1532 15.6896 -1.75089
20.1024 15.6947 -1.74991
20.054 15.7098 -1.751
19.9322 15.0982 -1.77633
19.8858 15.1131 -1.77642
28.7881 7.90571 -1.6554
28.7738 7.92333 -1.6545
28.77 7.97452 -1.65881
28.761 8.02192 -1.66209
28.7513 8.12537 -1.66971
27.8385 9.72081 -1.72113
27.7964 9.74362 -1.71826
27.7585 9.77124 -1.71742
27.7453 9.78981 -1.71753
19.5717 -10.6816 -1.06432
19.617 -10.7246 -1.07107
26.1402 -5.28244 -1.39333
10.5433 4.93267 -1.68354
22.2385 2.74023 -1.44679
21.8451 -14.76 -4.9683
21.9236 -14.8446 -5.0048
21.9435 -14.7512 -4.97636
21.9944 -14.8266 -5.00692
19.604 0.213971 -0.703386
19.6326 0.225713 -0.71546
19.5856 -0.726125 -0.70777
16.0146 1.32726 -0.431616
15.9554 1.32465 -0.445594
17.5809 -1.9866 -0.454006
17.5178 -1.74714 -0.353427
17.4988 -1.65202 -0.313993
16.1972 1.05201 -0.320991
16.2477 1.0868 -0.341205
16.2831 1.02545 -0.308842
16.2932 1.00307 -0.29871
17.3944 -1.75423 -0.397372
16.1873 1.10311 -0.380296
16.2232 1.05174 -0.350993
16.2087 1.06331 -0.359061
16.179 1.09546 -0.37925
16.1501 1.12359 -0.397415
16.0967 1.18566 -0.43578
16.0802 1.19831 -0.444854
16.1093 1.1522 -0.419581
16.1025 1.15647 -0.422606
16.1183 1.12886 -0.408443
16.0382 1.22197 -0.464991
16.1245 1.01376 -0.364755
16.2054 0.913633 -0.305166
16.1595 0.917472 -0.320183
16.0243 1.05774 -0.410007
18.4962 -1.16436 -0.467023
18.6089 -8.47419 -3.56944
18.6261 -8.42173 -3.54675
18.5353 -1.28149 -0.532329
18.4969 -1.24269 -0.506556
18.4972 -1.23669 -0.505592
18.5437 -1.22572 -0.519663
1.15033e-41 0 7.69725e-34
