ply
format ascii 1.0
element vertex 404
property float x
property float y
property float z
end_header
150.168 0.301519 3.18733
165.388 16.8274 3.61487
136.922 8.4322 2.74762
162.293 21.5988 3.52652
142.712 24.8281 2.98342
141.273 24.1149 2.93943
109.324 35.2624 2.44971
119.562 63.0569 3.12767
117.195 57.5682 2.98997
117.001 57.6813 2.99
97.5833 13.7731 1.88907
96.5621 31.6119 2.28087
80.4094 47.0733 2.68623
77.9666 46.6248 2.69878
76.7192 44.8656 2.67411
80.2835 18.8287 2.08642
49.8085 14.053 2.80109
24.9269 -9.1238 3.75153
27.742 -9.78621 3.65973
26.4623 -10.437 3.71283
21.8111 -10.8263 3.88197
44.1458 -17.5734 3.19795
32.8129 -31.578 3.87384
165.915 -34.1824 4.2105
167.164 -31.7331 4.19452
167.536 -31.5886 4.20338
167.712 -31.3833 4.20484
168.078 -31.2328 4.21264
155.393 -20.9107 3.6148
155.402 -20.705 3.61151
155.412 -20.4994 3.60821
155.436 -20.2978 3.60494
155.453 -20.0942 3.60266
155.47 -19.9936 3.60152
165.576 16.7752 3.12815
137.71 9.16002 2.46138
164.247 21.6378 3.0882
163.766 21.7037 3.07717
157.982 19.6723 2.94016
149.617 21.5701 2.74438
141.786 23.9201 2.57581
106.958 23.039 1.95862
106.838 23.0408 1.95678
106.706 23.017 1.95524
106.592 23.0271 1.95429
106.503 22.9669 1.95209
106.409 23.0186 1.95265
106.295 23.0286 1.95171
99.424 16.1288 1.79225
94.3524 37.9087 2.12732
93.0264 26.3092 1.93781
45.0321 -28.2192 3.06964
165.786 -30.3994 3.63473
153.622 -20.2324 3.14785
153.647 -20.0361 3.14464
153.825 -19.7682 3.14541
164.223 21.83 2.71908
150.007 21.9368 2.44673
140.617 22.9951 2.27476
108.275 27.7663 1.85129
108.141 27.7702 1.85044
108.036 27.8395 1.84983
107.932 27.9078 1.85023
107.789 27.8926 1.8486
94.7327 35.1181 1.87767
93.2419 29.4134 1.81208
93.1896 35.8695 1.88761
90.7874 10.7345 1.59769
90.72 10.8582 1.59942
80.1707 45.3909 2.04618
24.5085 18.8907 2.82859
164.573 14.6821 2.17375
164.159 14.8012 2.16804
165.048 16.4805 2.16813
163.931 17.1168 2.14971
163.573 17.2451 2.14481
159.643 26.5994 2.04789
142.946 18.255 1.88086
111.418 39.0839 1.59923
111.147 38.8454 1.59727
111.126 39.2191 1.59916
110.467 44.3179 1.61161
110.301 44.3717 1.61126
80.79 46.3067 1.6321
79.1466 44.2109 1.63274
160.279 -32.4139 2.64807
165.772 -32.8125 2.72544
162.521 -21.8607 2.51781
165.913 -20.4822 2.54456
122.792 12.5586 1.47553
110.468 44.3347 1.32741
95.6914 26.2642 1.33736
77.6014 33.4113 1.37868
122.147 -23.4828 1.84296
122.226 -23.4031 1.84196
165.949 -20.5866 2.16264
164.411 13.2072 1.26928
164.175 13.3839 1.26667
163.664 13.4782 1.26537
163.717 20.0643 1.1993
163.674 20.439 1.19521
160.9 26.0964 1.13657
121.636 11.9111 1.22138
112.274 43.8105 0.944543
112.105 43.8597 0.944246
109.07 44.7136 0.938232
108.986 44.7387 0.938078
108.813 44.7692 0.937994
108.308 44.9092 0.937182
93.7479 42.8219 0.966674
72.6007 53.6411 0.921775
72.8642 52.4616 0.930461
77.7936 33.3272 1.07332
77.6532 33.3127 1.07368
20.291 -17.3685 1.80858
21.175 -17.4804 1.80653
121.939 -23.56 1.60711
159.836 -21.8305 1.64436
155.472 -20.5313 1.62236
165.835 -20.5239 1.63907
169.303 -20.8583 1.64869
163.982 13.3646 0.913145
164.782 24.7026 0.779301
164.352 24.7835 0.779034
120.396 11.5866 1.05979
108.832 44.8777 0.674747
108.664 44.9266 0.674451
98.894 14.1928 1.07944
95.5759 39.5556 0.765183
95.0938 38.016 0.785955
73.1305 51.8581 0.638741
72.8146 52.2027 0.634385
119.796 -26.538 1.48525
152.398 -31.2524 1.44068
157.013 -31.851 1.43355
153.202 -20.2654 1.32172
153.205 -20.0669 1.31951
153.189 -19.8637 1.31729
153.499 -19.7227 1.31427
153.869 -19.5912 1.31227
171.238 -7.26991 0.621187
170.457 -6.78484 0.623956
170.45 -6.53752 0.621224
170.415 -6.29222 0.618557
157.641 3.33931 0.623543
150.867 16.8312 0.504934
145.406 17.4549 0.543034
145.404 17.6612 0.54075
145.444 17.8878 0.53718
145.433 18.0903 0.533951
145.446 18.3055 0.530546
145.481 18.5318 0.526986
155.65 28.3447 0.296296
155.355 28.7056 0.29373
141.282 21.4886 0.518375
95.2627 39.0541 0.472181
79.4599 44.5615 0.380313
79.3528 44.2757 0.385638
72.9063 52.7305 0.223375
72.7401 52.5904 0.226172
142.381 -29.7731 1.10595
165.153 -32.9605 0.930871
165.679 -32.8803 0.925211
166.584 -33.0548 0.918816
167.38 -33.0572 0.911676
152.636 -20.702 0.934363
152.581 -20.3932 0.932022
152.723 -20.2224 0.92892
152.771 -20.0333 0.926754
152.957 -19.8717 0.92369
153.364 -19.7495 0.918738
153.818 -19.635 0.912802
170.247 -7.45342 0.151644
162.63 0.972817 0.168426
152.659 16.0847 0.0985551
96.1425 42.814 0.0851951
152.918 -26.74 0.59485
157.295 -25.3009 0.519476
156.911 -25.09 0.523702
156.607 -24.7945 0.525874
156.275 -24.4931 0.529019
153.867 -21.5186 0.541585
153.842 -20.1952 0.530952
150.391 -15.5206 0.132178
150.478 -15.4389 0.129146
150.693 -15.2785 0.123052
150.543 -15.0724 0.124988
150.336 -14.8623 0.127964
150.09 -12.0686 0.107358
150.051 -11.8822 0.10635
157.001 -7.01475 -0.100805
145.488 4.73143 -0.00410009
153.385 15.7496 -0.365825
153.532 15.9176 -0.371903
79.8303 27.928 0.193115
135.68 -28.5499 0.521191
135.745 -28.4138 0.519585
135.825 -28.2827 0.518015
136.85 -27.653 0.495532
137.011 -27.5557 0.491216
137.201 -27.4685 0.486971
137.486 -27.2533 0.481167
135.609 -23.6972 0.507508
139.725 -23.1628 0.417542
147.064 -22.1998 0.254095
141.695 -13.6735 0.0534563
141.74 -13.5203 0.0516922
141.759 -13.3644 0.0499367
141.813 -13.2115 0.0471623
141.851 -13.0573 0.0443976
141.884 -12.9014 0.0426211
141.863 -12.8207 0.0417571
145.731 -4.79556 -0.149874
145.625 -4.63308 -0.149519
157.16 14.251 -0.770778
156.587 14.7381 -0.765336
139.136 9.66055 -0.210428
155.769 16.1555 -0.772846
123.96 5.10813 0.274318
121.213 5.28696 0.340369
123.569 -23.8616 0.577994
130.232 -26.2068 0.411204
130.419 -26.1475 0.406272
130.565 -26.0671 0.402167
140.061 -20.1389 0.140517
140.23 -20.0194 0.134945
139.976 -19.0806 0.136912
141.382 -15.5358 0.0765584
141.422 -15.383 0.074805
135.947 -9.29663 -0.090633
136.067 -9.16115 -0.0953111
136.194 -9.02454 -0.101011
136.311 -8.88766 -0.1067
136.379 -8.74885 -0.110339
136.474 -8.61087 -0.115008
137.252 -7.69403 -0.151313
137.357 -7.55037 -0.15606
137.472 -7.4777 -0.161033
137.564 -7.33321 -0.16577
137.609 -7.1892 -0.169433
137.821 -7.04047 -0.177393
137.944 -6.89327 -0.184205
138.841 -5.61457 -0.229696
138.952 -5.46073 -0.235565
139.072 -5.37971 -0.240639
139.151 -5.22632 -0.244455
139.275 -5.06922 -0.251379
96.71 15.289 0.34045
101.114 -23.7508 0.949724
122.873 -26.1592 0.378467
122.998 -26.1011 0.37564
123.021 -26.0488 0.375027
123.12 -25.976 0.372074
123.136 -25.8551 0.37271
123.242 -25.7852 0.369781
123.822 -25.2633 0.355145
123.918 -25.186 0.352147
124.093 -25.1503 0.347493
131.467 -20.6266 0.123527
131.462 -20.4885 0.124004
131.466 -20.3538 0.123504
131.562 -20.2471 0.120182
131.537 -20.1709 0.121373
132.313 -19.5799 0.094683
130.733 -8.46183 -0.179243
131.036 -7.91098 -0.196794
131.524 -7.22375 -0.224128
131.6 -7.09725 -0.229643
131.667 -6.97033 -0.233147
131.731 -6.84313 -0.237652
132.428 -5.86437 -0.277524
132.493 -5.73322 -0.282073
132.523 -5.60324 -0.285559
132.603 -5.53372 -0.289446
132.692 -5.39999 -0.29506
132.775 -5.26527 -0.299675
132.869 -5.12913 -0.305322
132.765 1.57964 -0.415532
132.79 1.72149 -0.419141
132.824 2.00136 -0.426294
133.091 4.64747 -0.493018
118.523 1.66612 0.130433
96.5979 14.8892 0.204037
126.578 -17.2299 0.0390453
126.784 -16.9925 0.031111
126.019 -11.6286 -0.16523
127.355 -6.29703 -0.280289
127.383 -6.18486 -0.282573
127.421 -6.07 -0.285902
127.447 -5.95756 -0.289186
130.223 3.11545 -0.585838
122.8 -10.7186 -0.202596
122.83 -10.6228 -0.204701
122.849 -10.5267 -0.206796
122.905 -9.65094 -0.216585
122.934 -9.55503 -0.21869
122.942 -9.45716 -0.219787
122.952 -9.3607 -0.220871
122.96 -9.26283 -0.221968
122.974 -9.16581 -0.224063
122.989 -9.11744 -0.225621
122.995 -9.02042 -0.226706
123.018 -8.92268 -0.228823
123.029 -8.82523 -0.229919
123.723 -6.24042 -0.297589
123.775 -6.13671 -0.300815
123.824 -6.03259 -0.305041
123.865 -5.92947 -0.309246
123.897 -5.8764 -0.310881
124.818 -3.24823 -0.402366
124.837 -3.1389 -0.404607
124.899 -3.02445 -0.409966
124.948 -2.96374 -0.413711
124.968 -2.85442 -0.416951
125.01 -2.74027 -0.421279
125.04 -2.6284 -0.425563
125.319 -1.66124 -0.458694
125.404 -1.53602 -0.465207
125.509 -1.45999 -0.472204
125.535 -1.34558 -0.476511
125.518 -1.23912 -0.477666
125.918 1.50418 -0.560662
125.953 1.57193 -0.564465
37.0976 -9.82779 -1.28384
114.905 -20.3149 0.164367
122.884 -0.443765 -0.564623
123.012 -0.100355 -0.580617
123.043 0.0113746 -0.584901
123.061 0.120823 -0.589142
123.102 0.18463 -0.59291
123.131 0.29763 -0.597205
123.148 0.406367 -0.601435
123.165 0.517097 -0.604687
117.518 -1.89626 -0.550653
117.562 -1.80051 -0.556779
117.622 -1.69993 -0.562982
109.875 3.51897 -0.258444
108.633 -19.5943 0.0765736
71.8687 3.30312 -0.429318
104.398 -22.0072 0.127531
104.483 -22.0142 0.122484
105.048 -22.2307 0.0850531
111.981 -17.8617 -0.197558
66.5494 -16.4738 -0.644333
89.1084 -22.0971 0.382969
102.394 -22.6941 0.0730813
103.145 -22.1439 0.0648802
103.932 6.73397 -0.457373
101.174 6.82627 -0.322342
70.4437 9.68508 -1.19601
92.0074 15.0211 -1.01577
97.8313 4.35554 -0.136044
97.7294 4.34174 -0.129741
80.9848 12.8681 -1.62078
81.0005 12.758 -1.60758
94.8118 -18.5146 0.020875
91.5984 -19.6497 -0.191845
91.6346 -19.6508 -0.191886
91.6702 -19.6416 -0.191039
91.707 -19.6387 -0.190125
96.5449 1.82646 -0.854171
95.5728 1.63673 -0.840642
94.4486 -7.99808 0.256863
150.288 -14.656 -22.9897
150.337 -14.1964 -22.9949
150.349 -14.0123 -22.9949
150.356 -13.8284 -22.993
91.0242 -6.58786 0.541273
90.9634 -6.5533 0.515978
90.9677 -6.56596 0.521112
90.9474 -6.54505 0.509909
120.259 -14.1881 -10.9071
91.173 -6.87126 0.650203
91.2172 -6.83033 0.623683
91.2503 -6.90328 0.660445
91.2388 -6.89164 0.653332
91.1922 -6.85722 0.613017
91.0279 -6.57616 0.460133
91.1812 -6.84868 0.606938
91.1713 -6.84027 0.600859
91.1422 -6.80308 0.579488
91.1222 -6.78021 0.565263
91.0693 -6.70454 0.522499
91.0713 -6.71185 0.525577
91.0784 -6.73294 0.535801
91.0863 -6.75614 0.547048
91.0853 -6.76304 0.550126
90.9449 -6.55566 0.433026
91.1149 -6.925 0.620882
91.0759 -6.93672 0.615068
90.9484 -6.77434 0.51945
120 -11.3996 -11.9107
120.015 -11.3117 -11.9137
120.018 -11.2677 -11.9132
119.973 -11.0844 -11.8861
119.975 -10.9947 -11.8831
119.972 -10.9054 -11.8791
129.38 -2.13409 -16.5564
129.499 -2.05455 -16.6185
93.2046 -9.34002 0.462574
93.21 -9.33777 0.461541
93.1457 -9.27064 0.503894
125.557 -20.5408 -15.3367
-40.6841 4.8284 -2.44851
