ply
format ascii 1.0
element vertex 527
property float x
property float y
property float z
end_header
163.359 -8.0386 4.04002
162.792 -7.65807 4.01527
162.926 -7.41055 4.01758
162.929 -7.16153 4.01477
150.127 17.6012 3.44004
140.702 19.3674 3.14152
122.472 11.0852 2.54329
141.482 20.1709 3.16808
97.1259 13.4498 1.8762
88.0472 12.6267 1.72918
79.4386 46.3494 2.4718
79.2478 46.6244 2.47754
79.1847 46.3688 2.47238
79.0329 46.1774 2.46841
53.308 15.5088 2.26678
52.8449 15.4786 2.27875
49.9305 13.4681 2.3441
46.508 13.5155 2.44182
46.4662 13.3862 2.44225
38.9242 16.7867 2.67683
37.4693 17.0957 2.72018
28.0354 18.3312 3.00368
27.8446 18.2061 3.00893
26.3048 18.3607 3.05595
24.9009 18.5401 3.0988
24.0068 18.4843 3.12572
23.9767 18.2755 3.12605
23.9836 18.1623 3.12533
28.6549 15.5884 2.97912
28.6107 13.6114 2.97839
18.24 15.057 3.30077
9.34401 13.9588 3.58303
8.98094 13.1777 3.59555
21.4046 -9.04309 3.34725
25.5399 -10.8261 3.23468
25.5867 -11.0066 3.23476
25.7007 -11.6393 3.23999
24.7268 -11.9048 3.2762
42.8476 -10.5132 2.66002
26.3525 -12.3122 3.2281
53.2827 -12.6691 2.35271
27.2294 -19.3203 3.31489
32.9824 -18.2273 3.10917
32.7686 -18.4419 3.12042
32.7968 -18.5197 3.12132
55.2633 -13.6005 2.30581
55.2513 -13.6977 2.3079
55.344 -13.7697 2.30678
55.399 -13.8504 2.30674
50.472 -15.6626 2.49924
53.7292 -15.363 2.38947
50.2459 -16.8532 2.5305
44.2172 -18.7731 2.76133
20.7598 -27.8647 3.69413
24.1888 -26.9333 3.56636
43.0654 -20.9473 2.84494
43.8302 -21.6002 2.83592
54.8082 -19.944 2.46103
54.7427 -20.0831 2.46655
11.9869 -41.5533 4.29157
44.609 -26.9529 2.94495
34.07 -32.5472 3.40364
44.1792 -27.5656 2.97452
55.5125 -28.0372 2.67193
65.7708 -20.4844 2.16392
53.2332 -30.1193 2.7976
67.1929 -19.6533 2.10068
81.2813 -20.762 1.8945
130.215 -61.4153 4.34268
134.412 -63.9211 4.53134
143.354 -56.9209 4.51254
146.061 -21.1884 3.64347
146.08 -20.9861 3.6402
146.085 -20.7817 3.6359
146.051 -20.6719 3.63263
146.044 -20.4647 3.62929
146.136 -20.279 3.62827
146.163 -20.0797 3.62604
160.912 -16.2917 3.57315
155.248 -4.43189 3.26475
155.147 -3.42339 3.25129
148.781 1.41933 3.02952
134.996 6.17545 2.61675
136.762 6.80574 2.66206
149.938 17.193 2.98646
149.841 17.3928 2.98413
123.093 9.84718 2.28774
155.969 24.1242 3.13711
142.89 18.6131 2.79977
140.798 19.324 2.74506
141.603 19.9155 2.76603
106.76 21.56 1.97343
99.6724 14.069 1.76925
79.848 46.1279 2.1276
79.357 45.9804 2.12587
79.1937 45.9271 2.12534
79.1603 45.3438 2.1159
20.1383 -10.4125 3.00366
53.161 -12.6335 2.1592
16.1853 -22.8809 3.29719
10.6608 -39.0191 3.76088
44.4052 -27.0186 2.67351
53.5758 -22.4635 2.34746
65.2181 -20.2841 2.02721
65.2673 -20.2932 2.02635
136.483 -47.2122 3.58941
133.331 -41.6988 3.36465
145.048 -30.4359 3.38798
144.453 -21.5074 3.19775
144.458 -21.3071 3.19449
144.481 -21.1114 3.1923
144.489 -20.9116 3.18905
144.498 -20.7128 3.18582
144.5 -20.5121 3.18156
144.532 -20.3187 3.1794
144.526 -20.2177 3.17725
144.712 -19.6567 3.17307
150.305 17.3829 2.6616
141.352 19.6259 2.46008
141.552 19.8275 2.46397
100.267 14.9025 1.65931
100.188 14.9402 1.65883
95.0519 14.5061 1.58759
82.9595 48.8308 1.90759
81.5992 38.3567 1.78768
80.9824 48.01 1.89826
79.2721 47.6956 1.89544
79.2831 45.5052 1.87116
79.1958 44.5972 1.86034
79.1095 43.7517 1.85081
129.001 -27.6246 2.67132
144.902 -30.2213 3.07043
152.663 -30.8327 3.25457
144.145 -20.4926 2.88003
144.173 -19.9006 2.87137
141.706 19.5312 1.9854
141.574 19.6907 1.9825
141.555 19.9036 1.98108
141.724 20.2035 1.98183
96.6612 16.0739 1.41918
96.0801 15.5392 1.41375
96.0829 15.7136 1.41378
95.2251 14.5478 1.40525
96.1172 16.3796 1.4153
89.4375 59.3908 1.53562
80.3358 46.1363 1.47386
80.1565 46.3157 1.47469
79.4631 47.6957 1.48056
79.2002 44.6983 1.46917
27.0032 13.249 1.90812
8.52697 14.7718 2.15111
151.148 -31.0706 2.683
154.835 -31.6342 2.74833
148.829 -21.8978 2.50462
148.971 -21.8223 2.50589
150.477 -21.9449 2.53048
156.489 -19.7233 2.59425
149.23 18.0176 1.74551
142.656 20.089 1.66385
142.304 20.1498 1.65988
141.921 20.1958 1.65606
141.762 20.343 1.65327
95.1493 14.7563 1.27883
88.8039 10.4432 1.25739
84.7118 66.5318 1.18022
79.5171 44.8174 1.20307
80.35 33.6643 1.21658
79.267 44.8696 1.20328
79.1193 44.6787 1.20331
80.3719 19.1937 1.23488
35.7465 -26.2746 1.96712
35.7229 -26.4601 1.97019
126.206 -27.4326 2.00787
148.813 -21.9893 2.16362
156.454 -19.8155 2.21624
143.329 19.3203 1.22204
142.238 19.7239 1.21461
142.061 19.7535 1.21313
141.983 19.9403 1.21096
141.865 20.1079 1.20897
96.9947 16.7144 1.0952
90.1399 10.009 1.13636
84.5476 66.4982 0.668438
80.347 46.4558 0.829222
80.782 34.1051 0.929938
80.3116 33.505 0.934332
79.3204 44.6103 0.843222
88.0532 -21.8439 1.48612
88.0915 -21.8029 1.48569
99.5742 -20.1152 1.49187
159.506 -32.3824 1.86547
149.205 -21.276 1.69086
122.301 -14.2612 1.50308
154.47 21.3858 0.883661
142.672 20.2843 0.904612
142.49 20.4247 0.902882
97.1223 14.3923 0.995502
90.1729 58.1995 0.433581
85.55 66.5147 0.324036
85.3918 69.7793 0.281069
85.151 69.819 0.280428
83.818 66.7156 0.319377
83.2666 38.4599 0.681781
22.1942 -10.423 1.15931
99.6275 -20.1957 1.39482
99.7107 -20.1794 1.3947
124.532 -27.2108 1.45599
117.779 -23.0156 1.41522
143.821 -20.4769 1.3705
143.838 -20.2824 1.36831
143.85 -20.0861 1.36611
155.607 -21.3427 1.37174
161.368 -5.2783 0.695057
161.295 -5.15773 0.694638
158.054 -4.76551 0.71261
158.44 -4.51907 0.707139
157.572 -3.84956 0.705887
105.812 10.8992 0.85589
95.4414 13.7113 0.852827
89.3321 55.2097 0.0746185
80.2865 32.4742 0.504915
80.1738 32.3299 0.507453
143.469 -21.1419 0.987692
143.352 -20.9159 0.987048
143.317 -20.8088 0.985812
143.306 -20.6091 0.984549
143.304 -20.4118 0.982321
143.381 -20.2321 0.980355
143.491 -20.059 0.97749
143.541 -19.8732 0.975434
143.62 -19.6937 0.973472
159.979 -19.9361 0.862344
163.278 -6.28845 0.203959
161.866 -6.05558 0.220198
152.543 1.77603 0.24734
125.118 6.1552 0.539911
125.336 7.02188 0.523306
107.527 10.7745 0.665663
105.893 10.7836 0.683249
94.6093 13.3961 0.718705
87.8147 9.51613 0.843034
84.7399 66.6473 -0.598171
84.1935 38.5515 0.112456
80.337 32.4491 0.262223
80.1932 32.6637 0.256686
152.328 -26.2873 0.53784
144.383 -21.4102 0.601429
143.103 -20.7134 0.611538
143.001 -20.4936 0.610977
143.014 -20.3006 0.60981
143.121 -20.2261 0.608055
143.668 -19.7553 0.597181
139.497 -2.76997 0.0871429
125.041 6.10636 0.239381
121.896 9.21063 0.240826
95.4278 14.2218 0.525034
90.1106 11.2638 0.657147
85.936 62.199 -0.967041
81.7175 44.1514 -0.387752
80.3206 32.0777 -0.00161612
80.7741 26.1018 0.19119
118.935 -22.9723 0.660611
130.948 -27.8014 0.45374
131.192 -27.7316 0.449149
133.367 -27.0288 0.405963
143.906 -22.0565 0.180312
137.764 -11.3841 -0.0590615
137.799 -11.2164 -0.0609252
141.6 -4.67574 -0.228684
141.334 -4.23232 -0.226901
114.786 5.17896 0.279608
115.863 6.90251 0.218022
89.445 54.796 -1.04769
83.2755 37.5352 -0.400847
82.0061 44.2291 -0.652414
81.2642 28.0776 -0.0507253
79.9583 16.3278 0.381832
18.3568 -10.4522 -0.455545
83.356 -17.1857 1.11276
119.122 -23.048 0.458604
125.805 -21.6156 0.2988
134.98 -19.2768 0.0677677
134.782 -18.7209 0.0693361
134.808 -18.6429 0.0684768
132.4 -6.75722 -0.260591
132.519 -6.68033 -0.265364
133.29 2.48004 -0.421116
133.092 2.60265 -0.416658
132.926 2.65082 -0.413335
91.2823 40.7494 -0.816707
87.3329 61.9309 -1.72094
83.648 66.6968 -1.92769
116.406 -25.7929 0.293382
116.82 -25.7546 0.282282
125.289 -20.076 0.0479972
125.253 -19.994 0.049044
125.533 -18.0855 0.0357327
126.219 -17.555 0.0132966
126.775 -15.8419 -0.0105881
126.957 -15.8087 -0.0168169
123.949 -10.9603 -0.220953
123.977 -10.8351 -0.222344
124.015 -10.7103 -0.224722
124.039 -10.6491 -0.226393
124.06 -10.5228 -0.227801
124.093 -10.3981 -0.230182
124.102 -10.2702 -0.231619
124.105 -10.1433 -0.233048
124.095 -10.0146 -0.233508
124.111 -9.88751 -0.23493
102.341 7.51395 0.202257
102.148 9.48101 0.136902
96.478 13.5163 0.108812
5.92116 -12.015 -1.74599
8.04119 -12.3547 -1.65944
11.9756 -14.7987 -1.48669
11.9372 -15.0306 -1.48611
115.497 -22.6836 0.0975555
114.356 -20.71 0.146373
114.504 -20.6598 0.140925
119.951 -16.5854 -0.0466844
112.491 8.84873 -0.356685
93.2608 41.9956 -1.50422
91.7907 37.8592 -1.26572
89.8815 38.6956 -1.29969
90.3268 55.876 -2.25525
85.2607 69.6694 -3.01301
84.4093 68.8933 -2.96993
83.4247 45.9521 -1.69078
10.6751 10.4103 -2.33024
22.6264 -10.16 -1.46948
51.4576 -12.7777 -0.152689
31.55 -16.7658 -1.02674
111.596 -22.1305 0.042177
111.697 -22.0712 0.0395889
111.806 -22.0162 0.0360557
92.0845 37.1527 -1.48652
83.5295 66.8543 -3.28065
83.2968 66.8454 -3.27974
83.2271 38.8356 -1.55763
82.8924 -20.9526 0.716867
113.319 -5.55777 -0.409467
102.377 4.43998 -0.0930482
34.0423 -5.75328 -1.59803
102.834 -22.6053 0.0554951
105.482 -21.5297 -0.0385207
105.702 -21.3775 -0.0460609
110.82 -17.9542 -0.248589
111.004 -17.7302 -0.255969
102.109 3.89474 -0.172117
101.623 3.68425 -0.13713
102.021 3.99937 -0.171368
102.035 4.08614 -0.176335
102.122 4.21802 -0.186754
91.6558 15.5067 -0.463559
91.6306 15.6618 -0.474329
90.0829 37.115 -1.98974
89.9615 37.2536 -1.9984
83.1544 38.9603 -2.10213
81.6153 28.2139 -1.32006
40.4163 -7.82835 -1.43949
99.5057 -20.0031 0.152465
108.353 -15.862 -0.241178
84.1584 66.3447 -4.61548
83.9281 66.4777 -4.62717
107.882 -2.24185 -0.593262
91.7237 35.2143 -2.379
91.651 35.1935 -2.37582
92.6965 42.43 -2.99567
91.8439 61.209 -4.56935
84.4598 66.1651 -4.96123
84.065 44.1872 -3.09244
82.3458 33.0281 -2.14585
55.9283 10.9672 -1.4001
96.012 -22.3985 -0.0103236
96.3065 -22.2197 -0.0161048
90.2523 35.2979 -2.64914
89.151 58.1093 -4.71755
87.0525 61.3808 -5.00717
85.4597 55.5489 -4.82863
85.3632 55.6294 -4.83662
85.1708 55.8156 -4.85388
82.3202 34.3899 -2.77028
82.056 32.8877 -2.62553
79.5123 12.9868 -0.723899
74.9783 11.502 -0.712787
104.026 -11.2836 -0.464329
104.051 -11.1216 -0.466137
104.039 -11.0531 -0.463919
90.1671 51.216 -4.77996
89.9814 51.2104 -4.77804
89.8821 51.145 -4.77039
89.6844 51.0281 -4.75622
89.5012 51.0404 -4.75651
89.3235 51.1043 -4.76137
89.1367 51.0838 -4.75729
88.9543 51.1009 -4.75763
88.774 51.1471 -4.7613
88.6774 51.0934 -4.75477
88.4957 51.1225 -4.75724
88.3107 51.1078 -4.75423
87.9545 51.265 -4.76829
87.7729 51.3022 -4.77085
87.5924 51.3464 -4.7745
85.5796 51.6602 -4.79966
85.3936 51.6244 -4.7954
83.0316 35.949 -3.17632
81.7935 30.8186 -2.65039
60.2758 7.38922 -1.44524
60.2003 7.33441 -1.44768
60.1655 7.25456 -1.44581
60.129 7.22545 -1.44751
100.9 2.03567 -0.741147
89.3093 47.2664 -4.71308
89.1412 47.3128 -4.71674
89.0441 47.2067 -4.70462
88.3692 47.3473 -4.71375
88.2021 47.4076 -4.71956
88.0315 47.4292 -4.72094
85.1898 47.1236 -4.67377
84.9969 46.1997 -4.5725
81.7795 28.2658 -2.6126
79.5522 13.0489 -0.981584
89.5362 44.4985 -4.73266
85.1402 44.5539 -4.70982
82.0854 33.296 -3.40916
75.0941 11.5488 -1.09025
75.0534 11.4839 -1.08555
88.2847 42.5064 -4.8172
88.1319 42.5466 -4.81977
88.054 42.5598 -4.82099
87.9 42.585 -4.82239
87.7426 42.5865 -4.82154
97.7077 1.00538 -0.806091
97.7389 1.08162 -0.814927
97.7461 1.14519 -0.820639
97.8579 1.26928 -0.84195
97.8277 1.31203 -0.841457
97.8185 1.36688 -0.845084
82.057 32.8206 -4.09087
81.9607 32.1464 -4.00033
89.7786 34.9781 -4.64204
89.6509 35.0237 -4.64666
89.5185 35.0448 -4.647
89.4523 35.0483 -4.64609
89.3196 35.0664 -4.64641
89.1886 35.0974 -4.64886
89.0581 35.1242 -4.65027
88.9289 35.167 -4.65386
88.7981 35.199 -4.65632
88.6674 35.238 -4.65987
88.5387 35.2847 -4.6645
88.4771 35.334 -4.6711
88.3469 35.3769 -4.67469
88.216 35.4149 -4.67823
88.086 35.4659 -4.68391
87.9535 35.486 -4.68524
87.8189 35.4912 -4.68441
87.6859 35.5084 -4.68471
87.6185 35.51 -4.68478
87.4844 35.5192 -4.68399
87.3515 35.5363 -4.68529
87.2173 35.5516 -4.68657
87.0828 35.5508 -4.68467
86.9489 35.561 -4.68489
86.8153 35.5731 -4.68514
86.7481 35.5767 -4.68523
86.6148 35.5979 -4.68758
86.4835 35.64 -4.69216
86.3498 35.6593 -4.69348
86.2172 35.6925 -4.69797
86.084 35.7147 -4.69932
85.3454 35.7634 -4.70247
85.2112 35.7787 -4.70375
85.0769 35.7929 -4.70602
84.942 35.8033 -4.70624
84.8747 35.7918 -4.70517
84.7411 35.8251 -4.70865
84.606 35.8203 -4.7077
84.4714 35.8467 -4.71211
84.3369 35.8671 -4.71445
84.2032 35.9065 -4.72
84.0683 35.938 -4.72346
84.0009 35.9679 -4.72786
82.1053 32.5431 -4.25571
80.2552 17.6585 -2.20911
75.5699 8.00445 -1.09887
75.3988 6.41614 -1.13209
75.3526 6.39651 -1.13391
92.9485 -14.5823 -0.347001
94.9759 -12.7909 -0.524598
95.1212 -10.5881 -0.447331
75.8804 5.43837 -1.13967
92.4716 -3.00974 -0.642983
87.1527 -13.1585 -0.516735
88.5046 -10.0992 -0.560171
88.5001 -10.0742 -0.555456
46.4527 -3.41761 -12.3111
47.7677 -3.38284 -12.5955
47.7546 -3.49512 -12.5952
47.5054 -3.58552 -12.6854
82.4349 -8.32575 0.444005
82.9098 -5.73487 0.530158
82.8875 -5.70758 0.514831
119.373 -10.9916 -14.7172
119.357 -10.8761 -14.7065
82.9773 -5.7436 0.528311
82.9909 -5.77469 0.543674
82.9652 -5.73587 0.522214
82.8748 -5.62876 0.441927
82.9234 -5.7181 0.488977
82.924 -5.72822 0.494092
82.9017 -5.70094 0.477766
82.8736 -5.66481 0.456334
82.8445 -5.62149 0.43182
82.7966 -5.55539 0.394033
82.8257 -5.6118 0.423695
82.8183 -5.60774 0.419643
82.8326 -5.64094 0.43703
82.7896 -5.58257 0.403335
82.803 -5.72026 0.460903
82.8807 -5.83882 0.527308
82.7632 -5.74384 0.460137
85.0026 -8.28972 0.320654
84.9579 -8.24154 0.350076
84.968 -8.242 0.34709
2.60881e-40 0 1.15033e-41
