ply
format ascii 1.0
element vertex 850
property float x
property float y
property float z
end_header
132.372 6.90757 3.23267
96.1439 14.188 2.08539
91.7255 10.1114 1.88391
97.097 33.0193 2.5453
91.0316 33.7322 2.45717
91.1849 50.2682 2.92358
91.0249 50.3765 2.92461
92.8957 58.0119 3.16635
92.7423 57.8403 3.15952
92.4133 57.4084 3.14314
92.1712 57.2942 3.13679
92.1209 57.9171 3.15413
91.8902 57.8529 3.14962
91.7243 58.0389 3.15332
91.7478 58.9937 3.18158
91.5077 58.4577 3.16292
91.2576 58.3094 3.15568
91.2956 59.357 3.18662
35.7485 16.4216 2.44949
39.3073 14.2871 2.32892
28.7069 14.3878 2.61707
26.9994 13.7779 2.6588
9.07552 14.1878 3.17423
8.63222 13.521 3.18341
1.02401 14.3285 3.40974
15.8837 -12.9931 2.98966
16.3522 -13.6934 2.98203
5.43035 -17.0564 3.34095
43.0683 -11.1954 2.15537
45.8056 -11.7602 2.07878
42.0382 -12.8939 2.20272
45.5677 -12.646 2.09553
15.6992 -19.5181 3.05913
11.9141 -20.5926 3.18377
54.152 -12.4343 1.84139
27.9619 -25.3915 2.78762
21.8484 -28.0987 3.004
44.7008 -18.8061 2.20926
50.7315 -16.3678 1.99968
44.7397 -19.1342 2.2137
44.6904 -19.2704 2.21708
26.993 -27.1414 2.84437
24.6039 -28.2841 2.93095
32.4521 -32.8406 2.81241
57.1953 -19.1692 1.88749
48.2335 -29.5134 2.35388
48.2755 -29.6267 2.35547
48.3625 -29.7021 2.35607
25.2877 -50.4747 3.41196
25.7632 -50.3332 3.39698
39.8923 -38.2285 2.76783
138.519 -48.0442 4.06693
144.574 -45.6344 4.20854
137.743 -21.095 3.55859
137.76 -20.8923 3.55683
137.76 -20.6861 3.55401
137.754 -20.478 3.55215
137.758 -20.2736 3.54935
137.79 -20.1782 3.55008
137.788 -19.9727 3.54725
154.709 -4.60995 3.55942
149.658 -0.609518 3.39253
98.0662 29.6552 2.21399
91.7238 49.9151 2.55279
91.3301 49.1995 2.53233
91.2668 49.6373 2.54137
91.1044 49.7288 2.54146
91.0002 50.0322 2.5469
90.9005 50.3591 2.55326
92.9676 58.754 2.76461
92.7064 58.1847 2.74902
92.4754 58.1256 2.74548
92.3358 58.4149 2.74986
92.1293 58.4471 2.74904
92.3424 60.1382 2.78899
91.6478 58.2437 2.73924
92.125 61.0423 2.80765
91.34 58.2948 2.73701
74.2465 10.1254 1.4984
62.7239 11.0741 1.60007
28.2372 -19.7877 2.38113
13.3411 -25.3327 2.78948
13.9281 -25.3621 2.77657
27.015 -27.255 2.5089
25.7782 -28.2674 2.55081
25.9004 -35.4717 2.66902
25.9196 -35.6716 2.67188
55.2618 -20.0426 1.79752
49.1151 -28.655 2.08939
49.3293 -28.6146 2.08495
49.2316 -28.7711 2.09025
39.6373 -37.2868 2.44521
26.739 -48.8101 2.92315
137.917 -22.8915 3.17735
136.215 -21.3045 3.10931
136.217 -21.1025 3.10751
136.182 -20.9924 3.10495
136.182 -20.7901 3.10314
136.188 -20.5899 3.10036
136.185 -20.3884 3.09854
136.208 -20.1928 3.09684
136.207 -19.9914 3.09503
137.217 -19.5156 3.12051
151.276 -3.29322 3.09267
136.101 6.52043 2.68468
151.34 19.8781 3.09825
99.8232 14.5651 1.84619
99.7291 37.5737 2.16489
90.8605 30.6577 1.93188
94.6841 48.5479 2.28515
93.4285 50.9007 2.31354
91.774 50.2161 2.28475
91.5702 50.1701 2.28225
91.4257 49.9972 2.27746
91.2362 51.3824 2.30129
92.4616 57.4493 2.42113
92.3148 57.7033 2.42463
92.3052 58.487 2.43846
91.7254 56.6525 2.39986
91.8103 57.8125 2.4215
91.6346 57.9585 2.42333
91.4216 57.9604 2.42161
91.2149 57.9845 2.41982
139.611 -29.1748 2.98513
150.788 -30.9904 3.28377
151.495 -31.0947 3.30255
151.506 -30.8336 3.29954
136.982 -19.3176 2.81593
103.643 42.4249 1.87558
98.7533 36.1032 1.7645
91.7077 49.9028 1.83977
91.4825 49.7802 1.83651
91.2764 49.7184 1.83407
93.3871 57.966 1.93716
93.204 57.6957 1.93362
92.8991 57.3663 1.92792
92.6928 57.3935 1.92612
92.425 57.1861 1.92206
92.171 57.0252 1.91885
91.9619 57.0325 1.91712
92.0136 58.0559 1.9282
91.6918 57.632 1.92182
91.5898 57.6459 1.92142
91.4218 57.8242 1.92215
91.1942 57.7604 1.91964
127.616 -27.4646 2.24216
142.13 -21.8009 2.45207
136.967 -19.2432 2.33957
96.7128 13.03 1.40592
99.833 36.0089 1.52749
92.5335 35.9284 1.4704
91.9147 42.2782 1.50094
93.3643 57.5527 1.59573
92.7377 57.2149 1.59098
92.4901 57.0834 1.58868
92.287 57.1182 1.58686
92.122 57.296 1.5876
91.5563 57.5668 1.58562
91.3356 57.1089 1.58172
91.089 57.8202 1.58405
90.9438 58.0981 1.58545
94.7912 -19.6493 1.48314
94.8353 -19.5901 1.48305
113.744 -22.1253 1.73642
113.798 -22.007 1.73613
154.882 -15.0144 1.67757
151.225 3.18519 1.58158
100.84 14.1533 1.23022
100.773 14.2298 1.2297
95.1488 49.1378 1.15433
90.932 41.7285 1.14285
90.541 47.9488 1.13567
90.3761 48.0093 1.13488
90.6784 49.7984 1.13474
90.5579 49.6998 1.13373
90.3597 49.6581 1.13323
90.1331 49.5043 1.13209
91.8705 56.9259 1.13223
91.7359 57.2215 1.1316
91.5365 57.2679 1.13075
91.3654 57.4244 1.12955
91.7065 59.6717 1.12971
91.0921 57.6008 1.12893
90.9583 57.9226 1.1282
90.6527 57.5267 1.12676
90.4876 57.7176 1.12644
60.6798 -19.2179 1.19133
94.6747 -19.5934 1.31752
94.7343 -19.5456 1.31753
94.8405 -19.5308 1.31782
148.208 -30.7363 1.7091
150.644 -31.1768 1.72601
137.795 -21.8381 1.5987
137.79 -21.6292 1.59785
135.318 -19.7099 1.57291
155.023 -15.1131 1.30343
155.007 -14.9845 1.30286
155.034 -14.7357 1.30196
155.109 -14.491 1.30123
155.047 -14.2323 1.29999
155.052 -13.9804 1.299
155.233 -13.7461 1.29867
152.778 1.20511 1.23368
116.776 5.60409 1.1497
96.4545 12.4309 1.07844
90.418 48.2196 0.871176
90.2583 48.3026 0.87031
90.1903 48.735 0.867354
89.9935 48.6819 0.866908
89.9285 48.7834 0.866285
91.9674 57.3998 0.824656
92.4576 60.1609 0.811257
92.1258 61.5051 0.802773
91.0143 57.8274 0.819759
90.9302 57.9155 0.819125
90.9227 58.7827 0.814633
90.5725 58.1993 0.816795
90.3935 58.3438 0.814619
94.7668 -19.4163 1.20612
94.7617 -19.368 1.20591
135.522 -20.6302 1.28827
135.51 -20.5273 1.28782
135.542 -20.336 1.28716
135.535 -20.1348 1.28633
135.536 -19.937 1.28555
135.539 -19.7383 1.28476
154.973 -14.9316 0.795528
155.012 -14.3047 0.793153
155.042 -14.0565 0.792262
106.227 19.0319 0.815731
97.5519 38.3045 0.631669
90.5607 49.964 0.494674
90.4016 50.0722 0.49371
90.752 52.1331 0.469642
90.6647 52.1721 0.469194
91.7232 57.0602 0.414191
90.2983 52.2581 0.467625
90.7446 54.8224 0.438865
91.2668 57.7667 0.40484
91.0558 57.7683 0.405128
90.8527 57.8031 0.40431
90.1318 55.6479 0.428516
90.6312 58.2095 0.398945
94.8632 -19.3763 1.05728
134.998 -28.7655 0.912036
147.737 -30.6067 0.862998
137.381 -24.056 0.895175
135.109 -21.3715 0.899845
135.121 -20.9761 0.899306
135.026 -20.754 0.899101
135.019 -20.5539 0.899277
135.037 -20.3605 0.898565
135.033 -20.2608 0.898151
135.243 -19.9156 0.896474
135.19 -19.7057 0.896457
140.167 -19.2703 0.873362
151.567 -19.5398 0.824562
154.893 -14.7175 0.306398
154.825 -14.4579 0.306133
155.11 -14.3633 0.30271
155.049 -14.1037 0.302468
155.142 -13.8617 0.300812
151.656 -4.29053 0.305889
152.722 1.07856 0.267989
97.154 11.7664 0.735434
96.736 12.915 0.723444
97.1461 13.3411 0.714112
96.881 29.5619 0.474374
98.5294 33.8541 0.398727
93.3228 30.8348 0.464386
91.8782 47.2747 0.186827
91.3865 52.1288 0.101776
91.1677 52.0426 0.103389
91.0081 52.1741 0.101329
91.3833 54.3567 0.0628583
90.6504 52.2993 0.0996329
91.2165 55.2876 0.0465784
90.8381 54.5952 0.0590816
90.8293 54.9623 0.052584
90.6807 55.1831 0.0482042
91.0667 57.6117 0.00578578
90.2273 54.9858 0.0514771
90.0478 55.0848 0.0504807
89.8738 55.2012 0.0484335
89.7862 55.7002 0.0391457
65.5202 15.5622 0.672466
94.963 -19.3268 0.911413
114.094 -22.0073 0.732107
136.636 -28.5722 0.505735
136.788 -28.5197 0.504034
138.853 -27.9376 0.48461
138.812 -26.7068 0.485555
134.713 -23.8233 0.527318
135.061 -23.8278 0.523499
134.803 -23.5464 0.526512
136.28 -23.781 0.511391
137.178 -23.8357 0.502611
137.976 -23.8555 0.494358
138.025 -23.4452 0.493881
142.156 -24.496 0.451899
139.39 -23.5058 0.47969
135.581 -21.444 0.517708
135.643 -21.3602 0.517583
135.963 -21.2402 0.514173
134.764 -20.7372 0.526153
134.822 -20.5547 0.525617
134.647 -20.3138 0.527069
134.815 -20.1584 0.525007
135.586 -19.6487 0.516548
141.617 -11.9369 -0.021121
141.259 -11.6955 -0.0152826
141.7 -11.0041 -0.0245726
141.624 -10.7889 -0.0246858
136.894 -2.14522 0.0259407
131.644 0.0195197 0.10573
140.201 7.46265 -0.0964113
122.171 5.44059 0.229378
97.0537 11.6905 0.543399
106.537 19.8488 0.280493
96.6022 12.3347 0.538314
96.3541 35.2367 0.0629196
93.014 29.8715 0.205201
92.89 29.9007 0.204669
102.499 67.1456 -0.710105
90.5485 48.5362 -0.227668
90.3836 48.6038 -0.22849
90.3425 49.1373 -0.241761
90.2864 49.2719 -0.244486
91.3978 54.2025 -0.366483
91.1807 54.1413 -0.364964
90.9887 54.1765 -0.364747
90.8215 54.3111 -0.367844
89.5878 50.1745 -0.265431
90.6497 55.2427 -0.390144
90.5482 55.2465 -0.390498
89.1201 50.1692 -0.263974
90.1439 55.2531 -0.389877
89.9405 55.2516 -0.389551
65.54 15.6658 0.505116
95.1793 -19.3722 0.744316
95.2157 -19.3512 0.743354
121.096 -26.249 0.311476
121.065 -26.0645 0.312632
121.295 -25.9951 0.310126
121.55 -26.0214 0.306083
121.682 -25.9073 0.304068
115.243 -22.3646 0.421373
122.861 -25.2835 0.287517
129.326 -21.5895 0.192367
131.693 -21.7119 0.151773
132.436 -21.7298 0.139331
133.112 -21.8217 0.127958
133.587 -21.7578 0.120289
134.918 -20.829 0.0990285
135.08 -20.6707 0.0959364
135.178 -20.4971 0.0945708
134.997 -20.0572 0.0982062
136.722 -18.4564 0.0695754
132.588 -9.71193 -0.160211
132.51 -9.52767 -0.159209
132.386 -9.34068 -0.156372
139.235 -4.55801 -0.328591
137.688 2.37923 -0.335496
139.288 2.79578 -0.374813
139.391 3.01404 -0.378339
139.605 3.1455 -0.384151
139.717 3.36755 -0.388663
95.1662 13.4773 0.393941
89.8035 10.9267 0.530206
98.5726 33.0647 -0.13498
91.6841 27.5562 0.0760073
92.7509 37.9756 -0.223084
90.3987 48.1266 -0.503536
90.5754 49.4569 -0.543264
90.4714 49.7682 -0.551856
90.3669 50.0827 -0.560463
90.0952 49.7596 -0.55008
90.0258 49.8517 -0.55268
89.8496 49.8906 -0.553425
89.6417 49.8028 -0.549769
89.5746 50.2835 -0.563915
89.3933 50.3081 -0.56362
89.2215 50.3706 -0.565444
88.9954 50.2067 -0.559545
88.9228 50.291 -0.562125
88.7586 50.3838 -0.565046
88.5901 50.462 -0.566921
77.49 13.0289 0.558622
97.0424 -23.3094 0.543284
115.289 -23.3242 0.195361
118.198 -23.2622 0.13484
118.39 -23.1831 0.132164
118.583 -23.1053 0.1285
118.805 -23.1156 0.123283
124.647 -17.9559 0.018193
124.883 -17.85 0.0135582
125.164 -17.7537 0.00711275
125.29 -17.7014 0.00432471
125.765 -17.6486 -0.00529888
135.503 -19.7353 -0.224392
126.196 -16.8315 -0.0141246
126.353 -16.6988 -0.0171303
126.494 -16.5619 -0.0202052
126.698 -16.4372 -0.0240208
126.844 -15.2144 -0.0264222
126.923 -15.0622 -0.0277668
130.262 -14.2496 -0.102849
130.306 -14.0802 -0.103379
122.523 -12.6337 -0.210192
122.596 -12.4939 -0.212507
122.624 -12.3474 -0.212997
122.656 -12.2015 -0.213476
122.775 -12.0663 -0.217619
122.945 -12.0134 -0.22226
123.095 -11.8817 -0.226286
123.189 -11.7419 -0.22853
123.175 -11.5883 -0.22819
123.155 -11.4348 -0.227871
123.115 -11.2784 -0.226629
123.084 -11.1242 -0.226349
123.204 -11.0619 -0.229199
123.287 -10.9195 -0.232489
123.329 -10.773 -0.232936
123.398 -10.6284 -0.235284
123.49 -10.4853 -0.238546
123.522 -10.3364 -0.239035
123.584 -10.1908 -0.24141
123.594 -10.0397 -0.241981
123.602 -9.96403 -0.242256
123.657 -9.81743 -0.243659
123.717 -9.67057 -0.246046
123.738 -9.52003 -0.246577
123.837 -9.37486 -0.249826
123.878 -9.22623 -0.251284
123.956 -9.07901 -0.253611
124.003 -9.00606 -0.254745
124.052 -8.85563 -0.256182
123.993 -8.69942 -0.255003
123.95 -8.54555 -0.254763
124.017 -8.39658 -0.256137
123.997 -8.24307 -0.256817
124.048 -8.09292 -0.258246
124.196 -8.02374 -0.263026
124.331 -7.87672 -0.267163
125.26 -7.05671 -0.296336
125.42 -6.90427 -0.301411
125.522 -6.7495 -0.304687
125.671 -6.59546 -0.308805
126.447 -5.56913 -0.335313
126.62 -5.40854 -0.341376
126.762 -5.24641 -0.34555
126.876 -5.08419 -0.349818
126.951 -5.00215 -0.351896
127 -4.84054 -0.354379
127.114 -4.67634 -0.358654
127.258 -4.51055 -0.363833
127.483 -4.34138 -0.370757
127.748 -4.16994 -0.379558
127.954 -3.99899 -0.385552
128.201 -3.8251 -0.394419
128.089 -3.74691 -0.391109
128.709 -3.55582 -0.409799
128.999 -3.375 -0.419551
129.42 -3.18602 -0.431899
129.248 -3.02531 -0.428119
130.623 -2.17369 -0.472925
130.87 -1.98253 -0.480862
131.103 -1.79132 -0.488847
131.024 1.10268 -0.507683
131.162 1.29762 -0.512999
117.183 4.9274 -0.156255
108.24 10.1023 0.00515035
93.9078 9.02347 0.369538
95.6377 28.6793 -0.226265
96.3059 31.4322 -0.322037
99.0151 40.6913 -0.652997
94.8764 41.3681 -0.634544
92.4563 39.2406 -0.54213
89.2376 40.6153 -0.568391
91.1708 50.1173 -0.908918
91.5588 52.2201 -0.984028
90.3956 48.6554 -0.854665
90.546 49.9026 -0.898149
90.4166 50.1227 -0.905461
90.2302 50.1267 -0.905101
89.9655 49.831 -0.892804
89.8496 49.7439 -0.889843
90.686 53.7818 -1.03519
90.495 53.8169 -1.03497
90.4077 54.2692 -1.05107
89.2738 50.4284 -0.911505
89.035 50.2128 -0.902442
89.7883 54.1871 -1.04481
88.7092 50.4101 -0.90832
74.9782 11.1276 0.507823
65.5504 15.6401 0.24225
-3.90282 -13.585 -1.67021
108.53 -23.0969 0.112847
108.652 -23.0279 0.10998
111.589 -19.7215 0.0645801
117.537 -15.4547 -0.0755865
117.69 -15.3508 -0.0794915
117.852 -15.2483 -0.0833576
118.165 -15.1778 -0.0915942
118.212 -14.9786 -0.0922323
118.192 -14.8341 -0.0918776
118.153 -14.5475 -0.0901537
118.2 -14.4179 -0.0905134
122.449 -13.4506 -0.209174
122.47 -13.3032 -0.209692
122.566 -13.1676 -0.211914
122.561 -13.0163 -0.211536
122.527 -12.9356 -0.210971
122.555 -12.789 -0.211465
117.828 -6.24967 -0.362418
117.961 -6.11764 -0.3675
119.018 -5.2376 -0.408484
119.148 -5.09906 -0.413602
119.34 -4.95833 -0.420524
119.465 -4.81793 -0.425669
119.636 -4.74402 -0.432391
119.815 -4.60042 -0.439367
120.034 -4.45471 -0.448216
120.209 -4.30855 -0.454215
120.326 -4.16387 -0.459405
122.437 -1.498 -0.551001
122.575 -1.33629 -0.557186
101.423 6.8749 0.0482567
93.885 8.99494 0.216574
103.261 46.367 -1.2725
95.7423 41.4675 -0.98205
91.5862 48.1766 -1.21277
91.3661 48.3715 -1.21929
90.6548 48.4626 -1.21803
90.92 50.1062 -1.28772
90.7404 50.1427 -1.28746
91.5756 53.6138 -1.43655
90.3951 49.9042 -1.27566
90.2479 50.0581 -1.28077
90.0528 50.0301 -1.27831
89.8988 50.1588 -1.28334
89.7245 50.2106 -1.28413
73.5886 12.1865 0.34294
17.6903 -15.4446 -1.29756
103.304 -22.5796 0.0353007
103.484 -22.509 0.0306208
101.503 -18.8409 0.144333
113.336 -18.0389 -0.230307
112.44 -10.1362 -0.386899
112.923 -5.77935 -0.412701
114.411 -4.19239 -0.482071
114.536 -4.06515 -0.488162
114.645 -3.99823 -0.493066
99.2571 40.5525 -1.30164
96.3591 39.3379 -1.20148
92.029 49.3545 -1.60601
91.7514 49.0536 -1.58973
91.3541 48.3287 -1.55216
91.3468 48.6238 -1.56637
91.2187 48.8255 -1.5746
91.3471 49.9354 -1.62761
91.1514 49.9105 -1.62417
91.0211 50.1246 -1.63346
90.8364 50.1405 -1.63314
90.6119 50.0087 -1.62436
90.5356 50.0744 -1.62688
90.3157 49.953 -1.62013
90.1587 50.068 -1.62411
90.9137 53.7357 -1.80226
74.8505 10.0987 0.344507
74.81 9.89136 0.3542
4.63991 10.4424 -2.42071
97.7554 -18.8238 0.10673
108.497 -13.6183 -0.239162
109.095 -5.26748 -0.44955
109.179 -5.16059 -0.453695
109.23 -5.05387 -0.456951
109.314 -4.94585 -0.461104
109.376 -4.83775 -0.465328
109.467 -4.72876 -0.46946
109.555 -4.67196 -0.474392
109.667 -4.56093 -0.480464
109.761 -4.4504 -0.485591
109.85 -4.33914 -0.489738
109.931 -4.22673 -0.494917
110.005 -4.11528 -0.499115
110.387 -3.60234 -0.519887
110.504 -3.37495 -0.527404
110.584 -3.31387 -0.531382
111.068 -2.83001 -0.557697
111.128 -2.71243 -0.561967
110.981 -2.61403 -0.555853
111.282 -2.52986 -0.570182
111.29 -2.41576 -0.571613
111.468 -2.28518 -0.58154
111.556 -2.16162 -0.58674
111.616 -2.04107 -0.590021
111.71 -1.91641 -0.596205
111.788 -1.79253 -0.600437
111.85 -1.67113 -0.604717
111.906 -1.60657 -0.607789
111.921 -1.48953 -0.610206
111.994 -1.36479 -0.614461
111.996 -1.24784 -0.615922
111.543 -0.212279 -0.606576
111.39 -0.0635095 -0.600683
111.389 0.0517463 -0.602145
111.316 0.154545 -0.599803
111.279 0.263994 -0.599362
95.4485 26.4035 -0.842808
91.8462 42.3492 -1.57061
89.9723 40.35 -1.44489
89.4984 39.5787 -1.39939
91.2558 48.3874 -1.87773
91.1243 48.5724 -1.88591
91.1487 48.9871 -1.90849
95.7807 66.248 -2.85901
91.0116 49.8378 -1.95135
91.5557 55.9615 -2.27801
91.2837 55.7053 -2.2619
91.1469 55.9789 -2.27545
74.8585 10.0476 0.255737
74.819 9.84728 0.266406
68.9949 17.0929 -0.192045
22.3074 -0.0264216 -1.77376
22.2272 -0.187516 -1.77639
22.221 -0.271499 -1.77607
22.4725 -6.41461 -1.72367
89.2707 39.031 -1.66596
89.0996 38.9742 -1.66031
89.0364 39.0188 -1.6627
91.1537 47.9292 -2.20825
90.9881 47.9929 -2.21005
90.9285 48.427 -2.23399
90.8857 48.9345 -2.26316
74.8534 10.0581 0.153676
24.7185 9.77148 -2.12387
30.5946 3.80577 -1.67337
31.5323 -8.66517 -1.51437
105.207 -1.11908 -0.652141
105.225 -1.02072 -0.654472
103.931 2.22614 -0.637781
93.096 5.76988 -0.165177
92.3038 9.07518 -0.268041
92.1393 9.02148 -0.258377
89.7864 40.253 -2.00013
89.1974 38.8347 -1.90242
89.3522 39.8629 -1.97002
89.2534 40.0572 -1.98013
89.1594 40.0023 -1.97522
88.9583 39.8508 -1.96329
88.8438 39.9939 -1.97124
88.8179 40.4514 -1.99916
90.8374 48.1978 -2.51838
90.7427 48.5168 -2.53797
91.3094 51.257 -2.72003
91.3533 51.77 -2.75294
90.7195 38.7086 -2.24584
90.6523 38.7397 -2.24618
91.9149 42.9855 -2.56394
90.28 41.2728 -2.41556
90.0934 41.193 -2.40686
89.8887 41.0512 -2.39398
89.4489 40.1274 -2.32176
89.3488 40.3199 -2.33386
89.2276 40.4448 -2.34077
89.1746 40.5314 -2.34629
91.1161 47.7929 -2.88583
90.9443 47.8271 -2.88555
90.8139 48.0129 -2.89673
90.7599 48.4715 -2.92774
91.1816 50.6711 -3.08912
91.078 50.9914 -3.10975
96.9858 38.3063 -2.60228
96.695 41.4438 -2.81679
92.1105 40.6674 -2.65002
90.8521 38.4348 -2.4593
91.038 39.4402 -2.5377
90.9062 39.5201 -2.54046
93.2947 47.1748 -3.15408
90.4866 38.9683 -2.49166
89.3741 40.7064 -2.60033
89.1396 40.4447 -2.57606
91.0394 47.593 -3.1433
90.8935 47.7214 -3.1503
90.8066 47.7352 -3.15064
90.6118 47.6889 -3.14411
90.6832 48.603 -3.21353
91.1359 50.9374 -3.39635
91.3564 52.4682 -3.51473
98.0106 -13.0934 -0.510333
94.4561 31.0806 -2.29284
93.8052 30.5091 -2.22874
98.4574 43.8287 -3.39144
98.7659 44.9192 -3.48477
90.4155 41.1206 -2.9725
90.2729 41.1819 -2.97423
90.2563 43.5759 -3.16786
90.1199 43.6868 -3.17375
89.9494 43.6815 -3.1703
90.8572 47.4436 -3.49231
90.6909 47.4952 -3.49407
90.5946 47.4729 -3.49031
91.3564 50.8664 -3.78033
98.3603 43.8479 -3.70385
95.1504 38.471 -3.15808
90.3317 41.1269 -3.25381
89.819 40.5058 -3.18804
90.1711 43.6005 -3.46324
89.9944 43.5739 -3.45773
89.8594 43.6876 -3.46463
90.5381 46.6799 -3.73733
90.3562 46.6661 -3.73288
90.1847 46.6892 -3.73155
76.2064 3.48113 0.278496
76.1747 3.44434 0.282537
76.1433 3.40246 0.2866
94.6765 -11.0215 -0.492767
94.6895 -10.9607 -0.492966
94.1902 34.1661 -3.03508
89.9312 40.257 -3.45668
90.1995 43.2902 -3.74191
90.1183 43.5839 -3.76636
90.035 43.588 -3.76565
90.5653 46.6293 -4.05804
90.3894 46.6359 -4.05466
90.3805 47.8971 -4.17073
90.9519 50.6676 -4.4399
85.4038 -18.6913 -0.279112
94.9198 37.8208 -3.68326
92.3502 43.3004 -4.12476
89.3848 38.4204 -3.56916
89.2472 38.4678 -3.56981
90.1778 43.4296 -4.07955
90.0681 43.6326 -4.09772
89.8925 43.6068 -4.09021
88.4638 39.1766 -3.62027
90.4698 47.8282 -4.52016
78.4789 8.41679 -0.359645
57.8315 10.5814 -1.38836
57.779 10.5264 -1.38832
57.7229 10.475 -1.3883
94.8984 37.7289 -3.96697
90.1693 35.3503 -3.56027
91.6453 41.6506 -4.25253
89.4263 38.5022 -3.86336
89.9872 42.7078 -4.3153
89.8351 42.7533 -4.31599
89.6899 42.8241 -4.31976
89.5995 43.0899 -4.34512
90.4123 46.5534 -4.72726
90.2332 46.5452 -4.72182
90.1375 46.5198 -4.71704
77.6071 11.9831 -0.820824
77.5526 11.9972 -0.822062
91.0798 39.7319 -4.35375
89.3947 38.63 -4.18098
89.5228 41.1339 -4.46056
89.5563 41.52 -4.504
89.716 42.6281 -4.63089
89.6966 43.1361 -4.68699
89.6724 43.6387 -4.74208
89.5537 43.8147 -4.75818
89.3647 43.7394 -4.74451
89.25 43.936 -4.76368
89.0909 43.9674 -4.76234
77.6167 12.0177 -0.942932
77.5594 12.02 -0.942132
77.5031 12.0222 -0.942329
81.7788 -16.7888 -0.208839
81.7874 -16.7648 -0.206907
89.4417 38.6808 -4.47403
89.3481 40.425 -4.67432
89.3951 41.1233 -4.75695
89.2988 41.3415 -4.77915
89.2223 41.3577 -4.77847
89.1005 41.4918 -4.79041
88.9467 41.5183 -4.79003
60.4043 7.93466 -1.39418
60.371 7.92133 -1.39624
60.3347 7.86702 -1.39514
91.5179 33.871 -4.24285
91.3442 33.7964 -4.22713
91.0775 33.8527 -4.22325
90.5453 38.1221 -4.71211
89.8504 38.5866 -4.74429
89.7174 38.6515 -4.74699
89.5277 38.5369 -4.72717
89.3695 38.5196 -4.71963
88.8922 39.227 -4.79005
88.7687 39.329 -4.79887
88.6277 39.3739 -4.80052
88.2591 39.4309 -4.79599
89.5367 2.38916 -0.937575
90.5431 32.3623 -4.23408
90.4276 32.4227 -4.23671
89.2154 36.4391 -4.68983
89.098 36.528 -4.69657
88.9724 36.5949 -4.70126
88.4151 36.9291 -4.72446
88.2866 36.9904 -4.72814
88.1494 37.0196 -4.72671
88.0129 37.0537 -4.7273
81.2915 11.1376 -1.34913
81.2314 11.1343 -1.34632
81.1805 11.1589 -1.34759
81.1096 11.1238 -1.33968
81.0878 11.1472 -1.34185
80.1351 10.3322 -1.19977
80.0949 10.3886 -1.20613
80.0693 10.3933 -1.20624
80.0279 10.4418 -1.21157
80.71 8.77976 -1.11964
70.6051 8.92908 -1.17204
85.5775 4.55238 -0.996464
76.3612 -12.4204 -0.649428
78.1861 -5.76418 0.0140741
78.0972 -6.72351 -0.00538803
78.0715 -6.70555 0.00645437
74.6866 -4.30389 0.274537
74.6894 -4.31943 0.280608
74.4169 -7.17403 0.299109
74.8896 -4.61211 0.40145
74.9256 -4.55382 0.367336
74.9638 -4.63709 0.408797
74.9569 -4.62903 0.403742
74.8946 -4.57259 0.350308
74.7164 -4.26206 0.185468
74.9007 -4.59266 0.360408
74.8892 -4.5819 0.353327
74.854 -4.53337 0.326014
74.8347 -4.50636 0.310842
74.7912 -4.44553 0.276453
74.7885 -4.45019 0.276462
74.7955 -4.47138 0.28657
74.8048 -4.49696 0.299704
74.7974 -4.49285 0.296663
74.6947 -4.34066 0.21171
74.8247 -4.65629 0.366408
74.7974 -4.68362 0.370427
74.5385 -6.7903 0.380983
74.4606 -7.11893 0.252034
74.5302 -7.04913 0.296989
74.5578 -7.02582 0.313988
74.5651 -7.05926 0.305146
76.9393 -7.03216 0.241977
76.9214 -7.1004 0.208189
76.9207 -7.09119 0.21215
76.9333 -7.05358 0.219042
6.86503e-40 0 0
