ply
format ascii 1.0
element vertex 632
property float x
property float y
property float z
end_header
108.041 10.1887 3.16178
95.1873 14.5064 2.69749
60.2906 14.4176 1.55227
59.4181 14.5807 1.52559
36.8929 17.0834 0.989545
36.8243 17.0774 0.988569
36.7694 17.0252 0.987175
4.93624 21.478 1.372
1.09952 22.6337 1.47778
-28.0798 35.4433 2.35191
0.966495 15.7021 1.43371
0.780169 15.6906 1.43872
-26.8041 30.2424 2.29142
-29.6614 30.6199 2.37559
-5.46974 17.6388 1.62685
-4.02713 15.0469 1.5771
-6.10591 15.085 1.63907
-6.05698 14.93 1.63803
-6.29954 14.9036 1.64518
-6.34545 14.6572 1.6462
-32.9373 21.6897 2.46298
-33.1386 21.5409 2.46968
-42.2285 -17.6608 3.19449
-27.7842 -16.7229 2.71267
-28.2162 -17.0393 2.73328
-26.7459 -18.3483 2.71563
-17.9548 -17.7304 2.42555
-17.5183 -17.7391 2.41198
-17.4473 -17.8796 2.41378
-22.3988 -20.7208 2.63534
-10.5338 -23.1913 2.3479
-12.2178 -25.2739 2.4565
16.2842 -9.46051 1.18054
13.3718 -15.112 1.44452
13.5172 -15.0705 1.43912
20.5748 -9.37469 1.06769
21.2114 -9.23656 1.04846
21.2583 -9.21291 1.0462
15.9795 -14.8947 1.37578
73.3399 -20.6354 2.46525
108.567 9.89095 2.67584
108 10.0672 2.65822
-34.3048 21.031 2.0801
-30.8793 -16.6057 2.41287
7.03033 -15.1389 1.44209
76.3349 -34.7911 2.60522
56.8824 -20.5478 1.75073
97.1337 -16.8012 2.71656
97.1645 -16.5839 2.71289
97.1973 -16.3667 2.71022
97.2261 -16.1483 2.70653
97.2589 -15.9311 2.70386
97.2886 -15.7147 2.70019
97.3165 -15.4962 2.6975
97.3274 -15.3867 2.69615
68.9592 13.2076 1.36379
84.1178 -21.4077 2.18291
108.188 9.97538 1.68643
107.681 10.1574 1.67679
107.21 10.3428 1.66813
88.3177 12.8467 1.34682
68.8698 13.171 1.04415
90.078 -22.5004 1.84793
101.352 -17.7943 1.942
101.592 -15.4697 1.90932
105.152 -15.9495 1.97196
107.694 10.1835 1.27244
68.7325 13.1803 0.828918
55.8985 15.0399 0.685176
36.4301 17.1062 0.526878
89.5734 8.86383 0.667152
55.949 14.9574 0.471221
36.4404 17.1058 0.392881
-33.5855 22.1206 0.428991
26.4432 -15.9268 0.784413
42.7249 -17.2954 0.831645
45.373 -18.0395 0.849874
81.753 -21.1515 1.01887
100.868 -24.1704 1.13072
96.1546 -16.8335 1.0161
98.6295 -17.2012 1.02952
98.6278 -17.0858 1.02809
98.661 -16.8636 1.02535
98.8542 -15.7608 1.01181
96.4999 -15.1402 0.994335
88.7651 9.8101 0.368776
87.828 12.9006 0.329707
55.9773 15.0678 0.32386
45.8017 17.2958 0.299554
45.9026 17.6363 0.294402
36.4689 17.262 0.299956
24.1689 18.2191 0.278827
-35.9522 31.9445 -0.0197628
57.0479 -19.1584 0.746531
94.6058 -20.1721 0.73335
96.7601 -14.9465 0.669101
97.2569 -14.8281 0.667005
105.749 2.40697 -0.0365947
90.8585 8.54073 -0.0119235
68.7316 13.138 0.0763842
55.8939 15.0193 0.128385
38.1607 19.5067 0.129352
57.8557 -19.2507 0.531267
58.5117 -19.2882 0.527226
50.0004 -13.1006 0.527023
75.9251 -20.7867 0.43191
82.5144 -21.4791 0.395456
72.6436 -16.8411 0.415468
102.984 -24.267 0.285442
104.838 -21.7577 0.247686
105.05 -21.5605 0.244397
96.0903 -16.6317 0.254484
97.2313 -14.8878 0.227693
93.8183 4.00726 -0.369454
64.7776 9.78883 -0.0750286
49.4757 6.5428 0.171778
49.4718 6.61326 0.1709
35.7264 15.243 0.112445
35.7059 15.2645 0.112162
35.2748 21.4904 -0.0464535
32.4438 18.065 0.0499442
71.9424 -20.4091 0.165209
75.3946 -20.6988 0.126398
94.3441 -23.029 -0.0904491
95.1864 -19.9009 -0.126646
101.31 -21.315 -0.192495
102.969 -21.5387 -0.211473
90.8588 -17.9104 -0.0886043
92.8995 -17.836 -0.114996
93.7527 -17.7405 -0.12754
93.7376 -17.5198 -0.129291
103.242 -18.637 -0.241287
104.753 -18.7527 -0.259717
98.6113 -15.5698 -0.209838
94.8629 -4.43341 -0.733927
91.9186 0.458494 -0.733861
88.5608 8.47111 -0.779846
60.5983 6.02935 -0.184515
35.7088 15.2608 -0.00779868
77.4251 -20.9951 -0.260428
79.5301 -20.9616 -0.299264
79.6807 -20.9305 -0.302538
79.9169 -20.8403 -0.307479
80.076 -20.7196 -0.310859
80.3288 -20.6347 -0.315724
83.9261 -18.936 -0.39311
90.4805 -16.5268 -0.535097
91.1388 -16.4905 -0.549054
93.4979 -15.7045 -0.601041
93.44 -14.3167 -0.610311
93.6085 -13.7203 -0.618587
94.1457 -13.7233 -0.629147
94.9862 -13.25 -0.650392
91.6617 -9.99357 -0.613309
91.6707 2.0666 -1.06903
91.0119 2.52257 -1.05819
90.7149 2.89405 -1.05602
69.4853 3.41595 -0.527421
86.4162 8.72958 -1.03769
64.8921 9.75393 -0.523544
58.4206 14.7024 -0.481829
58.3169 14.765 -0.481685
54.6036 14.1369 -0.383671
35.7012 15.3194 -0.0975388
70.0973 -20.2719 -0.359921
71.5368 -19.751 -0.393309
71.8277 -19.722 -0.39945
72.2582 -19.5919 -0.409742
72.4696 -19.4418 -0.415446
72.5295 -19.3068 -0.417077
72.5874 -19.1716 -0.418711
72.66 -19.0415 -0.420272
72.7452 -18.9174 -0.422749
72.7857 -18.774 -0.424499
72.8468 -18.7192 -0.426132
72.9964 -18.6198 -0.429254
73.1371 -18.5178 -0.433415
73.1005 -17.1555 -0.436353
76.0007 -17.9089 -0.501826
71.955 -16.1928 -0.412161
73.0703 -16.1326 -0.439072
73.179 -16.0162 -0.442436
73.3475 -15.2263 -0.449114
74.328 -15.1583 -0.473223
80.9479 -15.0703 -0.63435
82.0511 -15.1085 -0.661049
83.3821 -14.5626 -0.696827
83.3437 -14.3723 -0.696217
85.9777 -11.3967 -0.782179
86.0977 -11.235 -0.786096
84.7922 -10.1846 -0.762114
84.5685 -9.70107 -0.760284
84.4207 -9.49882 -0.757905
83.8355 -9.23066 -0.745673
83.6716 -9.03025 -0.743283
85.7792 -8.98907 -0.796214
76.9382 -4.08841 -0.904699
76.8813 -3.93387 -0.90366
76.8272 -3.78055 -0.903603
76.7901 -3.62847 -0.904519
76.757 -3.47668 -0.905428
76.7234 -3.40004 -0.904405
76.7073 -3.24949 -0.906286
76.6751 -3.09875 -0.906181
76.6629 -2.94849 -0.908055
76.6696 -2.8006 -0.909886
76.6694 -2.65119 -0.910741
76.6672 -2.50166 -0.912599
76.6165 -2.42578 -0.911578
76.748 -1.38669 -0.928379
76.9346 -1.31507 -0.935128
77.2058 -1.01801 -0.946612
77.2899 -0.867736 -0.951415
77.3861 -0.716339 -0.956222
77.5124 -0.565126 -0.962004
77.6648 -0.412813 -0.968781
77.7886 -0.336616 -0.973634
77.9943 -0.182172 -0.982397
78.8672 0.683615 -1.02049
78.9881 0.84324 -1.02638
79.1351 1.00396 -1.03327
79.3375 1.16867 -1.04216
79.5008 1.33223 -1.04907
79.6098 1.49471 -1.055
79.6888 1.65739 -1.05996
79.7962 1.7418 -1.06393
79.9778 1.91003 -1.07188
80.1032 2.07634 -1.07885
80.2135 2.24275 -1.08384
80.4034 2.41438 -1.09282
80.4715 2.57985 -1.09683
80.7281 2.75866 -1.10785
73.5183 2.7634 -0.883316
78.9167 7.13715 -1.12157
78.8777 7.29036 -1.1235
59.2296 12.8559 -0.651314
55.9584 14.9372 -0.617606
35.7165 15.2789 -0.199033
33.4496 22.6378 -0.500103
33.3056 22.6833 -0.501776
34.1513 29.605 -0.81008
34.0546 29.612 -0.810239
66.3898 -17.5888 -0.520026
66.6201 -17.5514 -0.526317
74.2031 -13.3729 -0.755499
75.321 -13.2227 -0.789526
75.372 -13.0028 -0.792217
75.5571 -12.897 -0.798392
75.6626 -12.7693 -0.801898
75.8223 -12.6556 -0.80719
75.5735 -11.7432 -0.804702
75.0855 -11.3236 -0.791276
76.9671 -9.03229 -0.863308
77.4218 -8.95612 -0.877913
77.6091 -7.97717 -0.890924
77.523 -7.80848 -0.889082
77.4845 -7.64827 -0.8891
77.4419 -7.48876 -0.889112
77.4762 -7.41607 -0.890989
77.5191 -7.2678 -0.893797
77.4993 -7.11095 -0.893759
77.5412 -6.96261 -0.896569
77.4698 -6.799 -0.895653
77.4152 -6.63863 -0.895685
77.3736 -6.48019 -0.895683
77.3234 -6.39833 -0.894736
77.2608 -6.23837 -0.893769
77.2359 -6.08316 -0.894714
77.1773 -5.92349 -0.89374
77.2509 -5.77946 -0.897473
77.3345 -5.63616 -0.901189
77.3853 -5.48848 -0.904984
77.3788 -5.41181 -0.904941
77.318 -5.25399 -0.904945
77.2304 -5.09321 -0.903007
77.1397 -4.93421 -0.902049
77.0679 -4.77659 -0.901059
77.0658 -4.62505 -0.902942
77.0179 -4.47017 -0.9029
76.9984 -4.39356 -0.902866
76.9833 -4.24207 -0.903758
70.7202 -3.68604 -0.986374
70.7186 -3.5556 -0.987995
70.6982 -3.42277 -0.988659
70.6746 -3.29071 -0.988316
70.6401 -3.15887 -0.988978
70.6055 -3.02701 -0.988641
70.595 -2.8959 -0.989276
70.5534 -2.76355 -0.98995
70.5141 -2.69752 -0.988799
70.5085 -2.56677 -0.989427
70.4938 -2.43738 -0.991044
70.4652 -2.30596 -0.990697
70.4686 -2.17687 -0.992296
70.4569 -2.0477 -0.993909
70.4342 -1.91772 -0.994539
70.4559 -1.85313 -0.995325
70.4472 -1.72417 -0.996932
70.4126 -1.59333 -0.997582
70.5784 -0.49559 -1.01708
70.7132 -0.364062 -1.02362
70.8461 -0.232389 -1.03015
70.907 -0.166647 -1.03292
71.0109 -0.0338647 -1.03849
71.0987 0.0980797 -1.04406
71.1896 0.231802 -1.04966
71.2966 0.366363 -1.05525
71.4026 0.500996 -1.06084
71.5188 0.637886 -1.06745
71.6562 0.708073 -1.07322
71.8268 0.848019 -1.08183
71.9753 0.987571 -1.08945
72.0998 1.12787 -1.0961
72.1699 1.26512 -1.10075
72.9159 6.2192 -1.20969
72.8602 6.35056 -1.21036
55.4618 11.4989 -0.699306
60.7533 14.3389 -0.961601
32.5315 17.8955 -0.410922
33.276 22.6866 -0.65685
32.3991 17.8249 -0.407145
32.3703 17.829 -0.407218
32.3067 17.8096 -0.406024
32.0718 17.8336 -0.405499
36.2859 -17.0238 0.070374
36.3255 -16.9755 0.0708046
62.2091 -14.196 -0.632291
68.1316 -12.4287 -0.84279
68.6628 -9.48354 -0.86995
69.6707 -8.12425 -0.913068
71.2114 -6.64943 -0.980221
71.1763 -6.51052 -0.979972
71.1721 -6.37586 -0.980647
71.1649 -6.30816 -0.980492
71.1507 -6.17277 -0.981184
71.0957 -6.03241 -0.979967
71.0784 -5.8968 -0.980663
71.0532 -5.76061 -0.980373
71.025 -5.62421 -0.981087
70.9828 -5.48679 -0.980825
70.9487 -5.41713 -0.979715
70.9274 -5.28224 -0.980405
70.8832 -5.14566 -0.979134
70.8399 -5.00916 -0.97886
70.9062 -4.88365 -0.982369
70.9894 -4.75939 -0.986849
71.0148 -4.62989 -0.988437
71.0036 -4.56292 -0.989277
70.9992 -4.43025 -0.989927
70.9688 -4.29569 -0.98962
70.8906 -4.15765 -0.988393
70.8073 -4.02023 -0.986161
70.7599 -3.88544 -0.985869
70.7414 -3.75276 -0.98653
67.7354 2.34449 -1.17849
67.8471 2.47468 -1.18502
67.964 2.6075 -1.19258
68.0869 2.73988 -1.20013
68.1746 2.87083 -1.20569
68.2311 3.00004 -1.21025
68.2885 3.12818 -1.2148
68.9046 3.8812 -1.25469
69.0109 4.01981 -1.26133
40.4862 12.9245 -0.400238
32.5601 17.7487 -0.516087
32.5033 17.7669 -0.516355
33.2671 22.5893 -0.79266
33.1924 22.5957 -0.792796
33.1158 22.5902 -0.791785
34.1715 29.6119 -1.19418
32.987 22.4873 -0.785604
32.1807 17.7973 -0.515975
32.12 17.7907 -0.514938
32.0575 17.7711 -0.513743
14.9675 20.9559 -0.891152
14.8421 20.997 -0.896756
-38.374 3.95964 -2.58142
-21.8868 -13.3622 -1.68195
-21.745 -13.4125 -1.67522
-21.581 -13.5416 -1.66849
-21.4086 -13.6673 -1.6608
62.7242 1.04366 -1.1311
65.4096 5.03084 -1.33459
65.4781 5.15917 -1.34013
54.9154 11.0084 -0.994652
42.174 16.2034 -0.722693
33.3566 22.7694 -0.940841
32.4391 17.7502 -0.623204
32.3219 17.7657 -0.622484
33.014 22.5248 -0.92306
32.9365 22.5063 -0.920889
32.113 17.7598 -0.620568
29.3079 15.9802 -0.500578
29.2806 16.2677 -0.519169
29.2268 16.2866 -0.520444
24.3027 10.4765 -0.214005
24.2373 10.5284 -0.218698
24.1855 10.5471 -0.21997
-26.3735 -2.85496 -2.26879
-27.4913 -3.25591 -2.32065
-27.9063 -4.08631 -2.33366
54.47 -13.3101 -0.69111
54.9299 -13.439 -0.713166
54.7582 -13.3041 -0.703969
54.8745 -13.2624 -0.709399
62.2797 -8.1638 -1.03414
60.2952 2.4858 -1.23284
60.3641 2.59204 -1.23811
60.4208 2.69716 -1.24337
60.475 2.75234 -1.24801
60.5054 2.85437 -1.25126
60.5714 2.96183 -1.25654
55.0616 10.8903 -1.17709
43.4806 13.852 -0.774528
43.2427 13.8343 -0.764486
44.0421 16.9073 -0.962045
44.028 17.0025 -0.967238
42.6509 16.1399 -0.870558
42.4949 16.1603 -0.865928
42.4385 16.1975 -0.866432
33.5015 23.0486 -1.11221
33.4272 23.062 -1.11243
32.4433 17.7504 -0.742213
33.2229 22.5398 -1.0751
33.1489 22.5422 -1.07519
33.0758 22.5575 -1.07543
32.9766 22.4064 -1.06463
-18.3662 -6.68117 -2.13426
49.0881 -16.615 -0.677133
49.1463 -16.559 -0.678784
49.1864 -16.4897 -0.678614
49.2361 -16.4272 -0.679353
51.4746 -12.8608 -0.715941
56.6574 0.24176 -1.13971
56.6416 0.327136 -1.13978
56.6106 0.411613 -1.13886
56.5766 0.496307 -1.13793
59.5185 5.65512 -1.42178
55.3193 10.9427 -1.34456
55.1826 10.9788 -1.33811
55.0842 11.0321 -1.33485
46.66 12.2709 -0.944526
46.8301 15.1835 -1.10356
46.6419 15.6712 -1.12176
40.375 13.4999 -0.73849
33.914 26.285 -1.4831
33.8936 26.4197 -1.49279
33.188 22.663 -1.20967
33.1078 22.6358 -1.20739
33.036 22.655 -1.20768
32.9291 22.4534 -1.19226
32.8535 22.4479 -1.19125
-15.0894 9.69033 -2.44003
-15.0355 9.60427 -2.43493
-13.5689 7.01624 -2.27969
49.3617 -14.8342 -0.781039
49.3491 -14.731 -0.77833
55.0692 -11.1768 -1.02517
56.1502 -7.59071 -1.06287
56.0387 5.37008 -1.39785
53.3446 9.79896 -1.37385
53.286 9.86238 -1.37268
53.2503 9.93714 -1.37364
53.1513 9.98247 -1.36927
53.1612 10.077 -1.37344
46.9419 15.007 -1.2643
47.0508 15.3056 -1.28693
42.5614 16.3516 -1.14527
33.8126 26.2789 -1.67212
33.7269 26.2871 -1.67228
33.6858 26.3001 -1.67247
33.6008 26.3173 -1.67375
32.9067 22.431 -1.35401
32.1191 17.768 -0.970693
-3.9735 14.2897 -2.18075
-5.11332 13.2669 -2.21391
-5.16792 13.1636 -2.21267
-7.86839 7.08155 -2.19621
46.9649 -13.0832 -0.771575
47.0135 -13.0757 -0.773631
47.1309 -13.0753 -0.780549
53.0381 -1.57107 -1.17794
53.0245 -1.49587 -1.17688
53.0228 -1.42156 -1.1778
51.9735 9.38968 -1.3938
51.9239 9.45244 -1.39362
51.8806 9.51875 -1.39347
46.9522 14.6902 -1.36137
40.2794 13.3239 -0.936392
35.5865 14.2868 -0.837865
32.2479 16.2661 -0.936951
32.4556 17.8296 -1.07221
32.4004 17.8567 -1.07359
32.282 17.8683 -1.07382
32.2216 17.8656 -1.07284
32.8976 22.4693 -1.4725
32.1253 17.8235 -1.06839
32.066 17.8208 -1.0674
-3.09288 11.8022 -2.19821
-3.13695 11.7612 -2.19973
-3.21348 11.6735 -2.2017
18.4247 -9.3722 -0.382065
52.4746 -4.64291 -1.12122
53.51 -3.84652 -1.19734
53.472 -3.80263 -1.19491
53.4517 -3.72294 -1.19392
53.4334 -3.64438 -1.1919
53.422 -3.56535 -1.19189
53.3957 -3.4862 -1.1899
53.3823 -3.40803 -1.18988
51.2479 3.6239 -1.28877
51.2512 3.69683 -1.29068
51.2666 3.77187 -1.2946
51.9197 6.6807 -1.44122
45.7055 15.0409 -1.46567
32.4299 17.8039 -1.19292
32.3712 17.8102 -1.19304
32.3127 17.8195 -1.1932
32.2571 17.8405 -1.19451
32.068 17.7771 -1.18586
32.0338 17.7475 -1.18352
27.7191 16.1259 -1.02662
27.3608 14.5052 -0.879764
24.8363 8.88304 -0.429842
24.8808 8.74962 -0.417151
43.471 -14.2308 -0.847964
43.5331 -14.2042 -0.850247
48.9764 7.96034 -1.39831
48.7926 8.13617 -1.39263
48.8553 8.2398 -1.40187
41.9133 14.0172 -1.2988
41.7758 14.0423 -1.29321
41.751 14.0601 -1.29245
35.5078 14.275 -1.03479
32.2512 17.7985 -1.298
32.8996 22.4065 -1.75574
27.2817 9.47633 -0.479371
47.8643 -5.05974 -1.02651
46.9797 4.92322 -1.33611
46.9955 4.98919 -1.34092
27.6798 15.6743 -1.28307
24 -9.37746 -0.41481
40.6113 -11.7298 -0.958166
28.8956 18.1909 -1.79443
36.5578 -13.9027 -0.956242
40.9555 10.9344 -1.52427
44.0839 -0.600503 -1.26272
39.6208 11.3606 -1.55257
39.5853 11.3962 -1.55303
39.5432 11.4234 -1.5534
39.5153 11.4675 -1.55497
39.4808 11.504 -1.55645
31.8052 14.7472 -1.65549
31.7549 14.7448 -1.65449
31.7079 14.7602 -1.65572
31.6593 14.7678 -1.65585
31.6111 14.7803 -1.65604
38.8439 10.407 -1.56731
38.8178 10.4469 -1.56983
38.7851 10.4804 -1.57127
38.7649 10.4919 -1.57043
38.7387 10.5318 -1.57294
38.7027 10.5615 -1.57334
38.67 10.594 -1.57477
38.6373 10.6264 -1.57519
38.5925 10.6447 -1.57345
38.5686 10.6895 -1.57703
38.5638 10.7199 -1.58041
38.4473 10.6484 -1.56161
27.1059 13.8476 -1.63185
27.4591 -13.6127 -1.05569
41.3821 -7.03289 -1.20691
38.3599 10.0228 -1.57691
38.3336 10.0608 -1.5784
38.2962 10.0845 -1.57872
38.288 10.1092 -1.58104
38.254 10.1377 -1.58142
38.221 10.1672 -1.58181
38.2002 10.2117 -1.58538
38.1716 10.2469 -1.58683
38.1254 10.2593 -1.58402
38.0915 9.80546 -1.58842
38.0542 9.82924 -1.58774
38.0414 9.84719 -1.58897
38.0139 9.88226 -1.59043
37.9862 9.91533 -1.59186
37.9366 9.92298 -1.58799
35.0456 7.46528 -1.01861
37.6726 9.47567 -1.60264
37.6543 9.48602 -1.60278
37.5341 9.40377 -1.57985
40.8355 -5.47236 -1.30069
40.857 -5.43884 -1.30209
26.9469 11.2627 -1.74689
26.9129 11.2361 -1.74359
27.2743 9.25719 -1.37873
33.4935 7.29429 -1.23567
33.4603 7.29173 -1.23267
30.474 -7.11252 -1.33613
-14.3461 11.2138 -15.9844
31.8607 -0.43635 -0.572895
31.8179 -1.40085 -0.572955
31.8244 -1.39433 -0.575031
28.474 0.488518 -0.193891
28.5353 0.503993 -0.205038
28.5671 0.444918 -0.174279
28.5469 0.470269 -0.18861
29.5807 -2.63306 -0.373327
29.5795 -2.57955 -0.35099
29.5797 -2.53521 -0.331539
28.3909 0.653448 -0.31701
28.4966 0.494485 -0.227951
28.4927 0.496756 -0.228982
28.4813 0.50453 -0.235088
28.4462 0.54586 -0.260629
28.4092 0.588319 -0.287186
28.3622 0.644451 -0.320921
28.3881 0.600754 -0.297357
28.3746 0.608673 -0.303466
28.3899 0.584668 -0.290155
28.3711 0.601921 -0.302385
28.187 0.839135 -0.442478
28.3383 0.536312 -0.286594
28.4509 0.389856 -0.199685
28.3639 0.433746 -0.241298
30.767 -1.84048 -0.360271
30.519 -10.0923 -3.8083
30.5624 -10.1993 -3.85894
30.7017 -1.87089 -0.363944
30.705 -1.86712 -0.363988
30.6874 -1.80439 -0.340778
64.5805 -14.0758 -0.626888
