ply
format ascii 1.0
element vertex 553
property float x
property float y
property float z
end_header
123.201 7.80921 3.26892
96.5374 17.0909 2.51502
95.2658 16.7783 2.47095
107.549 23.412 2.96496
106.501 24.9498 2.96037
106.629 25.2317 2.97036
108.151 26.2256 3.03481
108.147 26.4486 3.03859
52.7269 14.1524 1.41361
52.6312 13.5052 1.38935
33.3451 18.4266 1.80101
22.2849 23.024 2.19136
23.6956 17.5528 2.01915
22.9555 17.6806 2.04261
22.3785 17.8163 2.0621
21.5648 18.0374 2.08989
21.3093 18.0736 2.09702
16.2415 16.7235 2.21439
16.0174 16.7016 2.22132
16.3344 16.3852 2.20521
18.9496 14.7097 2.09528
18.9018 14.6035 2.0939
18.8815 14.4831 2.09248
18.8362 14.4411 2.09334
3.9204 21.0973 2.66799
3.44303 21.2414 2.68551
16.4042 14.2605 2.16275
16.37 14.1417 2.16234
16.3148 14.0324 2.16196
10.2194 15.1961 2.37016
10.271 15.0198 2.36554
10.1608 14.9141 2.36718
10.1041 14.7838 2.36672
8.67791 15.1468 2.41702
9.70194 14.2615 2.3709
9.92133 13.869 2.35752
9.85703 13.8192 2.35834
0.715034 16.8757 2.69525
2.23846 15.7601 2.62931
2.22847 15.6757 2.62901
2.19406 15.5126 2.62744
-4.62179 16.1362 2.85377
1.19128 13.6677 2.63299
1.11827 13.6038 2.63377
-4.7763 14.048 2.83045
19.6096 -8.75285 1.86298
19.6053 -8.80572 1.8628
19.2329 -8.98323 1.87618
24.1092 -8.96968 1.71413
25.7802 -9.52775 1.66213
22.4528 -10.518 1.77673
6.31538 -17.7656 2.34466
13.9536 -17.2096 2.09744
8.42169 -19.5121 2.29149
-0.0466976 -23.0161 2.58938
0.128716 -23.1336 2.58496
8.20214 -20.6271 2.30858
8.54459 -20.6434 2.29852
22.7576 -15.872 1.80995
22.8824 -15.9241 1.80677
22.9722 -16.1008 1.80514
24.5241 -15.7335 1.7544
24.479 -15.8601 1.75696
24.5587 -15.9269 1.75472
24.5915 -16.0154 1.75541
24.7473 -16.0429 1.75031
24.8412 -16.1003 1.74811
24.8892 -16.1291 1.747
25.7856 -16.1868 1.72078
25.8564 -16.2526 1.71955
27.4173 -16.3113 1.67431
27.4413 -16.3977 1.67501
9.58501 -28.4782 2.36102
9.60587 -28.5572 2.36074
29.0232 -16.8405 1.63542
26.9952 -18.3378 1.71521
27.172 -18.3326 1.70923
32.913 -17.1394 1.53229
44.4699 -12.2807 1.15509
67.8104 -19.4146 1.51559
127.179 -27.0636 3.38554
114.774 -19.1835 2.93643
114.733 -18.9611 2.93321
114.721 -18.852 2.9326
114.746 -18.6475 2.93231
114.758 -18.4394 2.93204
114.791 -18.2369 2.93175
114.822 -18.0332 2.93247
114.855 -17.8307 2.93218
114.904 -17.632 2.93287
115.095 -17.5721 2.93908
122.418 9.08369 2.7984
108.105 9.57458 2.41642
-4.43688 17.4277 2.4893
-3.30001 -18.1802 2.2964
-3.21857 -18.3429 2.29483
0.16626 -23.2405 2.23358
94.5284 -22.9238 2.01873
94.9467 -22.9542 2.02962
96.9304 -23.2778 2.08144
126.877 -28.5255 2.88142
127.176 -27.0434 2.88161
114.29 -19.1379 2.5086
114.322 -18.9362 2.50831
114.341 -18.73 2.50803
114.346 -18.6268 2.50839
114.371 -18.4234 2.5081
114.396 -18.2199 2.50782
114.452 -17.8147 2.50824
115.903 -17.4176 2.5456
126.744 -18.6684 2.83999
104.038 12.1476 2.07752
98.5083 18.3718 2.02946
108.241 26.3513 2.33525
108.306 26.6094 2.34015
62.6296 11.6266 1.24555
52.7341 14.129 1.22653
74.0967 -20.1822 1.37277
109.58 -25.0127 2.12109
111.959 -25.385 2.17374
119.67 -26.7051 2.34395
120.218 -26.6561 2.35511
120.824 -26.6232 2.36821
125.379 -27.0338 2.46868
126.782 -27.2352 2.49894
119.137 -20.0149 2.31142
115.628 -17.3034 2.229
108.268 26.3357 1.85319
108.332 26.593 1.85709
78.36 11.8763 1.2981
52.7538 14.0999 1.09743
21.7698 19.253 1.42315
84.339 -21.0387 1.29055
82.4093 -17.91 1.25356
82.4666 -17.8171 1.25389
106.775 -24.7585 1.61004
103.26 -20.9376 1.55251
103.336 -20.7815 1.55406
127.365 -27.7381 1.90917
127.184 -27.1517 1.90523
118.965 -20.2323 1.78066
119.155 -20.0554 1.78328
108.215 26.3239 1.52715
108.271 26.5771 1.52903
108.384 26.75 1.53164
78.2928 11.8707 1.14108
52.692 13.8417 1.00752
21.7302 19.3017 1.23432
97.4033 -23.3891 1.21803
108.983 -25.1085 1.32677
103.139 -20.8891 1.27068
103.171 -20.7187 1.27128
103.238 -20.65 1.27152
116.697 7.80831 1.02604
89.5508 12.3646 0.963578
108.23 26.2773 1.08298
108.264 26.5191 1.08483
78.3144 11.8327 0.928945
52.7911 14.4668 0.896713
52.7129 13.7722 0.892279
103.016 -20.8822 0.889707
125.056 -27.5319 0.937931
127.436 -27.8075 0.944915
127.073 -27.1615 0.945188
113.709 -19.3143 0.925984
113.696 -19.1022 0.926728
113.66 -18.675 0.927227
113.683 -18.4733 0.927934
113.667 -18.3648 0.928315
113.739 -18.1759 0.928975
113.747 -17.9704 0.929696
113.828 -17.7826 0.930353
113.918 -17.597 0.931002
126.717 -18.557 0.96737
112.349 9.00773 0.72633
111.98 9.13393 0.726781
99.0288 10.7855 0.751842
88.3774 12.0994 0.771671
108.327 26.5802 0.784037
108.316 26.8009 0.784812
78.3615 11.9505 0.785357
57.8944 14.9436 0.814278
52.768 14.4597 0.815688
52.6705 13.8228 0.814456
39.3012 -2.80007 0.763441
39.4661 -2.8357 0.763313
23.897 -9.30358 0.714954
82.6965 -17.659 0.675431
107.36 -24.801 0.609873
114.777 -25.8046 0.5952
113.631 -18.8478 0.624619
113.612 -18.6351 0.625366
113.621 -18.4298 0.626086
113.645 -18.2282 0.626792
113.765 -17.7399 0.628502
113.838 -17.5502 0.629166
114.18 -17.4245 0.629599
89.2975 10.3621 0.511558
108.285 26.5049 0.379772
52.8034 14.5466 0.705991
52.6964 13.8211 0.709449
18.0816 -10.2056 0.485911
99.4664 -23.6512 0.294067
117.641 -23.6648 0.159641
119.269 -23.8314 0.146023
120.217 -23.8921 0.13879
114.668 -19.382 0.206722
114.427 -19.1067 0.209692
114.419 -18.1581 0.215019
114.769 -18.0345 0.213445
115.262 -17.3084 0.212981
131.494 -1.431 -0.33768
131.232 -1.18453 -0.332811
131.117 -0.936347 -0.329938
130.991 -0.689846 -0.328071
130.903 -0.44273 -0.326202
130.729 -0.197663 -0.322339
130.643 0.0481073 -0.320476
130.532 0.292845 -0.318615
130.522 0.416937 -0.31818
115.218 0.818605 -0.102452
113.266 1.00318 -0.0737639
113.101 1.1879 -0.0711126
115.361 5.47913 -0.0941113
91.8001 10.3992 0.232634
89.8024 10.4855 0.258978
108.149 26.2717 -0.0100456
108.299 26.4614 -0.0123837
108.303 26.6895 -0.0125837
78.3313 11.8839 0.404121
67.7871 15.4566 0.50287
52.7828 14.3127 0.602171
33.3932 18.3531 0.466742
44.1632 -17.865 0.491509
82.9509 -17.8991 0.237582
96.9836 -23.2124 0.00865602
104.499 -21.5709 -0.0747444
95.9742 -18.3744 0.0646432
109.777 -19.2138 -0.126588
110.242 -6.51721 -0.468076
110.24 -6.42432 -0.46775
112.224 0.988979 -0.482795
108.285 26.2824 -0.455014
108.335 26.5332 -0.457135
108.335 26.646 -0.45774
78.3697 11.8519 0.191007
52.7946 14.4306 0.481583
87.034 -21.7202 -0.131905
87.2053 -21.6679 -0.134726
87.607 -21.5916 -0.140466
87.7659 -21.6023 -0.143507
83.0112 -17.9335 -0.00754194
83.341 -17.9715 -0.0136822
102.871 -17.1166 -0.389092
103.477 -16.7613 -0.398859
103.612 -15.8359 -0.392616
103.652 -15.6714 -0.39204
104.782 -15.1576 -0.411262
106.697 -14.4244 -0.444731
106.999 -14.3072 -0.449326
107.167 -14.1598 -0.451813
107.242 -13.9925 -0.452228
101.561 -7.65444 -0.549884
101.764 -6.9575 -0.550444
101.801 -6.80183 -0.550899
101.808 -6.64352 -0.550344
101.866 -6.48921 -0.550804
101.908 -6.41265 -0.551537
108.947 0.201494 -0.710489
95.6437 0.0205549 -0.363845
92.3224 4.43421 -0.275298
98.781 7.56444 -0.445456
98.4308 7.64311 -0.437173
108.365 26.6073 -0.784878
78.3628 11.8452 0.0349828
52.6674 13.7813 0.408308
44.5964 17.6783 0.292141
87.6851 -16.2855 -0.275861
93.9081 -16.091 -0.42731
95.4472 -14.7767 -0.450733
96.5028 -14.6125 -0.476179
98.9088 -11.6486 -0.509835
97.8529 -10.9216 -0.476264
101.025 -10.6855 -0.556502
94.3295 -7.69664 -0.617882
94.3802 -7.56569 -0.618424
94.3921 -7.49962 -0.618193
94.7 -6.09709 -0.619281
94.712 -5.96156 -0.618806
94.767 -5.8291 -0.619342
94.798 -5.69481 -0.619872
94.841 -5.6294 -0.620643
94.878 -5.49482 -0.621172
94.925 -5.36142 -0.621705
94.9832 -5.22732 -0.623236
95.0363 -5.09363 -0.623769
95.0804 -4.95888 -0.625297
95.0846 -4.82142 -0.624815
95.2958 -4.07505 -0.627202
95.8494 -3.74477 -0.644056
96.0005 -3.60857 -0.647581
96.1446 -3.47154 -0.652104
96.329 -3.33424 -0.657626
97.5254 -2.41435 -0.692425
98.2775 -1.89607 -0.714623
99.9817 -0.574011 -0.766023
100.848 0.0838289 -0.792734
100.879 0.162678 -0.793458
90.8885 6.10302 -0.480417
78.5047 11.82 -0.15011
78.3658 11.8545 -0.145986
67.4626 9.73717 0.176818
21.802 19.2765 -0.324784
13.1262 -14.9505 -0.552632
87.1891 -13.601 -0.453438
93.6223 -9.2302 -0.607245
93.6846 -9.17211 -0.609043
93.732 -9.04379 -0.609594
93.7676 -8.91307 -0.609136
93.7973 -8.78164 -0.609676
93.81 -8.64822 -0.609208
93.9782 -8.06091 -0.609152
94.116 -7.94328 -0.612743
94.263 -7.82471 -0.61633
76.3387 2.74974 -0.180872
70.4984 4.86915 0.0186825
89.7545 16.4321 -0.801174
67.6048 9.62917 0.0424353
67.7455 9.89954 0.0323804
51.754 19.1593 0.0151846
47.8432 16.7711 0.0858914
33.3794 15.074 -0.135761
89.6722 5.56077 -0.928296
78.9635 11.0098 -0.536963
53.6948 16.5421 -0.0130337
51.7557 19.1404 -0.113882
46.9822 19.069 -0.131034
81.4637 -13.4785 -0.674891
86.8376 4.65994 -1.0064
86.7773 4.76273 -1.00404
86.7872 4.88039 -1.00562
68.1742 9.87186 -0.223727
65.5632 13.7104 -0.246212
52.6985 13.6793 0.0139477
51.7055 7.44069 0.307093
-2.19632 -7.7327 -1.94701
76.1463 -14.1987 -0.627306
72.485 3.80588 -0.43909
73.2328 10.1929 -0.602709
68.7025 9.92065 -0.381568
52.7252 13.7268 -0.0928867
43.1332 16.9736 -0.359303
5.39427 -6.04848 -1.84726
65.9013 -17.6109 -0.447058
78.171 -7.98903 -0.777573
77.3644 -2.94407 -0.821865
77.377 -2.86299 -0.821581
78.3975 -0.37446 -0.881875
80.8128 3.26449 -1.04917
80.9101 3.37989 -1.05676
81.5142 3.65191 -1.09582
81.2948 3.70401 -1.08263
77.495 10.0129 -0.964431
65.7429 13.0515 -0.477528
65.5744 12.9637 -0.466832
65.4162 12.8857 -0.457102
65.2786 12.8295 -0.448297
56.3018 19.6401 -0.554227
56.2287 19.6437 -0.553213
56.1967 19.6626 -0.554146
52.8261 14.7163 -0.23842
52.5592 13.0982 -0.143088
52.5094 13.1031 -0.14307
75.0946 -4.83328 -0.858443
68.3767 9.4827 -0.608098
68.3785 9.52377 -0.609954
68.3075 9.55332 -0.607849
68.5593 9.81764 -0.630928
52.8327 14.8066 -0.365104
52.7513 14.076 -0.317664
52.5765 13.0663 -0.251201
52.5269 13.0732 -0.251176
11.5242 8.98204 -2.04668
11.6089 8.82193 -2.03824
74.8019 0.0542983 -0.940297
74.8526 0.133908 -0.945019
74.9015 0.214742 -0.948737
68.5584 9.62373 -0.727608
68.6748 9.79025 -0.741027
68.5245 9.76269 -0.73112
60.7567 6.49293 -0.148422
52.8255 14.6779 -0.442556
52.7215 13.9771 -0.393011
52.6228 13.2877 -0.344426
52.5873 13.1328 -0.332969
52.5381 13.1336 -0.332965
69.1801 9.92542 -0.918565
68.423 9.46698 -0.849156
68.3598 9.50265 -0.84703
55.6001 5.89817 0.0466008
52.8679 14.8233 -0.568047
52.7584 14.102 -0.512574
57.2297 -17.3002 -0.535789
57.2574 -17.2361 -0.531564
71.8405 7.71321 -1.14738
71.7994 7.73215 -1.14531
71.7505 7.78727 -1.14312
71.6985 7.84076 -1.14193
71.6562 7.90014 -1.14072
71.3114 8.4837 -1.13667
71.3026 8.51998 -1.13654
71.2557 8.57487 -1.13535
71.2219 8.63828 -1.13512
71.1686 8.6899 -1.13394
71.1422 8.75646 -1.13471
71.1073 8.81899 -1.13449
70.0896 10.0209 -1.11125
68.3695 9.35588 -0.959545
68.371 9.43628 -0.963263
68.1789 9.3784 -0.947462
59.8177 -15.538 -0.585663
70.6502 -6.19924 -0.908141
70.6574 -6.13867 -0.907929
68.6129 9.59145 -1.11273
54.678 12.693 -0.609556
54.6344 12.7243 -0.611445
64.3741 -11.77 -0.703545
68.1396 8.97098 -1.17489
68.0915 9.01494 -1.17374
68.0713 9.04049 -1.17365
68.0286 9.08783 -1.17248
67.9847 9.1343 -1.17132
68.1282 9.31679 -1.19268
53.003 15.5579 -0.954477
43.0621 16.7757 -1.237
43.054 16.6306 -1.22451
67.6812 7.79477 -1.19601
67.6249 7.82962 -1.19288
67.6055 7.85306 -1.1918
67.0324 8.48172 -1.17758
54.9055 11.884 -0.730398
53.2908 15.5232 -1.0656
53.0065 15.5629 -1.06746
43.0579 17.5069 -1.43544
43.0776 16.7713 -1.36602
66.8142 -8.03203 -0.934489
67.2399 -1.85711 -0.966843
67.2275 -1.80832 -0.965672
67.2284 -1.75808 -0.966496
67.1558 6.86919 -1.22124
67.1242 6.91724 -1.22107
67.0992 6.96954 -1.22089
67.0535 7.00917 -1.21875
67.0382 7.06738 -1.22054
67.0448 7.10588 -1.22341
67.0328 7.16572 -1.2262
66.6453 7.70397 -1.2203
66.6071 7.71252 -1.21827
66.5766 7.76144 -1.2181
66.5505 7.81287 -1.21892
66.5079 7.85314 -1.21678
66.4644 7.89354 -1.21564
66.4262 7.93732 -1.21448
66.3791 7.9731 -1.21235
66.3564 8.02815 -1.21416
53.2981 15.551 -1.18851
53.0124 15.5878 -1.19037
43.0796 17.529 -1.57936
43.0648 16.7914 -1.50795
53.3023 15.5106 -1.29665
61.088 4.90387 -0.695005
60.5568 11.785 -1.26487
60.4472 11.659 -1.24531
53.2951 15.5007 -1.39969
34.9546 9.54299 -1.7072
60.2074 -11.666 -0.857094
64.1679 6.38322 -1.28888
61.6284 4.90206 -0.900023
50.6758 13.7135 -1.4879
59.1903 9.7003 -1.30615
59.1544 9.72872 -1.30705
59.1108 9.74394 -1.30499
59.0343 9.45514 -1.36701
58.8853 9.25917 -1.32969
51.9375 6.43456 -0.588446
45.9831 11.3204 -1.48019
61.4925 6.06977 -1.37093
61.5111 6.14211 -1.38068
61.5129 6.19933 -1.38647
58.6721 8.1384 -1.31562
58.6447 8.17085 -1.3175
58.6063 8.18647 -1.31645
58.5918 8.20027 -1.3174
58.5572 8.2225 -1.31732
58.5274 8.25121 -1.31822
58.4963 8.27805 -1.31912
58.4665 8.30675 -1.32002
58.4318 8.32898 -1.31994
58.4008 8.35582 -1.32085
58.3648 8.37518 -1.32078
51.9313 6.54454 -0.728061
51.98 6.55622 -0.821022
51.9461 6.44033 -0.802427
51.9518 6.30996 -0.859885
52.3374 8.75337 -1.37233
52.3019 8.75959 -1.3723
52.265 8.75388 -1.37132
52.2291 8.74806 -1.36934
52.1947 8.77228 -1.37326
52.1763 8.76136 -1.3713
52.1431 8.81265 -1.38012
51.9843 6.49981 -0.96022
51.9536 6.45306 -0.952384
59.9192 2.20311 -1.15945
52.2516 7.58535 -1.37042
52.2196 7.58713 -1.37041
52.1879 7.59188 -1.3704
52.1717 7.59078 -1.3704
52.1403 7.60659 -1.37334
-14.3687 11.4458 -22.8736
-14.3203 11.3272 -22.849
54.0635 -2.48105 -0.329754
50.537 -1.12111 -0.0549097
50.3484 -4.00797 -0.0530294
99.2488 -18.3846 -20.5536
50.7396 -1.40932 0.0620761
50.6359 -1.53708 0.0806303
122.658 -19.3667 -30.8806
122.709 -19.1421 -30.8788
50.8086 -1.40438 0.0560919
50.8361 -1.4621 0.0838891
50.8135 -1.43118 0.0669979
50.6891 -1.2741 -0.0384493
50.7748 -1.41843 0.0370433
50.7569 -1.39916 0.0251111
50.7471 -1.38791 0.0191508
50.7121 -1.3434 -0.00669259
50.6857 -1.31101 -0.0255786
50.6353 -1.24348 -0.0633409
50.6652 -1.29746 -0.0355307
50.6446 -1.27585 -0.0484545
50.6684 -1.32104 -0.0256134
50.6313 -1.26921 -0.054431
50.459 -1.02278 -0.190564
50.7203 -1.51276 0.0587137
50.6166 -1.36729 -0.0217745
50.6196 -1.44428 0.00695566
52.9217 -3.78258 -0.130293
52.8917 -3.89971 -0.174703
52.8581 -3.86057 -0.150565
52.8216 -3.82009 -0.125422
52.9333 -3.87138 -0.180605
14.2013 1.86185e-39 0
