ply
format ascii 1.0
element vertex 502
property float x
property float y
property float z
end_header
107.97 24.2188 3.06501
108.046 24.4758 3.07191
107.765 24.5691 3.06503
44.7839 18.6653 1.55483
39.5587 16.8204 1.54618
38.3296 16.9245 1.5677
38.2288 16.9591 1.57074
39.6425 13.957 1.44975
35.052 14.8869 1.56573
34.8316 14.931 1.57072
34.7195 14.9538 1.57372
29.4118 18.2472 1.78404
28.339 14.8225 1.71997
11.5406 20.7042 2.30809
11.5932 20.5905 2.30375
11.2906 20.6117 2.31362
5.17259 20.5673 2.48833
10.8059 17.3316 2.26242
10.7554 17.2055 2.26097
9.95599 16.4578 2.27095
9.38705 15.7363 2.27517
9.28455 15.6312 2.27676
-3.0893 18.4804 2.70083
-3.19191 18.33 2.70126
0.395196 14.3831 2.53061
-6.88902 14.8291 2.76616
-5.46507 12.9911 2.69803
20.0123 -9.0252 1.73331
19.7835 -9.32133 1.74218
19.8362 -9.40681 1.74093
19.9437 -9.47938 1.73776
24.3681 -9.4161 1.59496
6.82433 -16.5485 2.19746
-4.9219 -26.6487 2.65104
27.8559 -17.1575 1.57667
112.967 -18.9301 2.97141
112.969 -18.8247 2.97076
112.989 -18.6167 2.97046
113.023 -18.4121 2.97016
113.015 -18.1978 2.96887
113.075 -18.0004 2.96956
113.091 -17.7919 2.96926
113.115 -17.5863 2.96896
113.131 -17.4834 2.96931
113.276 -17.3056 2.974
123.463 8.56052 2.9046
122.732 8.6888 2.88553
94.9522 16.5438 2.20976
10.3403 16.9968 1.99299
1.05941 20.7799 2.27425
-9.27639 -22.4502 2.35401
69.7188 -19.7826 1.4513
112.506 -18.8925 2.54122
112.527 -18.6865 2.54091
112.531 -18.5813 2.54027
112.568 -18.3792 2.54096
112.606 -18.1772 2.54166
112.62 -17.9705 2.54135
112.669 -17.5603 2.54074
112.713 -17.3611 2.54143
98.1876 17.8279 2.0632
89.4012 14.4785 1.83216
106.249 24.163 2.31565
85.5815 -21.3288 1.65192
106.765 -24.6327 2.12631
106.264 24.1407 1.84059
33.4913 18.7214 1.21837
81.4195 -17.7667 1.2699
92.8268 -22.7305 1.45018
94.3085 -22.9943 1.4723
118.217 -26.3946 1.83422
102.498 -20.7301 1.58835
120.641 -26.7381 1.87172
124.612 -26.9109 1.93184
112.136 -19.0913 1.7333
117.191 -19.9799 1.81178
89.999 8.70024 1.24741
107.873 24.9072 1.54021
107.964 25.062 1.54279
81.3014 -17.7265 1.08695
81.4436 -17.6702 1.08824
112.048 -25.5616 1.3988
102.31 -20.9383 1.29853
102.427 -20.6064 1.29971
111.67 9.01775 1.03713
102.196 9.97161 1.00488
101.476 10.1499 1.00298
100.842 10.3406 1.00118
89.1708 11.6201 0.963524
107.867 24.8481 1.09001
107.95 24.9997 1.09157
33.5629 18.7214 0.89942
69.6387 -19.8337 0.797077
113.907 -25.8463 0.939115
102.176 -20.8372 0.907773
102.063 -20.7057 0.908133
111.988 -19.0891 0.948207
112.071 -18.9002 0.948889
112.125 -18.703 0.949579
112.131 -18.4944 0.950275
112.125 -18.388 0.950623
112.171 -18.1899 0.95131
112.191 -17.9849 0.952003
112.212 -17.781 0.952693
112.227 -17.5754 0.953385
112.216 -17.3638 0.954079
113.69 -17.1807 0.959683
124.892 -18.5097 0.99786
95.0455 5.01976 0.740627
107.939 25.1369 0.787014
74.632 9.90533 0.771001
6.53586 20.0976 0.727687
91.9059 -22.4845 0.646363
81.6742 -17.546 0.672803
97.9165 -23.4751 0.637148
106.453 -24.6517 0.626027
102.227 -20.651 0.645424
102.649 -20.7028 0.644537
102.788 -20.5626 0.645096
111.882 -18.8223 0.644017
111.876 -18.6103 0.644716
111.871 -18.3995 0.645411
111.875 -18.1915 0.647103
111.839 -18.0778 0.647456
111.904 -17.8858 0.648135
111.926 -17.682 0.648826
111.989 -17.4889 0.649508
112.061 -17.2978 0.65019
112.941 6.76551 0.322521
107.938 25.081 0.375826
78.7723 11.8116 0.565118
30.5606 13.8829 0.601353
23.9319 15.4582 0.553086
81.3636 -17.8985 0.445423
110.115 -25.2527 0.209511
112.239 -25.3768 0.194537
112.734 -25.3323 0.19102
113.076 -25.3429 0.189216
112.846 -25.0351 0.192081
103.682 -20.8106 0.278877
118.155 -23.8034 0.163755
121.282 -24.0342 0.140106
117.361 -21.8103 0.179822
117.319 -21.568 0.181596
117.477 -21.3817 0.181321
112.084 -19.1367 0.23111
112.637 -18.8592 0.228403
111.595 -18.1715 0.238978
111.476 -17.9335 0.241685
112.609 -17.9 0.233563
112.96 -17.7747 0.232216
112.751 -17.0929 0.237334
113.435 -17.0396 0.231973
113.736 1.00669 -0.0940264
114.087 5.22903 -0.0897975
108.333 6.05643 -0.0119492
107.04 6.24032 0.00478482
89.5894 9.94878 0.233264
107.317 24.741 -0.0127228
21.8921 19.3104 0.318469
23.9215 15.1711 0.364127
97.5569 -23.1332 -0.0159661
98.0441 -23.0707 -0.0214293
98.3327 -23.0108 -0.0250356
98.6463 -22.9609 -0.0276577
98.7362 -22.8161 -0.0281171
98.8838 -22.6949 -0.0286158
99.1084 -22.6047 -0.0311646
99.3013 -22.5007 -0.0326897
99.5105 -22.4932 -0.0345234
97.2198 -18.6699 0.0255957
97.2836 -18.5242 0.0251218
98.757 -18.5866 0.00591221
99.13 -18.5363 0.0023313
99.2723 -18.4085 0.000851053
99.6449 -18.3531 -0.00271331
113.685 -19.5021 -0.191019
115.223 -19.137 -0.208769
115.364 -18.1829 -0.203512
115.803 -17.187 -0.202915
115.804 -17.0773 -0.202551
115.988 -16.899 -0.203835
116.195 -16.7242 -0.205116
116.451 -16.558 -0.207392
116.585 -15.9261 -0.205207
116.535 -15.6959 -0.203479
116.623 -15.6033 -0.204112
116.89 -15.4352 -0.206375
117.026 -15.2414 -0.20664
116.932 -14.5645 -0.201461
122.187 -13.9767 -0.267957
109.77 -6.4778 -0.487513
109.691 -6.37724 -0.485234
119.711 -0.176386 -0.666905
116.956 0.162105 -0.609648
92.7954 5.40971 -0.115609
99.1869 7.44884 -0.244527
76.1027 8.55791 0.202528
106.2 23.8346 -0.432485
106.315 23.9957 -0.435873
35.7089 -16.992 0.279527
85.5188 -21.4786 -0.141631
85.9373 -21.4798 -0.149352
86.1222 -21.4293 -0.151059
86.3166 -21.3829 -0.154774
86.5579 -21.3589 -0.158531
86.7488 -21.3081 -0.161234
86.9208 -21.2471 -0.163915
87.0629 -21.2451 -0.165812
87.278 -21.203 -0.169528
87.4655 -21.1478 -0.172218
82.2818 -17.8963 -0.0369511
92.2594 -19.8576 -0.245698
90.2649 -16.8388 -0.175045
91.0462 -17.0401 -0.192183
94.4005 -17.1918 -0.258416
99.8676 -17.6777 -0.368327
100.461 -17.6815 -0.379938
101.593 -17.2191 -0.397639
102.054 -17.1707 -0.406167
102.238 -17.0436 -0.408621
102.265 -16.8715 -0.408033
102.318 -16.7074 -0.407454
102.509 -16.5802 -0.409903
101.691 -15.7468 -0.386694
102.59 -15.7983 -0.405257
102.969 -15.7145 -0.411723
103.89 -15.1265 -0.425151
104.338 -15.0495 -0.433592
105.285 -14.5288 -0.448227
106.232 -14.2668 -0.464718
106.264 -13.251 -0.45733
106.662 -13.1401 -0.464693
106.281 -12.8835 -0.455101
106.062 -12.6594 -0.449506
105.557 -12.3859 -0.436941
105.355 -12.1677 -0.431355
103.768 -11.8026 -0.39722
109.696 -9.34264 -0.501057
100.165 -8.05218 -0.563231
100.604 -7.20515 -0.569128
100.661 -7.04758 -0.570567
100.891 -6.41554 -0.572316
100.999 -6.01613 -0.57292
101.056 -5.85657 -0.573352
108.458 -0.114494 -0.741317
108.019 0.0529979 -0.729059
70.6547 3.68377 0.21069
87.6964 11.3063 -0.236521
79.4693 9.33022 -0.0296359
89.3043 15.5353 -0.30142
106.216 23.8962 -0.754272
106.307 24.1557 -0.75835
71.0253 9.75489 0.161058
71.528 12.9538 0.115997
65.9878 13.7006 0.214723
63.5085 12.5605 0.276268
81.2379 -20.3839 -0.237901
81.333 -20.3705 -0.239793
81.421 -20.2869 -0.240456
82.3425 -19.7935 -0.253198
82.4469 -19.7158 -0.25487
82.5171 -19.6201 -0.254505
82.6131 -19.5374 -0.256166
82.7205 -19.46 -0.256837
82.8475 -19.4583 -0.259745
92.5377 -16.6327 -0.449825
94.5413 -15.8091 -0.48874
94.5716 -15.5861 -0.486981
94.8459 -15.5105 -0.493545
91.5371 -14.274 -0.399686
94.7049 -14.473 -0.479202
94.5673 -14.2843 -0.47367
94.805 -14.1935 -0.479208
97.6514 -13.4021 -0.54166
98.5106 -13.1915 -0.560381
98.4159 -12.6866 -0.553772
97.1054 -12.0218 -0.515455
99.7398 -10.6679 -0.571186
94.2584 -3.79603 -0.659126
94.4268 -3.73058 -0.663795
94.6736 -3.59551 -0.671181
94.8153 -3.45557 -0.674621
94.968 -3.31588 -0.679055
95.0666 -3.17408 -0.681518
95.1974 -3.0329 -0.684962
95.3364 -2.88964 -0.688393
95.5275 -2.81971 -0.695032
95.716 -2.67501 -0.700425
95.9086 -2.52977 -0.705813
96.1013 -2.38354 -0.711198
96.3223 -2.23649 -0.717562
96.4872 -2.0871 -0.721955
96.8117 -1.8612 -0.731987
97.0252 -1.70927 -0.738339
97.2207 -1.55631 -0.7437
97.492 -1.39986 -0.751998
97.6596 -1.24474 -0.756371
97.979 -0.930703 -0.766114
98.1681 -0.771983 -0.77146
98.3971 -0.687229 -0.778024
98.3399 -0.534817 -0.776558
98.8014 -0.36167 -0.790672
98.8606 -0.20333 -0.792107
99.3307 -0.0251232 -0.806199
99.5622 0.143887 -0.813482
74.1196 4.35638 -0.0287379
87.8993 12.4023 -0.492753
76.2546 10.446 -0.140115
60.4894 6.03088 0.341588
60.5855 6.15889 0.337077
60.5264 6.17062 0.339076
60.4057 6.18933 0.341056
77.2025 -18.9879 -0.320007
79.6048 -18.2337 -0.370883
79.6882 -18.1556 -0.371567
88.2118 -13.2201 -0.547445
92.1515 -9.4437 -0.629266
92.208 -9.17637 -0.628342
92.3195 -9.12459 -0.632095
92.4032 -8.99922 -0.633623
92.4562 -8.86836 -0.634153
92.5034 -8.73684 -0.633686
92.5208 -8.60094 -0.633223
92.5342 -8.46458 -0.632763
92.514 -8.32341 -0.631308
93.1298 -7.49951 -0.644162
70.9669 3.48932 -0.0767451
65.9839 13.709 -0.0752532
54.2596 17.3864 0.035998
54.0165 17.1955 0.0452011
70.0291 -19.7845 -0.331502
70.0957 -19.7297 -0.332275
71.0586 -19.4031 -0.351541
85.4239 -9.36996 -0.661575
83.9118 -3.54505 -0.766297
83.9351 -3.43699 -0.766923
83.9504 -3.32902 -0.766555
83.9788 -3.22053 -0.767177
84.594 -2.12681 -0.790136
88.822 4.9364 -0.981871
79.8293 11.1987 -0.666204
69.5816 -15.7966 -0.35659
82.1139 -10.2211 -0.749636
85.2751 3.98422 -1.03443
85.2824 4.10215 -1.03503
85.2599 4.2144 -1.03467
79.6419 11.1078 -0.847633
65.1411 12.3832 -0.274218
44.2321 14.6484 -0.0878618
-8.96433 4.38011 -2.2099
-4.83693 -6.25749 -2.02136
48.61 -18.2718 -0.0969843
51.4975 -18.5198 -0.114852
82.0502 3.51987 -1.08615
82.0389 3.62381 -1.08581
74.9756 2.74387 -0.691506
57.157 18.5559 -0.438168
57.088 18.4711 -0.432496
57.0442 18.5556 -0.435246
56.9726 18.5627 -0.434271
69.5095 9.26327 -0.637602
60.1498 5.67118 -0.0488359
70.3813 -13.3166 -0.735834
72.6809 -8.45475 -0.744167
74.6135 8.73423 -1.0949
74.593 8.82009 -1.09663
74.5997 8.86966 -1.09746
74.5348 8.93639 -1.09529
74.4952 9.01335 -1.09506
48.9849 12.1502 -0.201924
48.937 12.207 -0.205768
48.8886 12.3212 -0.213422
48.1225 12.6125 -0.235976
69.8302 -11.7342 -0.814964
74.4626 3.11848 -1.11061
61.7831 4.72886 -0.274854
59.9361 6.43071 -0.229465
59.901 6.45785 -0.229399
29.1585 16.2995 -1.2276
13.5521 11.6917 -2.05943
15.8483 4.25352 -1.76453
15.8383 3.76552 -1.76015
70.1826 9.18954 -1.11139
70.1714 9.3126 -1.11499
70.0506 9.33029 -1.10702
44.4074 8.083 -0.147499
44.5065 7.78585 -0.123416
29.1662 18.4604 -1.52143
66.7393 -9.10929 -0.756357
43.2224 18.2987 -1.04045
43.1827 18.1975 -1.03382
22.1837 3.23359 -1.63162
68.2445 8.06504 -1.18943
68.2227 8.12992 -1.19023
68.1903 8.18996 -1.19005
68.1524 8.24658 -1.18989
56.3617 14.8887 -0.903861
49.0252 11.8478 -0.5129
36.3207 8.62093 -0.788193
67.1512 7.60037 -1.21271
67.1009 7.64531 -1.2106
36.3438 8.62068 -0.895179
65.6698 1.87745 -1.09968
65.6866 1.93695 -1.10247
58.4154 13.9697 -1.26752
58.4597 14.174 -1.28881
58.4557 14.2278 -1.29364
58.3339 14.2537 -1.28963
53.8836 11.7891 -0.853809
41.4246 16.7066 -1.48595
61.2792 10.6115 -1.26871
61.1404 10.5417 -1.25203
41.2194 16.4847 -1.59982
41.1401 16.5048 -1.60481
52.9693 -13.6638 -0.669768
53.004 -13.6506 -0.669701
53.0357 -13.6281 -0.667605
60.8833 9.9872 -1.28304
60.8689 10.011 -1.28398
60.8273 10.0439 -1.28289
60.6824 9.96462 -1.26426
60.4425 9.53501 -1.29084
60.2848 9.4401 -1.26826
44.3808 15.4759 -1.56803
44.3464 15.4919 -1.571
44.2875 15.4875 -1.57205
44.2362 15.4521 -1.5702
44.1765 15.4498 -1.57225
44.1211 15.4309 -1.57135
44.1608 15.0891 -1.52946
44.0506 15.156 -1.54131
45.6045 6.79101 -0.491972
45.5917 6.74011 -0.487149
45.5859 6.6713 -0.479381
45.5732 6.6214 -0.474555
45.5606 6.57249 -0.469726
60.0587 9.02612 -1.32079
60.0107 9.04665 -1.31875
59.9765 9.08174 -1.31866
59.8653 9.03291 -1.3039
58.334 5.27615 -0.897379
59.5261 8.5008 -1.32289
40.7411 -10.8457 -0.988708
58.2869 5.25145 -0.942493
59.1857 8.14387 -1.3203
59.1785 8.16886 -1.32222
53.6845 11.4963 -1.33192
53.6669 11.5184 -1.33386
60.1559 -3.75422 -1.05507
53.026 8.65442 -1.35578
52.9908 8.66345 -1.35577
52.9589 8.68318 -1.35673
52.9239 8.69419 -1.35672
52.8844 8.69262 -1.35475
52.8511 8.70948 -1.35572
52.8145 8.71464 -1.35472
52.7969 8.71965 -1.35472
47.5542 9.43525 -1.4119
58.0646 -6.0795 -1.01319
58.0788 -6.06903 -1.01515
54.339 5.52843 -1.03125
52.7547 8.32092 -1.36907
52.7225 8.33867 -1.37103
52.7023 8.3913 -1.37887
51.3766 7.74908 -1.5159
53.9143 -8.59789 -0.997344
53.9224 -8.58874 -0.997308
53.9448 -8.5772 -0.998255
50.4413 5.66157 -1.33845
54.2739 0.277586 -1.11869
54.2591 0.289319 -1.11666
-13.2238 11.6807 -21.8037
-14.4075 11.4217 -22.1914
48.3602 -0.872811 -0.0784994
48.3176 -0.876 -0.0865389
48.3175 -0.886062 -0.0825723
48.1296 -3.7934 -0.0913333
48.5228 -1.16033 0.0296585
48.5584 -1.08673 -0.0100738
48.5866 -1.14841 0.0197411
48.6192 -1.21562 0.0525407
48.5982 -1.18803 0.0376178
48.4544 -1.00122 -0.0848612
48.5542 -1.16783 0.00365474
48.553 -1.1697 0.0036477
48.5334 -1.1473 -0.0102914
48.5075 -1.11814 -0.0272124
48.469 -1.06738 -0.0560704
48.4218 -1.00454 -0.0918944
48.4416 -1.04308 -0.0720085
48.438 -1.04772 -0.0710263
48.4538 -1.07674 -0.0561117
48.447 -1.07494 -0.0591103
48.2513 -0.795586 -0.213318
48.5061 -1.27216 0.0302766
48.4175 -1.2197 -0.0126097
50.6882 -3.64947 -0.196125
50.6635 -3.61855 -0.17804
50.6534 -3.60133 -0.168989
50.6474 -3.54738 -0.150814
36.176 1.15033e-41 0
