ply
format ascii 1.0
element vertex 489
property float x
property float y
property float z
end_header
106.113 24.2942 2.97733
106.092 24.5 2.9811
24.6666 20.1926 2.01456
24.5565 20.146 2.01636
25.7431 18.9708 1.95517
25.6576 18.8408 1.95465
27.7286 14.6381 1.79516
15.4961 20.3442 2.26298
14.9212 20.5607 2.28367
13.241 20.5861 2.33237
16.5636 15.2036 2.12468
5.99688 20.4642 2.54121
5.68582 20.4469 2.55007
8.71944 17.3406 2.39997
8.94506 16.0472 2.3701
2.42134 16.2174 2.57521
1.28286 15.6012 2.6006
2.53813 15.0533 2.55281
2.04398 15.0631 2.56874
-0.0123949 13.5103 2.61135
-3.78215 14.1469 2.74088
-5.14023 13.3297 2.77346
-16.5817 -13.6871 3.01101
18.9017 -7.97151 1.82609
18.9472 -8.06537 1.82474
25.2914 -9.81946 1.62356
25.1498 -9.94703 1.62905
25.6716 -10.0054 1.61195
25.6989 -10.0821 1.61166
25.5509 -10.2129 1.61713
0.39431 -19.1322 2.4803
8.05991 -20.1513 2.24722
28.2828 -16.8615 1.60449
28.4283 -16.8653 1.60051
29.6691 -17.1992 1.57053
30.1636 -16.9454 1.55361
30.2021 -17.0132 1.55336
31.2495 -16.9573 1.52382
31.5111 -17.1839 1.52102
31.8656 -17.0961 1.51044
66.2121 -19.4307 1.49364
75.7012 -20.2653 1.7547
78.4497 -20.6546 1.83786
97.8625 -18.2158 2.41271
113.826 -19.0437 2.93932
113.819 -18.9351 2.93873
113.845 -18.7297 2.93852
113.872 -18.5246 2.9393
113.86 -18.3097 2.93712
113.925 -18.1139 2.93888
113.958 -17.9113 2.93866
113.98 -17.7055 2.93944
113.99 -17.602 2.93884
114.174 -17.434 2.94452
122.619 -14.568 3.21841
65.8425 13.7055 1.45257
65.7665 13.7274 1.45164
63.1076 11.7013 1.35331
52.9774 14.5866 1.3129
-5.32108 15.5576 2.43788
-10.3766 -22.6276 2.44047
54.9844 -18.8141 1.17534
55.0413 -18.8187 1.17633
55.0989 -18.8253 1.17632
73.3033 -20.1426 1.5036
122.386 -27.421 2.78647
113.412 -19.0172 2.51332
113.429 -18.8098 2.51311
113.44 -18.7074 2.5125
113.443 -18.4973 2.5123
113.477 -18.2949 2.51208
113.509 -18.0932 2.51286
113.566 -17.6871 2.51341
113.596 -17.4842 2.51319
113.644 -17.2865 2.51396
114.176 -17.3048 2.52901
115.021 -17.2871 2.55128
125.874 -18.5275 2.84811
96.4202 16.8108 1.99258
106.376 24.7153 2.30599
106.458 24.9735 2.31099
65.8505 13.7402 1.34771
65.7643 13.7522 1.34673
54.9967 -18.8555 1.09618
75.1655 -20.2573 1.4026
124.373 -26.8729 2.46902
121.176 5.19054 1.89921
103.958 11.7769 1.6812
106.435 24.7164 1.835
106.489 24.9607 1.83894
65.7715 13.6926 1.1755
53.0024 15.5589 1.1186
51.9332 -18.4658 0.953942
89.3225 -22.1693 1.36866
81.9228 -17.8122 1.25248
81.9828 -17.7195 1.25285
125.744 -27.3718 1.90044
118.086 -20.1057 1.78327
118.238 -19.9179 1.78602
108.064 25.7488 1.54031
108.114 25.8859 1.54184
65.7702 13.6993 1.06153
53.0427 15.012 1.01753
53.0085 15.5686 1.02464
52.9529 15.5841 1.02468
70.2994 -19.9415 0.97565
75.6975 -20.3477 1.02138
89.429 -22.2311 1.14644
99.6516 -23.7119 1.24322
104.969 -24.4882 1.29352
108.041 25.6827 1.09305
65.7495 13.6509 0.905339
53.088 15.0989 0.893867
52.9798 15.5292 0.896478
20.2368 -9.59219 0.834234
57.4877 -19.025 0.765121
117.105 -26.3157 0.918417
125.941 -27.4816 0.944062
112.823 -19.1926 0.924501
112.843 -18.9875 0.925286
113.05 -17.4732 0.931094
114.601 -17.3128 0.936069
89.8858 9.20192 0.760095
88.5391 12.7666 0.773335
108.08 25.7307 0.791237
108.06 25.9455 0.792049
65.7778 13.7477 0.800713
61.1849 14.3966 0.8051
53.0215 15.6112 0.810799
38.6917 -2.68294 0.747851
38.745 -2.71831 0.74773
82.2361 -17.5654 0.665493
94.2122 -22.8789 0.628101
125.947 -27.4355 0.569236
112.742 -18.5145 0.624059
112.73 -18.3028 0.624861
112.729 -18.199 0.625256
112.927 -17.4166 0.628278
113.263 -17.2874 0.627848
91.6254 9.07288 0.485011
108.084 25.6794 0.38404
108.067 25.8949 0.383855
65.7948 13.6869 0.658484
52.9908 15.5548 0.694577
81.8883 -17.9521 0.441939
104.243 -20.9844 0.262663
120.699 -23.9506 0.125252
118.059 -20.958 0.162013
113.524 -19.1895 0.205673
113.536 -18.9815 0.207466
113.52 -18.0273 0.213092
113.85 -17.8974 0.210663
114.37 -17.1755 0.211531
118.04 0.576618 -0.152093
106.469 6.36221 0.0201901
100.159 7.61752 0.107481
107.102 24.1628 0.00503844
107.827 25.3916 -0.0061179
108.076 25.6246 -0.0101735
56.3781 19.6025 0.532767
53.0119 15.5548 0.581581
35.5858 14.7444 0.511399
32.0263 -16.4279 0.388006
103.594 -21.4666 -0.0823259
103.254 -21.0659 -0.0738816
114.572 -19.6214 -0.211727
98.1156 3.4008 -0.206039
75.56 3.0467 0.255312
75.3167 3.07488 0.260361
75.0938 3.10672 0.26543
106.429 24.6542 -0.420254
90.4125 17.0427 -0.0809676
87.945 -21.144 -0.171781
102.994 -16.5808 -0.413888
113.027 -19.0562 -0.637943
103.171 -15.0409 -0.40399
104.829 -14.5363 -0.43268
101.137 -6.99178 -0.564856
91.9677 6.07653 -0.29631
91.4637 6.10568 -0.283317
70.1556 3.76349 0.256766
70.0133 3.78601 0.259819
106.419 24.7039 -0.73907
90.317 17.0183 -0.307084
60.2002 14.578 0.321555
56.3594 19.6672 0.255006
53.0164 15.5773 0.360666
48.5108 16.2836 0.346292
43.1409 14.5532 0.346448
81.9448 -16.2902 -0.173732
97.1555 -13.9731 -0.519344
95.7228 -13.323 -0.477208
96.7611 -13.4151 -0.503314
97.764 -12.0926 -0.517049
95.3445 -3.59809 -0.664313
95.4944 -3.46041 -0.667754
95.6443 -3.32173 -0.672191
96.2602 -2.82826 -0.69017
96.4651 -2.68486 -0.695576
96.6791 -2.54051 -0.701977
96.861 -2.39546 -0.707382
97.0935 -2.24822 -0.713768
97.4552 -1.95082 -0.724552
97.5525 -1.87551 -0.727243
97.8441 -1.72202 -0.73659
97.9663 -1.57106 -0.739987
98.2036 -1.41633 -0.746343
98.4595 -1.2587 -0.754683
98.6305 -1.10333 -0.759052
98.7725 -0.946609 -0.763423
98.947 -0.865134 -0.769072
99.164 -0.704012 -0.775408
99.4033 -0.541445 -0.782734
100.077 -0.0455913 -0.80269
100.336 0.124723 -0.809981
95.8552 3.19836 -0.665344
90.4888 5.69398 -0.501114
71.3825 14.8652 -0.0327249
56.4011 19.6105 0.118799
53.0166 15.5445 0.25254
52.9923 15.5775 0.25166
52.3881 19.0344 0.156665
52.3221 19.0642 0.155762
43.2843 14.4524 0.241097
77.1142 -19.5262 -0.303177
91.0033 -11.0735 -0.582764
92.6947 -9.36967 -0.618886
92.7834 -9.24706 -0.620399
92.8809 -9.12647 -0.622918
92.9471 -9.0677 -0.624678
93.0298 -8.94439 -0.62619
93.0505 -8.80987 -0.625674
93.0977 -8.68044 -0.62617
93.0727 -8.53964 -0.623641
93.5879 -7.71642 -0.633389
93.6414 -7.58471 -0.633875
91.1006 -1.23243 -0.787315
91.2428 -1.0999 -0.791777
91.3731 -0.965979 -0.797238
91.5317 -0.830317 -0.802684
91.6496 -0.760396 -0.807391
91.8054 -0.623395 -0.812833
91.939 -0.486847 -0.817282
92.1021 -0.347669 -0.823715
92.2106 -0.210234 -0.827166
92.3203 -0.0719164 -0.831615
92.8359 0.694905 -0.850577
93.31 0.867563 -0.867809
93.4803 1.01698 -0.874201
94.301 2.89614 -0.905861
94.2286 2.95787 -0.903643
94.1918 3.09199 -0.902142
90.1985 5.59571 -0.757558
71.8334 10.3125 -0.140935
69.2383 10.2091 -0.0559376
58.0383 14.8958 0.102253
56.4527 19.6303 -0.0321144
56.3839 19.6534 -0.0330428
53.0119 15.5908 0.130714
52.4693 19.0578 0.0137715
52.4359 19.0646 0.0137898
52.3681 19.0705 0.0137961
52.3018 19.0973 0.0128825
52.2336 19.1002 0.0128774
43.1266 18.3655 -0.008059
75.9627 -15.0849 -0.371557
86.7593 -8.85594 -0.670329
86.7973 -8.74557 -0.6699
86.7872 -8.68501 -0.669672
86.8164 -8.57162 -0.669234
86.9158 -8.47037 -0.671826
87.0013 -8.36651 -0.674411
87.079 -8.26074 -0.67599
87.1656 -8.15601 -0.678571
87.1968 -8.04285 -0.678134
87.2214 -7.9873 -0.678917
87.2486 -7.87369 -0.678478
87.2611 -7.75735 -0.678033
87.2795 -7.6417 -0.677589
87.3326 -7.53107 -0.679155
87.362 -7.41669 -0.678714
87.3933 -7.30254 -0.679272
87.4378 -7.24929 -0.680059
87.5524 -7.14579 -0.683639
87.6891 -7.04382 -0.688219
90.2632 2.7925 -0.991206
90.2659 2.92004 -0.99172
90.2882 3.05136 -0.993215
89.905 3.94938 -0.97889
53.0553 15.5399 0.0235301
53.0036 15.5801 0.022671
47.0958 19.6588 -0.147208
36.0744 18.1115 -0.276686
-14.9056 -7.90881 -2.18465
-14.3269 -8.06655 -2.16012
73.3384 -14.7192 -0.428783
72.1888 10.2171 -0.446216
53.1185 15.39 -0.0750258
53.0813 15.5292 -0.080505
53.0499 15.5107 -0.0795828
52.4543 18.998 -0.236461
52.3884 19.0198 -0.237394
52.3207 19.0357 -0.238349
46.8902 20.4393 -0.313289
46.854 20.1968 -0.30322
36.0493 18.0425 -0.418955
17.5365 16.2649 -1.07108
-11.5104 14.2436 -2.4056
77.1082 -13.2693 -0.712385
79.5859 -9.02715 -0.751668
79.4996 -8.91247 -0.745252
78.4723 -3.95497 -0.82064
78.4504 -3.90915 -0.819471
78.4726 -3.82212 -0.820135
78.4708 -3.73333 -0.818797
78.4849 -3.64637 -0.819463
83.0053 3.66397 -1.0776
83.0817 3.785 -1.08312
83.1624 3.90756 -1.08764
83.2492 4.03141 -1.09414
36.0757 18.1146 -0.580676
0.175076 0.13159 -2.08053
74.5385 -12.7973 -0.749194
65.9485 13.7029 -0.558427
65.8989 13.753 -0.558249
56.9395 19.5316 -0.571379
64.0237 -16.9587 -0.512493
76.0459 1.22946 -0.995495
76.107 1.27977 -1.00029
67.4359 4.76698 -0.476062
68.8016 9.12558 -0.683166
61.8146 5.42714 -0.157872
72.5186 10.2235 -1.06112
69.0654 9.26563 -0.811572
68.9289 9.26027 -0.802624
68.9221 9.2973 -0.803485
54.4573 12.3747 -0.31518
51.8546 6.31426 0.138162
63.2702 -14.1823 -0.554111
69.1573 9.25959 -0.962575
69.0253 9.25874 -0.953609
69.0552 9.36 -0.959217
54.4267 12.3626 -0.415234
69.4972 9.36074 -1.11811
69.46 9.37912 -1.11605
69.3944 9.42094 -1.11291
69.3635 9.48393 -1.11367
69.5523 9.68864 -1.13585
28.7032 16.5045 -1.65154
54.0898 -16.94 -0.567759
54.1118 -16.9325 -0.567725
59.0076 -15.3493 -0.608552
65.0517 -12.4127 -0.787963
70.795 3.64552 -1.16354
69.2855 8.04658 -1.17816
69.2263 8.09169 -1.175
69.2413 8.17756 -1.18067
69.1799 8.2209 -1.17752
69.1599 8.24838 -1.17642
69.0952 8.28909 -1.17328
69.0629 8.3492 -1.17306
69.0111 8.39748 -1.17089
68.9819 8.45825 -1.17167
68.9572 8.52352 -1.17242
68.9248 8.58264 -1.17221
68.9427 8.63293 -1.17601
68.9397 8.71081 -1.17971
68.8911 8.76073 -1.17754
68.8978 8.84454 -1.18222
68.8417 8.89029 -1.17905
68.7974 8.94273 -1.17887
68.7629 9.00109 -1.17865
68.6061 8.94268 -1.16391
68.6433 9.04613 -1.17151
60.651 11.9459 -0.807358
53.1442 13.2761 -0.649063
27.2678 -8.32627 -1.45731
68.1407 7.61958 -1.19905
67.6927 8.32281 -1.19448
67.6543 8.37356 -1.1933
67.6128 8.42367 -1.19212
61.521 11.7746 -1.06881
54.0264 15.4165 -1.07772
53.9103 15.4229 -1.07572
53.3115 13.0088 -0.826042
53.1088 13.2921 -0.851012
31.0483 -8.58338 -1.3834
54.6772 -15.1201 -0.6707
54.7495 -15.0087 -0.661259
65.955 7.32231 -1.2357
61.5684 11.828 -1.19559
61.4994 11.8319 -1.19059
61.4387 11.846 -1.18756
61.3709 11.8519 -1.18355
61.3069 12.0033 -1.19199
54.0333 15.4333 -1.19965
53.9174 15.4406 -1.19765
53.3998 13.0151 -0.931998
53.7496 15.4782 -1.19855
42.3373 14.6052 -1.27456
40.2041 16.6394 -1.57532
65.3334 6.78837 -1.25587
65.3025 6.83424 -1.25571
61.1386 11.4894 -1.24598
61.0821 11.506 -1.24393
61.0329 11.5329 -1.24284
61.0083 11.5468 -1.24179
60.8841 11.4735 -1.2271
58.0677 14.6483 -1.37069
57.9762 14.5884 -1.35994
54.04 15.4218 -1.3107
53.9191 15.4036 -1.30679
53.7832 15.4556 -1.30963
49.5557 7.46545 -0.374005
64.7005 6.52152 -1.27504
60.8495 10.9401 -1.27414
60.8068 10.9713 -1.27403
60.7583 10.996 -1.27295
60.7299 11.0466 -1.27576
60.6898 11.0825 -1.27564
60.5376 10.9681 -1.25411
49.551 6.60006 -0.329297
60.5133 10.4023 -1.28326
60.4798 10.4434 -1.28412
60.4403 10.4762 -1.285
60.3925 10.4978 -1.28293
60.4993 10.6809 -1.30921
60.3341 10.5499 -1.28375
49.5956 6.55881 -0.370443
63.6439 6.08241 -1.32896
63.5859 6.1032 -1.32389
60.0452 9.8546 -1.30246
60.01 9.88988 -1.30333
59.9688 9.9168 -1.30324
59.9339 9.91077 -1.29927
59.9072 9.95817 -1.3021
44.4561 13.8472 -1.52694
44.0152 13.4744 -1.50246
59.5758 9.37448 -1.31639
59.5295 9.39192 -1.31434
59.4079 8.97719 -1.32494
59.3672 8.99902 -1.32387
59.3371 9.03472 -1.32474
59.2963 9.05656 -1.32367
61.9929 4.49167 -1.2824
62.0508 6.14757 -1.42609
42.7822 6.67229 -1.03862
58.5427 7.6087 -1.33335
58.5149 7.6381 -1.33425
58.4885 7.67136 -1.33513
58.4586 7.69999 -1.33603
58.4273 7.72477 -1.33594
58.3867 7.73953 -1.33389
58.3652 7.74503 -1.33188
58.106 7.17619 -1.3601
58.0792 7.20547 -1.361
58.0393 7.21713 -1.35796
58.4796 -7.54205 -1.01199
52.3031 8.17275 -1.37468
52.267 8.16485 -1.37171
55.3187 -5.52476 -1.03206
45.5088 0.551475 -1.22826
52.9592 -2.35372 -0.340548
52.8826 -3.30115 -0.35817
49.4293 -0.993435 -0.0702031
49.4377 -1.01659 -0.0612891
49.6411 -1.29428 0.0527035
49.7268 -1.32841 0.0655939
49.726 -1.33538 0.0675672
49.6542 -1.26844 0.00880447
49.6618 -1.2895 0.0187262
49.6534 -1.28348 0.0147472
49.6189 -1.23408 -0.0120732
49.5871 -1.19607 -0.0349364
49.5451 -1.14076 -0.0657361
49.5417 -1.14439 -0.0647507
49.5528 -1.16989 -0.052845
49.5502 -1.17563 -0.0508674
49.5561 -1.19347 -0.0429338
49.4594 -1.05512 -0.119431
49.5809 -1.34456 0.0194979
49.5731 -1.39506 0.0363041
49.4479 -1.24129 -0.0541412
49.203 -3.92852 -0.17242
51.7777 -3.67131 -0.130836
51.818 -3.80153 -0.204322
51.777 -3.75561 -0.175157
51.7769 -3.74756 -0.173126
0 1.15033e-41 0
