ply
format ascii 1.0
element vertex 590
property float x
property float y
property float z
end_header
109.626 9.66537 3.20127
109.078 9.84381 3.18073
108.525 10.0186 3.16024
74.549 9.80082 2.00491
46.0397 17.8824 1.17718
11.6594 21.3051 1.27474
11.6359 21.1926 1.27405
11.6477 21.1094 1.27204
6.94793 21.1989 1.38028
6.77879 21.2167 1.38494
6.60395 21.2389 1.38854
6.42621 21.2624 1.39312
6.08078 21.2965 1.40245
5.91033 21.3104 1.40615
5.93833 21.216 1.40529
5.56373 21.4088 1.41572
6.60348 20.3533 1.37897
3.53875 20.4606 1.45729
3.52423 20.3344 1.45677
3.53832 20.2551 1.45571
-3.71816 21.0456 1.65669
-31.1306 35.2762 2.50952
-4.3727 17.6399 1.65828
-28.0575 29.4051 2.39508
-2.93579 15.6256 1.60914
-3.02846 15.5404 1.61107
-5.68275 16.1975 1.69224
-4.74802 15.6253 1.66271
-4.32142 13.7256 1.64642
-32.5396 24.168 2.51823
-35.8374 24.7495 2.61979
-39.0189 24.1057 2.71787
-32.7683 20.4244 2.52514
-30.172 -16.1178 2.81858
-19.0148 -15.4781 2.44982
-19.3282 -16.2565 2.47674
-19.4828 -16.3912 2.48421
-18.6825 -16.3114 2.4569
-23.2534 -22.9248 2.7532
-23.2884 -23.3362 2.76502
-1.21299 -16.135 1.91657
-3.33924 -17.2284 2.00778
-11.5849 -22.2193 2.38507
-34.5471 -34.8025 3.40122
11.3926 -15.3979 1.53881
44.9894 -17.7968 1.53157
77.0403 -36.3922 3.00097
63.4426 -20.1125 2.10845
63.6515 -20.096 2.11442
99.6783 -16.8342 3.20751
99.7129 -16.6142 3.20494
99.7972 -15.9477 3.19516
99.817 -15.7246 3.19155
99.8851 -15.5121 3.1901
109.597 9.54531 2.69562
109.04 9.72339 2.67808
105.39 10.7943 2.56758
89.5874 12.4796 2.11723
46.0368 17.8808 1.02318
36.6879 16.5793 0.871122
36.6294 16.5877 0.870976
85.0593 -22.0682 2.46556
98.1213 -16.9052 2.71608
98.1557 -16.6892 2.71356
98.188 -16.4731 2.71004
98.1815 -16.3593 2.7077
98.201 -16.1401 2.70513
98.2432 -15.9267 2.70165
98.2902 -15.7147 2.69919
98.3078 -15.4954 2.69662
98.347 -15.2807 2.69313
70.2544 13.0034 1.39076
46.0862 17.8557 0.909508
36.6123 16.4646 0.783406
36.5939 16.5011 0.782962
28.2253 14.9285 0.739877
-5.29947 -14.5435 1.57458
60.5659 -19.4122 1.61189
60.7977 -19.4898 1.61799
82.241 -21.3075 2.11335
98.0032 -15.0462 2.35607
109.71 9.57049 1.71835
109.327 9.77174 1.71067
108.742 9.94402 1.70018
46.0468 17.7813 0.725341
36.6222 16.2336 0.643126
36.5057 16.4178 0.643863
98.1414 -23.5677 1.97051
102.321 -18.0178 1.94644
102.497 -17.8215 1.94627
104.16 -17.7288 1.97049
99.0313 -15.0814 1.85026
102.594 -15.5907 1.91407
109.744 9.47288 1.3125
109.404 9.68096 1.30578
52.9134 -18.7438 1.08295
61.0186 -19.5097 1.16937
87.3978 9.44434 0.670153
43.599 17.0967 0.433451
19.1128 14.6453 0.432999
-37.3393 31.8956 0.362288
-41.3439 -14.8075 0.903196
72.6099 -17.15 0.931709
72.7282 -17.0446 0.930561
94.9128 -23.2075 1.09366
103.073 -24.4062 1.13922
104.436 -24.594 1.14651
105.659 -24.8585 1.15459
94.9666 -20.097 1.05407
95.0532 -20.0122 1.05314
99.6226 -17.4221 1.03824
99.6534 -17.1998 1.03564
102.501 -17.2817 1.04686
99.8243 -15.9822 1.02044
97.5559 -15.263 1.00318
78.9382 8.08474 0.420472
49.8275 15.9606 0.341739
43.6144 17.1926 0.327327
68.5614 -19.7918 0.751614
72.4488 -17.1635 0.719725
73.0472 -16.8616 0.715642
96.6471 -23.3168 0.772293
95.1231 -20.1165 0.737397
95.16 -19.9067 0.734955
97.6557 -15.0367 0.677566
98.2309 -14.9366 0.675841
105.153 2.74074 -0.00893405
100.583 6.84057 -0.0268261
100.634 7.06833 -0.0304683
100.41 7.26571 -0.0309695
99.7069 7.51525 -0.0294633
59.618 5.14243 0.281869
59.5856 5.23112 0.281799
59.5918 5.32691 0.279676
59.5828 5.42084 0.278562
59.6196 5.52336 0.277384
29.9319 23.1816 0.0909793
-33.1187 27.8132 -0.375354
-38.8907 30.1454 -0.456382
-34.3573 22.8977 -0.312437
54.8927 -18.9452 0.556844
68.9821 -19.8718 0.479869
73.237 -16.9575 0.426901
94.5783 -23.1259 0.342382
105.371 -24.6775 0.284169
106.03 -24.6269 0.279093
95.4519 -19.8344 0.305305
97.2367 -16.8814 0.263932
97.2482 -16.6626 0.262365
97.1729 -16.4243 0.260498
97.2297 -16.216 0.25809
97.2617 -16.0038 0.255616
97.42 -15.8192 0.252566
97.301 -15.6819 0.251855
97.5452 -15.5158 0.248091
97.5496 -15.2965 0.246512
98.1607 -14.9856 0.239332
101.666 2.52613 -0.418186
98.9567 3.04446 -0.388427
87.0089 9.38484 -0.316522
59.1605 6.17453 0.0903394
49.2972 18.339 -0.0237157
34.3355 18.0158 0.0752918
34.3207 18.0991 0.0732987
34.3358 18.499 0.0626001
34.2804 18.5363 0.0621176
34.2219 18.5577 0.0608188
29.8532 22.494 -0.0389938
29.798 22.0009 -0.0262287
27.6492 9.26514 0.295089
27.5896 8.02138 0.325692
27.5842 7.9496 0.327533
100.43 -21.1124 -0.162749
102.363 -21.4298 -0.184487
91.0786 -17.4716 -0.073
99.6349 -15.6874 -0.197269
96.0679 -4.69681 -0.715559
95.8067 -4.47553 -0.712371
99.5254 2.35616 -0.867905
93.828 3.39318 -0.766607
92.4425 3.69237 -0.742223
49.2387 17.6395 -0.190534
49.2439 17.7614 -0.193966
37.7244 14.7824 0.0250432
33.8376 15.0923 0.0373272
34.3625 17.945 -0.0568625
34.2916 17.8962 -0.0553436
34.3445 18.4787 -0.0741633
34.3333 18.5828 -0.0773984
34.2699 18.5806 -0.0774219
33.942 30.1593 -0.453072
29.8269 22.9262 -0.216117
27.6485 9.32047 0.219432
27.5721 7.96078 0.262388
27.5412 7.96211 0.262348
-46.629 -14.5719 -0.98188
80.8324 -20.8505 -0.296306
73.7853 -17.1734 -0.179166
81.9057 -20.0742 -0.319604
85.5825 -19.1244 -0.393894
81.4347 -15.8086 -0.332213
85.0826 -16.0541 -0.401449
94.0961 -15.711 -0.579389
93.9892 -14.5347 -0.586328
93.9693 -10.3103 -0.620096
97.2338 -10.588 -0.682255
86.4766 -3.38303 -0.822607
86.2779 -3.19854 -0.819937
86.132 -3.01804 -0.818178
92.1527 2.64666 -1.03816
92.2072 3.03762 -1.04472
92.0607 3.22316 -1.04402
91.8849 3.40492 -1.0413
91.7513 3.58849 -1.04057
40.8137 16.5443 -0.159283
34.2544 17.9069 -0.152506
34.2672 18.2889 -0.166995
34.2088 18.3123 -0.168317
34.1779 18.3147 -0.167369
25.7818 19.0949 -0.210187
27.5555 8.03164 0.211537
27.5418 7.98255 0.213104
73.185 -19.1044 -0.397912
73.2694 -18.9824 -0.400283
76.6168 -17.8936 -0.480471
76.7361 -17.7732 -0.483794
76.9678 -17.6935 -0.489551
83.9641 -14.6271 -0.671156
84.4787 -14.3992 -0.684434
97.3652 -16.8676 -0.987216
84.2129 -13.1737 -0.685077
85.468 -12.2889 -0.721511
86.6606 -11.7131 -0.755352
86.8284 -11.5624 -0.759996
86.9211 -11.3969 -0.763872
86.8892 -11.208 -0.764122
86.6732 -10.986 -0.759906
86.2908 -10.2852 -0.755461
85.8555 -10.0327 -0.746778
86.0819 -6.08076 -0.786145
78.0929 -4.37103 -0.883592
78.0822 -4.21981 -0.884381
78.0365 -4.06695 -0.885217
77.9903 -3.98823 -0.884181
77.9516 -3.83688 -0.883994
77.9069 -3.6841 -0.884828
77.8981 -3.53501 -0.885591
77.8524 -3.38314 -0.885416
77.8385 -3.23369 -0.887187
77.8597 -3.08587 -0.888911
77.8333 -3.01067 -0.888818
77.8574 -2.86309 -0.891537
77.8296 -2.71258 -0.892332
77.7678 -2.56148 -0.89116
77.7469 -2.4125 -0.892931
77.682 -2.26218 -0.891753
77.6121 -2.11249 -0.891571
77.6127 -2.03833 -0.892444
77.6017 -1.89109 -0.893186
77.6649 -1.74446 -0.896864
77.8573 -1.59957 -0.904419
78.0518 -1.45386 -0.912982
78.2093 -1.30634 -0.919596
78.3308 -1.15809 -0.924246
78.3916 -1.08347 -0.927077
78.4641 -0.933533 -0.931786
78.6037 -0.783653 -0.937441
78.7797 -0.631513 -0.945095
78.9325 -0.47963 -0.951764
79.1055 -0.326256 -0.958434
80.0189 0.536187 -0.997873
80.2538 0.698905 -1.0076
80.341 0.857762 -1.01241
80.4996 1.01924 -1.01918
80.6564 1.10364 -1.02505
80.8081 1.26764 -1.03187
80.8533 1.42767 -1.03572
80.9055 1.58817 -1.03957
81.1993 1.76148 -1.05038
81.2768 1.92507 -1.05524
81.4672 2.09518 -1.0631
81.6898 2.18863 -1.07202
81.8864 2.36128 -1.0799
82.0054 2.53076 -1.0858
82.2082 2.70693 -1.09472
81.6362 7.62844 -1.15313
81.7239 7.8073 -1.15917
58.0938 4.91645 -0.383719
58.0151 4.98959 -0.382642
40.8273 16.4827 -0.277555
33.9346 30.1067 -0.795482
27.5772 8.07947 0.153986
27.5715 8.00372 0.156874
27.5562 7.95977 0.15938
27.5425 7.91068 0.160947
-19.5103 25.1745 -1.59062
74.4229 -14.1116 -0.712759
76.3657 -13.0702 -0.774495
76.4213 -12.931 -0.77709
76.4595 -12.8637 -0.777853
76.8938 -12.8224 -0.790998
74.7546 -11.9705 -0.729714
76.1214 -12.0128 -0.771141
76.0607 -11.8467 -0.770145
76.0741 -11.7745 -0.770984
77.1432 -11.1083 -0.805989
77.3114 -10.9927 -0.812219
78.412 -10.2145 -0.849518
78.6599 -10.1851 -0.857669
78.5578 -10.0089 -0.855824
78.5942 -9.85925 -0.857558
78.5543 -9.69578 -0.857515
78.8095 -8.18578 -0.875098
78.6544 -8.00758 -0.871319
78.5935 -7.84352 -0.870299
78.5167 -7.67926 -0.869294
78.4725 -7.51948 -0.869211
78.5048 -7.3705 -0.87094
78.5272 -7.21976 -0.872698
78.506 -7.14094 -0.872643
78.4738 -6.98308 -0.873528
78.4514 -6.82794 -0.873372
78.4022 -6.66879 -0.873286
78.3688 -6.51283 -0.873149
78.3434 -6.35748 -0.873998
78.3229 -6.20351 -0.874828
78.1984 -6.11286 -0.871994
78.2882 -5.97224 -0.875579
78.3692 -5.82895 -0.879203
78.4203 -5.6824 -0.881889
78.4297 -5.53168 -0.883657
78.4162 -5.37824 -0.884474
78.299 -5.21595 -0.882478
78.2375 -5.05987 -0.881365
78.1566 -4.97653 -0.88041
78.123 -4.82357 -0.880238
78.1412 -4.67452 -0.881979
78.1535 -4.52503 -0.88373
71.651 -0.759098 -0.990221
71.7963 -0.693887 -0.995874
71.9546 -0.563481 -1.00329
72.0748 -0.432203 -1.00974
72.8042 0.437087 -1.0484
72.971 0.57487 -1.05589
73.141 0.714411 -1.0644
73.2869 0.85377 -1.07193
73.3896 0.992394 -1.07748
73.4843 1.06444 -1.08226
73.6162 1.20486 -1.08881
73.6899 1.34467 -1.0934
73.7827 1.48505 -1.09898
73.8766 1.62634 -1.10457
74.0904 1.7756 -1.11416
74.2137 1.92068 -1.12177
74.2884 1.99423 -1.12558
74.3896 2.13899 -1.1312
74.4394 2.28062 -1.13483
74.5094 2.42472 -1.13947
74.5693 2.56758 -1.14411
74.6737 2.71511 -1.14976
74.8416 2.86783 -1.15843
75.3415 3.40554 -1.18537
75.4078 3.55392 -1.19107
74.1396 6.42345 -1.19086
74.1026 6.5576 -1.19247
74.0846 6.62514 -1.19328
54.0952 5.76253 -0.438842
54.1085 5.80665 -0.439351
59.9363 14.472 -0.870837
41.0686 16.4881 -0.413437
41.0023 16.5001 -0.41263
40.9442 16.5275 -0.412999
40.8943 16.5042 -0.410764
39.3516 14.5568 -0.295038
31.5503 15.2071 -0.24485
27.5713 8.06517 0.0931458
27.5707 7.97801 0.0971722
27.5502 7.94547 0.0985393
15.6717 20.3149 -0.696567
-39.8563 -11.7656 -2.11466
-34.2306 -14.4662 -1.8834
71.4719 -9.6224 -0.914972
71.5412 -9.50228 -0.917332
71.478 -9.42228 -0.915324
71.8623 -9.23277 -0.930254
70.8145 -8.29798 -0.896087
67.5866 -3.54238 -1.02765
67.5754 -3.4252 -1.02804
67.5852 -3.30861 -1.02941
67.5889 -3.19257 -1.03077
67.5926 -3.07653 -1.03213
67.5875 -2.95881 -1.03252
67.5489 -2.89872 -1.03126
69.4527 2.61749 -1.18374
69.5542 2.688 -1.18949
69.6323 2.81845 -1.19496
38.8214 13.3357 -0.327078
38.7703 13.3486 -0.32627
38.7261 13.375 -0.326616
38.6601 13.3639 -0.324537
34.2809 35.7568 -1.5018
34.1803 35.9117 -1.5107
34.0548 35.8169 -1.50469
33.9403 35.8415 -1.50607
27.5899 8.0581 0.0372399
27.5718 8.01837 0.0396937
27.5805 7.94755 0.0435349
27.5536 7.93555 0.043655
15.6469 20.3691 -0.854236
68.0486 -6.55777 -1.02677
67.9504 -6.42297 -1.02344
67.9128 -6.29678 -1.02295
67.8661 -6.17089 -1.02147
67.7912 -6.10002 -1.01837
67.8397 -5.98838 -1.02164
67.8933 -5.87611 -1.02392
67.921 -5.76089 -1.02626
67.8942 -5.63751 -1.02573
67.9051 -5.52 -1.02711
67.8424 -5.3929 -1.02466
67.81 -5.33029 -1.02442
67.7762 -5.20737 -1.02289
67.7502 -5.08607 -1.02334
67.7262 -4.96492 -1.02279
67.7112 -4.84544 -1.02321
67.6802 -4.72376 -1.02266
67.6621 -4.60405 -1.02209
67.6953 -4.54942 -1.02471
67.7808 -4.43957 -1.02893
67.8275 -4.32578 -1.03224
66.0537 4.06295 -1.26545
66.1371 4.13082 -1.27118
66.24 4.25938 -1.27861
66.3349 4.38753 -1.28605
66.3913 4.5106 -1.29045
66.8811 5.46107 -1.33326
54.6172 5.31054 -0.737128
33.0267 24.3979 -1.00598
32.9451 24.379 -1.00482
32.8625 24.3471 -1.00251
27.5844 7.8384 -0.00317981
-24.8488 -6.09238 -2.21764
-25.0209 -6.28611 -2.2245
-23.7621 -8.41289 -2.14845
61.6545 -11.3906 -0.937897
61.7007 -11.2968 -0.938965
61.8631 -11.2971 -0.946834
61.9788 -11.2266 -0.951573
33.0525 24.4171 -1.1682
32.9716 24.4072 -1.16714
32.8905 24.3962 -1.16608
27.597 7.99109 -0.0719729
27.6021 7.88549 -0.0647247
27.5811 7.85901 -0.0634294
27.5509 7.85727 -0.0634328
19.9634 14.4489 -0.680094
19.9347 14.3879 -0.677398
7.37031 18.1431 -1.37659
-17.1654 2.40215 -2.22262
-17.2245 2.25615 -2.22395
-17.2878 2.10846 -2.22526
-17.3157 1.65732 -2.21997
-17.3064 1.3548 -2.2154
-17.298 1.27997 -2.21351
59.0766 -9.02984 -0.996738
59.0458 -8.97233 -0.994439
59.1177 -8.89656 -0.998275
59.2171 -8.82788 -1.00301
43.7244 12.6756 -0.752465
32.9962 24.4919 -1.30913
32.9163 24.4959 -1.30924
32.9188 24.9677 -1.3438
-8.65134 13.9229 -2.23859
54.2336 10.4981 -1.35857
32.9323 24.8373 -1.51326
-4.44533 12.2207 -2.19522
45.565 -16.2349 -0.725526
55.2997 4.4918 -1.34599
55.3396 4.582 -1.35202
55.3876 4.63349 -1.35659
55.4173 4.72147 -1.3606
55.9903 7.0288 -1.47233
50.174 5.84133 -1.02791
48.0105 15.9376 -1.40554
47.689 15.7305 -1.37636
35.8468 8.63026 -0.34401
35.8077 8.63121 -0.343051
33.0448 24.5438 -1.61573
33.0035 24.9667 -1.65174
32.9171 24.9121 -1.64717
-1.74584 11.6867 -2.1708
-3.80937 10.4098 -2.2684
-3.99973 10.412 -2.28257
51.4265 9.30892 -1.40278
51.3922 9.33259 -1.40109
51.3537 9.39464 -1.40185
51.3351 9.46623 -1.40371
41.8089 12.4952 -0.985868
32.9795 24.8053 -1.80687
51.5458 6.40442 -1.41548
49.9482 8.78849 -1.39682
35.893 8.56208 -0.473179
35.8563 8.56687 -0.472264
45.2442 13.6377 -1.49165
45.2339 13.6735 -1.49408
40.9016 14.0906 -1.27439
40.925 13.854 -1.3696
32.9685 7.94637 -0.434233
32.935 7.92885 -0.432053
32.8643 7.81436 -0.472763
32.8693 8.17254 -0.51398
32.8664 8.28092 -0.52626
11.2669 -0.490485 -1.72609
27.326 -14.582 -0.9404
33.3558 7.46584 -0.61028
31.7199 15.4317 -1.63446
29.7043 -14.0686 -0.987572
29.7251 -14.0722 -0.987514
44.13 -0.116851 -1.26852
44.1282 -0.0745972 -1.26902
44.1142 -0.0334129 -1.26752
44.1135 0.00975128 -1.26903
44.089 0.0717903 -1.26677
44.0862 0.114119 -1.26728
44.0794 0.15676 -1.26678
44.0576 0.239652 -1.26578
44.0497 0.281359 -1.26627
44.0443 0.302836 -1.26553
44.0354 0.34463 -1.26503
44.0315 0.386037 -1.26552
44.0297 0.429276 -1.26703
42.6095 6.96161 -1.4561
40.1733 10.0728 -1.52067
40.1451 10.111 -1.52214
40.1134 10.1435 -1.52255
40.0876 10.1474 -1.52161
40.0737 10.2016 -1.52626
40.0344 10.2266 -1.52559
40.0105 10.2685 -1.5281
39.9756 10.2982 -1.52848
39.9484 10.3363 -1.53095
39.5281 10.8401 -1.55421
39.4934 10.8717 -1.55561
29.9795 13.8003 -1.58961
24.6803 -12.296 -1.05542
42.19 6.11998 -1.42952
42.1782 6.16197 -1.43202
42.1548 6.19783 -1.43146
37.1132 -8.9313 -1.17124
33.9506 7.26914 -1.16353
33.4676 8.28838 -1.67495
33.4394 8.29953 -1.67511
33.4084 8.30088 -1.67315
34.8087 -16.7306 -5.08848
34.6562 -15.9668 -4.82558
33.1485 -0.520098 -0.559388
29.5427 0.689197 -0.300458
90.242 -17.464 -25.3455
29.7639 0.406237 -0.174942
29.83 0.432178 -0.189196
29.8434 0.383288 -0.167608
29.8554 0.356465 -0.154282
30.854 -2.76722 -0.381722
30.8514 -2.69546 -0.351567
30.8527 -2.67741 -0.342778
30.8566 -2.66562 -0.338913
32.1208 -4.85119 -1.39325
29.7443 0.478085 -0.245808
29.7853 0.410255 -0.207975
29.7712 0.422243 -0.217128
29.7553 0.437361 -0.227319
29.7239 0.472571 -0.24876
29.6798 0.525653 -0.281422
29.6456 0.564056 -0.304903
29.6707 0.524323 -0.282414
29.6747 0.511044 -0.277254
29.6959 0.473582 -0.256794
29.619 0.569966 -0.313994
29.6718 0.394438 -0.23288
29.7602 0.277266 -0.164425
29.7264 0.267708 -0.17034
29.5997 0.408587 -0.259105
32.0307 -1.86932 -0.325364
31.7561 -10.1481 -3.78632
31.8077 -10.3305 -3.87114
32.0041 -1.98413 -0.366036
31.9866 -1.96262 -0.354302
31.9542 -1.92683 -0.332748
32.051 -1.9607 -0.376275
35.5087 -17.328 1.15033e-41
