ply
format ascii 1.0
element vertex 541
property float x
property float y
property float z
end_header
107.267 10.3757 3.14797
106.704 10.5483 3.12767
106.197 10.727 3.10933
72.5507 10.0854 1.97851
23.9768 16.4881 0.930856
4.41023 21.5508 1.36505
4.23543 21.5741 1.36969
-4.48548 21.0551 1.59258
-28.9643 35.1479 2.3695
-30.3796 31.4598 2.39008
-37.0834 24.8761 2.57507
-39.8938 -14.351 3.01281
-38.8505 -15.5701 3.00162
-39.1732 -18.5573 3.0715
-20.4718 -17.416 2.45111
-35.027 -26.0666 3.10858
-34.6432 -26.1407 3.09863
-5.13905 -18.2934 2.00279
-33.6378 -35.0651 3.3038
8.555 -15.2186 1.52531
17.4594 -9.90946 1.12032
13.9799 -15.3126 1.39303
14.0735 -15.3072 1.39101
14.0989 -15.3731 1.3928
14.2142 -15.3451 1.38852
14.4357 -15.2024 1.37896
15.3779 -15.3618 1.36328
21.0518 -9.71717 1.0308
17.3198 -15.3029 1.32153
17.3899 -15.3048 1.31958
20.7302 -11.1145 1.09104
20.7626 -11.1388 1.09134
48.2697 -18.0126 1.65029
62.7232 -24.9523 2.26972
62.8028 -24.8456 2.26851
63.3194 -25.042 2.28906
97.92 -15.6561 3.16177
97.9694 -15.437 3.15922
97.9635 -15.3213 3.15686
107.235 10.2538 2.64135
-34.8089 29.7304 2.0712
-20.0672 -17.1416 2.10807
13.9675 -15.4345 1.26745
76.1241 -21.2893 2.23823
76.4973 -21.2702 2.24719
96.2376 -16.6265 2.6803
96.264 -16.4079 2.67675
96.2639 -16.2946 2.67442
96.2932 -16.0761 2.67187
96.3196 -15.8575 2.66832
96.3677 -15.6433 2.66583
96.3871 -15.4232 2.66226
96.4214 -15.206 2.65973
96.4567 -14.989 2.6572
89.3028 11.0852 1.84687
56.1503 15.0582 1.0972
-31.8317 28.3493 1.68481
-37.0769 20.8496 1.81724
-34.3345 -23.3958 2.28853
-33.4967 -23.9719 2.2827
59.958 -19.4918 1.61629
75.7476 -20.6585 1.97064
96.1028 -14.7516 2.31622
23.5941 16.2284 0.602695
-29.6031 35.2352 1.12209
-35.9393 26.9598 1.24309
100.431 -17.7235 1.90214
102.253 -17.4179 1.92544
71.7576 -20.389 1.2725
102.125 9.62566 0.686113
44.5345 -17.8578 0.820615
71.6605 -16.932 0.893878
102.496 -24.4372 1.09683
103.841 -24.6066 1.10347
94.0713 -20.2627 1.01479
93.9964 -20.0158 1.01086
94.1621 -19.84 1.00987
97.7308 -17.1369 0.987895
97.7359 -16.9068 0.985197
97.7962 -16.6905 0.982689
100.624 -16.9837 0.996497
95.6195 -14.9653 0.953401
78.384 8.93893 0.367666
38.7664 20.2438 0.258913
-28.5046 31.4221 0.0312639
-30.0457 30.2731 0.0419959
46.9879 -18.1834 0.710613
47.0497 -18.1306 0.710024
93.4623 -22.8791 0.721159
94.1843 -19.9295 0.686912
94.2166 -19.8266 0.68572
95.3854 -16.5515 0.646871
96.3749 -14.6491 0.625036
104.783 3.63275 -0.0833669
95.2871 4.1647 -0.0201932
87.8933 12.5661 -0.074308
50.4766 6.03263 0.283252
38.6597 20.0641 0.113959
30.4064 22.8506 0.0742834
30.3315 22.8408 0.074362
27.5094 8.79398 0.348765
27.497 8.53224 0.353829
-36.8109 26.3073 -0.367791
72.18 -16.8371 0.375981
87.5143 -22.0639 0.316695
95.7209 -23.2442 0.270502
100.643 -24.0085 0.242844
101.918 -24.1651 0.235298
94.6241 -19.7841 0.246388
95.3875 -16.6159 0.209597
95.6376 -16.452 0.205796
95.5426 -16.2058 0.204861
95.6092 -15.9989 0.201468
95.6276 -15.7797 0.199905
95.7724 -15.7006 0.198048
95.6101 -15.4427 0.195943
95.9454 -15.2928 0.192347
95.7523 -15.0296 0.191168
96.3235 -14.7038 0.183622
69.1841 4.53272 -0.0861357
69.2065 4.66646 -0.0886936
87.1261 8.79261 -0.385443
61.3311 4.86773 0.0141449
74.1827 9.94419 -0.230197
35.6342 21.1756 -0.041551
30.4167 22.8241 -0.070411
30.3428 22.8273 -0.0704841
30.3077 22.8418 -0.0706709
27.5302 8.80387 0.290655
99.5532 -20.8941 -0.234243
90.031 -17.6731 -0.135617
90.0729 -17.4756 -0.137914
99.4983 -18.0022 -0.257188
102.808 -18.4342 -0.296524
97.543 -16.7211 -0.242158
97.6655 -15.603 -0.253213
97.6951 -15.4948 -0.254468
93.2384 -4.28495 -0.759133
98.6185 2.39153 -0.94685
92.9173 3.57627 -0.845495
87.1855 8.55905 -0.798703
48.1143 16.1295 -0.200345
41.7647 12.4705 -0.0094865
35.6228 21.1805 -0.202626
30.4087 22.8639 -0.235892
30.3357 22.881 -0.236129
27.4571 16.7672 -0.035801
-30.0323 29.4955 -1.22196
78.6561 -20.1376 -0.348227
71.8169 -16.8669 -0.231887
76.67 -16.4502 -0.327434
76.7491 -16.2232 -0.330058
66.5946 -8.81888 -0.175799
89.7368 -13.4534 -0.605283
90.062 -13.3189 -0.612704
92.4148 -13.5916 -0.657371
92.9553 -13.4883 -0.669322
93.0205 -12.9726 -0.674339
93.2182 -12.799 -0.68028
92.9412 -10.0279 -0.697916
82.6285 -2.62597 -0.838726
89.1156 2.50779 -1.06582
67.9173 3.85624 -0.543846
35.6529 21.2221 -0.322107
35.5742 21.2146 -0.321057
27.5457 16.5144 -0.115799
27.4886 16.6006 -0.118838
-28.6203 29.9562 -1.53471
-41.5444 14.6703 -1.54067
71.5746 -17.0661 -0.463683
72.613 -17.1402 -0.488314
71.0077 -15.2568 -0.455177
80.1113 -14.8709 -0.679317
80.5553 -14.815 -0.690759
82.0275 -13.5903 -0.733414
95.4681 -16.5902 -1.05075
81.803 -12.56 -0.733606
84.0362 -11.1343 -0.799252
84.0745 -10.9596 -0.801283
84.091 -10.7813 -0.803366
83.8234 -10.552 -0.798185
83.2661 -10.0075 -0.787839
83.7828 -9.91556 -0.801669
83.3433 -9.6641 -0.79283
82.2502 -9.3115 -0.767492
82.2414 -9.13646 -0.76855
75.4703 -3.8827 -0.924453
75.4136 -3.80452 -0.923398
75.3712 -3.65217 -0.923205
75.3246 -3.50054 -0.923006
75.2931 -3.34996 -0.923787
75.2455 -3.19925 -0.923578
75.2439 -3.05079 -0.92532
75.2253 -2.90112 -0.926084
75.1985 -2.82605 -0.925978
75.1969 -2.67759 -0.92772
75.2012 -2.52954 -0.929454
75.2025 -2.38228 -0.931181
75.1659 -2.23234 -0.930957
75.1012 -2.08244 -0.930747
75.0175 -1.93319 -0.929537
74.9786 -1.85829 -0.929435
74.8928 -1.7089 -0.928228
74.846 -1.56127 -0.928982
75.1678 -1.41954 -0.94049
75.3163 -1.27362 -0.94613
75.506 -1.1276 -0.953751
75.6987 -0.980811 -0.96238
75.8253 -0.906525 -0.967191
75.9239 -0.757103 -0.971896
76.0176 -0.607332 -0.976607
76.1616 -0.456081 -0.982312
76.3186 -0.304752 -0.989012
76.4506 -0.151676 -0.995744
76.6007 0.00213661 -1.00248
76.781 0.156845 -1.0092
77.4552 0.865132 -1.04019
77.6087 1.02472 -1.04698
77.6347 1.18126 -1.04981
77.9277 1.27089 -1.05972
78.1729 1.43705 -1.06955
78.2474 1.59819 -1.0744
78.3782 1.76239 -1.08027
78.4919 1.92579 -1.08613
78.6178 2.09133 -1.09201
78.8162 2.26179 -1.10091
78.9587 2.34997 -1.10688
79.1613 2.52214 -1.1158
78.1202 6.90656 -1.14873
77.9958 7.04763 -1.14744
55.5732 5.24815 -0.420131
56.4344 11.3695 -0.57752
59.4098 13.2717 -0.710401
48.0375 16.1165 -0.486249
43.163 12.6352 -0.25676
27.6399 17.0547 -0.242099
65.7824 -17.1697 -0.570276
65.9311 -17.0929 -0.574105
66.0525 -17.0053 -0.578075
66.1838 -16.9203 -0.582009
66.3035 -16.9006 -0.585181
65.2396 -14.8868 -0.553313
66.377 -14.7073 -0.586871
66.4606 -14.6019 -0.590067
66.3467 -14.4244 -0.586203
66.2368 -14.0468 -0.583685
66.1402 -13.8796 -0.580692
66.3843 -13.8296 -0.588161
67.5749 -13.6207 -0.624038
71.9665 -13.111 -0.757902
73.6543 -13.1297 -0.80887
73.7977 -13.0154 -0.813141
73.8978 -12.8882 -0.816586
73.9763 -12.7553 -0.820105
73.9855 -12.6808 -0.819975
74.1044 -12.5579 -0.82436
74.2519 -12.4419 -0.829649
72.9928 -11.6696 -0.794314
73.6004 -11.6682 -0.812037
74.1763 -10.8176 -0.833737
75.4561 -9.70682 -0.879149
75.5341 -9.56696 -0.882752
75.2425 -9.2066 -0.876119
74.8844 -8.83753 -0.86662
74.6832 -8.27602 -0.864303
76.2785 -7.84206 -0.916625
76.1543 -7.66891 -0.913715
76.0002 -7.49266 -0.910857
75.99 -7.33857 -0.911669
75.9728 -7.18298 -0.911502
75.9934 -7.03206 -0.913262
75.9997 -6.95632 -0.914148
76.0014 -6.80407 -0.915933
75.9524 -6.64524 -0.915819
75.8815 -6.48387 -0.914746
75.8245 -6.32447 -0.913643
75.8241 -6.17308 -0.915419
75.764 -6.01447 -0.914308
75.6966 -5.93154 -0.913313
75.6594 -5.77654 -0.913149
75.7246 -5.63179 -0.916816
75.8197 -5.49112 -0.92042
75.8561 -5.34333 -0.923136
75.8707 -5.19299 -0.924892
75.8334 -5.03799 -0.924728
75.7851 -4.88322 -0.924566
75.5842 -4.78988 -0.919758
75.5198 -4.63498 -0.918606
75.5243 -4.48494 -0.920364
75.5417 -4.3368 -0.922093
75.5093 -4.18416 -0.922899
75.4738 -4.0323 -0.922697
69.3135 -0.133196 -1.04041
69.4551 -0.000850407 -1.0479
70.3669 1.00839 -1.0953
70.5834 1.1505 -1.10486
70.7078 1.22292 -1.11065
70.7716 1.36075 -1.11524
70.8313 1.49788 -1.11882
70.9796 1.63978 -1.12641
71.0817 1.78092 -1.13302
71.208 1.92337 -1.13963
71.2397 2.06147 -1.14223
71.4308 2.14221 -1.15109
71.5845 2.28875 -1.15873
71.7271 2.43606 -1.16639
71.8084 2.57967 -1.17204
71.8856 2.72358 -1.17669
71.9609 2.86763 -1.18134
72.0947 3.01756 -1.18903
72.2407 3.16964 -1.19675
72.3636 3.25018 -1.20263
72.7265 3.70672 -1.22381
72.8737 3.86273 -1.23157
72.8535 4.00248 -1.23322
71.844 5.91995 -1.2262
71.6888 6.03614 -1.22264
55.6983 5.18405 -0.608332
42.4806 12.6667 -0.370467
36.897 17.0433 -0.431502
59.9665 -13.8895 -0.624564
61.2189 -13.3853 -0.667875
61.3705 -13.3238 -0.673524
65.8191 -12.8886 -0.832488
67.8974 -11.4561 -0.909289
67.4903 -10.6846 -0.895534
68.0418 -9.89641 -0.917513
69.1739 -8.87653 -0.96393
69.1386 -8.7357 -0.962599
69.3071 -8.63431 -0.969707
69.3402 -8.50631 -0.971192
69.3032 -8.43253 -0.970076
69.0661 -8.25441 -0.962279
69.9024 -6.79267 -1.00202
69.8204 -6.64654 -0.999775
69.7502 -6.50325 -0.997489
69.7088 -6.364 -0.997142
67.6437 3.97317 -1.2714
68.2737 5.2658 -1.32126
47.9044 16.1421 -0.808636
47.6911 16.1732 -0.802103
42.466 12.7415 -0.48936
41.1263 12.6074 -0.442431
41.26 13.127 -0.468463
43.923 16.0207 -0.676128
36.9376 16.991 -0.546877
36.8812 17.016 -0.547198
33.2802 20.3877 -0.675493
33.4455 21.5153 -0.738642
28.8636 18.1757 -0.526674
28.7433 18.118 -0.523055
-37.0819 -8.84102 -2.32682
55.935 -16.2463 -0.687876
62.2042 2.19781 -1.2002
62.2785 2.31284 -1.20652
63.3292 3.74509 -1.28281
63.3666 3.86273 -1.28617
63.4534 3.9869 -1.29259
63.5373 4.11027 -1.29899
47.9524 6.23039 -0.591348
47.4283 13.4956 -0.824827
48.3513 16.0648 -0.970524
48.2507 16.0879 -0.967844
42.2504 12.9237 -0.603609
37.539 16.9454 -0.67106
37.4794 16.9666 -0.671338
33.3299 20.3508 -0.798044
33.2935 20.4896 -0.80569
28.8621 14.8656 -0.429846
28.6215 18.0802 -0.628678
20.9398 21.2812 -0.887954
20.8693 21.2621 -0.887764
20.7417 21.4153 -0.899623
20.0595 17.5638 -0.686765
-27.9778 0.684443 -2.32914
-25.6601 -8.55351 -2.13165
-15.7336 -12.0464 -1.63185
-15.5868 -12.1549 -1.62451
-15.3725 -12.1718 -1.61421
-15.199 -12.2711 -1.60496
52.4991 -13.7348 -0.689994
59.4796 -10.9312 -0.987521
43.9498 16.0967 -0.959026
43.9891 16.2432 -0.968726
43.9723 16.3326 -0.972783
33.332 20.4492 -0.942207
27.4073 16.2465 -0.623759
-19.0623 2.57036 -2.20494
-18.3476 -5.68286 -2.07578
-18.2903 -5.82417 -2.0721
58.8913 -5.40921 -1.15658
56.7946 3.56333 -1.29484
56.8332 3.61471 -1.29842
56.9006 3.71719 -1.30459
57.0075 3.82588 -1.31382
57.005 3.91927 -1.31591
57.0927 4.02632 -1.32313
54.882 10.274 -1.37048
54.8107 10.3432 -1.36932
54.731 10.408 -1.36712
54.6922 10.4408 -1.36552
35.7344 15.1964 -0.738424
33.2781 20.4216 -1.05492
33.817 23.6442 -1.29447
-13.7539 -6.5347 -2.03757
45.1458 -16.9162 -0.724239
54.4707 -5.24657 -1.05462
54.228 -5.11911 -1.04023
54.9753 6.06714 -1.4381
55.0195 6.16824 -1.44326
55.0484 6.26541 -1.44839
55.1088 6.32627 -1.45407
47.8821 7.17878 -1.01253
52.4968 9.22301 -1.3813
52.4733 9.30284 -1.38225
52.4332 9.37481 -1.38312
52.4211 9.45985 -1.38512
37.7275 15.9381 -0.977176
37.6344 15.8976 -0.971745
35.9129 15.3086 -0.873663
33.6999 22.5586 -1.3818
33.651 22.6762 -1.3902
33.7947 23.6237 -1.46725
-10.0261 10.0659 -2.34249
-8.61261 5.77776 -2.1305
52.7056 5.85064 -1.40665
52.8461 6.09622 -1.42447
52.9979 6.51639 -1.44832
53.0326 6.61114 -1.45342
35.7943 7.5731 -0.389961
35.6933 14.9775 -0.928889
33.7712 22.9288 -1.53112
33.8047 23.4062 -1.5717
-3.88924 12.2262 -2.18185
-3.92246 12.1814 -2.18234
-3.97042 12.0835 -2.18221
50.726 -4.78316 -1.10187
50.6172 -4.69123 -1.094
49.369 8.21981 -1.41005
35.7061 14.9292 -1.03932
33.7163 22.5873 -1.65815
33.6574 22.6626 -1.66406
33.6047 22.7674 -1.67231
31.4718 15.4753 -0.979772
29.9704 16.0072 -1.00974
42.1793 -14.1465 -0.866168
48.1978 7.81343 -1.43085
48.1256 7.85662 -1.4274
42.2172 13.0381 -1.31201
41.454 12.9628 -1.2605
41.3848 13.0629 -1.2637
33.7037 22.5906 -1.7962
33.6395 22.6472 -1.7999
31.502 17.7439 -1.40439
29.9808 16.0232 -1.20794
13.0369 15.1652 -1.6751
37.474 -13.0975 -0.748738
38.9555 -13.9167 -0.881423
43.7537 10.4843 -1.47833
43.7158 10.531 -1.4779
31.4527 17.739 -1.52137
31.4008 17.7847 -1.52593
30.2612 17.9167 -1.52503
29.9886 15.9614 -1.30821
30.1447 17.9279 -1.52522
30.0856 17.928 -1.52425
28.0542 15.2668 -1.222
30.1773 17.9182 -1.6391
30.121 17.9442 -1.64143
27.9662 16.225 -1.43229
27.914 16.1806 -1.4268
40.0624 11.7681 -1.52118
32.2455 16.2329 -1.59633
30.7732 14.0258 -1.29713
30.7178 13.9796 -1.29062
28.3704 14.0981 -1.28214
15.1222 -11.9931 -1.25953
43.9917 -4.58333 -1.22748
32.4193 16.9222 -1.79434
32.3639 16.9321 -1.79448
32.3378 16.9459 -1.79566
32.284 16.9647 -1.7959
32.2346 17.0032 -1.79938
32.1794 17.0171 -1.80057
32.1202 17.0163 -1.79859
29.6421 14.5055 -1.43331
29.1657 16.0994 -1.63425
28.0359 15.3577 -1.53509
27.9789 16.0874 -1.62969
27.9261 16.1061 -1.63193
41.4229 -8.75279 -1.18982
41.4604 -8.71834 -1.1912
41.4325 -8.64513 -1.18507
41.4902 -8.62217 -1.19032
41.4853 -8.59172 -1.18767
41.4815 -8.53227 -1.18437
41.614 -8.24381 -1.18469
41.6745 -8.16688 -1.18757
41.6666 -8.10714 -1.18427
41.7409 -8.09236 -1.19041
41.7968 -8.06727 -1.19568
28.0375 15.3355 -1.62384
27.9852 15.5193 -1.64902
27.9317 15.6992 -1.67316
41.6699 3.71061 -1.33388
41.6671 3.75689 -1.33643
29.573 -12.9968 -1.00076
37.1553 8.80613 -1.58285
26.3825 8.88039 -1.07289
26.3935 8.73754 -1.04921
31.6869 11.2927 -1.66466
35.6249 8.86494 -1.69728
36.9293 -5.95989 -1.29875
32.2868 -15.7131 -4.83085
27.3148 0.541469 -0.196577
27.3708 0.582405 -0.218031
27.3972 0.516763 -0.186247
27.3922 0.516103 -0.187241
28.4163 -2.58374 -0.397404
28.416 -2.52933 -0.375041
28.4175 -2.49416 -0.359451
28.43 -2.54442 -0.381857
27.3174 0.578787 -0.247017
27.3252 0.560309 -0.237796
27.3229 0.55647 -0.236752
27.2797 0.612235 -0.270429
27.2473 0.649336 -0.292881
27.191 0.717955 -0.334716
27.206 0.689013 -0.319368
27.2218 0.658018 -0.302996
27.2131 0.661605 -0.306043
27.2299 0.63054 -0.289669
27.0895 0.813553 -0.397891
27.2514 0.495355 -0.233069
27.2403 0.45118 -0.219556
27.1064 0.598817 -0.313358
29.3338 -9.60741 -3.64281
29.3547 -9.55246 -3.61944
29.5462 -1.80865 -0.385948
29.542 -1.79727 -0.381083
3.258 -4.858 1.15033e-41
