ply
format ascii 1.0
element vertex 618
property float x
property float y
property float z
end_header
121.594 6.17417 3.27342
104.044 11.4145 2.7338
105.667 22.5088 2.93626
53.3288 15.74 1.43265
44.9386 20.3106 1.58219
44.8278 19.6025 1.55725
44.2995 15.8744 1.42601
38.9042 16.9043 1.52084
33.4178 19.0538 1.68274
33.3947 18.9457 1.68044
34.201 14.977 1.54554
34.0973 14.9945 1.54759
26.5706 18.659 1.82165
26.5456 18.5521 1.81935
24.5582 18.9485 1.87844
27.2611 14.3177 1.69473
27.2818 14.1957 1.69139
27.3236 14.0562 1.68701
8.41473 21.1866 2.37158
10.6831 15.9038 2.20508
-1.44831 20.9327 2.66288
0.197578 16.5056 2.53973
1.41989 14.9354 2.47842
2.20374 14.3193 2.44473
2.16812 14.0074 2.44087
-0.840853 14.8993 2.54932
-0.162053 14.4065 2.52096
18.6238 -8.38162 1.74941
7.22047 -16.2083 2.16992
0.0953648 -19.5709 2.42568
4.04421 -18.5386 2.29152
111.906 -18.8887 2.93161
111.925 -18.6794 2.93119
111.949 -18.4718 2.93076
112.007 -18.273 2.9323
111.982 -18.0539 2.9299
112.04 -17.8552 2.93045
112.062 -17.6483 2.93002
112.072 -17.5437 2.9303
112.093 -17.3368 2.92987
112.168 -17.143 2.9314
96.543 15.6911 2.21654
95.9183 16.7524 2.21445
-6.89204 16.0308 2.39042
-4.33382 14.9936 2.31257
6.85532 -15.8622 1.90387
-10.8099 -22.7982 2.40582
47.0896 -18.0011 1.13701
48.2746 -17.8669 1.13338
48.3242 -17.9278 1.13421
82.8731 -20.8837 1.78012
111.506 -18.7606 2.50296
111.505 -18.6538 2.50225
111.54 -18.4505 2.50181
111.561 -18.2436 2.50238
111.59 -18.0395 2.50194
111.624 -17.8359 2.5025
111.644 -17.6289 2.50207
111.677 -17.4263 2.50162
111.686 -17.3226 2.50191
113.004 -16.9901 2.53582
122.223 -14.8471 2.77871
89.5163 12.8084 1.79262
96.9836 18.1933 2.0104
105.926 23.3471 2.25856
105.975 23.5862 2.26221
78.854 11.8547 1.55699
10.9503 -15.3718 1.60821
122.903 -26.7609 2.473
116.355 -19.6209 2.3036
120.278 0.360612 1.85246
122.695 8.60824 1.9241
104.054 11.2755 1.66041
105.989 23.5628 1.78215
80.8279 -17.6511 1.25499
116.988 -26.1934 1.79056
101.911 -20.7664 1.56145
101.992 -20.6054 1.56289
122.831 -27.0461 1.87622
116.166 -19.837 1.76801
116.346 -19.6547 1.77051
111.397 -17.0237 1.69473
103.831 11.4148 1.3638
107.692 24.4523 1.47959
78.8201 11.8315 1.12693
67.9711 -19.6308 0.965546
80.7983 -17.5909 1.06915
108.271 -24.9676 1.33392
112.694 -25.5952 1.37619
101.747 -20.7967 1.26936
101.791 -20.6235 1.26884
88.5875 11.5132 0.919057
107.801 24.2191 1.02495
107.679 24.3896 1.02542
80.4035 -20.9673 0.811882
123.174 -27.2052 0.926778
110.966 -18.9529 0.905427
110.888 -18.7219 0.905062
110.914 -17.9923 0.907065
111.023 -17.3917 0.908713
111.106 -17.2016 0.909235
112.608 -17.0241 0.913723
123.855 -18.4752 0.945745
110.614 9.46291 0.679438
96.4203 8.53004 0.69887
99.5137 10.6751 0.69876
88.1933 9.30178 0.712985
107.773 24.4625 0.717616
67.7289 15.0108 0.752648
51.4294 -12.9808 0.698794
81.0758 -17.4827 0.647448
95.0022 -23.0017 0.609303
104.524 -21.5788 0.600214
110.869 -18.6888 0.600151
110.851 -18.4735 0.600742
110.818 -18.2545 0.601343
110.814 -18.1494 0.601632
110.834 -17.9444 0.602195
110.914 -17.5457 0.603289
110.982 -17.3531 0.603818
115.225 1.27877 0.22497
107.329 23.6526 0.306391
107.681 24.4779 0.303656
67.7095 15.0083 0.586641
64.5362 -19.5564 0.509747
64.593 -19.5074 0.509881
110.594 -25.031 0.158738
110.918 -25.0366 0.155722
111.322 -24.9587 0.152937
111.65 -24.8523 0.151229
101.973 -20.8421 0.245234
118.777 -23.6938 0.104413
119.702 -23.729 0.0973162
116.674 -21.5358 0.130336
116.849 -21.353 0.129838
117.011 -21.1647 0.130355
117.075 -21.0662 0.129625
117.457 -20.9355 0.127985
111.751 -18.7583 0.181959
110.53 -18.0232 0.193977
110.521 -17.9176 0.195267
110.581 -17.724 0.194798
111.925 -17.6316 0.185052
112.227 -16.9598 0.185897
116.115 0.531266 -0.202084
107.738 6.13672 -0.0766981
107.202 23.547 -0.088901
107.54 24.1414 -0.0942689
107.634 24.4067 -0.0965406
67.6946 14.9833 0.425572
56.7982 19.0745 0.479798
56.8558 19.4122 0.476726
56.8303 19.5448 0.47509
33.4289 18.8759 0.442242
82.9361 -21.2816 0.136018
95.4883 -22.9442 -0.0365411
95.844 -22.9213 -0.041478
96.1 -22.8531 -0.0432907
96.2497 -22.8284 -0.0452229
96.4618 -22.7392 -0.046978
96.7834 -22.5153 -0.0493632
97.0276 -22.4368 -0.0521474
91.5906 -20.041 0.0374277
97.42 -22.2368 -0.0555983
97.6396 -22.235 -0.0585932
97.9247 -22.168 -0.0614092
98.1898 -22.0908 -0.064197
94.1782 -18.365 0.0160301
95.3553 -18.0297 0.00295108
95.7224 -17.9859 -0.000928504
96.6559 -18.1236 -0.0143062
96.9507 -18.0506 -0.0181058
97.9815 -18.2092 -0.0325407
100.342 -18.3312 -0.0658745
101.021 -18.3571 -0.0749454
105.619 -18.8669 -0.140343
106.262 -18.8548 -0.14831
106.809 -18.8108 -0.155189
110.869 -19.3154 -0.213572
111.828 -19.3603 -0.226695
112.771 -19.5031 -0.241087
114.803 -18.9266 -0.264503
114.925 -18.7338 -0.264974
114.939 -18.5151 -0.264373
114.945 -18.4051 -0.263071
115.269 -16.8181 -0.258714
115.591 -16.6657 -0.262296
116.257 -14.4727 -0.259275
115.95 -14.0886 -0.25322
115.783 -13.8406 -0.24954
115.702 -13.6083 -0.246902
116.211 -13.4736 -0.253532
120.574 -13.721 -0.315209
107.443 -6.12936 -0.513375
107.492 -5.9457 -0.51387
114.395 0.402291 -0.63944
113.541 0.573479 -0.62097
91.9785 1.57773 -0.168222
105.921 22.9296 -0.509598
105.963 23.1645 -0.510953
106.025 23.4092 -0.514282
78.884 11.7297 0.0736435
73.9327 10.0229 0.177956
56.8818 19.5104 0.310995
84.7825 -21.0529 -0.171355
84.9254 -20.9802 -0.173155
85.1083 -20.9271 -0.176009
85.2275 -20.9141 -0.177973
85.404 -20.8562 -0.180814
85.6015 -20.8077 -0.183681
86.0342 -20.7259 -0.190456
86.2683 -20.6925 -0.194364
81.2023 -17.6729 -0.0630764
81.7192 -17.7845 -0.0743827
87.4152 -20.2663 -0.211194
84.2479 -16.929 -0.114033
87.2952 -16.7497 -0.17154
98.7322 -17.5268 -0.406668
99.4512 -16.868 -0.414859
99.5377 -16.8052 -0.416687
100.328 -16.6745 -0.431328
100.488 -16.5423 -0.432965
100.483 -16.3637 -0.431474
100.923 -16.3048 -0.440313
111.117 -18.909 -0.667458
100.205 -15.5028 -0.419111
100.571 -15.4196 -0.425883
101.935 -14.778 -0.449121
102.713 -14.7777 -0.465119
102.646 -14.223 -0.459597
104.474 -13.9749 -0.494915
104.259 -12.9218 -0.483024
102.64 -12.0834 -0.444722
102.472 -11.8766 -0.440155
102.466 -11.7873 -0.43891
102.769 -11.664 -0.444571
107.564 -11.7208 -0.543725
98.5197 -7.35178 -0.591735
98.7149 -6.49005 -0.592369
98.7934 -6.33576 -0.592946
98.7441 -6.17233 -0.591497
98.8258 -6.09788 -0.593293
98.8973 -5.94282 -0.593867
99.1378 -5.23501 -0.596924
99.2545 -5.08093 -0.599501
99.0993 -4.91179 -0.595036
98.9798 -4.74562 -0.59158
107.455 -0.113234 -0.798859
106.914 0.0523872 -0.784405
105.561 0.359379 -0.748562
56.9788 19.515 0.190007
56.9093 19.5408 0.190078
56.8439 19.5773 0.190178
47.4757 16.973 0.294024
47.3346 16.726 0.300346
35.4393 23.8758 0.0579681
38.2302 17.1808 0.22859
80.964 -17.6168 -0.243923
81.0519 -17.5319 -0.24469
91.7441 -15.7714 -0.483853
92.3315 -15.8003 -0.498932
93.3317 -15.2552 -0.518435
93.514 -15.1537 -0.522156
91.3967 -7.06651 -0.663956
91.4456 -6.93409 -0.664592
91.4478 -6.79649 -0.664214
91.3544 -6.64932 -0.65981
91.4023 -6.51679 -0.660446
91.4805 -6.45603 -0.66228
91.5663 -6.32669 -0.664924
91.6353 -6.19449 -0.666562
91.6833 -6.06097 -0.667195
91.6984 -5.9248 -0.666821
91.7176 -5.78809 -0.666446
91.7507 -5.65291 -0.667075
91.7628 -5.51641 -0.6667
91.7954 -5.44959 -0.667516
91.8475 -5.31552 -0.668148
92.3361 -3.67737 -0.676651
92.5059 -3.54326 -0.681283
92.69 -3.40772 -0.68691
92.8851 -3.27239 -0.692539
93.0252 -3.13398 -0.697159
93.1744 -2.99557 -0.700779
93.3076 -2.85539 -0.705394
93.4351 -2.78601 -0.709203
93.5895 -2.64517 -0.713817
93.7572 -2.50278 -0.718426
93.9452 -2.35961 -0.724033
94.109 -2.21579 -0.728638
94.3204 -2.07018 -0.735238
94.4834 -1.92426 -0.739837
94.6477 -1.77646 -0.745431
94.8292 -1.70099 -0.750224
94.9654 -1.55209 -0.754815
95.0866 -1.40253 -0.758405
95.1534 -1.25398 -0.759997
95.402 -1.09942 -0.767572
95.7778 -0.940855 -0.779137
95.8709 -0.862645 -0.781922
96.0058 -0.708555 -0.786499
96.1428 -0.552701 -0.790071
96.4031 -0.391401 -0.798628
96.5484 -0.233444 -0.803195
96.7313 -0.072608 -0.808753
97.6109 0.356101 -0.836576
97.7802 0.521461 -0.841122
97.1296 2.81109 -0.819836
56.9582 19.411 0.0527209
56.9107 19.4908 0.0519398
56.8772 19.5065 0.0509831
53.1139 18.7859 0.108003
53.0733 18.9102 0.105344
53.0108 18.9453 0.104441
43.0826 18.8664 0.106219
75.8274 -18.735 -0.332996
87.4063 -12.7726 -0.587622
88.1248 -12.7627 -0.609595
89.7541 -11.7339 -0.64977
89.8505 -11.6178 -0.651451
89.9737 -11.5772 -0.65434
90.1085 -11.4684 -0.658041
89.9869 -11.304 -0.65259
88.823 -10.7856 -0.611167
90.2522 -9.16619 -0.64272
90.3096 -9.03874 -0.643371
90.3773 -8.98185 -0.645214
90.5128 -8.86708 -0.647899
90.5791 -8.74062 -0.649552
90.6663 -8.61747 -0.651214
90.6901 -8.48429 -0.650848
90.7248 -8.35231 -0.651486
90.7239 -8.21538 -0.65011
90.7452 -8.15033 -0.649931
90.7394 -8.01285 -0.649554
90.7909 -7.88374 -0.650199
90.8574 -7.75629 -0.650849
90.9874 -7.63589 -0.654519
91.1354 -7.51747 -0.658194
91.2687 -7.3954 -0.661859
91.3443 -7.26695 -0.663506
91.3915 -7.20378 -0.664333
89.8622 5.03204 -0.870742
89.9607 5.18513 -0.875322
88.3515 14.6423 -0.89336
70.1493 9.34994 -0.185895
51.3733 6.28675 0.412689
53.1269 18.7949 -0.0339727
53.0783 18.8828 -0.0367314
53.0252 18.9572 -0.0395274
52.992 18.9669 -0.0395008
52.9214 18.9646 -0.0385069
43.0691 18.818 -0.0349142
70.3324 -19.1295 -0.378082
71.8726 -17.8886 -0.395674
72.2768 -15.8137 -0.361978
82.248 -12.5352 -0.658973
47.2654 20.9287 -0.227118
18.379 18.0073 -0.802154
18.2329 17.9692 -0.807259
-16.3125 -8.11047 -2.14988
52.7833 -18.6687 -0.0598237
51.354 -12.1985 0.25194
67.368 -18.4343 -0.420175
71.0439 -14.8103 -0.454224
78.7155 -5.00639 -0.808306
78.7082 -4.909 -0.807039
78.7378 -4.81468 -0.80778
78.7401 -4.76664 -0.807648
78.7597 -4.67123 -0.807386
78.7754 -4.57537 -0.808123
81.7253 1.13862 -0.944435
81.8076 1.25427 -0.949118
81.8634 1.36781 -0.951806
81.9407 1.42968 -0.956636
82.0283 1.54776 -0.961312
82.1016 1.6644 -0.964992
82.1739 1.78115 -0.968671
82.2666 1.90067 -0.974343
82.3483 2.0204 -0.978014
82.4617 2.14468 -0.984673
82.5496 2.21141 -0.98949
82.6917 2.34055 -0.997135
82.8155 2.46769 -1.00379
82.9344 2.59638 -1.00943
83.0205 2.71966 -1.01509
83.1764 2.85532 -1.02272
83.9032 3.71152 -1.06337
83.9747 3.83942 -1.06802
83.9334 3.94763 -1.06672
70.1439 9.13903 -0.472475
70.3092 9.3139 -0.482995
47.2513 20.9115 -0.359166
47.1783 20.8884 -0.358229
-12.9256 14.5399 -2.38969
47.1802 -18.1416 -0.0983795
49.294 -12.7103 0.187533
49.3086 -12.6968 0.18757
49.3404 -12.6822 0.18861
52.7768 -18.6546 -0.156785
52.8331 -18.6548 -0.157786
53.0573 -18.566 -0.156542
53.1113 -18.5599 -0.157525
51.387 -12.1094 0.195184
51.4152 -12.0914 0.196234
77.1453 -8.51278 -0.765933
70.0904 8.95623 -0.622977
70.0174 9.00557 -0.620842
70.033 9.10144 -0.623579
43.284 18.8153 -0.423923
49.2999 -12.7208 0.119504
49.3305 -12.699 0.120564
77.52 3.54537 -1.09683
70.3663 3.40807 -0.664209
47.9998 13.8445 -0.211566
43.2277 18.8521 -0.541822
3.47702 14.9262 -2.16963
59.76 -17.6505 -0.493027
59.7987 -17.6004 -0.491889
59.818 -17.5261 -0.489685
59.7404 -17.3284 -0.476142
59.9077 -17.2986 -0.481061
71.9665 -2.96358 -0.902702
71.9608 -2.88849 -0.902496
71.966 -2.85083 -0.902392
71.9612 -2.77585 -0.902186
71.9806 -2.70053 -0.90298
71.9718 -2.6261 -0.901775
71.9952 -2.55122 -0.90357
71.9894 -2.47613 -0.902364
72.5108 9.61668 -1.09416
72.4611 9.6403 -1.0921
72.3733 9.69228 -1.08796
72.312 9.75643 -1.08578
72.2443 9.81726 -1.08361
72.2065 9.89389 -1.0834
72.1483 9.9587 -1.08123
70.7313 9.32881 -0.976956
44.7391 18.7451 -0.666116
51.416 -12.1292 0.000129032
51.4578 -12.1509 -0.0029306
51.5287 -12.1558 -0.0049439
51.6008 -12.1135 -0.00382767
51.6229 -12.0777 -0.00172945
63.625 -13.0835 -0.589487
68.4165 -11.5749 -0.821344
73.0764 3.31398 -1.13047
73.1168 3.40609 -1.13422
73.1572 3.49821 -1.13796
71.1427 9.47375 -1.13356
71.0723 9.52884 -1.13041
66.4089 12.3034 -0.943791
62.2987 11.9659 -0.702719
53.4631 15.5506 -0.582882
53.4016 15.5493 -0.580885
53.3466 15.5705 -0.581827
53.3195 15.5806 -0.581799
15.621 18.4354 -2.04199
70.0425 7.90056 -1.17288
70.0014 7.96549 -1.1717
69.9804 8.03925 -1.1725
69.935 8.10164 -1.17133
69.9294 8.1415 -1.17222
69.902 8.21195 -1.17202
69.8705 8.28185 -1.17183
69.8506 8.3565 -1.17263
69.8073 8.41966 -1.17245
69.7917 8.49685 -1.17324
69.7581 8.56498 -1.17305
69.7268 8.59159 -1.17198
69.7028 8.66568 -1.17278
69.6574 8.72807 -1.17161
66.1977 13.6022 -1.14823
56.0587 14.1431 -0.678745
55.9522 14.0542 -0.668989
55.9038 14.1522 -0.67472
55.8217 14.2468 -0.67846
51.029 15.9839 -0.693693
50.9674 15.9635 -0.691749
43.285 18.8438 -0.939847
43.217 18.8383 -0.940862
43.1401 17.3282 -0.829007
43.104 17.2115 -0.821328
58.1492 -15.4089 -0.621874
55.6971 13.1419 -0.695494
55.63 13.1262 -0.691537
55.5331 13.0514 -0.682742
55.9386 14.0218 -0.770078
55.9247 14.124 -0.777798
55.8754 14.0872 -0.772899
55.8632 14.1952 -0.780602
54.5616 11.6485 -0.541593
54.5294 11.6944 -0.544467
54.4692 11.6779 -0.540513
50.7959 15.9869 -0.797686
50.7356 15.9694 -0.794734
43.2785 18.8398 -1.06486
43.2102 18.8323 -1.06488
64.4636 -10.92 -0.874548
55.617 12.9729 -0.780958
55.5877 12.9721 -0.77996
55.544 13.0042 -0.780872
55.8536 14.0275 -0.875063
55.9383 14.3371 -0.903213
55.9687 14.5391 -0.920659
54.4198 11.8678 -0.644992
50.7133 15.9682 -0.904738
66.2407 6.89677 -1.23264
66.2331 6.96502 -1.23445
50.4775 16.0923 -1.0304
50.4128 16.0441 -1.02453
29.8327 15.6235 -1.7237
56.8192 -12.9954 -0.646249
62.2453 10.8333 -1.23783
62.1995 10.8736 -1.23672
62.3501 11.0974 -1.26411
59.7894 14.1807 -1.32264
50.4357 16.1969 -1.15411
50.3962 16.1217 -1.14632
50.3242 16.0079 -1.13363
31.1661 14.6102 -1.71048
52.2213 -15.071 -0.69795
61.7248 10.1496 -1.27271
61.6785 10.1859 -1.27161
61.6109 10.2025 -1.26656
61.618 10.248 -1.27044
61.4752 10.1944 -1.25558
57.8387 12.5857 -1.19102
54.3398 11.6913 -0.920477
29.3316 -6.94379 -1.41865
50.731 -14.8282 -0.717284
50.7845 -14.7908 -0.714181
51.0182 -14.6427 -0.703774
60.5385 -10.3496 -0.926984
63.482 -5.47414 -1.0116
64.0685 5.9367 -1.34027
60.9111 9.5084 -1.26647
43.9188 12.9393 -1.06706
44.0804 14.2692 -1.30741
44.0522 14.1606 -1.2957
42.5818 16.2976 -1.58984
57.6475 -11.4325 -0.909959
57.7005 -11.4263 -0.913942
57.7382 -11.4043 -0.915881
44.0334 14.5172 -1.42573
44.0431 14.2504 -1.39346
44.0176 14.1295 -1.37979
61.6227 3.75982 -1.24225
61.6159 3.80786 -1.24412
61.6198 3.86076 -1.24697
57.488 6.26718 -0.950367
54.2245 11.4233 -1.24821
44.4058 14.5366 -1.53767
44.3586 14.5016 -1.53477
44.334 14.4882 -1.53381
44.2786 14.4873 -1.53481
44.2335 14.444 -1.53093
44.1795 14.4379 -1.53194
44.12 14.4546 -1.5359
44.0673 14.4423 -1.53593
44.0702 14.2055 -1.50558
44.053 14.0504 -1.48601
44.0337 14.0213 -1.48309
44.0003 13.9375 -1.47332
57.5957 6.19512 -1.04157
57.5643 6.22073 -1.0405
57.4647 6.18445 -1.02659
54.2288 11.3355 -1.33946
57.398 6.14569 -1.0727
58.0135 6.74348 -1.44006
53.8585 9.15804 -1.33743
53.8208 9.17228 -1.33739
53.7858 9.19226 -1.33734
53.7519 9.21313 -1.33828
53.7118 9.22361 -1.33725
53.6741 9.23785 -1.33621
53.66 9.25551 -1.33717
37.6849 7.96173 -1.62773
37.6658 7.91656 -1.62485
44.8995 8.33006 -1.45271
44.8604 8.34045 -1.45768
44.8298 8.31868 -1.45474
44.7989 8.30299 -1.45379
44.7602 8.3073 -1.45677
44.7313 8.28332 -1.45484
49.4914 3.81169 -1.25711
-13.421 11.5049 -21.4041
-13.4508 11.309 -21.3996
50.6455 -2.095 -0.369325
47.0944 -0.757072 -0.0956529
46.921 -3.66268 -0.0966299
47.3187 -1.05798 0.0315216
47.3702 -1.0103 0.00565239
47.3467 -0.986521 -0.00928238
47.3869 -1.06857 0.0314926
47.392 -1.08626 0.039444
47.3617 -1.04158 0.0155665
47.2738 -1.18082 0.0451843
47.292 -0.971303 -0.0452408
47.3341 -1.0455 -0.00644434
47.3237 -1.03931 -0.0114273
47.3032 -1.01586 -0.025363
47.2663 -0.967423 -0.0522302
47.2335 -0.9275 -0.0751206
47.1965 -0.880055 -0.102991
47.2296 -0.935123 -0.0741416
47.2218 -0.933242 -0.0761365
47.2391 -0.967409 -0.0592302
47.1716 -0.877279 -0.109983
47.2376 -1.08105 -0.017542
47.3009 -1.17272 0.0332065
47.2675 -1.1831 0.028178
49.5148 -3.46319 -0.186081
49.5285 -3.57522 -0.245389
49.4453 -3.49069 -0.190157
49.4543 -3.49167 -0.19316
49.3701 -3.40703 -0.136927
-14.0572 1.15033e-41 0
