ply
format ascii 1.0
element vertex 660
property float x
property float y
property float z
end_header
49.7704 12.751 1.43214
38.1296 16.8626 1.13785
38.0537 16.8831 1.13649
37.9477 16.8683 1.13336
24.2351 18.4724 0.959255
24.1523 17.9553 0.946625
-28.8153 38.9542 2.22096
-28.8174 38.6998 2.2182
-4.51778 14.5109 1.35423
-34.9021 26.0756 2.27413
-33.463 21.9513 2.21503
-41.8864 -18.3736 2.77512
-30.896 -15.9807 2.40135
-30.3811 -16.0144 2.38589
-30.5873 -17.0899 2.4119
-30.6792 -17.3048 2.41857
-27.7917 -17.2848 2.33233
-27.2605 -17.1974 2.31483
-27.0729 -17.3107 2.31228
-12.0367 -13.0609 1.78281
-11.8898 -13.1338 1.77981
-11.8779 -13.2547 1.78191
-11.9173 -13.3945 1.78605
-33.8279 -24.8313 2.66653
-23.1481 -22.9938 2.32092
-23.0157 -23.1098 2.32026
-23.9404 -24.3046 2.3746
-3.80564 -14.4776 1.57909
-3.92192 -14.647 1.5863
-34.9168 -33.2819 2.89859
-36.5492 -34.7029 2.97923
-36.4972 -34.9234 2.9833
-34.0147 -33.7294 2.88571
-33.7821 -34.197 2.8914
-5.84521 -19.2226 1.75612
-10.0486 -22.7698 1.96238
-11.7231 -24.055 2.04072
-11.6933 -24.195 2.04403
-10.2775 -24.0912 2.00551
3.62275 -14.7856 1.39064
4.48257 -14.8489 1.37126
8.78355 -14.864 1.27272
9.19264 -14.5889 1.25527
9.29577 -14.5731 1.25237
9.36041 -14.5979 1.25175
9.47001 -14.5744 1.24881
9.54229 -14.5888 1.24711
9.65829 -14.5586 1.24412
10.154 -14.9317 1.2466
10.3811 -14.9542 1.24235
63.0363 -24.42 2.36347
89.0951 12.5823 2.3711
-31.5503 34.8357 1.83376
-33.8067 -24.7459 2.26981
-33.689 -24.9072 2.27051
92.6468 -16.238 2.74629
92.671 -16.0151 2.74338
92.7181 -15.7965 2.74156
92.7602 -15.5766 2.73972
92.7835 -15.3536 2.7378
92.8226 -15.1336 2.73495
92.8489 -14.9108 2.73304
92.8605 -14.7993 2.73109
92.9075 -14.5817 2.72928
34.3907 14.4462 0.802208
34.3425 14.4791 0.801802
34.2114 14.4969 0.799329
-31.3329 34.5175 1.52208
79.4953 -21.4801 2.173
92.1301 -16.0651 2.3965
92.1237 -15.8363 2.39347
92.2908 -14.6272 2.38118
92.3456 -14.4121 2.37941
92.438 -14.2052 2.37881
-29.1785 34.94 1.0085
-31.6059 27.8255 1.04253
90.5856 -22.5933 1.91946
96.8086 -17.1785 1.95656
97.0416 -14.8103 1.93219
1.13917 21.8043 0.551341
-34.7125 26.3597 0.754015
102.632 9.32291 0.840335
102.609 9.57371 0.838063
43.0274 13.0564 0.487212
37.4111 16.8751 0.434984
-31.8444 32.0515 0.26659
-35.4317 32.8097 0.262277
-39.8041 30.5913 0.27938
-33.1293 22.5192 0.337732
69.526 -16.8853 0.894412
69.7209 -16.7907 0.895044
93.1834 -23.0185 1.08242
92.2973 -19.6572 1.04559
92.4716 -19.4722 1.04437
94.0677 -16.6019 1.02584
94.0755 -16.4872 1.02485
94.116 -16.2622 1.02296
96.9509 -16.4136 1.0391
94.2842 -15.1333 1.01238
91.8795 -14.5196 0.993188
102.473 7.08023 0.483753
102.223 7.1822 0.483253
78.3688 8.40263 0.45119
77.8845 9.1186 0.444701
87.8689 12.4359 0.423363
70.0188 13.0821 0.400792
69.8297 13.1865 0.399416
43.1703 13.079 0.374351
-38.6285 21.1645 0.0424848
60.9815 -19.6001 0.677873
92.5327 -19.4548 0.70635
91.7836 -16.0464 0.677435
91.8592 -15.8376 0.67577
91.8777 -15.7285 0.674851
91.9196 -15.5116 0.673035
91.9339 -15.289 0.671103
91.9669 -15.0696 0.669244
91.991 -14.8497 0.667358
92.0518 -14.6369 0.665624
92.0808 -14.4183 0.663762
92.6877 -14.2019 0.662307
69.5678 3.79532 0.190755
69.507 3.93617 0.189365
69.5188 4.08372 0.188089
69.5735 4.1616 0.186533
69.6348 4.31523 0.185322
69.6304 10.0724 0.127441
49.9179 6.20637 0.272273
49.9049 6.29129 0.271492
49.9086 6.33615 0.271104
49.9059 6.42546 0.270308
41.9667 13.0641 0.227586
37.2244 15.037 0.215767
39.5891 19.3909 0.144973
-28.2519 33.9076 -0.432213
-39.6322 23.4703 -0.410317
88.027 -22.1689 0.292494
92.0632 -22.6905 0.274794
94.0087 -23.0777 0.267886
95.252 -23.2278 0.262197
96.659 -23.4217 0.256289
98.7273 -23.6819 0.247554
92.131 -19.6452 0.254049
92.3142 -19.4628 0.251876
91.5094 -16.048 0.232772
91.405 -15.7984 0.231315
91.3925 -15.5712 0.230278
91.3862 -15.4577 0.22926
91.4122 -15.2388 0.227388
91.454 -15.024 0.22559
91.5156 -14.8132 0.223876
91.596 -14.6067 0.222244
92.0529 -14.2522 0.217209
92.6486 -14.2586 0.213695
101.149 2.53048 -0.448264
97.9915 2.99899 -0.415984
95.3389 3.55761 -0.391288
90.5865 8.41441 -0.384612
68.2608 9.41511 -0.141052
69.4484 9.82722 -0.159842
50.0028 5.90835 0.106103
49.997 5.99485 0.105325
35.5394 17.7414 0.0448192
-31.5695 29.1238 -0.783926
-42.8731 29.0029 -0.952006
-41.6545 16.1902 -0.759863
65.1741 -19.9454 0.107967
81.4577 -21.3386 -0.0596303
92.957 -19.9276 -0.191492
96.5101 -20.6751 -0.227357
97.6966 -20.7527 -0.239822
95.5592 -17.6282 -0.233562
96.5353 -17.7394 -0.243236
97.3005 -17.6758 -0.251961
92.3707 -4.16444 -0.769202
88.3695 7.75009 -0.809084
88.5797 7.98398 -0.815646
50.3297 6.84683 -0.103413
35.5464 17.7176 -0.10696
35.5987 17.8557 -0.111055
35.6167 18.0069 -0.115348
31.4083 13.6981 0.035624
21.9256 20.2321 -0.136884
21.8763 20.0097 -0.131037
21.83 19.754 -0.122889
-39.0337 23.0135 -1.27088
73.2359 -20.3966 -0.349708
73.7122 -20.4049 -0.357491
74.7542 -20.1675 -0.375087
74.7826 -19.9929 -0.376562
74.9707 -19.8788 -0.379118
75.2608 -19.802 -0.385101
76.2379 -19.6959 -0.401693
77.5044 -15.4607 -0.434074
86.4779 -15.9464 -0.593242
88.955 -14.926 -0.642312
89.2486 -13.1554 -0.655253
81.1361 -2.59684 -0.869033
80.9029 -2.40762 -0.865264
51.5654 13.1474 -0.387127
49.471 15.9495 -0.404916
35.5384 17.7962 -0.221679
21.9411 20.2843 -0.245313
21.8884 20.1062 -0.238866
21.833 19.9843 -0.234921
21.7888 19.7285 -0.225768
-41.5534 34.2228 -1.898
-42.3952 33.3571 -1.90137
65.4043 -19.42 -0.454146
65.5608 -19.3312 -0.457555
66.085 -15.8891 -0.464709
69.6445 -14.8271 -0.545549
77.5589 -13.7995 -0.726633
81.7638 -10.7114 -0.834826
81.6325 -10.5944 -0.832176
81.6744 -10.4125 -0.833682
81.1858 -5.51987 -0.849086
72.7199 -3.3165 -0.958886
72.6892 -3.15839 -0.958357
72.6634 -3.00158 -0.958804
72.6696 -2.84668 -0.960158
72.6449 -2.68994 -0.960603
72.6185 -2.61123 -0.960361
72.6597 -2.45841 -0.962613
72.6839 -2.30359 -0.964923
72.6651 -2.1472 -0.96535
72.6483 -1.99193 -0.965762
72.6335 -1.83678 -0.967168
72.5857 -1.67966 -0.966671
74.1594 0.0355129 -1.02805
74.3423 0.196889 -1.03504
75.6019 1.27868 -1.08257
75.6107 1.44345 -1.08401
76.2369 1.71458 -1.1059
76.3594 1.88658 -1.11113
76.5019 2.05938 -1.11731
76.6616 2.23517 -1.12348
76.8384 2.41193 -1.13062
77.3372 2.86398 -1.15042
51.4981 13.1177 -0.571034
49.5272 15.8745 -0.587125
49.3937 15.9045 -0.584711
40.6287 13.6499 -0.314825
21.8845 19.867 -0.351766
21.8292 19.7451 -0.346822
70.0547 -12.6762 -0.844582
70.3473 -12.6736 -0.852902
70.6736 -10.403 -0.866182
70.8656 -9.82042 -0.872869
71.9201 -9.79322 -0.903578
72.3406 -9.71414 -0.916268
70.2711 -7.19636 -0.864481
73.0612 -6.7268 -0.948934
73.152 -6.57996 -0.952014
73.1475 -6.4204 -0.952434
73.1101 -6.25689 -0.951969
73.0787 -6.09473 -0.952477
73.0333 -5.93174 -0.952026
72.9942 -5.84826 -0.950858
72.9647 -5.68722 -0.951351
72.9083 -5.52357 -0.949933
72.8479 -5.35969 -0.949526
72.9807 -5.21535 -0.954482
73.0796 -5.06798 -0.957547
73.1318 -4.91483 -0.960775
73.1361 -4.75781 -0.961152
73.069 -4.67267 -0.960065
73.0325 -4.51221 -0.959571
72.9131 -4.34581 -0.957328
72.8556 -4.1841 -0.956895
72.8908 -4.02993 -0.959172
72.8482 -3.87111 -0.958678
72.8216 -3.71225 -0.959145
72.8102 -3.63343 -0.958869
72.7865 -3.47574 -0.959319
67.5133 1.54067 -1.13531
67.6862 1.61848 -1.14258
67.783 1.76295 -1.14763
67.8818 1.90831 -1.15268
69.6753 5.60057 -1.263
57.6978 10.466 -0.922733
57.802 10.619 -0.929835
57.5529 10.658 -0.921777
57.4212 10.7339 -0.918765
57.507 10.8811 -0.924858
48.2208 14.9051 -0.721703
49.4858 15.9103 -0.789549
49.0646 15.9865 -0.778234
25.3332 9.81228 -0.00563069
-41.4938 -11.9387 -2.111
54.8029 -16.3232 -0.662973
58.2141 -12.4133 -0.752332
63.9177 -10.9638 -0.945452
63.978 -10.8432 -0.947373
63.5068 -9.85233 -0.931259
66.2874 -5.96925 -1.0369
66.3084 -5.83427 -1.03804
66.3911 -5.70798 -1.04196
66.4449 -5.64508 -1.04438
66.451 -5.5092 -1.04457
66.3974 -5.36576 -1.04396
66.3428 -5.22225 -1.04236
66.3081 -5.08193 -1.04169
66.2614 -4.9399 -1.04105
66.2376 -4.80123 -1.04034
66.2306 -4.7327 -1.04096
66.1899 -4.59202 -1.0403
66.2029 -4.45756 -1.04146
66.2618 -4.32683 -1.04347
66.3376 -4.19813 -1.04743
66.3965 -4.06642 -1.05045
66.4325 -3.93333 -1.05254
66.3796 -3.86105 -1.0503
61.3875 -0.987224 -1.11668
61.374 -0.927313 -1.11625
61.3811 -0.807529 -1.11729
61.3354 -0.329975 -1.11962
48.1297 14.6637 -0.883795
48.2039 14.8155 -0.891958
48.1492 14.8888 -0.891738
37.9959 16.817 -0.643143
26.6917 9.74393 -0.0757677
29.3638 18.2737 -0.542737
24.2683 18.3013 -0.515215
24.1881 17.8635 -0.491538
14.8916 21.4391 -0.773466
14.5254 15.3244 -0.480305
-38.3499 -8.89395 -2.36136
-37.7476 -9.00665 -2.33292
-30.0823 -11.4718 -1.97571
47.9139 -18.0724 -0.652058
47.972 -18.0559 -0.653065
48.0623 -18.0031 -0.655314
48.1267 -17.9318 -0.656789
48.2016 -17.8682 -0.658172
48.2986 -17.8199 -0.660366
48.4893 -17.5437 -0.662348
48.9562 -17.1057 -0.671098
51.8067 -15.4666 -0.751739
51.891 -15.3965 -0.754156
59.5534 -9.20729 -1.01345
57.7282 1.60799 -1.1854
57.8392 1.72355 -1.19216
58.0745 1.95688 -1.20666
58.2008 2.07554 -1.2134
58.3422 2.19629 -1.22213
58.4573 2.26053 -1.22842
58.5786 2.38048 -1.23519
58.7011 2.50237 -1.24297
58.8387 2.62636 -1.25074
58.9723 2.75058 -1.25952
59.0617 2.87144 -1.26537
59.1108 2.9897 -1.2693
59.2013 3.11251 -1.27516
59.2671 3.17568 -1.27856
59.3617 3.29924 -1.28543
59.4411 3.4217 -1.29032
57.8296 5.18292 -1.24175
48.0784 14.2977 -1.03569
48.1155 14.5849 -1.04714
49.6539 15.856 -1.15368
26.7137 9.74008 -0.137683
24.23 18.1565 -0.614032
24.1564 17.8134 -0.594176
14.9341 21.4895 -0.909815
-30.7053 3.90104 -2.40906
-30.7424 3.73294 -2.40866
-30.7784 3.64992 -2.40902
-30.8138 2.96985 -2.40309
-30.774 2.79622 -2.39846
-30.7262 2.62311 -2.39382
-30.7283 2.53809 -2.39307
-29.1057 -5.88907 -2.24371
45.6273 -16.821 -0.711608
45.6593 -16.7368 -0.711275
48.125 -15.0666 -0.777115
48.2025 -15.0603 -0.780985
48.3327 -14.9258 -0.783861
48.1356 -13.4872 -0.753043
48.2317 -13.4379 -0.756249
55.069 -8.75943 -1.01818
55.0022 -8.63621 -1.01443
57.7922 6.12678 -1.47919
57.8932 6.25795 -1.48711
48.1406 14.2403 -1.21904
48.2728 14.4247 -1.23235
50.0361 15.7533 -1.36387
49.8561 15.7591 -1.35635
49.7364 15.8003 -1.352
49.6384 15.8542 -1.34971
26.7232 9.72691 -0.205547
24.2702 18.2872 -0.741096
-22.7683 -2.95061 -2.21845
51.7634 -2.05579 -1.20036
51.7407 -1.96427 -1.19922
51.7211 -1.87394 -1.19906
51.6764 -1.7821 -1.19598
51.5761 -1.59978 -1.19183
51.5027 -1.55231 -1.18743
51.486 -1.46315 -1.18726
51.4833 -1.37384 -1.18805
51.4865 -1.28588 -1.18882
51.5088 -1.19805 -1.19055
51.497 -1.10919 -1.19036
51.4853 -1.02033 -1.19017
51.4879 -0.975416 -1.19056
51.4601 -0.886597 -1.18941
51.4433 -0.79844 -1.18923
51.4326 -0.709641 -1.18904
51.4038 -0.620772 -1.1889
51.374 -0.532833 -1.18775
51.3582 -0.444735 -1.18756
51.3388 -0.400498 -1.187
51.3059 -0.312382 -1.18586
51.27 -0.225076 -1.18371
51.2632 -0.137521 -1.18451
51.2564 -0.0499659 -1.1853
51.2466 0.0377763 -1.18509
51.2277 0.125054 -1.18491
51.2143 0.168934 -1.18433
51.2185 0.256826 -1.1861
51.2167 0.344085 -1.18687
51.2079 0.431768 -1.18667
51.1951 0.519679 -1.18748
51.2003 0.607521 -1.18824
51.1633 0.69288 -1.18708
51.1474 0.77998 -1.18689
51.1079 0.822416 -1.18536
51.084 0.908992 -1.18518
51.052 0.994056 -1.18401
51.031 1.08045 -1.18382
50.996 1.16569 -1.18266
50.92 1.33553 -1.18034
50.9336 1.37979 -1.1817
50.8825 1.46399 -1.17957
50.8696 1.54991 -1.18036
50.8245 1.63376 -1.17821
50.9112 1.72672 -1.18482
51.0181 1.82249 -1.19241
51.12 1.91954 -1.20003
51.1861 1.96868 -1.2043
51.2397 2.06162 -1.20899
51.2641 2.15231 -1.21174
51.3036 2.2441 -1.21545
51.311 2.33381 -1.21723
51.3576 2.42717 -1.22194
51.3821 2.51886 -1.22469
51.414 2.56703 -1.22704
43.648 12.2307 -1.06407
-17.164 5.47015 -2.2004
-17.1349 5.33622 -2.19615
48.8702 -5.23431 -1.02521
52.0328 -4.34899 -1.20945
51.8999 -4.05651 -1.20235
51.8698 -4.00661 -1.19986
51.907 -3.92069 -1.20253
51.9263 -3.83169 -1.20427
51.9446 -3.74262 -1.20502
51.9689 -3.65392 -1.20674
51.9634 -3.56242 -1.20656
51.927 -3.46707 -1.20449
51.8708 -3.41662 -1.20107
51.8463 -3.32299 -1.19996
51.789 -3.22639 -1.19695
51.7743 -3.13535 -1.19679
51.7548 -3.04302 -1.19565
51.7371 -2.9518 -1.1945
51.7176 -2.85947 -1.19436
51.6893 -2.81269 -1.19285
51.6627 -2.72093 -1.19072
51.6222 -2.62734 -1.18864
51.6434 -2.54045 -1.19036
51.6637 -2.45152 -1.1921
51.6959 -2.36429 -1.19479
51.7451 -2.27809 -1.19843
51.7634 -2.19002 -1.19917
51.7741 -2.14559 -1.20054
45.6268 13.3324 -1.39106
26.2878 8.87069 -0.26503
24.1984 18.0142 -0.949864
11.7443 21.5943 -1.45342
45.2427 12.9317 -1.47745
45.2444 13.0277 -1.48229
45.2461 13.1238 -1.48714
41.5781 16.1523 -1.4407
41.3823 16.0779 -1.42551
41.2129 16.0259 -1.41446
41.0392 15.9703 -1.40139
40.9056 15.8972 -1.39106
37.5073 14.8399 -1.15687
24.1864 17.7738 -1.02077
-10.5417 10.1787 -2.31111
-10.0679 7.60389 -2.20321
45.6872 6.25599 -1.39939
45.6909 6.3339 -1.40207
45.6812 6.40759 -1.40375
45.6808 6.48373 -1.40642
43.9421 11.4101 -1.48413
43.9018 11.4726 -1.48378
43.8895 11.5524 -1.48751
43.8388 11.6096 -1.48714
43.8036 11.6758 -1.48781
43.7643 11.7392 -1.48846
43.7125 11.7944 -1.48707
43.7173 11.8411 -1.49048
43.6593 11.8937 -1.48908
43.5649 11.9234 -1.48457
43.7845 12.1455 -1.51001
41.4287 15.7733 -1.56972
41.2361 15.6517 -1.55111
41.0605 15.5961 -1.53804
43.9233 -7.51904 -1.15891
43.8156 -7.40937 -1.14913
43.8419 3.46131 -1.30213
43.8419 3.52742 -1.30371
43.851 3.56292 -1.306
43.8682 3.633 -1.30858
43.8743 3.70174 -1.31117
43.8793 3.76955 -1.31276
43.8986 3.8415 -1.31635
44.0907 5.75492 -1.3888
44.1072 5.83104 -1.39343
44.1063 5.86615 -1.39375
42.6501 10.7225 -1.49115
42.6256 10.749 -1.49145
42.5818 10.8047 -1.49104
42.5567 10.8713 -1.49269
42.5254 10.9342 -1.49332
42.491 10.9954 -1.49395
42.4773 11.0683 -1.49763
42.4356 11.1259 -1.49723
42.4195 11.1569 -1.49755
42.3798 11.2143 -1.49815
42.3548 11.2819 -1.49981
31.1874 14.1416 -1.05287
24.1925 17.6975 -1.23809
32.4544 -15.1366 -0.861127
41.5787 9.9716 -1.50009
41.5471 10.0306 -1.50069
41.53 10.0967 -1.50332
41.5191 10.1664 -1.50596
41.4916 10.2262 -1.50755
41.4951 10.267 -1.5099
41.4531 10.3186 -1.50946
41.4308 10.383 -1.51108
41.4003 10.4419 -1.51268
41.3697 10.5008 -1.51327
41.3475 10.5643 -1.51489
41.3533 10.646 -1.52059
35.9021 14.9048 -1.44831
24.2267 17.6945 -1.34499
34.1468 -13.566 -0.946945
39.893 -9.57845 -1.14239
40.5357 9.19407 -1.50273
40.5017 9.24618 -1.50227
35.9362 14.9327 -1.57848
35.8312 14.9029 -1.57047
31.4193 15.23 -1.37094
28.4439 -14.7401 -0.880261
32.4561 15.4734 -1.55361
1.80892 -2.93344 -1.81257
1.70901 -3.01376 -1.82411
1.63026 -3.05824 -1.8329
33.8731 14.0462 -1.6106
33.8214 14.0693 -1.60893
33.7786 14.1079 -1.61037
33.7323 14.1387 -1.61076
14.151 16.8784 -1.86799
38.8979 -0.810042 -1.30626
38.8927 -0.761654 -1.3067
38.8926 -0.712564 -1.30713
34.8528 12.1587 -1.60357
34.7259 12.2985 -1.60711
34.6731 12.3207 -1.60543
32.9125 13.6264 -1.6142
32.8682 13.6561 -1.61457
32.8272 13.6916 -1.61498
32.7807 13.7174 -1.61532
32.7585 13.7327 -1.61551
32.6721 13.795 -1.61627
32.6255 13.8208 -1.61661
32.568 13.8312 -1.61384
32.5391 13.884 -1.61837
32.3918 14.0009 -1.62176
32.3509 14.0364 -1.62317
19.869 18.6424 -1.96585
19.8093 18.6319 -1.9659
19.9574 17.5063 -1.8236
4.15415 -0.318912 -1.81404
31.092 13.6396 -1.59969
27.3784 -12.632 -0.988451
33.9104 11.4531 -1.6366
33.8859 11.4616 -1.63574
33.8413 11.4873 -1.63407
33.8042 11.5206 -1.63445
33.7628 11.5491 -1.6348
33.7236 11.5804 -1.63418
35.1491 8.45896 -1.66717
35.1244 8.49848 -1.66858
35.0986 8.53708 -1.66898
29.6779 11.685 -1.70982
29.6378 11.7015 -1.71006
29.6022 11.7266 -1.71137
29.1329 10.858 -1.69582
29.1048 10.8917 -1.69918
29.0586 10.8895 -1.69627
29.0327 10.9251 -1.69965
28.9909 10.9306 -1.6968
28.9572 10.9536 -1.69808
28.9245 10.9766 -1.69937
28.9024 10.9759 -1.69841
28.8699 11.0009 -1.69971
28.4339 10.5247 -1.71755
11.2832 0.438672 -1.66961
11.284 0.400571 -1.66828
11.264 0.0982264 -1.66665
29.9512 -8.42652 -1.26644
33.4458 -3.14483 -1.31872
33.3827 -3.09289 -1.30633
31.808 6.33732 -1.56045
31.7929 6.36925 -1.56276
29.827 -4.55533 -1.39895
-36.0286 12.3353 -21.1701
27.99 -16.2034 -5.2176
27.7739 -15.3063 -4.90404
28.1251 -16.292 -5.2595
25.8378 -0.0848577 -0.624997
25.8776 -0.0733376 -0.641004
22.2915 1.07395 -0.36074
22.2316 1.09236 -0.382048
22.2274 1.0886 -0.382024
23.6702 -1.84781 -0.210608
87.2041 -17.0675 -27.0867
22.4689 0.793905 -0.247835
22.5552 0.763845 -0.234362
22.5474 0.767288 -0.237411
23.6153 -2.2431 -0.422256
23.6061 -2.14199 -0.378169
23.6141 -2.15957 -0.385995
22.4768 0.824087 -0.294085
22.2401 1.16307 -0.486656
22.4801 0.810926 -0.28796
22.4741 0.811264 -0.289978
22.4385 0.852227 -0.315426
22.4096 0.887828 -0.335811
22.3536 0.954918 -0.37654
22.3523 0.949006 -0.374491
22.361 0.928528 -0.365288
22.3744 0.901809 -0.35102
22.3721 0.895947 -0.349973
22.2519 1.04457 -0.438579
22.4163 0.733668 -0.27643
22.3915 0.704115 -0.273229
24.4863 -8.06689 -3.14382
24.762 -9.71985 -3.90759
24.787 -9.68715 -3.89381
24.7436 -1.54803 -0.448689
24.7227 -1.52764 -0.435919
24.6677 -1.47398 -0.400523
23.502 1.15033e-41 0
