ply
format ascii 1.0
element vertex 721
property float x
property float y
property float z
end_header
121.035 5.03299 3.24733
120.99 5.27762 3.24596
121.298 7.56039 3.25962
96.2219 15.9005 2.50506
96.4015 16.6194 2.51759
97.0899 17.0457 2.542
54.1865 15.3837 1.34578
54.3331 71.8127 3.06368
45.996 27.5819 1.63071
45.5105 23.9358 1.51264
45.1231 21.321 1.42865
44.7955 19.0873 1.35693
44.5362 17.3503 1.30026
33.6986 20.7422 1.47374
23.5925 16.7701 1.57009
23.4739 16.7697 1.57324
23.2875 16.8354 1.57936
23.1467 16.8544 1.5835
13.5333 20.5616 1.91692
10.9693 20.6265 1.99096
18.9336 14.8566 1.65916
19.0244 14.7381 1.65425
19.0293 14.6251 1.65244
19.0191 14.5226 1.65063
18.9714 14.4469 1.65082
6.09826 21.3519 2.14671
5.46679 21.5913 2.16907
6.21045 19.947 2.12101
2.20046 20.6615 2.25371
-2.65629 21.0951 2.41095
-28.5181 30.8847 3.35785
-28.5385 30.2215 3.35002
-3.43496 18.5775 2.40328
-3.64294 18.4966 2.40968
0.0878318 14.1478 2.23962
0.0198858 13.2682 2.23323
-0.0060344 13.1281 2.23351
-3.20669 13.8469 2.34621
-3.34846 13.7343 2.34958
-32.7421 17.6152 3.37008
-32.7053 16.7282 3.36258
-17.0297 -14.3814 2.83724
-16.8165 -14.5311 2.83123
-18.4506 -16.7991 2.90818
18.3351 -8.97541 1.57925
18.2987 -9.02808 1.58139
18.6744 -9.40492 1.57258
18.7729 -9.49607 1.57062
18.9006 -9.53584 1.56653
23.4953 -9.21596 1.41131
23.6503 -9.32476 1.4073
23.81 -9.39684 1.40323
23.7935 -9.47258 1.40538
4.28191 -19.6244 2.18906
23.7603 -10.6098 1.4234
23.7619 -10.6451 1.42446
6.39236 -19.3982 2.11806
13.6188 -16.3554 1.83987
-1.4108 -26.128 2.47936
17.8469 -16.0033 1.70205
17.9373 -16.0032 1.69994
17.9905 -16.0748 1.699
19.2939 -15.7998 1.65491
24.0694 -15.7239 1.51389
28.6771 -16.4815 1.41053
28.759 -16.4866 1.40943
53.1438 -18.433 1.37475
64.2112 -19.3637 1.63972
64.3553 -19.3096 1.64145
107.393 -18.1371 2.90236
107.433 -17.93 2.90095
107.458 -17.7194 2.90055
107.461 -17.6122 2.89936
107.486 -17.4017 2.89797
107.521 -17.1941 2.89656
107.571 -16.99 2.89615
107.596 -16.7795 2.89575
107.619 -16.5697 2.89436
121.28 6.06902 2.75423
121.001 6.53977 2.74676
121.503 6.84381 2.76061
121.23 7.5672 2.75469
54.1636 15.3676 1.21284
54.3526 72.045 2.59725
54.2087 71.8914 2.59269
45.7883 25.8405 1.39799
45.2804 22.3634 1.30765
44.9154 19.9143 1.24435
44.6399 17.8312 1.1913
33.7518 20.8039 1.32157
-5.28464 17.7712 2.12696
18.3617 -10.35 1.4326
12.7314 -16.1514 1.65461
14.9899 -15.972 1.59352
39.8895 -17.1904 1.14693
67.2968 -19.5798 1.52829
71.1439 -19.6578 1.61368
106.867 -18.307 2.4653
106.938 -18.109 2.46487
106.961 -17.8992 2.46348
106.996 -17.6926 2.46307
107.032 -17.4862 2.46267
107.04 -17.3804 2.46148
107.056 -17.17 2.46009
107.137 -16.76 2.45928
107.881 -16.2839 2.47454
119.383 -17.9579 2.78126
120.698 5.33499 2.36822
121.225 7.51073 2.38079
89.2625 12.2164 1.71803
95.8528 17.4382 1.88085
54.4531 72.3238 2.25164
53.6798 71.9421 2.24226
53.5139 71.6269 2.23501
53.3932 72.4076 2.2508
46.0802 27.7659 1.30729
45.5559 24.2041 1.23211
45.1306 21.2877 1.1707
44.8026 19.06 1.12397
44.5383 17.2824 1.08638
33.7405 20.7717 1.20664
111.679 -19.1401 2.25781
121.446 5.60362 1.78283
121.141 5.82569 1.77882
121.493 7.49216 1.7835
95.8832 17.0495 1.44948
72.936 10.0382 1.12594
54.8115 72.7828 1.6904
54.397 71.7224 1.67575
54.0829 71.2389 1.66898
53.8099 70.9987 1.66573
53.6989 71.7965 1.67549
53.4839 71.9383 1.67751
53.2302 71.8227 1.67602
53.1659 72.1879 1.68046
45.8227 25.8264 1.05597
45.321 22.4422 1.01046
44.9217 19.7273 0.973664
44.6056 17.589 0.945764
1.11794 22.0694 1.4206
78.2582 -17.4431 1.26407
89.8782 -22.3658 1.45029
96.2695 -23.2583 1.53895
99.0541 -23.6533 1.57821
104.336 -24.4772 1.65213
116.175 -26.0994 1.81935
111.532 -19.3748 1.7164
111.696 -19.185 1.71787
113.313 -19.356 1.74017
120.734 7.18258 1.36997
121.131 7.35335 1.37318
104.737 11.0844 1.22892
106.81 21.3552 1.25754
54.1286 70.9433 1.28844
46.1167 28.0068 0.931822
45.7663 25.5322 0.911549
45.0275 20.0764 0.865927
44.9368 19.8914 0.86436
44.6647 18.0954 0.849812
44.4304 16.5399 0.8368
33.998 20.1176 0.894454
78.1883 -17.4265 1.06313
78.3089 -17.345 1.06384
99.5974 -20.7081 1.25643
110.211 9.28789 0.798286
106.775 21.0534 0.781106
69.9768 13.4765 0.723621
54.6968 71.8368 0.777184
54.2503 70.5635 0.775944
54.1573 70.7104 0.775804
53.8869 70.4759 0.775544
53.9135 72.1363 0.77763
53.6467 71.9487 0.778284
53.6231 73.3659 0.779854
53.3189 72.9418 0.779965
53.0867 72.9919 0.780164
52.9712 73.0224 0.780254
52.7358 73.0507 0.780495
52.1687 72.3773 0.779363
51.9293 72.3538 0.779699
45.9953 27.0768 0.721585
44.966 19.9947 0.713144
44.7516 18.4674 0.711059
44.4928 16.7757 0.709314
17.8208 -15.0889 0.826493
44.63 -12.276 0.734559
103.437 -24.4069 0.854109
113.163 -25.6454 0.874268
106.41 -18.321 0.842883
106.908 -16.4107 0.838955
108.277 -16.288 0.841053
119.362 -17.8559 0.866108
114.906 2.01365 0.47612
120.866 7.41506 0.449399
88.6514 14.818 0.522269
73.2975 10.2546 0.574117
72.1188 12.8041 0.571146
67.7009 11.2857 0.586228
54.1665 70.2798 0.431539
53.9187 70.1817 0.433015
53.7194 70.3913 0.431897
53.6048 70.4017 0.43202
53.4014 70.5906 0.431943
53.4004 72.1442 0.427248
53.0736 73.1784 0.423856
52.803 72.962 0.425565
52.5412 72.794 0.42618
52.4281 72.8394 0.42624
45.7703 25.8397 0.589009
45.4119 23.5479 0.597428
44.9107 19.8935 0.610388
44.6709 18.0793 0.616832
44.4078 16.2634 0.622307
34.1059 19.8602 0.621767
38.3648 -1.77116 0.683054
66.4784 -19.605 0.639341
83.9083 -21.2884 0.595774
78.4951 -17.1744 0.606308
108.976 -25.1303 0.533536
106.286 -17.833 0.531188
106.29 -17.6214 0.530816
106.273 -17.4037 0.531459
106.295 -17.1968 0.531074
106.333 -16.9935 0.530674
106.373 -16.897 0.530457
115.653 0.718979 0.0114453
115.096 4.94332 0.00680106
115.746 6.51595 -0.00272934
91.4724 10.0002 0.205151
78.8132 9.18993 0.320164
88.6386 14.6207 0.211626
88.8168 14.8483 0.209012
51.6263 -18.5879 0.549887
68.0792 -19.9888 0.436033
107.071 -24.6371 0.103028
108.349 -24.6249 0.0914305
107.86 -24.3394 0.0965381
99.9485 -20.3981 0.168452
113.836 -23.1842 0.0451661
115.712 -23.2463 0.0279609
112.96 -20.4065 0.0534255
113.285 -20.2548 0.050761
106.618 -18.2947 0.11058
107.133 -18.1035 0.105612
105.969 -17.3833 0.116799
105.979 -17.1743 0.116423
106.035 -16.9769 0.116012
107.41 -16.9833 0.103327
106.969 -16.4513 0.107948
107.222 -16.2954 0.105366
96.0328 3.83159 -0.147768
94.7365 5.3647 -0.13383
94.7135 5.52876 -0.134086
88.6519 14.7384 -0.0905949
46.5894 13.4114 0.431567
42.2245 -17.6849 0.487911
51.6929 -18.5635 0.431762
78.9694 -17.4433 0.108189
89.3673 -16.6867 -0.0389435
109.484 -15.9694 -0.33599
100.971 -5.29481 -0.613019
92.5474 4.07338 -0.447891
91.0279 4.75235 -0.417196
61.0268 14.6262 0.111658
56.8814 17.3557 0.130033
50.8422 50.7373 -0.532452
50.6413 51.0737 -0.539788
50.4913 51.2021 -0.541826
49.895 48.3641 -0.475166
50.3667 52.6654 -0.574212
44.4494 16.332 0.268136
35.986 17.9038 0.223843
83.0891 -20.0734 -0.271327
83.3798 -20.0499 -0.276726
106.557 -18.1737 -0.756557
96.0688 -14.8545 -0.518386
98.3803 -13.6623 -0.565305
92.6136 -6.65975 -0.686347
92.6611 -6.50468 -0.687675
92.7395 -6.35266 -0.690035
92.7905 -5.95877 -0.690782
92.7932 -5.79926 -0.691062
92.8397 -5.64409 -0.692389
92.8474 -5.48507 -0.692674
92.903 -5.32979 -0.694012
92.9416 -5.17283 -0.694332
92.9643 -5.0153 -0.695633
93.0728 -4.78185 -0.698172
92.9261 -3.89811 -0.694525
96.9246 -1.15367 -0.807217
75.1445 2.74782 -0.227135
70.3514 3.53078 -0.102584
70.9399 4.7658 -0.127453
57.1959 11.241 0.128256
57.1608 11.2927 0.128209
50.4566 53.5372 -0.879836
50.2681 53.4594 -0.876469
33.1537 15.7059 0.149149
77.9799 -17.3543 -0.347746
84.7824 -15.6008 -0.508176
86.0121 -15.7758 -0.541389
91.6909 -9.32381 -0.665587
85.4635 -5.56655 -0.748429
85.4858 -5.4321 -0.74869
85.533 -5.30011 -0.749978
85.5866 -5.23608 -0.752155
85.607 -5.10143 -0.752413
85.6453 -4.96756 -0.753693
85.6687 -4.8332 -0.753955
85.7121 -4.69883 -0.755242
85.7295 -4.56389 -0.756497
85.7939 -4.43058 -0.757808
85.8483 -4.2973 -0.760106
85.872 -4.2303 -0.760252
85.9075 -4.09514 -0.76153
85.9729 -3.96194 -0.763842
86.0335 -3.82725 -0.76615
86.058 -3.69101 -0.767417
86.43 -2.53102 -0.779889
86.6215 -2.46456 -0.78624
86.7536 -2.32791 -0.79164
86.8928 -2.18996 -0.796051
87.0302 -2.05082 -0.800462
87.1485 -1.91179 -0.804849
87.3272 -1.77072 -0.811314
87.4407 -1.62921 -0.8147
87.5602 -1.55865 -0.81897
87.7039 -1.41611 -0.824394
87.8579 -1.27158 -0.829835
88.042 -1.12702 -0.836313
88.1781 -0.980713 -0.840734
88.3132 -0.83431 -0.846155
88.4503 -0.687107 -0.850579
88.6266 -0.611111 -0.856929
88.6965 -0.463278 -0.859271
89.0591 -0.160528 -0.872244
89.2623 -0.0057981 -0.879763
89.3566 0.144645 -0.88314
89.4662 0.297591 -0.887541
89.5969 0.451454 -0.891969
89.7154 0.531174 -0.896253
91.0658 1.51591 -0.944627
91.4245 1.61706 -0.957245
87.9666 13.3466 -0.936337
79.2799 10.6061 -0.629871
50.6296 49.448 -1.07595
50.4132 50.1758 -1.09895
50.0534 48.9051 -1.0543
49.9793 48.9586 -1.0553
49.8619 49.2647 -1.06469
44.4571 16.6765 0.0545285
37.7823 15.2297 0.0962684
33.0667 15.8228 0.0270528
56.914 -19.0689 -0.0287989
73.7584 -15.0375 -0.423562
73.9103 -14.9852 -0.427841
82.5994 -12.0891 -0.677579
83.5947 -12.0028 -0.709956
84.52 -11.3246 -0.735274
84.5482 -11.1918 -0.735539
84.5951 -11.0627 -0.736821
84.5407 -10.9117 -0.734016
84.626 -10.7915 -0.73633
84.5331 -10.6335 -0.732489
84.9478 -8.92006 -0.738974
84.7644 -8.75218 -0.732039
84.6494 -8.66543 -0.728048
84.5628 -8.51516 -0.725202
84.5503 -8.37726 -0.724426
84.618 -8.25132 -0.725728
84.7193 -8.13172 -0.72906
84.7831 -8.00538 -0.730358
84.8122 -7.87361 -0.730623
84.8456 -7.80959 -0.731775
84.845 -7.67387 -0.73201
84.8453 -7.53825 -0.731246
84.8359 -7.40064 -0.730473
84.859 -7.26828 -0.730731
84.8941 -7.1371 -0.732002
84.8855 -7.00058 -0.731228
84.9646 -6.9421 -0.733427
85.0861 -6.82148 -0.737786
85.2146 -6.70055 -0.741155
85.3075 -6.57409 -0.744489
80.0396 -5.00191 -0.815723
80.0772 -4.88605 -0.81697
80.0929 -4.76802 -0.817194
80.1146 -4.65058 -0.817425
80.1253 -4.53206 -0.817643
80.1501 -4.47423 -0.818774
80.1319 -4.35384 -0.817961
80.1366 -4.23473 -0.818173
80.1284 -4.11534 -0.81737
80.1371 -3.99662 -0.818587
80.1398 -3.87831 -0.817796
80.1665 -3.76037 -0.819033
80.1614 -3.70057 -0.819131
80.184 -3.58323 -0.819362
80.1878 -3.46402 -0.819574
80.2145 -3.34609 -0.820812
80.2312 -3.22816 -0.822037
80.266 -3.11001 -0.823285
80.2698 -2.9908 -0.823496
80.2896 -2.93248 -0.824622
80.3077 -2.03891 -0.826195
80.4459 -1.92097 -0.83157
81.0977 -1.31524 -0.858425
81.1631 -1.25339 -0.861613
81.2737 -1.13069 -0.865962
81.4087 -1.00538 -0.871346
81.6778 -0.753675 -0.883114
81.8403 -0.625057 -0.889538
81.9765 -0.496863 -0.895928
82.2634 -0.299166 -0.907625
82.3827 -0.169297 -0.912998
82.4669 -0.0399592 -0.916326
82.5814 0.0913974 -0.921695
82.6758 0.222735 -0.926039
82.7823 0.354881 -0.9304
82.8614 0.423417 -0.933616
82.97 0.556359 -0.938981
83.2959 0.833596 -0.952864
83.4007 0.968925 -0.957228
83.4925 1.10454 -0.961576
83.5744 1.24114 -0.965915
83.6699 1.31307 -0.969157
83.7791 1.45199 -0.974533
83.935 1.59532 -0.980974
84.0656 1.73714 -0.987381
84.2329 1.88437 -0.994843
84.4488 2.03583 -1.00437
84.6193 2.18475 -1.01184
84.7691 2.26639 -1.01817
84.9306 2.4162 -1.02563
85.7091 3.04354 -1.05967
85.5735 3.1655 -1.05472
85.4408 3.28716 -1.05077
85.5494 3.36886 -1.05504
85.6343 3.5162 -1.0594
85.6868 3.66073 -1.06272
86.5417 10.1901 -1.1561
77.8731 9.78528 -0.819712
76.2743 9.50043 -0.755247
69.3819 13.1451 -0.565074
57.8865 11.2254 -0.138569
51.4011 13.46 -0.036451
50.629 50.2683 -1.44838
49.3444 48.8118 -1.38127
-31.1327 -11.5099 -2.06937
75.1808 -14.0141 -0.687093
77.8888 -11.2122 -0.761294
77.917 -11.1607 -0.762418
79.9014 -8.22698 -0.819956
79.8056 -8.08886 -0.816077
79.7383 -7.95659 -0.812224
79.7005 -7.83025 -0.810396
79.7033 -7.71095 -0.810607
79.7032 -7.65065 -0.809711
79.7268 -7.5344 -0.809942
79.7533 -7.41845 -0.811176
79.8086 -7.30636 -0.812439
79.8352 -7.19041 -0.813673
79.8648 -7.07376 -0.813912
79.8775 -6.95544 -0.814133
79.8496 -6.89238 -0.812208
79.8633 -6.77415 -0.81243
79.8433 -6.65158 -0.811618
79.8371 -6.53139 -0.810819
79.8339 -6.41149 -0.810023
79.8147 -6.29001 -0.80921
79.8472 -6.17465 -0.81045
79.8998 -6.12057 -0.812609
79.983 -6.01123 -0.814901
76.5274 -5.00322 -0.87939
76.4982 -4.8918 -0.878548
76.4089 -4.8297 -0.873545
76.4304 -4.7243 -0.874755
76.5013 -4.19069 -0.876768
77.2748 9.54969 -1.01157
61.2815 11.7824 -0.397722
59.8693 11.3213 -0.33318
57.9673 11.1298 -0.258503
48.0677 32.0942 -0.90968
50.3419 49.004 -1.70083
50.2269 49.3148 -1.71423
44.712 17.2236 -0.203736
44.6531 17.2385 -0.203689
44.5903 17.2226 -0.202584
-10.1789 -12.287 -1.61985
-9.97163 -12.416 -1.61189
-9.72014 -12.5353 -1.60299
-9.50756 -12.6618 -1.59403
61.07 -19.1382 -0.446803
61.1397 -19.0938 -0.447966
61.2113 -19.0507 -0.449129
61.2746 -18.9997 -0.449296
61.2888 -18.9579 -0.448386
63.0711 -17.7526 -0.479675
73.2755 -3.72387 -0.906601
73.2664 -3.67373 -0.906677
73.2829 -3.57789 -0.906864
73.2845 -3.48058 -0.907035
73.2871 -3.38336 -0.907207
73.2847 -3.28565 -0.906373
73.2792 -3.18864 -0.906535
73.2498 -3.09025 -0.904669
73.2636 -3.04238 -0.905769
73.2641 -2.94497 -0.905939
73.2857 -2.84862 -0.906133
73.2683 -2.75043 -0.905282
73.2858 -2.65469 -0.906469
73.2965 -2.55727 -0.907652
73.6085 -0.947196 -0.92583
73.712 -0.845903 -0.932134
73.8034 -0.744421 -0.936423
73.908 -0.642231 -0.942729
73.9935 -0.539162 -0.947013
74.0497 -0.438211 -0.950258
76.2384 2.43803 -1.07995
77.0435 3.31393 -1.12846
75.2822 8.44533 -1.10519
75.1435 8.51534 -1.09914
75.2256 8.65492 -1.10549
75.2081 8.76217 -1.10665
75.1803 8.86741 -1.1078
75.1581 8.91684 -1.10686
75.1229 9.0188 -1.10699
57.9583 11.0902 -0.372424
50.7115 50.4077 -2.07072
50.3923 50.5127 -2.07251
50.1421 50.5233 -2.07122
49.859 49.7234 -2.02748
44.7061 17.2059 -0.312698
44.6423 17.181 -0.310576
37.7424 17.1573 -0.323028
-15.6462 -6.61106 -2.16297
44.7852 -12.3356 0.15147
71.1015 -10.2193 -0.841649
73.0483 6.92175 -1.1728
72.5025 8.00678 -1.16201
72.4799 8.10348 -1.16315
50.4052 49.3864 -2.34357
50.7147 52.4666 -2.5243
44.676 17.1674 -0.431594
43.8528 14.4214 -0.265814
-9.3177 13.8128 -2.33521
44.7867 -12.3299 0.0824581
68.5174 -6.83239 -0.847341
70.4123 -6.70252 -0.953902
70.4122 -6.61207 -0.953059
70.4881 7.00521 -1.18878
70.4442 7.03969 -1.18679
70.4542 7.1402 -1.18998
70.408 7.22214 -1.18906
70.4211 7.32335 -1.19125
70.3812 7.40768 -1.19135
70.3787 7.5044 -1.19252
59.0605 11.1836 -0.666945
58.2854 10.9871 -0.620648
58.0387 10.8698 -0.603141
57.9043 11.0449 -0.603279
51.1968 53.4633 -2.88363
50.8068 53.2386 -2.86575
49.7641 51.4327 -2.74133
48.5507 44.8008 -2.31133
44.6559 17.3009 -0.540801
-3.6805 11.6263 -2.25337
0.27734 -7.67856 -1.88774
59.4891 -13.9175 -0.617914
59.5125 -13.7319 -0.612265
66.4137 -2.70147 -1.00192
68.2249 6.53668 -1.23218
68.1874 6.61475 -1.23127
68.129 6.68484 -1.22932
49.188 39.9384 -2.30568
49.0578 39.9633 -2.30556
48.3607 40.2403 -2.31718
48.2326 40.2861 -2.3191
44.6503 17.2148 -0.668645
44.6315 17.3091 -0.674786
44.5616 17.2225 -0.668549
30.3938 18.0279 -0.930481
30.2832 18.068 -0.936414
30.2263 18.0917 -0.939385
30.146 18.0826 -0.94227
13.4306 20.8632 -1.85149
51.9789 -11.8775 -0.274195
62.275 -12.1235 -0.869463
66.8257 6.19775 -1.25787
66.7139 6.246 -1.25081
57.7144 5.90661 -0.614128
57.7185 5.9685 -0.616241
57.7238 6.03229 -0.619358
48.3882 36.9426 -2.27949
44.7162 17.2824 -0.767844
44.6564 17.2873 -0.767779
44.6094 17.4015 -0.775919
31.7235 16.0696 -0.867722
31.4851 16.2097 -0.885671
31.2684 16.1829 -0.892357
50.9475 -17.3723 -0.617389
63.4616 -3.78515 -1.0414
63.4881 -3.72045 -1.04354
63.6344 0.449379 -1.06396
57.5342 5.84287 -0.710795
31.6394 15.9219 -0.997362
59.5107 -11.6652 -0.91185
63.378 -5.01591 -1.04516
63.3687 -4.94766 -1.04326
63.3753 -4.88098 -1.04339
63.3631 -4.81144 -1.04149
63.3565 -4.77662 -1.04055
63.3422 -4.70787 -1.03865
63.3507 -4.64239 -1.03877
63.3345 -4.57245 -1.03687
63.347 -4.50737 -1.038
63.3456 -4.4399 -1.03712
63.3501 -4.37403 -1.03624
63.3346 -4.33832 -1.03528
63.3391 -4.27244 -1.0354
63.3347 -4.20468 -1.03451
63.3323 -4.13812 -1.03362
63.3616 -4.0747 -1.03577
63.3731 -4.00952 -1.0359
63.4075 -3.9466 -1.03805
63.4148 -3.91316 -1.03812
63.4402 -3.84935 -1.04026
58.1936 10.8566 -1.09931
31.6248 15.9985 -1.12248
49.9825 -15.8912 -0.686769
51.7564 -14.9131 -0.699654
53.2157 -13.2155 -0.670398
53.3069 -13.2386 -0.677471
62.9618 5.81209 -1.37344
57.6379 5.76591 -0.91479
58.5733 11.1001 -1.2612
58.1644 10.8573 -1.21728
58.124 10.9055 -1.21731
56.1037 -11.2227 -0.959418
57.1789 9.9778 -1.32953
57.1293 10.0149 -1.32754
57.0785 10.049 -1.32553
57.279 10.2482 -1.35513
48.8203 5.96602 -0.390265
37.349 13.3301 -0.999903
37.2919 13.3428 -1.00286
56.5015 9.50917 -1.35989
56.4699 9.55551 -1.36093
56.4144 9.58411 -1.35791
51.8486 13.1832 -1.31853
22.2504 2.28398 -1.58212
55.7769 8.8895 -1.35692
55.7319 8.92209 -1.35592
49.5631 13.6364 -1.34349
49.4628 13.4856 -1.32211
48.4451 16.1312 -1.56945
48.3858 16.1411 -1.56739
44.2322 -14.2794 -0.786477
55.2482 8.4715 -1.37154
55.0958 8.41426 -1.35225
55.1826 8.55034 -1.3716
50.0832 12.9116 -1.38888
50.0311 12.9228 -1.38683
47.3216 12.1653 -1.16318
56.3629 3.24257 -1.24484
56.3732 3.29581 -1.24895
56.3668 3.34266 -1.25002
56.3709 3.39451 -1.25311
56.3624 3.44056 -1.25418
54.7986 8.10196 -1.38034
54.74 8.11882 -1.3753
54.7259 8.1393 -1.37532
53.3514 -9.38289 -1.03222
54.2334 7.6303 -1.38983
54.2116 7.67365 -1.39088
54.1668 7.69819 -1.38787
54.1493 7.74513 -1.39093
54.11 7.744 -1.38587
47.5437 12.0254 -1.33521
47.4838 11.9992 -1.32809
47.3669 12.2187 -1.35133
43.7676 8.08025 -0.678706
43.0022 8.29663 -0.696138
47.3787 11.9331 -1.41385
47.0484 10.992 -1.42881
52.7134 1.9337 -1.15507
46.9161 9.1059 -1.40237
46.8864 9.13094 -1.40438
46.8475 9.13379 -1.40233
46.8164 9.15395 -1.40333
46.788 9.18188 -1.40634
46.7477 9.18085 -1.40329
46.1417 8.79463 -1.40387
44.8588 6.8349 -1.14189
44.3708 7.89857 -1.43614
37.3583 -6.13386 -1.26114
41.4393 -0.242966 -0.13739
41.3687 -0.214925 -0.163352
41.5962 -0.517551 -0.034107
41.6444 -0.477144 -0.0582366
41.6839 -0.555344 -0.0191495
41.6798 -0.555947 -0.0201435
41.5965 -0.473463 -0.087184
41.614 -0.509335 -0.0691434
41.6015 -0.49404 -0.0781544
41.5701 -0.455804 -0.101182
41.5386 -0.417566 -0.12321
41.4993 -0.368501 -0.151246
41.4871 -0.359272 -0.158247
41.5065 -0.397329 -0.139205
41.5013 -0.398828 -0.140196
41.5124 -0.418997 -0.129175
41.4209 -0.296526 -0.199275
41.5234 -0.551633 -0.0769583
41.5353 -0.625102 -0.0468453
41.4012 -0.466299 -0.140956
43.8468 -3.0158 -0.307547
43.7645 -2.9342 -0.253587
43.7552 -2.91718 -0.245605
43.6719 -2.83548 -0.191644
1.80761e-39 0 2.24286e-40
