ply
format ascii 1.0
element vertex 410
property float x
property float y
property float z
end_header
164.41 -8.03135 4.03992
162.518 -6.41821 3.95344
143.183 -1.60861 3.23368
150.457 0.0174804 3.46622
136.81 7.31576 2.95265
136.688 7.45855 2.94869
141.905 20.5932 3.10034
141.887 20.806 3.09951
141.847 21.0097 3.09878
105.194 17.6742 2.05534
105.121 17.6665 2.0534
105.021 17.7032 2.05186
104.901 17.7163 2.04962
91.0584 59.6336 2.66766
79.4331 47.0554 2.40001
79.2534 47.1338 2.40186
79.0745 47.2031 2.40384
78.7638 46.8911 2.39881
78.4205 46.885 2.3997
78.5378 45.1378 2.36394
80.9827 23.234 1.91093
65.7307 13.7433 1.9453
55.7252 15.2754 2.20436
28.3438 17.9565 3.00045
27.1419 18.2756 3.03655
29.1964 15.7237 2.97356
28.9881 14.5928 2.98145
17.7658 15.2879 3.32995
18.6617 14.528 3.30453
15.7498 13.2299 3.40113
25.1363 -8.50913 3.27886
19.8213 -9.65497 3.4711
21.0748 -11.0048 3.44971
20.9485 -11.6149 3.46374
18.3486 -12.0092 3.55652
25.2492 -12.1521 3.32927
52.8359 -12.1736 2.41899
26.7774 -18.9822 3.40277
43.9064 -16.6613 2.79955
29.4461 -20.2503 3.34309
29.4784 -20.4257 3.34544
54.0992 -14.5641 2.42543
54.5228 -14.6606 2.41394
44.637 -18.4991 2.81635
23.4504 -24.9716 3.6394
9.5398 -29.9421 4.19658
26.686 -25.1165 3.53913
27.0775 -25.5902 3.53864
27.1608 -25.7628 3.53998
43.9731 -20.6456 2.88747
44.1013 -20.7449 2.88486
44.0969 -20.8877 2.88875
25.9883 -27.7864 3.62518
52.7006 -18.5713 2.56282
52.7687 -18.6599 2.56304
53.1343 -18.8642 2.55595
42.9498 -24.8816 3.02612
55.3568 -20.1223 2.5209
55.2258 -20.569 2.53675
55.1965 -20.6951 2.54141
48.5695 -26.0179 2.88934
44.2694 -28.3607 3.08303
54.0414 -23.9443 2.66789
47.8098 -27.4627 2.95309
48.8421 -27.037 2.91102
48.7618 -27.2294 2.91853
20.5982 -50.0127 4.42215
54.0586 -27.6969 2.7837
67.6676 -19.6992 2.15317
67.7583 -21.0898 2.19868
129.555 -68.3031 4.68916
130.058 -68.5803 4.71112
130.551 -68.6379 4.72416
129.746 -66.0038 4.60074
129.644 -65.4891 4.57786
129.784 -65.2922 4.57332
129.926 -65.2852 4.57631
129.958 -64.9505 4.56288
129.895 -61.1051 4.40981
156.43 -32.3893 4.23467
147.082 -21.4315 3.67696
147.08 -21.2252 3.67222
147.111 -21.0256 3.66959
147.133 -20.8247 3.66593
147.077 -20.6066 3.66001
164.336 -8.14661 3.53336
157.369 -4.62257 3.29166
149.841 18.2253 2.90621
141.631 20.3706 2.69011
141.604 20.5776 2.68835
141.567 20.782 2.68761
88.8993 64.3643 2.30364
78.7584 44.3972 2.01886
78.5933 44.4089 2.01962
19.9442 -10.8995 3.07564
27.75 -19.279 3.00922
28.2541 -19.3568 2.99654
19.0725 -21.4563 3.27826
27.9977 -19.6915 3.00984
40.7231 -19.7287 2.67946
9.17225 -29.3037 3.69486
26.4508 -27.6543 3.21665
132.934 -48.1848 3.599
142.854 -56.3019 4.06433
132.282 -45.4833 3.50078
160.087 -30.6349 3.81041
145.444 -21.4411 3.22512
145.475 -21.2466 3.22256
145.486 -21.0482 3.21893
145.497 -20.8487 3.21529
145.469 -20.7428 3.21187
145.497 -20.5476 3.2093
145.517 -20.3515 3.20571
141.654 20.5372 2.39188
141.468 20.6689 2.38703
83.8766 66.6433 1.98254
83.6442 66.6647 1.98213
81.3628 46.715 1.79355
81.1939 46.707 1.79357
81.0581 47.4905 1.80109
49.7492 -13.1624 2.14735
60.2626 -21.5627 2.10473
134.202 -38.1513 3.05552
137.071 -38.0252 3.10947
152.241 -31.0844 3.27391
145.14 -20.4285 2.90549
156.849 -4.29091 2.38489
150.786 16.9396 2.07073
150.371 17.0225 2.0644
155.469 23.5393 2.08979
141.354 20.575 1.90717
95.4604 15.4829 1.36888
95.576 15.9068 1.37032
95.429 15.7845 1.36886
87.9756 61.996 1.41847
84.2543 47.2279 1.38634
83.2206 66.7092 1.42425
78.7965 45.416 1.38431
78.7101 45.4406 1.38494
78.5904 45.0233 1.38441
151.553 -21.879 2.55831
149.952 -21.2024 2.52243
141.496 20.8766 1.58222
84.1258 66.6183 1.04693
84.0098 66.6613 1.0473
81.5776 44.7149 1.11615
79.813 47.0827 1.10874
79.6478 47.0155 1.10854
78.7482 45.0829 1.11568
132.863 -28.4669 2.12518
149.829 -22.0235 2.19223
161.027 -20.0832 2.27979
141.624 20.6554 1.14419
94.6884 11.7652 1.10276
95.4518 14.2183 1.07863
95.7611 15.7912 1.06293
81.0691 43.0578 0.770828
78.673 44.5687 0.755431
78.7863 8.6506 1.12114
24.1286 -8.5639 1.45586
21.4055 -18.3679 1.59644
117.946 -22.5841 1.62068
158.957 -32.2716 1.90332
147.069 -21.5556 1.70942
160.913 -20.1447 1.74049
153.034 22.3373 0.812258
144.356 21.5481 0.830851
116.582 8.46924 1.0358
99.0507 11.9298 0.998016
95.5821 14.1738 0.966286
95.5057 14.1909 0.966017
95.3509 14.3011 0.964467
86.5824 62.3479 0.251911
84.851 66.7279 0.185811
84.6198 69.8514 0.13923
81.6972 38.084 0.608167
81.5582 38.0303 0.608802
38.1985 -7.07223 1.18196
113.139 -25.4644 1.48719
118.223 -23.1102 1.45381
118.134 -22.6811 1.44806
118.158 -22.5644 1.44653
144.798 -20.6114 1.39759
144.826 -20.4195 1.39506
144.82 -20.3185 1.39372
144.836 -20.1238 1.39114
157.576 -19.7761 1.37469
163.243 -5.75139 0.685714
86.7564 66.1868 -0.269978
80.2461 17.8089 0.747405
118.28 -22.7599 1.21317
118.852 -22.8948 1.21028
118.967 -22.8174 1.20932
158.42 -32.132 1.03809
159.709 -32.3066 1.03113
144.465 -21.1838 1.01496
144.331 -20.9534 1.01283
144.3 -20.7489 1.0111
144.302 -20.5522 1.00849
144.32 -20.3598 1.00595
144.38 -20.1754 1.00353
144.487 -20.101 1.00261
144.52 -19.9107 1.0001
157.495 -19.8343 0.905376
163.95 -6.41427 0.201865
162.746 -6.18011 0.215082
160.239 -5.73486 0.242766
146.668 -2.17242 0.374873
153.242 -0.66932 0.265616
145.394 4.34518 0.293664
85.8061 61.9311 -0.60507
81.5688 45.1582 -0.150844
81.3969 45.2698 -0.153422
81.3053 30.3234 0.253896
118.052 -22.9028 0.988917
118.058 -22.7773 0.987256
118.101 -22.733 0.986691
153.422 -26.6938 0.574078
158.549 -26.0306 0.501154
157.821 -25.7225 0.507657
145.367 -21.3482 0.626619
144.103 -20.9537 0.639674
144.077 -20.7511 0.63797
144.729 -19.8105 0.619854
144.816 -19.631 0.616521
139.524 8.47607 -0.0954869
139.508 8.65822 -0.0979133
132.441 -28.1802 0.488995
134.792 -23.0776 0.413601
144.583 -22.2208 0.21572
137.859 -14.0664 -0.00128592
138.445 -11.8313 -0.0386184
138.475 -11.663 -0.0418358
138.425 -11.4891 -0.042171
141.749 -3.75157 -0.227992
107.905 10.2415 0.302338
89.9562 39.9144 -0.577581
83.1043 67.0624 -1.64277
83.0078 46.6859 -0.840367
8.18694 -14.4322 -0.66842
99.941 -20.0713 0.935153
100.359 -20.1285 0.926148
100.408 -20.085 0.925598
119.606 -23.1086 0.506479
129.035 -24.9278 0.290903
136.111 -19.1959 0.0868057
136.13 -18.349 0.0805772
137.079 -17.01 0.0453402
130.439 -13.564 -0.0931336
130.576 -13.4362 -0.0987527
130.638 -12.342 -0.110238
130.666 -12.1986 -0.113127
130.702 -12.0562 -0.114996
130.767 -11.9898 -0.11784
130.78 -11.8442 -0.119766
130.848 -11.7046 -0.12358
130.856 -11.5582 -0.125518
130.884 -11.4147 -0.127406
130.927 -11.2714 -0.130284
130.952 -11.1275 -0.133181
130.97 -11.0554 -0.134127
130.978 -10.909 -0.136065
131.032 -10.7663 -0.138929
131.065 -10.6225 -0.141818
131.078 -10.4769 -0.143744
131.122 -10.3327 -0.146632
131.152 -10.1875 -0.149542
131.178 -10.1166 -0.150469
131.197 -9.96983 -0.153406
131.441 -8.87864 -0.17375
131.596 -8.73633 -0.180552
131.733 -8.59343 -0.186372
131.805 -8.44732 -0.19027
131.927 -8.30129 -0.19614
132.576 -7.48874 -0.22656
132.671 -7.33885 -0.231496
132.801 -7.26367 -0.236421
98.852 10.6784 0.319451
69.0437 14.0792 0.146544
99.9621 -20.1446 0.814127
119.588 -24.7347 0.277027
119.57 -23.1024 0.278357
126.676 -20.1313 0.06391
126.695 -19.9926 0.0630799
126.696 -19.7765 0.0622128
126.741 -19.6456 0.0605011
127.561 -15.2377 0.0094664
126.053 -6.23733 -0.309842
126.109 -6.10607 -0.314552
126.142 -6.04008 -0.31641
126.703 -4.49979 -0.360537
126.749 -4.36398 -0.364313
126.975 -4.14814 -0.377051
128.326 -2.87655 -0.449172
128.3 -2.74047 -0.449992
106.124 3.20097 0.231756
107.108 8.84402 0.0134085
106.145 10.7482 -0.0274045
98.2227 14.9478 -0.00758457
90.8319 41.0174 -1.22978
85.0558 66.6088 -2.54373
82.8436 67.0251 -2.5675
81.8914 29.4393 -0.62312
5.03412 -12.0134 -1.77439
120.038 -19.6025 0.0141549
119.987 -19.4597 0.0152316
120.006 -19.3413 0.0146699
119.999 -19.2149 0.0149899
119.961 -19.1398 0.0159715
119.959 -19.0152 0.0163167
119.987 -18.9009 0.0148163
120.117 -18.6965 0.0101763
120.189 -18.5968 0.00789299
120.317 -18.5142 0.00286948
120.539 -18.4604 -0.0057205
120.395 -18.3527 -0.000230532
120.398 -18.2298 -0.000859873
82.3935 32.59 -1.02068
115.939 -19.204 -0.0394436
117.09 -6.21739 -0.35015
117.168 -6.11345 -0.355486
117.216 -6.06079 -0.358159
117.283 -5.95528 -0.363522
109.826 9.61655 -0.452355
89.187 12.1592 0.0283398
83.4673 39.8548 -1.70754
23.5929 9.82956 -2.16083
25.6064 -6.59978 -1.72365
25.6802 -7.52561 -1.70732
109.053 -22.2427 0.0470138
109.113 -22.1746 0.0451442
114.872 -17.2445 -0.175058
114.882 -17.1954 -0.175703
114.792 -17.0602 -0.170548
114.327 -16.8039 -0.148207
115.297 -16.1147 -0.193812
89.2287 12.0324 -0.0899649
111.742 -9.36482 -0.364394
111.737 -9.32169 -0.36497
111.721 -9.23439 -0.364137
112.629 0.0608238 -0.59499
110.507 -1.50314 -0.610432
96.2313 0.164631 0.239483
87.0296 66.0704 -4.73767
86.915 66.0959 -4.73908
108.398 0.344918 -0.651145
84.5698 65.3729 -5.03483
81.2997 25.4461 -1.57255
56.3566 10.8401 -1.44575
84.6316 60.5945 -5.06339
85.3838 54.8606 -4.88286
85.1893 54.927 -4.88885
84.2868 43.302 -3.734
84.2071 43.3235 -3.73633
81.2599 40.058 -3.42363
95.5513 -20.9577 -0.0536401
85.4634 50.5026 -4.79198
85.2815 50.446 -4.78633
84.6367 44.2446 -4.13335
81.4386 40.0105 -3.69892
84.8218 45.4032 -4.58866
84.1101 42.2276 -4.23489
70.8749 4.25792 -0.635171
91.8778 -21.1688 -0.0899077
82.4919 34.4783 -3.63191
80.9715 22.5019 -2.23972
81.9549 31.8645 -3.58453
82.4573 35.7694 -4.33013
95.0956 -16.7381 -0.342914
89.1859 34.5569 -4.64828
89.0546 34.5707 -4.64854
88.9268 34.6163 -4.65322
88.8633 34.6386 -4.65555
88.7337 34.6714 -4.65906
88.6035 34.7002 -4.66151
88.4738 34.733 -4.66402
88.3432 34.7588 -4.66644
88.2172 34.8314 -4.67547
88.0863 34.8623 -4.67796
88.023 34.8926 -4.68239
87.8901 34.8956 -4.68151
87.7564 34.8866 -4.67846
87.6253 34.9095 -4.68084
87.4938 34.9294 -4.68218
80.5497 18.7338 -2.42298
80.9815 12.2888 -1.51413
80.962 12.0556 -1.48204
96.5011 -0.861806 -0.711828
96.4983 -0.839191 -0.71313
75.5868 5.81993 -1.13829
84.0651 7.40618 -1.04756
89.8424 -15.8663 -0.402443
87.7675 -15.5558 -0.432733
87.1108 -7.03259 0.169852
87.0142 -7.96346 0.16515
119.552 -11.2845 -14.3838
83.6219 -8.12215 0.587385
125.166 -20.5467 -17.582
125.394 -20.5505 -17.6788
125.193 -20.3433 -17.5687
83.5749 -5.50624 0.302621
83.3571 -8.43522 0.389373
83.616 -8.17834 0.552124
83.6195 -8.18187 0.552173
83.4123 -8.44499 0.403534
85.8785 -8.28271 0.409769
85.8783 -8.36916 0.364912
85.8803 -8.36234 0.366823
85.7917 -8.26798 0.425526
-1.923 8.651 1.15033e-41
