ply
format ascii 1.0
element vertex 655
property float x
property float y
property float z
end_header
149.376 -4.86382 3.958
149.45 -4.61285 3.96034
134.294 -2.26562 3.3984
147.563 1.49695 3.879
139.089 4.41735 3.571
138.776 4.5954 3.5595
133.571 6.22734 3.37417
97.0483 12.9119 2.16188
92.0829 25.2087 2.27258
92.0246 25.3284 2.274
92.4449 32.6913 2.46489
92.3244 32.7584 2.46432
90.4988 29.9368 2.35585
89.8739 29.1223 2.32188
90.3034 29.9824 2.35314
90.2488 30.142 2.35544
90.0916 30.1245 2.35205
89.8489 29.9567 2.34294
55.4957 15.2395 1.77335
55.3812 15.2653 1.77594
55.2794 15.2741 1.77762
55.1647 15.2979 1.78022
55.0634 15.3035 1.78191
56.9819 12.5508 1.6828
53.4882 15.5069 1.81476
53.1745 15.5668 1.82166
52.9476 13.9464 1.78959
52.7803 13.894 1.7913
52.7635 13.7924 1.7896
52.7691 13.7269 1.78784
42.3326 16.4359 2.07201
41.3065 16.5238 2.09781
41.0185 16.6002 2.10573
40.8424 16.6612 2.11102
40.6313 16.6758 2.11638
40.4648 16.6567 2.11997
40.2552 16.668 2.12534
39.7908 16.7196 2.13785
39.6071 16.7079 2.14237
36.6074 18.4692 2.24483
35.9972 17.2636 2.24125
34.9117 15.9868 2.25057
33.3997 16.3537 2.29503
25.7125 18.9409 2.5344
25.5861 18.829 2.53643
28.4777 15.2988 2.41474
16.4477 20.0704 2.80132
27.9795 14.4942 2.42009
27.9093 14.366 2.42034
28.0264 13.4424 2.40684
3.96066 21.6223 3.16867
18.5227 15.5486 2.69673
18.0068 15.5663 2.71221
17.0583 13.9532 2.72507
16.3828 13.1594 2.73889
8.67189 13.9744 2.97028
8.22912 13.7934 2.98265
1.79999 13.5555 3.17228
19.2583 -11.0244 2.64313
19.3412 -11.3366 2.64344
-4.82835 -16.5194 3.4259
-4.77823 -16.7511 3.42684
18.7134 -14.2918 2.68782
18.782 -14.4453 2.68654
18.7706 -14.6134 2.68909
3.41675 -17.7186 3.18534
5.37586 -19.137 3.14075
27.7903 -19.2067 2.47338
47.849 -13.4447 1.80631
42.8428 -17.5168 2.01615
43.7053 -17.7709 1.99646
35.4079 -24.9525 2.35967
42.3047 -22.3727 2.12531
42.3434 -22.4682 2.12675
5.63658 -46.7934 3.59555
48.1229 -19.5244 1.91498
48.061 -19.665 1.91929
50.4182 -18.2554 1.82811
50.5793 -18.1899 1.82334
12.0934 -55.1617 3.63857
12.8418 -54.8252 3.61253
13.8391 -54.2653 3.57542
14.0642 -54.3779 3.57345
19.353 -49.8367 3.3368
14.2723 -54.6629 3.57602
44.2814 -27.982 2.21118
44.3769 -28.0404 2.21065
48.48 -26.7105 2.08669
59.3433 -19.7302 1.67542
59.3215 -19.8594 1.6798
59.488 -19.722 1.6728
26.2044 -67.3496 3.70737
54.063 -27.9841 2.01985
54.546 -27.5826 1.99884
54.6143 -27.6339 1.99921
132.204 -52.4338 4.03291
141.386 -38.387 4.03061
142.298 -38.5349 4.0637
142.129 -38.0445 4.04953
142.542 -37.9571 4.0624
138.192 -22.8934 3.68832
132.126 -20.8935 3.44829
132.132 -20.6862 3.44659
132.161 -20.4853 3.44499
132.135 -20.1684 3.44082
132.148 -19.9641 3.43816
132.181 -19.7647 3.43757
132.193 -19.5614 3.4359
132.18 -19.3524 3.43315
149.726 -5.47616 3.46608
149.038 -5.22328 3.44427
149.677 -3.59442 3.45848
148.077 -2.88441 3.40851
146.026 -2.70098 3.34508
148.999 1.50765 3.42802
111.497 39.5536 2.68419
118.533 52.9977 3.06289
99.16 35.0181 2.35288
90.7543 30.0544 2.10416
90.6166 30.0735 2.10271
89.7914 28.9243 2.06532
90.2874 30.0194 2.09596
90.1759 29.9548 2.09287
90.1156 30.103 2.09419
89.8922 29.9708 2.08801
15.905 16.2748 2.41082
3.48499 -17.6207 2.75419
20.5332 -49.7999 2.887
48.3995 -25.7142 1.87203
133.31 -43.326 3.39173
141.569 -38.593 3.53783
142.071 -38.5519 3.55111
142.028 -38.2555 3.54597
131.112 -30.2492 3.12457
138.241 -30.2141 3.32662
130.347 -21.1288 2.99006
130.362 -20.9289 2.98842
130.375 -20.7287 2.98677
130.389 -20.5298 2.98512
130.428 -20.3373 2.98457
130.442 -20.1383 2.98293
130.466 -19.9417 2.98232
130.449 -19.8371 2.97991
130.485 -19.6443 2.97935
130.488 -19.4437 2.97767
142.635 -19.6967 3.3409
149.674 -5.03112 3.0874
130.949 6.92144 2.59336
98.1139 12.8384 1.82315
98.0137 12.8995 1.82165
116.737 57.0379 2.73392
116.471 57.0908 2.73099
97.5341 35.4432 2.09882
89.4142 26.4552 1.83474
90.3591 29.2868 1.89368
89.9632 28.8644 1.88101
145.587 -30.1754 3.16126
145.326 -29.8251 3.15132
130.235 -20.8518 2.69079
130.247 -20.7534 2.68949
130.226 -20.5452 2.68771
120.017 6.16273 1.92804
96.3755 11.8105 1.53776
92.0062 9.18985 1.45641
110.732 39.7305 1.92641
99.0054 31.8271 1.71341
94.3761 30.6955 1.6482
89.5777 26.1769 1.55316
89.31 25.9693 1.54811
91.6403 31.0405 1.62128
144.532 -30.1378 2.53914
145.691 -29.9983 2.55794
145.674 -29.7282 2.55496
136.454 -21.7338 2.33341
136.631 -21.5554 2.3353
140.682 -21.8515 2.40877
131.207 -19.0909 2.22248
131.406 -18.9329 2.2245
135.015 -19.1048 2.2893
140.763 -14.0154 1.99607
97.2005 30.6765 1.45125
98.1254 35.1874 1.48037
98.1021 36.2479 1.48565
91.6402 -19.0477 1.41342
105.948 -24.4748 1.62554
136.466 -21.7184 1.98139
97.9161 12.0275 1.16537
97.7647 12.0566 1.16484
120.126 50.1073 1.22931
94.5326 26.2439 1.12894
96.2986 31.4426 1.13307
96.6313 32.145 1.13359
92.4068 26.7113 1.11932
92.4149 26.9334 1.11858
92.2344 26.7839 1.11758
94.1763 29.7701 1.12481
95.8848 32.4589 1.1304
95.7942 32.5792 1.12973
94.2285 30.7943 1.12344
91.1317 26.4635 1.11356
144.678 -30.2377 1.58889
132.134 -21.5253 1.47746
132.157 -21.3214 1.47683
134.827 -20.9344 1.49105
135.017 -20.8721 1.49138
129.728 -19.3861 1.45431
131.388 -18.969 1.46257
145.886 -19.5138 1.55045
102.655 9.99354 1.02676
114.674 44.3301 0.894742
114.892 44.7268 0.892997
96.1884 30.0018 0.927703
99.0191 36.0084 0.904066
92.4178 26.9284 0.934601
92.3793 27.0876 0.933945
92.2861 27.1689 0.933402
92.2192 27.1817 0.933169
91.0021 25.8402 0.936337
98.1235 36.5199 0.900775
96.3566 34.1873 0.907794
91.0696 26.5741 0.933006
91.546 -18.952 1.11082
111.179 -21.4489 1.14593
129.816 -20.9884 1.16906
129.924 -20.8151 1.16877
129.91 -20.71 1.16837
129.919 -20.5112 1.16771
129.939 -20.315 1.16709
129.949 -20.1164 1.16644
129.947 -19.916 1.16675
129.945 -19.7147 1.16605
129.987 -19.4246 1.16517
129.952 -19.2174 1.16436
107.686 10.3107 0.772896
98.1708 12.5329 0.797346
99.6246 13.5631 0.783917
120.269 49.3524 0.411302
119.645 49.3615 0.412505
99.7136 36.655 0.577805
98.597 35.3656 0.592078
98.4924 35.4869 0.591365
98.4888 35.7532 0.58844
92.2173 27.0518 0.684608
94.0452 29.9 0.653989
90.7132 25.4056 0.704011
90.6315 25.4902 0.703489
96.3253 34.0969 0.608013
92.8134 30.9475 0.644904
89.5782 26.1055 0.698396
75.5605 12.2918 0.853225
111 -21.7744 0.864541
111.169 -21.3908 0.862701
143.535 -27.4585 0.718096
129.412 -20.5284 0.777332
129.38 -20.4207 0.776872
129.37 -20.2191 0.776151
129.4 -20.0274 0.776577
129.415 -19.8326 0.77595
129.454 -19.6432 0.775409
129.503 -19.4564 0.774907
129.597 -19.281 0.773568
129.931 -19.261 0.772445
130.292 -19.1459 0.770071
145.893 -19.5478 0.694575
149.166 -4.21302 0.149124
148.686 2.99345 0.124
110.086 9.63069 0.503018
98.4078 12.4968 0.591138
111.089 44.1305 0.0882816
110.892 44.2107 0.0884503
97.7297 30.2889 0.36707
98.8832 31.9903 0.335485
96.4975 29.9541 0.378736
94.7593 29.3232 0.397988
102.026 39.9409 0.201048
99.5252 36.7209 0.262042
95.1672 30.7068 0.374386
95.0327 30.7547 0.374841
94.2224 29.8339 0.392714
94.07 29.8491 0.393231
91.9877 27.2806 0.442169
90.5195 25.3401 0.478686
90.5002 25.4157 0.478372
96.2215 34.1203 0.318636
75.5806 12.2814 0.741316
65.9205 16.9529 0.640938
65.8467 16.9667 0.639682
65.7647 17.021 0.638263
61.639 -5.00455 0.902295
91.8458 -18.8997 0.785484
122.207 -26.8717 0.467752
111.228 -21.4668 0.589125
111.279 -21.3359 0.58882
129.16 -26.7584 0.397028
132.206 -25.8926 0.366666
133.137 -25.7626 0.356854
134.108 -25.8565 0.345922
127.051 -22.4865 0.423381
129.114 -22.7094 0.400983
130.015 -21.1399 0.392137
130.314 -20.8137 0.388861
129.176 -20.3173 0.401936
129.179 -20.1197 0.401267
129.083 -19.9966 0.402571
129.212 -19.8303 0.401363
130.205 -19.8762 0.390331
131.758 -18.9231 0.373447
133.532 -12.9812 -0.0989618
142.454 -4.92601 -0.278412
132.862 -1.86439 -0.116064
115.542 1.62435 0.177962
98.2276 13.2519 0.349031
115.362 44.525 -0.412993
96.0453 31.2954 0.0498439
99.0637 36.0151 -0.0758408
92.6252 27.197 0.165257
95.2177 30.9774 0.0635963
94.2363 29.8189 0.0968024
94.1173 29.8827 0.0962463
95.7933 32.5406 0.0258511
90.4305 25.3968 0.223237
65.9346 16.9908 0.483846
65.8587 17.018 0.482538
65.7884 17.007 0.482377
28.3888 -16.2432 0.0608674
112.277 -21.9087 0.259608
112.353 -21.7844 0.259395
121.614 -20.8716 0.10545
112.053 1.26928 0.024312
107.153 8.35695 0.0650959
98.7957 28.9163 -0.159202
101.473 38.5774 -0.425835
101.364 38.7155 -0.428618
92.3661 26.4268 -0.0138305
91.8418 26.5254 -0.0106523
94.1041 29.8911 -0.120822
95.7828 32.5607 -0.20825
95.7053 32.7013 -0.209952
75.1134 14.5062 0.459346
75.3622 15.5613 0.428423
65.8719 17.0359 0.367512
65.8014 17.031 0.36733
65.722 17.0689 0.364975
129.902 -19.3088 -0.351483
118.892 -5.79809 -0.390057
99.4337 30.3059 -0.474177
106.57 45.3656 -1.02675
98.861 35.0628 -0.601146
95.6416 30.8586 -0.426801
95.6457 30.9833 -0.430218
95.616 31.1816 -0.435984
96.3744 39.5368 -0.699557
79.3042 16.2556 0.247185
79.2331 16.2741 0.24692
75.0903 14.2617 0.34712
75.1312 14.6528 0.333891
75.3082 15.5617 0.301268
75.293 15.6377 0.298964
65.8622 16.9874 0.23565
65.7886 17.0022 0.234391
100.29 -22.966 0.055336
115.013 -2.0077 -0.590058
115.247 -1.63362 -0.600681
116.518 -1.24192 -0.648433
114.87 -0.735773 -0.592835
115.26 -0.5542 -0.608355
93.1399 0.57242 0.161216
95.3449 5.22266 0.0154695
99.1387 35.1163 -0.932548
99.085 35.3091 -0.938363
99.0136 35.4781 -0.943145
98.8775 35.5565 -0.9428
98.6998 35.5784 -0.940378
98.226 42.0659 -1.16302
75.5991 12.3491 0.289131
75.1509 14.5495 0.204301
75.362 15.5878 0.160329
104.981 -18.2823 -0.264498
108.933 -14.1261 -0.366603
106.228 -5.33034 -0.476486
99.3287 35.2545 -1.23749
99.3076 35.4909 -1.24636
99.2873 36.0032 -1.26618
99.1212 36.0425 -1.26378
96.0953 32.0508 -1.03662
96.2747 32.5531 -1.05984
17.669 -12.9465 -1.4288
92.2369 -21.5827 -0.0801971
102.134 -15.3131 -0.342754
104.583 -13.5015 -0.425054
104.734 -13.4225 -0.430899
103.396 -12.157 -0.368034
103.174 -12.0004 -0.358199
103.26 -11.7996 -0.360646
102.587 -4.43216 -0.51587
102.668 -4.37922 -0.519824
102.742 -4.2738 -0.523977
102.788 -4.16943 -0.527204
102.874 -4.06262 -0.53133
102.937 -3.9566 -0.534516
105.1 1.33439 -0.683584
105.039 1.43724 -0.68211
104.937 1.53285 -0.678725
104.86 1.57551 -0.675091
94.9679 29.3114 -1.1454
90.9788 24.0455 -0.807578
99.5806 36.0262 -1.56443
99.4291 36.0887 -1.56308
99.3293 36.2225 -1.56682
96.7809 32.9069 -1.35263
98.9773 36.2758 -1.56
97.4748 34.4073 -1.43782
79.4215 8.80558 0.17212
96.4892 41.5077 -1.73902
54.4342 16.7538 -0.419876
14.3158 7.27767 -2.01679
99.2235 -4.34732 -0.543676
112.133 43.7922 -2.66363
90.9524 23.6304 -1.01423
90.9643 23.8368 -1.0249
99.5421 35.8035 -1.87478
101.236 38.414 -2.05396
97.1132 32.9677 -1.6609
96.7941 41.6502 -2.09465
97.4574 -11.1677 -0.46323
97.3134 -3.49615 -0.593004
97.3627 -3.40735 -0.59617
97.393 -3.31778 -0.598392
100.03 0.905517 -0.80145
92.7682 25.889 -1.38586
90.9234 23.5865 -1.20116
90.8997 23.7426 -1.20876
90.8372 23.8477 -1.2113
97.4308 33.1783 -1.93173
99.0531 36.6571 -2.1731
75.6155 12.3273 -0.137751
75.5836 12.3238 -0.137829
90.8474 -15.6369 -0.322564
96.5715 0.937567 -0.793342
93.5766 8.70045 -0.830493
93.957 9.02186 -0.864522
90.2189 18.5173 -1.12973
89.9267 18.6276 -1.12394
91.8968 21.1089 -1.34489
89.9862 20.1022 -1.20984
89.8608 20.1084 -1.20521
90.0235 20.8081 -1.25116
90.2826 21.3089 -1.29115
92.7551 25.7649 -1.64647
91.4676 -13.6379 -0.474681
95.298 24.278 -1.85417
90.081 18.4137 -1.27077
89.9026 18.3549 -1.25907
89.8057 18.3902 -1.25646
89.826 18.5641 -1.268
90.0097 19.1647 -1.31255
89.9844 19.2897 -1.31905
90.0069 19.6309 -1.34016
89.9354 19.702 -1.34161
89.9626 19.895 -1.35419
89.8901 19.9662 -1.35564
89.982 20.2428 -1.37633
89.8962 20.2159 -1.37148
89.8896 20.3715 -1.38004
90.0819 20.7819 -1.4139
90.1207 20.9995 -1.42854
90.6097 21.8012 -1.49892
83.6987 -18.5425 -0.304797
83.7449 -18.5027 -0.304803
87.528 8.06931 -0.72643
89.8274 18.4167 -1.4615
89.8903 18.64 -1.47909
90.1237 19.0687 -1.5179
89.9856 19.0575 -1.51025
89.9785 19.203 -1.51977
89.973 19.3523 -1.5293
88.9972 18.2478 -1.41026
88.9671 18.3603 -1.41574
89.9876 19.7634 -1.55667
89.8605 19.7658 -1.55104
89.8754 19.9435 -1.56361
89.7547 19.955 -1.55799
40.4109 -0.981625 -1.4446
89.201 16.7384 -1.4895
89.3353 17.3816 -1.54033
89.4894 17.7037 -1.571
90.7816 19.3551 -1.75303
89.693 18.2327 -1.61825
89.7842 18.4144 -1.63561
89.9696 18.7845 -1.67136
89.7777 18.7094 -1.65564
90.02 19.1509 -1.69848
89.0021 18.0769 -1.57166
88.9486 18.1604 -1.5741
88.9076 18.2604 -1.57956
88.8183 18.2997 -1.57695
88.8392 18.4007 -1.58524
90.0513 20.0577 -1.76451
51.5344 -13.8297 -0.730971
87.7574 13.4234 -1.34219
88.8477 16.2115 -1.60469
89.2097 16.7528 -1.66453
89.2291 16.9136 -1.67702
89.3262 17.1632 -1.70061
89.3857 17.301 -1.71491
89.9189 18.6478 -1.84304
89.9506 18.8372 -1.8586
89.9703 18.9374 -1.86789
88.0723 -8.67386 -0.609347
88.7402 16.1084 -1.77064
89.1907 16.75 -1.84857
89.313 17.0271 -1.87718
89.3181 17.1729 -1.88867
89.3271 17.3241 -1.90116
89.7295 18.301 -2.00138
89.8377 18.5783 -2.03003
89.8705 18.7685 -2.04659
87.128 14.0204 -1.66802
87.1129 14.1246 -1.67542
87.1631 14.3022 -1.69289
87.2376 14.4459 -1.71018
87.2532 14.5871 -1.72262
87.2883 14.7517 -1.73808
87.3224 14.9155 -1.75355
87.2753 14.988 -1.75693
87.2905 15.1333 -1.76939
87.3506 15.3306 -1.7899
87.428 15.487 -1.80722
87.4971 15.6972 -1.82974
87.5242 15.862 -1.84523
75.6779 12.2249 -0.91023
61.646 -17.4387 -0.496966
86.0942 0.500583 -0.843475
83.0173 8.27287 -1.05189
83.0092 8.34882 -1.05718
83.013 8.43717 -1.06547
82.9955 8.50438 -1.06975
82.9768 8.56976 -1.07303
82.9865 8.62289 -1.07818
82.9823 8.70433 -1.08547
82.9675 8.7762 -1.08976
82.9598 8.85512 -1.09606
82.9738 8.95814 -1.10537
82.9507 9.02113 -1.10965
82.971 9.13233 -1.11998
83.0206 9.23016 -1.13217
83.0113 9.31134 -1.13848
83.0402 9.43341 -1.15082
83.0261 9.51022 -1.15612
83.0351 9.61298 -1.16545
83.021 9.68979 -1.17175
83.0446 9.80961 -1.1831
83.0744 9.93761 -1.19645
83.1203 10.037 -1.20866
83.1383 10.1536 -1.22001
83.2076 10.3304 -1.24043
83.2808 10.5137 -1.26085
83.3031 10.6387 -1.27422
83.2891 10.7226 -1.28054
83.3546 10.901 -1.29997
76.5567 11.7135 -1.00599
84.1317 5.17186 -1.01708
81.5909 8.41497 -1.07041
81.5852 8.49359 -1.0767
81.5798 8.57419 -1.08399
81.5682 8.64662 -1.08927
69.2449 5.54039 -0.304446
80.6812 7.01255 -1.05017
80.6415 7.04561 -1.05039
80.6191 7.05798 -1.0495
80.5769 7.08737 -1.04972
80.5347 7.11677 -1.04894
80.4923 7.14517 -1.04816
80.4501 7.17457 -1.04738
80.4066 7.20213 -1.0466
80.3582 7.22334 -1.0448
64.7175 -15.2768 -0.409708
80.247 6.57751 -1.0809
80.2103 6.61014 -1.08112
80.1816 6.61433 -1.07821
80.1425 6.64428 -1.07843
80.1033 6.67324 -1.07764
80.0653 6.70404 -1.07785
80.024 6.7323 -1.07706
79.9738 6.74871 -1.07526
79.8918 6.72733 -1.06542
79.9216 6.79976 -1.07558
79.7645 6.08188 -1.08756
79.7321 6.1159 -1.08877
79.6876 6.13654 -1.08697
79.6781 6.16117 -1.08908
79.653 6.20422 -1.0913
79.515 6.11729 -1.06939
60.9186 8.49072 -1.33315
60.8768 8.46043 -1.33316
60.8236 8.44898 -1.33527
60.8049 8.43149 -1.33526
60.759 8.40786 -1.33631
79.4105 5.86462 -1.09782
79.3619 5.87778 -1.094
79.3607 5.91128 -1.09812
79.3255 5.93967 -1.09831
72.6507 9.02635 -1.1028
79.1121 3.492 -1.04451
79.0932 3.5281 -1.04668
79.0847 3.57379 -1.05086
79.066 3.61188 -1.05305
79.0553 3.6286 -1.05314
79.0694 3.69726 -1.06233
71.6184 4.07614 -0.540703
71.574 3.99372 -0.526545
77.7151 4.18856 -1.09585
77.5925 4.10342 -1.0719
77.1401 3.82066 -1.08821
71.5753 3.81581 -0.813933
69.104 -12.8093 -0.692784
46.8497 -3.11685 -7.62311
46.8303 -3.18781 -7.62792
46.809 -3.22313 -7.63486
46.8386 -3.29713 -7.62152
46.5673 -3.35088 -7.7201
72.3729 -4.94555 -0.0645583
68.8815 -3.46893 0.187494
68.8704 -3.46227 0.18244
68.6096 -6.36798 0.205689
118.509 -10.7098 -19.9915
118.506 -10.5548 -19.983
107.806 -19.2286 -16.3424
107.867 -19.184 -16.3604
124.188 -20.1528 -23.13
124.237 -19.9831 -23.1314
124.272 -19.8082 -23.1259
124.325 -19.6391 -23.1304
69.1663 -3.80712 0.323463
69.1692 -3.82167 0.330522
69.0826 -3.72439 0.255941
69.1018 -3.76552 0.277137
69.0971 -3.76283 0.274115
69.0669 -3.72111 0.250886
69.0472 -3.69706 0.236747
69.0036 -3.63624 0.202415
68.9836 -3.61417 0.189282
69.0054 -3.6587 0.211497
68.9911 -3.64554 0.203411
69.016 -3.68951 0.226633
68.9289 -3.56082 0.154944
69.0096 -3.80164 0.268001
69.0233 -3.8874 0.304335
68.8943 -3.72035 0.207395
68.5681 -6.39862 0.104676
68.7194 -6.23847 0.204554
68.6971 -6.32324 0.168782
71.1325 -6.19912 0.163244
71.1413 -6.29251 0.112589
0 0 0
