ply
format ascii 1.0
element vertex 725
property float x
property float y
property float z
end_header
149.892 -3.28118 3.90067
149.782 -3.03563 3.89569
144.956 0.924269 3.71832
148.831 1.98424 3.85651
133.343 7.0849 3.31364
125.075 5.81586 3.01657
103.86 15.8916 2.39332
90.1314 10.6682 1.89835
100.079 35.0231 2.68351
89.4226 29.6265 2.32971
90.553 32.0206 2.41394
89.2113 29.7574 2.32886
89.1838 29.8392 2.33055
89.095 29.9371 2.33207
88.9532 29.9345 2.32977
88.8603 30.0249 2.33029
88.7885 30.1566 2.33274
88.6963 30.252 2.33325
75.4941 12.638 1.63874
55.9792 15.1673 1.81691
44.4826 17.1663 2.10201
44.4769 17.0297 2.09941
44.491 16.9467 2.09769
44.4655 16.8272 2.096
44.442 16.7073 2.09431
46.622 13.5278 1.9836
41.8694 16.4826 2.15342
38.9782 16.824 2.23214
34.4458 16.176 2.34128
34.0378 16.3377 2.35491
32.8198 16.5721 2.39057
27.8292 18.4499 2.55312
29.3113 16.0495 2.48056
29.322 15.8802 2.47809
28.9337 15.3386 2.48288
15.4414 20.1326 2.92125
27.442 14.4872 2.51522
26.3513 14.0634 2.54214
17.9854 14.1218 2.78786
18.0439 13.9131 2.78462
16.0494 13.5707 2.84033
15.544 13.5495 2.8553
10.9196 14.3835 3.00079
10.9254 14.1745 2.99843
2.38171 14.6975 3.26037
17.3117 -10.9852 2.78003
16.9154 -11.2002 2.79382
20.4058 -10.9681 2.68267
17.1607 -11.5139 2.7883
25.2929 -11.2008 2.53094
15.7176 -13.5346 2.84926
7.10672 -15.1542 3.13151
18.3278 -13.8975 2.77
-4.05286 -19.4517 3.51631
13.9384 -17.0341 2.93595
7.40596 -18.6086 3.15356
7.69715 -18.7532 3.14563
43.3215 -11.5667 1.97305
45.1398 -12.4315 1.92659
27.2167 -18.7163 2.54874
51.6563 -13.2163 1.74405
23.6983 -25.1906 2.74764
23.8608 -25.2962 2.7453
44.0851 -19.3999 2.06729
34.9571 -24.6376 2.41933
34.8839 -25.1181 2.43061
12.0259 -39.7985 3.34239
49.262 -18.9067 1.91801
50.7305 -19.0585 1.88264
51.9489 -18.8817 1.84775
9.36329 -56.3181 3.78339
13.026 -54.0405 3.64045
48.793 -25.8705 2.09497
48.4994 -33.5147 2.31536
48.4054 -33.8193 2.32708
48.4994 -33.7916 2.3242
48.563 -33.8959 2.32565
27.6522 -61.3285 3.53005
25.4106 -65.0241 3.68133
25.3456 -65.5037 3.69663
55.1121 -27.6732 2.02107
55.175 -27.7339 2.02139
141.466 -38.9501 3.96288
141.671 -38.775 3.96679
133.025 -20.9275 3.41232
133.045 -20.7244 3.41076
133.06 -20.3132 3.40655
133.051 -20.1037 3.4039
133.051 -20.0006 3.40359
133.07 -19.7983 3.40202
150.748 -4.75344 3.42795
150.259 -3.13287 3.40901
146.653 -1.91157 3.29953
148.516 0.495767 3.35131
103.797 15.8174 2.1414
110.859 39.6234 2.66198
98.0653 34.0932 2.31295
90.982 27.0455 2.04986
89.3419 29.678 2.07838
89.0855 29.4587 2.07048
89.2173 29.9741 2.08322
88.9842 29.7959 2.07625
88.9905 29.9436 2.07882
92.8655 37.7332 2.30274
16.2119 17.4066 2.49513
3.89386 -19.2672 2.83495
3.92234 -19.4805 2.83565
3.75454 -19.737 2.84206
8.81925 -55.6509 3.2732
47.5082 -26.9275 1.94937
48.0085 -26.5953 1.93346
134.594 -38.5291 3.27574
140.961 -38.8263 3.45041
142.832 -37.9319 3.48876
131.156 -21.0381 2.95261
131.167 -20.8386 2.95104
131.199 -20.6441 2.94952
131.188 -20.5405 2.94818
131.217 -20.3456 2.94766
131.232 -20.1477 2.94609
131.241 -19.949 2.94452
131.264 -19.7532 2.94298
131.29 -19.558 2.94244
143.55 -19.605 3.29811
150.466 -2.93364 3.03986
148.459 0.435291 2.98337
124.199 6.04613 2.38298
121.381 6.36926 2.31491
105.497 16.9858 2.00456
96.9782 12.5427 1.78151
116.091 57.362 2.72687
96.3317 34.2172 2.06383
90.9508 27.1193 1.87157
90.4171 31.1639 1.93223
89.3046 29.2322 1.88464
89.2624 29.4142 1.887
89.18 29.5213 1.8885
89.2657 29.9494 1.8964
89.1843 30.0633 1.89788
89.0524 30.0806 1.89554
62.3152 11.909 1.42242
114.006 -25.7808 2.30479
131.12 -20.883 2.65607
131.117 -20.6805 2.65445
131.141 -20.4849 2.65391
131.15 -20.2851 2.65233
131.152 -20.1854 2.65103
131.166 -19.9873 2.64947
131.181 -19.5894 2.6473
131.995 -19.0735 2.66251
132.601 -19.0072 2.67662
121.109 7.71467 1.91826
91.2339 8.76882 1.43645
115.188 45.2718 2.02433
114.805 45.1549 2.01885
115.944 57.4931 2.14215
90.6509 30.2538 1.61247
90.3977 30.0623 1.6075
90.2653 30.0837 1.60615
89.1008 29.3744 1.58777
89.2699 29.9591 1.59637
88.8343 29.9307 1.59152
75.3905 12.3167 1.29048
-4.45018 18.053 2.02348
18.2387 -11.3476 1.76812
16.491 -15.3935 1.81153
143.852 -29.9978 2.46506
145.117 -30.1683 2.48732
146.383 -30.4631 2.50994
137.395 -21.6614 2.29598
137.618 -21.1603 2.29596
143.417 -19.4425 2.38433
105.557 17.3192 1.48368
114.714 45.0752 1.67589
114.57 45.069 1.6746
95.4803 28.5379 1.43109
90.9517 26.1062 1.38262
90.8191 26.6653 1.38464
90.4777 26.3412 1.38088
91.5075 28.2252 1.39844
92.0386 -19.3099 1.40377
92.091 -19.1518 1.4034
111.447 -21.7498 1.63911
111.531 -21.6346 1.63894
135.899 -21.5997 1.92656
137.4 -21.755 1.94527
143.399 -19.4157 2.00521
105.531 17.1292 1.1952
91.8929 25.9166 1.12722
91.8978 26.4556 1.12761
89.9828 25.5355 1.12024
89.922 25.6515 1.11976
89.8882 25.8151 1.12019
89.8688 26.0008 1.11959
89.587 25.759 1.11871
89.428 26.048 1.11749
123.253 -27.0802 1.4157
133.027 -28.453 1.47098
140.388 -29.602 1.51337
145.115 -30.3483 1.54085
146.147 -30.4343 1.54634
130.561 -21.2071 1.42982
133.06 -21.4595 1.44399
133.067 -21.2524 1.44338
133.052 -21.145 1.44202
135.86 -20.997 1.45666
135.934 -20.7985 1.45622
130.708 -19.3437 1.42353
146.782 -19.5338 1.50888
107.17 10.7925 1.02583
89.368 9.09862 1.01742
114.562 45.1752 0.896255
97.8428 26.4293 0.955548
100.296 38.5895 0.907226
91.8074 26.7402 0.946554
91.6166 28.1333 0.940945
93.5184 31.4352 0.929113
89.9929 25.9681 0.947954
90.0895 26.3461 0.946024
92.5281 31.2281 0.928595
111.383 -21.8924 1.12639
136.939 -29.0581 1.16327
130.832 -20.1498 1.13622
130.877 -19.9603 1.13575
130.855 -19.755 1.13508
130.754 -19.5311 1.13419
130.916 -19.3708 1.13406
148.672 2.91011 0.583357
115.928 5.36411 0.756124
111.406 44.0633 0.492772
96.5775 27.2277 0.687404
96.542 30.5091 0.657443
96.4142 30.5682 0.656988
99.1735 38.1793 0.578032
91.4416 27.7196 0.695811
93.0234 30.483 0.665909
92.8634 30.3497 0.666964
90.1538 26.2148 0.712557
90.1326 26.4018 0.710948
94.6741 34.9241 0.619103
90.9525 30.7034 0.666765
78.809 15.9903 0.831811
144.741 -30.2546 0.675748
146.01 -30.4217 0.668997
130.298 -20.363 0.746708
130.309 -20.1665 0.746139
130.411 -19.6953 0.74494
146.836 -19.452 0.653741
93.4566 8.82038 0.689097
105.621 17.4182 0.481516
94.6185 13.928 0.621226
100.578 34.286 0.308795
98.2499 32.7886 0.34427
91.04 26.764 0.472819
90.6455 26.3597 0.481183
91.3327 27.6823 0.457686
91.4612 28.1193 0.450648
91.395 28.2472 0.449119
90.1194 26.2869 0.485264
90.004 26.32 0.484915
92.2727 30.2928 0.413856
91.8191 30.2943 0.41687
78.8256 15.9905 0.691846
78.7603 16.0213 0.691612
64.5905 21.1835 0.583406
62.3083 -5.11282 0.918678
62.7863 -5.14013 0.925795
62.6967 -5.1523 0.924637
92.2916 -18.9584 0.78525
134.546 -25.9522 0.31673
130.267 -22.412 0.36781
130.214 -22.1941 0.369038
132.163 -22.4392 0.346993
133.498 -22.1782 0.332095
134.11 -22.1302 0.325275
130.773 -21.0367 0.363762
131.511 -21.1293 0.354638
130.047 -20.3476 0.372115
131.132 -19.8197 0.359871
131.428 -19.7902 0.356424
130.875 -19.2587 0.362626
131.199 -19.1343 0.358953
142.262 3.26619 -0.324591
116.08 8.05868 0.124333
90.1904 10.286 0.530615
111.725 43.969 -0.34526
96.1073 28.1094 0.132727
99.0134 37.929 -0.0935653
90.2564 24.9849 0.253481
91.2139 27.0158 0.203435
90.9671 26.8487 0.208404
90.7926 26.7953 0.211187
92.2242 29.3189 0.146683
92.1608 29.4595 0.144122
92.034 29.4972 0.144734
92.0664 29.7956 0.137905
92.1609 30.0759 0.131266
92.2545 30.4816 0.121246
92.0588 30.4081 0.125044
78.8179 16.0114 0.533765
92.2218 -19.1417 0.60765
111.554 -21.6852 0.271134
111.628 -21.5656 0.269934
112.975 -22.0311 0.245251
118.446 4.63947 -0.140251
96.8636 8.22004 0.306274
94.6092 8.86648 0.343449
111.8 43.9804 -0.674133
98.6644 30.1002 -0.163739
99.048 38.0365 -0.360816
92.4022 28.7901 -0.0503405
92.3326 28.9154 -0.0528688
92.3163 29.129 -0.0575474
92.3088 29.2372 -0.0608895
92.2993 29.463 -0.0655899
92.0933 29.3738 -0.0617671
91.9661 29.4095 -0.0611499
92.1212 30.16 -0.082075
92.2756 30.671 -0.0962802
94.7491 34.9452 -0.232804
91.7239 30.125 -0.075829
78.8434 16.0316 0.416758
78.7814 16.071 0.416506
64.5351 21.2412 0.25411
92.0342 -19.1764 0.479348
130.788 -19.344 -0.380311
119.318 -14.5657 -0.100517
119.463 -14.4353 -0.103595
123.727 -13.9574 -0.20381
123.794 -13.7973 -0.205148
117.027 -11.9015 -0.320499
117.007 -11.7511 -0.319994
117.009 -11.6028 -0.319438
117.02 -11.4569 -0.319853
116.983 -11.3777 -0.318172
117.026 -11.2354 -0.319507
117.231 -11.1137 -0.325431
117.38 -10.9849 -0.329496
117.372 -10.8353 -0.329963
117.326 -10.681 -0.327528
117.31 -10.531 -0.327015
117.168 -10.1455 -0.323483
117.189 -10.001 -0.323873
117.236 -9.85834 -0.325201
117.264 -9.71389 -0.325575
117.308 -9.57077 -0.326911
117.335 -9.49887 -0.328069
117.298 -9.34899 -0.3266
117.27 -9.19927 -0.326113
117.248 -9.04958 -0.325611
117.25 -8.90336 -0.325047
117.273 -8.75819 -0.326434
117.285 -8.61228 -0.326849
117.276 -8.53828 -0.32609
117.312 -8.394 -0.327446
117.35 -8.24888 -0.328803
117.354 -8.10295 -0.329233
117.382 -7.95751 -0.33061
117.568 -7.01141 -0.337059
117.778 -6.87135 -0.344025
117.929 -6.7287 -0.348128
118.484 -6.37306 -0.366
118.69 -6.22733 -0.371993
121.428 -3.90255 -0.461073
123.734 -1.34507 -0.541787
124.726 0.0906522 -0.578966
105.16 2.23328 -0.0187469
99.1919 29.0503 -0.410437
98.3051 35.3106 -0.574214
91.4557 26.2972 -0.200881
91.3128 26.2948 -0.198182
93.9632 31.2192 -0.386283
93.7957 31.2073 -0.382609
93.8531 31.5516 -0.394522
93.6106 31.4203 -0.386651
96.1905 40.0079 -0.685939
76.2445 13.9975 0.370263
76.1843 14.0144 0.370081
61.6527 14.5301 0.280088
61.6296 14.4203 0.283369
117.047 -12.5745 -0.322429
117.108 -12.4348 -0.323718
117.123 -12.3623 -0.323902
117.128 -12.2144 -0.324338
117.086 -12.0587 -0.322898
113.295 -4.14067 -0.495951
113.407 -4.0044 -0.500119
113.539 -3.86609 -0.50625
116.053 -1.79169 -0.608059
116.124 -1.64328 -0.611355
117.045 -1.2048 -0.647683
116.967 -0.919591 -0.64671
115.903 -0.874395 -0.608147
116.681 -0.654523 -0.638126
116.531 -0.524511 -0.632842
116.136 -0.493008 -0.618793
115.823 -0.382713 -0.608801
115.714 -0.251556 -0.605432
94.3664 1.80494 0.136193
93.6836 31.4654 -0.671631
93.6446 38.2364 -0.918112
61.6058 14.4972 0.138085
61.5818 14.3885 0.142361
61.5853 14.3011 0.145631
96.7761 -18.5528 0.0237257
106.279 -14.7975 -0.257029
109.127 1.7467 -0.616703
105.585 1.84667 -0.470666
105.472 1.93683 -0.467181
92.2988 26.6569 -0.704143
96.2926 33.9971 -1.08761
92.0478 27.7131 -0.740868
61.6997 14.4599 0.0123998
110.946 -21.7578 -0.74197
105.158 -12.5869 -0.413114
107.18 -11.9546 -0.493643
104.57 -2.9079 -0.579542
104.64 -2.85042 -0.583563
104.722 -2.73712 -0.587727
104.802 -2.62453 -0.592893
105.695 1.52172 -0.675449
105.617 1.62012 -0.672916
95.9377 25.8815 -0.991937
94.4037 24.5544 -0.891258
96.2586 31.5176 -1.24422
99.6998 37.7651 -1.6116
91.9586 27.6871 -0.961984
91.9191 27.8526 -0.968568
93.8967 31.1995 -1.16937
92.9579 36.6527 -1.40083
92.608 36.3046 -1.37754
92.5098 36.4352 -1.38114
69.2416 17.5022 -0.159448
15.3038 2.20053 -1.89906
80.6087 -21.07 0.184331
98.7805 -13.7095 -0.329529
100.707 -11.3895 -0.39735
99.4141 -9.30221 -0.507435
99.4252 -9.21187 -0.507683
99.4273 -9.12123 -0.507951
99.4261 -9.07455 -0.507095
99.4341 -8.98477 -0.507348
99.4324 -8.89256 -0.506629
99.4495 -8.80309 -0.506862
99.4805 -8.71565 -0.509058
102.659 1.15116 -0.733902
102.738 1.2185 -0.738935
102.713 1.31814 -0.739289
99.9592 38.1094 -1.96508
91.9862 27.4975 -1.20136
91.9317 27.6369 -1.20689
94.0313 31.1407 -1.44391
93.8889 31.1686 -1.4413
93.7794 31.2493 -1.44178
90.8194 27.2384 -1.1551
92.5873 36.2341 -1.67037
78.0745 -20.8326 0.139133
96.3967 -15.6003 -0.422992
99.3819 -10.3122 -0.512463
99.3511 -10.2602 -0.509686
99.3535 -10.1675 -0.50896
99.3744 -10.0796 -0.510179
99.3896 -9.98889 -0.510419
99.3968 -9.89798 -0.509678
99.3862 -9.80446 -0.508982
99.4004 -9.71456 -0.509222
99.3941 -9.66716 -0.508379
99.3954 -9.57538 -0.507652
99.3937 -9.48317 -0.507934
99.3989 -9.39196 -0.507197
100.442 0.605502 -0.769055
100.539 0.721719 -0.776196
100.731 1.00493 -0.791634
95.1154 24.5756 -1.36078
95.5411 32.595 -1.80102
95.4625 32.7348 -1.80561
96.1064 33.9948 -1.89502
96.0209 33.9972 -1.89221
94.0728 31.22 -1.67906
93.9228 31.2378 -1.67543
93.7947 31.2878 -1.67386
91.4083 28.3119 -1.43606
94.7648 -8.62783 -0.551525
99.5847 36.2748 -2.48236
99.4469 36.3556 -2.4829
99.2318 36.3223 -2.47227
97.5165 34.0871 -2.27625
94.0582 29.835 -1.89492
93.9446 29.9011 -1.89536
95.516 32.5352 -2.1099
96.9245 34.9536 -2.30714
96.0556 33.8902 -2.21181
95.9299 33.9641 -2.21131
94.7512 -8.81786 -0.551982
94.7582 -8.74208 -0.552195
94.7518 -8.70274 -0.551328
90.9188 19.5096 -1.3266
98.3386 33.2005 -2.4858
91.9539 24.8925 -1.70258
106.253 45.5694 -3.58794
106.043 45.6091 -3.58151
96.8364 32.5893 -2.38721
100.976 38.7446 -2.9428
99.2564 36.5211 -2.73382
97.6467 34.4272 -2.53599
96.1218 32.43 -2.34827
95.9977 32.5006 -2.34875
94.1228 29.9341 -2.11008
93.916 29.8612 -2.09831
93.7189 29.6809 -2.07819
93.4647 29.5321 -2.05929
92.7829 -10.8449 -0.557135
90.8754 22.5082 -1.73273
90.9254 22.7606 -1.75239
92.0828 24.5598 -1.9273
90.6794 22.8824 -1.74928
91.5832 24.3499 -1.89075
91.3234 24.1767 -1.86679
90.9992 23.9088 -1.83469
91.3187 24.5664 -1.89397
91.1558 24.5305 -1.88422
91.5019 25.1357 -1.94129
97.3913 34.0019 -2.80926
92.6608 27.2632 -2.1382
93.4735 28.6955 -2.27275
92.5444 27.5317 -2.15226
92.2414 27.5194 -2.13888
92.3772 27.8401 -2.16655
77.1531 -20.6021 -0.227558
90.1446 21.3908 -1.81295
90.1858 21.6243 -1.83156
90.4761 22.2073 -1.88769
90.5084 22.435 -1.90631
90.7322 22.9358 -1.95333
91.3865 23.9547 -2.05899
91.328 24.0663 -2.06445
91.1151 23.958 -2.04658
91.0604 24.0751 -2.05306
91.1163 24.3539 -2.07577
91.0289 24.4262 -2.07718
101.784 40.482 -3.76329
92.6541 27.3514 -2.36848
92.3809 27.163 -2.3425
92.0167 26.8353 -2.3013
92.2307 27.3799 -2.35148
90.0005 -1.68037 -0.71276
90.0556 20.495 -1.93444
90.0925 20.7129 -1.95302
89.9851 20.7387 -1.94933
89.9113 20.808 -1.9507
89.9593 21.0466 -1.97131
90.1532 21.3981 -2.00895
90.2701 21.7347 -2.04072
90.2498 21.8862 -2.05122
90.4224 22.3066 -2.09311
90.657 22.8189 -2.14514
91.2513 24.0426 -2.27055
91.1632 24.014 -2.26465
91.0419 24.0348 -2.25998
91.0271 24.2097 -2.27253
91.4611 25.0425 -2.3601
92.7309 27.1123 -2.58659
87.4573 6.39296 -0.941582
90.0555 20.5257 -2.14054
90.2071 20.8987 -2.17933
90.0606 20.8716 -2.16957
90.0102 20.9759 -2.17499
89.9722 21.0966 -2.18244
90.0952 21.4404 -2.21821
90.2164 21.7854 -2.25299
90.4094 22.1442 -2.29365
90.5905 22.5815 -2.33957
90.6106 22.7948 -2.35817
91.0993 23.8702 -2.47436
90.9769 23.8901 -2.46968
91.0132 24.1384 -2.49235
91.091 24.4493 -2.52312
91.2833 24.8315 -2.56485
78.8689 -17.6837 -0.356637
78.9153 -17.6702 -0.358577
88.5948 18.2046 -2.04871
88.4748 18.1999 -2.04095
88.6116 18.5336 -2.07766
89.9713 20.5062 -2.33066
90.021 20.7424 -2.35427
89.9307 20.7051 -2.34635
90.0917 21.0948 -2.38918
90.3357 21.6017 -2.44818
90.2948 21.7229 -2.45663
90.6164 22.3468 -2.52981
90.4303 22.2699 -2.51198
90.511 22.5663 -2.5427
90.7024 22.9283 -2.58638
91.0507 23.61 -2.66668
90.8986 23.5857 -2.65594
58.8873 12.8861 -1.28795
58.9015 12.8032 -1.27967
87.5256 16.481 -2.01483
87.6573 16.7942 -2.05149
87.6766 16.8914 -2.06174
87.6614 17.0159 -2.07215
88.6294 18.4445 -2.26536
90.0227 20.4597 -2.54041
90.144 20.7916 -2.57815
90.1474 20.9669 -2.59467
90.0854 21.0547 -2.59907
90.2301 21.3387 -2.63461
90.2002 21.4734 -2.64508
90.4025 21.9309 -2.70002
90.8416 22.7215 -2.80146
90.6943 22.7026 -2.79072
90.7845 23.0157 -2.82547
90.5898 22.928 -2.80462
76.4665 -17.4019 -0.395684
82.5311 8.6436 -1.08902
82.5147 8.71166 -1.09426
82.4902 8.77182 -1.09749
82.4923 8.86245 -1.10576
82.4751 8.93164 -1.11101
82.4649 8.96546 -1.11413
82.4662 9.05721 -1.12241
82.4665 9.14911 -1.13068
82.4594 9.23199 -1.13795
82.4661 9.33305 -1.14824
82.468 9.42876 -1.15752
82.4465 9.49655 -1.16277
82.4859 9.59285 -1.17398
82.4684 9.66713 -1.18024
82.4358 9.7204 -1.18247
82.4245 9.80187 -1.18974
82.4185 9.89265 -1.19803
82.4524 10.0342 -1.21438
82.493 10.1879 -1.23176
82.5546 10.3183 -1.24801
82.5992 10.4785 -1.2674
82.6152 10.6015 -1.27974
82.5963 10.68 -1.28601
82.5724 10.7512 -1.29128
82.5575 10.8362 -1.29857
90.3826 21.6251 -2.87415
90.9285 22.5516 -3.00176
90.8465 22.5303 -2.99387
90.732 22.5561 -2.9892
83.0533 -11.4227 -0.515444
81.1538 8.84555 -1.11061
81.144 8.92376 -1.11786
81.1195 8.98393 -1.1221
81.1026 9.0551 -1.12835
81.0974 9.09527 -1.13248
81.0818 9.16827 -1.13874
82.3636 -11.3362 -0.516197
81.4499 7.1219 -1.04578
81.4209 7.16554 -1.04797
81.3799 7.19677 -1.04815
81.3572 7.24859 -1.05136
81.3065 7.26813 -1.04853
81.3049 7.30574 -1.05264
81.2739 7.34967 -1.05484
81.2268 7.37273 -1.05301
81.1968 7.41651 -1.05521
80.5564 7.93138 -1.05915
80.5429 7.95658 -1.06125
80.4982 7.98232 -1.06043
80.4661 8.0254 -1.06263
80.42 8.0493 -1.0618
80.2916 7.95896 -1.0428
69.0564 3.24362 -0.0789
79.9104 7.32028 -1.0547
79.8683 7.3436 -1.05386
79.8137 7.35056 -1.051
79.6793 7.24695 -1.02898
60.3322 8.58313 -1.34587
82.0203 -9.77636 -0.548638
79.3707 6.78663 -1.05326
60.9032 7.96015 -1.34075
60.8657 7.92421 -1.33973
79.2878 6.52276 -1.08065
79.2617 6.52454 -1.07871
78.4936 5.09044 -1.07705
78.4695 5.09194 -1.07511
78.4264 5.10127 -1.07223
78.3883 5.11694 -1.07036
78.3527 5.13629 -1.0695
78.3161 5.15578 -1.06863
78.2891 5.18499 -1.07078
77.9703 4.57257 -1.07962
71.6783 4.99347 -1.14951
73.353 -5.06192 -0.0595869
73.2215 -6.02504 -0.0619703
69.8448 -3.61944 0.21048
69.5628 -6.50697 0.220568
70.0477 -3.91653 0.332815
108.293 -19.3981 -16.1799
108.305 -19.2685 -16.1663
70.0845 -3.85226 0.2957
70.106 -3.90486 0.321906
70.1301 -3.96086 0.348127
70.1109 -3.93383 0.334004
69.7777 -6.22377 0.31918
69.9879 -3.76762 0.223236
70.071 -3.91698 0.301866
70.0552 -3.90055 0.291783
70.0465 -3.89121 0.285736
70.0154 -3.84834 0.261539
69.9737 -3.78877 0.228269
69.9309 -3.72906 0.194997
69.9527 -3.77361 0.217178
69.949 -3.77812 0.218183
69.9586 -3.80173 0.230276
69.9451 -3.79069 0.222213
69.9136 -3.86082 0.241356
70.0117 -4.01134 0.324022
69.9119 -3.93427 0.269574
69.7343 -6.07086 0.334626
69.6973 -6.23541 0.272041
69.6507 -6.40363 0.203446
69.7146 -6.33907 0.244391
69.7189 -6.33766 0.246395
69.7816 -6.27394 0.28734
69.7718 -6.31399 0.270439
69.6818 -6.42634 0.204582
72.1074 -6.44002 0.119871
72.0846 -6.40935 0.137729
72.0355 -6.35762 0.170467
19.4714 -15.1286 -0.955451
