ply
format ascii 1.0
element vertex 507
property float x
property float y
property float z
end_header
69.4332 13.1439 1.99743
24.0221 17.2932 0.912058
24.0038 16.9826 0.904304
-28.9672 32.1306 2.20922
-5.98875 16.7297 1.4649
-3.48519 14.6915 1.38236
-3.73641 14.7122 1.38984
-33.2215 24.0374 2.29228
-39.2433 23.7974 2.47357
-53.81 -15.5916 3.26159
-51.9169 -17.8578 3.24172
-51.5858 -18.2862 3.23863
-51.1509 -19.3162 3.24399
-41.0169 -17.7715 2.89491
-51.5712 -21.0801 3.29105
-43.2771 -19.0558 2.99071
-32.2681 -17.0889 2.60724
-20.2692 -16.4431 2.22186
-19.3384 -16.7337 2.20003
-19.4387 -16.9287 2.20697
-34.5242 -24.0915 2.82723
-34.5575 -24.3209 2.8336
-34.9702 -24.7058 2.85515
-35.6838 -25.8833 2.90469
-24.4728 -23.1647 2.50555
-24.328 -23.2849 2.50399
-24.1677 -23.8659 2.5143
-23.4274 -24.2547 2.50228
-23.1912 -24.3246 2.4973
-23.0161 -24.4246 2.49456
-38.0125 -34.7624 3.19734
-36.1486 -33.9863 3.12341
-35.9187 -34.1078 3.11997
-11.1444 -20.9578 2.06334
-1.97862 -16.5176 1.68462
-1.82044 -16.6487 1.68319
-11.2896 -22.5675 2.11211
-10.4783 -22.2175 2.0804
-10.5507 -22.4153 2.08739
-2.71701 -18.9006 1.77282
-2.6782 -18.9371 1.77325
-2.61305 -19.0173 1.77417
-2.60758 -19.1388 1.77745
-2.56345 -19.2348 1.77852
5.21053 -14.7467 1.43862
5.28634 -14.7845 1.43811
5.15297 -14.9795 1.448
6.30422 -15.0764 1.42141
6.63572 -14.9018 1.40697
6.5904 -14.9861 1.4108
7.59797 -15.0249 1.38742
10.9354 -14.8014 1.30208
11.011 -14.8111 1.30127
11.0124 -14.9004 1.30421
11.1707 -14.8211 1.29757
11.1592 -14.9246 1.30164
11.2542 -14.9125 1.29963
11.3243 -14.8808 1.29638
11.4088 -14.9712 1.29844
17.8479 -8.89232 0.944193
89.0616 10.9515 2.25813
56.6452 14.893 1.3546
24.0139 16.9968 0.79416
-28.0965 -18.35 2.1505
-35.1866 -24.1686 2.44222
-22.7769 -24.2458 2.14695
-22.6285 -24.3562 2.14629
-22.4772 -24.3726 2.14264
-36.589 -35.7795 2.73673
-5.13641 -18.5465 1.60817
66.5656 -20.293 2.03685
93.4734 -16.2927 2.69317
93.5072 -16.0724 2.69089
93.5567 -15.856 2.68868
93.5923 -15.6368 2.68641
93.6301 -15.4168 2.68314
93.6539 -15.1948 2.68084
93.6648 -14.9701 2.67748
93.6757 -14.8596 2.67533
93.7659 -14.6508 2.67524
88.8181 9.60372 1.95301
71.133 12.8318 1.51973
24.0604 17.2436 0.714614
24.0129 16.978 0.711352
-31.6793 28.9198 1.56571
-34.3958 25.6615 1.61974
-28.599 -18.5598 1.90309
93.4017 -14.4103 2.33026
89.8495 10.6768 1.46793
56.5658 14.9234 0.916157
24.0586 17.2584 0.580449
24.0386 16.953 0.578639
-34.4639 39.205 1.0911
-33.2149 29.7509 1.10209
87.5056 -21.8707 1.81164
91.9635 -22.7982 1.89577
93.1373 -22.9491 1.91677
97.7191 -17.2592 1.90641
94.3917 -14.3119 1.81238
35.1235 14.6072 0.537662
24.0409 17.1002 0.490087
-40.7826 -18.2257 1.28988
-40.5223 -18.3741 1.28975
-39.2971 -18.3602 1.27908
49.8026 -13.0821 0.946737
66.5894 -19.6608 1.21818
97.696 -17.353 1.52235
102.493 8.26809 0.746451
102.385 8.5042 0.743837
102.352 8.7477 0.741234
102.34 8.99495 0.738617
86.8755 9.02073 0.671734
24.0467 17.0445 0.367674
23.9997 16.7558 0.369655
-34.5517 38.6364 0.23793
-38.0967 28.0775 0.338787
34.6953 -16.9937 0.74471
90.8208 -22.7021 1.03134
94.4328 -23.185 1.05277
92.7398 -20.0542 1.00978
92.4814 -16.3292 0.966266
94.9646 -16.6778 0.980923
94.9589 -16.5602 0.979679
95.0107 -16.339 0.977413
99.3785 -16.8318 1.00086
95.1936 -15.2173 0.964828
92.8179 -14.6079 0.948555
39.4107 18.387 0.279029
39.6771 19.9474 0.260928
39.7825 20.2253 0.25813
39.7983 20.3826 0.255493
30.8371 18.2085 0.27759
24.0201 17.1304 0.283733
-28.3826 34.2793 -0.0308088
-35.1239 23.911 0.069195
72.7191 -20.324 0.683508
70.352 -16.7063 0.647587
87.2555 -22.0271 0.696924
89.2774 -22.3812 0.700083
92.8166 -19.812 0.672304
93.1793 -14.4284 0.618083
96.6226 7.92301 -0.0780276
91.6238 8.95241 -0.0558746
68.8594 9.73876 0.0834648
39.683 19.9734 0.0986527
39.6439 20.0539 0.0977577
34.1741 26.5431 -0.00211879
34.1651 26.7861 -0.00668689
34.1248 26.9439 -0.00939596
30.906 18.1849 0.152915
24.0516 17.1173 0.171903
23.7133 -15.8202 0.536134
72.6047 -20.2241 0.352301
73.0492 -20.2298 0.349895
69.9978 -17.0131 0.343373
92.7363 -22.9065 0.248749
92.7888 -16.4366 0.193722
92.4994 -16.144 0.193295
92.4026 -15.8965 0.191574
92.3639 -15.6637 0.190077
92.3668 -15.5527 0.188912
92.3845 -15.3334 0.186626
92.411 -15.1156 0.184366
92.5118 -14.9135 0.18236
92.5967 -14.7084 0.179303
93.1059 -14.3653 0.173306
93.6768 -14.3688 0.170029
96.6823 3.19686 -0.469242
94.2619 3.73336 -0.443799
91.8406 8.28535 -0.466617
89.9557 8.45887 -0.44471
89.5585 8.61285 -0.441808
69.6043 9.18853 -0.197864
67.2082 9.52111 -0.172246
41.2235 16.4168 0.00592905
39.2847 16.6246 0.0174096
35.6345 18.5567 0.000683625
33.9858 26.2665 -0.171444
33.9728 26.3624 -0.173469
33.9579 26.5898 -0.17888
30.8891 18.1667 0.0320796
24.0487 17.0352 0.0657574
-4.53508 22.5917 -0.301134
47.4004 -18.3352 0.304091
74.051 -20.6933 0.0179599
70.0451 -16.923 0.0454644
70.2362 -16.8297 0.0427125
90.0983 -22.4332 -0.163429
98.9537 -17.9342 -0.303127
100.721 -18.0964 -0.323295
92.7557 -15.2417 -0.244916
94.9644 -15.0256 -0.274534
91.3212 -3.96807 -0.790311
98.3232 1.1136 -0.980373
62.2888 11.5468 -0.416497
35.6477 18.5392 -0.153125
34.1075 26.0896 -0.364446
34.0206 26.11 -0.364766
33.8862 25.9961 -0.359729
33.8649 26.2008 -0.365909
24.0525 17.0938 -0.0578614
21.6934 18.8069 -0.118732
75.1726 -20.4565 -0.375204
75.4319 -20.2823 -0.380726
75.6544 -20.185 -0.385483
75.8584 -20.0785 -0.389358
69.929 -16.9143 -0.289786
70.2436 -16.8658 -0.295918
78.7434 -18.4919 -0.447586
74.7096 -16.3627 -0.380842
87.0555 -15.9323 -0.617529
91.478 -12.0832 -0.726719
86.1414 7.82701 -1.13969
50.9386 7.35315 -0.274015
42.0763 16.2975 -0.292806
41.7341 16.3369 -0.288632
24.02 17.1159 -0.149138
-28.4545 37.491 -1.66679
67.7704 -18.218 -0.485675
67.8709 -18.1 -0.487796
67.989 -18.0693 -0.490977
68.1356 -17.9682 -0.493864
70.1521 -17.54 -0.540947
79.9843 -11.5789 -0.796862
81.1277 -9.51212 -0.837237
81.0635 -9.31975 -0.836339
73.5144 -0.403586 -1.01526
73.6211 -0.249962 -1.02075
73.731 -0.0945169 -1.02525
75.0671 1.10639 -1.08029
53.7881 6.1376 -0.499807
43.9319 7.81908 -0.245348
42.1319 12.322 -0.314904
24.0506 17.1209 -0.25316
-35.6942 33.7877 -2.15555
44.7667 -18.1492 -0.156061
60.6954 -15.1938 -0.557018
70.2404 -11.3072 -0.840448
70.8966 -11.3092 -0.860639
71.6338 -8.47664 -0.894562
69.9306 3.99294 -1.25786
70.2099 4.31108 -1.27287
53.2704 6.07175 -0.676747
36.1378 15.3408 -0.413891
24.0147 17.0879 -0.366862
-46.9668 -9.88761 -2.27151
66.4422 -3.21772 -1.04616
61.5441 0.0900096 -1.11487
61.5182 0.205841 -1.11512
61.676 0.325208 -1.12318
61.8836 0.505563 -1.13483
62.0053 0.627185 -1.14097
62.098 0.74762 -1.14612
62.1636 0.867735 -1.15131
62.2092 0.988114 -1.15452
63.0921 2.05491 -1.20569
24.0617 17.0999 -0.471938
-24.8773 -13.839 -1.70031
52.3955 -15.875 -0.727846
52.4808 -15.8082 -0.730447
52.5933 -15.7551 -0.73387
52.6666 -15.7376 -0.736966
52.7335 -15.6596 -0.738706
52.8325 -15.5987 -0.741229
53.0549 -15.4873 -0.749133
61.0301 5.11212 -1.37635
52.8885 5.94681 -1.00091
51.4317 13.118 -1.13114
49.8032 14.3057 -1.10159
48.1959 15.496 -1.08005
25.4886 20.5269 -0.780303
24.0638 17.0496 -0.570412
17.7579 18.0014 -0.695024
-32.2023 -4.18355 -2.38877
-32.1863 -4.36186 -2.38588
57.1525 -8.27864 -1.07008
54.8255 2.28508 -1.22106
54.9303 2.39072 -1.22804
55.0421 2.49791 -1.23604
55.2539 2.66495 -1.25054
35.9899 12.9069 -0.629468
35.9874 12.9461 -0.631884
27.7281 8.63407 -0.143418
27.696 8.63406 -0.143456
27.501 14.2715 -0.508037
24.0628 17.0786 -0.683724
19.0563 14.7456 -0.586192
-21.3413 -8.34972 -2.10885
-15.3104 -10.3834 -1.77017
-11.1429 -12.0128 -1.54699
48.6316 -11.6004 -0.863367
48.7151 -11.5475 -0.866823
52.2186 2.78668 -1.23347
52.2888 2.88345 -1.24041
52.3812 2.98384 -1.24735
52.4849 3.04044 -1.25482
52.5471 3.13773 -1.25977
52.6345 3.23943 -1.26674
52.7635 3.34654 -1.27671
52.8419 3.4478 -1.28368
52.8597 3.54085 -1.28664
52.8766 3.63496 -1.28961
52.8691 3.72459 -1.29056
52.8548 3.76756 -1.29103
52.9202 3.86865 -1.29602
53.0443 3.98006 -1.30604
53.1665 4.0906 -1.31606
53.2604 4.19891 -1.32309
53.3259 4.30199 -1.32909
53.3895 4.40619 -1.33511
53.4846 4.46933 -1.34266
53.5888 4.58101 -1.35071
53.6828 4.69131 -1.35876
53.7171 4.79234 -1.36278
53.791 4.90089 -1.36984
53.8274 5.0028 -1.37387
49.0164 15.4361 -1.45246
48.059 15.0264 -1.38529
47.4796 14.7482 -1.34406
30.6566 15.596 -0.732191
27.7201 8.58496 -0.191913
27.6893 8.58989 -0.191002
27.6583 8.58982 -0.191039
27.6202 8.57417 -0.18892
43.9389 -13.35 -0.790598
43.9947 -13.2112 -0.789992
43.9748 -13.1117 -0.787062
49.875 7.93951 -1.40453
49.8922 7.98952 -1.40703
49.8261 8.05577 -1.40481
43.2343 12.4297 -1.18476
45.4952 14.0765 -1.39238
39.1141 16.6323 -1.21695
30.9296 15.5507 -0.855393
27.6994 8.50747 -0.252126
27.6673 8.50746 -0.252165
27.6374 8.51033 -0.251231
27.5873 8.41333 -0.24327
47.8634 -7.62118 -1.08518
48.0246 -7.59023 -1.09531
48.2373 -0.979667 -1.22363
48.5133 4.90956 -1.34928
48.5427 4.99487 -1.35314
34.0172 8.30007 -0.541357
33.9734 8.2888 -0.538291
27.746 8.56314 -0.304659
27.7078 8.54549 -0.302519
27.6794 8.55528 -0.302656
27.6388 8.53077 -0.300447
19.6957 19.8399 -1.26507
16.1161 15.2087 -0.992626
-9.37711 8.83471 -2.2363
37.3298 -16.1147 -0.819458
37.3803 -16.0758 -0.819807
37.4308 -16.0368 -0.820156
37.4813 -15.9979 -0.820505
44.4434 11.4337 -1.47284
44.4347 11.4703 -1.47424
40.0798 15.687 -1.45985
29.8255 14.0999 -0.898456
27.6905 8.42678 -0.355293
27.6585 8.42678 -0.354332
20.3146 19.671 -1.37556
19.8728 19.7194 -1.3876
14.6535 15.3517 -1.1809
43.2031 -7.60831 -1.01692
46.1914 -6.12189 -1.22098
46.2585 -5.99385 -1.22524
43.751 9.56312 -1.45699
43.7193 9.58515 -1.45526
43.7108 9.65779 -1.45803
43.6847 9.72052 -1.45972
43.6669 9.78874 -1.46146
43.6408 9.85247 -1.46317
43.6281 9.92337 -1.46593
43.5896 9.97987 -1.46557
43.5931 10.0207 -1.46799
32.6559 15.8933 -1.24194
32.5393 16.0487 -1.25172
27.7409 8.4451 -0.412429
27.7064 8.43825 -0.410398
27.6753 8.43817 -0.410435
27.6251 8.34021 -0.399464
43.2822 -7.46717 -1.13532
43.3343 -7.41935 -1.13876
41.8592 10.7523 -1.50478
41.8225 10.8057 -1.50539
41.8024 10.8701 -1.50809
41.7667 10.9244 -1.5087
41.7373 10.9823 -1.51035
41.7131 11.0449 -1.51204
41.6847 11.1038 -1.51369
41.6799 11.1401 -1.51508
41.6683 11.211 -1.51884
41.5918 11.2378 -1.51521
20.342 19.5878 -1.60666
41.5217 -7.46865 -1.10642
40.7451 10.0601 -1.50184
40.6923 10.0975 -1.49929
40.6958 10.1363 -1.5027
40.6838 10.2012 -1.5054
40.6645 10.2615 -1.50805
40.6274 10.3099 -1.50861
40.6165 10.3766 -1.51132
40.5858 10.4296 -1.51292
40.5539 10.4807 -1.51349
40.5126 10.5264 -1.51302
31.8979 17.6309 -1.61116
30.9774 15.5154 -1.36299
30.665 15.8402 -1.38579
29.8463 14.1507 -1.18498
29.7483 14.0257 -1.16878
20.2767 19.6135 -1.74102
17.4298 19.7654 -1.83605
14.7531 17.1338 -1.68256
40.0388 9.25432 -1.50521
39.9984 9.29692 -1.5047
39.9673 9.34494 -1.50525
39.9476 9.3662 -1.50549
39.8894 9.39791 -1.5019
39.8667 9.45141 -1.50349
39.8377 9.50029 -1.50504
39.8171 9.55666 -1.50666
39.7912 9.60735 -1.50822
39.7644 9.65911 -1.5088
39.7551 9.68673 -1.5101
39.7282 9.73848 -1.51168
39.6993 9.78837 -1.51224
39.6818 9.84554 -1.51486
39.521 9.8066 -1.49864
39.6198 9.94357 -1.51597
27.6907 8.39036 -0.579923
27.6757 8.39129 -0.57995
38.9001 9.37495 -1.52985
27.7191 8.474 -0.652773
17.8236 18.7625 -1.97803
31.2027 -13.2866 -0.971601
39.4986 3.22663 -1.33842
39.4977 3.27677 -1.33994
39.5059 3.32833 -1.34348
39.501 3.37772 -1.345
27.7465 8.47768 -0.712782
38.9781 1.81637 -1.3162
38.9566 1.8588 -1.31467
38.9576 1.90582 -1.31617
38.9473 1.95053 -1.31665
38.93 1.9947 -1.31613
38.9309 2.04172 -1.31763
38.8994 2.08278 -1.3151
38.9009 2.10574 -1.31534
30.3488 13.5529 -1.5151
27.763 8.54812 -0.777507
29.1285 -13.2264 -1.03773
32.982 12.5845 -1.62775
19.4065 15.3793 -1.81251
29.4223 12.6668 -1.6919
29.3812 12.6824 -1.69212
29.3631 12.6975 -1.6943
29.3243 12.718 -1.69456
29.2773 12.7189 -1.69263
23.6622 8.40091 -0.9059
23.6375 8.37444 -0.901651
23.6246 8.36122 -0.900527
33.1421 -8.80194 -1.25348
26.659 9.11389 -1.33782
28.0019 10.3981 -1.71974
27.9866 10.4091 -1.72087
33.3213 -5.48421 -1.32218
34.0334 -2.47573 -1.35198
27.1502 8.23688 -1.70202
-36.1562 11.9912 -21.5288
29.1251 -16.373 -5.21186
29.1809 -16.3785 -5.21873
-14.6029 11.2966 -14.4322
-14.6199 11.1675 -14.4238
27.0239 -0.147564 -0.615878
27.0285 -0.138851 -0.617965
87.6718 -17.0692 -26.8343
23.6531 0.745264 -0.239309
23.636 0.760258 -0.248488
23.6833 0.811127 -0.276968
23.7256 0.734769 -0.237111
23.7406 0.702944 -0.220757
23.7139 0.740461 -0.241185
24.7874 -2.27268 -0.392193
24.787 -2.22938 -0.373648
24.7878 -2.20024 -0.360953
23.6225 0.83052 -0.317247
23.6707 0.753821 -0.27438
23.662 0.758329 -0.278438
23.6367 0.785774 -0.295758
23.6177 0.802856 -0.307961
23.5702 0.859555 -0.342617
23.5359 0.902516 -0.367112
23.562 0.857057 -0.342601
23.5551 0.858457 -0.345624
23.5694 0.830666 -0.331314
23.5209 0.887426 -0.365971
23.5509 0.743931 -0.303421
23.639 0.630936 -0.237123
23.6229 0.598943 -0.229805
23.4927 0.741372 -0.319466
25.8298 -9.39392 -3.69618
25.9852 -10.3561 -4.1379
25.9067 -1.5931 -0.423
25.8984 -1.5825 -0.417121
1.71194e-39 0 3.16399e-41
