ply
format ascii 1.0
element vertex 376
property float x
property float y
property float z
end_header
138.01 8.49476 2.66656
140.397 22.3175 2.75356
121.089 11.6171 2.22401
106.078 20.5478 2.03607
105.974 20.5737 2.0352
95.6319 26.6539 2.07847
78.9305 45.2281 2.56613
77.5502 47.1651 2.62106
76.9959 12.1222 1.95362
75.5337 12.3442 1.9902
75.4339 12.3524 1.99353
54.9845 15.3411 2.62001
53.652 15.5023 2.66378
53.1383 15.5121 2.68088
51.8482 13.5124 2.71431
46.6603 13.5025 2.89091
46.4795 13.4244 2.89766
35.4756 16.3455 3.28806
37.1318 13.9489 3.22665
29.0558 15.8563 3.51595
16.9725 13.0689 3.95992
24.4343 -9.20403 3.85323
52.4183 -11.5112 2.82063
45.9374 -12.4438 3.0813
52.6372 -12.9019 2.83496
42.825 -15.3962 3.24946
55.1934 -13.4846 2.74912
27.1636 -23.0653 3.98358
33.1166 -32.2015 3.97927
46.2143 -29.8576 3.45841
121.937 -39.9155 3.15244
141.86 -56.5051 4.1473
128.42 -27.783 2.90866
165.976 -30.957 4.00757
165.554 -30.5688 3.98757
151.123 -21.4938 3.3873
151.141 -21.2954 3.38375
151.15 -21.0946 3.38022
151.192 -20.9006 3.37763
168.285 -21.4545 3.88155
97.2719 33.1645 1.95249
97.1301 33.1191 1.95167
96.9929 33.0921 1.9516
96.9037 32.9695 1.94951
96.7624 32.9138 1.94881
97.1748 36.0388 1.99422
96.946 37.2252 2.01148
90.1735 9.17861 1.6031
82.33 49.2116 2.25191
76.2909 48.5334 2.29749
27.0592 -23.2233 3.58196
33.1818 -32.0988 3.58368
25.7357 -35.544 3.88473
135.076 -38.3258 3.0388
165.043 -33.1476 3.52678
162.737 -32.2441 3.45753
150.603 -21.5603 2.97634
150.632 -21.4665 2.97505
122.398 -14.2115 2.20712
152.189 -19.458 2.97436
164.526 16.5829 2.51729
161.615 18.6771 2.45688
140.586 21.9578 2.10415
109.474 32.1908 1.78374
97.5521 35.0972 1.77526
98.1984 39.403 1.81899
97.2928 35.2059 1.77703
97.2202 35.9861 1.78466
96.5474 32.8824 1.75412
96.6631 34.353 1.76835
81.9274 48.5461 1.9779
19.6727 -18.9301 3.4026
133.691 -28.5464 2.52729
164.087 19.5286 1.89455
162.423 21.4131 1.86535
141.608 21.3297 1.66949
112.09 40.2196 1.46167
114.165 45.0648 1.47251
117.656 53.054 1.49117
97.3232 14.6594 1.39805
96.5716 28.8854 1.43162
96.5279 28.9684 1.43178
96.8074 31.1056 1.43603
79.8516 48.0789 1.55965
28.5337 -19.1709 2.69917
161.464 -32.565 2.50295
163.835 -32.8621 2.53138
150.296 -21.5843 2.2049
155.392 -22.0947 2.26718
159.786 -21.5558 2.30446
166.709 -22.6656 2.39528
163.088 -20.2946 2.32051
163.968 19.7766 1.48595
158.413 26.7295 1.39964
142.231 22.7823 1.35572
120.821 -23.3015 1.75881
164.892 18.961 0.942032
164.856 19.2146 0.939037
163.898 19.6653 0.935587
163.859 21.3869 0.915373
163.707 21.5965 0.913429
114.096 45.0513 0.768916
82.608 66.8047 0.688073
82.3691 66.8296 0.688797
82.2468 66.8784 0.688722
82.0063 66.9066 0.689412
81.7648 66.9481 0.690943
81.5275 66.9486 0.691964
79.1753 47.4927 0.883802
77.7128 44.7367 0.917366
69.518 68.7034 0.734172
78.0174 35.1249 1.00543
77.8861 35.0749 1.00662
91.8507 -22.3536 1.56545
93.9394 -22.7514 1.56435
155.106 -31.701 1.58167
161.473 -32.6277 1.58561
162.687 -32.7907 1.58538
150.133 -21.5951 1.45367
150.206 -21.4115 1.45108
150.193 -21.3087 1.44986
150.204 -21.1113 1.44736
150.227 -20.9166 1.44384
150.234 -20.7186 1.44135
150.268 -20.5265 1.43882
150.309 -20.1374 1.43381
150.289 -20.0336 1.4326
150.28 -19.8333 1.43015
163.975 21.4766 0.538725
158.248 26.8736 0.500488
96.5144 28.134 0.815152
79.639 44.9395 0.652484
62.0601 10.8943 1.18347
121.489 -23.1576 1.34609
150.046 -21.3552 1.15804
150.009 -21.1479 1.15663
150.004 -21.0472 1.1554
149.965 -20.8396 1.15299
149.967 -20.6419 1.15053
150.019 -20.4544 1.14797
150.029 -20.2589 1.1455
150.1 -19.8772 1.14045
150.231 -19.8039 1.13898
96.7334 28.3209 0.577862
82.0502 67.9025 -0.16022
83.5511 48.2334 0.233601
83.3804 48.1698 0.235129
80.2292 44.2107 0.324952
80.0699 44.1556 0.327326
73.8793 51.3521 0.197741
100.787 -23.7758 1.3434
129.608 -27.945 1.07037
131.748 -28.2816 1.04929
160.389 -31.3013 0.743755
163.444 -30.0191 0.695597
164.764 -30.1588 0.680619
150.407 -21.6905 0.764615
150.324 -21.4706 0.763243
150.838 -21.3854 0.755957
149.703 -20.6377 0.761585
156.687 -16.6459 0.216722
155.551 -12.8282 0.196227
155.758 -12.6346 0.189924
97.5847 15.9047 0.66739
98.5796 38.0906 0.0824891
80.4727 44.5282 -0.00807428
80.0704 45.8378 -0.0415996
80.1064 45.148 -0.0231868
78.209 37.1709 0.187119
121.078 -23.0239 0.909172
143.524 -28.9128 0.563098
145.435 -24.9332 0.49839
146.888 -24.4961 0.469671
152.33 -21.563 0.345668
152.377 -21.3667 0.343026
150.159 -20.6884 0.37621
152.402 -20.24 0.331923
152.397 -20.0333 0.329376
143.166 -15.4235 0.0740717
143.207 -14.9143 0.067568
143.246 -14.7471 0.065323
143.188 -14.5691 0.0653648
143.191 -14.3979 0.0632239
143.278 -14.3235 0.0599216
143.396 -13.0534 0.0446382
143.504 -11.9548 0.030524
143.511 -11.7841 0.028373
143.575 -11.6185 0.0250389
143.525 -11.4447 0.0240967
147.185 -5.26091 -0.143566
147.232 -4.98686 -0.149174
147.129 -4.81053 -0.148917
146.809 -4.46591 -0.144813
158.773 14.3207 -0.751991
125.688 6.45589 0.199019
96.4982 14.4427 0.552241
79.656 31.5089 0.0511635
79.5449 31.4308 0.0536146
122.177 -23.5678 0.641149
143.054 -15.8369 0.0806886
143.172 -15.682 0.076254
143.154 -15.5077 0.0751688
136.212 -14.3333 -0.00336613
136.247 -14.1888 -0.00531176
136.372 -14.0562 -0.0105005
136.375 -13.9061 -0.012378
136.345 -13.8281 -0.0112164
136.3 -13.6732 -0.0119466
136.243 -13.5165 -0.0116438
136.302 -13.3755 -0.0146527
136.419 -13.2398 -0.0198471
136.541 -13.1046 -0.0240517
136.566 -12.9577 -0.0269849
136.607 -12.8878 -0.0280314
136.627 -12.7402 -0.0309518
136.666 -12.5942 -0.0329334
136.691 -12.4473 -0.0348666
136.685 -12.298 -0.0366954
136.649 -12.1454 -0.0374355
136.775 -12.0068 -0.0417018
136.803 -11.9351 -0.0437152
136.817 -11.7866 -0.0456206
136.838 -11.6391 -0.0475436
136.863 -11.4912 -0.0504897
136.878 -11.3427 -0.052395
136.896 -11.1948 -0.0543105
137.097 -9.71054 -0.0766188
138.112 -8.60617 -0.120733
139.785 -6.58282 -0.197113
139.839 -6.42288 -0.200334
140.959 -5.17897 -0.250635
139.711 -4.37345 -0.224235
139.59 -3.90765 -0.227495
139.589 -3.82874 -0.228471
139.563 -3.67249 -0.230298
139.555 -3.51482 -0.232223
124.066 6.13774 0.0529834
98.1684 33.57 -0.30662
96.7868 28.041 -0.08395
95.9895 27.1955 -0.0439935
79.5096 32.8316 -0.206652
124.968 -26.3763 0.380923
125.052 -26.2783 0.378339
125.145 -26.2562 0.375662
125.379 -25.9502 0.368849
128.114 -24.742 0.290992
133.724 -21.2788 0.117677
134.36 -20.6303 0.0958675
134.42 -20.2671 0.0920976
134.485 -19.9824 0.089281
135.764 -15.7571 0.0222603
135.723 -15.6755 0.022424
135.726 -15.5274 0.0215722
135.773 -15.3857 0.0186067
135.824 -15.2446 0.0166309
135.883 -15.1054 0.0136503
135.904 -14.9589 0.0117402
135.984 -14.8219 0.00769112
136.067 -14.7601 0.00456165
136.129 -14.6204 0.00156056
136.187 -14.4793 -0.00144583
133.005 -6.4919 -0.249891
133.907 -2.54056 -0.340881
133.748 -2.4188 -0.337702
133.636 -2.29165 -0.334796
133.689 3.54024 -0.444467
133.845 3.72899 -0.453488
134.321 4.00239 -0.475943
134.506 4.20216 -0.487226
134.593 4.37649 -0.493771
112.037 5.56767 0.24516
111.344 5.6708 0.264883
111.019 5.89391 0.268518
110.665 5.76175 0.283694
37.4146 -17.1596 -0.00749729
130.506 2.75157 -0.5929
109.745 5.98503 0.144893
94.7288 14.395 0.169462
121.648 -18.9818 0.0354275
122.145 -18.6407 0.0150379
121.966 -18.4686 0.0226775
123.081 -15.5401 -0.0295274
123.103 -15.4342 -0.030939
123.119 -15.3828 -0.0316434
123.208 -14.5733 -0.0390836
123.329 -14.4877 -0.0446734
123.34 -14.3802 -0.0460572
123.414 -14.2836 -0.0495745
122.767 -7.12714 -0.284675
122.808 -7.02195 -0.28816
122.847 -6.91647 -0.291641
122.87 -6.86316 -0.293401
122.917 -6.75684 -0.296928
123.941 -4.39353 -0.382719
123.964 -4.28169 -0.386208
123.999 -4.16957 -0.389753
124.929 -1.12028 -0.492657
125.029 -0.985124 -0.49977
125.095 -0.857321 -0.505646
125.035 -0.810364 -0.50397
125.457 1.04616 -0.564856
125.496 1.17581 -0.569638
115.743 6.86403 -0.285031
115.887 7.27058 -0.305705
115.888 7.38156 -0.309086
115.945 7.52574 -0.317128
115.904 7.66798 -0.319716
103.175 8.57101 0.136221
103.068 8.546 0.140998
102.837 8.31943 0.15881
119.338 -8.46971 -0.271154
119.33 -8.37568 -0.272288
119.326 -8.28219 -0.272432
119.307 -8.18857 -0.272513
119.298 -8.0944 -0.273644
119.287 -8.04829 -0.273167
120.518 -4.93707 -0.386148
122.536 0.321445 -0.604213
122.592 0.390149 -0.60831
115.697 6.8219 -0.453324
98.3259 10.7208 0.0485097
109.995 -23.3127 0.16068
110.031 -23.2885 0.159225
110.135 -23.266 0.155494
48.6334 13.5285 -1.59835
107.181 8.44216 -0.583587
106.055 10.7352 -0.665194
109.05 2.4189 -0.490863
95.8019 0.761377 0.429164
110.52 -2.8432 -0.537877
82.2411 33.4548 -2.50242
58.9828 7.72226 -1.46903
101.592 -18.3997 0.135046
96.3598 1.01486 0.246585
107.562 -12.0938 -0.273159
99.378 3.33964 -0.203395
99.3332 3.35817 -0.201431
99.2476 3.40272 -0.199614
79.8917 37.7151 -3.75627
96.5378 -21.1268 -0.0012134
97.404 -18.055 0.00188523
90.3153 5.30517 -0.361581
80.2381 38.426 -4.71768
102.308 -13.069 -0.413308
95.508 0.424897 -0.156435
99.8439 -14.2187 -0.396359
91.982 -16.8393 -0.117749
92.7964 0.795042 -0.403313
80.0049 -14.4308 -0.569842
94.8133 -4.01517 -0.566318
47.0522 -3.31351 -13.9314
47.0711 -3.45038 -13.9178
88.6384 -6.22351 0.492936
88.6032 -6.23671 0.490252
88.8174 -6.54335 0.620145
88.8942 -6.57137 0.628161
88.898 -6.58795 0.636351
88.8064 -6.47798 0.554375
88.8299 -6.52547 0.578865
88.8206 -6.52015 0.574839
88.7992 -6.49305 0.559594
88.7733 -6.46133 0.54031
88.732 -6.40334 0.507766
88.711 -6.38033 0.49357
88.7348 -6.42683 0.518046
88.7301 -6.42418 0.515034
88.7406 -6.44975 0.528307
88.6806 -6.36706 0.480536
88.7339 -6.56138 0.570726
88.7661 -6.66937 0.620932
88.6487 -6.52043 0.533583
90.869 -9.04765 0.421347
90.825 -8.99552 0.451893
90.8436 -9.00638 0.442947
90.8482 -8.9604 0.455357
2.6415e-40 0 1.15033e-41
