ply
format ascii 1.0
element vertex 638
property float x
property float y
property float z
end_header
88.5631 11.6713 2.75035
89.3328 12.3691 2.77573
38.5774 16.7755 1.19368
24.8069 18.7517 0.979481
24.6937 18.571 0.973703
3.77478 21.0029 1.18804
0.971445 15.3452 1.15157
-29.9041 40.5465 2.31406
-29.8377 40.2328 2.30727
-35.76 41.4196 2.4801
-26.5804 33.5107 2.12915
-26.8346 33.4734 2.13533
-26.395 30.1609 2.08255
-4.07023 14.335 1.27599
-5.52965 14.1627 1.31672
-5.57758 14.085 1.31725
-31.2933 24.2771 2.16798
-51.3859 30.6969 2.82581
-37.6303 23.7555 2.35859
-36.4224 21.9167 2.30979
-34.5616 18.4731 2.23538
-41.7963 -17.9052 2.70956
-42.7371 -18.9213 2.75634
-28.458 -19.1191 2.3083
-28.3929 -19.1804 2.30775
-18.6808 -16.5354 1.95443
-19.7335 -17.4248 2.00429
-35.2669 -26.3095 2.66422
-6.4544 -14.2476 1.5354
-5.1875 -14.0208 1.49323
-5.02999 -14.0347 1.48937
-4.80237 -14.008 1.48126
-4.93229 -14.1837 1.48945
-4.93548 -14.2877 1.49217
-3.40116 -14.0392 1.44193
-3.41801 -14.2966 1.44872
-3.33326 -14.3439 1.44707
-3.01999 -14.4467 1.44089
-3.24019 -14.6859 1.45349
-3.15079 -14.7805 1.45318
-3.01426 -14.7933 1.44931
-2.11874 -14.6049 1.42028
-2.06512 -14.9149 1.42646
-1.8059 -14.8368 1.417
-1.96951 -15.7076 1.44501
-1.43478 -16.0877 1.44084
-1.42985 -16.4504 1.45036
-1.33699 -16.6963 1.45511
-9.74718 -23.47 1.86462
1.85041 -14.7826 1.31779
2.38487 -14.5261 1.29618
2.48115 -14.5829 1.2956
2.60285 -14.572 1.29257
2.64825 -14.6253 1.29295
5.75014 -14.4853 1.21297
5.90059 -14.4197 1.20756
5.94973 -14.4582 1.20785
6.06334 -14.4289 1.20368
6.02375 -14.56 1.20858
6.16597 -14.4991 1.2032
6.28177 -14.4658 1.20001
6.36616 -14.42 1.19671
6.40797 -14.4651 1.19704
6.47523 -14.4815 1.19618
6.57211 -14.4663 1.1931
91.2582 -15.9087 3.05741
91.2876 -15.6799 3.05482
91.328 -15.4527 3.05325
91.3545 -15.2227 3.05066
91.3849 -14.9939 3.04907
91.4165 -14.8834 3.04831
91.4677 -14.6587 3.04676
91.4754 -14.4258 3.04414
88.3374 11.0947 2.30128
89.2974 12.1544 2.3252
24.8162 18.7153 0.853734
-35.0591 40.7306 2.01912
-39.055 24.9766 2.00461
-39.6479 24.5717 2.01824
89.6863 -15.8949 2.54979
89.7273 -15.6737 2.54726
89.7675 -15.4514 2.54573
89.7977 -15.2267 2.54417
89.8011 -14.9976 2.54058
89.8551 -14.778 2.54006
89.8972 -14.5568 2.53854
89.8939 -14.4415 2.53673
89.936 -14.2203 2.5352
-33.7428 25.5859 1.59706
-36.0702 22.9258 1.63885
79.9861 -21.3829 2.06791
-31.9447 28.1242 1.12494
95.2552 -23.2307 1.83068
93.9641 -16.8389 1.74273
95.8053 -16.499 1.76695
80.7037 -21.1189 1.26128
87.6736 -22.0759 1.33919
41.276 12.8168 0.438115
27.1884 8.19779 0.422776
-32.3287 43.0778 0.337596
-33.7202 32.9657 0.392615
-54.9235 24.4391 0.494222
78.2185 -21.0462 0.802962
79.8272 -21.1935 0.809506
85.8461 -21.786 0.833569
91.042 -19.4489 0.832952
88.8817 -15.7498 0.797481
88.8992 -15.6395 0.796718
88.9649 -15.4256 0.795248
88.9663 -15.1974 0.792658
89.0023 -14.9779 0.791141
89.0354 -14.7563 0.789607
89.1021 -14.5433 0.788144
89.1133 -14.3176 0.786575
89.1199 -14.2058 0.785798
99.1633 7.66502 0.289609
98.423 7.71598 0.290016
96.2093 7.97861 0.290474
50.9808 6.04617 0.359411
69.688 10.5404 0.304103
39.3589 17.9387 0.280804
-27.4023 38.5627 0.0626344
-39.3426 43.1901 0.00755159
80.1091 -21.2667 0.509099
68.423 -16.5225 0.492285
88.9914 -15.7416 0.462451
88.7353 -15.4565 0.461382
88.7102 -15.3371 0.460542
88.7185 -15.1122 0.458977
88.7257 -14.8863 0.457405
88.7755 -14.6705 0.455918
88.8165 -14.4523 0.45441
88.8743 -14.2369 0.452928
89.2023 -13.9629 0.451124
89.7699 -13.8451 0.449485
94.1705 7.92585 -0.181825
92.5014 8.20744 -0.172323
69.0051 9.07041 -0.0028808
70.0933 12.9398 -0.0444956
34.1196 25.2644 0.0380669
-37.2921 26.7263 -0.26107
29.2248 -16.4119 0.409919
68.231 -16.6614 0.167184
96.1252 -23.457 -0.00250454
89.033 -15.8169 0.011978
89.4964 -15.4606 0.00664364
88.4137 -14.8849 0.0112842
88.3714 -14.6495 0.0106302
88.546 -14.4609 0.00837256
89.2219 -13.918 0.000805999
89.7203 -13.9018 -0.00314658
99.0102 2.63465 -0.66641
51.513 7.09608 -0.0577439
59.2801 11.0771 -0.202993
39.5454 16.2341 -0.0292655
36.1145 14.9969 0.0262551
11.1555 -0.455021 0.321918
11.4657 -0.458453 0.326042
68.1578 -16.689 -0.146655
68.3236 -16.5751 -0.149396
81.684 -20.8363 -0.311414
83.3609 -18.9737 -0.338855
79.1843 -16.2318 -0.292302
80.2736 -15.9128 -0.308176
92.1492 1.8567 -1.0712
50.0191 15.4789 -0.375646
36.0421 14.9484 -0.128434
24.8854 18.9054 -0.106592
66.1067 -19.5336 -0.4645
66.2992 -19.5282 -0.468476
66.6579 -19.5041 -0.475529
66.8174 -19.3969 -0.478224
67.0467 -19.3163 -0.482713
62.0328 -17.14 -0.384486
68.7543 -17.8828 -0.515154
69.2065 -17.8703 -0.524096
69.6992 -17.869 -0.532947
68.0609 -16.9489 -0.500884
68.1057 -16.794 -0.501949
70.1024 -14.603 -0.543576
70.7538 -14.2691 -0.556694
78.5683 -14.8373 -0.711228
81.3606 -12.0723 -0.7746
82.0113 -11.9947 -0.787932
82.1929 -11.8256 -0.792052
73.0825 2.86275 -0.960337
39.3347 13.5115 -0.275367
24.9444 18.9238 -0.209703
24.8818 18.9329 -0.208787
24.818 18.9381 -0.208844
59.425 -17.9974 -0.559354
72.0062 -12.6516 -0.859571
72.187 -12.5194 -0.864433
72.3391 -12.3809 -0.86835
71.5466 -11.0866 -0.850623
74.1253 -10.1143 -0.917572
74.2063 -9.77496 -0.919911
74.21 -9.59894 -0.921136
74.3027 -8.64438 -0.925758
72.7837 -7.9846 -0.888843
72.2364 -7.73593 -0.875751
71.9802 -7.53187 -0.870255
74.6813 -4.66839 -0.951343
66.8418 -2.49666 -1.042
66.8252 -2.34765 -1.04204
66.7976 -2.19808 -1.04209
66.7564 -2.12193 -1.04164
66.7638 -1.97411 -1.04266
66.7652 -1.825 -1.0437
66.7746 -1.67729 -1.04473
66.7989 -1.53033 -1.04575
66.7883 -1.38162 -1.04678
66.7897 -1.2335 -1.04782
66.7674 -1.1583 -1.04735
66.6857 -1.00902 -1.04541
66.6421 -0.860662 -1.04546
66.6655 -0.712655 -1.04749
66.5724 -0.269459 -1.0476
66.7724 -0.195372 -1.05406
66.9921 -0.0471843 -1.06202
67.5454 0.406676 -1.083
67.6591 0.559173 -1.08703
67.7849 0.712058 -1.09306
67.943 0.791241 -1.09856
68.105 0.947326 -1.10459
69.2926 1.91306 -1.14994
69.5765 2.00297 -1.15948
69.5332 2.15832 -1.15957
69.9546 2.33744 -1.17469
70.1944 2.50865 -1.1838
70.3651 2.67731 -1.19092
70.4253 2.84049 -1.19404
71.3115 3.4649 -1.22711
71.4513 3.63811 -1.23327
30.2093 17.3626 -0.336136
30.0972 17.3642 -0.334183
30.0286 17.3746 -0.333278
29.9644 17.3919 -0.333418
25.0347 18.8654 -0.32627
24.9707 18.8666 -0.325299
24.9104 18.8816 -0.325423
24.8477 18.8908 -0.325507
3.54065 20.4408 -0.547159
-27.7821 39.6749 -1.83628
52.8184 -17.0425 -0.623132
55.1183 -14.3129 -0.672415
55.0144 -14.2076 -0.669182
54.9539 -14.0554 -0.666262
55.248 -14.0421 -0.675261
56.1624 -13.6753 -0.700523
56.158 -13.5429 -0.699447
56.1565 -13.4127 -0.699355
56.2612 -13.3208 -0.701962
56.425 -13.2489 -0.70641
60.6243 -11.4818 -0.829378
64.3312 -11.3761 -0.942926
63.261 -10.3102 -0.908697
63.9888 -10.3327 -0.931307
64.2911 -10.2537 -0.940761
64.2479 -10.0973 -0.939864
64.3007 -9.9618 -0.940791
65.039 -9.4521 -0.964107
65.1346 -9.32272 -0.966978
65.5027 -8.94767 -0.979473
66.2956 -8.56787 -1.00387
66.3795 -8.4319 -1.00679
66.4128 -8.28638 -1.00779
66.3766 -8.12837 -1.0069
66.2255 -8.02768 -1.00265
65.76 -7.50273 -0.98946
67.3208 -6.60272 -1.04023
67.2807 -6.44451 -1.03935
67.2086 -6.2827 -1.0375
67.0761 -6.18996 -1.03419
67.0388 -6.03489 -1.03328
67.1279 -5.89418 -1.03623
67.229 -5.75407 -1.04017
67.2066 -5.60075 -1.03925
67.1275 -5.44059 -1.03739
67.0643 -5.28224 -1.03651
67.0381 -5.20483 -1.03606
66.9739 -5.04742 -1.03418
66.9634 -4.8957 -1.03424
66.932 -4.74295 -1.03432
66.9574 -4.59503 -1.03534
67.0506 -4.45352 -1.03929
67.1597 -4.31281 -1.04324
67.1974 -4.2406 -1.04473
67.1819 -4.08864 -1.04479
67.1584 -3.93728 -1.04486
67.118 -3.78407 -1.04394
66.9868 -3.62431 -1.04109
66.8755 -3.46654 -1.03823
66.9219 -3.32068 -1.04023
66.9333 -3.17207 -1.04126
66.928 -3.09771 -1.04178
66.9364 -2.94895 -1.04282
66.8869 -2.79729 -1.04189
66.8823 -2.64787 -1.04193
61.8338 1.8213 -1.1897
64.9144 4.76552 -1.33723
37.7045 13.2447 -0.518037
29.9577 17.4163 -0.467594
29.8304 17.4527 -0.466889
24.9033 18.9181 -0.457683
24.8407 18.9292 -0.457781
13.244 18.6206 -0.460356
-28.2808 33.7496 -2.07616
-54.316 27.8 -2.82708
58.243 -10.6083 -1.01723
60.9897 -5.26412 -1.11859
60.986 -5.19784 -1.11806
61.0274 -5.07076 -1.11993
60.7205 -3.7958 -1.11191
55.7223 1.14112 -1.16492
55.9548 1.26461 -1.17671
56.1832 1.38831 -1.1875
56.3004 1.50958 -1.1943
56.3945 1.62901 -1.19911
56.4505 1.74835 -1.20292
56.5307 1.8104 -1.20733
56.6641 1.93486 -1.21415
56.8165 2.06037 -1.22198
56.9962 2.18952 -1.23082
57.194 2.32076 -1.24167
57.3888 2.45315 -1.25153
57.5395 2.58375 -1.25939
57.7425 2.65867 -1.26885
57.8722 2.78932 -1.27572
57.9707 2.91754 -1.28158
55.3078 5.37493 -1.19456
54.7324 5.34173 -1.16951
45.9923 12.1455 -0.933725
29.922 17.4212 -0.589643
-46.4731 -2.64007 -2.50644
-46.2642 -5.43687 -2.48488
-44.6667 -6.43021 -2.41044
-44.7826 -6.64574 -2.41498
-34.5787 -11.6523 -1.9618
-29.8265 -13.0295 -1.75868
-29.5772 -13.1299 -1.74789
-29.0137 -13.4733 -1.72532
-28.8545 -13.5943 -1.71943
-28.7105 -13.7176 -1.71352
-28.5623 -13.758 -1.70719
-28.339 -13.8582 -1.69842
-28.0557 -13.9393 -1.68676
46.8469 -12.6115 -0.795931
53.5578 -10.1946 -1.05362
53.6464 -10.1049 -1.05622
53.6768 -10.0564 -1.05755
53.7023 -9.94753 -1.0583
53.6636 -9.82042 -1.0562
53.6801 -9.71011 -1.05596
53.7707 -9.61953 -1.05956
53.9176 -9.5448 -1.06504
54.0567 -9.46666 -1.07054
53.013 -8.79248 -1.02357
53.4595 -8.5125 -1.04138
54.8438 -5.91256 -1.09605
54.9678 -5.87573 -1.10227
54.9376 -5.75706 -1.1001
54.7932 -5.62066 -1.0941
53.3311 3.28121 -1.27561
53.4431 3.39972 -1.2834
53.4948 3.51326 -1.28717
53.5345 3.62541 -1.28994
53.6094 3.74278 -1.29573
53.7216 3.8643 -1.30254
53.8482 3.93403 -1.30999
54.0139 4.06387 -1.31984
54.1404 4.18967 -1.32768
54.3031 4.32166 -1.33755
54.3894 4.44448 -1.34337
54.525 4.57383 -1.35223
54.6244 4.69999 -1.35808
54.7329 4.82769 -1.36593
54.8195 4.89743 -1.37139
54.92 5.02454 -1.37825
55.0336 5.15599 -1.38513
55.1706 5.29128 -1.39402
55.2813 5.42288 -1.40091
55.4112 5.55952 -1.40982
55.5836 5.70303 -1.42076
55.9235 6.05239 -1.44209
56.0607 6.19467 -1.45204
50.7793 5.9193 -1.18781
51.7698 12.3869 -1.37256
51.7595 12.4414 -1.37295
51.7236 12.5433 -1.37367
51.6805 12.6436 -1.37438
51.6732 12.7581 -1.37718
46.0542 11.8569 -1.0957
45.8861 11.8793 -1.08891
46.048 12.0554 -1.10108
34.9329 8.46384 -0.500613
-18.8655 14.9789 -1.75633
50.3192 -9.3044 -1.09487
50.2878 -9.19068 -1.09267
50.3067 -9.0915 -1.09236
50.3899 -9.01056 -1.09589
51.7815 -6.62527 -1.15207
51.799 -6.57608 -1.15241
51.8696 -6.48451 -1.15602
51.8966 -6.38473 -1.15671
51.8869 -6.27811 -1.15645
51.0336 6.07731 -1.40683
51.1258 6.19882 -1.41365
52.0198 7.18005 -1.4812
49.0339 11.2114 -1.41625
49.0015 11.3051 -1.41691
48.9869 11.3529 -1.41725
48.9208 11.4333 -1.41583
48.8537 11.5137 -1.41542
46.0825 11.7801 -1.27916
46.0067 11.846 -1.27764
45.6316 11.7737 -1.25626
39.4166 15.3441 -1.08813
-14.288 -12.5194 -1.52523
-13.443 -12.9828 -1.48573
46.8345 3.29092 -1.27476
46.872 3.34009 -1.27809
46.9257 3.4345 -1.28273
47.0966 3.80935 -1.29829
48.2675 7.26744 -1.43601
46.1638 11.803 -1.4393
46.0635 11.8591 -1.43572
45.9241 11.8951 -1.42901
45.6853 11.8841 -1.41601
35.7933 -15.6198 -0.82952
36.117 -15.3927 -0.835999
35.9827 -15.1756 -0.822554
36.2324 -15.3073 -0.838557
44.2005 9.9173 -1.45479
44.1795 9.99944 -1.45637
44.1657 10.0842 -1.45796
43.8741 10.9628 -1.47018
24.4583 17.3169 -0.93468
20.3371 19.3411 -1.04611
20.2764 19.3691 -1.04733
43.5978 -6.61695 -1.21676
42.5473 10.1558 -1.48298
42.5036 10.223 -1.48246
42.467 10.2929 -1.48296
39.3677 14.8801 -1.49392
39.3864 14.9933 -1.50171
39.3936 15.098 -1.50743
24.4502 17.3948 -1.03123
-15.6215 9.20998 -2.3281
-15.6767 9.1066 -2.3294
-15.6431 9.03786 -2.32591
36.4651 -11.3478 -0.967077
40.9928 9.30203 -1.50053
40.9663 9.37143 -1.50102
40.9345 9.4371 -1.50149
40.9018 9.50381 -1.50197
40.8967 9.58214 -1.50451
24.469 17.329 -1.14577
29.7703 -15.1496 -0.902734
29.8235 -15.1272 -0.903872
41.3388 -3.10849 -1.29393
41.2905 -3.03296 -1.28948
41.2435 -2.99254 -1.28577
41.222 -2.92037 -1.28428
41.2364 -2.854 -1.28474
41.2587 -2.78704 -1.2862
41.2801 -2.72103 -1.28765
41.2904 -2.65347 -1.28912
41.2959 -2.58465 -1.2886
41.2976 -2.5507 -1.28883
41.2851 -2.47998 -1.28833
41.2875 -2.41201 -1.2878
41.271 -2.34109 -1.2863
41.2474 -2.27082 -1.2848
41.22 -2.19934 -1.28231
41.2204 -2.13128 -1.28278
41.1911 -2.09475 -1.28004
41.2025 -2.02725 -1.28151
41.192 -1.95762 -1.28
41.1754 -1.88871 -1.27949
41.1628 -1.81898 -1.27798
41.1662 -1.75207 -1.27844
41.1606 -1.6827 -1.27793
41.1593 -1.64959 -1.27816
41.1397 -1.57952 -1.27665
39.8367 4.13202 -1.36487
24.4663 17.3134 -1.24866
18.7994 15.4319 -1.02136
-4.98435 13.9085 -2.10942
-5.0594 13.8491 -2.11203
-5.12476 13.7833 -2.11359
35.6806 13.2221 -1.57756
35.6443 13.277 -1.57895
35.6163 13.2974 -1.5781
35.5622 13.3372 -1.5774
35.5071 13.377 -1.57569
35.4656 13.4281 -1.57606
35.4303 13.4839 -1.57746
35.3679 13.5171 -1.57571
35.3421 13.5825 -1.57818
35.2722 13.565 -1.57208
35.2558 13.6378 -1.57659
35.2111 13.6851 -1.57593
35.1403 13.7107 -1.57313
35.0715 13.7362 -1.57033
35.0373 13.794 -1.57175
35.0094 13.8574 -1.5742
24.4562 17.2511 -1.35123
38.679 -2.27699 -1.30458
38.663 -2.2151 -1.30302
34.465 12.719 -1.58444
34.4107 12.7538 -1.5837
34.3669 12.798 -1.58302
34.3314 12.8498 -1.5844
34.2781 12.8856 -1.58266
34.2582 12.9076 -1.58282
34.228 12.9651 -1.58523
34.2009 13.0235 -1.58765
34.1728 13.082 -1.59006
34.1488 13.1433 -1.5925
25.5023 17.1039 -1.48187
24.4152 17.2703 -1.46738
19.8752 15.539 -1.22277
18.6515 17.46 -1.42855
-2.19929 11.753 -2.0995
-2.26505 11.6992 -2.10215
-2.28786 11.6233 -2.10063
24.7574 -14.5414 -0.955583
24.8021 -14.3874 -0.943642
28.6834 -12.8542 -0.99908
32.8638 13.034 -1.60915
32.828 13.0809 -1.61049
32.7903 13.1268 -1.61082
32.7536 13.1737 -1.61216
24.4449 17.2611 -1.57831
19.9218 15.6291 -1.33039
19.8949 15.5124 -1.31758
14.5646 20.1678 -1.90175
15.1147 17.6912 -1.61931
14.7166 17.719 -1.63363
-2.11426 10.3856 -2.16995
-2.20245 10.3439 -2.17568
23.0755 -14.2574 -0.972103
34.518 -8.19389 -1.26669
32.5 12.304 -1.64118
32.4578 12.3412 -1.64145
32.4261 12.3898 -1.6428
32.3882 12.4317 -1.64311
32.3587 12.4422 -1.64219
32.3175 12.4803 -1.64247
32.2669 12.5099 -1.64069
32.2216 12.5442 -1.63994
32.1826 12.5852 -1.64024
32.1509 12.6328 -1.64258
24.4697 17.335 -1.70682
24.3849 17.2412 -1.69419
20.7231 19.6022 -1.90583
13.4979 -13.7516 -1.11771
31.9166 11.6892 -1.64909
31.8648 11.7149 -1.64628
31.8267 11.7528 -1.64656
31.7895 11.7907 -1.64683
31.7377 11.8153 -1.64502
31.6574 11.8114 -1.63802
31.6023 11.8322 -1.63518
31.5748 11.8426 -1.63426
31.5429 11.8852 -1.63557
31.4847 11.9031 -1.63271
20.309 19.0078 -1.95282
31.238 11.3936 -1.66024
31.1965 11.4237 -1.65947
31.1603 11.4616 -1.66074
22.0252 16.3624 -1.73883
22.2812 -12.3972 -1.07132
22.3948 -12.3678 -1.07149
32.6311 4.51886 -1.46189
32.6263 4.56314 -1.4642
32.6195 4.60753 -1.46551
32.6137 4.65186 -1.46682
32.6282 4.68015 -1.47101
30.301 10.6531 -1.69439
30.2593 10.6802 -1.69359
30.2354 10.7235 -1.6959
30.2098 10.7318 -1.69396
30.1828 10.7731 -1.69626
30.1484 10.8059 -1.6965
28.4771 8.95361 -1.72713
28.4802 9.01548 -1.73556
28.7865 6.0267 -1.55163
28.7752 6.0613 -1.55387
26.9746 -4.48249 -1.43198
22.9574 8.11374 -1.70205
23.3551 -7.2336 -1.42797
23.3767 -7.22166 -1.42805
23.566 6.84828 -1.63503
23.5447 6.86236 -1.63514
24.6607 -5.04484 -1.4218
24.2001 -14.988 -4.94775
24.2519 -14.9123 -4.92826
24.309 -14.9323 -4.9401
-15.0242 10.6431 -13.1192
22.1442 0.115267 -0.674549
22.1608 0.146416 -0.683761
18.5101 1.25054 -0.420622
20.0325 -1.84758 -0.324542
20.0096 -1.74501 -0.282263
20.0027 -1.70249 -0.264561
85.6462 -16.6489 -28.169
18.7395 0.973612 -0.297615
18.6757 0.799855 -0.256424
18.8098 0.979078 -0.302631
18.8428 0.918575 -0.271198
18.8267 0.935325 -0.28232
19.9212 -1.91261 -0.396126
19.9255 -1.90679 -0.393165
19.9213 -1.84934 -0.368566
18.7733 0.968733 -0.324571
18.6423 1.15177 -0.428891
18.7729 0.961756 -0.322523
18.7538 0.979654 -0.333654
18.7159 1.02142 -0.359958
18.6752 1.06831 -0.388298
18.6259 1.12459 -0.422707
18.6537 1.07932 -0.398382
18.6514 1.07344 -0.396342
18.6644 1.05384 -0.386201
18.6462 1.0687 -0.39631
18.4511 1.31072 -0.540063
18.595 1.02719 -0.396038
18.7269 0.863094 -0.297849
18.6399 0.904202 -0.338165
21.1846 -9.50992 -3.95887
21.1511 -9.13659 -3.78847
21.2367 -9.46936 -3.94513
21.1103 -1.42115 -0.529172
21.0364 -1.35607 -0.483648
21.0396 -1.35223 -0.483674
24.0153 2.05917e-39 0
