ply
format ascii 1.0
element vertex 531
property float x
property float y
property float z
end_header
136.17 -2.47589 3.74583
134.568 -2.03709 3.68402
136.704 3.54241 3.75919
137.504 4.96495 3.78996
137.164 5.41532 3.77719
137.458 5.94123 3.78873
110.196 33.1783 3.06418
93.681 23.2493 2.38181
93.502 23.2759 2.37701
93.5265 23.4694 2.3815
78.4331 12.1008 1.71834
64.0759 13.0869 1.42958
-0.110574 15.1691 2.72922
-4.59439 -16.7251 2.90876
-4.48416 -16.9149 2.9068
-3.65982 -19.285 2.90851
-11.2788 -25.0052 3.19476
16.531 -18.4215 2.32192
18.3951 -20.4974 2.30089
-3.67975 -30.1247 3.05627
27.5431 -18.4331 2.0192
37.1398 -17.9898 1.76137
37.1952 -18.0569 1.7608
21.7681 -27.7343 2.34503
21.8119 -27.9593 2.34891
40.9286 -17.4745 1.65798
40.9639 -17.5409 1.65833
51.91 -18.2063 1.46538
121.827 -40.3403 3.66239
122.169 -39.8907 3.66436
122.876 -39.7798 3.68586
129.753 -30.3422 3.75703
130.231 -30.0242 3.76896
129.366 -29.4513 3.72969
130.169 -29.5019 3.75908
130.375 -28.9549 3.7582
130.44 -28.7306 3.75776
130.66 -28.561 3.76311
130.878 -28.3889 3.76845
123.725 -20.2364 3.40226
123.742 -20.0287 3.40068
123.77 -19.8236 3.39915
123.748 -19.6066 3.39539
123.771 -19.5068 3.39517
123.807 -19.3048 3.39468
123.822 -19.098 3.3931
123.837 -18.8911 3.39052
123.877 -18.6897 3.39005
139.87 -2.52354 3.38284
138.179 3.57597 3.31901
139.242 4.92513 3.35206
139.409 5.19491 3.35789
139.215 5.2982 3.35179
139.208 5.54848 3.35098
136.815 5.51041 3.27649
135.207 6.39017 3.22628
135.058 6.6084 3.222
109.324 32.3208 2.63734
109.515 32.5803 2.6453
111.324 36.8421 2.75027
93.7059 23.223 2.10999
93.7555 23.4373 2.11452
64.1054 13.1734 1.32242
-3.05988 -29.6608 2.5963
-3.22138 -31.0205 2.6189
-3.15815 -31.229 2.6198
58.1892 -19.0353 1.34919
129.85 -29.9862 3.2843
122.073 -20.3005 2.93782
122.09 -20.0978 2.93626
122.062 -19.883 2.93247
122.06 -19.6769 2.93082
122.102 -19.4808 2.93038
122.103 -19.275 2.92774
122.121 -19.0735 2.92618
122.133 -18.8714 2.9246
122.132 -18.7683 2.92428
134.241 -19.4091 3.30293
140.263 -2.44913 3.01918
139.59 5.15797 2.98873
131.19 6.46998 2.76489
136.114 9.74315 2.89645
102.976 13.1 2.04383
90.1437 9.65737 1.70402
77.9062 8.91405 1.40617
109.592 32.4478 2.35902
109.479 32.6036 2.35808
111.34 36.7826 2.44352
111.41 37.101 2.4488
111.478 37.4198 2.45408
94.0262 23.4985 1.91841
93.9386 23.6034 1.91773
17.1016 15.9246 1.734
76.6219 -20.3581 1.52938
101.668 -23.9088 2.1581
121.915 -19.0794 2.62237
139.279 9.36383 2.37534
137.042 9.61126 2.33258
123.449 8.37076 2.07484
104.576 13.6447 1.72855
104.625 13.7449 1.72944
97.266 26.1206 1.65924
110.327 36.9689 1.93685
76.4768 -20.384 1.35187
129.417 -27.5965 2.34609
132.038 -28.2539 2.39967
132.354 -28.1096 2.40349
126.48 -21.0262 2.24178
126.64 -20.8463 2.24286
128.107 -21.1133 2.27259
128.277 -20.7036 2.273
121.665 -18.4346 2.13335
123.065 -18.2523 2.1584
139.329 9.01973 1.96762
139.313 9.27124 1.96777
104.61 13.7333 1.48641
90.5146 8.86048 1.29399
111.3 36.7254 1.61852
97.0471 25.8412 1.41323
96.98 25.9776 1.41354
96.5876 25.8467 1.40837
64.3005 13.9382 1.02682
33.2946 17.7072 1.05748
86.7136 -18.4977 1.33911
86.7593 -18.4152 1.33904
126.625 -20.936 1.89408
123.006 8.24583 1.29844
101.421 10.6887 1.1401
101.357 10.8106 1.13946
101.102 10.9364 1.13704
89.9097 12.7917 1.05628
96.5341 25.1154 1.08343
64.2423 -19.1727 0.996936
66.1317 -19.3432 1.00706
66.3264 -19.3437 1.00784
114.281 -25.7705 1.35157
114.994 -25.9634 1.35704
115.704 -26.0507 1.36316
117.309 -26.2861 1.37534
120.602 -26.832 1.40028
106.949 -20.9134 1.27995
125.064 -27.3899 1.43394
125.801 -27.4285 1.43903
127.074 -27.7718 1.44922
127.132 -27.0853 1.4463
132.545 -28.4763 1.49039
121.293 -20.3195 1.37873
123.729 -20.772 1.39693
123.752 -20.6712 1.3967
123.747 -20.4565 1.39601
123.765 -20.249 1.39544
123.832 -20.0543 1.3951
125.474 -20.2605 1.40734
126.613 -20.329 1.41613
121.536 -18.544 1.37316
123.02 -18.2825 1.38231
137.498 -19.3743 1.48988
116.939 7.28632 0.986058
90.4875 11.4078 0.903922
64.2883 13.9747 0.814652
64.215 13.904 0.815578
83.3631 -20.8942 0.984129
86.9837 -18.3359 0.988689
114.837 -25.779 1.07983
106.876 -21.2109 1.04758
107.002 -20.9254 1.0472
121.494 -20.144 1.08198
121.507 -19.9418 1.0814
121.535 -19.6419 1.08058
121.547 -19.4407 1.08
121.568 -19.2406 1.07946
121.589 -19.0426 1.07893
121.576 -18.835 1.07823
121.563 -18.6283 1.07753
134.29 -19.0449 1.11096
88.7555 9.32859 0.709452
79.2314 13.8539 0.700062
73.3551 18.9736 0.657473
67.732 17.9751 0.662998
64.3283 13.9971 0.699741
64.2312 13.8197 0.700905
23.0322 -9.99813 0.452726
27.5366 -15.9782 0.51149
86.9153 -18.1857 0.795943
112.208 -25.5159 0.715438
119.222 -26.4333 0.692479
120.348 -26.6536 0.688692
107.261 -20.883 0.731102
127.856 -27.7258 0.664203
121.174 -18.583 0.67982
121.427 -18.442 0.679394
123.501 -18.2119 0.671007
137.52 -19.2847 0.62068
138.944 -2.64713 0.0944622
137.439 -2.18508 0.107973
137.338 -1.94508 0.107817
133.916 -1.68013 0.141242
133.457 -1.46371 0.144723
132.808 -1.25652 0.15047
132.164 -0.601838 0.154839
132.238 -0.25976 0.152069
132.139 -0.0392527 0.152984
132.121 0.185365 0.152208
132.998 4.70999 0.12361
132.918 4.93201 0.123593
120.995 7.88426 0.225478
113.73 8.58395 0.291109
96.9762 25.5674 0.280785
96.7091 25.5415 0.283793
96.6542 25.6853 0.282124
79.2428 13.851 0.542115
77.0786 12.0648 0.577996
76.998 12.088 0.5786
67.7141 17.9873 0.522887
64.3012 13.8996 0.589935
53.8264 21.127 0.41729
87.0869 -18.3904 0.609269
118.693 -26.069 0.312212
108.33 -21.3273 0.414779
122.186 -20.2228 0.285995
128.506 -8.95911 -0.258775
136.582 -4.07234 -0.407588
135.269 -2.77369 -0.388915
134.896 -2.54477 -0.383129
111.632 1.60978 -0.00755732
111.168 1.72196 -0.000771892
110.829 1.84613 0.00448153
109.493 35.1808 -0.354944
93.9277 23.264 0.0307245
93.8045 23.3374 0.0310005
77.0812 12.0862 0.417938
73.3047 18.8817 0.317552
64.3186 13.9484 0.462851
53.8564 21.1406 0.237366
87.1723 -18.437 0.395754
108.177 -21.2215 0.0628313
106.902 -19.4413 0.0901491
110.112 -19.6652 0.0377462
117.184 -7.42017 -0.361069
120.215 -0.100582 -0.450741
94.5295 0.266558 0.111927
96.8237 4.35937 0.0313686
96.1885 4.33557 0.044891
92.5261 21.9015 -0.140656
91.0386 20.8683 -0.0954065
91.012 21.0052 -0.0979408
90.8694 21.048 -0.0966469
64.3502 13.9842 0.368865
64.2857 13.9557 0.369695
53.7721 21.1841 0.103889
50.9578 13.5705 0.27435
87.0332 -18.4183 0.243135
110.409 -18.4398 -0.229891
111.085 -18.466 -0.244094
121.425 -20.3332 -0.468726
112.782 -12.9759 -0.264411
108.199 -10.1953 -0.448504
108.161 -10.0376 -0.447149
108.292 -9.90215 -0.450047
108.429 -9.76649 -0.453921
108.51 -9.39411 -0.455756
108.476 -9.23703 -0.455383
108.382 -9.07363 -0.452273
108.301 -8.91312 -0.4501
108.27 -8.75744 -0.44871
108.287 -8.68409 -0.449871
108.308 -8.53364 -0.450253
108.309 -8.38231 -0.450723
108.531 -5.82474 -0.458815
108.738 -5.68163 -0.464428
111.731 -3.62975 -0.553813
114.634 -1.66758 -0.642275
113.811 -0.606815 -0.62389
114.001 -0.428026 -0.630684
113.66 0.138655 -0.623824
94.5367 0.15805 -0.0917075
92.4181 21.6361 -0.375265
92.15 21.7496 -0.372696
92.1776 21.9356 -0.377166
95.4562 24.7707 -0.511845
77.0091 12.0672 0.165704
64.2346 13.8302 0.26588
63.6663 17.4145 0.143407
53.86 21.1212 -0.0465629
-16.8019 15.1609 -2.03487
59.3415 -19.1787 0.429258
101.146 -17.133 -0.284186
103.364 -17.1954 -0.343079
105.278 -15.1357 -0.382819
105.864 -14.5288 -0.396359
106.652 -13.877 -0.415228
106.676 -13.7299 -0.41459
108.441 -11.7697 -0.457621
108.307 -11.6696 -0.453471
108.367 -11.5254 -0.454679
108.456 -11.3852 -0.456759
108.452 -11.2303 -0.457259
108.505 -11.0842 -0.4585
108.489 -10.9274 -0.457057
108.426 -10.7634 -0.45482
108.324 -10.6716 -0.452518
108.314 -10.5168 -0.452041
108.22 -10.3506 -0.448935
101.053 -9.26383 -0.517124
101.037 -9.1314 -0.516602
101.029 -9.00119 -0.516038
101.101 -8.88087 -0.518125
101.172 -8.76042 -0.520215
101.246 -8.63925 -0.523299
101.283 -8.5788 -0.524337
101.285 -8.44882 -0.523736
101.256 -8.31562 -0.523269
101.225 -8.18327 -0.521804
101.206 -8.05142 -0.521293
101.199 -7.92121 -0.520729
101.332 -6.51318 -0.524591
101.35 -6.38552 -0.525915
105.971 0.623686 -0.71223
105.938 0.764507 -0.711803
105.981 0.913086 -0.714096
105.857 1.04409 -0.711
91.6985 21.3356 -0.61622
95.4683 24.5482 -0.801105
95.5169 24.7697 -0.808601
58.8916 15.1678 0.0842364
46.5718 17.9797 -0.23704
-2.13372 15.0886 -1.95072
-3.03573 15.1416 -1.98851
-4.0645 14.8962 -2.02687
6.69811 -14.0894 -1.41515
7.58424 -14.5229 -1.37924
85.3922 -17.0956 -0.0675903
97.2215 -15.7518 -0.424264
97.139 -14.4626 -0.41062
99.7376 -12.719 -0.485623
99.996 -12.7121 -0.494607
101.036 -10.2376 -0.519151
101.049 -10.1091 -0.519502
101.023 -9.97437 -0.518027
101.035 -9.84575 -0.518381
101.035 -9.71564 -0.517785
101.026 -9.58515 -0.51723
101.046 -9.45776 -0.517545
101.047 -9.39326 -0.517743
96.3716 -8.66776 -0.571793
96.3633 -8.55155 -0.570189
96.3709 -8.43753 -0.570514
96.433 -8.33098 -0.572597
96.5119 -8.22676 -0.575606
96.5642 -8.11786 -0.577735
96.5916 -8.00656 -0.578973
96.652 -7.89776 -0.58107
96.6467 -7.84051 -0.58027
96.6315 -7.72335 -0.579697
88.0376 13.516 -0.508519
59.7876 11.0429 0.172713
11.7717 -12.1698 -1.48776
83.7182 -19.5158 -0.226763
83.6214 -19.3975 -0.220521
96.3559 -8.72314 -0.570683
6.12646 13.6106 -2.25792
5.45555 12.877 -2.27933
1.73715 10.5275 -2.43593
1.42787 10.4064 -2.4508
10.8544 -7.58929 -1.80675
76.429 -18.1686 -0.0902515
90.9391 7.61061 -0.871433
90.9134 7.71003 -0.871847
90.9505 7.94314 -0.879426
90.8428 8.01143 -0.876072
90.8938 8.14067 -0.88127
90.4449 8.12867 -0.859036
90.5751 8.28944 -0.869015
90.496 8.36793 -0.867578
90.4317 8.45145 -0.866096
54.6479 18.4995 -0.51322
54.5924 18.5656 -0.51865
12.1532 11.0432 -2.21869
13.3859 8.03392 -2.09135
13.4518 7.86035 -2.08454
81.6973 -15.4324 -0.36863
81.8013 -15.3588 -0.371442
86.9538 -12.6994 -0.566045
88.8222 -11.2452 -0.641079
87.6691 -3.14619 -0.694992
87.6282 -3.06184 -0.69342
87.6817 -3.01771 -0.696343
89.0839 7.32208 -0.936987
89.0285 7.40338 -0.936464
88.9037 7.45787 -0.931135
88.8835 7.5535 -0.932514
88.8728 7.60039 -0.932704
21.4235 2.74954 -1.74756
21.4312 2.62231 -1.74513
21.3955 2.50204 -1.7459
20.6728 -1.37371 -1.7557
75.2728 -18.6352 -0.313443
82.526 -12.8776 -0.479277
86.0264 -0.910242 -0.795573
87.5875 3.00139 -0.954513
87.5825 3.08989 -0.956809
86.6229 6.76044 -0.987122
86.61 6.85003 -0.988454
86.6021 6.89552 -0.989627
59.5578 -19.0988 -0.13613
83.0992 -7.22359 -0.706625
83.102 -7.15131 -0.705839
83.7095 5.32919 -1.05736
83.6891 5.36429 -1.05755
83.6499 5.43225 -1.05692
83.6238 5.50649 -1.05726
83.5912 5.57759 -1.05761
78.4865 8.17256 -0.819216
71.9628 10.9289 -0.616027
62.9908 11.7955 -0.513776
56.3737 6.19444 -0.0938722
78.5092 -9.24601 -0.652752
54.8978 13.1772 -0.835607
54.871 13.0779 -0.827405
77.1926 -2.43706 -0.809297
77.1939 -2.38373 -0.810459
77.1858 -2.33216 -0.809652
77.1707 -2.28062 -0.808874
77.1693 -2.25418 -0.808962
77.1268 -1.70329 -0.812852
71.2225 11.9761 -1.11628
70.4197 12.4951 -1.12112
66.6323 -16.0536 -0.496217
66.8695 -15.9953 -0.501447
67.1044 -16.0195 -0.514427
69.0065 11.2691 -1.05097
70.8432 -13.2164 -0.696159
63.84 11.4683 -1.15035
63.7993 11.6273 -1.17001
59.1798 5.25347 -0.319664
73.5502 4.87022 -1.20875
68.5969 3.70361 -0.599996
64.5233 10.9292 -1.20592
64.4742 10.932 -1.20513
64.4329 10.9618 -1.20739
72.6308 4.40908 -1.172
63.5905 10.604 -1.23566
63.5461 10.6192 -1.23688
63.5254 10.6301 -1.237
63.4837 10.657 -1.24025
63.4406 10.674 -1.24148
63.3964 10.6902 -1.24271
63.3529 10.7113 -1.24495
63.3069 10.7146 -1.24414
63.2595 10.715 -1.24333
63.2402 10.7358 -1.24548
63.1923 10.7323 -1.24366
63.1501 10.7563 -1.2469
63.078 10.6209 -1.22577
63.1939 10.2739 -1.24322
63.1474 10.2661 -1.24138
63.1088 10.3077 -1.24667
67.6793 -12.7731 -0.755254
63.061 9.72379 -1.25804
63.0185 9.73062 -1.25823
62.9778 9.75034 -1.26045
62.9869 10.0356 -1.30431
51.6276 7.39582 -1.37671
63.1766 8.72075 -1.25144
63.1342 8.71346 -1.24859
63.0955 8.72583 -1.24978
63.0587 8.74401 -1.25099
63.0398 8.75366 -1.25209
63.0006 8.76207 -1.25228
62.9639 8.78124 -1.25449
62.9253 8.7946 -1.25568
62.8878 8.80783 -1.25687
62.8512 8.83505 -1.26011
62.8099 8.82861 -1.25825
62.7924 8.84816 -1.26138
62.7529 8.85459 -1.26156
62.713 8.85806 -1.26073
56.313 8.85116 -1.36143
56.2702 8.84795 -1.36259
56.2316 8.83204 -1.36269
62.1504 5.44402 -0.79433
62.1063 5.36533 -0.780262
52.5589 -10.4396 -0.959288
62.8275 7.59571 -1.27833
62.7942 7.61037 -1.28051
62.7581 7.61936 -1.28069
62.7238 7.63416 -1.28287
62.6913 7.65477 -1.28506
62.6543 7.65782 -1.28422
62.6166 7.65493 -1.28337
69.403 -6.76288 -0.82409
62.5698 7.26967 -1.29635
56.3518 5.8898 -1.18202
63.4696 -11.9763 -0.779654
62.4402 6.86147 -1.3116
62.4011 6.83455 -1.30567
62.3611 6.8007 -1.29773
59.0205 -8.42272 -1.00262
63.0205 -3.61202 -0.21956
59.5617 -2.18166 0.0380827
59.5031 -2.16761 0.0208033
89.5553 0.214415 -11.734
89.586 0.312105 -11.7532
89.5897 0.405443 -11.7605
89.5953 0.453117 -11.7656
59.7232 -2.48616 0.155684
123.5 -19.8412 -26.8913
123.568 -19.6477 -26.8996
59.7645 -2.43639 0.125694
59.8036 -2.51836 0.166107
59.7935 -2.50388 0.158021
59.742 -2.46865 0.115704
59.5775 -2.18604 -0.0348408
59.7392 -2.47432 0.11771
59.7308 -2.46914 0.113661
59.6976 -2.42528 0.0883898
59.6621 -2.37606 0.0610931
59.6236 -2.31938 0.0287611
59.6372 -2.3515 0.0449165
59.6371 -2.35955 0.0479413
59.645 -2.38281 0.0590456
59.6348 -2.37637 0.0539844
59.5143 -2.19859 -0.0450559
59.6797 -2.56099 0.136742
59.6365 -2.5672 0.127588
59.2849 -5.05285 -0.0180679
59.2712 -5.13887 -0.0508548
61.8446 -5.03294 -0.0738468
61.7947 -4.97653 -0.0392231
61.7961 -4.9737 -0.0392263
26.6242 1.91467e-39 0
