ply
format ascii 1.0
element vertex 491
property float x
property float y
property float z
end_header
166.605 -5.69317 3.58671
161.619 17.6804 3.26261
154.304 20.5539 3.06164
140.393 21.7157 2.70724
121.605 11.5727 2.21692
99.0857 13.4916 1.79594
97.8607 29.1569 2.06659
97.7681 29.2722 2.06846
80.9242 46.6764 2.47112
78.1208 45.322 2.47237
76.2192 47.3562 2.53365
76.2189 46.5225 2.51711
76.1429 46.4647 2.51728
66.5886 13.621 2.16213
66.4409 13.6341 2.16667
63.609 11.529 2.23438
52.7794 15.1808 2.60685
50.6081 13.6187 2.67488
50.1427 13.726 2.69067
43.9639 15.8558 2.90945
41.4697 16.5315 2.99729
41.0764 16.5496 3.01095
39.6527 16.7088 3.06169
39.5199 16.5854 3.06603
37.6393 17.0315 3.13205
36.555 17.1621 3.17052
39.1023 14.5379 3.07921
39.3669 14.2342 3.06909
38.1205 13.9526 3.11403
38.1269 13.7648 3.11458
27.2118 18.2081 3.50459
23.9766 18.5195 3.62104
38.4677 12.4348 3.1032
23.9333 18.0691 3.62344
38.0808 12.0469 3.11742
27.9867 15.9033 3.4785
27.253 15.534 3.50615
28.8718 14.7062 3.44865
28.9178 14.4773 3.44757
28.9485 14.2547 3.44648
28.9515 14.1482 3.44693
28.853 13.7643 3.45069
28.8177 13.5673 3.45257
27.9413 13.1397 3.48571
27.8558 12.959 3.48961
16.5896 15.5575 3.89769
18.6043 14.6657 3.82615
16.5027 13.1312 3.91046
18.2265 -8.59391 4.04373
25.1873 -8.68443 3.77611
28.5374 -9.83672 3.66366
26.0494 -10.2255 3.76511
18.2622 -11.4414 4.0857
43.203 -10.3944 3.10499
25.9964 -11.8866 3.7932
25.277 -12.3326 3.82883
42.2628 -11.2471 3.15529
49.2554 -11.4745 2.8894
52.533 -11.984 2.77247
52.4011 -12.2277 2.78246
53.4841 -12.3045 2.74225
53.4994 -12.5785 2.74594
53.5452 -12.682 2.74614
53.4484 -12.8075 2.75233
53.1728 -12.9618 2.7658
29.5848 -18.0626 3.76665
32.9856 -17.8949 3.63381
55.0989 -13.9365 2.71183
55.1892 -14.0253 2.70961
55.6378 -14.7301 2.70712
23.0415 -24.375 4.14726
27.1226 -23.5193 3.97465
40.9951 -20.7419 3.39199
19.8954 -27.1447 4.32764
41.104 -21.1878 3.39759
41.2847 -21.2945 3.39318
43.9919 -21.1736 3.29035
43.9513 -21.3374 3.2958
33.5167 -32.4783 3.96472
71.0255 -19.5861 2.28304
74.9485 -20.9784 2.21311
74.9722 -21.0384 2.21382
101.212 -23.8107 2.2024
162.291 -32.7451 3.97356
162.891 -32.0329 3.97286
149.252 -21.3624 3.3514
149.242 -21.259 3.34903
149.267 -21.0626 3.34521
149.277 -20.863 3.34141
149.322 -20.6705 3.33855
149.81 -19.6615 3.3323
166.368 -21.4892 3.83801
161.159 18.8261 2.75305
140.869 21.6786 2.3354
140.093 21.4642 2.32112
26.6615 15.1786 3.11386
49.2732 -11.3877 2.6411
44.9768 -18.1408 2.90283
23.2717 -24.4516 3.71615
120.555 -27.179 2.49073
148.876 -31.778 3.17238
163.758 -32.1751 3.49455
148.737 -21.53 2.94416
148.752 -21.3321 2.94137
148.76 -21.1333 2.9376
148.814 -20.9451 2.93475
148.774 -20.8363 2.93145
150.334 -19.4401 2.93868
161.198 -20.2054 3.19442
163.807 16.6591 2.44493
123.44 5.82848 1.84092
142.149 19.9205 2.07632
141.406 21.6906 2.0596
110.104 34.2514 1.72803
109.791 33.976 1.72433
109.561 33.8552 1.72211
77.3823 46.1306 1.89178
23.5147 -10.3128 3.15256
164.355 13.3799 1.87828
163.859 13.5004 1.87304
163.067 17.8029 1.82474
161.52 20.4133 1.78737
143.834 23.0954 1.60944
97.5702 26.3463 1.35556
83.7014 66.6672 1.46373
81.9263 66.8984 1.47418
82.7117 47.3279 1.44137
83.4813 37.6458 1.42372
82.1153 47.1982 1.44505
77.7692 46.4703 1.47518
76.208 47.5953 1.48831
76.5964 45.3492 1.48329
76.4505 45.2196 1.48379
75.7564 47.5883 1.4926
75.5701 47.6059 1.49426
12.7599 -26.9753 3.14587
30.9607 -22.4698 2.70943
49.0341 -26.4645 2.43948
48.1114 -26.9897 2.46719
47.9559 -27.2219 2.47414
154.409 -31.5821 2.41472
163.374 -32.8312 2.52333
148.376 -21.5409 2.17499
164.698 -20.4313 2.32043
166.592 -5.65267 1.71801
163.084 17.7027 1.41999
163.108 17.975 1.41813
162.788 20.3846 1.39156
82.3695 37.3714 1.19887
77.0717 47.2976 1.19517
71.9002 68.3741 1.14959
76.3146 45.821 1.20615
76.2414 45.7537 1.20743
76.087 45.6567 1.20851
125.256 -27.3836 1.84963
158.778 25.3449 0.780802
143.343 19.7898 0.881186
144.007 22.7978 0.842607
140.884 21.7572 0.862091
98.2539 26.622 0.923403
97.0945 26.4194 0.930823
83.5118 68.5987 0.546005
83.2708 68.6231 0.54684
83.0288 68.6477 0.548678
82.7857 68.6856 0.549339
82.6627 68.7294 0.549334
82.4191 68.7563 0.550149
81.9325 68.8219 0.551612
83.3454 48.4296 0.761076
76.3823 46.4847 0.818656
76.3527 45.798 0.826241
76.1478 45.9334 0.825375
12.5971 -20.2989 2.11377
158.628 -32.2927 1.56389
163.396 -32.9018 1.56409
148.322 -20.8784 1.41606
148.35 -20.6863 1.41329
148.362 -20.4901 1.41053
148.371 -20.2934 1.40778
148.392 -20.0995 1.40501
148.415 -19.7078 1.39852
142.205 19.6758 0.598251
111.194 36.2381 0.539292
86.6889 62.7869 0.260421
71.6653 68.424 0.244946
71.4095 68.4505 0.245825
71.142 68.5293 0.246043
75.9919 45.7672 0.57139
25.1154 -17.2033 1.67034
49.1556 -21.0236 1.64102
49.134 -21.168 1.64311
120.493 -22.9608 1.32892
135.494 -28.7728 1.31091
148.139 -21.3158 1.13194
148.147 -21.119 1.12919
148.128 -20.9164 1.12649
148.1 -20.7113 1.12381
148.096 -20.5128 1.1211
148.099 -20.4142 1.11973
148.132 -20.224 1.11696
148.182 -20.0373 1.11415
148.213 -19.8457 1.11136
157.193 -14.7166 0.543156
156.833 -14.4608 0.544392
167.167 -6.88388 0.310993
161.63 1.56962 0.260698
156.113 2.41611 0.317878
156.053 2.62585 0.316291
145.443 5.72769 0.402221
140.272 7.69943 0.436255
159.539 14.8995 0.0816122
158.699 14.8806 0.0919567
76.5487 44.9643 0.239685
158.42 -31.5181 0.730167
159.118 -29.6535 0.70014
160.931 -29.7156 0.678177
162.822 -29.9047 0.657589
162.874 -28.2627 0.637761
162.937 -28.0273 0.634219
148.428 -21.6357 0.739885
148.326 -21.412 0.738306
148.907 -21.3438 0.730542
147.853 -20.9079 0.738672
147.853 -20.7099 0.73595
148.514 -20.4571 0.724264
148.714 -20.4 0.721506
148.702 -19.6013 0.711584
161.238 -20.0662 0.559038
153.792 -13.5802 0.165025
154.278 -12.9943 0.148609
160.986 -7.55966 -0.0497159
105.428 11.0116 0.632085
105.339 11.0344 0.632203
96.0001 14.4283 0.65994
98.7289 30.5443 0.198102
79.5727 32.7116 0.240412
79.4789 32.5291 0.245377
76.6185 13.5544 0.759155
139.786 -29.1455 0.587094
140.646 -29.2123 0.571831
141.027 -29.1739 0.565454
141.382 -29.1229 0.558023
141.669 -29.0418 0.552516
141.803 -28.8995 0.548905
142.12 -28.8277 0.54238
142.284 -28.6957 0.538766
142.478 -28.673 0.534511
143.017 -27.2067 0.511737
142.834 -24.8379 0.493062
145.841 -23.9005 0.429557
146.146 -23.7887 0.422537
146.462 -23.4816 0.413775
145.855 -23.0238 0.420433
146.188 -22.9159 0.413334
146.371 -22.7684 0.408417
146.857 -22.6967 0.398069
147.235 -22.5954 0.390837
150.459 -21.5427 0.319692
148.294 -20.6613 0.350102
148.287 -20.4614 0.348386
150.481 -20.0075 0.302477
141.271 -14.9469 0.0426484
141.081 -14.8348 0.0460309
141.295 -14.523 0.0367071
141.362 -14.1903 0.0318035
141.391 -14.0237 0.0293732
141.544 -12.5082 0.00779779
145.043 -4.73978 -0.186013
144.969 -4.65333 -0.185839
144.909 -4.4771 -0.186972
144.785 -4.30479 -0.186738
144.697 -4.13051 -0.186706
144.483 -3.96435 -0.183946
157.587 13.5565 -0.826538
157.251 13.6936 -0.82079
79.9101 31.1435 0.00730304
79.8054 31.0403 0.0112301
76.6621 13.6012 0.590281
121.322 -23.3707 0.609452
129.791 -26.906 0.424868
131.048 -26.4278 0.392184
131.209 -26.3368 0.388148
131.38 -26.33 0.383224
131.547 -26.2399 0.379171
128.596 -22.8946 0.430536
130.868 -22.4551 0.372446
131.102 -22.3845 0.366342
131.296 -22.2992 0.360226
131.665 -22.2725 0.351061
139.973 -20.9761 0.133842
140.844 -18.1384 0.0855961
134.358 -14.1145 -0.0302056
134.427 -13.9758 -0.0334443
134.492 -13.8357 -0.0366889
134.517 -13.6898 -0.0388161
134.803 -12.7561 -0.0580433
134.821 -12.6092 -0.0601506
134.834 -12.4606 -0.0622578
134.869 -12.3897 -0.0633986
134.925 -12.2462 -0.066643
134.964 -12.1013 -0.0698246
134.999 -11.9549 -0.073009
135.021 -11.8085 -0.0751277
135.03 -11.6593 -0.0772234
135.058 -11.5128 -0.0793736
135.049 -11.4378 -0.0803599
135.075 -11.291 -0.0825044
135.11 -11.1445 -0.0856886
135.129 -10.9967 -0.087813
135.157 -10.8493 -0.0899775
136.496 -8.11331 -0.166102
137.139 -7.11476 -0.199957
137.916 -6.39998 -0.234557
137.951 -6.24248 -0.237896
138.049 -6.08177 -0.242581
138.173 -5.91982 -0.249411
137.59 4.01902 -0.402212
138.552 5.00099 -0.45039
138.546 5.33724 -0.456981
138.64 5.4459 -0.461934
138.85 6.18538 -0.483121
138.849 6.35617 -0.487466
138.829 6.52276 -0.489656
139.279 8.4014 -0.542671
81.8961 62.9676 -1.45795
81.6917 62.7536 -1.44902
81.2515 62.6914 -1.44502
82.5882 44.3309 -0.719062
43.523 14.1709 -0.0425645
131.942 -18.59 0.0830673
132.262 -18.5218 0.0725741
132.363 -18.3989 0.0693953
132.468 -18.2756 0.065188
132.566 -18.1513 0.0610036
132.649 -17.8006 0.0557769
132.656 -17.6541 0.0547296
132.748 -17.5269 0.0505338
132.772 -17.3848 0.0484666
132.82 -17.2472 0.0463422
132.879 -17.1124 0.0431977
132.925 -17.0482 0.0410941
133.547 -16.2102 0.0145494
133.392 -16.0323 0.0178596
133.658 -15.7857 0.00817329
133.83 -15.6669 0.00170578
133.921 -15.5346 -0.00255864
133.932 -15.3877 -0.00463154
133.907 -15.3094 -0.00458649
133.937 -15.1651 -0.00671375
133.996 -15.0262 -0.00991252
134.001 -14.8784 -0.0109683
134.004 -14.7313 -0.013004
133.999 -14.5821 -0.0140313
134.029 -14.4379 -0.0161586
134.17 -14.3854 -0.0215651
134.295 -14.2548 -0.0259669
129.037 -12.987 -0.123854
128.977 -12.5197 -0.126984
128.958 -12.3867 -0.127722
128.971 -12.2572 -0.128564
128.955 -12.1247 -0.129311
128.92 -11.9903 -0.129986
128.993 -11.8685 -0.134016
129.023 -11.7404 -0.13592
129.079 -11.6808 -0.139013
129.086 -11.5515 -0.140825
129.123 -11.4246 -0.143752
129.15 -11.296 -0.145648
129.36 -9.61411 -0.172793
130.464 -7.19497 -0.24542
130.623 -6.92487 -0.254905
130.768 -6.65378 -0.264337
130.825 -6.51752 -0.268487
130.921 -6.31213 -0.274778
131.027 -6.17378 -0.280194
131.451 -5.61249 -0.304971
131.496 -5.54224 -0.307158
131.553 -5.40187 -0.311362
132.312 -4.31414 -0.357011
132.354 -4.17163 -0.360173
132.429 -4.02478 -0.365554
117.94 0.992522 0.065938
90.7917 10.8514 0.465399
82.5768 49.1199 -1.24789
125.427 -18.6183 0.0471133
126.331 -15.0447 -0.007406
124.275 -11.8181 -0.200788
126.275 -3.51878 -0.400608
126.348 -3.38891 -0.406749
107.524 2.61004 0.24134
81.8441 63.1935 -2.3539
81.651 62.8537 -2.33629
115.529 5.81953 -0.355741
115.447 6.21093 -0.364726
104.028 4.13171 0.203413
103.958 4.1589 0.204379
17.0129 -15.1081 -1.39441
120.764 -12.81 -0.239093
119.686 -2.48077 -0.512868
106.707 9.00519 -0.249644
82.823 45.6509 -2.06449
115.605 -4.85105 -0.418443
115.63 -4.76073 -0.421806
115.675 -4.66817 -0.426296
106.427 1.96145 -0.0714468
96.0659 13.0933 -0.253126
106.727 -22.5742 0.0813738
106.818 -22.4528 0.0792664
106.776 -22.3245 0.0847047
106.768 -22.2698 0.0859925
112.89 -16.9046 -0.173536
101.985 7.41469 -0.218834
81.4994 66.7006 -4.27764
83.2026 41.6648 -2.38858
48.1325 13.9048 -1.57147
38.3639 -8.18049 -1.48841
38.3346 -8.25813 -1.4882
102.336 -20.4558 0.237614
102.463 -20.4054 0.232301
104.449 -19.992 0.13796
105.483 9.37645 -0.671844
82.9779 64.6804 -4.63009
82.7407 64.8021 -4.63961
82.3413 64.051 -4.57834
102.024 -22.3848 0.0546277
101.856 -22.1161 0.0727496
102.076 -22.1619 0.0593101
102.171 -22.2141 0.0525623
102.042 -21.9892 0.0671019
102.125 -21.9829 0.0626133
102.257 -21.9362 0.0573295
100.024 4.41812 -0.154104
83.9926 39.7059 -2.80453
99.1494 -21.3019 0.152721
92.1414 9.5431 -0.345263
83.9429 60.2132 -5.04142
83.7275 60.2399 -5.04374
98.0097 -22.6125 0.0302616
98.6851 -21.262 0.0634188
93.8837 8.50475 -0.399463
84.4358 45.7498 -3.98889
105.255 -15.7239 -0.294672
106.06 -3.48556 -0.528836
96.8131 -19.0353 0.105913
80.0469 40.1984 -4.05426
80.2204 40.1743 -4.3478
78.2894 10.7986 -1.04628
80.9143 36.32 -4.18118
88.3973 -21.3488 -0.101408
83.0833 35.8071 -4.61572
81.368 34.617 -4.69203
98.1275 1.70792 -0.810703
90.8311 -16.6277 -0.243146
94.3799 -14.786 -0.315716
95.1088 -9.13683 -0.533934
95.1269 -9.11624 -0.537305
95.1294 -9.10549 -0.537465
95.1269 -9.08086 -0.535792
88.0146 -13.6215 -0.364794
46.9383 -3.3739 -13.3754
46.9099 -3.50124 -13.3795
92.0814 -9.86964 -0.499144
90.4567 -7.45972 0.2017
90.4744 -7.43509 0.193274
90.4999 -7.42576 0.183021
90.4717 -7.41853 0.19406
87.0153 -6.03116 0.490818
86.9638 -6.01693 0.474871
86.9682 -6.03565 0.482108
87.1689 -6.3223 0.603086
87.2187 -6.29135 0.581416
87.2405 -6.35164 0.610142
87.0369 -6.04834 0.424942
87.1837 -6.30279 0.561741
87.1827 -6.30967 0.564841
87.1687 -6.29466 0.555702
87.1439 -6.26309 0.536386
87.1114 -6.22141 0.511969
87.0651 -6.15571 0.475287
87.0744 -6.17608 0.485523
87.0749 -6.18621 0.48966
87.0879 -6.21613 0.50501
87.0795 -6.21094 0.500979
86.9534 -6.02466 0.39602
87.1214 -6.39256 0.58328
87.075 -6.39214 0.571499
89.2252 -8.83228 0.401573
89.2032 -8.80263 0.418274
89.1953 -8.78725 0.425101
89.2284 -8.76782 0.419673
2.13051e-39 0 2.35972e-40
