ply
format ascii 1.0
element vertex 504
property float x
property float y
property float z
end_header
170.56 -5.86399 3.81317
167.78 -4.37145 3.71189
150.002 20.404 3.09539
142.385 24.4364 2.9116
109.496 35.9904 2.43079
94.1184 15.462 1.89175
81.2949 45.8439 2.63445
81.1332 45.7718 2.63371
79.8159 45.3636 2.63692
76.9044 45.6574 2.67455
79.9385 16.4828 2.02894
79.6767 14.5712 1.99726
56.3947 11.9953 2.58898
40.4648 16.5717 3.12979
37.2642 16.7779 3.23721
54.0837 -14.8855 2.8181
25.7839 -25.0298 4.02009
53.4081 -25.3864 3.06963
73.928 -20.2126 2.26408
87.9999 -21.6953 2.00539
138.151 -43.443 3.63135
155.998 -32.1652 3.80418
165.199 -34.7963 4.13181
166.176 -31.4708 4.08656
153.197 -20.4454 3.47935
153.207 -20.3459 3.4782
153.228 -20.1479 3.4749
153.242 -19.9479 3.4716
153.424 -19.7798 3.47421
158.314 -20.2657 3.63236
161.039 -16.0297 3.20002
132.3 -0.444393 2.31929
166.515 16.5266 3.06212
161.326 20.2117 2.93463
123.72 6.1512 2.09416
96.3393 27.7422 1.9399
96.0377 41.8415 2.1644
95.7773 40.7813 2.14809
95.2168 36.4338 2.07775
94.8957 35.9783 2.07077
26.8116 13.5987 3.16067
136.573 -39.2964 3.11276
165.445 -34.7421 3.63649
166.074 -34.4372 3.64533
166.609 -31.7257 3.60322
166.807 -31.5275 3.60344
166.233 -31.0899 3.58206
166.113 -30.9234 3.57551
152.488 -20.0843 3.05418
152.54 -19.8938 3.05188
160.77 26.7696 2.55601
150.808 22.0308 2.38475
140.254 22.403 2.20335
122.617 11.6272 1.90327
116.385 56.9252 2.14937
95.4049 39.4878 1.90271
95.1491 40.0201 1.90839
91.4022 11.392 1.58714
78.8033 47.673 2.06755
19.6979 -18.4082 3.32183
152.54 -20.0526 2.76066
165.837 19.8744 2.05907
111.396 44.0542 1.57042
111.224 44.0959 1.57042
111.058 44.1507 1.57025
109.03 44.7268 1.56727
99.6451 17.7182 1.46313
95.6837 40.7592 1.54555
93.9352 29.903 1.50702
90.9575 9.70174 1.43445
162.887 -32.6695 2.60298
157.33 -21.4643 2.3645
168.623 -23.0069 2.52411
136.654 20.6509 1.45993
99.4664 15.8451 1.32778
94.3604 26.6184 1.31496
77.4963 47.0297 1.35234
77.2676 34.7528 1.37271
146.229 -30.2884 2.06652
163.918 20.8077 1.08669
163.61 20.9493 1.08494
141.109 22.209 1.07014
120.926 11.7422 1.17254
121.087 62.4523 0.726974
110.324 44.3467 0.895992
110.147 44.3738 0.895169
109.983 44.4334 0.894943
109.897 44.4537 0.894949
77.3553 35.474 1.0533
26.3375 -27.7643 1.97735
153.461 -31.3571 1.66782
152.012 -21.5264 1.54767
152.046 -21.3332 1.5454
152.038 -21.2311 1.54326
152.064 -20.6359 1.53647
152.079 -20.4401 1.53421
152.079 -20.2402 1.53195
152.108 -20.0463 1.52968
152.067 -19.9395 1.52858
164.882 -20.4207 1.53904
170.842 -5.85305 0.998088
163.783 24.8379 0.670488
143.903 21.6937 0.790311
120.92 11.7258 1.00373
99.1876 11.5133 1.08848
110.178 44.5047 0.631586
110.001 44.5268 0.631821
109.584 44.6627 0.631425
109.416 44.7147 0.631294
95.7726 36.2682 0.782015
69.977 68.6773 0.431155
122.336 -23.4291 1.3982
122.23 -23.2556 1.39752
152.002 -21.5031 1.25342
151.864 -21.2725 1.25119
151.841 -21.0683 1.24894
151.869 -20.9742 1.2478
151.923 -20.387 1.24102
151.977 -20.1998 1.23875
152.007 -20.0061 1.23648
168.623 -15.5123 0.622285
170.656 -7.31309 0.511064
170.242 0.171388 0.426601
170.211 0.293969 0.426301
170.247 0.549529 0.422316
170.287 0.805391 0.419314
152.732 2.01902 0.589544
143.278 17.4241 0.475247
142.811 17.4994 0.478672
96.0795 37.6099 0.471993
96.4531 42.4708 0.378031
75.7384 44.6675 0.376767
73.7243 50.8967 0.260859
73.6372 50.8525 0.261597
77.6872 35.1757 0.555729
77.7087 33.4882 0.586743
162.327 -32.5744 0.852317
163.165 -32.7376 0.844874
163.571 -32.6225 0.839464
164.163 -32.5691 0.833243
165.357 -30.5265 0.802898
152.388 -21.4403 0.852624
152.186 -21.1954 0.85241
141.289 -2.53578 0.456254
104.934 11.1641 0.776713
104.852 11.1767 0.777794
95.8675 35.2456 0.251277
95.7247 35.2002 0.253181
79.5879 46.2348 0.00351771
74.7032 46.4672 -0.00577202
121.624 -23.4402 0.974237
121.813 -23.2944 0.970071
121.901 -23.2169 0.968956
121.867 -23.0809 0.96851
148.089 -29.6337 0.596944
135.811 -24.4965 0.758419
152.946 -28.4129 0.510879
150.285 -24.4873 0.525782
147.478 -14.178 0.0889059
147.37 -13.6306 0.0860114
147.423 -13.4573 0.0829087
147.43 -13.2795 0.0818803
147.455 -13.1921 0.0798255
147.477 -13.0154 0.0777689
147.483 -12.3023 0.0706919
150.459 -4.77959 -0.083461
162.381 15.8363 -0.678045
162.363 16.0792 -0.682741
156.081 14.8743 -0.518961
155.444 15.6777 -0.5193
101.491 10.5831 0.677673
135.504 -27.0867 0.442512
137.127 -23.0701 0.390682
144.97 -21.8765 0.204766
139.533 -13.8188 0.0225335
139.617 -13.6741 0.0196704
139.724 -13.5317 0.0147691
139.707 -13.3759 0.0140525
139.72 -13.2222 0.0122804
139.775 -13.0735 0.00944859
139.784 -12.997 0.00855972
139.829 -12.8468 0.00574037
139.854 -12.6948 0.00395369
139.866 -12.541 0.00218267
139.867 -12.3865 0.00143537
139.872 -12.2328 -0.000317377
139.891 -12.0799 -0.00209623
139.878 -12.0023 -0.00293736
139.945 -11.8533 -0.00580557
142.523 -7.92725 -0.121224
144.304 -5.16344 -0.205325
143.548 -4.87234 -0.187551
143.548 -4.70774 -0.189412
143.421 -4.63318 -0.186908
143.426 -4.46716 -0.188796
143.413 -4.30271 -0.190619
143.347 -4.14298 -0.191246
143.251 -3.98482 -0.190769
143.136 -3.82922 -0.189216
142.943 -3.68062 -0.185368
142.792 -3.61159 -0.181733
142.686 -3.45727 -0.181189
155.836 13.8215 -0.843414
155.443 13.9147 -0.834393
120.373 5.32167 0.292554
122.242 10.2142 0.130145
121.772 -23.342 0.556691
124.832 -22.6118 0.47608
125.181 -22.6351 0.46639
125.933 -22.8288 0.446523
126.032 -22.7408 0.444259
136.841 -21.6122 0.145972
137.06 -21.5201 0.139332
137.286 -21.429 0.132685
137.792 -20.2344 0.113799
137.821 -20.0849 0.112032
137.841 -19.2324 0.10734
137.929 -19.0974 0.103575
137.995 -18.9583 0.101822
137.961 -18.7948 0.101069
137.875 -18.3888 0.101714
138.701 -17.4011 0.0722956
139.167 -16.01 0.0502979
139.086 -15.9197 0.051499
139.104 -15.7676 0.0497329
139.177 -15.6245 0.0469157
139.314 -15.4904 0.0420262
139.354 -15.187 0.0384882
139.392 -15.037 0.036687
139.429 -14.9654 0.0347785
134.053 -9.10481 -0.118788
134.204 -8.97375 -0.125682
134.311 -8.84045 -0.13048
134.406 -8.70646 -0.135254
134.5 -8.63908 -0.139273
134.602 -8.5041 -0.145077
134.717 -8.36896 -0.149919
134.829 -8.23227 -0.155768
134.961 -8.09556 -0.161675
135.072 -7.95788 -0.166536
135.186 -7.8185 -0.172422
135.336 -7.74896 -0.178618
135.455 -7.60929 -0.184521
135.538 -7.46852 -0.188338
136.215 -6.68106 -0.222089
136.314 -6.53561 -0.227004
136.397 -6.39088 -0.231867
136.922 -5.43525 -0.262101
137.035 -5.28372 -0.268123
137.124 -5.13376 -0.273061
137.167 -4.98539 -0.276856
137.331 -4.82886 -0.284072
137.422 -4.74988 -0.288213
137.522 -4.59652 -0.294221
137.018 4.68695 -0.432772
136.961 4.82633 -0.433192
138.196 5.89201 -0.496611
138.387 6.1092 -0.507589
138.512 7.37199 -0.537202
138.796 7.87897 -0.557708
138.906 8.75401 -0.580899
113.861 5.22535 0.307424
91.7906 10.742 0.547356
86.8523 9.74727 0.589084
98.2852 -23.3293 0.972708
112.799 -25.5082 0.607678
122.099 -25.5746 0.335016
122.143 -25.4707 0.333722
122.223 -25.4517 0.33129
122.308 -25.3699 0.329133
122.363 -25.2727 0.327883
129.697 -20.5662 0.0986534
129.686 -20.4293 0.0981362
129.586 -20.2637 0.101536
129.658 -20.1527 0.099085
129.643 -20.0819 0.099326
129.681 -19.9611 0.0978559
129.786 -19.8597 0.0944257
129.89 -19.7584 0.0909954
130.083 -19.5505 0.0841182
130.24 -19.4637 0.0787088
130.467 -19.4626 0.0710757
130.015 -19.0661 0.0848295
130.317 -18.1597 0.0717589
130.355 -18.0377 0.0702783
130.594 -17.9667 0.0618215
130.749 -17.8735 0.056346
130.5 -15.7959 0.0555458
130.695 -15.7055 0.0489898
127.956 -13.1881 -0.115992
127.953 -13.0705 -0.117312
128.029 -13.0218 -0.120072
128.16 -12.9202 -0.126578
128.247 -12.8133 -0.130023
128.311 -12.7023 -0.133453
128.327 -12.5864 -0.134807
128.316 -12.4657 -0.135142
128.334 -11.4623 -0.143531
128.366 -11.4063 -0.145252
128.392 -11.2907 -0.147627
128.418 -11.1743 -0.149016
128.44 -11.0582 -0.151387
128.453 -10.9409 -0.152749
128.47 -10.8241 -0.154115
128.5 -10.7081 -0.156506
128.497 -10.6492 -0.157165
128.525 -10.533 -0.159556
128.519 -10.415 -0.159873
128.567 -10.2995 -0.163307
128.589 -10.1826 -0.164691
128.61 -10.0653 -0.167073
128.62 -9.94765 -0.168432
128.649 -9.89007 -0.17016
128.669 -9.77282 -0.171542
128.688 -9.65529 -0.173921
128.678 -9.53665 -0.174233
128.68 -9.41885 -0.175572
128.861 -8.5346 -0.19206
128.946 -8.41647 -0.197628
129.049 -8.35827 -0.201565
129.113 -8.23916 -0.206087
129.191 -8.12004 -0.210648
129.244 -8.00023 -0.214145
129.286 -7.88 -0.21762
129.323 -7.76005 -0.220077
129.402 -7.63895 -0.224661
129.465 -7.57825 -0.22852
129.52 -7.45674 -0.232042
129.58 -7.33508 -0.235583
129.674 -7.21199 -0.241229
129.742 -7.08948 -0.245802
129.801 -6.96655 -0.249352
129.884 -6.84191 -0.253986
129.943 -6.718 -0.258547
129.988 -6.65575 -0.261375
130.032 -6.53169 -0.263896
130.083 -6.40666 -0.268449
130.145 -6.28118 -0.272037
130.217 -6.15513 -0.27666
130.166 -6.03369 -0.275892
130.412 -5.95957 -0.287401
130.433 -5.83441 -0.289876
130.436 -5.71053 -0.291282
130.525 -5.5808 -0.296992
130.59 -5.45278 -0.301618
130.68 -5.32206 -0.30734
130.777 -5.18949 -0.313105
130.828 -5.06035 -0.316703
130.912 -4.99157 -0.321711
131.007 -4.85858 -0.327472
131.086 -4.72546 -0.332194
131.167 -4.5915 -0.337929
131.252 -4.45709 -0.342679
131.343 -4.3217 -0.34846
131.41 -4.18774 -0.353156
131.479 -4.11784 -0.357136
131.542 -3.98332 -0.361827
131.603 -3.84866 -0.366518
131.675 -3.71243 -0.371253
131.898 -3.55929 -0.383593
132.011 -3.41682 -0.390512
132.032 -3.28345 -0.393077
132.088 -3.21157 -0.396041
132.15 -3.07408 -0.400767
132.261 -2.92921 -0.407707
132.523 -2.76444 -0.421284
131.669 2.01419 -0.473964
131.677 2.15149 -0.477536
131.696 2.2912 -0.481166
130.94 3.24072 -0.470834
131.197 3.4486 -0.485886
131.134 3.4989 -0.484283
90.2621 9.22073 0.503719
124.073 -20.1689 0.0535158
124.056 -20.0463 0.0541765
124.026 -19.9179 0.0558054
124.02 -19.7988 0.0554771
124.051 -19.6931 0.0551977
124.054 -19.636 0.0545436
124.023 -19.5083 0.0561863
124.07 -19.409 0.0549343
124.13 -19.3135 0.052691
124.209 -19.2247 0.0494716
124.612 -18.8355 0.0339725
125.268 -16.6623 0.00661768
127.586 -14.6667 -0.0932707
127.62 -14.5544 -0.0956332
127.65 -14.5 -0.097329
127.688 -14.3883 -0.0986961
127.77 -14.2837 -0.1031
127.856 -14.1799 -0.106511
127.887 -14.0661 -0.108881
127.906 -13.9506 -0.110237
127.914 -13.8336 -0.110583
127.918 -13.7745 -0.11126
127.901 -13.6529 -0.111588
127.892 -13.5335 -0.111914
127.91 -13.4178 -0.113269
127.936 -13.3034 -0.114634
125.119 -7.82223 -0.247897
125.188 -7.71485 -0.252298
125.238 -7.60692 -0.255656
125.272 -7.55317 -0.258357
126.211 -5.1639 -0.334926
126.242 -5.05019 -0.338297
126.268 -4.93676 -0.34065
126.292 -4.82306 -0.344002
129.489 1.93859 -0.621166
93.4258 9.17515 0.389588
24.165 -13.5176 -1.38096
28.3215 -16.3678 -1.18908
124.599 1.06434 -0.576931
124.59 1.17476 -0.579153
37.3575 -12.2863 -1.14988
117.413 -17.3321 -0.0083631
117.461 -17.2562 -0.0103534
118.946 -10.3093 -0.270935
118.884 -9.2521 -0.274713
118.86 -9.16289 -0.274657
118.847 -9.07522 -0.274613
118.831 -9.03153 -0.274063
118.828 -8.94427 -0.274041
118.824 -8.85688 -0.275019
118.816 -8.76878 -0.274991
118.816 -8.68195 -0.275972
118.811 -8.59442 -0.276949
118.815 -8.50716 -0.277946
118.828 -8.46445 -0.279462
118.863 -8.37761 -0.282541
118.824 -8.28924 -0.280433
118.813 -8.20285 -0.28138
118.807 -8.11517 -0.281355
119.559 -5.60961 -0.36073
119.616 -5.56009 -0.364444
119.677 -5.46376 -0.3697
119.714 -5.37014 -0.37386
119.768 -5.2748 -0.378085
119.803 -5.17977 -0.382254
120.675 -2.91863 -0.476195
120.706 -2.81708 -0.479429
121.744 -0.372713 -0.595896
121.722 -0.2756 -0.597932
121.738 -0.168838 -0.601183
121.716 -0.123317 -0.600638
121.847 0.0134644 -0.612544
121.897 0.129575 -0.617992
121.876 0.22755 -0.619041
50.3372 12.5452 -1.58398
113.212 -19.3602 -0.110979
121.139 -23.3065 -0.63506
105.688 8.4852 -0.382149
88.3553 -21.9769 0.544507
111.388 -19.2236 -0.165546
113.186 -7.41727 -0.337896
100.526 10.5153 -0.407998
111.2 0.899521 -0.56248
100.883 4.3173 -0.160911
102.92 7.88657 -0.557837
102.814 8.16502 -0.573695
93.2013 12.8377 -0.684264
105.162 -18.6951 -0.0785152
108.115 1.81787 -0.606439
93.7512 11.2017 -0.649273
79.8957 15.4726 -1.26775
81.6349 27.7438 -2.65528
78.2147 10.3574 -1.01833
74.8167 9.35777 -1.13277
98.4261 -18.2653 0.0540299
104.808 -1.41064 -0.624925
104.319 -5.17544 -0.44303
91.5583 -19.0033 -0.208895
98.7182 -1.7075 -0.639942
98.6779 -1.69971 -0.63492
98.6718 -1.66454 -0.638301
88.8734 -15.7255 -0.415623
98.5369 -6.9082 -0.497662
94.6093 -3.04997 -0.596548
47.1599 -3.3175 -14.4989
47.1323 -3.45504 -14.5023
93.635 -7.8797 0.239752
89.867 -9.33409 0.545497
89.8691 -9.34047 0.543563
90.348 -6.75279 0.638018
90.4092 -6.74843 0.629801
90.4264 -6.79103 0.650237
90.4054 -6.76098 0.633953
90.2958 -6.62135 0.535668
90.3579 -6.73248 0.594758
90.3485 -6.72716 0.590723
90.3433 -6.7214 0.587672
90.3108 -6.67971 0.563288
90.272 -6.6251 0.531775
90.2323 -6.57033 0.501262
90.2567 -6.61896 0.525747
90.2473 -6.61463 0.521724
90.2686 -6.65678 0.544143
90.2293 -6.6061 0.514676
90.2074 -6.68955 0.541681
90.3107 -6.84458 0.629156
90.2146 -6.77401 0.576617
89.8682 -9.39602 0.446187
92.3831 -9.23213 0.449468
92.3973 -9.23827 0.442498
92.8328 -9.91501 -0.548467
