ply
format ascii 1.0
element vertex 613
property float x
property float y
property float z
end_header
61.4493 11.6844 1.62668
45.9461 17.3106 1.2032
37.4991 16.9678 1.01556
37.4306 16.9784 1.01443
37.3531 16.9736 1.01247
37.4136 17.2021 1.01782
-3.96024 17.8467 1.52246
-30.5666 33.5421 2.37972
-28.9246 31.6275 2.32132
-28.5791 30.8503 2.30743
-5.44119 16.649 1.56012
-38.133 24.9334 2.58051
-37.5787 24.2503 2.56357
-37.8206 24.1103 2.57115
-38.3764 21.7685 2.58831
-33.6396 19.9388 2.4395
-32.6412 17.7402 2.41029
-32.6695 17.5446 2.41156
-36.9379 17.6396 2.54865
-43.8419 17.1014 2.77461
-43.8527 16.8676 2.77633
-43.8446 16.6305 2.77609
-43.8149 16.3879 2.77592
-43.8108 16.2694 2.7763
-43.8126 16.035 2.77803
-43.8193 15.8019 2.77874
-39.5696 13.9421 2.64719
-39.2036 -16.0504 2.99245
-39.8328 -16.4196 3.01963
-42.8091 -18.64 3.16092
-38.5445 -18.9701 3.02957
-38.8357 -19.2751 3.04506
-35.1787 -19.4007 2.92922
-27.2364 -17.6453 2.63628
-27.1628 -18.5612 2.65395
-18.9495 -15.9092 2.33363
-18.4054 -16.6837 2.33375
-34.1767 -23.8187 2.99784
-22.4569 -20.253 2.54554
-17.1636 -18.304 2.33285
-17.014 -18.4043 2.33004
-17.0804 -18.512 2.33528
-23.6177 -23.8218 2.66987
-1.71674 -16.1732 1.80695
-3.03162 -17.5681 1.88394
-3.03198 -17.6924 1.88839
-3.00014 -17.7997 1.88965
-10.0262 -23.7436 2.26553
12.0662 -15.3802 1.40632
14.915 -15.3756 1.34181
16.3381 -15.2003 1.30604
16.3893 -15.2278 1.30637
88.5095 11.9574 2.1167
95.515 13.6051 2.29687
45.9211 17.3394 1.03685
37.5812 16.9357 0.885944
37.515 16.9502 0.884763
37.4387 16.9483 0.88377
37.4653 17.119 0.886789
-36.5332 40.9266 2.11459
-32.6273 25.0475 1.99819
-40.3922 -20.2019 2.66953
-11.0776 -22.1726 1.97202
11.8549 -15.1861 1.27101
95.3461 -16.5477 2.65389
95.37 -16.3269 2.65032
95.3959 -16.1061 2.64775
95.4139 -15.8849 2.64418
95.4555 -15.6682 2.64167
95.4932 -15.4513 2.63815
95.5359 -15.2347 2.63564
95.5433 -15.1239 2.63435
37.5637 17.1804 0.791087
-23.5534 -23.7691 2.05223
-22.8673 -23.6432 2.03489
-22.1977 -24.7567 2.04599
74.917 -20.585 1.95094
95.2869 -14.6806 2.29111
89.0923 9.26236 1.37814
73.5575 9.91913 1.13751
45.9579 17.2119 0.716316
-32.2429 23.8687 1.20293
96.49 -23.4072 1.91691
99.5894 -17.5306 1.87008
101.374 -17.3329 1.89413
96.2644 -14.6994 1.77748
99.7958 -15.1833 1.8388
103.359 -15.6495 1.89891
36.9644 17.0293 0.525713
36.8844 17.0166 0.524845
69.0548 13.0701 0.511926
36.9422 16.965 0.384448
36.9005 16.9557 0.384547
-35.8875 33.4111 0.341091
18.7228 -9.10906 0.658535
30.541 -16.3718 0.759347
46.3748 -17.8438 0.810508
81.2685 -21.1321 0.956456
70.9871 -17.076 0.872269
89.7859 -22.5729 1.00186
97.7399 -23.628 1.03966
100.381 -24.1076 1.05475
96.8153 -17.0505 0.954904
101.312 -17.13 0.970689
94.7196 -14.8788 0.921221
101.112 7.5837 0.3269
59.1521 14.8459 0.294349
39.5455 18.8428 0.264075
36.9683 17.0834 0.288068
36.8963 17.0852 0.288033
-37.8927 41.3344 -0.0965617
-31.3567 28.9407 0.0669791
81.3109 -21.1312 0.682434
90.47 -22.4503 0.685539
98.5102 -23.5938 0.688385
95.0065 -14.6875 0.593026
95.5621 -14.5786 0.590864
94.6005 4.01999 -0.0528808
90.6731 9.02248 -0.0848694
87.7845 8.78354 -0.0596371
65.6055 9.75559 0.0948257
52.2423 13.5489 0.135119
36.9762 17.0052 0.159971
36.8997 17.0003 0.161013
31.9869 21.9544 0.0793968
31.9187 21.9841 0.0790386
31.8418 21.9722 0.0791618
-33.8683 28.2522 -0.355513
71.0515 -17.1255 0.352822
71.7237 -16.8181 0.345371
89.439 -22.3757 0.266444
97.2968 -23.5225 0.220291
99.8632 -23.8551 0.204652
101.25 -24.1702 0.196584
93.49 -19.7627 0.212795
94.1265 -19.7185 0.207401
94.6604 -16.6897 0.174241
94.8106 -16.2759 0.169452
94.6005 -16.0032 0.168236
94.7905 -15.9348 0.166476
94.7521 -15.7017 0.163755
94.843 -15.4984 0.161405
94.7264 -15.25 0.159491
95.1048 -15.1081 0.155912
94.7234 -14.8048 0.155308
94.9032 -14.6195 0.152185
95.5206 -14.6351 0.147484
87.7561 8.72795 -0.436021
66.529 9.68331 -0.162174
65.9973 9.67615 -0.155192
49.47 6.08477 0.120483
56.4402 14.9337 -0.119219
56.2947 14.9746 -0.118723
48.5465 16.0672 -0.0489161
36.8972 17.0211 0.0357626
35.9071 20.085 -0.0321004
36.2419 21.0505 -0.0572775
36.1653 21.0596 -0.0573989
36.0862 21.061 -0.0574294
31.97 21.984 -0.0629602
1.27215 22.6906 -0.240055
82.3871 -21.4428 -0.0537825
71.2395 -17.0914 0.0604413
71.2909 -16.9526 0.0588347
71.4667 -16.8582 0.0557695
92.5105 -22.5829 -0.177587
95.6795 -20.5651 -0.234477
96.6525 -16.5236 -0.280344
96.8279 -15.5282 -0.291899
96.8016 -15.2939 -0.293632
91.8374 -4.03145 -0.787726
97.5802 2.43005 -0.981866
54.7378 6.48011 -0.156133
54.8398 6.55138 -0.158943
66.6707 9.69948 -0.450355
35.9315 20.0866 -0.189124
36.3149 21.0617 -0.222405
36.2385 21.0728 -0.22255
36.1596 21.0762 -0.221603
1.28682 22.6818 -0.480966
77.8407 -20.0526 -0.383857
75.3831 -16.4545 -0.352211
80.0324 -15.433 -0.450223
83.1655 -15.5538 -0.512223
84.341 -15.6744 -0.535596
87.9664 -16.1191 -0.605732
88.6886 -16.0968 -0.619855
89.7323 -14.7974 -0.649786
92.7242 -12.4641 -0.728383
92.7512 -12.2564 -0.730795
86.4026 8.22069 -1.13642
35.9236 20.206 -0.308524
36.2313 21.112 -0.344015
36.1887 21.1059 -0.343952
36.1098 21.1092 -0.343006
29.7883 18.1503 -0.189755
16.122 17.4314 -0.238996
1.21573 22.7396 -0.661665
-34.4191 23.7364 -1.49613
68.8861 -19.2992 -0.44934
68.9558 -19.1726 -0.450801
69.8785 -19.1789 -0.473552
69.0346 -18.6577 -0.45378
69.0799 -18.5205 -0.455369
70.0177 -18.3625 -0.478031
70.1754 -18.2689 -0.482091
70.332 -18.1753 -0.485151
70.4693 -18.0713 -0.489336
70.6886 -17.9999 -0.494125
70.1765 -15.7842 -0.488016
79.0901 -14.6959 -0.712001
79.6295 -14.7535 -0.725229
94.5829 -16.4005 -1.09223
80.6546 -12.3483 -0.764036
80.598 -11.9837 -0.765292
82.7025 -11.2462 -0.82348
82.8105 -11.0851 -0.827335
82.8375 -10.9085 -0.829385
83.0129 -10.8493 -0.834042
83.0963 -10.6825 -0.836968
83.1807 -10.5158 -0.840892
82.3726 -9.83571 -0.824963
80.5719 -8.75863 -0.786843
80.4891 -8.57462 -0.786001
82.2241 -5.75054 -0.854552
74.3228 -3.76451 -0.951186
74.2729 -3.6128 -0.951962
74.256 -3.46232 -0.952717
74.1931 -3.30972 -0.951505
74.1492 -3.15843 -0.952275
74.1412 -3.08371 -0.952146
74.1352 -2.93498 -0.953879
74.1103 -2.78496 -0.95463
74.1212 -2.63737 -0.956347
74.1492 -2.48994 -0.959058
74.1392 -2.34093 -0.959794
74.1042 -2.19124 -0.960544
74.0609 -1.22818 -0.969764
74.2732 -1.08222 -0.978424
74.4655 -1.01007 -0.985227
74.8273 -0.712885 -0.999619
74.8856 -0.562496 -1.00336
74.9709 -0.41194 -1.0081
75.1154 -0.260375 -1.01383
75.2661 -0.10723 -1.02059
75.4096 -0.029774 -1.02646
75.5954 0.124996 -1.03423
76.3792 0.911703 -1.06924
76.5089 0.993106 -1.07416
76.5938 1.15171 -1.07899
76.6898 1.31157 -1.08384
76.9405 1.47798 -1.09373
77.0839 1.64163 -1.10061
77.2263 1.80636 -1.1075
77.3124 1.96889 -1.11237
77.472 2.13546 -1.11928
77.5337 2.21847 -1.12224
77.7679 2.392 -1.13221
76.8196 6.61025 -1.1655
57.6876 5.45077 -0.544613
51.4703 5.73284 -0.35707
60.9313 12.885 -0.798558
21.6469 18.3278 -0.329384
-32.0341 24.9007 -1.84425
-41.2125 -14.754 -1.55633
61.5981 -18.4015 -0.511185
64.4624 -16.9187 -0.589907
64.5719 -16.8259 -0.592967
64.6661 -16.7962 -0.596295
64.8399 -16.7298 -0.601035
71.4 -12.9386 -0.801933
72.5626 -12.9542 -0.837531
72.6269 -12.8183 -0.840102
72.6419 -12.7451 -0.840951
72.9068 -12.3531 -0.850464
73.052 -12.2367 -0.855792
72.5206 -11.5702 -0.841651
72.4695 -11.4074 -0.840557
73.2694 -10.6036 -0.869763
73.1247 -10.1178 -0.867447
73.6171 -8.70185 -0.890838
74.9255 -7.46254 -0.940019
74.8752 -7.30178 -0.9399
74.8069 -7.1398 -0.938799
74.8071 -7.06263 -0.938697
74.859 -6.91681 -0.941385
74.8295 -6.75947 -0.942223
74.8646 -6.61151 -0.943939
74.829 -6.45476 -0.94477
74.7617 -6.29384 -0.943656
74.7401 -6.13903 -0.944463
74.6934 -6.0577 -0.943418
74.621 -5.89744 -0.942298
74.5635 -5.7402 -0.942139
74.5258 -5.5853 -0.94195
74.6266 -5.4438 -0.946578
74.7213 -5.30289 -0.950201
74.7593 -5.15513 -0.952914
74.4193 -4.29622 -0.949978
74.3925 -4.14407 -0.950754
74.3636 -4.06694 -0.949657
74.3467 -3.91647 -0.951413
67.8589 -0.216567 -1.05173
68.011 -0.0865826 -1.05921
68.1231 0.044121 -1.06472
68.2171 0.175037 -1.07022
68.3138 0.241632 -1.07498
68.3969 0.3733 -1.0795
68.491 0.506212 -1.08503
68.5632 0.639617 -1.08957
68.6413 0.772619 -1.0941
68.7687 0.908288 -1.10065
68.8872 1.04456 -1.10722
69.0665 1.11758 -1.11504
69.2825 1.25927 -1.12464
69.4383 1.40001 -1.13325
70.7006 5.75994 -1.24778
30.9988 13.9536 -0.228671
28.2149 14.8958 -0.258172
-41.8868 29.3124 -2.73455
56.1222 -17.9629 -0.57934
56.2276 -17.9019 -0.582031
56.3445 -17.8467 -0.585652
56.4133 -17.7632 -0.587611
56.4559 -17.7259 -0.588036
56.5103 -17.6334 -0.589103
56.5637 -17.5398 -0.590183
56.644 -17.463 -0.593061
56.7197 -17.382 -0.594991
56.7653 -17.2848 -0.595113
68.6284 -6.33029 -1.02541
68.5291 -6.18322 -1.02214
68.5469 -6.05313 -1.02365
68.5752 -5.98991 -1.02538
68.5742 -5.85654 -1.02593
68.5801 -5.72464 -1.02747
68.5402 -5.58764 -1.02707
68.5122 -5.45244 -1.02665
68.4773 -5.31577 -1.02625
68.4424 -5.18009 -1.02583
68.408 -5.11061 -1.02565
68.3919 -4.97722 -1.0252
68.34 -4.8404 -1.02481
68.302 -4.70453 -1.0244
68.3745 -4.58115 -1.02782
68.4441 -4.45658 -1.03126
63.9742 0.809181 -1.13542
64.0233 0.927118 -1.13878
64.2491 1.22946 -1.15326
64.3496 1.35191 -1.15967
67.7 5.27024 -1.36966
67.4325 5.36156 -1.35977
30.7032 22.7925 -0.803664
28.6543 16.2233 -0.426554
28.6045 16.2578 -0.427965
28.2531 14.9262 -0.352525
28.1944 14.8129 -0.345217
16.7119 20.1671 -0.752767
-22.3688 15.3446 -1.98116
-40.8718 -8.09269 -2.44088
-39.528 -8.89822 -2.37624
55.4599 -13.5467 -0.714889
55.6294 -13.5161 -0.721213
55.6608 -13.422 -0.722302
62.3071 -10.9093 -0.989304
62.8564 -9.02015 -1.01419
63.3203 -7.04603 -1.03909
62.1715 4.02293 -1.30919
62.4193 4.33879 -1.32682
62.9249 5.04398 -1.36493
63.0726 5.18325 -1.37553
63.1758 5.31653 -1.38306
63.2933 5.45285 -1.39163
47.4145 15.0515 -0.950369
47.333 15.0911 -0.948845
47.2869 15.1063 -0.947031
39.0599 16.5316 -0.729178
28.4743 15.395 -0.471949
28.4245 15.4004 -0.472021
28.3591 15.2335 -0.46109
28.3273 15.445 -0.473559
28.0903 15.3187 -0.465134
24.0759 16.5777 -0.554562
24.805 9.98901 -0.145692
24.7765 10.042 -0.148315
51.3872 -15.71 -0.740482
53.6138 -12.1191 -0.797865
59.2143 -7.53206 -1.04821
57.0388 -2.14543 -1.15835
57.0372 -2.05011 -1.15946
57.0256 -1.95511 -1.15956
56.998 -1.85902 -1.15869
57.0133 -1.76585 -1.16077
56.9897 -1.67003 -1.15989
56.973 -1.57569 -1.15999
56.9502 -1.52704 -1.15956
56.8835 -1.43129 -1.15669
56.8898 -1.33751 -1.15778
56.8481 -1.24246 -1.15589
56.8134 -1.1479 -1.155
56.7957 -1.05349 -1.1551
56.7529 -0.959382 -1.15421
56.721 -0.912109 -1.15276
56.7103 -0.819169 -1.15285
56.6946 -0.724894 -1.15295
56.6768 -0.631483 -1.15304
56.655 -0.5388 -1.15312
56.6453 -0.444941 -1.15422
56.6425 -0.352538 -1.15429
56.6277 -0.25934 -1.15538
56.6389 -0.21199 -1.15593
56.3095 0.936883 -1.15337
56.7897 1.38424 -1.18649
56.8645 1.48336 -1.19263
56.065 10.5092 -1.36387
55.9616 10.5223 -1.35904
49.1711 15.9191 -1.23215
49.1191 15.9347 -1.23034
48.8167 15.9252 -1.21629
48.7494 15.9818 -1.21596
24.0701 16.6078 -0.666922
48.4798 -13.8933 -0.751187
57.7091 -5.256 -1.17801
57.5925 -4.50235 -1.1738
57.5593 -4.40087 -1.17299
57.524 -4.29924 -1.17118
57.4958 -4.1981 -1.17036
57.4552 -4.14522 -1.16799
57.4329 -4.04547 -1.16715
57.4135 -3.94593 -1.16631
57.4041 -3.84807 -1.16646
57.3986 -3.75147 -1.16658
57.3822 -3.65314 -1.16673
57.3399 -3.55204 -1.16491
57.2557 -3.44809 -1.16114
57.1672 -3.39195 -1.15581
57.1777 -3.29644 -1.15692
57.206 -3.20416 -1.15999
57.2632 -3.11284 -1.16304
57.3056 -3.0205 -1.16611
57.3189 -2.92621 -1.1682
56.5363 5.42712 -1.41062
56.6364 5.54455 -1.41996
56.7048 5.60703 -1.42568
56.8182 5.72857 -1.43507
56.8453 5.83294 -1.43928
56.9527 5.95489 -1.44868
57.0023 6.06474 -1.45495
53.9255 9.68104 -1.37863
53.8869 9.76381 -1.37961
53.8597 9.85084 -1.38062
49.1471 15.9922 -1.38202
48.8454 16.0357 -1.36958
45.4965 13.6717 -1.08868
32.8653 17.6952 -0.880917
31.6203 14.0538 -0.599743
28.0535 15.5143 -0.666431
19.362 19.5841 -1.05049
-15.1415 -1.14428 -2.08784
-15.0752 -1.27598 -2.08229
45.489 -13.1801 -0.715059
52.275 -2.2948 -1.20052
52.259 3.50181 -1.28601
52.2919 3.58875 -1.29002
52.3015 3.67226 -1.29299
52.3145 3.71547 -1.29449
52.3048 3.79529 -1.29642
52.2993 3.87684 -1.29737
51.5758 8.79882 -1.39781
51.5377 8.87256 -1.39768
46.4561 13.8079 -1.3121
46.803 14.2561 -1.35425
-9.4994 -6.44573 -1.96203
52.2354 -2.45146 -1.1967
52.2677 -2.37348 -1.1996
50.1614 8.36378 -1.41302
38.2621 15.8258 -1.13914
38.1769 15.8116 -1.13399
29.0887 14.6622 -0.793323
28.9752 14.5407 -0.781929
27.6087 9.15951 -0.314512
-4.96125 12.7421 -2.19456
-7.47165 7.72119 -2.19659
39.0866 -16.7916 -0.781241
39.1779 -16.7005 -0.781284
39.2369 -16.6734 -0.782588
39.2585 -16.6498 -0.781858
39.3037 -16.6047 -0.782374
39.3525 -16.5639 -0.78284
39.4042 -16.5263 -0.783268
39.465 -16.5014 -0.784547
39.5212 -16.4701 -0.785901
39.5729 -16.4325 -0.786329
39.6507 -16.3776 -0.786953
39.7052 -16.3432 -0.788343
39.7374 -16.2822 -0.787047
39.7871 -16.2435 -0.787488
40.1944 -15.9854 -0.795416
40.2479 -15.9499 -0.795819
40.3267 -15.8951 -0.797442
42.8254 -14.1418 -0.857381
48.9664 5.3135 -1.37374
49.0088 5.36172 -1.37829
48.9955 5.43275 -1.38012
48.9863 5.50453 -1.38096
42.9042 12.8446 -1.30756
32.9386 17.588 -1.22768
41.0907 -13.261 -0.853965
41.1421 -13.2274 -0.855347
41.2235 -13.1798 -0.857886
38.7606 16.3028 -1.44762
32.9322 17.5662 -1.33543
28.1271 15.7071 -1.07669
7.31175 18.8419 -2.09022
39.5 -14.1707 -0.909681
39.3553 -13.0005 -0.842328
45.6408 7.51154 -1.44296
43.4159 11.4228 -1.49092
43.3899 11.4827 -1.49263
43.347 11.5307 -1.49219
33.2087 19.3142 -1.63075
41.8347 11.6805 -1.51623
41.7957 11.7272 -1.51678
41.7589 11.7748 -1.51734
41.7115 11.8151 -1.51682
41.6845 11.8309 -1.51601
34.5088 8.78717 -0.771892
32.6348 17.6556 -1.57155
33.3738 -15.1555 -0.874383
32.6516 17.5901 -1.68179
31.5497 -14.9926 -0.891629
31.7122 -15.0348 -0.900108
31.7607 -15.029 -0.901166
37.8757 -11.3996 -0.957255
40.1243 10.7501 -1.53872
40.1017 10.8027 -1.54134
40.0793 10.8563 -1.54397
40.0568 10.9089 -1.54659
40.0184 10.9486 -1.54706
39.981 10.9882 -1.54752
39.9489 11.0324 -1.54905
32.6973 17.6276 -1.81322
32.6676 17.6326 -1.81329
27.6702 9.11509 -0.675007
39.3834 10.3459 -1.54516
39.3532 10.388 -1.54566
28.915 14.6031 -1.45371
28.9184 14.8171 -1.4812
32.2625 -13.504 -0.964828
40.3709 -8.45244 -1.20711
40.3899 -8.40762 -1.20662
40.3975 -8.35499 -1.20524
40.43 -8.31811 -1.20666
40.4942 -8.2142 -1.20886
38.9952 9.83569 -1.5573
38.9658 9.87576 -1.55777
38.9576 9.90235 -1.56008
38.9336 9.94805 -1.56162
38.7924 9.88963 -1.54296
38.3863 9.45592 -1.54399
31.781 14.2512 -1.65208
31.7364 14.2742 -1.65336
31.6892 14.2874 -1.65352
33.4514 12.0758 -1.64644
33.4322 12.0881 -1.64659
33.3937 12.1118 -1.64787
33.3609 12.146 -1.65027
33.3166 12.1571 -1.64841
27.705 9.08992 -1.08574
37.19 3.88933 -1.3794
33.6283 -8.72481 -1.23322
27.8177 10.856 -1.72932
27.7811 10.8485 -1.72824
27.5181 10.5002 -1.74123
27.483 10.4855 -1.73807
27.4491 10.5168 -1.74444
27.4134 10.5082 -1.74235
27.3787 10.5136 -1.74342
18.8728 7.35329 -1.75125
24.9575 9.98192 -1.76769
24.9427 9.9709 -1.76656
31.4439 -16.579 -5.17947
31.4972 -16.5756 -5.1835
-14.437 11.2263 -15.1796
-14.4306 11.0838 -15.1609
29.5118 -0.28782 -0.596186
25.9012 0.912788 -0.344834
25.9042 0.89861 -0.339668
26.1262 0.625456 -0.217438
26.2225 0.582104 -0.197913
26.2203 0.57826 -0.196869
27.2558 -2.46877 -0.391212
27.249 -2.37663 -0.351284
27.2525 -2.38391 -0.354198
26.1408 0.647039 -0.259689
26.1476 0.629634 -0.251485
26.1434 0.62691 -0.251454
26.1008 0.67854 -0.282065
26.0832 0.69962 -0.295315
26.0267 0.768106 -0.336126
26.0234 0.76332 -0.33607
26.0375 0.735469 -0.321743
26.0398 0.724351 -0.316612
26.0521 0.699617 -0.303321
25.9192 0.866791 -0.403299
26.073 0.563554 -0.246729
26.0609 0.518418 -0.233205
28.2655 -9.9321 -3.83937
28.2381 -9.51812 -3.65218
28.3937 -1.75084 -0.408354
28.3705 -1.72403 -0.39267
28.3005 -1.66067 -0.349418
1.15033e-41 0 3.95793e-34
