ply
format ascii 1.0
element vertex 630
property float x
property float y
property float z
end_header
148.454 -3.05993 4.0019
146.784 -2.85396 3.93808
147.914 1.16139 3.97216
146.849 2.43762 3.93152
121.838 9.8304 3.02417
97.6167 31.7631 2.5703
95.3134 29.0425 2.45112
88.8672 25.192 2.20915
88.8888 25.4314 2.21533
88.846 25.5751 2.21764
88.8331 25.7649 2.22188
92.8784 32.2396 2.47133
92.85 32.3226 2.47192
91.831 30.989 2.41721
68.0616 11.1092 1.50638
68.0123 11.083 1.5053
63.429 10.5905 1.50453
54.5078 15.3819 1.73926
54.396 15.4052 1.74177
54.0066 15.4729 1.7491
44.3979 15.8481 1.94586
37.1169 17.389 2.1397
36.6029 17.2242 2.15045
28.1661 17.111 2.36129
21.8816 18.3535 2.54186
26.962 13.0488 2.34912
17.0885 15.6535 2.64558
11.336 14.6502 2.79948
-5.19234 13.4341 3.26911
24.0511 -8.80164 2.4003
-8.39796 -17.4443 3.44099
7.90028 -16.0736 2.94395
-3.4512 -18.9836 3.30868
2.75619 -18.203 3.11727
27.7025 -18.7233 2.39766
27.4079 -19.4778 2.41741
28.6307 -20.0485 2.39198
28.6281 -20.1219 2.39324
22.5628 -26.8048 2.67325
22.3611 -26.9897 2.68221
22.9909 -27.7603 2.67938
22.4853 -28.1031 2.69983
45.2949 -18.3914 1.91019
44.3878 -19.0144 1.94723
48.2626 -18.4284 1.83709
48.7452 -18.8007 1.83323
48.3915 -27.4034 2.06613
131.302 -54.3402 4.13254
131.304 -54.0243 4.12436
131.963 -49.8965 4.04531
136.915 -46.8006 4.13369
137.058 -46.594 4.13443
141.493 -37.8768 4.1119
144.266 -30.2299 4.08535
144.424 -29.6244 4.08266
144.711 -29.4548 4.09007
144.94 -29.2648 4.09619
131.246 -20.7454 3.48966
131.235 -20.5337 3.48683
131.24 -20.3272 3.48407
131.252 -20.1219 3.48235
131.272 -19.8155 3.47927
131.279 -19.6105 3.47753
131.288 -19.4056 3.4758
148.468 2.47792 3.48523
147.613 2.6485 3.45849
147.605 2.89727 3.45753
136.473 5.79485 3.11333
111.209 8.49478 2.35061
111.065 8.52268 2.34699
110.888 8.61202 2.34201
110.707 8.69897 2.33703
110.554 8.79391 2.33212
110.428 8.89799 2.32928
110.262 8.98689 2.32534
110.114 9.08211 2.32145
109.825 9.19984 2.31296
100.325 34.2401 2.37385
97.0817 31.0132 2.25016
91.1308 28.3208 2.08165
91.1107 28.5168 2.08584
96.436 37.0712 2.34916
95.3754 35.7366 2.3043
92.83 32.0932 2.1867
94.5446 35.0104 2.27501
91.8771 31.1178 2.14989
52.6562 -11.7092 1.47688
129.959 -30.4504 3.16429
137.243 -29.7834 3.36721
144.564 -29.6543 3.58227
144.635 -29.5464 3.58313
129.613 -20.919 3.03338
129.696 -20.7361 3.034
129.605 -20.6107 3.0302
129.642 -20.417 3.02961
129.67 -20.22 3.02797
129.641 -20.0107 3.02509
129.69 -19.8198 3.02455
129.72 -19.624 3.02292
129.719 -19.4218 3.02116
129.824 -19.3461 3.02326
130.095 -19.2075 3.03073
141.771 -19.6609 3.39076
146.76 -20.1645 3.54774
148.44 2.41817 3.10835
120.5 0.742233 2.3753
131.943 5.9398 2.67236
100.215 13.8537 1.9017
100.19 13.9725 1.90217
110.338 38.2125 2.37829
110.45 38.6024 2.38524
78.8154 8.21148 1.38821
99.4453 37.9362 2.17583
90.854 26.304 1.85919
97.5288 36.3368 2.11986
90.7564 29.0294 1.89864
91.4031 30.2755 1.92832
91.3234 30.3952 1.92859
63.3833 10.7441 1.32578
22.8453 -10.3479 1.93571
141.265 -37.9557 3.22536
141.63 -37.8459 3.23327
124.878 -26.9464 2.68375
129.394 -19.4008 2.7179
105.462 16.527 1.72372
98.4184 12.5352 1.59012
90.5614 9.42442 1.44626
110.591 38.9868 1.93431
98.1168 31.3967 1.70547
99.9004 33.8551 1.74874
99.6295 33.7641 1.7441
99.5369 33.8988 1.74426
99.387 33.9589 1.74249
92.9451 25.8671 1.5924
92.7386 25.8021 1.5889
91.3747 26.5205 1.57826
89.7538 25.7604 1.55123
17.5474 -11.6218 1.65226
98.1317 -18.3207 1.6725
117.356 -26.1501 2.08649
135.631 -21.597 2.37773
135.778 -21.1878 2.37673
139.745 -21.9191 2.45585
129.128 -19.1657 2.24005
138.444 -20.915 2.42438
130.435 -18.9654 2.26304
134.09 -19.1573 2.33202
105.421 16.3372 1.50528
105.469 16.5201 1.50677
105.542 16.7178 1.5073
97.8593 30.9523 1.46219
97.7584 31.0579 1.46143
92.8339 25.9028 1.39186
95.042 29.2948 1.42718
95.0072 29.4727 1.42839
94.95 29.6215 1.42762
72.2002 12.8222 1.15298
91.0453 -19.0852 1.42466
91.0814 -19.0591 1.4257
91.1351 -18.9952 1.42565
110.622 -21.7349 1.69456
110.642 -21.5902 1.69409
120.867 49.7124 1.24744
120.687 49.696 1.24585
96.2564 29.2641 1.13469
95.7288 29.1517 1.1322
92.8955 25.7626 1.12061
92.7523 25.7784 1.11903
95.2959 29.2601 1.12923
95.1713 29.3206 1.12855
93.0241 26.6342 1.11981
72.4075 12.9594 1.02821
63.8277 11.4434 0.999774
117.979 -26.368 1.45256
110.433 -21.757 1.37995
144.031 -30.1663 1.64223
128.854 -21.0452 1.49908
131.264 -21.2758 1.51568
131.296 -21.0744 1.51504
128.907 -19.2522 1.49057
130.391 -18.9958 1.49999
144.944 -19.5898 1.59998
89.619 9.51843 1.00649
120.557 49.7845 0.891039
120.503 49.8995 0.890413
96.0557 29.3441 0.927664
95.9999 29.4957 0.926894
92.8112 25.845 0.935989
92.7761 25.9997 0.935283
97.5948 32.4764 0.915527
96.1455 30.9367 0.920032
88.8999 -22.0941 1.12113
90.8977 -18.9061 1.11645
91.0105 -18.881 1.11677
91.0856 -18.8788 1.11703
129.041 -20.2639 1.20383
129.03 -20.1612 1.20341
129.012 -19.9556 1.20258
129.016 -19.756 1.20184
129.055 -19.5646 1.20127
129.036 -19.3598 1.20143
129.013 -19.1554 1.20059
130.783 -18.8565 1.20288
97.8081 11.5875 0.804438
105.956 16.7623 0.73862
105.633 16.885 0.738991
111.048 37.3336 0.548131
120.857 49.6546 0.414604
112.404 43.7632 0.484996
112.205 43.8497 0.484952
111.978 43.902 0.48493
98.1594 31.6033 0.624836
96.1569 29.3305 0.650078
96.1975 29.6025 0.647207
97.6855 31.7146 0.624702
92.9401 25.7932 0.688647
92.7087 25.6954 0.690174
97.4813 32.0484 0.620713
97.6125 32.4577 0.616657
99.0769 34.8733 0.59093
95.8385 32.5304 0.617953
79.2241 15.7421 0.802515
90.8241 -18.8474 0.950964
91.0211 -18.778 0.950419
143.614 -30.06 0.767309
128.504 -20.3752 0.812298
128.504 -20.1761 0.811551
128.499 -19.9752 0.811781
128.511 -19.878 0.811461
128.545 -19.6878 0.810872
128.587 -19.499 0.81032
128.631 -19.3113 0.809775
141.7 -19.3498 0.756306
148.116 -4.03758 0.197283
120.587 0.960876 0.459776
100.505 30.8525 0.335146
99.3036 30.6026 0.345725
96.9274 30.2161 0.363555
92.81 25.8436 0.448983
92.7732 25.8965 0.448652
97.4217 32.1309 0.333184
97.1345 31.9968 0.336644
92.496 26.1378 0.446744
79.2233 15.7882 0.659338
54.4973 16.8619 0.524669
60.7098 -4.8713 0.879496
90.6302 -18.9764 0.791742
90.8297 -18.8134 0.790855
91.2454 -18.7828 0.787248
118.301 -26.3076 0.527491
110.372 -21.501 0.609763
110.733 -21.3402 0.60647
132.472 -22.8503 0.394935
132.592 -22.6687 0.393692
132.697 -22.4818 0.392374
128.869 -21.0235 0.431038
129.081 -20.9796 0.428644
129.556 -20.902 0.424077
128.362 -20.188 0.435078
128.155 -19.9367 0.437387
129.141 -19.2825 0.427512
130.659 -18.826 0.412309
135.842 -10.4555 -0.122218
143.833 -5.21986 -0.275832
141.369 -3.27248 -0.241049
142.676 3.04704 -0.295948
119.14 1.72463 0.117668
139.904 5.92737 -0.266772
118.046 4.67452 0.115665
117.605 4.74768 0.121792
91.6217 9.57963 0.486514
91.199 9.75824 0.489313
110.744 38.908 -0.25987
114.228 45.1568 -0.415616
112.428 43.7833 -0.371005
91.197 23.3862 0.242325
90.5319 22.724 0.26239
92.9388 25.9847 0.173919
95.1806 29.0764 0.0904809
98.722 33.8931 -0.0396985
98.5052 33.7367 -0.034899
92.8067 26.5222 0.164429
9.9569 15.7521 -0.576688
115.608 -24.3987 0.20358
110.505 -21.5789 0.29653
120.262 -23.3691 0.133604
129.498 -15.6454 -0.0078045
126.088 -8.69916 -0.251153
125.893 -8.50608 -0.246583
132.564 -3.51735 -0.41306
133.908 -3.18114 -0.444444
133.756 -2.98124 -0.441742
133.506 -2.7852 -0.437384
106.378 2.35816 0.135024
91.3164 11.119 0.325646
100.176 29.5889 -0.207327
112.627 43.7726 -0.707248
92.9481 25.814 -0.0224114
74.9837 13.1828 0.479709
70.2253 9.74117 0.589332
111.118 -22.3447 0.0496158
109.332 -20.3573 0.0977057
115.514 -19.7538 -0.0291374
117.133 -16.9089 -0.0539105
129.051 -19.1678 -0.318251
116.512 -11.7227 -0.319567
116.467 -11.5636 -0.318323
116.466 -11.4877 -0.318611
116.433 -11.3303 -0.317319
116.479 -11.1843 -0.3187
116.584 -11.046 -0.320837
116.852 -10.7747 -0.328881
116.796 -10.615 -0.32768
116.725 -10.53 -0.325254
116.596 -10.3627 -0.321348
116.517 -10.2017 -0.319236
116.596 -10.0595 -0.321484
116.587 -9.9067 -0.321085
116.593 -9.75596 -0.321628
116.614 -9.60638 -0.322113
116.66 -9.53522 -0.323213
116.681 -9.38579 -0.324693
116.64 -9.23026 -0.323424
116.623 -9.0772 -0.323059
116.605 -8.92499 -0.322695
116.626 -8.77556 -0.323175
116.633 -8.62496 -0.323714
116.656 -8.55148 -0.324906
116.698 -8.40294 -0.32631
116.698 -8.25247 -0.325871
116.734 -8.10406 -0.327297
116.751 -7.95391 -0.327798
116.737 -7.80242 -0.328413
116.994 -6.83232 -0.33711
117.133 -6.6867 -0.341153
118.381 -5.87682 -0.379656
120.662 -4.45903 -0.448691
120.812 -4.29393 -0.453764
120.969 -4.12871 -0.458815
120.981 -3.96483 -0.460382
121.441 -3.3789 -0.475906
121.638 -3.20741 -0.482834
121.79 -3.03552 -0.487925
121.933 -2.86418 -0.492051
122.097 -2.69007 -0.498105
122.26 -2.51566 -0.503167
122.773 -2.06873 -0.519981
122.904 -1.89171 -0.525169
123.1 -1.71003 -0.531137
123.275 -1.5283 -0.537183
123.764 -0.892097 -0.554788
123.925 -0.706235 -0.560902
124.079 -0.345704 -0.56769
124.19 -0.1617 -0.571978
124.282 0.0219243 -0.57533
124.6 6.0395 -0.633687
113.794 8.49469 -0.365049
113.554 8.57601 -0.360223
90.9179 11.3208 0.165444
110.75 39.3314 -0.940443
114.195 43.2677 -1.11068
113.976 43.3369 -1.10773
113.767 43.4167 -1.10679
90.3662 25.0424 -0.190889
91.6968 29.0949 -0.332225
74.9781 13.3287 0.361142
75.0561 13.6569 0.349197
99.4813 -23.2277 0.0597267
99.6011 -23.1683 0.0579388
99.7302 -23.1143 0.0552049
100.58 -22.5567 0.0422008
114.312 -15.8502 -0.268103
115.009 -15.5604 -0.28566
115.175 -15.4451 -0.290489
115.163 -15.213 -0.2894
116.415 -12.8565 -0.318677
116.475 -12.7127 -0.319996
116.534 -12.5687 -0.32132
116.564 -12.4962 -0.321483
116.596 -12.3482 -0.322922
116.65 -12.2026 -0.324269
116.584 -12.0394 -0.32212
116.534 -11.8784 -0.320905
110.794 -5.36647 -0.440075
110.919 -5.2361 -0.44511
111.036 -5.1702 -0.449933
111.158 -5.03841 -0.453983
111.322 -4.90559 -0.460886
111.492 -4.77165 -0.466771
111.649 -4.63684 -0.472706
111.798 -4.50087 -0.478674
111.944 -4.36348 -0.484657
112.058 -4.22644 -0.488757
112.178 -4.15687 -0.493585
112.34 -4.01683 -0.499519
112.487 -3.87746 -0.505509
112.64 -3.73599 -0.511483
112.648 -3.5977 -0.511972
112.949 -3.45051 -0.52343
113.098 -3.30648 -0.529428
113.25 -3.23048 -0.535163
113.403 -3.08505 -0.54115
113.551 -2.93776 -0.547166
113.689 -2.79102 -0.553216
113.832 -2.64203 -0.559255
113.954 -2.49412 -0.564364
114.126 -2.41407 -0.570039
114.226 -2.26483 -0.574237
114.395 -2.11152 -0.581198
106.046 1.82179 -0.324178
99.0663 7.8781 -0.180138
99.2571 8.07165 -0.19017
96.2634 14.0235 -0.23329
90.1988 10.3799 0.0303545
95.5682 25.8602 -0.566092
91.3702 23.0852 -0.38493
96.6215 29.8458 -0.721184
74.9777 13.1839 0.240681
64.5637 15.3111 0.133963
64.5282 15.1647 0.140382
11.0753 -14.7156 -1.41067
91.1584 -18.9137 0.140414
93.7264 -18.1753 0.0759614
105.832 -16.9816 -0.297616
94.9557 3.68334 -0.13735
96.1889 26.6958 -0.854971
91.6724 21.9878 -0.564732
91.6843 22.174 -0.571385
95.704 32.5364 -1.06958
91.5466 28.3734 -0.811078
62.5509 13.2083 0.0785301
110.142 -21.5345 -0.745966
101.266 -15.5831 -0.338405
101.565 -15.285 -0.346436
101.426 -14.904 -0.337364
105.25 -11.2389 -0.465211
104.394 1.42189 -0.684677
90.6552 21.0266 -0.696826
90.3819 22.1353 -0.735965
94.8757 34.8534 -1.41825
54.542 17.3646 -0.443063
15.9191 3.28573 -1.89146
15.8968 3.1182 -1.88991
26.2939 -10.3648 -1.26777
88.4985 -20.8858 -0.118857
88.5471 -20.8222 -0.118919
88.6383 -20.793 -0.120698
88.7139 -20.7524 -0.122575
88.7952 -20.7147 -0.124422
88.8465 -20.6534 -0.124465
88.9242 -20.6122 -0.126337
97.1964 -13.4683 -0.32907
98.7815 -10.9946 -0.379577
97.9551 -8.8884 -0.518454
97.9515 -8.79491 -0.517816
91.8787 6.52216 -0.39113
112.859 43.5738 -2.70169
112.647 43.647 -2.69773
90.9956 20.053 -0.877952
85.7524 -20.3407 -0.153853
85.8228 -20.3085 -0.154719
85.9728 -20.2494 -0.159396
86.0363 -20.2091 -0.160316
86.1212 -20.1881 -0.162087
86.1607 -20.1737 -0.163998
86.225 -20.1345 -0.164912
86.3178 -19.9267 -0.161352
98.8523 0.62463 -0.776789
92.7596 21.1136 -1.17453
89.5713 17.9255 -0.896159
92.541 21.3686 -1.17927
90.5768 19.6485 -1.01896
90.3507 19.4702 -1.00211
90.5049 19.8004 -1.02479
90.4707 20.8026 -1.07366
90.9906 21.5909 -1.13273
70.8043 12.074 -0.0923041
28.0373 6.52739 -1.79264
43.0134 -17.7718 -0.811434
89.9438 17.5555 -1.10643
89.8174 17.5617 -1.10091
89.7844 17.6686 -1.10543
89.7635 17.7888 -1.11095
97.5319 26.4014 -1.91301
33.3397 10.0651 -1.81765
84.1969 -18.5652 -0.286137
90.4884 -10.9819 -0.423694
88.6585 15.6424 -1.08793
89.548 16.977 -1.2057
89.5658 17.0644 -1.21196
89.6831 17.3292 -1.23253
89.6893 17.4758 -1.24105
89.8326 17.7732 -1.26465
88.7545 15.748 -1.28598
75.8709 12.2636 -0.506649
81.0182 -18.2796 -0.336731
81.0505 -18.2307 -0.335797
81.1002 -18.2016 -0.336726
90.0988 0.77895 -0.814105
89.6959 4.59921 -0.908858
88.188 14.3296 -1.32573
88.2196 14.422 -1.33396
88.2769 14.6005 -1.34842
88.4403 14.89 -1.37691
88.6386 15.5997 -1.43385
88.6724 15.6998 -1.4431
88.0812 14.1122 -1.4663
88.098 14.2482 -1.47675
88.1199 14.3915 -1.48821
88.1987 14.5306 -1.50244
88.3855 14.8419 -1.53593
88.5774 15.1605 -1.56943
88.4114 15.1169 -1.55587
65.6133 11.4398 -0.58476
83.2333 -15.061 -0.507742
83.3972 -15.1091 -0.521968
86.4938 -6.24242 -0.648909
85.6868 9.31553 -1.13704
85.673 9.39431 -1.14138
85.6732 9.48622 -1.14773
85.6838 9.58672 -1.15506
85.6407 9.59602 -1.15226
85.7244 9.76165 -1.16957
85.7295 9.85891 -1.17692
85.8054 10.0196 -1.19324
85.8701 10.1719 -1.20858
86.1872 10.5521 -1.25685
87.1017 13.4954 -1.52855
87.0681 13.577 -1.53198
83.5695 8.07728 -1.02408
83.5845 8.1741 -1.03139
83.6065 8.27598 -1.04069
83.6285 8.37885 -1.05
83.6636 8.49497 -1.0613
83.6685 8.58417 -1.06862
83.7025 8.65803 -1.07577
83.6924 8.73426 -1.0811
83.7255 8.85068 -1.09241
83.7402 8.95159 -1.10074
83.7853 9.0814 -1.11406
83.7966 9.17978 -1.12238
83.7235 9.19848 -1.11872
83.7405 9.25966 -1.12389
83.8553 9.45815 -1.14721
83.9306 9.62097 -1.16555
83.965 9.74629 -1.17689
83.9641 9.83734 -1.18424
84.0022 9.96717 -1.19659
84.0488 10.1069 -1.21094
84.1325 10.2372 -1.22712
84.1544 10.3532 -1.23748
84.1958 10.4916 -1.25085
83.1038 7.0414 -1.0359
83.0543 7.07588 -1.0342
83.0318 7.09531 -1.03436
82.9776 7.12543 -1.03167
82.9325 7.16329 -1.03097
82.8668 7.18396 -1.02729
82.7455 7.30869 -1.0272
82.6837 7.37021 -1.02765
82.6433 7.41245 -1.02695
82.6041 7.45553 -1.02726
82.5475 7.48296 -1.02557
82.522 7.53718 -1.02786
82.1545 8.31798 -1.06211
82.0089 8.2553 -1.04641
74.2433 -16.4177 -0.32926
76.0109 10.6663 -1.01917
75.521 11.0284 -1.0383
65.7715 13.1589 -1.20663
65.6511 13.1784 -1.21113
59.7835 11.4949 -1.27111
82.5869 2.94633 -0.983452
79.2316 5.18838 -1.09701
79.2028 5.19156 -1.09412
79.1699 5.22261 -1.09436
79.1123 5.22997 -1.08959
77.8447 -12.9827 -0.685056
72.6937 7.23404 -1.10936
72.6768 7.24963 -1.11048
61.6018 6.88153 -1.32626
61.587 6.86347 -1.32525
61.5471 6.84602 -1.32633
61.5111 6.82093 -1.32537
61.467 6.80915 -1.32748
61.4894 6.69277 -1.30996
75.4137 -12.4033 -0.684038
72.2028 5.1953 -1.14152
72.1947 5.22274 -1.14665
72.1613 5.22961 -1.1458
72.1274 5.23252 -1.14493
72.0973 5.248 -1.1461
72.0584 5.2375 -1.1422
71.4656 -11.5825 -0.684423
65.893 -10.4257 -0.683955
65.8987 -10.4559 -0.689822
65.8337 -10.8651 -0.791528
74.6701 -7.83114 -0.720837
74.6825 -7.81477 -0.721854
74.4941 -2.00267 -0.824279
74.4791 -1.98735 -0.823391
67.9805 -3.37167 0.198239
67.9156 -3.34615 0.174908
67.6332 -6.23756 0.1847
68.1187 -3.64201 0.297752
107.396 -19.1405 -16.5481
107.442 -19.0208 -16.5494
68.1579 -3.58213 0.26267
68.1961 -3.66536 0.304121
68.2028 -3.68853 0.314232
68.0679 -3.75486 0.307991
68.1116 -3.58156 0.2355
68.1401 -3.63512 0.262804
68.135 -3.6354 0.261786
68.0959 -3.57829 0.230431
68.0768 -3.55736 0.217283
68.0317 -3.49333 0.181879
68.0142 -3.47467 0.169746
68.0212 -3.49586 0.179851
68.033 -3.51875 0.191979
68.0464 -3.55097 0.207149
67.9732 -3.44453 0.147484
68.0485 -3.6744 0.255618
68.0597 -3.75674 0.289967
67.9401 -3.60124 0.199951
67.6611 -6.20036 0.126661
67.6299 -6.30511 0.081939
70.1694 -6.15036 0.101568
70.1891 -6.16133 0.0906804
0 1.15033e-41 0
