ply
format ascii 1.0
element vertex 810
property float x
property float y
property float z
end_header
89.6254 11.5817 2.79339
39.7411 16.5154 1.26916
25.8236 18.5702 0.976643
18.9237 14.3914 0.783456
3.5892 20.3818 1.00229
-33.2699 53.0414 2.42991
-28.5647 41.5181 2.11715
-29.6641 39.0121 2.10649
-4.58976 15.9758 1.09456
-26.4626 33.038 1.93305
-27.3248 33.1093 1.95769
-30.8838 34.9768 2.0815
-31.121 34.938 2.08811
-29.008 32.5312 1.99633
-27.1153 30.8766 1.9222
-26.9843 30.5765 1.91428
-29.1616 30.0705 1.97005
-30.1393 30.5566 2.00472
-30.4782 29.1771 1.99856
-30.9186 28.8713 2.00846
-29.1443 27.3354 1.93859
-30.4313 27.4867 1.97821
-30.7947 26.8524 1.98347
-30.9182 26.7371 1.98551
-32.8517 27.5095 2.05233
-31.2378 26.3586 1.99179
-29.884 25.3758 1.94133
-29.9396 25.2254 1.94154
-30.9291 25.1536 1.97043
-31.0605 25.0435 1.97344
-31.1437 24.907 1.97558
-34.5288 26.6041 2.09443
-32.1435 25.0925 2.00754
-33.9019 25.9646 2.06938
-31.7233 24.0352 1.98592
-32.1672 23.8146 1.99719
-33.8392 24.4999 2.05531
-32.9863 23.6895 2.02224
-33.4529 23.7417 2.03748
-33.7166 23.6897 2.04523
-33.7586 23.5259 2.04552
-34.3202 23.7131 2.06488
-31.8342 21.5972 1.97041
-31.9123 21.4605 1.97154
-31.5546 21.1174 1.95763
-31.7505 21.1234 1.96386
-31.8728 20.3207 1.96306
-35.9583 21.784 2.10362
-32.5964 20.2127 1.98586
-36.8035 21.6878 2.1305
-36.818 21.5071 2.12987
-32.7295 19.5834 1.98577
-32.7294 19.1572 1.98397
-32.7562 18.9989 1.9842
-32.7178 18.8137 1.98154
-52.5899 26.6878 2.6724
-51.7035 26.0915 2.63968
-51.9499 25.9519 2.64706
-32.514 17.6458 1.96905
-32.5655 17.5003 1.97021
-51.8809 24.6271 2.63893
-53.0722 24.6014 2.67775
-36.8584 17.7924 2.11386
-36.837 17.6077 2.11222
-43.7 17.0417 2.34083
-43.6772 16.937 2.33959
-43.6999 16.7486 2.34003
-43.6849 16.55 2.33851
-43.6977 16.3593 2.33896
-43.7065 16.1685 2.33941
-43.6954 15.971 2.33788
-43.7151 15.7835 2.33831
-43.7031 15.6841 2.33804
-43.688 15.4876 2.3375
-39.3394 14.1282 2.1878
-39.3874 13.9636 2.1891
-60.0607 -15.4813 3.13071
-59.5437 -15.8512 3.11778
-59.4231 -16.0649 3.11723
-58.3526 -16.0646 3.08077
-59.4017 -16.7808 3.12758
-59.2488 -16.9856 3.12491
-58.1282 -17.0798 3.0881
-60.7336 -17.9476 3.19117
-58.5807 -18.1464 3.11973
-60.5953 -18.9012 3.20115
-62.7608 -19.5824 3.28523
-63.6086 -20.0577 3.32196
-63.8313 -20.375 3.33465
-52.9411 -18.1724 2.92825
-51.2842 -18.266 2.87369
-51.4531 -19.4183 2.89859
-50.2914 -19.1796 2.85521
-41.7977 -17.191 2.53468
-41.6692 -17.341 2.53264
-41.47 -17.4681 2.52832
-42.3628 -17.945 2.56712
-42.1918 -18.0823 2.56392
-50.3812 -20.8565 2.88794
-41.4176 -18.1169 2.53813
-41.4002 -18.3025 2.5415
-40.6399 -18.2367 2.51497
-40.1908 -18.2734 2.50063
-40.2218 -18.4715 2.50517
-39.3914 -18.3718 2.47528
-39.6399 -18.5513 2.48697
-42.4175 -19.72 2.60155
-39.3571 -18.825 2.48265
-39.3406 -19.0066 2.48599
-39.3412 -19.1936 2.4894
-39.3743 -19.3937 2.49395
-39.1443 -19.4967 2.48841
-38.5268 -19.4536 2.46724
-38.3899 -19.4947 2.46337
-38.4746 -19.7122 2.47112
-38.875 -20.0531 2.49023
-39.1956 -20.3655 2.50701
-39.8611 -21.2995 2.54794
-42.2238 -22.4468 2.64779
-42.2047 -22.6425 2.65124
-42.0823 -22.7963 2.65023
-40.2811 -22.6491 2.58867
-39.668 -22.4888 2.56562
-39.7957 -22.74 2.57469
-27.3805 -17.5838 2.06499
-27.5048 -17.7901 2.07272
-27.3424 -18.4083 2.08114
-27.0445 -18.5804 2.07503
-27.1071 -18.7636 2.08149
-19.08 -15.7313 1.75775
-18.9549 -15.7962 1.75507
-1.91276 -14.012 1.20344
-1.88634 -14.0318 1.20255
-1.9241 -14.1557 1.20753
-1.47187 -13.8233 1.18542
-1.36852 -13.8135 1.1832
-1.27033 -13.8085 1.18003
-1.17725 -13.8073 1.17789
-1.08209 -13.8032 1.17473
-1.03535 -13.8456 1.17499
-1.01403 -13.8683 1.17513
-1.03116 -13.9718 1.17893
-1.04009 -14.0685 1.18267
-0.889232 -14.0091 1.17602
-0.843523 -14.0525 1.17628
-0.65856 -13.9571 1.16931
-0.549887 -13.9364 1.16601
-0.506879 -13.9367 1.16495
-0.469348 -13.9859 1.16527
-0.375093 -13.9788 1.16209
-0.261181 -13.9502 1.15872
-0.214352 -13.9897 1.15895
-0.0818149 -13.9407 1.1544
-0.0401653 -13.986 1.15469
-0.00330497 -13.9911 1.15368
0.0445834 -14.0286 1.15389
0.0335656 -14.1282 1.15666
0.0928116 -14.154 1.15677
0.185128 -14.1449 1.15358
0.351949 -14.0539 1.14667
0.330573 -14.1653 1.15053
0.529858 -13.9933 1.14097
0.585014 -14.022 1.14011
0.540835 -14.1597 1.1462
0.669494 -14.1066 1.14063
0.73195 -14.1255 1.13969
0.852373 -14.0801 1.13618
0.85998 -14.1594 1.13777
0.848203 -14.2181 1.14022
0.874377 -14.2789 1.14165
1.01872 -14.2032 1.13588
1.11746 -14.1802 1.13257
1.76403 -14.2699 1.12037
1.87117 -14.3662 1.12195
2.68024 -14.1108 1.09492
51.4999 -19.1547 1.91041
80.8128 -31.4779 3.03721
71.8019 -20.8418 2.55048
86.7473 -15.3194 2.92561
86.8013 -15.0899 2.92481
86.8134 -14.8522 2.92101
86.8416 -14.6179 2.91921
86.8478 -14.379 2.9154
86.9713 -14.1636 2.91662
86.9401 -14.0377 2.91371
86.9304 -13.7973 2.91092
90.4421 8.2719 2.33815
89.6089 11.7145 2.3034
74.0638 9.71477 1.90959
73.4785 9.81441 1.89364
-27.4289 42.3042 1.72868
-31.8484 30.2588 1.70528
-36.4214 33.0996 1.83815
-27.1796 26.4857 1.56329
-58.3729 -13.9747 2.58706
-38.417 -19.3505 2.11131
-19.3016 -13.6566 1.49545
-19.0979 -13.9329 1.49525
-18.2879 -13.6455 1.46898
-19.5104 -14.5386 1.51736
73.7578 -20.6645 2.20247
85.2905 -15.2371 2.41196
85.3239 -15.1261 2.41208
85.1779 -14.8596 2.40428
85.181 -14.6256 2.40151
85.2188 -14.3987 2.39975
85.2707 -14.1741 2.39799
85.3036 -13.946 2.39623
85.3385 -13.718 2.39347
85.4445 -13.6211 2.3956
88.8009 10.6846 1.92723
88.6103 10.8984 1.92288
40.4405 16.4637 0.936583
40.3427 16.6378 0.935407
35.7298 18.6638 0.868449
35.7346 18.7887 0.869503
26.0809 18.5526 0.731418
26.1446 18.7728 0.734676
-38.739 54.4684 1.7546
-28.2605 41.5129 1.45976
-28.9568 35.1356 1.42266
-32.1382 27.3042 1.44189
-49.6938 -19.4035 2.11006
59.1293 -19.345 1.58945
65.85 -19.6934 1.72892
70.3827 -20.2731 1.82811
70.6748 -20.1748 1.83298
90.4203 7.91621 1.38883
40.7156 13.8283 0.70002
35.7199 18.6744 0.647376
-33.6119 31.8461 1.06273
-35.4485 21.873 1.09123
-53.6643 -18.4203 1.66206
82.4817 -21.2357 1.53987
83.1273 -21.1951 1.54869
83.9504 -21.203 1.55963
86.97 -21.8583 1.60644
88.6694 -22.1056 1.63199
89.5962 -16.0091 1.57588
91.2489 -15.8458 1.5974
78.3135 9.48032 0.877536
70.7458 12.7502 0.794246
35.7134 18.6985 0.4982
4.91142 20.7529 0.456684
4.92563 20.6274 0.456609
4.88216 20.5467 0.456275
-33.7217 53.2815 0.756668
-31.3939 28.7182 0.75722
-34.3236 27.4154 0.789007
42.4175 -17.9337 0.814563
65.6982 -19.6572 1.01583
83.8281 -21.2651 1.18225
88.968 -19.2315 1.20396
90.5445 8.12248 0.452083
90.2009 8.2079 0.450908
1.83146 25.269 0.286911
1.77858 25.1745 0.287693
-30.456 28.1507 0.3862
-38.2465 30.6987 0.402645
-54.2534 25.0249 0.505109
-58.6912 -14.1436 0.809714
82.8916 -21.4138 0.669626
83.3647 -21.318 0.669262
84.7063 -21.4826 0.673674
88.7457 -19.3809 0.662368
84.2659 -15.1737 0.619827
84.3505 -14.9591 0.618098
84.3818 -14.849 0.617228
84.4147 -14.6229 0.615483
84.3849 -14.3849 0.613733
84.4694 -14.1694 0.611997
84.4993 -13.9432 0.610256
84.5271 -13.7169 0.608516
84.566 -13.492 0.606772
87.5008 9.84559 0.0832576
77.9169 9.49454 0.112946
77.897 9.69823 0.111442
88.4102 11.5308 0.0673461
61.685 11.6618 0.142748
33.6625 22.0514 0.133767
33.7206 22.1847 0.132685
-27.2027 37.0802 0.0646096
-38.2676 40.7565 0.0360268
-39.2014 30.1323 0.125197
-32.7885 26.2626 0.156567
-57.3306 25.8698 0.158934
53.9763 -18.891 0.391013
84.3993 -21.5971 0.323942
89.2224 -18.9549 0.291505
84.2597 -14.9059 0.276812
84.2766 -14.6764 0.275062
84.1419 -14.5332 0.275169
84.1459 -14.3022 0.273427
84.1886 -14.0794 0.271693
84.2344 -13.8577 0.269964
84.4074 -13.6599 0.26724
84.7745 -13.4979 0.265522
85.2257 -13.2325 0.261912
92.1986 0.429573 -0.359341
92.147 0.676246 -0.360126
92.371 1.79594 -0.370851
73.9204 2.61166 -0.206861
55.1274 5.63371 -0.0579978
55.0852 5.69501 -0.0584014
55.0903 5.82891 -0.0594153
55.1034 5.96458 -0.0604534
77.915 9.64653 -0.302206
70.2212 11.7197 -0.25032
46.4281 13.2916 -0.0527429
37.4719 13.2181 0.0240058
37.0577 13.1846 0.0278215
36.9844 13.2418 0.0274908
37.0148 13.356 0.026591
33.6699 22.2038 -0.058395
-38.7092 25.3836 -0.203772
-39.2031 23.8089 -0.189257
-57.4947 26.2513 -0.323725
-57.6636 26.0603 -0.323059
86.6296 -22.0984 -0.163338
88.1264 -22.2939 -0.175906
89.6443 -22.485 -0.188536
88.9899 -19.4798 -0.199245
88.9846 -19.2256 -0.20015
89.6105 -17.4838 -0.216101
90.6306 -17.4627 -0.225649
84.5304 -15.2648 -0.182871
84.5563 -15.0365 -0.184624
84.9103 -14.8761 -0.188312
85.0714 -13.1562 -0.200465
50.6934 6.30366 -0.256005
43.833 6.62308 -0.156064
56.6178 12.2472 -0.408772
60.1825 14.3018 -0.485078
48.5919 11.9047 -0.286266
35.2825 7.45801 -0.0376987
34.3444 8.52691 -0.0374598
31.1682 19.1482 -0.162013
31.113 19.2099 -0.162402
31.0548 19.2687 -0.162765
33.707 22.3113 -0.246259
12.592 27.5207 -0.219688
-4.3234 23.3686 -0.190433
-4.33263 23.2288 -0.187369
-27.1186 37.1095 -0.621745
-32.5683 28.3728 -0.535621
-31.8884 27.2698 -0.512252
-39.9372 29.5485 -0.631433
-49.7218 33.8153 -0.799204
-33.1662 22.0054 -0.450921
-59.0104 26.5996 -0.810296
72.2207 -20.0486 -0.428144
72.5775 -19.9624 -0.433278
73.5451 -18.205 -0.453813
74.4724 -18.2752 -0.466548
75.1232 -15.5477 -0.486945
76.9317 -15.2604 -0.515568
90.3366 -10.6984 -0.741132
90.4626 -10.4691 -0.744028
90.2359 -10.1921 -0.741803
89.9914 -10.0376 -0.739632
75.967 -1.93053 -1.01151
52.9187 12.8726 -0.650446
52.5146 12.8088 -0.641416
52.3218 12.8817 -0.637701
16.6629 22.6357 -0.282496
16.5936 22.6598 -0.283583
-36.2395 54.5031 -1.51616
-40.6224 55.0034 -1.58495
-42.3967 54.1956 -1.59046
-42.7839 54.2293 -1.59719
-43.1896 54.2786 -1.60301
-38.9905 25.2102 -0.965108
58.478 -19.0665 -0.571824
58.5729 -18.9394 -0.57391
58.7636 -18.8511 -0.577833
58.8032 -18.7012 -0.579014
59.0177 -18.6217 -0.582904
58.9919 -16.9611 -0.582357
61.676 -16.9297 -0.639249
62.8139 -16.7202 -0.663374
63.033 -16.6209 -0.66842
60.2348 -14.3057 -0.61102
65.7035 -13.4035 -0.730252
70.6154 -13.7061 -0.836668
72.0145 -11.2455 -0.875078
72.0511 -11.0615 -0.876511
73.5769 -10.9579 -0.910369
75.1331 -10.8401 -0.945374
75.3074 -10.3702 -0.950145
76.0303 -10.0871 -0.967259
76.2041 -9.00388 -0.976642
75.8794 -8.75789 -0.97005
73.7781 -8.07667 -0.92731
67.543 -1.46919 -1.10352
53.7423 5.77714 -0.790212
52.8259 12.8558 -0.861199
52.4835 12.8802 -0.851917
46.2552 16.331 -0.753385
32.8723 17.4195 -0.468342
-36.1809 54.3374 -1.888
-39.8674 54.6436 -1.95729
-43.9029 55.5514 -2.04962
-30.1213 31.8333 -1.215
-55.8906 30.5152 -1.73802
-60.543 14.24 -1.59829
-60.5761 14.0059 -1.59548
-65.442 11.1121 -1.6801
52.2176 -17.1289 -0.658875
52.3059 -17.0215 -0.660802
55.5417 -15.8854 -0.740754
55.7282 -15.8041 -0.74562
55.988 -15.748 -0.752396
54.3115 -14.1892 -0.706834
54.5089 -14.1131 -0.711675
64.7773 -11.7666 -0.984309
66.3308 -9.0927 -1.03253
67.8862 -3.8817 -1.09784
67.5097 -2.40459 -1.09644
67.4849 -2.23276 -1.09769
60.245 0.760922 -1.19835
60.4256 0.911476 -1.20573
61.3226 1.75848 -1.24232
62.5135 2.73056 -1.29126
53.9328 5.33833 -1.03318
43.9787 6.30127 -0.717859
43.6516 6.33326 -0.707654
41.7373 7.77217 -0.666867
53.0181 12.767 -1.1118
25.9668 18.7627 -0.511043
13.3029 17.4966 -0.321275
-37.8437 51.1784 -2.26199
-26.7392 39.0711 -1.66104
-36.7893 33.4728 -1.74326
-55.978 30.6194 -2.19169
-65.5182 11.1888 -2.15558
48.7525 -13.4733 -0.786652
48.7534 -13.3462 -0.785608
56.3736 -10.8003 -1.02414
56.7696 -9.31864 -1.03782
58.3103 -7.96398 -1.0901
58.3891 -6.38265 -1.0971
60.8604 -5.74572 -1.18026
60.4975 -5.17739 -1.17104
60.503 -5.0275 -1.17217
60.4966 -4.87723 -1.1723
60.4482 -4.72269 -1.17139
60.3098 -4.33729 -1.1681
60.2554 -4.18356 -1.16718
60.4178 -3.38015 -1.17645
53.45 -1.21767 -1.22022
53.4038 -1.0912 -1.21911
53.3526 -0.963585 -1.218
53.3075 -0.900178 -1.21642
53.2803 -0.774293 -1.21633
53.2382 -0.647947 -1.21522
53.1959 -0.5226 -1.21411
53.1457 -0.397012 -1.21298
53.1425 -0.271861 -1.21392
53.1293 -0.146407 -1.21484
53.1232 -0.0841877 -1.2143
53.1169 0.0400548 -1.21523
53.1127 0.165236 -1.21616
53.1015 0.28963 -1.21708
53.0662 0.414764 -1.21598
53.0089 0.538566 -1.21483
52.9587 0.662155 -1.21369
52.9284 0.786132 -1.21358
52.8732 0.846843 -1.21196
52.8119 0.968766 -1.2108
52.8146 1.09274 -1.21173
52.7113 1.21395 -1.2085
52.695 1.33749 -1.20941
52.8039 1.46522 -1.21452
53.0591 1.59948 -1.22588
53.2182 1.66865 -1.23261
53.3302 1.79928 -1.23875
53.4342 1.93116 -1.24388
53.5032 2.06011 -1.24795
53.5882 2.19156 -1.25305
53.7143 2.32576 -1.25923
53.9066 2.46494 -1.26854
54.1721 2.54587 -1.27951
54.3946 2.69013 -1.2899
54.6492 2.83742 -1.30135
54.9208 2.98718 -1.31385
55.1685 3.13767 -1.32532
55.353 3.2841 -1.33367
55.4954 3.42881 -1.34095
55.705 3.51343 -1.35088
55.8586 3.66081 -1.35819
56.1516 3.82192 -1.37181
56.3001 3.97144 -1.37913
56.5601 4.13256 -1.3917
56.7298 4.28644 -1.40009
56.9327 4.44531 -1.40956
57.1347 4.6052 -1.42004
59.4631 6.17569 -1.53102
49.3331 5.78598 -1.12529
36.4149 12.8688 -0.774952
7.76402 19.1473 -0.536154
7.74013 19.118 -0.534901
-4.31962 23.19 -0.905115
-55.2104 30.0485 -2.64846
-39.2167 21.7702 -1.91596
-55.7774 25.9902 -2.57817
-61.1561 -12.6611 -2.34617
-60.6042 -12.8068 -2.32583
-54.2882 -15.0271 -2.09472
-54.0361 -15.1938 -2.08581
-53.1171 -15.2063 -2.05297
19.6709 -9.81096 -0.0115775
19.6967 -9.78473 -0.0118099
51.4673 -7.16484 -1.1208
52.0082 -7.14035 -1.14172
54.1811 -4.26637 -1.23429
54.188 -4.13752 -1.23427
54.1809 -4.00725 -1.23524
54.099 -3.87068 -1.23216
54.055 -3.73728 -1.2311
54.0011 -3.60356 -1.22903
53.96 -3.47125 -1.22797
53.8861 -3.40096 -1.2254
53.8411 -3.26953 -1.22433
53.7571 -3.1359 -1.22122
53.7001 -3.0041 -1.22013
53.6859 -2.87561 -1.22008
53.7607 -2.75284 -1.2231
53.8424 -2.63128 -1.22713
53.8843 -2.56953 -1.22965
53.9041 -2.44308 -1.23063
53.881 -2.31432 -1.23056
53.8199 -2.18339 -1.22847
53.7549 -2.05235 -1.22736
53.6169 -1.91907 -1.22218
53.5407 -1.78969 -1.22005
53.4817 -1.72386 -1.21846
53.4965 -1.59826 -1.21943
53.4973 -1.47223 -1.22037
53.4782 -1.34458 -1.22031
51.774 5.88971 -1.4544
51.8913 6.03118 -1.46162
52.0238 6.17618 -1.46989
50.1228 10.7329 -1.46357
49.9187 10.7982 -1.45579
50.0436 10.9604 -1.46418
49.997 11.0719 -1.46495
49.9251 11.1761 -1.46364
49.8927 11.2291 -1.46299
49.846 11.3396 -1.46376
49.8327 11.4621 -1.46566
49.8073 11.5799 -1.46651
36.7039 12.8698 -0.944358
-16.6175 13.1093 -1.14357
-43.7872 -11.947 -2.05818
-42.5156 -12.0491 -2.00514
-39.9061 -13.4309 -1.8993
36.2084 -17.0877 -0.799393
46.202 9.9721 -1.47251
46.2109 10.2009 -1.47825
46.2403 10.3801 -1.48363
46.2438 10.495 -1.4865
36.8013 12.8557 -1.10139
36.8043 12.9536 -1.10413
19.7741 16.3618 -0.645561
13.6242 18.1455 -0.679603
13.4282 20.9626 -0.841525
10.6301 14.8408 -0.497669
10.5933 14.7839 -0.494191
34.0267 -15.8874 -0.84445
34.1472 -15.7731 -0.847475
34.2011 -15.7107 -0.848017
34.2205 -15.269 -0.839365
35.3725 7.09768 -1.02114
10.6453 14.8526 -0.593782
10.6161 14.7455 -0.587936
10.5862 14.6494 -0.582173
34.0426 -14.1 -0.964918
40.9573 8.84178 -1.52687
36.6329 12.8565 -1.40417
21.235 17.2388 -0.945154
13.0418 16.0606 -0.747133
-26.9925 -0.546528 -2.06778
-29.9828 -3.24766 -2.2354
-30.1851 -4.64229 -2.24464
-30.1482 -4.77646 -2.24268
-29.4433 -5.58585 -2.20055
-28.6631 -6.08934 -2.15382
-28.5949 -6.21444 -2.14998
-28.9003 -7.28087 -2.17054
-28.4629 -7.34094 -2.14468
-28.6008 -7.50091 -2.15329
-28.5275 -7.62416 -2.14947
-21.6793 -10.5778 -1.76657
-16.9174 -12.7461 -1.52474
-16.8114 -12.8133 -1.51937
27.7062 -16.2356 -0.865228
27.7663 -16.2004 -0.866574
27.8162 -16.2049 -0.868608
27.8695 -16.1625 -0.869
27.9538 -16.1531 -0.872185
28.0594 -16.0673 -0.873975
28.1225 -16.0342 -0.87531
31.8959 -13.8911 -0.981567
39.9773 -4.80051 -1.30194
39.9252 -4.70486 -1.29859
40.1118 -1.87922 -1.31009
40.103 -1.83693 -1.3094
36.5158 12.7596 -1.57829
-22.4734 -7.52044 -2.04448
36.1362 11.2961 -1.62177
13.3639 20.8408 -1.32754
10.8018 15.7038 -0.922406
-7.12959 22.0182 -1.98951
34.5118 2.14159 -1.38171
34.5048 2.20783 -1.3822
34.4958 2.27413 -1.38268
34.4818 2.33959 -1.38216
34.4788 2.4067 -1.38366
34.4527 2.50453 -1.38336
35.2241 5.1856 -1.50357
36.0928 8.2766 -1.66601
10.4025 20.1793 -1.41953
10.3463 20.34 -1.43467
10.7005 14.8362 -0.952744
-7.09818 21.8398 -2.17322
-13.3135 14.4204 -2.13996
-13.4125 14.2564 -2.13959
-13.6064 14.1971 -2.14988
-13.6322 14.1029 -2.14714
-16.2084 5.6074 -2.04974
-16.163 5.55104 -2.04538
24.3518 -14.3441 -0.984889
33.9786 6.18135 -1.55737
33.9807 6.2523 -1.5599
34.2622 7.65492 -1.63184
32.9497 10.8309 -1.66594
10.345 20.5341 -1.57113
10.6359 14.7226 -1.0298
20.7851 -15.0715 -0.968563
20.8328 -15.0499 -0.96879
20.8768 -15.0192 -0.96908
20.9216 -14.9925 -0.968342
24.9858 -12.6988 -1.02813
31.9588 -6.3837 -1.29712
32.0508 10.1576 -1.68965
32.0146 10.2147 -1.69003
31.9923 10.2394 -1.68918
2.533 18.6432 -1.74328
19.1704 -14.7065 -0.978109
19.1928 -14.6952 -0.978225
19.2402 -14.6826 -0.978384
19.2952 -14.6843 -0.980446
19.338 -14.6576 -0.979705
19.3845 -14.641 -0.980893
19.4385 -14.6426 -0.982954
19.4795 -14.6108 -0.981249
30.8935 4.07341 -1.45531
30.9084 4.13497 -1.4588
30.9253 4.19846 -1.4623
30.922 4.25558 -1.46372
30.944 4.2899 -1.46701
30.9519 4.35068 -1.46948
30.9527 4.40967 -1.47092
26.3677 14.7007 -1.69208
24.2231 16.2013 -1.68844
15.4866 19.457 -1.70903
6.97874 16.3096 -1.47177
2.55392 18.4795 -1.86508
2.45017 18.5226 -1.87326
29.4578 -7.36881 -1.33531
30.7734 -2.07724 -1.36189
30.7693 -2.04909 -1.3611
30.7789 -1.99536 -1.36151
30.8185 -1.94456 -1.36495
30.8421 -1.89127 -1.36738
30.8478 -1.83641 -1.3678
30.8614 -1.78181 -1.36923
30.8711 -1.72708 -1.36966
30.8918 -1.70171 -1.37188
30.8726 -1.64409 -1.37028
30.8692 -1.58896 -1.36969
30.8689 -1.53392 -1.36911
30.8576 -1.47754 -1.36852
30.8473 -1.42119 -1.36693
30.84 -1.36494 -1.36634
30.8219 -1.33636 -1.36453
30.8165 -1.28117 -1.36394
30.8222 -1.22633 -1.36536
30.8179 -1.17116 -1.36477
30.8305 -1.11653 -1.36619
30.8302 -1.06149 -1.36561
30.8508 -1.00811 -1.36804
30.8507 -0.98009 -1.36825
30.8453 -0.924897 -1.36766
30.854 -0.870143 -1.36908
30.8746 -0.81576 -1.37152
30.8653 -0.760439 -1.36992
30.861 -0.705284 -1.37033
30.5023 8.71143 -1.72967
30.5278 8.79265 -1.73631
21.2094 17.3834 -1.76923
13.0644 17.5342 -1.60027
2.37935 19.7954 -2.13474
-3.82931 13.8152 -2.01932
-3.88468 13.7708 -2.02091
13.1831 17.3268 -1.69087
13.1283 17.3344 -1.69186
12.5751 15.4089 -1.46462
-2.8262 13.0435 -2.01988
-2.8873 13.0083 -2.02253
-2.92371 12.9954 -2.02438
-2.86365 12.8636 -2.00847
10.773 17.0978 -1.78887
10.4754 17.7485 -1.87437
14.7907 15.1366 -1.62259
-3.42211 9.98448 -2.08806
25.7711 7.91439 -1.69723
25.7585 7.96177 -1.70057
12.9733 -12.3947 -1.20606
13.0317 -12.3804 -1.20325
13.0709 -12.3756 -1.20334
13.1099 -12.3768 -1.20338
13.1869 -12.3781 -1.20348
25.0878 -0.391059 -1.44383
25.0903 -0.373128 -1.44397
25.0794 -0.335775 -1.44324
25.0945 -0.299232 -1.44553
23.4726 8.52887 -1.74372
23.4455 8.5607 -1.74393
23.4474 8.58963 -1.74715
23.4296 8.62917 -1.74942
23.4015 8.66004 -1.74961
23.3775 8.69477 -1.75084
23.3484 8.72467 -1.75003
24.979 -1.8044 -1.43606
24.9711 -1.76613 -1.43433
24.9882 -1.73164 -1.43562
25.0012 -1.69603 -1.4379
25.0123 -1.66036 -1.43919
25.0214 -1.62462 -1.43947
25.0369 -1.6081 -1.44161
25.036 -1.57105 -1.44089
25.0471 -1.53437 -1.44218
25.0612 -1.4988 -1.44447
25.0713 -1.4631 -1.44575
25.0754 -1.42621 -1.44603
25.0725 -1.38909 -1.44531
25.0861 -1.3715 -1.44646
25.0822 -1.33436 -1.44573
25.0963 -1.29879 -1.44802
25.0705 -1.25795 -1.44329
25.0936 -1.22366 -1.44658
25.0817 -1.18527 -1.44485
25.0878 -1.14844 -1.44514
25.0874 -1.13042 -1.44527
25.0765 -1.09206 -1.44355
25.0777 -1.05507 -1.44283
25.0808 -1.01815 -1.44311
25.0779 -0.981036 -1.44238
25.0651 -0.942616 -1.44065
25.0741 -0.906883 -1.44194
25.0687 -0.887703 -1.44107
25.0738 -0.850842 -1.44136
25.07 -0.813702 -1.44063
25.0731 -0.77778 -1.44091
25.0712 -0.740707 -1.44118
25.0773 -0.703876 -1.44147
25.0814 -0.666992 -1.44275
25.08 -0.648933 -1.44188
25.0901 -0.612238 -1.44417
25.0892 -0.575188 -1.44345
25.0813 -0.537927 -1.44272
25.0884 -0.501134 -1.44401
25.0995 -0.465461 -1.44529
25.0926 -0.42823 -1.44456
13.2388 12.1343 -1.85391
18.4762 -14.5197 -4.98169
18.5595 -14.6085 -5.02013
15.9007 0.348428 -0.750867
15.8889 0.354818 -0.746899
12.2494 1.4094 -0.483867
12.2559 1.39226 -0.475746
13.9146 -1.88063 -0.492392
39.108 6.25009 -11.2342
12.4803 1.13222 -0.360093
12.4055 0.974652 -0.327805
12.5447 1.14622 -0.368286
12.579 1.08738 -0.33789
12.5605 1.10586 -0.350004
12.5045 1.14124 -0.394195
12.3727 1.31655 -0.495337
12.4956 1.14448 -0.397207
12.4887 1.14567 -0.400207
12.4509 1.18665 -0.425464
12.4082 1.23274 -0.453754
12.354 1.29412 -0.492142
12.3865 1.24333 -0.463804
12.3689 1.25779 -0.473889
12.4016 1.21397 -0.448603
12.3734 1.2397 -0.466759
12.1907 1.45635 -0.597143
12.4613 1.0327 -0.366319
12.3782 1.06695 -0.403464
14.8569 -1.09209 -0.537607
15.133 -8.70552 -3.76382
14.8912 -1.21067 -0.601763
14.8143 -1.14195 -0.554174
14.8302 -1.14749 -0.562154
14.7161 -1.05147 -0.492719
1.15033e-41 0 3.95793e-34
