ply
format ascii 1.0
element vertex 509
property float x
property float y
property float z
end_header
145.962 -5.66592 3.88323
136.063 -0.635302 3.50698
146.144 2.70349 3.8691
145.997 3.31768 3.86333
134.274 6.78315 3.44145
111.445 37.375 3.02113
98.9726 32.7495 2.60182
98.6168 32.5724 2.58959
91.9121 25.7773 2.27668
89.9184 23.7231 2.18251
52.6726 13.0961 1.65739
29.4808 18.2537 2.29121
26.6078 14.3756 2.32187
18.0257 16.8487 2.589
14.893 16.9716 2.67941
17.1741 14.6667 2.5933
17.6102 14.32 2.57778
-4.5197 13.4356 3.22888
19.473 -8.78766 2.49761
19.4161 -12.3478 2.52833
7.61918 -15.143 2.91766
6.72304 -16.5737 2.95891
-9.64817 -20.9699 3.50661
6.51755 -18.9971 2.99281
16.7941 -18.55 2.6767
24.67 -22.6073 2.50691
24.6588 -22.7693 2.51051
24.8588 -22.8396 2.5063
9.75329 -29.6305 3.05362
24.5779 -27.912 2.60933
25.2156 -27.9877 2.59328
48.9974 -27.9227 2.03365
49.2985 -27.6772 2.02047
49.2477 -27.8194 2.02589
55.3717 -20.4681 1.69012
131.36 -50.5238 4.02313
132.755 -48.4636 4.01772
137.412 -41.2253 4.01259
134.514 -36.5442 3.82884
130.728 -27.6871 3.55153
129.315 -20.6131 3.40431
129.342 -20.4109 3.40259
129.359 -19.9981 3.39803
129.362 -19.6864 3.39482
129.372 -19.4808 3.39205
129.386 -19.2766 3.39029
142.43 -2.15808 3.26241
144.411 1.57593 3.313
112.632 8.14513 2.37305
112.466 8.25489 2.36819
112.314 8.36564 2.36437
98.5282 12.7001 2.00476
94.1465 29.8349 2.14166
-4.44946 -15.7093 2.83659
29.2305 -20.5536 2.08272
24.7507 -22.53 2.21381
127.418 -20.9196 2.94259
127.421 -20.7169 2.9398
127.518 -19.6236 2.9308
146.582 -2.58287 3.01282
146.646 -2.33036 3.014
121.334 5.35867 2.36145
121.447 7.07515 2.36506
105.155 15.7015 2.00524
105.2 15.8798 2.00766
105.249 16.0608 2.00908
88.3045 13.23 1.6192
109.961 37.0991 2.31235
110.074 37.4719 2.31919
100.958 30.2038 2.05987
94.0695 29.9836 1.93488
23.9531 -16.819 1.9475
10.0618 -23.6228 2.28601
88.4828 -21.6592 1.74756
123.335 -26.7788 2.61283
127.435 -20.5736 2.64428
127.45 -20.3746 2.64254
127.457 -20.1725 2.64077
127.471 -19.9736 2.63903
127.454 -19.868 2.63758
127.467 -19.6688 2.63584
146.679 -2.50599 2.40976
121.644 5.21756 1.9468
105.204 15.8003 1.67698
105.291 15.9233 1.67872
87.2603 9.45132 1.37121
110.108 37.4684 1.86229
110.208 37.8309 1.86613
100.921 30.1512 1.68998
94.5892 30.1825 1.60945
140.488 -29.483 2.4668
133.639 -21.5709 2.28423
133.882 -21.0725 2.28492
137.858 -21.8144 2.35912
127.204 -19.0285 2.15366
146.678 -2.60431 2.00214
105.188 15.7048 1.45431
88.7841 11.718 1.26533
-5.16878 -18.0803 1.60095
89.9256 -18.9999 1.38694
89.9278 -18.9002 1.38556
89.9967 -18.8425 1.38551
109.68 -21.5207 1.63795
109.757 -21.3954 1.63766
139.713 -19.3559 1.99334
146.728 -2.93264 1.44754
146.667 -2.6824 1.44641
101.886 10.5497 1.14683
99.9717 11.2334 1.1352
89.7485 11.725 1.0798
114.511 38.7224 1.1528
112.294 39.9527 1.14027
95.135 25.4283 1.08138
95.0021 25.5717 1.08047
118.663 -26.4307 1.39135
109.692 -21.2397 1.31588
126.408 -27.5183 1.43966
141.148 -29.7582 1.53258
142.433 -29.929 1.54057
126.872 -20.8989 1.41007
126.928 -20.712 1.40949
129.368 -20.946 1.42472
129.353 -20.8368 1.42426
129.365 -20.6303 1.42249
130.995 -20.6195 1.43167
132.222 -20.7082 1.43919
133.827 -20.8806 1.44902
127.086 -19.0405 1.40239
143.147 -19.3771 1.49532
146.761 -2.63673 1.07047
117.042 5.10689 1.0073
98.8066 28.4776 0.877011
98.2191 28.0742 0.87806
96.4789 26.4566 0.883852
98.1191 28.3826 0.8766
95.3415 25.6444 0.886068
95.4704 26.0694 0.883747
79.0707 14.8104 0.915107
89.9691 -18.7396 1.06703
89.9777 -18.6448 1.06669
122.585 -26.9356 1.13248
109.613 -21.4372 1.09944
109.729 -21.2498 1.09901
136.07 -28.8516 1.15488
127.045 -19.2073 1.11093
127.084 -19.017 1.11029
143.239 -19.3533 1.12946
146.671 -2.5901 0.56305
145.663 3.85822 0.540322
113.474 8.6534 0.680236
108.114 10.1404 0.697555
92.2497 9.35732 0.776497
90.1793 9.59478 0.783207
96.9145 25.0624 0.623408
121.621 49.7105 0.315415
114.834 44.5097 0.385089
114.238 44.2056 0.389728
114.292 44.417 0.388046
114.474 44.9141 0.38258
114.447 45.1979 0.379406
95.8124 26.5092 0.612917
92.3966 24.1803 0.644138
91.2244 22.9508 0.659889
79.0725 14.841 0.768992
76.0265 12.2244 0.801291
90.0131 -18.6556 0.894819
100.674 -23.8358 0.849621
122.548 -26.969 0.751506
140.821 -29.6809 0.667419
142.106 -29.8527 0.661418
126.977 -19.0403 0.718099
128.877 -18.7764 0.707994
143.167 -19.4144 0.636508
146.064 -3.64915 0.0835985
143.295 -3.20295 0.113686
139.994 6.94806 0.0995913
118.798 4.77108 0.351149
111.357 39.6191 0.0571242
114.919 44.5284 -0.0367688
114.865 44.7827 -0.0409002
114.447 44.661 -0.0355082
114.35 44.8709 -0.0375776
114.474 45.3137 -0.0449801
99.3396 29.5636 0.283156
114.015 45.3011 -0.0421215
99.7199 30.401 0.268879
112.099 43.8807 -0.00855349
91.1949 22.93 0.433891
79.0712 14.7447 0.628362
76.0693 12.1966 0.683509
44.2947 -3.54869 0.615503
90.0011 -18.707 0.727986
90.1958 -18.6249 0.726171
90.3571 -18.6208 0.724573
121.65 -26.7602 0.392361
109.968 -21.1851 0.521375
124.472 -26.4361 0.363411
128.171 -25.226 0.325283
130.238 -25.4771 0.302615
123.3 -22.218 0.378944
127.827 -20.824 0.329244
127.528 -19.5251 0.33241
127.615 -18.8396 0.330966
128.758 -18.6959 0.318366
138.097 1.68704 -0.347835
112.706 2.01507 0.114098
112.557 2.13969 0.115224
107.546 1.99444 0.207808
107.52 2.12147 0.207246
110.621 9.41871 0.0868552
111.966 39.1723 -0.379562
110.472 38.3954 -0.346407
114.119 43.3195 -0.483138
113.906 43.4037 -0.482018
113.669 43.4641 -0.480867
79.1272 14.8563 0.46607
76.0476 12.2599 0.548205
69.5965 10.0498 0.630098
55.172 15.7415 0.392547
52.2829 -12.6397 0.638614
90.0434 -18.7754 0.53736
111.837 -23.9126 0.157839
111.967 -23.8838 0.155063
110.963 -21.5964 0.181553
122.066 -17.9549 -0.00386339
122.462 -17.8654 -0.0111864
122.542 -17.7002 -0.0116218
122.743 -17.5614 -0.015642
123.058 -17.4492 -0.0212623
124.137 -16.469 -0.0402854
107.522 1.93764 -0.00303651
107.375 2.04572 0.000161328
107.012 2.11516 0.00795075
91.0692 10.2276 0.256042
110.346 38.1991 -0.653971
110.475 38.4615 -0.661659
110.576 38.8338 -0.671847
100.342 28.8808 -0.286593
76.0639 12.2451 0.449304
76.013 12.2776 0.449045
103.871 -19.4562 0.104838
127.161 -19.0405 -0.413435
120.747 -13.2771 -0.258506
113.175 -11.0417 -0.360834
113.127 -10.8126 -0.35985
113.288 -10.5367 -0.364508
113.387 -10.4013 -0.36678
113.411 -10.2553 -0.367287
113.222 -9.12578 -0.362176
113.688 -6.13782 -0.381606
113.875 -6.06974 -0.387388
114.031 -5.92653 -0.392541
114.157 -5.78102 -0.396782
114.31 -5.6354 -0.401952
114.491 -5.48966 -0.407051
114.684 -5.34268 -0.413124
114.883 -5.19457 -0.420185
115.072 -5.12182 -0.425978
116.162 -4.2039 -0.461729
98.8402 4.66751 -0.0281663
98.1977 4.69642 -0.0109436
109.217 34.1276 -0.887039
94.2053 23.4316 -0.30127
76.0831 12.2005 0.336526
76.0254 12.2209 0.336297
70.7191 13.1607 0.350886
62.2939 14.8764 0.26437
62.1426 14.9699 0.259614
54.4527 16.921 0.0820857
108.421 -18.1111 -0.247615
108.571 -18.0155 -0.251598
109.12 -17.8258 -0.265915
109.089 -17.6708 -0.2636
109.332 -17.5998 -0.270246
110.45 -15.3582 -0.29108
110.936 -15.3312 -0.304927
110.487 -13.8511 -0.287855
113.304 -12.3302 -0.365481
113.332 -12.1847 -0.366975
113.37 -12.0407 -0.367438
113.399 -11.9701 -0.368637
113.391 -11.8194 -0.368246
113.371 -11.6661 -0.366894
106.896 -10.335 -0.442858
106.876 -10.2038 -0.442422
106.811 -10.0661 -0.440127
106.809 -9.93754 -0.439632
106.766 -9.86876 -0.438011
106.778 -9.7422 -0.438472
106.874 -9.62663 -0.441675
106.952 -9.50864 -0.443931
106.982 -9.38351 -0.445343
106.969 -9.25438 -0.444879
106.985 -9.12839 -0.445328
106.942 -9.05961 -0.443706
106.877 -8.92489 -0.441401
106.82 -8.79245 -0.439064
106.807 -8.66332 -0.438599
106.808 -8.53717 -0.439088
106.814 -8.41074 -0.438565
106.835 -8.28533 -0.440002
107.164 -5.3897 -0.456428
107.307 -5.26486 -0.462543
107.455 -5.13974 -0.467646
107.585 -5.01291 -0.472805
107.725 -4.88566 -0.478937
107.812 -4.82142 -0.481961
107.918 -4.69314 -0.486188
108.018 -4.56414 -0.49043
108.138 -4.4339 -0.494627
108.293 -4.30271 -0.500736
108.435 -4.17066 -0.506882
108.572 -4.03775 -0.512046
108.716 -3.904 -0.518193
108.793 -3.8372 -0.521255
108.918 -3.70174 -0.526457
109.012 -3.56779 -0.530735
109.131 -3.43132 -0.53496
109.273 -3.29417 -0.541126
109.439 -3.15437 -0.548241
109.605 -3.01372 -0.554357
109.801 -2.93887 -0.562142
109.901 -2.79969 -0.566425
110.038 -2.65787 -0.571621
110.184 -2.51423 -0.577802
110.228 -2.37597 -0.580229
110.308 -2.23395 -0.584575
110.594 -2.08015 -0.595433
110.725 -2.00309 -0.600393
110.843 -1.85744 -0.605655
110.981 -1.70968 -0.611872
111.15 -1.55815 -0.619026
111.249 -1.41176 -0.62334
110.836 0.372319 -0.621359
92.3209 5.4272 -0.0380187
111.146 35.968 -1.36822
94.9776 24.7115 -0.617257
94.4374 29.7423 -0.770255
76.0924 12.2482 0.208363
62.1136 14.7514 0.136389
62.0456 14.7632 0.135166
93.1812 -21.3732 -0.0793969
102.742 -15.255 -0.318456
105.042 -11.6743 -0.380444
107.27 -11.2335 -0.45839
107.219 -11.0949 -0.456061
107.194 -10.9609 -0.454648
107.164 -10.8263 -0.453251
107.142 -10.7585 -0.452571
107.061 -10.6164 -0.449336
106.966 -10.4734 -0.446137
103.773 -3.50664 -0.561551
103.864 -3.38754 -0.566777
103.99 -3.26721 -0.571921
104.08 -3.14683 -0.577156
104.15 -3.08512 -0.580217
92.7137 0.384399 -0.134359
93.0597 8.93178 -0.306758
91.4245 20.7968 -0.617216
76.0422 12.2267 0.0953148
48.5348 7.62882 -0.0810558
-2.30181 14.436 -2.45033
3.58013 -6.083 -1.97916
3.9661 -6.27186 -1.96042
82.3489 -18.65 0.154929
101.22 -13.3309 -0.464896
101.3 -13.2363 -0.467059
98.8918 -12.2043 -0.362317
102.318 -11.0957 -0.496758
102.307 -10.9788 -0.496243
102.268 -10.857 -0.493819
102.23 -10.7353 -0.491391
102.218 -10.6761 -0.490653
102.203 -10.5588 -0.490147
102.186 -10.4421 -0.488647
101.991 -0.000581475 -0.716825
102.091 0.125435 -0.723057
101.917 0.946721 -0.723709
92.7762 8.76999 -0.459864
96.6194 24.5531 -1.13839
95.8715 24.4538 -1.10994
92.1757 21.2374 -0.861988
89.9492 19.1156 -0.705491
89.8492 19.0876 -0.700641
76.0331 12.2175 -0.0136741
70.1547 17.6075 -0.214904
61.0984 6.0822 0.326528
61.0822 6.03301 0.328678
61.1798 5.8129 0.341789
61.2212 5.65846 0.350498
61.2946 5.15799 0.376637
61.177 5.33046 0.364661
61.1329 5.33277 0.363537
6.06023 10.4632 -2.36718
5.36562 10.4307 -2.40186
8.75634 7.39736 -2.18225
78.6737 -20.9167 0.0732342
85.1197 -19.0164 -0.0754664
97.6896 -12.7541 -0.500292
97.7391 -12.6632 -0.502518
97.7097 -12.5519 -0.500028
95.5731 -7.82838 -0.558964
95.6009 -7.74045 -0.560234
95.5929 -7.64837 -0.559614
95.5841 -7.55516 -0.559
95.7279 -4.97029 -0.568696
15.0167 10.1855 -2.24589
95.536 0.395173 -0.758095
92.5927 8.67401 -0.78897
59.9583 11.7386 -0.187464
26.9365 -6.74146 -1.57406
81.2663 -16.2521 -0.0752193
90.9248 -6.50164 -0.605177
93.0234 1.99429 -0.827835
70.7675 4.22435 0.29982
84.7732 8.47426 -1.05846
84.7329 8.53059 -1.05878
84.9613 8.87442 -1.09553
84.9914 8.98523 -1.10388
64.1485 13.6651 -0.786117
64.0996 13.5994 -0.780988
60.1085 12.6282 -0.795547
83.1156 7.57847 -1.01726
83.0684 7.62264 -1.01656
83.0247 7.67035 -1.01586
82.9798 7.71623 -1.01515
82.9636 7.74382 -1.0163
64.0614 13.5419 -0.892864
83.2867 -2.67252 -0.708886
60.2432 12.2404 -0.981689
73.4872 -15.721 -0.304448
81.743 -11.6551 -0.669897
72.552 -16.212 -0.38896
75.4455 10.0011 -1.03357
75.3943 10.0176 -1.03277
75.3583 10.0621 -1.03504
75.3182 10.0992 -1.03729
75.2771 10.1365 -1.03854
75.2574 10.1544 -1.03966
65.7111 13.7164 -1.23527
64.1165 13.4752 -1.23047
81.2469 1.23938 -0.911411
80.281 4.26029 -1.07568
60.2568 -15.3651 -0.598121
79.239 4.60115 -1.10371
79.2201 4.61701 -1.10282
79.2164 4.67513 -1.10706
79.1582 4.6926 -1.10228
79.1498 4.74634 -1.10651
76.4517 2.74495 -0.652699
67.9214 -15.6123 -0.459295
68.1005 -15.5047 -0.44725
68.2278 -15.5473 -0.454755
74.0724 7.86576 -1.08782
78.1805 3.63525 -1.06869
78.1862 3.66775 -1.0728
78.1679 3.70878 -1.07401
78.1655 3.76265 -1.07823
78.1585 3.81214 -1.08244
78.1971 4.09341 -1.11243
78.3439 4.26311 -1.14471
71.3577 3.48732 -0.390788
71.326 3.41389 -0.444584
63.0706 9.2479 -1.27771
63.0241 9.24753 -1.27883
61.3486 9.01169 -1.33025
61.3057 8.99463 -1.3303
61.2599 8.98506 -1.33138
61.2083 8.99146 -1.33554
61.1845 8.98781 -1.33658
61.1437 8.96438 -1.3356
61.1 8.94845 -1.33565
61.0528 8.94311 -1.33775
61.0061 8.93467 -1.33984
61.4992 7.99488 -1.3219
61.4575 7.98573 -1.32297
61.425 7.94999 -1.31992
61.3953 7.91186 -1.31585
72.2824 -11.9513 -0.737258
65.8455 -3.0481 0.142392
65.57 -5.95145 0.153987
118.267 -10.6885 -21.2532
66.0564 -3.35585 0.271139
106.36 -18.9717 -17.0538
123.95 -20.0214 -24.3692
124.002 -19.843 -24.3718
124.04 -19.6616 -24.3684
66.0976 -3.30228 0.239036
66.1337 -3.38009 0.277433
66.1302 -3.38362 0.278438
66.0611 -3.31731 0.22
66.0675 -3.33637 0.229091
66.0615 -3.33552 0.227072
66.0349 -3.2964 0.20585
66.0071 -3.25813 0.183629
65.9634 -3.19741 0.149279
65.9574 -3.19755 0.147264
65.9661 -3.22099 0.159378
65.9673 -3.23327 0.164429
65.9704 -3.24683 0.17049
65.8925 -3.12976 0.105831
65.9933 -3.40245 0.236156
65.9833 -3.45046 0.252317
65.8626 -3.29398 0.161394
65.5655 -5.94198 0.0769379
65.6267 -5.94467 0.0941071
68.1067 -5.85624 0.0701887
68.1246 -5.86591 0.0602725
1.95334e-39 0 2.35972e-40
