ply
format ascii 1.0
element vertex 1762
property float x
property float y
property float z
end_header
39.3596 16.4151 1.50104
26.2452 18.4885 1.15068
20.5309 79.0977 2.79058
20.2746 79.0795 2.78799
12.7395 29.6335 1.24046
12.4602 27.9673 1.18823
12.1266 25.6969 1.11685
11.8495 23.8286 1.05929
11.6114 22.2276 1.00895
11.403 20.8242 0.965038
-32.4216 52.9246 2.31933
-32.6829 52.9125 2.3237
-27.5153 42.7132 1.99348
-16.373 29.439 1.47966
-31.8757 42.1025 2.06934
-30.5002 40.5721 2.0079
-46.1918 55.4777 2.64972
-34.568 42.1214 2.1274
-30.2617 30.114 1.80293
-33.4197 19.4674 1.7359
-57.6101 -16.1955 2.53244
-58.7752 -16.8186 2.57451
-51.939 -18.2283 2.38663
-64.1832 -26.2274 2.85966
27.5555 -16.1522 1.24505
27.6075 -16.0962 1.245
27.7187 -16.0912 1.24827
39.6968 -17.7361 1.64732
47.0208 -18.3534 1.89608
50.1899 -19.2649 2.01718
67.7057 -24.5499 2.69337
70.9956 12.7512 2.167
20.5071 79.0345 2.28172
20.2574 79.0532 2.28102
12.686 29.0997 1.03808
12.3349 26.8047 0.980735
12.0267 24.775 0.930628
11.7414 22.8449 0.882251
11.5105 21.3108 0.84471
1.23331 23.3161 0.900831
-27.8715 44.1951 1.66669
-29.0868 35.577 1.54395
-29.6754 33.6947 1.52664
-32.3514 24.7923 1.4651
-64.072 -26.3381 2.3633
-25.1323 -15.1975 1.31819
27.5776 -16.1691 1.09116
27.6375 -16.1192 1.09115
71.1838 -20.0128 2.33133
82.3962 -14.8044 2.60486
82.4506 -14.5753 2.60524
82.4839 -14.3439 2.60356
82.5293 -14.1137 2.60292
82.5746 -13.8846 2.60228
82.607 -13.6521 2.6016
82.6242 -13.5354 2.60126
82.6466 -13.3018 2.59955
45.8507 16.432 1.27158
20.3156 79.0669 1.90612
12.5039 28.2255 0.88249
12.1525 25.8115 0.833537
11.9014 23.8398 0.794385
11.6592 22.2339 0.762051
11.4465 20.8146 0.733179
-31.9004 38.258 1.36993
-28.8171 33.0246 1.26304
-33.3647 30.2329 1.3036
-31.3431 26.1988 1.23205
-35.3944 23.2588 1.27737
56.6537 -19.758 1.67433
71.2581 -19.8802 2.02608
81.8434 -14.6301 2.23887
81.8157 -14.5055 2.23739
81.8411 -14.274 2.23669
81.8705 -14.0435 2.235
81.8918 -13.8109 2.23429
81.9312 -13.5826 2.23364
81.9834 -13.3565 2.23303
82.0297 -13.1283 2.2324
82.0888 -13.0214 2.2332
41.1643 16.2991 0.892032
40.9688 16.3247 0.888447
41.0207 16.4778 0.890076
20.3442 78.9073 1.29972
20.0946 78.932 1.299
19.8403 78.9158 1.2974
19.5297 78.4626 1.2911
12.6777 29.0877 0.678095
12.3348 26.8607 0.650548
11.9988 24.5815 0.622191
11.7216 22.7093 0.598644
11.4844 21.1094 0.578304
1.25983 23.4607 0.599421
1.23469 23.2941 0.597905
-26.4751 42.5131 0.933793
-52.7383 27.494 1.10308
-57.6316 -16.1343 1.25017
86.6423 -15.6473 1.76948
88.2373 11.4941 1.28922
71.1145 12.7004 1.07246
58.2037 14.6196 0.91213
45.7721 16.3848 0.762531
20.6977 78.9283 0.894549
20.4412 78.9002 0.892986
20.1926 78.9269 0.892262
12.6516 29.0627 0.528109
12.3221 26.9125 0.512344
12.0126 24.8169 0.49645
11.7504 23.0535 0.483584
11.5611 21.5527 0.47304
-37.236 54.2155 0.743756
-33.1405 29.9885 0.636973
-35.7895 23.1172 0.639817
20.5662 78.3459 0.339125
20.5104 78.8331 0.339379
20.241 78.7111 0.338092
19.9529 78.4435 0.337236
19.6962 78.4053 0.336705
12.7772 29.3787 0.324388
12.524 27.9923 0.324304
12.1138 25.1225 0.322702
11.8655 23.5659 0.322191
11.6188 21.9392 0.321914
2.30417 25.2843 0.300086
-31.4504 53.2226 0.250814
-29.4397 44.6452 0.259188
-38.1663 54.3524 0.245922
-38.4683 54.3531 0.246148
-27.9564 36.7938 0.267825
-34.0092 28.1564 0.278779
-54.1308 25.4522 0.288229
60.27 -19.6494 0.686211
83.7866 -14.9945 0.798022
83.8331 -14.7603 0.79737
58.4955 14.6832 0.316662
49.38 15.9102 0.302314
40.0095 12.5212 0.304509
39.937 12.5466 0.30424
40.5799 13.3876 0.302116
40.5963 13.5113 0.30175
20.7432 78.1353 -0.0317323
20.5705 78.6797 -0.0349659
20.3368 78.8071 -0.0359827
20.0919 78.8637 -0.0367955
19.8141 78.6689 -0.0358645
13.2558 33.793 0.165081
12.6355 29.2199 0.185547
12.3798 27.3294 0.194116
12.021 24.7968 0.205536
11.766 23.1003 0.213468
11.537 21.5644 0.219938
-34.0119 53.4929 -0.0746287
-29.557 41.3549 -0.00428367
-32.211 28.9678 0.0387036
-32.8919 27.2304 0.0436817
74.2731 -20.4483 0.446644
81.4705 -14.6069 0.43682
82.0201 -12.8259 0.432364
58.4525 14.6389 -0.0083055
40.3517 13.4032 0.087479
40.3358 13.5116 0.0860816
-28.646 42.9398 -0.372174
-45.0534 55.2506 -0.613652
-28.1533 34.6493 -0.293625
-30.5899 36.4394 -0.329748
-31.4196 27.1366 -0.261248
-55.3815 26.8105 -0.487447
70.4153 -20.5609 0.034147
74.6516 -20.8539 0.0129434
81.5322 -14.6876 -0.0297603
82.0707 -14.5597 -0.0328042
81.9713 -14.4208 -0.0325156
81.2517 -13.8081 -0.0303723
81.9179 -13.7007 -0.0340226
82.2507 -13.2889 -0.0365271
81.656 -12.9456 -0.0331775
81.9384 -12.8789 -0.0356751
50.0919 7.23062 -0.1823
67.5583 11.0884 -0.400338
59.4536 13.5248 -0.326081
53.7541 12.6613 -0.257812
53.5045 12.7411 -0.255713
15.4717 41.0658 -0.383197
-27.9155 34.2778 -0.599796
-31.0889 31.311 -0.605146
-31.1903 31.1869 -0.604996
-58.0608 35.6038 -1.04025
-57.5175 26.7643 -0.95076
-56.2931 26.0361 -0.925233
68.9594 -20.2246 -0.345686
74.3259 -20.574 -0.403814
74.0235 -18.1539 -0.398554
74.9727 -18.3098 -0.409613
76.1123 -18.4014 -0.421398
78.2753 -18.5312 -0.44544
79.1922 -18.5426 -0.456058
80.1203 -18.5511 -0.465657
81.4237 -18.6507 -0.479997
74.5792 -15.6829 -0.404266
82.5253 -15.658 -0.493031
81.6556 -13.9342 -0.483928
83.7236 -13.8483 -0.506924
83.7352 -13.6085 -0.507683
33.1975 7.5852 -0.171666
33.2305 8.21967 -0.17867
39.5481 12.9989 -0.337249
39.4383 13.063 -0.336741
36.6444 12.8368 -0.28714
20.4112 78.7677 -1.58168
19.917 77.9179 -1.56014
14.1507 36.4343 -0.560331
14.0231 36.3527 -0.558389
13.5437 33.4824 -0.489166
13.4354 33.4674 -0.489394
12.5319 27.9459 -0.355529
2.5068 24.5934 -0.316127
-42.3788 33.6213 -1.21862
-33.261 27.4072 -0.943853
-56.9605 37.8168 -1.57672
-39.4994 22.9787 -1.01423
-54.9829 29.0434 -1.42279
-60.0487 14.0302 -1.39032
58.2174 -18.3526 -0.592317
58.4044 -18.2471 -0.595187
58.5382 -18.2086 -0.596971
58.7014 -18.0937 -0.598932
59.5709 -16.9049 -0.609622
60.267 -16.962 -0.622654
62.1542 -16.7657 -0.654475
62.3455 -16.6443 -0.657385
61.5779 -14.7044 -0.638733
62.0558 -14.6604 -0.646656
62.3212 -14.6444 -0.65203
62.6021 -14.5427 -0.656647
62.9031 -14.4444 -0.661201
63.3612 -13.7519 -0.668309
68.1877 -13.5162 -0.753744
71.1423 -13.7881 -0.807295
72.3056 -13.8411 -0.828146
74.9286 -13.0215 -0.874137
75.0333 -12.6134 -0.876212
73.9158 -11.2451 -0.854574
74.5937 -11.1519 -0.867147
75.8032 -11.1447 -0.889078
76.1741 -11.0997 -0.896278
77.8597 -10.7175 -0.926226
78.0064 -10.5193 -0.929504
78.171 -9.11013 -0.932721
76.5657 -8.6827 -0.903233
76.3642 -8.44184 -0.900541
76.1876 -8.31248 -0.896418
68.5414 -0.95356 -1.07219
68.2229 -0.7635 -1.06563
60.9694 4.45067 -0.917342
54.4714 11.2657 -0.817389
39.9609 13.1196 -0.516592
39.8541 13.1866 -0.515086
38.9658 12.9134 -0.492458
24.9522 17.0269 -0.300829
14.1581 36.5395 -0.75166
13.4938 33.0898 -0.651003
13.3652 32.9042 -0.644721
13.2625 32.9191 -0.645033
1.70505 27.1853 -0.527711
-1.19001 21.2312 -0.397514
-34.1868 20.4498 -1.11532
-60.0766 14.1996 -1.75495
-60.0739 13.9725 -1.7532
-63.5784 11.3659 -1.83158
-63.9054 10.9459 -1.83803
50.5044 -17.2273 -0.684744
50.5827 -17.1077 -0.685938
50.6719 -16.9924 -0.687089
50.7929 -16.8897 -0.689118
50.8141 -16.823 -0.689283
51.7674 -14.3256 -0.695066
51.7618 -14.2495 -0.695331
54.6334 -12.8735 -0.752518
56.2346 -12.2987 -0.787316
56.3351 -12.1676 -0.788491
57.7387 -12.2072 -0.820772
57.897 -12.0851 -0.823768
61.9306 -12.4755 -0.91717
64.9412 -11.2653 -0.983457
64.9736 -9.91365 -0.981823
65.2295 -9.86848 -0.987317
65.5001 -9.73458 -0.994066
67.0939 -9.07862 -1.03015
67.3789 -9.03001 -1.03658
67.3465 -8.83836 -1.0363
67.4467 -8.66722 -1.0376
67.3455 -8.46527 -1.03553
67.3719 -8.28274 -1.03606
66.7396 -7.54964 -1.02109
66.6642 -7.35718 -1.01991
65.9292 -7.08221 -1.0027
65.8558 -6.89279 -1.00051
65.7973 -6.70565 -0.999276
68.8933 -6.69324 -1.0714
68.6521 -3.94218 -1.06907
59.4112 -0.832694 -1.15594
59.4392 -0.676194 -1.15638
59.4651 -0.51866 -1.15783
59.4691 -0.361707 -1.15834
59.4341 -0.204017 -1.15795
59.3695 -0.124781 -1.15637
59.3365 0.0328722 -1.15598
59.2944 0.189695 -1.1556
59.3554 0.346567 -1.15796
59.6755 0.50653 -1.16767
60.8748 1.40896 -1.20657
63.2168 2.91184 -1.28253
63.2931 3.08543 -1.28491
63.5246 3.27007 -1.29293
63.7545 3.36973 -1.30067
63.9911 3.55628 -1.30868
64.1556 3.73919 -1.31386
64.4984 3.93673 -1.32563
64.5197 4.11235 -1.32715
64.9928 4.32343 -1.34164
57.4389 4.96165 -1.12405
41.6512 6.57001 -0.677713
34.7082 7.19463 -0.48652
34.5319 7.23097 -0.482091
39.445 12.7877 -0.69482
39.2465 12.8144 -0.690416
39.0237 12.8307 -0.685039
28.0705 14.0192 -0.429956
27.9535 14.0234 -0.427269
15.4772 41.8863 -1.15989
15.14 41.4016 -1.14216
19.5799 78.2205 -2.43901
13.9858 36.072 -0.953564
13.4663 32.8796 -0.841383
12.4485 27.6164 -0.65566
1.79972 27.144 -0.693334
-34.9951 31.4603 -1.63963
-39.5356 33.2047 -1.80899
-42.2216 27.1874 -1.77005
-68.8728 -10.3861 -2.37452
-65.1156 -10.6025 -2.2462
-67.894 -12.3628 -2.34352
-65.7574 -12.8699 -2.27138
43.0289 -17.1956 -0.751964
43.1552 -17.1269 -0.753867
43.2406 -17.1035 -0.755726
43.3343 -17.0163 -0.757773
43.4032 -16.9176 -0.757922
43.5206 -16.8428 -0.760868
47.3287 -12.639 -0.825969
49.7067 -11.5558 -0.886454
54.6339 -11.2931 -1.02472
55.5386 -11.2122 -1.04967
53.8262 -10.5727 -0.998157
54.4853 -10.5802 -1.01745
55.4242 -10.649 -1.04482
55.7906 -10.5799 -1.05511
55.9509 -10.4629 -1.05909
56.2177 -10.3679 -1.06572
56.2087 -10.2117 -1.06525
56.3595 -10.1676 -1.07001
56.2837 -9.99712 -1.06677
56.3872 -9.86406 -1.06894
54.7138 -9.0662 -1.01885
55.5976 -9.09295 -1.0445
55.4884 -8.99586 -1.0411
55.9327 -8.93127 -1.05317
55.6734 -8.73032 -1.0455
55.9484 -8.63051 -1.05312
56.0698 -8.50178 -1.05624
56.7256 -8.4682 -1.07567
57.5084 -7.90693 -1.09652
57.8464 -7.80631 -1.10598
57.9281 -7.66283 -1.10825
57.8153 -7.48966 -1.10511
57.8861 -7.34397 -1.1064
57.9634 -7.27743 -1.10843
57.9703 -7.12253 -1.10892
58.0002 -6.97107 -1.10934
57.8854 -6.79886 -1.1062
56.5175 -6.45488 -1.06583
56.3517 -6.28171 -1.06082
57.6876 -6.30702 -1.09933
57.6282 -6.22188 -1.09776
57.2648 -6.02196 -1.08734
56.7159 -5.80052 -1.07048
56.4443 -5.61734 -1.06277
56.4491 -5.4674 -1.06326
56.399 -5.31243 -1.06189
60.2148 -5.58477 -1.17324
60.0966 -5.49051 -1.16985
59.9479 -5.31366 -1.16482
59.9369 -5.15243 -1.16538
59.9949 -4.99749 -1.16674
59.9879 -4.83633 -1.16629
59.965 -4.67287 -1.16588
59.8661 -4.50396 -1.16269
59.8437 -4.42152 -1.16202
59.8097 -4.25885 -1.16164
59.7748 -4.09616 -1.16027
59.6779 -3.9293 -1.15806
59.56 -3.76103 -1.15492
59.7059 -3.61377 -1.15903
59.8307 -3.46311 -1.16321
59.9841 -3.23397 -1.16757
59.9521 -3.07234 -1.16718
59.8072 -2.90456 -1.16311
59.7233 -2.74094 -1.16086
59.6234 -2.57702 -1.15765
59.6034 -2.41761 -1.15723
59.6349 -2.33919 -1.15841
59.5859 -2.17924 -1.15706
59.5868 -2.02123 -1.15758
59.5828 -1.86313 -1.15811
59.5588 -1.70364 -1.15769
59.5098 -1.54468 -1.15634
59.4788 -1.38607 -1.15594
59.4248 -1.22702 -1.15461
59.4083 -1.14769 -1.15491
59.4022 -0.989549 -1.15444
51.9587 -0.741381 -1.2153
51.9173 -0.606573 -1.21484
51.8848 -0.472932 -1.21337
51.8543 -0.338331 -1.21289
51.8268 -0.204787 -1.2124
51.8133 -0.0715064 -1.21187
51.8018 0.061733 -1.21234
51.8031 0.128721 -1.21256
51.8046 0.261715 -1.21299
51.7761 0.395278 -1.2125
51.7726 0.528367 -1.21295
51.7321 0.661157 -1.21249
51.6806 0.793157 -1.21106
51.6161 0.925405 -1.20866
51.3896 1.38278 -1.20274
51.4211 1.5162 -1.2041
52.1134 1.94514 -1.23174
52.2368 2.01781 -1.23667
52.3355 2.15796 -1.24088
52.4101 2.29757 -1.24414
52.5188 2.43953 -1.24833
52.6766 2.58556 -1.25541
52.9997 2.74246 -1.2671
55.2285 3.97039 -1.35544
55.4913 4.06542 -1.36509
55.8147 4.24131 -1.37784
56.04 4.41007 -1.38682
56.3324 4.58655 -1.39865
56.3472 4.73729 -1.40011
56.75 4.92868 -1.41671
58.5934 5.66884 -1.48743
58.7798 5.84733 -1.49554
58.85 6.01402 -1.49991
40.1544 12.8715 -0.934284
39.5658 12.8497 -0.914717
39.3874 12.8291 -0.908106
15.2476 20.2867 -0.549375
14.1091 36.2649 -1.20089
13.4878 33.1375 -1.06918
13.2886 33.2363 -1.07301
1.7081 27.1391 -0.878554
-37.7615 54.136 -2.74836
-39.6684 33.1089 -2.19802
-42.4686 27.5618 -2.16892
-56.0883 26.5238 -2.65933
-56.325 26.3802 -2.66646
-56.5854 26.364 -2.67607
-63.2396 11.2825 -2.73745
-63.1422 11.0347 -2.73138
-63.371 10.8359 -2.73931
37.4377 -16.6273 -0.816132
37.5191 -16.5568 -0.817156
37.6093 -16.4905 -0.819143
37.6887 -16.417 -0.820182
37.7245 -16.3786 -0.821217
37.8345 -16.3227 -0.82312
37.8813 -16.2306 -0.823304
37.9181 -16.1332 -0.82253
37.9807 -16.0494 -0.823646
38.0532 -15.9728 -0.824713
38.1316 -15.8972 -0.825761
38.2676 -15.7948 -0.82875
40.5127 -14.9181 -0.887896
40.959 -14.5855 -0.897849
41.0555 -14.5093 -0.899853
41.3588 -14.284 -0.906819
48.4443 -10.3745 -1.10957
49.4622 -9.17261 -1.13793
49.4662 -8.90863 -1.13678
52.4946 -4.15316 -1.23069
52.0128 -1.48054 -1.21572
52.0493 -1.34721 -1.21707
52.0459 -1.21212 -1.21752
52.0454 -1.07809 -1.21797
52.0249 -0.943673 -1.21746
47.0929 -0.640797 -1.26507
47.0721 -0.521382 -1.26451
47.0512 -0.461975 -1.26376
47.0225 -0.343409 -1.26323
47.0097 -0.224145 -1.26265
46.9879 -0.105711 -1.2621
46.9621 0.0117987 -1.26155
46.9204 0.130613 -1.26005
46.9156 0.248723 -1.26045
46.9017 0.306998 -1.25968
46.8879 0.425278 -1.2601
46.9071 0.542933 -1.26144
46.8904 0.661273 -1.26087
46.8746 0.778594 -1.2603
46.8798 0.896512 -1.26167
46.867 1.01478 -1.2611
46.8491 1.07313 -1.26033
46.8063 1.18996 -1.25983
46.7705 1.30666 -1.2583
46.7197 1.42264 -1.25681
46.6959 1.53912 -1.25626
46.662 1.65478 -1.25573
46.6853 1.77335 -1.25706
47.9489 3.53865 -1.32164
48.0984 3.61382 -1.3285
48.234 3.74927 -1.3346
48.3536 3.88402 -1.34074
48.393 4.01229 -1.34406
48.4033 4.13711 -1.34545
48.5019 4.27226 -1.35064
48.6336 4.41079 -1.35676
48.7731 4.48915 -1.36366
48.9499 4.63582 -1.37169
49.0916 4.77815 -1.3788
49.2966 4.93028 -1.38877
49.4353 5.07567 -1.3959
49.5069 5.21233 -1.40016
49.5375 5.34477 -1.40252
49.5768 5.41403 -1.40465
49.6945 5.55882 -1.41082
49.8484 5.70992 -1.41893
49.9612 5.8558 -1.42512
50.3629 6.30825 -1.44558
50.6099 6.41257 -1.45729
50.7288 6.56434 -1.46349
50.8547 6.71797 -1.47067
51.5135 6.9595 -1.50078
49.1184 10.2224 -1.44265
49.1551 10.3658 -1.44603
49.1325 10.4932 -1.4475
49.1177 10.5565 -1.44775
49.0398 10.669 -1.44632
40.2409 12.8733 -1.13607
39.7733 12.7911 -1.117
39.5263 12.7998 -1.10766
20.7097 19.475 -0.721738
14.569 38.4896 -1.52504
14.1487 36.2625 -1.41778
14.0385 36.3056 -1.4192
13.9166 36.2609 -1.41637
12.5632 28.0832 -1.02491
11.3592 19.2906 -0.60404
-4.31419 24.5576 -1.04946
-39.8158 33.0975 -2.55436
-41.4223 15.9887 -2.23315
-48.0723 -3.49694 -2.37801
-49.2652 -3.75468 -2.43322
-47.6768 -6.17983 -2.36017
-47.4026 -6.32999 -2.34798
-47.4941 -7.79055 -2.3554
-47.3492 -7.95229 -2.3485
-47.3636 -8.13606 -2.34993
-47.2287 -8.29861 -2.34405
-37.3726 -9.6542 -1.89338
-33.4987 -12.6463 -1.73863
45.3204 -4.2458 -1.18973
47.3631 -3.76349 -1.2741
47.2674 -3.69366 -1.26957
47.3306 -3.57984 -1.27279
47.4699 -3.35144 -1.27818
47.5001 -3.233 -1.27949
47.4744 -3.11048 -1.27796
47.4098 -2.98423 -1.27554
47.365 -2.92137 -1.27387
47.3183 -2.79746 -1.27139
47.2766 -2.67465 -1.2699
47.2389 -2.55191 -1.2684
47.2192 -2.43151 -1.26785
47.1804 -2.30976 -1.26635
47.1557 -2.18826 -1.26481
47.1878 -2.13087 -1.26692
47.246 -2.01495 -1.26915
47.3062 -1.89807 -1.27138
47.3555 -1.78098 -1.27364
47.3467 -1.6608 -1.27406
47.34 -1.54065 -1.27347
47.3132 -1.42012 -1.27294
47.2654 -1.3592 -1.27026
47.1837 -1.23663 -1.26788
47.1269 -1.11653 -1.26542
47.0892 -0.996788 -1.26391
47.0954 -0.877885 -1.26428
47.1066 -0.75908 -1.26564
44.5795 8.99875 -1.45023
44.5516 9.10929 -1.45066
44.5438 9.22546 -1.45206
44.542 9.34351 -1.45346
44.5141 9.45405 -1.45389
44.5636 9.58613 -1.4582
39.7544 12.7179 -1.3038
39.6184 12.7735 -1.29834
39.4642 12.8194 -1.29288
39.4421 12.9218 -1.29427
14.7447 38.8646 -1.76782
14.5236 39.0708 -1.77807
13.9827 36.291 -1.6283
13.868 36.3051 -1.62864
13.7543 36.3213 -1.62898
11.4323 19.4349 -0.723329
-27.0256 37.7623 -2.53301
-27.4022 37.6774 -2.54369
-24.0515 32.2633 -2.2063
-24.0887 32.096 -2.20184
-24.1416 31.945 -2.19748
-24.1739 31.8766 -2.19634
-24.2984 31.7939 -2.19839
-37.8235 32.1581 -2.77617
-30.9164 25.6413 -2.26706
-49.6301 14.5459 -2.93239
-49.6557 14.3554 -2.93083
-49.9202 14.2233 -2.94207
-41.7465 3.54003 -2.397
-41.7535 3.37914 -2.39649
-41.7455 3.21796 -2.39494
-41.7256 3.05556 -2.39335
-41.6837 2.89176 -2.38971
-41.5908 2.72599 -2.38392
-41.5329 2.56288 -2.38024
-41.4495 2.47931 -2.37475
-41.3805 2.316 -2.37104
-41.2816 2.15212 -2.36424
-41.2267 1.99107 -2.36057
-41.1827 1.83022 -2.35793
-41.1167 1.66896 -2.35323
-41.0677 1.50902 -2.34958
-40.9938 1.34861 -2.34486
-40.9123 1.26808 -2.34039
-40.8203 1.10733 -2.33463
-40.7453 0.948901 -2.33091
-40.6543 0.790174 -2.32516
-40.5843 0.631841 -2.32046
-40.5462 0.475103 -2.31784
-40.4912 0.318049 -2.31419
-40.5776 0.239649 -2.31915
-40.5306 0.0827451 -2.31551
-40.0403 -0.537523 -2.28822
-39.9442 -0.691344 -2.28246
-39.9086 -0.768021 -2.28012
-39.8565 -0.922023 -2.27748
-39.8614 -1.07696 -2.27698
-39.8634 -1.23195 -2.27748
-39.8973 -1.38734 -2.27805
-38.3396 -2.8427 -2.19528
-40.5215 -4.31421 -2.31002
-40.5625 -4.47548 -2.31259
-40.5024 -4.62763 -2.30994
-40.4242 -4.77812 -2.30524
-38.9881 -5.94517 -2.23273
-38.6047 -5.97434 -2.21265
-38.4963 -6.11339 -2.20791
-38.4631 -6.26204 -2.20634
-38.3777 -6.40366 -2.20266
-38.8368 -7.62532 -2.23081
-38.631 -7.74619 -2.22088
-38.4273 -7.86802 -2.21096
-38.3429 -8.00762 -2.20729
-36.5474 -9.04538 -2.12028
-36.0593 -9.09651 -2.09486
-25.6493 -12.5198 -1.59797
29.5279 -16.0192 -0.874359
29.6097 -15.9798 -0.87628
42.7656 -5.1791 -1.2802
42.7178 -5.06417 -1.2777
42.7098 -4.956 -1.27707
43.0314 -3.17677 -1.28711
43.0444 -3.125 -1.28724
43.0973 -3.02299 -1.28944
43.1213 -2.91843 -1.29073
43.1463 -2.81288 -1.29201
43.1213 -2.70439 -1.29043
43.0694 -2.59338 -1.28793
43.0454 -2.48491 -1.28735
42.9975 -2.42898 -1.28465
42.9775 -2.32059 -1.28406
42.9665 -2.21436 -1.28344
42.9595 -2.1072 -1.28281
42.9595 -2.00119 -1.28316
42.9485 -1.89496 -1.28254
42.9335 -1.78865 -1.28193
41.854 7.81869 -1.51831
41.221 8.46581 -1.49606
41.3427 8.60551 -1.50521
39.756 12.7242 -1.51282
39.5827 12.7635 -1.5054
39.3388 12.7721 -1.49305
15.0077 38.5088 -1.99698
14.8076 38.4026 -1.99014
14.6927 38.4618 -1.99263
14.5697 38.4641 -1.99195
14.4443 38.4425 -1.9902
14.3119 38.37 -1.9853
14.1876 38.3573 -1.98358
11.6583 20.8352 -0.932362
11.4217 19.2827 -0.838856
11.3109 18.8188 -0.810612
-23.6876 32.6386 -2.50161
-23.7209 32.5702 -2.50047
-37.3278 23.1609 -2.82629
-37.0796 22.8563 -2.80365
-36.6955 22.4881 -2.77346
-34.7917 3.42218 -2.31183
-34.7863 3.28206 -2.31035
-34.7699 3.14173 -2.30785
-34.7496 3.00133 -2.30634
-34.7013 2.85841 -2.30174
-34.6003 2.64449 -2.29478
-34.5909 2.50529 -2.2933
-34.5386 2.36429 -2.2887
-34.5112 2.22476 -2.28717
-34.4809 2.08517 -2.28363
-34.4505 1.94558 -2.2811
-34.4258 1.87511 -2.2798
-34.3934 1.73648 -2.27726
-34.355 1.59774 -2.27371
-34.2757 1.45724 -2.26804
-34.2283 1.31833 -2.26446
-34.1689 1.1802 -2.26086
-34.1225 1.04231 -2.25728
-34.0598 0.972129 -2.25289
-34.0524 0.835965 -2.25243
-34.033 0.699579 -2.25093
-34.0326 0.562547 -2.25048
-34.1241 0.427233 -2.25526
-34.0997 0.290756 -2.25275
-34.1102 0.154928 -2.25333
-34.0645 0.0860645 -2.24999
-33.9781 -0.0505713 -2.24432
-33.8247 -0.18546 -2.23548
-33.6148 -0.724468 -2.22117
-33.6404 -0.860017 -2.22279
-33.6406 -0.928023 -2.22257
-33.6882 -1.06416 -2.22524
-33.7018 -1.19993 -2.22583
-33.7123 -1.33476 -2.22541
-33.7219 -1.4706 -2.22599
-33.6764 -1.60448 -2.22343
-33.8015 -4.26563 -2.23199
37.8972 -8.23284 -1.26559
37.0852 2.0121 -1.34139
37.0102 2.4886 -1.34115
36.9988 2.57483 -1.34146
36.9905 2.662 -1.34177
37.0022 2.75079 -1.34303
36.9888 2.83706 -1.34335
37.0696 2.93354 -1.34846
37.0494 2.97493 -1.34765
37.2623 3.1759 -1.36277
37.3632 3.276 -1.36984
37.4461 3.37544 -1.37496
37.51 3.47323 -1.38011
37.5307 3.56585 -1.38237
37.5807 3.61691 -1.38641
37.6145 3.71228 -1.38863
37.6403 3.8058 -1.39188
37.654 3.89855 -1.39315
37.6838 3.993 -1.39638
37.7949 4.0999 -1.40445
37.8177 4.19448 -1.4067
37.8727 4.24844 -1.41074
37.9246 4.34846 -1.41494
38.0016 4.45201 -1.42108
38.0696 4.55473 -1.42624
38.1205 4.65578 -1.43045
38.1784 4.75869 -1.43464
38.2324 4.86067 -1.43983
38.2915 4.91756 -1.44387
38.3213 5.016 -1.44712
38.3512 5.11545 -1.45037
38.3932 5.21666 -1.4536
38.4813 5.327 -1.46073
38.5052 5.42656 -1.463
39.5714 8.22462 -1.57248
38.1169 11.6617 -1.57052
38.0715 11.7475 -1.56992
38.0049 11.8258 -1.56834
37.9747 11.9194 -1.56973
37.9021 11.9938 -1.56716
37.8829 12.0922 -1.56953
37.8285 12.1222 -1.56677
37.7831 12.2081 -1.56717
24.8426 17.0363 -1.12615
21.5643 16.3305 -0.969205
21.4956 16.3468 -0.967434
13.548 17.7382 -0.859335
14.6786 38.3734 -2.19338
14.5521 38.3498 -2.19162
14.4254 38.3132 -2.18783
14.1181 38.304 -2.18558
11.6337 21.0023 -1.05398
11.5447 20.79 -1.0405
11.3389 19.1239 -0.931546
-34.9473 9.39618 -2.62989
-34.8245 9.22487 -2.61902
-30.1988 -0.54786 -2.23002
-30.1712 -0.6714 -2.22854
-30.1895 -0.796079 -2.22918
-30.1897 -0.858086 -2.22897
-29.0557 -4.04382 -2.15859
-29.041 -4.16411 -2.15715
-29.0161 -4.22259 -2.1559
34.4967 2.95696 -1.37412
35.5694 11.1235 -1.61526
25.9722 18.1884 -1.39805
17.798 14.9845 -0.896404
16.137 16.3179 -0.937041
12.9734 16.5907 -0.899028
14.4234 38.2783 -2.45472
14.1889 38.3598 -2.45859
13.9473 38.3833 -2.45928
11.7547 21.0875 -1.20795
12.2855 26.3783 -1.59001
11.4888 19.8866 -1.12067
11.3162 18.8559 -1.04572
-24.8507 -0.365302 -2.12394
-24.8547 -0.472248 -2.1246
-24.8137 -0.579029 -2.12114
-24.8158 -0.687009 -2.12079
-24.8448 -0.794491 -2.12351
33.6407 -3.71189 -1.30336
17.5846 15.3213 -0.997059
15.102 16.2172 -0.992356
14.5817 38.5277 -2.66414
14.4446 38.4213 -2.65514
14.386 38.4384 -2.65634
14.2536 38.3679 -2.65045
14.1363 38.4081 -2.65288
12.4474 27.6667 -1.81984
12.1735 25.574 -1.65865
11.5839 20.8204 -1.29151
11.344 19.1491 -1.16162
9.41733 20.7063 -1.27867
-21.1406 -1.70411 -2.00805
-21.1514 -1.80093 -2.00976
-20.0138 -5.43483 -1.94389
-19.5632 -5.77429 -1.91362
25.9635 -10.0865 -1.044
31.2485 -0.261438 -1.38783
31.2528 -0.192507 -1.38805
31.2551 -0.123539 -1.38827
31.2497 -0.0894318 -1.3884
31.25 -0.0204255 -1.38862
31.2343 0.0478857 -1.38789
31.2336 0.116911 -1.38812
32.291 5.94252 -1.54959
32.3166 6.02604 -1.5538
32.3492 6.11243 -1.558
32.4171 6.20814 -1.56514
32.4718 6.30011 -1.5713
32.4542 6.37345 -1.57259
32.5324 6.43396 -1.57959
32.5831 6.527 -1.58577
32.9909 7.77734 -1.64884
33.0267 7.87166 -1.65406
33.0927 7.97541 -1.66223
32.5711 9.5895 -1.67488
32.5304 9.65828 -1.67421
32.5443 9.70702 -1.67733
32.5026 9.77482 -1.67666
32.4871 9.85412 -1.67796
32.4353 9.91812 -1.67631
24.8194 16.9194 -1.54182
19.4502 16.4664 -1.26406
14.4327 38.2347 -2.89356
14.2533 38.2681 -2.89513
14.0235 38.3834 -2.90309
11.7611 21.0716 -1.45088
12.306 26.4639 -1.90224
11.5291 20.1811 -1.37554
11.3688 19.2782 -1.29898
24.817 16.931 -1.67387
17.8026 15.0775 -1.1997
14.3982 38.3846 -3.12814
14.1484 38.3444 -3.12265
13.9559 38.272 -3.1139
12.5678 28.2113 -2.21133
11.5898 20.7775 -1.54535
-18.3181 8.97473 -2.28598
-18.301 8.87341 -2.28161
-18.266 8.76675 -2.27617
-18.238 8.66222 -2.27075
-18.208 8.55765 -2.26533
-18.1771 8.50107 -2.26106
-18.1659 8.40286 -2.25671
-18.1558 8.30566 -2.25337
-18.1317 8.2052 -2.24897
-18.1384 8.11232 -2.24669
29.6544 -2.15872 -1.38466
29.4971 7.08216 -1.62148
29.4995 7.15412 -1.62472
29.5052 7.19202 -1.62583
29.5106 7.26492 -1.62905
29.5019 7.33409 -1.6313
14.4977 38.118 -3.33401
14.3885 38.2151 -3.34161
14.2746 38.2742 -3.3461
14.046 38.3995 -3.35609
11.4022 19.2128 -1.51968
-4.13185 18.8813 -1.91431
-12.5101 14.1855 -2.18328
-12.4834 14.12 -2.177
-15.1627 4.85923 -2.06137
-12.9922 -6.73118 -1.86566
27.3724 -0.229442 -1.41185
27.3785 -0.17255 -1.41302
27.3261 1.55573 -1.41984
27.3151 1.61095 -1.42005
27.3082 1.66809 -1.41926
27.3143 1.72498 -1.42143
27.2973 1.78032 -1.41966
27.3159 1.81097 -1.42171
27.304 1.8672 -1.42193
27.285 1.92157 -1.42115
27.271 1.97685 -1.42037
27.2761 2.03476 -1.42155
27.2772 2.09174 -1.42273
27.2793 2.14971 -1.42292
27.2908 2.17949 -1.42499
27.2829 2.23565 -1.42519
27.281 2.2927 -1.42538
27.27 2.34892 -1.4256
27.2681 2.40596 -1.42679
27.2772 2.46479 -1.42796
27.2823 2.5227 -1.43014
27.2628 2.54908 -1.42828
27.2669 2.60701 -1.42946
27.268 2.664 -1.43064
27.258 2.72019 -1.43085
27.2451 2.77645 -1.43107
27.2422 2.83351 -1.43126
27.2302 2.88875 -1.43148
27.2348 2.91866 -1.43256
27.2278 2.9748 -1.43277
27.2008 3.02833 -1.43101
27.215 3.08806 -1.43417
27.195 3.14245 -1.4334
27.177 3.1978 -1.43263
27.1591 3.25215 -1.43185
27.1606 3.28113 -1.43295
27.1517 3.3373 -1.43315
27.1488 3.39537 -1.43435
27.1368 3.4506 -1.43356
27.1881 3.51863 -1.44066
27.1731 3.57392 -1.43988
27.127 3.62281 -1.43716
12.5276 25.4863 -2.28546
12.1793 25.2669 -2.25963
11.5883 20.8727 -1.81167
11.1239 18.1358 -1.53185
-13.0941 0.0587171 -1.94827
-13.0894 -0.012383 -1.94803
-13.0717 -0.0827216 -1.94575
-13.0851 -0.153489 -1.94755
-13.0944 -0.223326 -1.94735
-13.0757 -0.293686 -1.94607
-13.0534 -0.329107 -1.94389
-13.0757 -0.399705 -1.94572
26.7982 -5.22454 -1.41588
27.272 -3.86428 -1.43114
20.897 15.4235 -1.71893
18.7363 18.9852 -1.93618
18.6925 19.047 -1.9405
11.3246 19.2035 -1.75985
6.86297 16.752 -1.51519
25.3739 2.09254 -1.4476
25.3664 2.11769 -1.4467
25.3563 2.16689 -1.44689
25.3533 2.21796 -1.44707
25.3583 2.26986 -1.44923
25.3512 2.32001 -1.44941
25.3371 2.36928 -1.44861
25.3281 2.41946 -1.4488
25.3346 2.44634 -1.44987
25.3456 2.50014 -1.45202
25.3305 2.54843 -1.45121
25.3185 2.59867 -1.45141
25.3255 2.65154 -1.45257
25.3174 2.7017 -1.45275
25.3204 2.75365 -1.45492
25.3088 2.77687 -1.45402
25.3078 2.8289 -1.4552
25.2927 2.87819 -1.4544
25.2817 2.92741 -1.45459
25.2626 2.97578 -1.45379
25.2866 3.03233 -1.45792
25.2555 3.07793 -1.45515
25.2469 3.1021 -1.45525
25.2309 3.15141 -1.45445
25.2178 3.20066 -1.45465
25.2077 3.24986 -1.45484
25.1876 3.29826 -1.45305
25.1786 3.34843 -1.45424
25.1725 3.39856 -1.45442
25.1574 3.44785 -1.45462
25.1539 3.47292 -1.45471
25.1428 3.52214 -1.4549
25.1278 3.57143 -1.4541
25.1539 3.62893 -1.45922
25.1559 3.6819 -1.46039
25.1247 3.7275 -1.45862
25.1116 3.77676 -1.45882
25.1192 3.80462 -1.45989
25.0377 3.83718 -1.4522
25.1433 3.91516 -1.46619
25.1785 3.97749 -1.47131
25.1966 4.03515 -1.47545
25.2056 4.08998 -1.47761
25.2217 4.14768 -1.48176
25.2594 4.18396 -1.48678
25.2675 4.23981 -1.48894
25.2786 4.2966 -1.4921
25.2896 4.35339 -1.49526
25.2957 4.40928 -1.49743
25.2897 4.4614 -1.49862
25.3098 4.52102 -1.50276
25.3143 4.54893 -1.50384
25.3264 4.6067 -1.507
25.3275 4.66169 -1.50918
25.3446 4.72136 -1.51333
25.3356 4.77354 -1.51353
25.3376 4.82851 -1.5157
25.3508 4.88826 -1.51986
25.3624 4.91904 -1.52194
25.3675 4.97594 -1.52411
25.3786 5.03473 -1.52728
25.3937 5.09445 -1.53143
12.2886 19.6968 -1.95301
12.2268 19.71 -1.95321
11.2883 19.1198 -1.87667
-8.4258 11.6253 -2.12541
-8.45716 11.6058 -2.12743
-8.50706 11.5588 -2.1294
-8.53818 11.4993 -2.12828
25.2568 -4.33848 -1.46273
25.1781 -4.26395 -1.45318
24.4851 5.38657 -1.54872
24.4851 5.44057 -1.5509
24.5078 5.47514 -1.55495
24.5189 5.53293 -1.55811
24.526 5.5898 -1.56128
24.5361 5.6476 -1.56545
24.5482 5.70638 -1.56861
24.5381 5.75757 -1.5698
24.5452 5.81443 -1.57397
24.5548 5.84525 -1.57605
24.5458 5.89743 -1.57725
24.5589 5.95718 -1.58141
24.56 6.01316 -1.58459
24.558 6.0672 -1.58677
24.5551 6.59827 -1.61153
24.5627 6.63013 -1.61361
24.586 6.69668 -1.61977
11.1021 18.0512 -1.86463
11.0475 18.0692 -1.86583
10.763 15.907 -1.60444
3.09593 18.2546 -2.02077
2.71603 16.589 -1.84926
-3.56263 14.4654 -2.03632
-8.7566 10.301 -2.2049
-8.80353 10.2519 -2.20686
-8.87716 10.2182 -2.21294
-8.73837 10.1027 -2.1912
23.8466 7.26257 -1.66653
23.8346 7.3138 -1.66773
4.24071 17.545 -2.00151
-2.9386 13.9295 -2.04397
-2.86878 13.7632 -2.02224
21.8589 10.3573 -1.7678
21.8453 10.3795 -1.76791
21.8171 10.4221 -1.76912
21.7515 10.5003 -1.76954
21.7111 10.5331 -1.76875
21.6748 10.5698 -1.76797
21.6354 10.6025 -1.76718
21.6174 10.6549 -1.77039
21.5825 10.6585 -1.7675
21.5431 10.6913 -1.7667
21.5007 10.7221 -1.76491
20.869 11.3851 -1.76771
20.8504 11.4035 -1.76782
20.813 11.4382 -1.76803
20.794 11.4905 -1.77125
20.7383 11.5066 -1.76745
20.7244 11.5649 -1.77167
20.6789 11.5907 -1.77087
20.6313 11.6156 -1.76908
20.6076 11.6271 -1.76818
20.5804 11.6726 -1.7694
20.5339 11.6975 -1.7686
20.5149 11.7519 -1.77182
20.4867 11.7954 -1.77304
20.4412 11.8213 -1.77224
20.4079 11.8609 -1.77346
20.3923 11.8812 -1.77356
20.358 11.9188 -1.77478
20.3268 11.9604 -1.77599
20.2915 11.9981 -1.77621
20.2705 12.0495 -1.77943
20.2301 12.0813 -1.77964
18.0506 12.8704 -1.80381
18.005 12.8913 -1.80199
-1.30517 12.0804 -2.0347
-1.34673 12.0512 -2.03571
-1.39417 12.0281 -2.03776
-1.42594 11.9877 -2.03671
19.282 0.449896 -1.50477
19.2816 0.480906 -1.50588
19.2739 0.496061 -1.50395
19.2755 0.528033 -1.50505
19.2681 0.558181 -1.50417
19.2727 0.590097 -1.50526
19.2883 0.622798 -1.50833
19.2688 0.65218 -1.50547
19.2724 0.684114 -1.50657
19.2437 0.697674 -1.50169
19.2533 0.729492 -1.50377
19.2489 0.760581 -1.50388
19.2525 0.792515 -1.50498
19.234 0.821878 -1.50212
19.2376 0.853812 -1.50322
19.2332 0.884901 -1.50333
19.2144 0.898266 -1.50042
19.211 0.929336 -1.50053
19.2026 0.960506 -1.49866
19.1912 0.99073 -1.49779
19.1948 1.02166 -1.49888
19.1933 1.0527 -1.49898
19.1779 1.083 -1.49712
19.1765 1.11403 -1.49823
19.1668 1.12822 -1.4963
19.1633 1.15929 -1.49641
19.179 1.19199 -1.50048
19.1716 1.22314 -1.4996
19.1772 1.25503 -1.50169
19.1637 1.2843 -1.49982
19.1593 1.31538 -1.49994
19.1656 1.33226 -1.50198
19.1672 1.36323 -1.50307
19.1477 1.39261 -1.50022
19.1524 1.42453 -1.50231
19.1419 1.45474 -1.50044
19.1475 1.48663 -1.50253
19.1351 1.51687 -1.50166
19.1364 1.53285 -1.50271
19.128 1.56301 -1.50183
19.1245 1.59408 -1.50194
19.1161 1.62325 -1.50106
19.1107 1.65436 -1.50118
19.1173 1.68723 -1.50427
19.1038 1.71649 -1.5024
19.1092 1.73339 -1.50444
19.0977 1.76261 -1.50357
19.0943 1.79368 -1.50368
19.0929 1.82471 -1.50478
19.0865 1.85584 -1.5049
19.0699 1.93217 -1.50419
19.0645 1.96228 -1.50431
19.1767 -1.53046 -1.49952
19.1703 -1.49733 -1.49765
19.1768 -1.46745 -1.49773
19.1655 -1.43422 -1.49587
19.192 -1.40573 -1.4999
19.1883 -1.38965 -1.49796
19.1939 -1.35876 -1.49904
19.2045 -1.32895 -1.50012
19.214 -1.29913 -1.50119
19.2146 -1.26713 -1.50029
7.02545 11.2006 -1.9175
15.0246 8.60278 -1.7715
15.0031 8.62918 -1.77364
14.9754 8.64671 -1.77377
14.9456 8.65928 -1.77289
16.4136 -5.48398 -1.46158
16.379 -5.35123 -1.4411
16.9777 2.36059 -1.53395
16.9668 2.3698 -1.53201
16.9613 2.39491 -1.53211
16.9518 2.4181 -1.53221
16.9533 2.44507 -1.5343
16.9397 2.46733 -1.5334
16.9452 2.49522 -1.53648
16.9316 2.51748 -1.53559
16.9188 2.52574 -1.53265
2.91336 0.861867 -1.71299
2.90301 0.843052 -1.71495
2.89864 0.823128 -1.7159
2.88629 0.804347 -1.71887
2.88589 0.783354 -1.7178
2.88351 0.763396 -1.71774
2.88311 0.742403 -1.71667
2.87955 0.712465 -1.71658
2.87618 0.692522 -1.71752
2.88077 0.671438 -1.71544
2.8714 0.651605 -1.7174
2.87003 0.631627 -1.71734
2.8776 0.60949 -1.71425
2.86426 0.590726 -1.71822
2.86706 0.580678 -1.71618
2.87066 0.559609 -1.7151
2.87127 0.538598 -1.71403
2.87488 0.518532 -1.71195
2.85852 0.498821 -1.71693
2.87411 0.47754 -1.71182
2.86674 0.457669 -1.71377
2.86953 0.446621 -1.71173
2.86116 0.426766 -1.71469
2.87275 0.405556 -1.71059
2.87337 0.385545 -1.70952
2.871 0.365583 -1.71046
2.86762 0.345643 -1.7104
2.86123 0.324753 -1.71235
2.86204 0.314739 -1.71132
2.86866 0.294618 -1.70923
2.85729 0.274816 -1.7132
2.85589 0.253838 -1.71313
2.85951 0.233773 -1.71106
2.85612 0.21283 -1.712
2.84737 0.172982 -1.71389
2.84916 0.161946 -1.71385
2.84679 0.141987 -1.71379
2.84841 0.121953 -1.71372
2.86324 0.0606794 -1.70848
2.84568 0.0299889 -1.71342
2.84029 0.00908043 -1.71537
2.83591 -0.0108438 -1.71631
2.84353 -0.0309843 -1.71423
2.83676 -0.0718704 -1.71611
2.84436 -0.0930107 -1.71402
2.83518 -0.102849 -1.71701
2.8398 -0.122936 -1.71593
2.83441 -0.143842 -1.71688
2.84063 -0.184963 -1.71573
2.84125 -0.204978 -1.71566
2.83948 -0.245955 -1.71653
2.8369 -0.276915 -1.71743
2.84375 -0.338051 -1.71621
2.85176 -0.603257 -1.71832
3.20638 1.33538 -1.7278
3.20817 1.32435 -1.72675
3.19783 1.30653 -1.72872
3.1845 1.28877 -1.7317
3.20105 1.26548 -1.72458
3.18276 1.24981 -1.72957
3.18436 1.22878 -1.7275
3.18 1.20986 -1.72745
3.17663 1.18992 -1.72739
3.16748 1.18208 -1.72939
3.17308 1.16098 -1.72731
3.16971 1.14104 -1.72725
3.14742 1.12544 -1.73225
3.15102 1.10438 -1.73018
3.13271 1.0877 -1.73517
3.14231 1.06653 -1.73107
3.1431 1.05552 -1.73004
3.11284 1.04106 -1.73807
3.13636 1.01664 -1.72992
3.12403 0.998856 -1.7329
3.11468 0.980022 -1.73486
3.11032 0.961101 -1.73481
3.10297 0.94223 -1.73677
3.10857 0.92113 -1.73368
3.11237 0.911063 -1.73164
3.11299 0.891052 -1.73057
3.06875 0.876841 -1.74364
3.10227 0.852241 -1.73247
3.08794 0.834494 -1.73645
3.08556 0.814536 -1.73639
3.07921 0.795649 -1.73734
3.09297 0.783404 -1.73227
3.07564 0.765711 -1.73725
3.09621 0.743342 -1.73013
3.07688 0.725687 -1.73512
3.07253 0.706763 -1.73607
3.06118 0.687964 -1.73904
3.07277 0.666758 -1.73394
3.03667 0.660401 -1.74501
3.0772 0.636676 -1.73183
3.05786 0.618021 -1.73681
3.05648 0.598043 -1.73675
3.0601 0.577975 -1.73568
3.03678 0.560392 -1.74168
3.05237 0.539111 -1.73657
3.04302 0.520277 -1.73853
3.0488 0.509173 -1.73648
3.04145 0.490301 -1.73844
3.06104 0.468948 -1.73231
3.03072 0.45149 -1.74033
3.04431 0.430244 -1.73623
3.04493 0.410232 -1.73516
3.05355 0.390076 -1.73207
3.03939 0.381328 -1.73608
3.05598 0.360028 -1.73097
3.05862 0.340978 -1.7299
3.03027 0.321483 -1.73791
3.05786 0.300989 -1.72877
3.02653 0.282543 -1.73879
3.04314 0.262247 -1.73268
3.03096 0.252461 -1.73668
3.04357 0.232233 -1.73258
3.02821 0.212503 -1.73755
3.04482 0.192206 -1.73145
3.03447 0.173388 -1.73441
3.0281 0.153498 -1.73636
3.02272 0.13359 -1.73831
3.03334 0.113399 -1.73422
3.01417 0.103739 -1.74023
3.03279 0.0844045 -1.73412
3.02542 0.0645301 -1.73707
3.02504 0.0445338 -1.73701
3.03665 0.0243245 -1.73291
3.02629 0.00450671 -1.73587
3.02891 -0.0155429 -1.7348
3.00774 -0.0251684 -1.74182
3.01735 -0.0453433 -1.73873
3.00799 -0.0651799 -1.74169
3.02161 -0.0844271 -1.73759
3.01424 -0.104298 -1.73955
3.02586 -0.124511 -1.73645
3.02448 -0.144488 -1.73639
3.02311 -0.164469 -1.73733
3.03492 -0.17368 -1.73327
3.01455 -0.194323 -1.74025
3.02119 -0.213444 -1.73817
3.00281 -0.234121 -1.74415
3.03244 -0.252654 -1.73501
3.00805 -0.274224 -1.743
3.02468 -0.293524 -1.7379
3.02549 -0.303541 -1.73786
3.02813 -0.322591 -1.73679
3.01774 -0.343412 -1.74075
3.02438 -0.362534 -1.73867
3.00298 -0.384157 -1.74566
3.03062 -0.402655 -1.73752
3.03226 -0.421689 -1.73746
3.03507 -0.43174 -1.73642
3.0307 -0.451668 -1.73836
3.02431 -0.472558 -1.74031
3.01093 -0.493325 -1.74528
3.02156 -0.512519 -1.74219
3.03519 -0.53177 -1.73909
3.0138 -0.553393 -1.74607
3.03444 -0.571766 -1.73996
3.02424 -0.582585 -1.74295
3.03388 -0.601763 -1.74086
3.04151 -0.620904 -1.73878
3.02813 -0.641672 -1.74374
3.01072 -0.664367 -1.74971
3.03437 -0.681793 -1.7426
3.031 -0.70174 -1.74454
3.0829 -0.705666 -1.72839
3.07351 -0.726506 -1.73235
3.08215 -0.745665 -1.73026
3.0938 -0.763878 -1.72717
3.07339 -0.78652 -1.73415
3.09906 -0.802984 -1.72703
3.08666 -0.824771 -1.73199
3.09548 -0.833929 -1.72894
3.0861 -0.854768 -1.73289
3.10075 -0.873035 -1.7288
3.09937 -0.893019 -1.73073
3.07994 -0.916679 -1.73771
3.09561 -0.933964 -1.73361
3.09923 -0.954036 -1.73353
3.10187 -0.973089 -1.73346
3.11471 -0.98132 -1.7294
3.08425 -1.00679 -1.7404
3.11196 -1.02128 -1.73228
3.10556 -1.04318 -1.73522
3.12222 -1.06048 -1.73112
3.11783 -1.08141 -1.73307
3.12949 -1.09962 -1.73098
3.12129 -1.11048 -1.73396
3.13494 -1.12873 -1.73087
3.12454 -1.15055 -1.73482
3.14522 -1.16693 -1.72971
3.15487 -1.18511 -1.72763
3.16453 -1.20329 -1.72555
3.15712 -1.22516 -1.72949
3.15893 -1.2352 -1.72946
3.15856 -1.2552 -1.73039
3.1632 -1.27429 -1.73032
3.15981 -1.29524 -1.73226
3.32819 1.05801 -1.73657
3.33879 1.03682 -1.73247
3.3165 1.02121 -1.73848
3.33209 0.999935 -1.73237
3.31179 0.983296 -1.73837
3.31441 0.963249 -1.73629
3.30626 0.955395 -1.73829
3.31188 0.935295 -1.73521
3.29855 0.917531 -1.73918
3.30117 0.897484 -1.73711
3.30778 0.877366 -1.73403
3.27653 0.862923 -1.74306
3.28312 0.841805 -1.73997
3.29373 0.821614 -1.73588
3.2736 0.813973 -1.74191
3.28321 0.793801 -1.73782
3.28983 0.773683 -1.73473
3.26055 0.758203 -1.74376
3.26617 0.738103 -1.74068
3.28075 0.716841 -1.73557
3.25846 0.700236 -1.74257
3.27023 0.689028 -1.7375
3.27785 0.668891 -1.73442
3.24558 0.653464 -1.74445
3.26416 0.632133 -1.73733
3.24884 0.614402 -1.74231
3.26242 0.593159 -1.73721
3.26007 0.5742 -1.73715
3.24593 0.566452 -1.74116
3.26151 0.545174 -1.73505
3.24319 0.527497 -1.74104
3.27576 0.505915 -1.72989
3.23548 0.489632 -1.74194
3.25109 0.469351 -1.73683
3.2597 0.449195 -1.73374
3.26034 0.430183 -1.73268
3.24219 0.421504 -1.7387
3.26179 0.401154 -1.73158
3.25146 0.383335 -1.73455
3.23912 0.364552 -1.73852
3.24573 0.344434 -1.73543
3.23638 0.325597 -1.73839
3.24301 0.306478 -1.73531
3.25082 0.296336 -1.73326
3.22151 0.278856 -1.74228
3.23012 0.2587 -1.73919
3.24075 0.239509 -1.7351
3.2384 0.220547 -1.73604
3.22805 0.201729 -1.73901
3.23866 0.181539 -1.73491
3.2383 0.162542 -1.73485
3.21915 0.153882 -1.74087
3.23578 0.134582 -1.73577
3.22541 0.114764 -1.73873
3.22205 0.0958207 -1.73967
3.22869 0.0766988 -1.73759
3.20935 0.0580406 -1.74358
3.22298 0.0387967 -1.73848
3.22279 0.0287985 -1.73845
3.23442 0.00958576 -1.73536
3.21906 -0.0101444 -1.74033
3.2197 -0.0291598 -1.74027
3.21734 -0.0481186 -1.74021
3.22298 -0.0672216 -1.73814
3.22762 -0.086309 -1.73706
3.21444 -0.0960754 -1.74106
3.23606 -0.115467 -1.73494
3.22671 -0.134304 -1.73791
3.23135 -0.153391 -1.73683
3.22997 -0.173369 -1.73677
3.21463 -0.192099 -1.74175
3.21927 -0.211186 -1.74067
3.22591 -0.230308 -1.73859
3.22072 -0.240219 -1.74057
3.21935 -0.260196 -1.74051
3.21499 -0.279124 -1.74246
3.22163 -0.298246 -1.74038
3.22627 -0.317333 -1.7393
3.22891 -0.336386 -1.73923
3.21854 -0.356204 -1.7422
3.26139 -0.36297 -1.72906
3.25502 -0.38286 -1.73101
3.26367 -0.40102 -1.72893
3.26831 -0.420107 -1.72786
3.26995 -0.439142 -1.72779
3.26558 -0.459066 -1.72874
3.26021 -0.478978 -1.73169
3.26603 -0.488083 -1.72964
3.26568 -0.507083 -1.73058
3.29035 -0.523524 -1.72246
3.26596 -0.545098 -1.73145
3.27661 -0.563292 -1.72837
3.28425 -0.582432 -1.72628
3.26387 -0.603075 -1.73327
3.27852 -0.621341 -1.72917
3.25732 -0.632966 -1.73619
3.29902 -0.647715 -1.72403
3.27061 -0.670213 -1.73303
3.28628 -0.687499 -1.72893
3.28091 -0.707407 -1.73088
3.26752 -0.728175 -1.73585
3.2952 -0.744673 -1.72772
3.30002 -0.753763 -1.72668
3.27564 -0.775336 -1.73567
3.2953 -0.79269 -1.72956
3.30495 -0.810868 -1.72748
3.28356 -0.832495 -1.73546
3.30322 -0.849849 -1.72935
3.29987 -0.868796 -1.7313
3.30368 -0.878866 -1.73026
3.30834 -0.896957 -1.73019
3.31499 -0.915082 -1.72911
3.29658 -0.937758 -1.73508
3.31926 -0.954169 -1.72897
3.30888 -0.974993 -1.73393
3.32456 -0.991276 -1.72883
3.32839 -1.00035 -1.72879
3.31899 -1.02219 -1.73275
3.31963 -1.04121 -1.73368
3.32327 -1.06028 -1.73361
3.33394 -1.07747 -1.73053
3.3416 -1.09562 -1.72945
3.34725 -1.11372 -1.72837
3.33585 -1.13553 -1.73333
3.53792 0.936046 -1.73163
3.5517 0.924801 -1.72656
3.54137 0.906986 -1.72853
3.54003 0.889008 -1.72847
3.53569 0.871087 -1.72842
3.52736 0.853234 -1.73039
3.51904 0.836381 -1.73235
3.53163 0.815157 -1.72725
3.51732 0.79841 -1.73123
3.50121 0.791697 -1.73625
3.51781 0.771403 -1.72914
3.50448 0.753638 -1.73312
3.50015 0.735714 -1.73407
3.51077 0.716526 -1.72898
3.48648 0.699955 -1.73699
3.49111 0.680874 -1.73391
3.49991 0.670716 -1.73086
3.4866 0.653951 -1.73484
3.48624 0.634958 -1.73377
3.49588 0.615783 -1.73069
3.48654 0.597949 -1.73265
3.49418 0.578812 -1.72957
3.49184 0.560853 -1.72952
3.4845 0.542982 -1.73148
3.48432 0.532983 -1.73144
3.48397 0.51499 -1.73038
3.48262 0.496012 -1.73033
3.49025 0.476875 -1.72724
3.4969 0.458753 -1.72517
3.48957 0.440881 -1.72713
3.47724 0.423101 -1.7301
3.49701 0.411749 -1.72301
3.4867 0.394928 -1.72698
3.47935 0.37606 -1.72794
3.49398 0.356797 -1.72284
3.48864 0.338888 -1.72479
3.4883 0.320891 -1.72473
3.49494 0.301773 -1.72165
3.49576 0.292759 -1.72062
3.47844 0.275063 -1.72661
3.48707 0.255906 -1.72352
3.48773 0.237894 -1.72246
3.4834 0.219966 -1.72442
3.48504 0.200935 -1.72335
3.4857 0.182923 -1.72229
3.46836 0.164227 -1.72827
3.47418 0.155122 -1.72623
3.46785 0.137232 -1.72818
3.46349 0.118308 -1.72913
3.46915 0.100204 -1.72706
3.47279 0.0811357 -1.72599
3.47644 0.0630669 -1.72492
3.47211 0.0451423 -1.72587
3.51389 0.0353986 -1.71173
3.51355 0.0174019 -1.71167
3.50421 -0.00143488 -1.71463
3.50786 -0.0195037 -1.71356
3.50852 -0.0375192 -1.7135
3.50517 -0.0564625 -1.71445
3.50084 -0.0743904 -1.7164
3.50566 -0.0834764 -1.71436
3.50732 -0.101511 -1.7143
3.50996 -0.120561 -1.71323
3.49863 -0.138363 -1.7172
3.50327 -0.157451 -1.71612
3.48992 -0.176215 -1.72009
3.49858 -0.194375 -1.71801
3.49924 -0.212391 -1.71795
3.49407 -0.221298 -1.71894
3.50372 -0.239473 -1.71585
3.49737 -0.258367 -1.7188
3.49803 -0.276382 -1.71874
3.50269 -0.29447 -1.71767
3.50233 -0.313466 -1.71761
3.50899 -0.331588 -1.71553
3.51483 -0.339693 -1.71349
3.50848 -0.358587 -1.71645
3.51012 -0.377621 -1.71638
3.49978 -0.396442 -1.72034
3.51045 -0.413636 -1.71726
3.5021 -0.432492 -1.72022
3.50775 -0.450595 -1.71815
3.50856 -0.460612 -1.71811
3.50423 -0.47854 -1.72006
3.51288 -0.4967 -1.71798
3.51654 -0.514769 -1.71691
3.51319 -0.533715 -1.71886
3.50284 -0.552537 -1.72282
3.50149 -0.571518 -1.72376
3.50831 -0.580641 -1.72172
3.50997 -0.598676 -1.72165
3.50462 -0.617588 -1.7246
3.50426 -0.636584 -1.72454
3.50592 -0.654619 -1.72448
3.50257 -0.673565 -1.72642
3.50723 -0.691656 -1.72635
3.51289 -0.709759 -1.72428
3.51773 -0.717849 -1.72324
3.51236 -0.737761 -1.72619
3.52104 -0.754921 -1.72411
3.51566 -0.774829 -1.72606
3.51832 -0.792883 -1.72599
3.526 -0.810024 -1.72392
3.52465 -0.829008 -1.72586
3.52046 -0.838937 -1.72783
3.53113 -0.856132 -1.72475
3.53781 -0.873257 -1.72368
14.8094 -14.3782 -4.80043
3.72964 0.868467 -1.71692
3.7313 0.850439 -1.71486
3.73196 0.832427 -1.7138
3.71867 0.816662 -1.71778
3.72247 0.806595 -1.71573
3.72811 0.787495 -1.71266
3.70485 0.772905 -1.72067
3.71945 0.752646 -1.71456
3.71114 0.735793 -1.71653
3.70582 0.718887 -1.71749
3.70348 0.700928 -1.71744
3.70631 0.691876 -1.7164
3.696 0.675061 -1.71837
3.70763 0.655852 -1.71428
3.69831 0.639018 -1.71624
3.69997 0.620987 -1.71518
3.68069 0.605328 -1.72118
3.69629 0.58505 -1.71507
3.68715 0.577211 -1.71807
3.67684 0.560393 -1.72104
3.68747 0.541205 -1.71595
3.70509 0.521889 -1.70984
3.66785 0.50755 -1.72189
3.6705 0.4895 -1.72082
3.66317 0.471629 -1.72278
3.66882 0.453529 -1.71971
3.66466 0.444599 -1.72169
3.66532 0.426587 -1.72063
3.68993 0.407149 -1.7115
3.66665 0.391559 -1.71951
3.66931 0.373512 -1.71745
3.64901 0.356869 -1.72444
3.69856 0.33499 -1.70624
3.68143 0.327292 -1.71226
3.68808 0.30917 -1.71019
3.68476 0.29223 -1.71014
3.70938 0.272788 -1.70201
3.68908 0.256149 -1.70801
3.69074 0.238114 -1.70794
3.71437 0.219695 -1.69882
3.68225 0.212263 -1.70988
3.72085 0.192575 -1.69672
3.68657 0.176182 -1.70775
3.7122 0.157725 -1.69862
3.6719 0.140436 -1.71267
3.70952 0.121766 -1.69951
3.67124 0.105443 -1.71256
3.70687 0.086807 -1.70041
3.71069 0.0777398 -1.69837
3.70138 0.0609026 -1.70133
3.66508 0.0435415 -1.71437
3.66474 0.0255448 -1.71431
3.69737 0.00696246 -1.70317
3.70304 -0.0101409 -1.7011
3.69971 -0.0280844 -1.70205
3.69754 -0.0370483 -1.70302
3.6992 -0.0550794 -1.70196
3.70187 -0.0721296 -1.70089
3.69954 -0.0900919 -1.70184
3.66622 -0.108506 -1.71387
3.70787 -0.125248 -1.6997
3.68753 -0.143891 -1.7067
3.69537 -0.152031 -1.70365
3.70403 -0.170187 -1.70057
3.69669 -0.188062 -1.70353
3.69236 -0.20599 -1.70548
3.69304 -0.223005 -1.70542
3.6937 -0.241021 -1.70536
3.70337 -0.258196 -1.70228
3.7022 -0.267176 -1.70225
3.70087 -0.285157 -1.7032
3.69054 -0.302978 -1.70716
3.66918 -0.322605 -1.71515
3.66685 -0.340568 -1.7161
3.66152 -0.358477 -1.71806
3.66517 -0.376546 -1.71699
3.69286 -0.392041 -1.70786
3.67667 -0.402757 -1.71387
3.67434 -0.420719 -1.71482
3.70003 -0.43618 -1.7067
3.69168 -0.455036 -1.70966
3.70235 -0.47223 -1.70658
3.70203 -0.48923 -1.70752
3.70369 -0.507265 -1.70746
3.70852 -0.516351 -1.70542
3.70618 -0.534316 -1.70736
3.71987 -0.550564 -1.70327
3.71553 -0.568492 -1.70523
3.7142 -0.586473 -1.70617
3.71386 -0.604473 -1.70711
3.6985 -0.624203 -1.71209
3.70334 -0.632293 -1.71105
3.70902 -0.649399 -1.70998
3.71368 -0.667487 -1.70891
3.72135 -0.684628 -1.70683
3.70801 -0.703396 -1.7118
3.71668 -0.720556 -1.70972
3.71634 -0.738556 -1.71066
3.72701 -0.75575 -1.70758
3.71884 -0.765611 -1.71157
3.72451 -0.782714 -1.7095
3.73318 -0.799874 -1.70742
14.8166 -14.3563 -5.09349
14.881 -14.3906 -5.11221
14.9407 -14.4097 -5.12599
11.8404 0.430501 -0.787731
11.8506 0.440298 -0.791737
8.19828 1.44817 -0.533392
8.18149 1.45846 -0.541468
9.77617 -1.52978 -0.427554
9.82095 -1.65582 -0.482025
8.44756 1.16085 -0.401807
8.51259 1.16161 -0.403644
8.52121 1.14248 -0.394558
11.5719 -9.72426 -4.17002
8.41519 1.23723 -0.475142
8.45119 1.18764 -0.446887
8.44421 1.18876 -0.448908
8.41579 1.21724 -0.468075
8.37566 1.25992 -0.494318
8.33553 1.3026 -0.521561
8.30217 1.33417 -0.541751
8.33325 1.28865 -0.517521
8.31952 1.30188 -0.5256
8.34277 1.2645 -0.505417
8.2665 1.34979 -0.557893
8.35835 1.14234 -0.457975
8.43352 1.05209 -0.403485
8.38856 1.05289 -0.417603
8.24842 1.19326 -0.508424
10.8616 -1.12489 -0.652113
10.7797 -1.05918 -0.603538
10.7907 -1.0594 -0.60751
-45.1217 33.3574 -2.35689
