ply
format ascii 1.0
element vertex 812
property float x
property float y
property float z
end_header
89.5447 9.25812 3.27277
89.1091 9.95586 3.25567
74.4464 9.72172 2.70957
73.8056 9.82681 2.68563
35.6903 18.5655 1.39172
16.2234 67.5565 2.31588
16.2394 69.1017 2.36029
15.4869 62.0896 2.15316
15.116 59.6898 2.08264
12.0337 24.3089 1.04514
-26.8648 45.4149 1.96411
-33.5618 26.5604 1.7852
-59.8326 -16.8402 2.60806
-59.7654 -17.0587 2.6094
-59.1662 -17.9633 2.60313
-56.2294 -17.4316 2.51156
-62.0556 -19.1951 2.70334
-62.1838 -19.4743 2.71124
-41.6543 -17.6663 2.09664
-41.2242 -18.526 2.09852
-39.4645 -19.6054 2.06749
-39.7946 -19.9181 2.08279
-26.2299 -15.5094 1.63008
-24.5586 -15.7957 1.58979
-24.5616 -15.9297 1.59244
-19.9751 -14.0885 1.43361
-19.7311 -14.0929 1.42755
-18.205 -14.1099 1.38738
-16.3244 -14.2048 1.33894
-13.7086 -14.029 1.26792
26.5826 -16.1115 1.24206
46.0731 -18.2753 1.90722
89.5669 8.27094 2.77173
90.0055 8.56837 2.78491
89.7536 8.66693 2.77647
89.6289 8.90373 2.77283
89.2294 9.10856 2.75931
89.2079 9.85722 2.75752
89.1051 10.0945 2.75396
89.5924 10.2829 2.76886
89.6752 10.5461 2.77087
89.8132 10.8172 2.77505
89.1227 11.4765 2.75319
16.763 70.3195 1.95123
16.3014 67.4356 1.88376
16.0332 66.7483 1.86615
15.4589 62.0183 1.7564
12.5041 27.4239 0.963495
-32.2054 52.8321 1.78426
-28.96 43.692 1.59273
-46.071 55.496 2.02983
-29.3801 32.4987 1.44356
-35.7198 27.6221 1.50981
63.6986 -23.4582 2.2453
72.4106 -20.6252 2.45911
84.7485 -15.0214 2.76587
84.7777 -14.785 2.76481
84.8179 -14.5518 2.76381
84.8521 -14.3165 2.76177
84.8963 -14.0835 2.76078
84.903 -13.9636 2.76022
84.9461 -13.7305 2.75923
85.0242 -13.5042 2.7594
89.5194 8.45821 2.39661
89.4709 8.70334 2.39522
89.6749 8.97692 2.39963
89.4622 9.07862 2.39333
88.9944 9.77209 2.38013
89.011 10.0248 2.37994
89.3004 10.3125 2.38661
89.3722 10.574 2.38859
89.5253 10.8467 2.39181
88.8415 11.6289 2.37236
12.1735 25.2008 0.792251
-26.233 44.6975 1.29703
-37.9724 54.214 1.54469
-31.858 31.6803 1.22827
-32.5105 29.9023 1.22361
-34.1058 27.7841 1.23108
-32.3251 25.2978 1.1871
-39.7452 -19.7811 1.47929
71.9003 -21.0496 2.14528
89.8253 7.93742 1.80433
89.6534 8.17027 1.80053
89.9016 8.44787 1.80409
89.6997 8.67737 1.7992
89.603 8.91756 1.79664
89.2766 9.13081 1.79036
89.547 10.5452 1.79038
88.5968 11.5414 1.76986
73.8017 9.7591 1.49693
33.1523 16.6741 0.763511
17.4001 72.5639 1.1105
17.101 71.7932 1.10119
16.8444 71.4528 1.09691
16.3951 67.4585 1.05298
15.5452 62.0336 0.993633
15.1505 59.3786 0.964288
12.4957 27.3935 0.624608
12.3462 26.3745 0.614088
-37.1046 55.5465 0.996351
-36.1566 32.2268 0.865355
-30.6086 28.2197 0.802096
-47.1288 -14.8162 1.09988
-47.0164 -14.9807 1.10012
87.6334 -15.8427 1.89879
89.6807 8.2007 1.39448
89.6484 8.32244 1.39375
89.3471 8.54014 1.38854
89.4219 8.79855 1.38854
89.1854 9.77201 1.38183
89.1029 9.88685 1.37995
88.9325 10.8658 1.37447
17.4725 72.3334 0.736906
17.2275 72.1587 0.734847
16.2641 67.3537 0.706002
15.9972 66.6794 0.701334
15.0429 59.3004 0.659264
12.3328 26.4231 0.478794
-35.7495 54.1112 0.613554
-36.0797 54.1506 0.614115
-38.9252 54.4327 0.623996
-36.2104 32.9108 0.574761
-35.9041 32.1528 0.573668
-36.1226 32.0866 0.574172
-35.4475 27.2414 0.5687
89.9973 7.90295 0.846134
89.9628 8.15077 0.844777
89.9463 8.40019 0.84348
89.4077 8.46911 0.83911
77.227 9.6026 0.750598
39.2821 16.4989 0.46547
17.5177 74.6075 0.22781
16.9384 70.7133 0.232903
16.4303 67.3667 0.236555
16.2118 67.3006 0.236059
15.5841 62.0321 0.242773
15.2938 59.5369 0.246031
13.2697 34.6945 0.282377
12.2917 25.89 0.295275
12.07 24.1465 0.297071
-27.7833 42.2866 0.161097
-30.1836 36.3793 0.173294
-31.5904 27.8644 0.198143
87.8528 -19.382 0.972119
87.8585 -19.126 0.970873
84.8299 -15.1912 0.927982
84.8641 -14.9559 0.926947
85.0186 -13.8971 0.922287
88.1552 11.4657 0.448549
88.2691 11.7312 0.447663
16.6302 70.1034 -0.0992454
16.1913 67.4045 -0.082539
13.1196 33.2177 0.128118
12.6549 28.583 0.15631
12.3565 26.6261 0.167873
11.9726 24.016 0.183347
-28.574 38.513 -0.0892074
-40.3598 32.3662 -0.111192
-57.204 26.7053 -0.166644
-57.0383 26.1505 -0.162273
-59.8857 -15.0351 0.0318749
87.9713 -19.1094 0.597209
88.0834 -18.8798 0.596495
82.5887 -14.6952 0.565075
82.6158 -14.4648 0.564036
82.6429 -14.2353 0.563003
82.675 -14.007 0.561993
82.6114 -13.7605 0.560533
82.6713 -13.5378 0.559657
82.7711 -13.3229 0.558969
82.7896 -13.2093 0.558477
74.2414 3.19967 0.0570289
74.2398 3.39875 0.0550374
74.27 3.5011 0.0546448
78.3716 9.30356 0.00537657
88.2688 10.9096 -0.04428
45.8628 16.3444 0.0800258
33.4107 21.4532 0.0678139
2.49559 23.6388 -0.0105007
-30.073 38.9165 -0.456861
-32.3519 32.1274 -0.41084
-39.7804 29.0158 -0.458431
-39.6872 28.7517 -0.455772
-56.1731 26.6093 -0.617292
-56.3381 26.4309 -0.618031
87.5267 -18.9489 0.0937294
87.438 -18.7999 0.0936575
82.8977 -13.0619 0.0931454
72.2006 12.3821 -0.374123
64.7701 11.2367 -0.291452
49.8401 14.4576 -0.174652
46.0874 16.3262 -0.159043
24.0038 19.1464 -0.0372162
24.016 19.2931 -0.0398966
12.6514 28.5453 -0.200523
12.3441 26.4147 -0.161134
12.2455 25.4428 -0.143694
2.87631 28.1474 -0.244389
2.78124 28.1455 -0.244737
-32.8644 30.3818 -0.725137
-32.8248 27.1142 -0.683812
-38.1286 27.7114 -0.774755
-32.7284 24.4726 -0.650371
-32.4169 23.5875 -0.634817
-39.0682 25.6157 -0.765922
-31.611 20.3741 -0.584872
76.8669 -20.9633 -0.285475
82.8666 -18.9319 -0.345923
84.9897 -19.3641 -0.365784
86.5786 -19.5234 -0.381009
87.6027 -19.5301 -0.391116
80.7996 -16.0563 -0.329946
82.3415 -16.1726 -0.345561
82.8295 -16.0454 -0.350352
75.7905 2.45203 -0.798449
49.2304 5.6749 -0.365478
49.2218 5.7351 -0.365809
46.9293 16.2172 -0.442336
46.5772 16.263 -0.43689
38.1769 12.6679 -0.259744
31.3028 13.2567 -0.16756
27.1797 14.2514 -0.13102
27.7632 16.1177 -0.17406
25.2854 14.2634 -0.109217
24.0423 19.0957 -0.198823
24.0607 19.2503 -0.202519
24.0843 19.4138 -0.20624
13.1035 31.5707 -0.477801
13.0563 31.6078 -0.478162
12.7714 29.0047 -0.412349
12.4519 26.9165 -0.358215
12.2977 25.7838 -0.330188
11.9655 23.3898 -0.268589
11.8573 22.7101 -0.251631
2.9054 28.2057 -0.449572
2.86661 28.1706 -0.448544
-31.6719 34.0713 -1.13591
-37.5338 23.0735 -1.08456
-37.6567 22.9452 -1.08539
60.8834 -19.5782 -0.509564
63.1763 -17.3096 -0.541155
63.7394 -17.3111 -0.550026
64.4744 -17.4584 -0.562527
65.0399 -15.6815 -0.569192
65.0887 -15.5106 -0.569855
66.465 -15.2441 -0.591988
67.2394 -14.6951 -0.604788
67.6741 -14.7128 -0.612062
67.8504 -14.5677 -0.615116
67.8914 -14.3866 -0.615858
67.7892 -14.1702 -0.614314
67.9476 -14.0187 -0.616468
70.2746 -14.0954 -0.65532
79.5616 -12.0152 -0.812625
83.1786 -8.80981 -0.879864
54.9918 11.392 -0.748076
53.445 12.5086 -0.728431
53.4557 12.5844 -0.729766
24.0244 19.1705 -0.320264
24.0501 19.338 -0.324996
12.8019 29.3614 -0.572003
12.6518 28.5026 -0.545317
12.3493 26.4601 -0.483345
12.2091 25.4641 -0.451942
12.0886 24.7237 -0.429731
11.8627 23.2475 -0.384274
11.7983 22.6449 -0.365533
2.81872 28.1949 -0.599848
2.30122 23.9939 -0.481
-4.3898 23.6465 -0.572495
-28.5644 34.6996 -1.35432
-35.0268 31.8895 -1.45176
-55.5054 29.2077 -1.94866
-55.6574 29.026 -1.95034
-64.1707 11.4248 -1.98129
-64.3957 10.9766 -1.98392
53.9028 -17.3747 -0.631778
66.4177 -13.0489 -0.884038
67.7703 -10.2813 -0.912642
69.8083 -7.41887 -0.960132
69.175 -7.15272 -0.946836
72.2143 -1.40293 -1.03185
62.668 -1.054 -1.12855
62.7786 -0.893426 -1.13293
62.7332 -0.729374 -1.13191
62.6738 -0.565012 -1.13095
62.6154 -0.401673 -1.12998
62.5992 -0.319296 -1.13044
66.5928 3.16655 -1.26265
68.1974 4.07202 -1.31409
68.7486 4.47783 -1.33302
69.0643 4.59382 -1.34241
69.4634 4.99602 -1.3569
42.6664 6.47016 -0.621154
41.653 7.28389 -0.603001
53.4072 12.3341 -0.988715
35.3341 7.20759 -0.430431
33.7403 7.33509 -0.390067
40.73 12.4404 -0.655005
37.8147 12.6043 -0.583801
37.7472 12.6768 -0.583414
28.7832 14.2995 -0.407221
28.7232 14.3439 -0.406667
28.6448 14.3736 -0.406109
28.6061 14.4345 -0.406556
13.1253 16.4063 -0.269649
12.7161 28.8894 -0.729993
12.4461 26.8282 -0.653805
12.3 25.8353 -0.617441
12.1712 25.0381 -0.587979
11.9289 23.4104 -0.528833
11.8238 22.7786 -0.506102
2.92212 28.1368 -0.770174
2.83733 28.1017 -0.770319
2.5209 24.1763 -0.635078
2.49118 23.6499 -0.616584
-45.7131 55.3821 -2.68535
-44.1147 33.2409 -2.09171
-51.6637 36.7564 -2.40256
-55.7574 30.2593 -2.40583
-63.6982 11.4142 -2.41447
-63.8898 11.2044 -2.41915
-64.4055 11.0407 -2.43628
-59.8379 -14.9788 -2.16827
-55.3398 -15.2237 -2.0111
-52.5381 -15.2082 -1.91362
58.0836 -11.1234 -0.989976
58.7628 -11.1246 -1.00841
58.6861 -10.7898 -1.00636
58.7563 -10.6473 -1.0078
59.7666 -10.4687 -1.03488
60.058 -10.3682 -1.04328
59.3394 -9.66001 -1.02249
60.5993 -8.37273 -1.05611
61.2317 -8.31681 -1.07401
59.4959 -5.84151 -1.0258
62.309 -6.01521 -1.10434
62.9079 -5.67046 -1.12179
62.9445 -5.50924 -1.12345
63.024 -5.35097 -1.12594
62.8942 -4.84195 -1.12295
62.8162 -4.75219 -1.12068
62.7889 -4.58454 -1.12062
62.7076 -4.41269 -1.11877
62.6334 -4.24199 -1.1169
62.6949 -4.08333 -1.11945
62.8823 -3.93346 -1.12449
62.9713 -3.52735 -1.12816
62.903 -3.35879 -1.12725
62.8128 -3.18774 -1.12544
62.6615 -3.01532 -1.12086
62.7301 -2.85481 -1.1234
62.6928 -2.68994 -1.12336
62.7675 -2.61159 -1.12546
62.7571 -2.44731 -1.12532
62.7608 -2.28336 -1.12611
62.7694 -2.12051 -1.12689
62.736 -1.95473 -1.12683
62.6997 -1.78988 -1.12679
62.6413 -1.62554 -1.12582
62.6939 -1.46367 -1.12742
62.6657 -1.38102 -1.12694
62.6543 -1.21773 -1.12779
55.9728 2.24645 -1.25412
58.0516 3.46935 -1.33534
58.2484 3.63399 -1.34341
58.4692 3.80211 -1.35241
58.8303 3.98309 -1.36595
59.0525 4.07816 -1.37458
59.9363 4.77659 -1.41171
60.4912 5.30433 -1.43523
53.4253 12.1533 -1.27776
53.4084 12.2937 -1.27952
38.2488 12.7057 -0.794671
38.0945 12.7392 -0.790418
37.9867 12.7936 -0.789093
31.3383 15.135 -0.650733
26.3998 18.8343 -0.645654
12.7896 29.3278 -0.93889
12.3342 26.3538 -0.809882
12.1985 25.4237 -0.769789
12.115 24.6396 -0.735221
11.8865 23.1415 -0.670665
-42.2841 34.4898 -2.477
-54.6247 29.526 -2.82494
-54.4539 29.2022 -2.81169
-54.2923 28.6416 -2.79431
-54.2749 28.3891 -2.78799
-66.7626 14.1636 -3.06664
-59.5584 -3.19424 -2.62956
-58.3375 -3.79116 -2.576
44.3966 -12.2081 -0.86018
49.4546 1.99566 -1.25644
49.5885 2.1247 -1.26257
52.9184 5.44603 -1.42747
54.4274 6.40953 -1.49855
54.6011 6.57569 -1.50772
51.1281 11.1011 -1.43421
51.0606 11.2186 -1.43304
51.0516 11.3528 -1.43474
51.0295 11.4834 -1.43647
32.3835 7.99002 -0.652426
32.4236 8.08314 -0.655736
38.1833 12.6493 -0.971642
38.0057 12.6712 -0.96542
27.2639 13.902 -0.634982
13.6377 36.7793 -1.48059
13.5572 37.2501 -1.50322
12.7894 29.018 -1.09736
12.4684 26.9151 -0.994158
12.1907 25.0952 -0.905194
11.9832 23.4607 -0.823884
11.8756 22.8081 -0.792058
-27.3062 41.0498 -2.50403
-27.8558 37.6546 -2.3983
-42.3283 33.6989 -2.83126
-32.5289 26.4321 -2.21735
-46.9421 -6.99854 -2.43518
-46.7581 -8.35493 -2.42777
-46.6457 -8.43041 -2.42198
-36.885 -11.5051 -1.96897
-36.6191 -11.5989 -1.9575
36.9979 -15.5911 -0.850313
38.991 -13.3559 -0.884868
43.1018 -10.5807 -1.00812
43.303 -10.5332 -1.01559
47.2944 -9.27596 -1.16178
47.4131 -9.2456 -1.16648
47.4108 -9.12251 -1.1651
47.3269 -8.9796 -1.16112
47.3803 -8.87076 -1.16246
47.3442 -8.73992 -1.16025
46.6664 -8.04259 -1.13025
46.9218 -7.98027 -1.1396
46.8289 -7.84116 -1.13564
46.9101 -7.73995 -1.13883
46.9426 -7.62764 -1.13926
48.6625 -7.12391 -1.20628
48.9533 -6.68328 -1.21636
49.0448 -6.57529 -1.21955
49.0066 -6.44441 -1.21735
49.1097 -6.3997 -1.22218
49.1014 -6.27548 -1.22083
49.1331 -6.15615 -1.2223
49.055 -6.02038 -1.21926
49.0468 -5.89616 -1.21791
49.1442 -5.78731 -1.22208
49.0711 -5.65364 -1.21902
49.99 -4.40983 -1.25471
50.363 -4.32614 -1.26972
50.0964 -4.17115 -1.25949
47.6746 7.27245 -1.45527
46.6576 10.1767 -1.45748
38.7919 12.8629 -1.17541
38.2677 12.7266 -1.14971
18.0579 17.4784 -0.678378
17.8656 17.5577 -0.679495
13.6175 37.2268 -1.71689
13.0918 31.6935 -1.41147
12.8307 29.4043 -1.28612
12.6825 28.5916 -1.24166
12.5602 27.4183 -1.17731
12.4168 26.5035 -1.12632
12.2746 25.5116 -1.07194
12.1523 24.7813 -1.03179
-38.5658 17.1306 -2.55906
-43.5592 13.5653 -2.75023
-43.6786 13.4139 -2.75393
-46.4906 11.9302 -2.87819
-46.5873 11.8563 -2.88219
-46.6115 11.4867 -2.87745
-46.8597 11.1601 -2.88577
-47.3381 10.7805 -2.90569
-47.5186 10.6244 -2.9136
-47.9115 10.315 -2.92955
-48.347 10.2005 -2.95162
-44.1378 7.18279 -2.68882
-39.7156 -4.69865 -2.37933
-39.5323 -5.00073 -2.36915
-37.8271 -6.53144 -2.27914
-37.9955 -7.72707 -2.29086
-37.8098 -8.01121 -2.28175
34.3859 -14.6653 -0.903739
34.5095 -14.6391 -0.907403
45.109 -5.84718 -1.25999
41.4255 2.21221 -1.30377
41.4337 2.31005 -1.30522
41.4368 2.35899 -1.30545
41.455 2.45761 -1.30687
41.4862 2.55693 -1.31024
41.9069 2.9866 -1.33679
41.9632 3.09136 -1.34009
41.9844 3.14289 -1.34227
41.9896 3.2428 -1.34374
42.0169 3.34421 -1.34614
42.0402 3.44671 -1.34856
42.0925 3.55156 -1.35188
42.1409 3.65749 -1.35623
42.1832 3.76257 -1.35959
42.2164 3.81684 -1.36173
42.2879 3.92526 -1.367
42.3363 4.0322 -1.37034
42.3877 4.14007 -1.37468
42.4391 4.24793 -1.37903
42.4895 4.35583 -1.38237
42.5309 4.46392 -1.38575
42.5812 4.52181 -1.38985
42.6086 4.62722 -1.39226
42.643 4.73546 -1.39567
42.6673 4.84094 -1.3981
42.6897 4.94746 -1.40054
42.7392 5.05837 -1.40491
42.7545 5.16305 -1.40737
42.8009 5.22302 -1.41049
42.8403 5.33216 -1.41388
42.9019 5.4468 -1.41922
42.9554 5.55962 -1.42357
38.8422 12.8408 -1.37311
38.6606 12.8639 -1.36491
14.3741 21.2775 -0.98107
13.8491 37.1615 -1.94969
13.7322 37.1691 -1.95017
13.715 38.4594 -2.02963
12.7914 29.0022 -1.44828
12.6117 27.7233 -1.37063
12.4702 26.8944 -1.31906
12.2297 25.0418 -1.20579
3.21866 16.6211 -0.811053
3.16136 16.6083 -0.811206
3.20512 16.3734 -0.796878
-23.7687 32.0136 -2.61898
-35.7284 12.7193 -2.63053
-30.7376 -2.41074 -2.16182
39.2028 -0.376329 -1.32033
39.1257 -0.286579 -1.31606
39.0967 -0.196912 -1.31562
39.1267 -0.107559 -1.31695
39.1297 -0.0636195 -1.31815
39.1337 0.0263132 -1.31858
39.1506 0.114954 -1.31996
38.8775 2.59662 -1.32327
39.518 12.1148 -1.55198
39.4669 12.1989 -1.55159
39.4097 12.2812 -1.55121
38.9023 12.8576 -1.54197
38.4376 12.75 -1.51419
38.0003 12.6528 -1.48836
27.1443 13.8998 -1.00643
27.7649 18.222 -1.23749
12.7107 28.9883 -1.60252
12.4011 26.9093 -1.46339
12.1733 25.1354 -1.34547
10.2326 16.544 -0.776241
10.1866 16.365 -0.764528
-32.7596 10.726 -2.65748
-32.5543 10.2434 -2.63432
-32.3058 10.042 -2.61538
-29.8419 6.88065 -2.40245
-29.7711 6.73808 -2.39547
-29.7291 6.60114 -2.39064
-29.6832 6.46311 -2.38578
-29.6458 6.39228 -2.38229
-29.5649 6.24949 -2.37428
-29.4921 6.10887 -2.36831
-29.4062 5.96698 -2.36028
-29.3203 5.82608 -2.35226
19.8736 -10.0436 -0.424293
39.2291 -2.7115 -1.31867
39.2511 -2.62397 -1.32002
39.2571 -2.53408 -1.31944
39.2651 -2.48925 -1.32063
39.2571 -2.39805 -1.32012
39.2321 -2.30647 -1.31866
39.2411 -2.21664 -1.31907
39.1881 -2.12343 -1.31574
39.1491 -2.03053 -1.31334
39.1232 -1.93893 -1.31189
39.0982 -1.89236 -1.31122
39.1041 -1.80347 -1.31164
39.1041 -1.71344 -1.31108
39.0911 -1.62413 -1.31057
39.0921 -1.53413 -1.31101
39.0811 -1.44486 -1.3105
39.085 -1.35593 -1.31092
39.103 -1.31132 -1.31208
39.117 -1.22261 -1.31246
36.6241 11.8276 -1.58846
36.5869 11.9094 -1.58901
12.813 29.278 -1.82657
12.6695 28.5462 -1.77249
12.1275 24.6226 -1.4831
11.8927 23.073 -1.36932
3.16588 16.1902 -1.00812
25.2551 -14.6515 -0.961215
25.31 -14.6147 -0.962191
25.306 -14.5196 -0.957677
25.4187 -14.4481 -0.959606
25.4823 -14.4655 -0.96328
25.5861 -14.3858 -0.964284
25.5851 -14.2947 -0.960738
36.3865 -2.34756 -1.33318
36.4293 -2.26949 -1.33541
36.4379 -2.14866 -1.33597
36.4307 -2.06647 -1.33541
36.341 -1.73637 -1.32938
36.3338 -1.6542 -1.32981
36.3187 -1.61284 -1.32808
36.3235 -1.53293 -1.32845
36.3203 -1.45184 -1.32887
36.3251 -1.37193 -1.32924
36.3149 -1.29068 -1.32868
36.3146 -1.20965 -1.32909
27.9251 14.1901 -1.31793
26.7521 16.8093 -1.40432
19.6862 14.6672 -0.975331
14.1637 15.1321 -0.87544
13.6046 38.5496 -2.6995
12.7537 28.8857 -1.93986
12.1738 25.062 -1.63911
11.935 23.4675 -1.51411
11.8679 22.838 -1.46425
2.92377 18.4928 -1.27044
2.78386 18.4979 -1.27599
-13.7323 14.5843 -1.93387
-21.2099 6.72537 -2.23015
-21.1903 6.61593 -2.22653
-21.1408 6.50183 -2.22078
-21.0735 6.38335 -2.21294
-21.026 6.27029 -2.2072
-20.9476 6.15157 -2.19932
-20.8891 6.03728 -2.19253
-20.8256 5.97388 -2.18598
-20.7521 5.85827 -2.17813
-20.6996 5.7461 -2.17238
-20.6531 5.63607 -2.16666
-20.5866 5.5226 -2.15984
-20.541 5.4126 -2.15413
-20.5243 5.30921 -2.15155
-20.4857 5.20135 -2.14687
-20.4699 5.149 -2.14455
-20.4641 5.04686 -2.14203
-20.4175 4.93883 -2.13632
-20.4447 4.8434 -2.13695
-20.4239 4.73993 -2.13436
-20.3853 4.63407 -2.12969
-20.3626 4.53056 -2.12609
-20.3398 4.47805 -2.12374
-20.2718 4.07049 -2.11247
-13.4179 -10.3537 -1.64623
34.3047 6.59363 -1.57829
34.3085 6.67456 -1.58068
34.2972 6.75182 -1.5811
34.3161 6.83741 -1.58546
34.3179 6.91838 -1.58785
33.8914 9.91827 -1.65331
33.8711 9.99573 -1.65477
33.8357 10.0675 -1.65526
33.7912 10.1345 -1.65476
33.7679 10.1671 -1.65401
33.7234 10.2341 -1.65351
33.6889 10.3048 -1.65399
33.6514 10.3747 -1.65347
33.617 10.4455 -1.65395
33.5816 10.5173 -1.65444
33.5451 10.5871 -1.65492
33.539 10.6272 -1.65615
19.5868 15.0759 -1.11473
12.83 29.354 -2.16989
12.1407 24.673 -1.77031
11.9046 23.1134 -1.63748
3.25672 18.3769 -1.38161
-2.54829 20.721 -1.7981
-14.1099 15.0166 -2.16843
-14.1962 14.9615 -2.17249
-13.8186 14.6303 -2.12942
13.1631 17.041 -1.22567
13.4352 35.2477 -2.8748
12.7808 29.0503 -2.31058
12.4676 26.9966 -2.12359
11.8824 22.9003 -1.75151
6.86572 15.7974 -1.16224
3.27122 18.335 -1.49135
30.2315 2.23049 -1.41104
30.2339 2.29245 -1.41234
30.2192 2.35278 -1.41269
30.2116 2.41397 -1.41302
30.216 2.47688 -1.41432
30.2177 2.50785 -1.41447
30.213 2.56996 -1.41579
30.1973 2.62933 -1.41514
30.2188 2.69485 -1.41839
30.1881 2.75356 -1.41679
30.1895 2.81553 -1.41809
30.1628 2.87415 -1.41649
30.1735 2.90691 -1.41761
30.1468 2.96552 -1.417
30.1472 3.02753 -1.4183
15.914 16.0036 -1.27617
12.8896 29.321 -2.51051
12.5644 27.2736 -2.3116
12.1488 24.5814 -2.05083
11.9453 22.9633 -1.89358
-11.1721 13.3451 -2.17709
-11.2344 13.2885 -2.18004
-11.2947 13.2308 -2.18199
21.7368 -12.5277 -1.09899
13.131 18.1124 -1.5471
11.8247 22.6883 -2.01168
27.6732 -5.97265 -1.34207
28.4004 7.09022 -1.627
28.3837 7.1486 -1.62735
28.3912 7.21543 -1.63165
19.3759 19.0556 -1.91724
-10.2025 9.56058 -2.2007
-10.1983 9.47949 -2.19629
-10.1179 9.36375 -2.18241
20.066 -10.6361 -1.05965
20.1953 -10.716 -1.07376
20.1687 -10.6514 -1.06719
20.2415 -10.666 -1.07384
20.3044 -10.6695 -1.07758
24.8887 10.4743 -1.73199
24.8445 10.5103 -1.73033
24.8125 10.556 -1.73068
24.7876 10.6056 -1.73202
16.5761 16.9445 -1.83234
14.1865 15.5382 -1.59938
13.8144 16.1133 -1.66063
13.8302 18.1862 -1.91084
18.4481 14.7189 -1.75627
7.57674 15.514 -1.70517
6.89747 15.9927 -1.7861
-2.35591 12.9605 -2.04796
-2.39588 12.9174 -2.0479
23.3002 10.2373 -1.7488
23.2701 10.279 -1.74912
23.243 10.3216 -1.75043
23.2254 10.34 -1.75059
23.2004 10.3856 -1.75191
23.1754 10.4311 -1.75323
23.1403 10.4689 -1.75355
23.1061 10.5067 -1.75386
23.0719 10.5444 -1.75418
23.0388 10.5832 -1.7545
23.0426 10.6201 -1.75767
22.9809 10.6345 -1.75297
22.9488 10.6742 -1.75429
22.9268 10.7227 -1.75661
22.8814 10.7507 -1.75492
22.8493 10.7894 -1.75523
22.8059 10.8194 -1.75354
22.7832 10.8339 -1.7527
22.7634 10.8843 -1.75603
22.7139 10.9075 -1.75333
22.6879 10.953 -1.75565
22.6353 10.9742 -1.75295
22.6011 11.012 -1.75327
22.5772 11.0585 -1.75459
22.54 11.0944 -1.75491
22.5172 11.1079 -1.75406
22.4892 11.1515 -1.75538
22.453 11.1863 -1.75569
22.4045 11.2114 -1.754
22.3734 11.2521 -1.75532
22.3413 11.2908 -1.75563
3.99305 15.7491 -1.96784
3.94354 15.7262 -1.96791
3.88838 15.7194 -1.97009
-1.37654 10.4239 -2.10572
-1.42312 10.3979 -2.10876
-1.4756 10.376 -2.11285
-1.58473 10.3694 -2.12423
14.0859 11.128 -1.85293
14.0702 11.1414 -1.85406
19.0023 2.42469 -1.49632
19.0006 2.43873 -1.49739
18.7191 -2.54196 -1.4238
16.8885 2.9935 -1.5231
16.8806 3.00068 -1.52216
16.871 3.0199 -1.52229
16.0825 -14.4313 -5.04695
15.9373 -13.91 -4.86107
16.1751 -14.4053 -5.04873
16.2148 -14.3732 -5.04374
9.59714 1.42938 -0.519812
11.203 -1.65864 -0.455473
9.83778 1.16059 -0.396572
9.91543 1.1449 -0.390201
9.92494 1.12473 -0.380066
9.89478 1.15931 -0.400351
9.81365 1.02319 -0.375982
9.82427 1.2176 -0.457906
9.85513 1.17003 -0.431554
9.84528 1.17623 -0.436622
9.815 1.20581 -0.455883
9.78963 1.2313 -0.473105
9.73704 1.2893 -0.509591
9.71158 1.3118 -0.523798
9.74063 1.27226 -0.501493
9.73752 1.26733 -0.50048
9.75094 1.24308 -0.488309
9.66528 1.33971 -0.548111
9.75537 1.13416 -0.447752
9.83701 1.03661 -0.388961
9.79595 1.03246 -0.400095
9.65738 1.17312 -0.491315
12.2837 -1.07814 -0.604277
12.2474 -1.14146 -0.627101
12.1746 -1.07762 -0.58269
12.1796 -1.07774 -0.584671
35.0841 1.62351e-39 0
