ply
format ascii 1.0
element vertex 621
property float x
property float y
property float z
end_header
114.76 1.79323 3.16136
114.349 8.39975 3.12007
113.804 8.45903 3.10251
55.2027 15.1899 1.34415
46.271 19.5018 1.24811
35.6794 16.4424 1.09091
35.6213 16.2556 1.0853
35.5623 15.8099 1.07349
35.4477 14.3922 1.03552
13.2432 20.4788 1.54788
5.17424 21.4329 1.78285
1.24558 23.2183 1.91957
-4.62465 21.316 2.07497
-4.64958 21.1646 2.07406
-3.8736 18.3713 2.02527
-4.07101 18.3159 2.03096
0.426524 15.6911 1.86718
-0.954483 15.8671 1.91212
-0.795654 15.5163 1.90431
-3.16509 16.4601 1.98845
1.00111 14.3643 1.83851
-5.76764 17.2592 2.07796
-32.4022 27.2685 3.01097
-4.67832 13.6193 2.02056
-4.73192 13.4964 2.0225
-4.78363 13.3724 2.02344
-4.77292 13.2269 2.02244
-37.4784 23.7632 3.16127
-37.3449 23.2088 3.15491
-39.9146 -16.6267 3.44189
-18.6347 -15.918 2.69872
18.9866 -9.16801 1.31603
24.3993 -10.4032 1.18516
18.9949 -15.4895 1.47997
71.7392 -20.6112 2.09326
73.4802 -20.0253 2.12947
77.7379 -21.2255 2.27917
110.024 -26.7755 3.35038
101.986 -17.4212 2.94788
102.008 -17.2043 2.94534
102.022 -17.0971 2.94457
102.05 -16.8827 2.94204
102.111 -16.6751 2.9405
102.127 -16.4577 2.93796
102.147 -16.2416 2.93543
102.18 -16.0287 2.9339
102.215 -15.8159 2.93136
114.816 1.55712 2.6609
114.787 1.80646 2.65821
114.304 8.28155 2.61495
113.736 8.46321 2.59957
88.7753 12.3725 1.95534
55.2311 15.1592 1.18031
55.1359 15.1854 1.17928
46.3064 19.5781 1.10152
35.6919 16.4847 0.979591
35.6592 16.2536 0.975249
35.599 15.8883 0.967882
-30.0037 33.5364 2.51163
-3.44083 15.8173 1.72434
-38.7122 23.5166 2.7069
65.3782 -19.5582 1.66785
101.321 -17.5695 2.49794
101.305 -17.3454 2.49441
101.289 -17.1222 2.49088
101.294 -16.9049 2.48836
101.369 -16.3754 2.48356
101.415 -16.1675 2.48205
101.476 -15.9629 2.48053
101.541 -15.7588 2.48001
101.663 -15.5674 2.48049
114.799 1.74861 2.28459
55.2428 15.2045 1.05997
46.3223 19.4946 0.99007
35.6884 16.4452 0.895869
35.6301 16.2665 0.893203
35.5671 15.5733 0.88212
65.5284 -19.4537 1.50289
76.1007 -20.48 1.71653
86.4343 -21.6455 1.9345
114.813 1.69699 1.68291
114.432 8.18544 1.64039
113.857 8.36783 1.63202
46.3156 19.6064 0.813299
-27.851 -17.5379 1.82335
-2.59049 -14.6476 1.38281
60.2559 -19.421 1.17588
108.016 -25.0417 1.83442
109.232 -25.1842 1.85152
105.961 -18.5959 1.73481
106.117 -18.3984 1.7352
114.757 1.7219 1.27581
114.483 8.21839 1.23307
113.911 8.40146 1.22769
78.2425 10.0023 0.920234
46.3031 19.6026 0.692342
79.5718 -20.9618 1.17544
74.9857 -17.217 1.09957
75.0295 -17.1625 1.09912
96.9305 -20.2064 1.3051
114.704 1.64026 0.723448
114.328 8.12031 0.679982
113.77 8.3042 0.677573
100.161 7.80874 0.659262
56.0501 15.5447 0.552335
40.5722 -17.1613 0.772892
67.4194 -19.7389 0.812903
108.047 -25.1051 0.910792
109.304 -25.2632 0.913929
100.924 -17.3949 0.840305
101.018 -16.7626 0.835762
101.013 -16.6528 0.835006
101.01 -16.4349 0.832494
101.076 -16.2327 0.830987
101.125 -16.0262 0.829473
101.835 -15.5295 0.826912
102.771 -15.6221 0.829096
114.687 8.20452 0.303826
92.0347 9.44938 0.364534
78.1366 10.097 0.402728
61.3849 11.8374 0.43978
46.3062 19.4297 0.419532
46.3245 19.6209 0.418175
41.3022 16.5507 0.455361
75.2696 -16.9176 0.597027
103.946 -24.4366 0.558536
100.862 -17.3518 0.522093
100.89 -17.1404 0.52058
100.836 -16.909 0.519055
100.743 -16.6693 0.517533
100.786 -16.4632 0.516034
100.781 -16.3534 0.515278
100.823 -16.1462 0.513772
100.997 -15.9693 0.512271
101.097 -15.7751 0.510764
113.083 5.22535 -0.164969
112.176 5.39488 -0.157732
95.7231 4.28752 0.00565484
98.7057 7.37656 -0.0464789
98.0804 7.49402 -0.0413193
97.3938 7.59863 -0.0359746
87.7902 10.8538 0.0263869
60.8776 4.96666 0.326337
68.2321 9.7348 0.215703
46.1735 18.6853 0.282911
46.2537 19.2866 0.273605
43.2737 14.0087 0.362954
-29.5443 32.5485 -0.0942819
106.478 -24.6233 0.0768697
96.9132 -20.5022 0.145151
98.1582 -20.4606 0.133918
110.379 -22.8126 0.0331911
112.02 -23.0256 0.0191097
101.011 -17.4488 0.0925244
101.536 -17.359 0.0880799
101.497 -17.1288 0.0865414
100.448 -16.6582 0.0939067
76.7391 8.2802 -0.110472
56.9566 16.2491 0.0720109
37.7001 17.3312 0.221552
38.8092 29.1562 -0.0283996
38.709 29.1216 -0.0270024
38.6759 29.2639 -0.0299402
38.5809 29.28 -0.0299039
36.4934 19.3324 0.183521
36.3406 18.8577 0.19406
36.3095 18.8574 0.194111
36.2477 18.8867 0.194004
91.3828 -21.8616 -0.165773
91.557 -21.7249 -0.168995
91.775 -21.6039 -0.172176
87.991 -17.5622 -0.126368
107.046 -12.7751 -0.434404
106.921 -12.5246 -0.433951
106.95 -12.4137 -0.434768
91.9971 3.76947 -0.699945
91.5777 3.91159 -0.692278
68.6732 3.56329 -0.176088
61.5789 6.05352 -0.0463233
65.2999 11.2298 -0.198124
49.5799 16.2719 -0.000633965
36.4688 19.2342 0.0432389
36.3965 19.0798 0.0474254
36.3231 18.8893 0.0538641
36.2607 18.8876 0.0539734
33.2519 17.5421 0.0940265
29.5935 20.5725 0.00166627
29.6863 19.0554 0.0430699
26.4225 -16.1513 0.366947
79.2431 -19.8063 -0.324115
79.4949 -19.7495 -0.329903
91.17 -15.38 -0.581514
91.2661 -15.2176 -0.583793
91.6079 -14.9285 -0.592337
90.9267 -13.3801 -0.580038
93.9494 -12.3199 -0.650129
93.9762 -12.1346 -0.65146
86.2962 -5.11803 -0.770257
86.2927 -4.87587 -0.771935
86.3192 -4.71755 -0.773077
86.3647 -4.55986 -0.775244
90.5455 0.806173 -0.926082
90.3344 1.14431 -0.923103
92.6021 1.87126 -0.991699
92.6558 2.59629 -0.998824
91.319 3.83525 -0.973351
91.098 3.90427 -0.967485
67.9532 4.56378 -0.339924
68.0027 4.6258 -0.341433
68.0476 4.7404 -0.344299
68.1627 4.86706 -0.34936
68.2709 4.99432 -0.353414
78.8548 7.89751 -0.675128
78.9764 8.06577 -0.680488
59.196 14.8657 -0.283876
59.0764 14.8398 -0.280509
56.0298 15.3392 -0.222224
38.1848 13.7574 0.110639
36.3642 19.3146 -0.0631594
33.2148 17.5435 -0.00292823
-30.9372 26.4647 -1.34684
-31.9562 26.0244 -1.36219
68.5469 -19.9922 -0.302124
74.9458 -15.0959 -0.445159
78.1082 -14.7884 -0.528236
81.3655 -14.4037 -0.613997
82.0995 -12.9598 -0.634182
82.9186 -13.0868 -0.656578
85.3158 -10.1539 -0.725713
79.2401 -4.86555 -0.838999
79.2359 -4.72669 -0.838958
79.2367 -4.58726 -0.839928
79.2314 -4.44832 -0.840886
79.2821 -4.38339 -0.842417
79.2121 -4.23892 -0.840312
79.1899 -4.09953 -0.840246
79.1776 -3.95999 -0.841197
79.1614 -3.82111 -0.841137
79.174 -3.68369 -0.842113
79.1738 -3.54518 -0.843075
79.1377 -3.47385 -0.842515
79.1524 -3.33661 -0.843492
79.1731 -3.19987 -0.844475
79.1738 -3.06144 -0.845439
79.1834 -2.92477 -0.846404
79.1802 -2.78599 -0.847364
79.1378 -2.64689 -0.846264
79.0876 -2.57638 -0.845676
79.0542 -2.43805 -0.845586
79.0399 -2.29933 -0.845528
79.0175 -2.16193 -0.845448
79.0381 -2.0252 -0.847431
79.1129 -1.88907 -0.850495
79.277 -1.75353 -0.856693
79.4442 -1.61725 -0.863902
79.6275 -1.55059 -0.869652
79.7597 -1.41233 -0.875819
79.8548 -1.27292 -0.879937
79.941 -1.13274 -0.883046
80.0543 -0.992872 -0.888196
80.263 -0.851111 -0.896507
80.4026 -0.708462 -0.901717
80.5393 -0.635821 -0.907436
80.6779 -0.492091 -0.912652
80.875 -0.346316 -0.919973
81.0079 -0.200093 -0.926197
81.1789 -0.0531032 -0.932486
81.325 0.095008 -0.938744
81.4611 0.243968 -0.944993
81.5699 0.319993 -0.948691
81.7192 0.469842 -0.954966
81.6904 0.614811 -0.954929
82.1177 0.778069 -0.970732
82.1796 0.927343 -0.973866
82.3102 1.08179 -0.980144
82.4064 1.23416 -0.984354
82.5105 1.31359 -0.989068
82.6109 1.46761 -0.993296
82.772 1.62648 -1.00065
82.9169 1.78473 -1.00598
83.0862 1.94592 -1.01336
83.2958 2.10968 -1.02183
83.5229 2.27798 -1.03135
83.6747 2.36438 -1.03719
84.008 2.54269 -1.04995
84.2273 2.71366 -1.05848
84.96 2.92714 -1.08511
84.7147 3.06348 -1.07868
84.5876 3.2088 -1.07549
59.4823 4.79314 -0.261293
64.2794 11.0233 -0.521103
44.8765 6.57948 0.153099
36.3377 19.2056 -0.181363
34.1782 17.3555 -0.106127
33.2199 17.5463 -0.114958
66.2458 -18.9505 -0.451779
66.4979 -18.6418 -0.456319
66.4671 -18.4956 -0.454287
66.7511 -18.013 -0.459086
66.8464 -18.001 -0.461318
66.9134 -17.9094 -0.463059
77.4133 -12.8562 -0.768591
78.6261 -10.8088 -0.805719
78.7622 -10.696 -0.810716
78.917 -10.5867 -0.815717
79.0808 -10.4783 -0.820727
79.1706 -10.3544 -0.823728
79.2586 -10.2285 -0.826742
79.1809 -10.0683 -0.824734
79.1306 -9.98672 -0.823223
77.137 -8.02218 -0.759767
79.2549 -8.01816 -0.829103
79.2232 -7.87194 -0.82907
79.2222 -7.73035 -0.829053
79.245 -7.59278 -0.830045
79.227 -7.44974 -0.830012
79.2686 -7.31479 -0.832015
79.2884 -7.24723 -0.832515
79.2973 -7.10748 -0.833501
79.3062 -6.96773 -0.833486
79.2842 -6.82435 -0.833449
79.2523 -6.68012 -0.832402
79.2135 -6.5353 -0.832348
79.2203 -6.39637 -0.832325
79.1813 -6.25254 -0.831264
79.1713 -6.18144 -0.831743
79.2447 -6.0502 -0.83477
79.3271 -5.91973 -0.837805
79.3916 -5.78674 -0.840831
79.4342 -5.65087 -0.841842
79.4222 -5.50934 -0.842807
79.3812 -5.36634 -0.841737
79.3841 -5.29634 -0.842229
79.2455 -5.14401 -0.838071
79.2125 -5.00169 -0.837009
73.8421 -4.08073 -0.915031
73.8455 -3.95858 -0.915885
73.8368 -3.8364 -0.915721
73.8389 -3.77636 -0.916142
73.8223 -3.6535 -0.91597
75.5105 0.596135 -1.01115
75.617 0.72754 -1.01723
77.7964 3.17792 -1.12767
76.2636 7.10213 -1.11756
76.1332 7.2096 -1.11311
76.0733 7.33112 -1.11286
75.9902 7.38036 -1.11007
75.8842 7.49076 -1.10767
75.8334 7.61351 -1.10745
59.277 4.77639 -0.41586
64.6079 11.0059 -0.7385
64.785 11.1884 -0.749046
64.7936 11.3011 -0.751843
64.6825 11.3638 -0.749105
64.8233 11.5324 -0.757498
48.4198 14.8368 -0.313853
36.3533 19.2605 -0.317773
36.2894 19.2639 -0.317697
33.2851 17.9131 -0.254614
33.2495 17.6944 -0.245038
63.4106 -16.8965 -0.561636
63.4421 -16.7978 -0.561371
63.4966 -16.7704 -0.562647
63.598 -16.7108 -0.56622
63.6889 -16.6452 -0.568817
63.7846 -16.5812 -0.571412
63.8803 -16.5181 -0.574001
63.9886 -16.46 -0.576573
64.1037 -16.4056 -0.580131
64.2159 -16.4072 -0.584296
64.3244 -16.3472 -0.587882
64.4338 -16.2882 -0.590463
64.5701 -16.2427 -0.594993
66.1879 -13.3877 -0.629368
71.7083 -11.9879 -0.830723
69.6977 -11.1549 -0.750373
73.9502 -7.16304 -0.91177
73.8883 -7.03028 -0.908596
73.8538 -6.96312 -0.908009
73.8722 -6.84124 -0.908885
73.9153 -6.72448 -0.910764
73.9624 -6.60706 -0.912654
73.9669 -6.48399 -0.912517
73.9941 -6.36388 -0.914394
73.9678 -6.23718 -0.913234
73.9442 -6.17194 -0.912651
73.9208 -6.04649 -0.911486
73.8885 -5.91929 -0.91132
73.8789 -5.79503 -0.911169
73.8675 -5.67061 -0.911017
73.8241 -5.54345 -0.908833
73.7996 -5.41793 -0.908667
73.8426 -5.36137 -0.910128
73.8987 -5.24472 -0.913026
73.9856 -5.13171 -0.916948
70.169 -4.11395 -0.975067
70.1259 -4.05507 -0.973409
70.0524 -3.93941 -0.971099
70.0558 -3.82929 -0.970869
70.06 -3.72026 -0.971634
70.0593 -3.61081 -0.972394
70.0706 -3.50138 -0.973173
70.0739 -3.39226 -0.973936
70.0535 -3.33633 -0.973293
70.0548 -3.22704 -0.973055
70.0391 -3.11631 -0.972801
70.0314 -3.00626 -0.973554
70.0246 -2.89729 -0.973301
70.0039 -2.78713 -0.973034
69.9972 -2.67717 -0.973788
69.9858 -2.622 -0.973154
69.9781 -2.51295 -0.9729
69.9743 -2.40424 -0.97365
69.9916 -2.29532 -0.975434
69.9868 -2.18652 -0.975183
69.986 -2.07707 -0.975943
69.9818 -1.91413 -0.977069
69.986 -1.36953 -0.980862
69.9622 -1.26012 -0.980586
69.9227 -1.20556 -0.978903
69.8647 -1.09723 -0.976566
69.7805 -0.989683 -0.973182
69.8078 -0.880625 -0.975983
69.7909 -0.772798 -0.975706
69.9367 -0.662817 -0.983699
70.0314 -0.552478 -0.988614
73.5079 3.84937 -1.19365
72.3625 6.5122 -1.17937
72.3005 6.62085 -1.17903
72.2332 6.66774 -1.17625
72.2089 6.78322 -1.17702
54.3975 6.79445 -0.390273
64.8816 11.2531 -0.944652
64.7126 11.2364 -0.936272
50.1867 6.28886 -0.200179
50.2076 6.35832 -0.202695
54.9636 14.7374 -0.651386
36.3491 19.2008 -0.436354
36.2841 19.1803 -0.43511
-36.7004 -2.26587 -2.47112
-34.4312 -8.83713 -2.34598
58.0158 -17.2434 -0.546802
59.9295 -16.5365 -0.608706
60.7469 -15.9057 -0.630368
60.5473 -14.7484 -0.605102
66.9633 -10.7714 -0.839774
68.5736 -7.98021 -0.900695
68.607 -7.28151 -0.900605
70.1377 -6.21688 -0.970398
70.1371 -6.10543 -0.970172
70.1465 -5.99483 -0.970955
70.138 -5.8827 -0.970721
70.1325 -5.77082 -0.970491
70.1309 -5.65929 -0.970264
70.1068 -5.60003 -0.969638
70.0904 -5.48721 -0.968397
70.0828 -5.37516 -0.968164
70.0772 -5.26428 -0.967926
70.0805 -5.15417 -0.968697
70.0571 -5.04077 -0.967449
70.0296 -4.92702 -0.967197
70.0551 -4.87501 -0.968598
70.1261 -4.77167 -0.971427
70.1892 -4.66766 -0.974249
70.2085 -4.55891 -0.976035
70.2267 -4.45007 -0.976821
70.2132 -4.33851 -0.976575
70.2165 -4.2284 -0.977346
67.0101 0.433813 -1.03976
67.0731 0.536824 -1.04357
67.133 0.640082 -1.04838
67.189 0.743686 -1.05219
67.2703 0.850145 -1.05706
67.3284 0.954575 -1.06087
67.3882 1.00867 -1.06534
69.2333 5.80554 -1.22558
69.1539 5.89962 -1.22311
69.0951 5.99797 -1.2217
69.0454 6.09855 -1.22132
39.5093 16.6618 -0.435635
39.4804 16.6642 -0.435607
39.4227 16.6701 -0.434558
39.3682 16.6908 -0.435617
30.3517 22.4155 -0.752351
38.1824 13.1203 -0.313938
30.4714 22.302 -0.896751
61.6625 -10.814 -0.947205
61.7919 -10.7207 -0.953056
61.8327 -10.6419 -0.953668
57.3652 5.34917 -0.88787
57.346 5.41904 -0.888326
35.6098 7.78015 -0.00278718
1.62183 16.1575 -1.80002
50.2741 -16.7802 -0.639939
53.7844 -13.161 -0.694583
61.9725 -5.21086 -1.06765
35.7303 7.9119 -0.0758931
59.753 4.12942 -1.30513
59.7844 4.21605 -1.30878
59.8067 4.30144 -1.31241
41.1747 16.4838 -0.889009
37.6593 14.8682 -0.696284
35.7718 7.94015 -0.123156
29.8169 14.6188 -0.721308
46.3642 16.4135 -1.19263
45.9452 16.9869 -1.21796
41.2303 16.4421 -1.00981
41.1662 16.4315 -1.00663
53.4593 -10.8924 -1.00086
52.8751 11.1826 -1.34643
52.842 11.2427 -1.34679
52.8067 11.2998 -1.34814
52.7934 11.3321 -1.34834
52.7571 11.3894 -1.34968
52.7294 11.4519 -1.35107
52.6995 11.5137 -1.35246
52.6846 11.5872 -1.35594
52.6526 11.6471 -1.35631
52.6367 11.7197 -1.35979
52.6438 11.7672 -1.36313
52.6064 11.8236 -1.36347
52.5606 11.8747 -1.36375
52.5126 11.9239 -1.36302
52.4462 11.9577 -1.36015
52.4121 12.0168 -1.36151
46.4026 16.3592 -1.30931
46.3392 16.3807 -1.30836
41.3463 16.4154 -1.11681
41.2907 16.4341 -1.11685
41.2227 16.4129 -1.1136
41.1644 16.4238 -1.11258
41.8825 -16.7476 -0.745069
41.9349 -16.734 -0.746245
46.0969 -14.6687 -0.797103
53.4656 -7.86823 -1.03289
54.3962 3.22658 -1.24749
54.4297 3.26587 -1.25081
54.8677 7.10742 -1.42621
43.7625 13.4593 -1.05403
42.3067 12.3769 -0.893223
43.8319 17.1094 -1.38052
47.4192 -12.1137 -0.831931
50.7472 10.2484 -1.37661
50.7133 10.2984 -1.37691
50.6709 10.3422 -1.37615
50.6434 10.3967 -1.37848
50.6181 10.4541 -1.37984
50.5853 10.504 -1.38014
50.5758 10.5349 -1.38234
50.5602 10.5985 -1.38476
43.7385 13.603 -1.17399
36.9879 -16.4993 -0.802156
49.8536 9.76031 -1.38482
49.829 9.81357 -1.38616
49.8066 9.86866 -1.3885
49.7712 9.91282 -1.38776
49.7499 9.96882 -1.39011
45.2119 15.2126 -1.51449
41.4926 14.4318 -1.25725
49.0354 9.27383 -1.39417
48.9997 9.31401 -1.39339
44.5585 6.72119 -0.804415
44.8947 13.9731 -1.49538
44.8901 14.0718 -1.50505
44.8402 14.0991 -1.50517
37.1477 15.3026 -1.34352
48.3407 8.74079 -1.39238
48.3189 8.7557 -1.39144
48.2593 8.77485 -1.38748
41.4443 13.5349 -1.36494
41.327 13.5128 -1.3566
30.1858 16.2631 -1.62934
24.1775 15.101 -1.79388
47.908 -9.40833 -1.11351
50.4588 -2.60437 -1.1828
50.436 -2.55423 -1.18011
47.8126 8.33703 -1.40074
47.8132 8.36806 -1.40396
47.7781 8.40417 -1.40316
41.2212 12.5635 -1.32784
33.3137 8.14338 -0.668745
33.1048 -14.0334 -0.970243
37.0505 13.9384 -1.54789
46.1107 7.59735 -1.43495
46.0933 7.63997 -1.43721
47.0156 2.16357 -1.20757
47.052 2.21362 -1.21498
27.6066 -10.2624 -1.06188
36.179 9.54689 -1.62
36.1435 9.52987 -1.61583
42.9182 1.89656 -1.25432
42.9225 1.91224 -1.25644
42.9207 1.93847 -1.25862
38.52 4.45469 -1.38425
40.3179 -0.0602887 -1.27566
34.3371 0.36154 -0.229228
34.2805 0.36826 -0.244187
83.2745 6.93083 -20.5878
83.1657 7.06779 -20.5526
34.5211 0.0567118 -0.106393
34.6024 0.0327935 -0.0983534
34.5983 0.0321361 -0.0983425
34.5082 0.118572 -0.170805
34.5371 0.068136 -0.143498
34.5306 0.0746798 -0.147534
34.4987 0.11236 -0.170747
34.4667 0.150047 -0.192959
34.4159 0.214312 -0.231328
34.3981 0.228813 -0.240401
34.4154 0.196341 -0.224202
34.4183 0.183091 -0.218114
34.4324 0.159898 -0.205975
34.341 0.277588 -0.274652
34.4455 0.0296925 -0.153088
34.4545 -0.0411306 -0.124609
34.3208 0.110098 -0.217454
36.7328 -2.33797 -0.324202
36.708 -2.31165 -0.307346
36.6683 -2.27095 -0.281566
36.8379 -2.36529 -0.370177
1.51e-40 0 1.15033e-41
