ply
format ascii 1.0
element vertex 575
property float x
property float y
property float z
end_header
137.037 3.23331 3.79519
122.188 6.54616 3.22414
123.705 7.31137 3.2836
121.607 7.88246 3.20473
108.368 26.8209 2.89153
109.18 33.2388 3.02023
98.3967 28.7915 2.60945
98.454 28.9481 2.61409
92.622 23.9202 2.34553
92.4984 23.9819 2.34265
92.3919 24.0574 2.34081
63.9041 12.5993 1.42611
63.8086 11.9886 1.40714
21.1509 -8.90962 2.14926
19.2003 -11.8624 2.23163
18.9931 -12.3968 2.24278
6.39203 -19.3858 2.67737
20.0266 -17.5498 2.27814
20.3402 -17.5967 2.27091
20.9969 -17.4575 2.25063
13.145 -21.292 2.52004
13.236 -21.435 2.52009
43.2381 -11.3676 1.55905
45.2994 -12.7004 1.52886
23.9876 -25.327 2.31096
23.9592 -25.422 2.31321
10.0032 -33.3661 2.81893
24.3688 -27.0393 2.33691
69.1878 -19.6635 1.59421
121.934 -41.0185 3.73738
132.116 -41.949 4.10525
132.357 -41.797 4.11083
132.528 -41.6048 4.11289
132.818 -41.4778 4.11983
132.882 -41.3705 4.1197
132.863 -41.0772 4.11341
135.377 -36.8791 4.12275
125.672 -20.4326 3.5105
125.686 -20.2256 3.50771
125.703 -20.0191 3.50595
125.686 -19.8036 3.50298
125.704 -19.5981 3.50123
125.751 -19.3997 3.50065
125.753 -19.295 3.49923
125.772 -19.0896 3.49748
125.78 -18.8817 3.49566
142.263 -2.89453 3.50656
142.162 -2.77123 3.50255
123.712 9.93644 2.89383
97.7632 28.35 2.27908
95.2522 26.2273 2.18522
95.2732 26.3415 2.18686
92.6252 24.0552 2.08698
63.9176 12.6556 1.32094
63.8399 11.9778 1.30534
4.00717 -17.4213 2.33733
132.264 -42.439 3.61599
132.257 -42.1502 3.61077
132.331 -41.9071 3.60814
132.423 -41.6736 3.60664
132.606 -41.4892 3.6088
133.062 -41.449 3.62192
132.701 -40.9744 3.60316
132.876 -40.9262 3.60784
133.094 -40.7588 3.61125
133.371 -40.6208 3.61707
133.589 -40.4514 3.62046
134.042 -39.1396 3.61234
134.9 -36.6465 3.59839
135.288 -36.6846 3.6105
129.616 -32.3783 3.37436
124.121 -20.4201 3.04766
124.117 -20.2125 3.04479
124.121 -20.1101 3.04439
124.144 -19.9104 3.04268
124.128 -19.7001 3.03974
124.174 -19.5057 3.03917
124.192 -19.3052 3.03744
124.199 -19.1012 3.03563
124.213 -18.9002 3.03387
124.258 -18.8085 3.03472
137.317 -20.0971 3.46348
138.525 3.93909 3.00873
122.818 9.08011 2.57386
92.7077 24.146 1.89702
92.5847 24.1188 1.89351
63.9123 12.5783 1.24123
63.8136 11.9307 1.2284
133.292 -40.3617 3.2366
134.896 -36.7067 3.22561
137.646 -29.6288 3.2093
123.839 -18.8671 2.72486
124.034 -18.5066 2.72736
139.601 9.67744 2.44152
133.299 8.78626 2.3166
123.818 9.4697 2.12727
104.767 14.3045 1.75691
104.791 14.4727 1.75834
98.4041 28.642 1.70408
98.6135 29.2509 1.71163
96.7169 27.6967 1.67151
92.6407 24.0806 1.58295
92.4912 24.1167 1.58105
63.9354 12.5868 1.11431
63.8288 11.8827 1.10567
0.273762 13.8659 1.524
119.024 -26.4242 2.22078
138.036 -29.9458 2.61954
138.075 -29.8271 2.61926
138.153 -29.5886 2.61867
138.367 -29.3964 2.62195
130.053 -21.1962 2.38957
123.616 -18.6395 2.24179
124.791 -18.5091 2.26415
139.435 -19.4021 2.56222
104.725 14.2792 1.5218
104.781 14.3825 1.52265
96.6706 27.248 1.43112
96.6888 27.3636 1.43174
96.7195 27.5905 1.43296
92.7252 24.0559 1.37347
92.5491 24.0674 1.37154
67.9869 11.1298 1.04961
63.8669 12.2457 1.02637
71.358 -19.591 1.20978
87.8568 -18.6648 1.40366
87.8986 -18.5828 1.40354
128.509 -21.1157 2.01049
120.543 0.883223 1.37513
121.889 5.43754 1.36916
110.191 31.1847 1.2017
110.409 31.6964 1.20269
110.554 32.0396 1.203
92.6538 23.967 1.08647
92.5103 24.0093 1.08557
63.9755 12.9591 0.912979
63.8666 12.2393 0.912392
63.6836 -19.0362 1.03603
66.937 -19.3462 1.05661
67.0101 -19.3291 1.05691
87.8023 -18.5216 1.1988
121.483 -26.9103 1.51009
131.846 -28.3507 1.59995
137.792 -29.2546 1.65246
125.669 -20.9651 1.51363
125.687 -20.7576 1.51187
123.302 -18.8052 1.48389
124.649 -18.6192 1.49388
136.029 -19.2466 1.58849
139.392 -19.4427 1.61715
104.854 14.1543 0.986944
90.6989 10.3641 0.954579
111.702 32.5676 0.92258
63.9538 12.9599 0.831865
63.8504 12.2716 0.835176
87.6639 -18.4623 1.06186
87.7897 -18.4294 1.06235
87.8968 -18.3858 1.06171
99.1969 -23.528 1.12048
121.191 -26.7715 1.21105
107.874 -21.1147 1.14405
108.025 -21.0086 1.14337
108.433 -20.998 1.14537
123.435 -19.9304 1.19417
123.418 -19.7232 1.19324
123.433 -19.6253 1.19291
123.457 -19.4276 1.19221
123.48 -19.23 1.19152
123.502 -19.0331 1.19082
123.5 -18.8299 1.18997
123.486 -18.624 1.19006
108.87 10.0843 0.713796
108.766 10.1312 0.714079
99.388 8.08372 0.750496
97.7533 8.22171 0.753736
111.675 32.4883 0.534762
96.0836 27.2344 0.599217
71.3963 16.2696 0.707559
63.9947 13.1103 0.72145
63.8799 12.3125 0.731154
56.9697 12.4669 0.686885
107.787 -21.4337 0.837918
108.263 -20.9621 0.835365
137.442 -29.1701 0.77734
123.018 -20.4814 0.798341
123.092 -20.2978 0.796953
123.027 -20.0766 0.796718
122.947 -19.8534 0.7964
122.936 -19.6479 0.796503
122.977 -19.4568 0.795922
122.966 -19.3533 0.795443
123.035 -19.1691 0.795032
123.156 -18.9972 0.794932
123.115 -18.7855 0.793856
123.388 -18.6499 0.792665
125.555 -18.4434 0.786674
136.018 -19.2751 0.760531
139.581 -19.2631 0.75134
141.426 -2.8955 0.206298
94.3248 0.726129 0.61136
94.3197 0.826802 0.609921
116.957 7.9362 0.364145
115.174 8.14948 0.378334
114.273 8.45429 0.383568
110.116 31.4987 0.182007
110.054 33.7116 0.153602
70.8834 16.4378 0.568294
63.9702 12.8236 0.621504
63.8676 12.1554 0.632736
54.5846 17.6732 0.466528
87.735 -21.9006 0.688338
88.174 -18.3825 0.697077
88.2542 -18.321 0.697227
126.562 -27.3626 0.383376
127.782 -26.9993 0.373998
128.366 -26.9729 0.368813
128.727 -26.866 0.366185
135.031 -26.0272 0.313333
126.509 -22.675 0.384845
123.48 -20.5544 0.409946
123.435 -20.337 0.409825
123.841 -20.3434 0.406886
122.75 -19.6495 0.415569
122.599 -19.4092 0.416824
122.783 -19.2552 0.415114
123.543 -18.7367 0.407793
123.674 -18.565 0.406739
125.354 -18.3419 0.392243
133.529 -9.88351 -0.191565
133.652 -9.66962 -0.193824
141.136 -4.70661 -0.328722
139.49 -3.0029 -0.309973
115.706 2.30102 0.0400337
115.606 2.45744 0.0408882
115.548 2.61906 0.0399324
109.639 30.5089 -0.209322
109.637 30.7355 -0.212266
71.4748 16.2707 0.416942
71.408 16.2912 0.416523
70.9789 16.4361 0.414777
63.9894 13.0275 0.497759
63.8766 12.2587 0.517354
54.5912 17.7212 0.30436
110.302 -24.6801 0.154852
110.473 -24.5758 0.153281
110.552 -24.5213 0.152455
110.759 -24.431 0.150119
111.296 -24.1205 0.143535
109.161 -21.3819 0.183578
112.762 -21.2177 0.130949
112.905 -20.9147 0.130422
125.561 -17.1012 -0.0578263
125.659 -16.9159 -0.0590985
122.337 -8.15767 -0.32375
122.059 -7.95111 -0.318993
95.7298 0.192795 0.198585
91.273 22.7488 -0.06847
91.0664 22.7232 -0.0654001
71.2932 16.3321 0.302777
63.9556 12.9562 0.412881
63.8523 12.2689 0.433188
63.7514 11.5561 0.453613
50.5188 15.5948 0.176687
101.014 -23.8062 0.0677077
101.037 -23.6649 0.0692415
119.999 -13.7564 -0.269454
112.169 -10.9441 -0.40426
112.148 -10.8614 -0.403704
112.094 -10.6963 -0.401656
112.111 -10.5401 -0.402214
112.182 -9.2091 -0.404328
112.148 -9.04783 -0.404161
112.15 -8.89056 -0.403798
112.171 -8.81484 -0.405001
112.152 -8.65565 -0.404751
112.106 -8.49469 -0.403644
112.093 -8.33733 -0.403357
112.11 -8.18214 -0.403912
112.106 -8.02517 -0.403573
112.099 -7.86864 -0.404254
112.075 -7.78851 -0.403704
112.122 -7.63565 -0.405093
112.086 -7.47707 -0.403928
112.14 -7.32504 -0.406284
112.098 -7.16577 -0.405146
111.86 -6.60836 -0.40063
112.381 -6.32284 -0.415194
112.575 -6.17439 -0.420829
119.85 -1.18756 -0.637871
121.135 -0.202223 -0.678486
109.595 1.65155 -0.381932
91.1132 22.421 -0.289928
91.1782 22.6472 -0.297532
63.8802 12.3132 0.334144
53.8296 20.0138 -0.0428877
54.5921 17.7172 0.0473756
50.5612 15.4955 0.0433047
50.5398 15.3935 0.046617
88.4632 -18.6459 0.159598
106.006 -18.4386 -0.266342
106.727 -14.9246 -0.268171
107.876 -15.0582 -0.297865
109.977 -14.2418 -0.350693
112.623 -12.5345 -0.417448
112.481 -12.35 -0.412917
112.348 -12.1667 -0.409341
112.36 -12.0887 -0.409597
112.462 -11.9445 -0.412679
112.469 -11.7859 -0.412295
112.444 -11.6218 -0.411098
112.311 -11.282 -0.408162
112.211 -11.1085 -0.405376
104.718 -5.47443 -0.486089
107.007 -3.60102 -0.570317
107.152 -3.45977 -0.575171
107.285 -3.38744 -0.579805
107.41 -3.24554 -0.584758
107.609 -3.10076 -0.592355
107.735 -2.95575 -0.597323
107.865 -2.81144 -0.602264
108.145 -2.6598 -0.612485
108.27 -2.51267 -0.617465
108.381 -2.43743 -0.622215
108.473 -2.28982 -0.625359
108.63 -2.13908 -0.632195
108.763 -1.98811 -0.637148
108.795 -1.84208 -0.63859
109.02 -1.68478 -0.647109
109.235 -1.52709 -0.65568
109.325 -1.44893 -0.659546
109.518 -1.29017 -0.666232
109.595 -1.13836 -0.670471
109.614 -0.98855 -0.671992
109.364 -0.0458085 -0.670119
109.303 0.539359 -0.672832
109.232 0.60691 -0.670467
109.076 0.738721 -0.666787
108.967 0.874192 -0.663891
108.914 1.01589 -0.663739
108.892 1.16037 -0.663444
108.69 1.28357 -0.657962
108.566 1.41603 -0.655127
108.399 1.46876 -0.650182
109.649 30.816 -1.24355
91.2507 22.3252 -0.544851
63.9698 12.8687 0.203307
63.8649 12.1635 0.23268
50.5658 15.5731 -0.109994
50.541 15.4756 -0.106717
-8.86386 14.8845 -2.36906
-14.2039 14.3681 -2.58871
-6.35217 -7.98276 -2.07548
9.21109 -14.0822 -1.40439
10.1277 -14.5083 -1.36605
90.1387 -21.1655 -0.120654
90.2555 -21.1172 -0.123267
87.663 -18.3456 -0.00765003
89.1783 -17.7006 -0.0417078
99.1936 -17.5003 -0.343343
99.2464 -17.3895 -0.343533
98.9894 -16.8446 -0.331061
100.954 -15.0165 -0.379729
101.475 -14.118 -0.390813
103.359 -13.3197 -0.447652
102.74 -12.7159 -0.425238
99.8275 -8.40593 -0.54155
99.7286 -7.86397 -0.537273
99.7529 -7.74822 -0.537627
99.7721 -7.63277 -0.539006
99.7794 -7.51565 -0.53945
99.8037 -7.3999 -0.539805
99.8208 -7.34272 -0.540954
99.859 -7.22892 -0.54223
99.8673 -7.11194 -0.54267
99.8746 -6.99482 -0.543114
99.874 -6.87659 -0.542603
99.8702 -6.75894 -0.543106
99.8485 -6.63978 -0.541704
99.8689 -6.52348 -0.543081
99.867 -6.46465 -0.543332
99.8802 -6.34836 -0.543743
99.9075 -6.23303 -0.545081
99.9258 -6.11645 -0.545468
99.9322 -5.9992 -0.545918
99.9565 -5.88345 -0.547272
99.9698 -5.76618 -0.548687
99.9629 -5.70765 -0.547963
99.9633 -5.58956 -0.548446
99.9544 -5.4722 -0.547973
99.9487 -5.35427 -0.548486
99.9529 -5.23773 -0.548944
99.9644 -5.12018 -0.54937
103.24 -1.32613 -0.697552
104.277 0.454091 -0.752673
103.941 0.812124 -0.742826
103.932 0.942629 -0.743408
88.4057 14.3984 -0.436525
95.2507 22.6162 -0.900007
90.9272 22.0476 -0.757335
71.1873 17.4834 -0.156495
64.0043 13.0745 0.0916317
63.8911 12.318 0.128175
0.761534 14.4478 -2.34103
-4.60375 10.5271 -2.53981
4.46467 -6.25939 -1.95435
5.19105 -7.58983 -1.91624
20.32 -15.2894 -1.19575
85.9215 -17.0772 -0.0975936
94.6165 -16.7728 -0.399274
96.8052 -3.20897 -0.628061
96.8923 -3.099 -0.633076
96.9571 -2.98994 -0.6362
97.028 -2.87973 -0.640297
97.1235 -2.7679 -0.645279
99.8234 0.506923 -0.793211
88.2214 8.80384 -0.442454
91.0137 22.0428 -0.980887
90.8639 22.0699 -0.976749
63.997 12.947 0.000117648
63.8904 12.2441 0.0384728
79.3046 -18.3802 -0.0423996
94.3007 -1.46926 -0.728766
94.3639 -1.36402 -0.732881
94.4271 -1.25879 -0.736997
94.5284 -1.19927 -0.742734
94.4394 -1.10602 -0.738563
94.5673 -0.993688 -0.746385
94.6707 -0.882976 -0.753322
94.723 -0.776209 -0.756498
94.7774 -0.668734 -0.760667
94.8309 -0.561115 -0.763842
94.8712 -0.453676 -0.767081
94.8989 -0.400008 -0.769163
94.9351 -0.293004 -0.772422
88.1733 8.74131 -0.619442
64.0328 13.0678 -0.115202
63.9179 12.2924 -0.0685898
20.4192 3.51776 -1.75157
20.4122 -7.1188 -1.67588
29.7608 -11.359 -1.12259
77.4024 -16.0409 -0.0335482
91.2013 6.86853 -0.873573
89.0794 16.0831 -1.08609
64.0272 13.3267 -0.223297
63.9174 12.5799 -0.174777
86.8166 7.63895 -0.855715
86.7137 7.68266 -0.85141
86.609 7.67815 -0.844916
86.5917 7.76337 -0.847353
75.7166 3.36524 -0.0797639
70.3157 10.2663 -0.2192
67.9819 11.2018 -0.228743
64.0376 13.453 -0.354767
63.9232 12.6816 -0.298168
51.5105 6.66966 -0.245666
51.5633 6.58555 -0.238056
87.0835 6.67727 -0.970427
87.0973 6.77529 -0.974761
87.0816 6.81485 -0.975002
87.0598 6.89666 -0.976448
87.0606 6.98943 -0.979825
87.0238 7.06527 -0.979321
71.0112 9.92931 -0.297331
71.1848 10.4249 -0.336499
68.0088 11.2604 -0.31285
64.0271 13.2816 -0.427116
85.3385 -0.31589 -0.829426
85.3634 -0.238616 -0.832618
85.3677 -0.164504 -0.833901
85.4062 -0.0850743 -0.838035
85.4219 -0.0448748 -0.840122
85.4357 6.52406 -1.02706
85.3795 6.58444 -1.02559
85.3439 6.65505 -1.02606
85.2986 6.67756 -1.02337
85.277 6.75429 -1.0248
85.2317 6.82021 -1.0243
85.2037 6.8938 -1.02574
85.1779 6.9691 -1.02718
71.0919 10.2124 -0.428093
83.2063 -9.22177 -0.659502
84.0759 5.62487 -1.03518
84.083 5.66829 -1.03832
84.0455 5.73211 -1.03777
84.0145 5.79906 -1.0382
83.9835 5.866 -1.03863
83.9308 5.92286 -1.03713
83.9084 5.99364 -1.03853
83.8743 6.06002 -1.03798
83.8837 6.10514 -1.04111
83.8538 6.17294 -1.04154
83.8304 6.24386 -1.04295
83.8091 6.3155 -1.04435
89.5837 17.8743 -2.02294
54.4484 13.8829 -0.892604
82.8866 5.3722 -1.0711
82.8463 5.43036 -1.07054
82.8438 5.50642 -1.07387
82.7635 5.54595 -1.06943
82.747 5.61591 -1.0708
82.6883 5.66553 -1.0683
82.6248 5.67343 -1.06365
66.4747 13.591 -0.794129
81.6 5.0605 -1.09027
81.5785 5.12308 -1.09163
81.5583 5.18751 -1.093
70.5386 4.29166 -0.205525
52.3588 5.59055 -0.559986
69.7672 4.46416 -0.240101
73.9728 12.2603 -1.16509
72.1551 11.3935 -0.990631
61.0198 5.21362 -0.111019
54.785 6.14572 -0.509107
79.0065 0.152324 -0.891086
79.4496 4.08115 -1.10202
79.4383 4.10897 -1.10219
79.4058 4.15796 -1.10155
61.0111 5.16316 -0.166857
75.6104 7.04016 -1.06042
62.1064 5.04288 -0.241875
72.5137 -13.3643 -0.664064
74.7586 6.23434 -1.09638
62.1462 5.05129 -0.288711
52.2303 6.92943 -1.11814
75.956 3.8653 -1.13664
74.1494 5.75516 -1.10346
74.2249 5.88286 -1.12261
55.2836 10.4815 -1.37845
73.7485 5.42242 -1.13311
62.1104 5.07201 -0.417978
62.0846 5.03222 -0.411944
62.1145 5.05616 -0.456893
73.8097 -7.6066 -0.726236
56.2616 7.87371 -1.38783
56.2268 7.84831 -1.3869
71.9527 -8.78798 -0.85369
67.0607 5.02746 -1.244
67.0508 5.04298 -1.24612
65.9716 0.985124 -1.02784
65.8729 -8.41571 -0.929693
65.2252 -3.91693 -0.189415
61.746 -2.48178 0.0802547
61.7035 -2.48293 0.0710461
61.457 -5.34634 0.096581
61.9014 -2.77378 0.191236
123.811 -19.7465 -25.9533
123.838 -19.5494 -25.9439
61.9573 -2.75035 0.175419
61.9897 -2.8204 0.209871
61.9726 -2.79887 0.196696
46.7334 -2.92945 -6.36428
46.7264 -2.97996 -6.36611
46.7519 -3.00671 -6.35387
46.72 -3.0548 -6.36683
46.66 -3.10202 -6.39194
61.9235 -2.76184 0.155297
61.8351 -2.6104 0.0732296
61.9159 -2.75877 0.151246
61.9084 -2.7547 0.148192
61.8768 -2.71401 0.124866
61.8398 -2.66248 0.0954677
61.7952 -2.59982 0.0599861
61.8187 -2.64745 0.0843002
61.8144 -2.64987 0.0842881
61.8278 -2.67594 0.097463
61.8077 -2.65399 0.0842718
61.6472 -2.41386 -0.0495225
61.8678 -2.86301 0.181434
61.7833 -2.81194 0.1388
61.4896 -5.30362 0.0425673
63.9858 -5.29785 -0.0129469
63.9762 -5.27931 -0.00407084
63.9513 -5.24748 0.0146738
63.969 -5.21461 0.0186275
0 0 1.15033e-41
