ply
format ascii 1.0
element vertex 482
property float x
property float y
property float z
end_header
165.074 -7.73231 4.01203
148.508 -0.0681417 3.35303
136.662 -0.761829 2.95963
94.9234 5.09111 1.64664
105.162 20.66 2.05473
105.232 20.9462 2.06064
94.5525 15.2936 1.7965
91.3513 9.8065 1.66243
81.3166 47.4652 2.36534
79.1489 48.2416 2.38681
78.6057 46.2731 2.35089
77.9627 45.9815 2.34794
77.7847 46.0293 2.34922
55.264 15.3253 2.23851
50.3632 13.3435 2.36795
38.0305 16.9903 2.73839
35.495 16.3391 2.81424
39.2116 13.881 2.70114
38.5737 13.9062 2.72066
21.3336 18.347 3.2488
27.1151 15.8308 3.07293
28.7828 14.0488 3.02476
17.2427 13.7171 3.39332
9.18699 14.4959 3.64864
20.6003 -8.36126 3.49111
20.721 -8.56249 3.49002
25.1748 -9.32036 3.35172
25.4627 -10.3477 3.35848
23.7898 -11.3098 3.42994
23.8411 -11.501 3.43169
43.3156 -10.8027 2.76638
43.2968 -10.8707 2.76835
48.8134 -11.3756 2.59263
53.6875 -12.0353 2.443
53.8899 -13.0736 2.4569
53.4156 -13.2668 2.47658
53.8606 -13.2845 2.46192
42.592 -15.5307 2.88095
42.4632 -15.696 2.88829
42.7317 -15.7821 2.88158
33.785 -17.9214 3.22152
40.6627 -20.915 3.0657
40.8109 -21.0222 3.06326
22.44 -27.3733 3.80773
26.4162 -27.2289 3.67742
55.1385 -21.1698 2.61609
55.032 -21.3343 2.62443
54.0461 -22.4578 2.68633
54.3451 -22.6766 2.68352
54.4231 -22.7595 2.68372
54.4202 -22.8217 2.68561
48.0457 -26.3334 2.9807
48.074 -26.4667 2.98461
48.1103 -27.1213 3.00299
48.871 -28.676 3.0284
49.1193 -28.6845 3.02157
19.694 -50.7196 4.57157
19.5919 -51.0856 4.58579
21.1112 -50.8055 4.53407
68.1376 -20.7742 2.22889
68.21 -20.8048 2.22735
68.1762 -20.9201 2.23299
68.331 -20.8838 2.2275
69.0591 -20.5978 2.19854
68.962 -20.8514 2.21016
69.2211 -20.7221 2.19835
68.4464 -21.782 2.25639
128.658 -69.8519 4.77556
128.617 -69.5824 4.7637
128.885 -69.5512 4.7673
129.476 -69.9762 4.7975
128.773 -68.5658 4.72416
129.077 -68.5851 4.7305
144.134 -29.7459 3.75717
146.574 -30.4608 3.85289
148.036 -21.3385 3.68053
147.982 -21.2228 3.67687
148 -21.0203 3.67297
148.054 -20.8259 3.6702
147.984 -20.6049 3.66302
148.035 -20.4101 3.66124
148.07 -20.2121 3.65841
148.085 -20.0102 3.65452
164.758 -7.97106 3.50134
165.003 -7.84854 3.50663
158.434 -5.38549 3.29007
122.208 11.3965 2.16867
122.171 11.524 2.16684
89.3758 60.6422 2.1912
79.008 48.465 2.03555
78.6554 45.6568 2.00068
78.2621 45.4435 1.99866
78.1676 44.9053 1.99235
78.0037 44.8824 1.99265
28.8688 16.7658 2.62783
15.2383 -11.9074 3.28083
15.1274 -12.0257 3.28551
23.8049 -24.5386 3.28935
24.6558 -38.2296 3.60159
83.4855 -20.7863 1.86499
146.364 -21.4473 3.23072
146.387 -21.2507 3.22691
146.396 -21.0509 3.22305
146.435 -20.8584 3.2203
146.362 -20.742 3.21662
146.395 -20.5488 3.21286
146.425 -20.3541 3.21008
146.446 -20.1581 3.20628
139.018 9.77163 2.3422
141.525 21.1972 2.33108
94.7803 15.2086 1.52873
91.3396 10.0034 1.46359
84.3291 66.5726 1.91828
79.567 44.051 1.73383
78.2533 46.5467 1.75784
78.2066 45.0184 1.74571
78.0329 45.0606 1.74608
32.262 -18.3065 2.67969
134.363 -38.8983 3.08627
158.477 -19.799 3.17745
115.03 2.11623 1.63811
121.513 6.11741 1.69508
143.197 19.5394 1.89109
122.007 11.4454 1.65888
94.666 14.508 1.34372
90.8887 9.11234 1.32325
80.766 47.3367 1.34497
79.4752 45.7206 1.34486
78.0146 45.8981 1.34704
77.6975 47.5522 1.34929
22.5779 -27.6067 2.57897
152.289 -22.0522 2.56146
150.911 -21.1002 2.52356
150.79 -19.5788 2.49575
158.406 -19.8363 2.61592
162.603 13.5351 1.8188
162.477 13.7612 1.81454
162.501 14.0276 1.81173
121.558 6.11725 1.49907
98.3018 12.2618 1.25257
94.618 13.8625 1.22594
94.6347 14.2673 1.22415
95.395 16.4525 1.216
83.5319 66.705 0.981135
79.8521 47.7782 1.06344
79.6952 47.6067 1.06387
78.2074 45.0906 1.07661
78.0485 45.0326 1.07641
77.8424 45.2996 1.07555
47.1612 -18.9043 1.85703
150.781 -21.9207 2.19325
161.94 -20.0558 2.27571
162.519 13.4259 1.26329
162.451 13.6671 1.25983
162.51 13.9435 1.25688
142.955 19.9257 1.11544
94.77 14.6163 1.05716
94.6741 14.5815 1.05664
88.6267 62.4061 0.516625
87.2853 61.4229 0.526447
87.1749 61.3438 0.527558
83.3207 46.5856 0.692151
80.5983 44.8006 0.711187
78.2239 44.0112 0.721034
78.1021 43.7115 0.724302
147.947 -21.9641 1.71827
147.96 -21.7599 1.71535
147.961 -21.5529 1.71239
149.651 -21.4106 1.71568
162.637 13.4987 0.887237
162.493 13.7194 0.884048
158.281 25.6642 0.712183
157.951 25.7894 0.710326
105.903 21.9091 0.823859
98.1986 14.1415 0.950609
81.2549 45.725 0.45105
81.0868 45.7361 0.45086
80.9364 45.5263 0.453835
79.7092 32.4809 0.660414
113.827 -25.6615 1.50961
159.917 -32.2264 1.54351
145.731 -20.6237 1.40062
145.74 -20.427 1.39781
145.727 -20.3252 1.39635
145.721 -20.1253 1.39348
145.708 -19.9245 1.3906
164.851 -6.07098 0.663856
159.022 -4.88073 0.691691
164.165 1.25019 0.560882
162.432 13.7481 0.376574
162.494 13.8948 0.374484
87.2693 59.9356 -0.199335
86.6718 61.8385 -0.241701
86.562 61.7633 -0.239646
84.6424 69.8011 -0.419127
84.4006 69.7844 -0.417933
83.9753 66.7112 -0.350005
83.745 66.613 -0.347642
81.1853 42.9284 0.176054
158.932 -32.2354 1.0524
145.234 -20.961 1.01631
145.216 -20.7585 1.01341
145.217 -20.5616 1.01159
145.235 -20.3682 1.00883
145.282 -20.182 1.00617
145.377 -20.1037 1.00407
145.325 -19.8962 1.00209
146.238 -19.491 0.990458
161.873 -20.1671 0.880143
164.944 -6.62162 0.182709
140.836 -2.44486 0.45428
151.49 3.22036 0.217191
160.352 14.2716 -0.0953716
108.017 44.9871 -0.249293
95.3508 15.9097 0.609707
95.279 15.9442 0.608198
88.4507 59.3268 -0.595431
17.35 -9.24971 0.352887
125.501 -27.3603 0.959133
155.097 -28.9248 0.592206
157.173 -29.0779 0.566796
154.851 -26.3608 0.569443
146.25 -21.3488 0.630025
145.067 -20.9757 0.641455
144.96 -20.7543 0.640264
144.941 -20.5536 0.638387
144.911 -20.3502 0.636468
145.048 -20.184 0.633115
95.5485 15.8909 0.432996
108.151 44.9562 -0.645864
81.5333 44.6514 -0.543624
80.0923 33.5317 -0.155641
79.9782 32.4493 -0.118162
65.368 14.8836 0.344588
134.474 -28.2518 0.48258
134.499 -28.0805 0.481133
134.808 -28.028 0.474439
138.648 -14.0694 -0.000738941
138.877 -11.4668 -0.0369642
139.058 -11.3111 -0.0441605
138.961 -11.1345 -0.0437077
95.1426 15.1243 0.336884
88.3332 50.636 -1.04906
82.6148 67.1145 -1.71518
82.3794 67.1422 -1.71662
82.4423 35.8148 -0.451911
82.473 33.5253 -0.359112
126.085 -27.0288 0.402442
126.173 -26.9132 0.399804
128.041 -26.2677 0.353917
129.998 -24.9946 0.30206
137.037 -19.0554 0.0883528
137.327 -18.2656 0.0740985
137.584 -17.1268 0.0578396
132.397 -8.31343 -0.189383
132.459 -8.16687 -0.19347
132.556 -8.09501 -0.19748
132.687 -7.94923 -0.203543
133.272 -7.20614 -0.233074
133.928 -6.52082 -0.263763
134.106 -6.36563 -0.271952
134.224 -6.20994 -0.278159
134.345 -6.13033 -0.283276
134.429 -5.97474 -0.287488
134.517 -5.81774 -0.29272
134.622 -5.66007 -0.298958
134.693 -5.50262 -0.303199
134.787 -5.3445 -0.308446
134.04 3.0248 -0.438442
134.258 3.15095 -0.447207
134.634 3.39171 -0.464583
116.636 5.0515 0.0462309
83.1474 49.2308 -1.32797
82.5258 33.8394 -0.616625
35.9141 -16.9585 -0.194207
101.023 -20.1525 0.829191
101.067 -20.1063 0.828538
120.367 -25.1522 0.296457
120.483 -25.073 0.293345
120.544 -24.9644 0.291802
120.673 -24.8921 0.287792
120.806 -24.8193 0.283775
127.68 -20.2093 0.0690692
127.752 -20.0852 0.0663058
128.785 -2.66467 -0.44899
128.882 -2.51703 -0.455086
128.961 -2.36895 -0.461191
129.103 -2.28428 -0.467377
129.158 -2.13872 -0.472451
129.226 -1.9909 -0.477555
129.3 -1.84197 -0.483674
129.322 -1.69976 -0.487707
129.487 -1.32654 -0.50102
129.47 -1.04725 -0.505023
129.582 -0.889749 -0.513257
129.68 -0.733199 -0.519481
129.784 -0.575397 -0.526721
130.145 -0.377909 -0.544481
130.216 -0.294291 -0.548665
130.448 2.22772 -0.610739
95.3278 12.5975 0.153082
6.37819 -12.2469 -1.70553
6.43896 -12.4919 -1.701
113.939 -25.2934 0.252235
114.029 -25.2246 0.250268
121.001 -19.9994 0.02177
120.95 -19.792 0.0237905
120.949 -19.6665 0.0229939
120.922 -19.5323 0.0240664
120.977 -18.9905 0.0213192
121.044 -18.8891 0.0178792
121.137 -18.7954 0.0145558
121.223 -18.6986 0.0111863
121.335 -18.6098 0.0069359
121.346 -18.4275 0.0063277
121.316 -18.2948 0.00642184
121.983 -16.7613 -0.0234108
121.995 -16.6418 -0.0241195
121.956 -16.509 -0.024029
122.426 -15.7047 -0.0454567
122.513 -15.6022 -0.0489088
122.407 -15.396 -0.0468812
122.441 -15.2816 -0.0485126
121.378 -11.3158 -0.255525
121.29 -11.0778 -0.253949
121.284 -10.9628 -0.254597
121.254 -10.8463 -0.254272
121.245 -10.7319 -0.254912
121.26 -10.6199 -0.256513
121.259 -10.5622 -0.257339
121.281 -10.4512 -0.259924
121.293 -10.3388 -0.261531
121.308 -10.2258 -0.263146
121.306 -10.1123 -0.263773
121.331 -10.0007 -0.266365
89.4 14.3642 0.00462628
19.9279 -9.00848 -1.61127
22.4261 -10.7243 -1.47821
117.623 -16.6418 -0.0619671
117.787 -16.5797 -0.0688259
118.035 -16.5963 -0.0795414
118.321 -5.37411 -0.386206
118.398 -5.31851 -0.390988
118.445 -5.21126 -0.395515
118.496 -5.10345 -0.400049
118.551 -4.99522 -0.404589
118.621 -4.88616 -0.410137
118.656 -4.77804 -0.413679
118.753 -4.66576 -0.420269
120.033 -2.14244 -0.534165
106.299 8.81119 -0.259629
107.774 10.2262 -0.381619
89.3157 13.6002 -0.0724591
82.7948 66.9186 -3.50052
80.9908 23.3881 -0.703281
28.1421 3.0742 -1.79071
26.6295 -2.38623 -1.75182
114.74 -9.44609 -0.337586
114.741 -9.3543 -0.3379
106.062 6.34798 -0.299408
106.366 8.10753 -0.395554
101.332 4.58968 0.000886837
106.264 8.43925 -0.407325
82.4063 33.1678 -1.58213
80.7978 25.7739 -1.06952
36.5583 0.710783 -1.63223
34.5823 -7.18174 -1.5946
41.8784 -11.6492 -1.12918
100.683 -20.1802 0.345473
101.414 4.69645 -0.114638
106.107 8.29941 -0.531366
41.5022 -9.41167 -1.40732
101.936 -23.3676 0.0943289
102.647 -19.7316 0.153408
89.4312 65.7449 -4.78957
46.6084 -5.43489 -1.41727
101.03 2.90905 -0.22813
95.2165 13.0131 -0.658974
89.6056 63.5654 -4.95835
89.3847 63.6102 -4.96103
84.3164 45.0566 -3.32018
83.9447 43.6942 -3.20073
83.0629 37.6178 -2.66783
94.9891 -20.5386 0.271498
96.3722 8.12669 -0.445761
86.387 53.8156 -4.49131
84.5153 57.4006 -4.83104
105.771 -11.9546 -0.318395
92.6023 11.2281 -0.679921
89.8627 52.9345 -4.76706
87.5983 53.3109 -4.79388
86.3649 53.614 -4.82146
85.9823 53.6305 -4.82278
85.7909 53.6761 -4.82747
85.5035 53.6235 -4.82277
85.3119 53.6469 -4.82514
99.9626 -18.0546 -0.11415
100.012 -18.0203 -0.116632
105.974 -11.1542 -0.452831
84.6947 45.8876 -4.36211
84.1565 43.93 -4.15516
80.8876 40.0757 -3.76356
81.6371 29.7014 -2.65875
94.54 -21.0958 -0.038641
94.7931 -21.191 -0.0572307
94.7625 -21.0521 -0.0472246
93.3875 -20.8135 -0.0649091
102.304 -9.55101 -0.457495
102.301 -9.38794 -0.45783
102.307 -9.33534 -0.458582
102.317 -9.30947 -0.458951
102.316 -9.25573 -0.45972
102.111 -2.28806 -0.600543
102.118 -2.22856 -0.603394
84.9237 43.5789 -4.75205
84.0149 39.1228 -4.22436
94.3488 -19.8969 -0.147857
94.3849 -19.8637 -0.148325
99.9478 2.15763 -0.766635
81.1909 39.628 -4.61218
99.2769 1.81225 -0.78082
99.2488 1.85569 -0.781448
99.2173 1.89658 -0.782039
99.1827 1.93692 -0.781623
81.9483 31.4214 -3.81744
85.8251 -19.1485 0.0618054
98.7011 1.61481 -0.801106
98.5956 1.60487 -0.788983
80.6228 19.5082 -2.57799
80.5805 19.2631 -2.54448
76.8241 3.84715 -0.766287
95.3491 -15.327 -0.412127
97.4465 -4.97873 -0.535909
76.0731 4.98529 -1.14077
76.039 4.95181 -1.13929
76.0012 4.92089 -1.13786
76.0096 4.83195 -1.12558
94.5094 -13.5277 -0.454056
91.7581 2.47543 -0.885777
93.3919 -13.3181 -0.481276
93.3651 -13.2585 -0.472133
89.3794 -15.6503 -0.386646
91.9313 -13.1411 -0.510096
88.9068 -13.8827 -0.368045
91.8442 -3.60436 -0.616677
91.8387 -3.59347 -0.616834
46.8206 -3.26964 -12.7834
46.853 -3.39527 -12.7646
46.8307 -3.51537 -12.7669
47.8736 -3.44986 -13.1857
47.9204 -3.57344 -13.1609
47.6874 -3.6705 -13.2445
47.8937 -3.80903 -13.1595
89.8141 -9.06629 -0.580857
89.8243 -9.03036 -0.579369
87.9721 -7.12192 0.167023
87.9479 -7.11428 0.17591
87.8475 -8.08093 0.174732
149.889 -13.9715 -25.4466
84.183 -8.56369 0.475968
84.6561 -5.97828 0.557048
84.739 -6.01324 0.569566
84.734 -6.01256 0.567555
84.6616 -5.94139 0.506516
84.6744 -5.9713 0.521948
84.6645 -5.9629 0.515825
84.6279 -5.90857 0.485037
84.6032 -5.877 0.466578
84.5522 -5.80359 0.424513
84.5559 -5.82016 0.432752
84.5679 -5.84896 0.447168
84.5667 -5.85685 0.449281
84.5814 -5.88802 0.465732
84.4638 -5.7099 0.365148
84.5971 -6.03086 0.526786
84.5787 -6.06748 0.536308
84.45 -5.90288 0.438916
86.7195 -8.4971 0.368493
86.686 -8.45557 0.392895
86.6808 -8.44261 0.398709
86.7057 -8.4169 0.398345
-43.465 25.3851 -3.0048
