ply
format ascii 1.0
element vertex 401
property float x
property float y
property float z
end_header
180.389 -7.34345 3.69121
137.504 8.74456 2.63495
160.854 32.1618 3.58618
160.73 32.3477 3.58682
160.552 32.4941 3.58579
117.273 10.979 2.27838
100.928 39.7155 3.18982
98.4319 34.7652 3.04569
98.9823 14.5941 2.37031
98.6384 15.6037 2.40793
95.67 14.336 2.40825
90.06 22.2864 2.75553
63.7075 13.5934 3.29249
60.8015 13.1889 3.38817
50.4083 14.9165 3.78777
37.8513 12.2678 4.22215
24.6267 -8.70393 4.63148
27.243 -10.0468 4.52804
26.6201 -10.5326 4.55275
55.2405 -12.9761 3.4266
51.3107 -16.2231 3.59307
40.4583 -20.2335 4.0392
53.5145 -18.4232 3.51926
74.742 -21.7178 2.73849
54.905 -43.3514 3.8047
49.9999 -47.4003 4.04899
65.1911 -41.0893 3.42237
82.0569 -31.4107 2.6801
71.6416 -42.6398 3.26117
71.6782 -43.2313 3.27516
77.9479 -36.8963 2.93633
154.163 -32.6114 3.12898
169.419 -22.9038 3.43188
169.618 -22.8359 3.43672
169.426 -22.5813 3.42973
169.514 -22.1667 3.42909
169.547 -21.9583 3.42883
169.595 -21.7511 3.42849
169.627 -21.5425 3.42824
169.627 -21.4343 3.4272
169.732 -21.2385 3.42954
171.213 17.1393 3.13223
161.677 18.5243 2.96106
162.123 31.9894 3.15301
98.523 33.008 2.71375
50.2502 -13.608 3.28722
42.9482 -15.7792 3.53553
77.1716 -33.9913 2.66177
169.074 -22.7061 2.99477
169.086 -22.6008 2.99466
169.115 -22.3917 2.99443
169.147 -22.1832 2.99417
169.181 -21.9759 2.99391
169.205 -21.7662 2.9927
169.221 -21.5553 2.99254
169.269 -21.35 2.99221
169.281 -21.2447 2.9921
169.385 -21.0486 2.99344
164.428 19.0818 2.70221
99.0291 33.2135 2.5118
79.5693 45.8653 3.01236
129.615 -24.8398 2.07012
129.669 -24.7053 2.06877
175.297 -33.9592 2.85111
167.02 26.2138 2.25905
154.299 21.656 2.131
161.584 31.2254 2.25832
147.387 36.7667 2.22828
99.1979 40.3007 2.28946
98.7104 30.062 2.14166
63.8652 14.0332 2.43743
27.863 15.035 3.15008
161.169 -32.4119 2.14601
161.994 -32.5248 2.15335
179.133 -34.778 2.31353
147.942 39.4907 1.92121
173.83 27.5457 1.35782
158.593 27.1775 1.40269
147.195 35.3699 1.45383
147.97 39.4437 1.45906
148.037 39.8289 1.45955
122.768 18.6603 1.50851
122.317 18.1937 1.50923
100.563 40.301 1.67668
98.1225 14.1907 1.61932
79.6245 -20.5651 1.74129
172.131 -34.0708 1.36715
179.119 -35.0895 1.3497
168.496 -22.9346 1.36411
168.32 -22.6853 1.36403
168.316 -22.4715 1.36398
168.302 -22.3634 1.36402
168.321 -22.1549 1.36385
168.358 -21.9501 1.36357
168.388 -21.7443 1.36332
168.446 -21.5435 1.36293
172.133 26.7026 0.995757
159.549 30.7239 1.07905
148.001 39.8329 1.14575
123.047 19.0486 1.34479
122.315 18.1716 1.35025
122.27 18.2943 1.35046
101.464 35.3536 1.4462
76.7909 46.4933 1.55594
172.81 -34.0272 1.01826
178.565 -33.1591 0.977201
168.801 -22.9675 1.04838
168.771 -22.7468 1.04848
168.565 -22.28 1.04949
168.505 -22.162 1.05079
168.503 -21.9494 1.05074
168.501 -21.737 1.05067
168.553 -21.5344 1.05031
168.603 -21.3315 1.04995
168.997 -20.9769 1.04659
169.621 -20.9764 1.04204
167.834 -15.8706 0.643496
161.434 -4.52999 0.727132
182.254 -1.96982 0.441738
177.575 12.9136 0.477388
158.016 33.3174 0.644905
141.93 23.45 0.887798
148.256 41.308 0.710792
144.329 47.3375 0.713128
79.483 45.2926 1.16501
159.242 -30.4057 0.73729
158.641 -29.689 0.747467
160.497 -29.5528 0.722858
163.364 -27.8396 0.688962
170.815 -22.9945 0.596913
170.76 -22.7641 0.59815
168.786 -22.0583 0.625149
168.823 -21.8514 0.624872
170.973 -21.8149 0.596619
171.041 -21.6076 0.595164
155.137 27.8144 0.315134
149.071 29.2448 0.404193
148.796 29.2568 0.408756
148.109 40.4366 0.305916
148.172 40.8256 0.300427
148.229 41.2103 0.295971
116.337 5.40256 1.16156
130.936 -25.052 0.923654
147.485 -28.7446 0.598663
145.043 -25.323 0.661421
148.222 -22.5964 0.612407
159.225 -6.84068 0.0254755
159.216 -6.75353 0.0254943
145.262 -2.71883 0.385595
145.051 -1.73884 0.387468
139.241 -1.29612 0.537397
138.635 -1.0253 0.551757
150.072 30.284 -0.0498606
147.888 28.6658 0.0201146
149.033 -10.4107 0.0646978
149.548 -9.984 0.0486208
149.676 -9.83895 0.0448469
151.761 -8.02037 -0.0226376
151.947 -7.86069 -0.028751
152.096 -7.70157 -0.0336505
152.281 -7.54076 -0.0397593
147.002 27.1319 -0.232329
146.358 27.0545 -0.213637
143.948 32.3461 -0.25069
143.864 32.5232 -0.25227
103.773 41.4628 0.166987
103.615 41.8316 0.157764
103.453 41.8745 0.157669
103.292 41.8689 0.15859
92.5397 -22.5658 1.14542
130.988 -25.142 0.537379
143.169 -21.0747 0.212658
143.295 -20.9749 0.209908
140.65 -15.0667 0.0989873
140.641 -14.9462 0.0989959
140.626 -14.8833 0.10006
140.739 -14.5401 0.097302
140.804 -14.4293 0.0958961
140.825 -14.3121 0.0947361
140.857 -14.1956 0.0945134
140.905 -14.1419 0.0922262
141.185 -13.5726 0.0844381
141.251 -13.459 0.0820232
141.287 -13.4025 0.0808018
141.868 -11.5098 0.0628611
142.46 -10.3687 0.0411037
142.608 -10.2479 0.0352201
142.747 -10.1885 0.0304083
142.893 -10.0663 0.0245404
142.989 -9.94303 0.0209473
143.099 -9.81856 0.0172839
143.201 -9.69406 0.0136607
143.313 -9.56805 0.00897812
143.421 -9.4423 0.00532463
143.542 -9.37826 0.000611118
143.677 -9.25148 -0.00519889
143.802 -9.12226 -0.00995428
143.902 -8.99436 -0.0135641
144.051 -8.86368 -0.0194592
144.151 -8.7338 -0.0230715
144.273 -8.60217 -0.0278125
144.392 -8.53473 -0.0325127
144.497 -8.40246 -0.0361508
144.654 -8.26784 -0.0430909
144.757 -8.13345 -0.0467256
144.938 -7.99624 -0.053801
145.123 -7.85763 -0.0609011
145.256 -7.72037 -0.0657003
145.36 -7.64977 -0.070318
145.469 -7.51115 -0.0749865
145.56 -7.37389 -0.0785499
145.703 -7.23314 -0.0844107
145.829 -7.0919 -0.0891743
145.982 -6.94865 -0.0950956
146.147 -6.80303 -0.102083
146.253 -6.72861 -0.105711
146.383 -6.58399 -0.111502
146.538 -6.43594 -0.117434
146.654 -6.29013 -0.12214
146.759 -6.14486 -0.126788
146.839 -6.00105 -0.130295
146.945 -5.8538 -0.133945
146.181 -4.89891 -0.108919
146.239 -4.82445 -0.11127
146.229 -4.68865 -0.111262
146.216 -4.55326 -0.111231
146.175 -4.42186 -0.111039
146.116 -4.29196 -0.108748
146.086 -4.1592 -0.108622
145.831 -3.98741 -0.0992289
124.359 7.26669 0.528256
147.311 27.1124 -0.58009
125.489 11.6268 0.40136
104.394 43.0895 -0.193098
104.228 43.0764 -0.19115
104.042 41.708 -0.14563
103.881 41.7468 -0.145726
103.795 41.2935 -0.131086
103.641 42.0286 -0.153456
76.8785 44.6045 -0.279954
82.0712 -20.836 0.874439
127.019 -26.5815 0.454459
128.572 -25.6702 0.420309
138.672 -18.4181 0.152373
138.746 -18.3774 0.149939
138.907 -18.2989 0.144996
139.241 -18.261 0.133082
139.055 -18.0974 0.141081
139.323 -18.0417 0.131537
139.332 -17.9248 0.131447
139.407 -17.8225 0.129987
139.414 -17.764 0.129925
139.461 -17.6555 0.128625
139.367 -17.5155 0.133111
139.565 -17.4394 0.125958
139.651 -17.3387 0.123438
139.733 -17.2367 0.120933
139.851 -17.1418 0.117229
139.939 -17.1001 0.114714
140.013 -16.9947 0.112257
140.119 -16.5362 0.111502
140.167 -16.425 0.110193
140.183 -16.3677 0.11008
140.224 -16.2555 0.108811
140.153 -16.1228 0.112168
140.214 -16.0144 0.110788
140.213 -15.8951 0.110752
140.233 -15.7788 0.110598
140.286 -15.6682 0.109262
140.343 -15.6179 0.107921
140.397 -15.5067 0.106572
140.467 -15.3986 0.104141
140.548 -15.2913 0.101641
140.603 -15.1801 0.100292
142.31 5.21249 -0.318272
149.3 18.7075 -0.836602
125.517 6.06166 0.337062
104.203 39.8901 -0.411944
104.049 39.94 -0.413082
103.894 40.0587 -0.417242
81.6149 33.5626 -0.235217
143.489 7.51134 -0.660761
143.814 7.79934 -0.681704
143.964 8.01572 -0.692636
141.511 7.31237 -0.56543
144.806 9.23843 -0.75384
145.138 9.54762 -0.77483
145.347 9.72305 -0.788082
145.127 10.9924 -0.802254
145.105 11.1452 -0.80418
144.851 12.2548 -0.816107
145.436 14.1065 -0.882057
144.469 16.9155 -0.904494
104.66 46.0412 -0.984618
104.486 46.095 -0.986645
104.399 46.1229 -0.98716
81.7495 30.7106 -0.406031
78.4643 -20.7422 0.452937
128.279 -21.0633 0.156429
136.125 9.9062 -0.594637
139.672 12.1723 -0.826595
121.312 5.9888 0.212024
104.549 46.036 -1.30299
104.374 46.0878 -1.30401
33.3631 -8.56215 -1.5954
128.558 -13.2685 -0.0697739
128.573 -13.2303 -0.070876
128.606 -13.1532 -0.0720871
132.993 -3.14516 -0.373423
133.091 -3.02518 -0.381023
132.756 8.4739 -0.611972
132.527 8.71658 -0.607755
104.572 46.0189 -1.65512
104.399 46.0747 -1.65715
104.225 46.1154 -1.65817
104.05 46.1421 -1.65819
117.146 -20.7241 0.436705
128.525 -13.4255 -0.0695384
128.536 -13.3462 -0.0696254
130.881 6.78603 -0.631733
130.912 6.92196 -0.637955
130.945 7.05958 -0.644191
131.052 7.24402 -0.656861
124.734 8.89855 -0.364439
121.088 5.84458 -0.0486524
104.546 46.076 -1.95499
104.372 46.1258 -1.95602
104.197 46.1595 -1.95704
69.9077 11.0362 -0.727021
121.266 -20.4392 0.119147
128.394 -1.341 -0.448849
129.143 2.48362 -0.599398
129.155 2.58809 -0.603497
128.974 4.59142 -0.655142
128.968 4.69341 -0.65814
128.966 4.79779 -0.661164
128.976 4.85686 -0.664245
128.964 4.95675 -0.667206
128.975 5.06928 -0.671309
128.97 5.17409 -0.674317
128.927 5.25628 -0.675096
128.934 5.3684 -0.679176
118.413 2.11731 0.108825
124.276 7.18363 -0.459263
104.569 46.0348 -2.33912
104.22 46.1294 -2.34316
103.287 9.36354 0.110512
124.375 -3.82502 -0.36213
124.377 -3.75262 -0.364169
124.398 -3.71126 -0.366304
124.413 -3.63551 -0.36941
124.418 -3.56256 -0.371466
125.034 2.27455 -0.601935
125.037 2.36519 -0.605977
125.048 2.46046 -0.610077
125.046 2.54971 -0.614095
125.052 2.64189 -0.618157
98.7943 8.27282 0.0554582
123.712 1.81953 -0.618255
123.719 1.90846 -0.622325
97.4653 10.9939 -0.425896
95.7249 8.70028 -0.268216
95.8105 8.5916 -0.381668
119.135 -7.22869 -0.250156
119.146 -7.17669 -0.252234
119.162 -7.14875 -0.254336
119.174 -7.0959 -0.256421
111.53 7.48411 -0.519793
110.795 8.03833 -0.662801
109.311 6.16724 -0.398716
109.256 6.17325 -0.397407
109.134 6.14867 -0.389705
98.6988 11.0672 -0.815949
97.9823 11.8847 -0.918146
96.7024 5.82195 -0.313817
97.3247 4.54927 -0.254932
109.362 5.68741 -0.631853
103.843 -20.4942 -0.0306461
105.833 -9.50305 0.389351
150.977 -14.7888 -18.6932
150.997 -14.6392 -18.6954
151.007 -14.4891 -18.6935
151.021 -14.3385 -18.6926
151.037 -14.1124 -18.6908
151.056 -13.9626 -18.6929
151.073 -13.8125 -18.6951
151.084 -13.6615 -18.6942
102.551 -8.36742 0.812661
102.596 -8.32758 0.78739
102.624 -8.39626 0.820257
102.557 -8.33098 0.763613
102.555 -8.33775 0.766627
102.552 -8.34029 0.766647
102.519 -8.29605 0.74182
104.601 -10.7927 0.615801
104.654 -10.7823 0.600496
104.598 -10.8742 0.571845
104.572 -10.8441 0.590982
104.542 -10.8063 0.613139
104.685 -10.8942 0.535351
2.23396e-39 0 2.35972e-40
