ply
format ascii 1.0
element vertex 273
property float x
property float y
property float z
end_header
173.798 -6.63296 3.9396
173.19 -6.15027 3.91637
167.257 -4.82625 3.71617
150.978 17.8991 3.18405
141.354 22.1684 2.94811
141.086 22.3089 2.94234
150.138 34.8739 3.30969
99.496 15.6787 2.01427
95.2317 4.76513 1.73256
90.4973 30.7133 2.38993
77.1599 47.6032 2.91378
76.6801 46.0938 2.88414
80.8958 23.02 2.30099
80.8596 22.8332 2.29773
79.8714 15.7483 2.16388
79.8374 15.6349 2.16196
79.6095 13.8973 2.13191
79.4351 12.7593 2.11441
78.8221 8.40652 2.05245
78.828 8.34713 2.05097
67.1219 13.5921 2.43607
64.3691 13.9436 2.51787
51.3569 13.8791 2.91482
50.8572 13.9663 2.93094
50.2571 14.101 2.95081
44.2061 16.3115 3.15891
36.2213 16.933 3.42169
25.025 18.5168 3.79763
18.8049 15.2164 4.00034
18.6762 15.1264 4.00437
16.0955 -7.99238 4.18185
19.1404 -8.83225 4.0809
18.4533 -9.07416 4.1083
28.1081 -10.7498 3.78095
42.909 -11.266 3.25897
49.5382 -11.0322 3.02097
49.1135 -11.9823 3.04724
53.2307 -13.4723 2.91917
54.5917 -14.5707 2.88655
54.5424 -14.7062 2.88986
50.8614 -15.7137 3.03448
51.1483 -16.5717 3.03664
27.8303 -24.0686 3.97061
41.8444 -21.1869 3.43565
27.5258 -25.6968 4.00873
55.2875 -20.8643 2.96762
25.8337 -33.694 4.21933
54.7799 -24.1753 3.05215
79.1181 -21.8013 2.23419
141.838 -56.9639 4.05628
136.605 -47.7444 3.63817
167.718 -30.757 4.07336
167.773 -30.5214 4.07015
158.115 -21.5275 3.615
158.152 -21.3257 3.61313
158.147 -21.116 3.61026
158.174 -20.9129 3.60739
158.161 -20.806 3.60546
122.546 10.9124 2.12455
109.725 36.3855 2.27866
98.9516 15.7291 1.85579
95.2914 4.78025 1.64831
22.9752 18.2656 3.38354
19.8238 -18.0134 3.6848
50.9736 -15.7986 2.75303
51.1825 -15.9723 2.74921
46.8312 -17.0436 2.88961
52.6971 -24.6704 2.84931
46.4359 -28.2576 3.08966
158.38 -32.4027 3.38781
168.751 -32.4736 3.63984
156.281 -21.0298 3.14782
156.324 -20.836 3.14601
156.343 -20.6367 3.14419
156.375 -20.4403 3.14238
156.38 -20.34 3.14047
156.412 -20.1435 3.13865
156.466 -19.9511 3.13784
94.817 39.5283 2.0663
93.672 29.7267 1.93204
156.259 -21.084 2.85033
156.282 -20.8854 2.84751
156.293 -20.685 2.8457
156.304 -20.4846 2.84289
160.805 -16.2484 2.37489
163.957 15.532 2.18688
163.687 27.1981 2.14899
140.267 24.0365 1.88831
109.881 34.677 1.68764
109.703 34.608 1.68658
92.8398 31.228 1.65509
87.7116 12.8749 1.56349
160.979 -22.4144 2.44775
162.625 -22.5364 2.47088
172.33 -23.396 2.60816
157.39 -19.8047 2.36984
166.363 -20.4923 2.49589
168.759 -20.6544 2.53004
140.345 24.0956 1.60063
141.356 24.9186 1.60445
107.705 45.1296 1.45802
107.542 45.1947 1.45773
97.6615 13.8416 1.42598
93.8465 39.7604 1.45994
93.1531 40.333 1.46206
92.5968 38.673 1.46091
76.8134 33.8352 1.51853
76.6339 33.8946 1.51932
123.464 -23.7179 1.82172
168.576 -20.7223 2.14196
160.703 -16.2829 1.56535
139.186 9.34163 1.3157
166.499 25.3381 1.22255
166.068 25.4125 1.22166
117.185 56.7628 0.996904
116.964 56.7896 0.99606
105.557 45.6951 1.0728
105.393 45.7554 1.07256
72.0498 52.4839 1.10221
71.8657 52.3945 1.10334
49.5968 -20.2877 1.73462
123.252 -23.8439 1.59322
155.82 -20.8695 1.60215
155.899 -20.2818 1.59675
156.059 -20.2114 1.59583
152.773 2.31557 1.10916
166.778 24.5474 0.854106
159.003 30.935 0.816911
145.878 27.957 0.887118
146.047 28.3201 0.882566
121.805 13.0313 1.10688
116.951 56.848 0.670548
105.566 45.8046 0.811795
105.394 45.8357 0.811825
72.2581 52.7255 0.794662
72.2161 52.5406 0.796392
124.129 -23.7852 1.43411
123.981 -23.5909 1.43364
156.894 -19.7371 1.29308
174.164 -7.82536 0.622474
173.408 -7.58229 0.627656
172.875 -0.139956 0.563024
168.165 14.055 0.458473
166.741 24.1703 0.353525
163.432 24.6678 0.377015
163.129 24.7899 0.377466
155.73 26.7887 0.417867
143.034 20.05 0.613956
150.616 28.3746 0.440858
150.512 28.5599 0.439388
136.547 20.4661 0.663879
120.833 12.2727 0.9034
105.414 45.7569 0.461479
105.251 45.8212 0.461198
72.6281 51.8351 0.397948
72.6505 51.1797 0.407772
123.301 -23.8873 1.22851
155.473 -21.3322 0.913882
155.446 -21.1255 0.912081
155.436 -21.0232 0.912183
155.453 -20.8256 0.910385
155.464 -20.6273 0.90859
155.504 -20.4359 0.906807
155.551 -20.2446 0.905011
155.637 -20.0608 0.903211
156.884 -19.789 0.888541
147.997 -2.96254 0.497932
117.567 5.13158 0.860152
117.469 5.1726 0.860961
105.716 45.6924 0.121501
74.2078 46.9958 0.116397
72.3599 51.5287 0.0101542
73.1578 48.7801 0.0743157
80.9552 23.2269 0.661967
123.481 -23.8043 1.02243
123.747 -23.5902 1.01804
123.824 -23.512 1.0172
150.968 -30.565 0.643563
152.095 -30.2735 0.62593
155.225 -20.9305 0.530717
155.234 -20.7329 0.528932
155.352 -20.5565 0.526143
156.614 -20.5009 0.50638
156.655 -20.3058 0.50456
156.663 -20.104 0.502739
156.676 -19.6999 0.500101
159.415 -7.42184 -0.0926915
157.06 -6.46788 -0.0479963
139.844 6.25425 0.182091
142.613 18.2909 -0.0845795
79.1795 31.121 0.188506
148.248 -22.2301 0.257856
143.708 -13.6357 0.0601047
159.398 15.4361 -0.740194
159.403 15.6715 -0.745311
96.829 13.6609 0.619057
92.531 9.70835 0.768141
77.4422 32.3309 -0.0822115
80.3093 18.9211 0.382638
124.697 -24.0238 0.591194
124.985 -24.0491 0.584902
147.455 6.23064 -0.594391
151.259 14.8859 -0.883669
124.257 7.09723 0.124527
120.816 5.64812 0.262674
102.349 -24.0014 0.962124
124.596 -23.9742 0.390923
134.256 -19.1837 0.0967103
132.13 -10.906 -0.112543
124.987 4.08229 -0.0488165
118.577 5.1636 0.158024
130.997 4.03508 -0.506202
117.394 1.07289 0.157747
123.962 5.1873 -0.231871
122.446 -20.7186 0.0876422
117.485 1.1315 0.00805282
105.149 -24.3929 0.549583
107.395 -21.3403 0.563241
125.253 1.55302 -0.591687
112.854 3.19507 0.017903
95.364 4.72651 0.533618
118.891 -16.0723 -0.0395521
118.936 -16.0009 -0.0422722
118.967 -15.9255 -0.0430026
119.023 -15.8566 -0.0457197
119.079 -15.7887 -0.0484275
119.29 -15.2963 -0.0572127
119.302 -15.2151 -0.0569598
110.383 1.99141 0.0851113
114.267 8.44332 -0.410606
88.9017 12.4961 -0.112322
115.022 7.79566 -0.601175
112.763 6.32921 -0.398992
112.768 6.02171 -0.499253
104.722 -22.5672 0.0879966
113.577 -6.58692 -0.32989
105.567 10.3342 -0.807923
77.9421 11.439 -1.10823
102.132 7.03415 -0.463219
100.034 -21.7429 0.0740363
97.9705 7.75747 -0.489221
105.316 -13.1278 -0.214536
91.2878 -18.1882 -0.0750737
96.0457 1.89548 -0.804332
96.0103 1.88833 -0.801205
99.8184 -12.3162 -0.302933
96.7361 -8.28089 0.273521
96.7305 -8.25585 0.275307
93.209 -6.84591 0.545025
92.9464 -9.74834 0.577465
93.4049 -7.13477 0.664262
93.3139 -7.28028 0.695729
93.4736 -7.12729 0.656072
93.4834 -7.16585 0.6734
93.344 -6.97785 0.549963
93.439 -7.14381 0.638281
93.4353 -7.14129 0.636265
93.4154 -7.11744 0.622086
93.3887 -7.08459 0.60284
93.3514 -7.0332 0.573446
93.3024 -6.9651 0.534923
93.3312 -7.01935 0.563358
93.3201 -7.0118 0.55731
93.3376 -7.04538 0.57558
93.3201 -7.02589 0.563436
93.1563 -6.78206 0.427543
93.2738 -7.07587 0.571967
93.385 -7.24104 0.664249
93.2968 -7.18569 0.61991
95.5234 -9.696 0.449366
95.4667 -9.63217 0.488898
95.4734 -9.63516 0.484912
21.7918 2.16926e-39 0
