ply
format ascii 1.0
element vertex 573
property float x
property float y
property float z
end_header
133.77 -2.21109 3.52391
133.906 -1.96201 3.52881
134.69 -0.823001 3.56101
134.563 -0.575206 3.55779
115.031 2.22429 2.90495
123.142 7.17953 3.21722
122.235 8.45268 3.19715
105.961 23.7414 2.88207
107.217 27.1874 2.98829
109.052 29.3945 3.08757
109.117 29.6655 3.09551
113.019 32.1467 3.2616
52.9201 15.2929 1.50575
44.5044 17.0576 1.65014
44.4954 16.9216 1.64568
41.7898 16.5812 1.68037
41.6325 16.5486 1.68219
36.8862 17.188 1.79833
35.8338 17.1861 1.82188
35.0001 15.2843 1.79007
26.9417 14.6142 1.98736
16.726 20.2205 2.39501
7.79156 21.177 2.67445
7.31108 21.2353 2.68944
16.5169 14.7552 2.29538
10.3465 16.3493 2.51116
0.891519 16.2354 2.80274
0.644616 16.1313 2.80928
0.94031 14.2338 2.77297
0.664701 13.8531 2.77656
-5.3785 14.3902 2.9768
-5.21507 13.9343 2.96532
-5.60796 13.8395 2.97683
15.8571 -9.02064 2.11945
20.4271 -9.04213 1.96932
24.1481 -16.1635 1.89375
24.6066 -16.4771 1.88289
25.2845 -16.3999 1.86144
25.4513 -16.7172 1.86043
25.4127 -16.8474 1.86297
-6.07576 -34.4646 3.00777
12.2198 -25.3716 2.35543
12.4073 -25.4435 2.35126
7.8866 -28.3985 2.52131
10.2162 -28.6114 2.45558
10.4278 -28.6763 2.45045
10.7294 -29.4359 2.452
27.0262 -19.7512 1.85081
32.5556 -17.4561 1.66196
33.1162 -17.5346 1.64693
43.5081 -11.6653 1.27028
37.1697 -17.1426 1.53199
45.3309 -11.9577 1.22906
48.9641 -12.7124 1.16905
87.0673 -21.616 2.02612
122.141 -40.3129 3.32168
129.296 -30.5189 3.43996
129.357 -30.2767 3.43981
117.476 -19.7696 2.98038
117.517 -19.5701 2.98007
117.52 -19.3609 2.97978
117.536 -19.1553 2.97849
117.556 -18.9501 2.97819
117.53 -18.8391 2.97756
117.587 -18.6446 2.97824
117.609 -18.4407 2.97794
117.627 -18.2365 2.97764
117.654 -18.0352 2.97734
117.887 -17.881 2.98496
134.154 -1.31825 3.0371
134.16 -1.06907 3.03894
120.078 6.42859 2.68936
123.667 7.16945 2.79341
123.631 9.38122 2.8099
107.603 9.07692 2.36902
107.294 9.17923 2.36123
106.098 9.49591 2.3328
103.567 12.4236 2.29565
90.8627 11.4553 1.94994
108.338 27.9769 2.64545
108.396 28.2357 2.65135
109.008 29.0516 2.68038
77.9618 11.9509 1.63611
77.8189 11.9608 1.63308
-3.85436 -17.5504 2.40909
-3.60302 -17.6838 2.40275
-3.49491 -17.7538 2.40056
100.314 -23.7993 2.14038
129.069 -31.6146 2.93815
129.518 -30.7155 2.94439
129.472 -30.4325 2.94133
123.654 -27.1962 2.76882
124.009 -27.0775 2.77838
126.638 -27.7398 2.85125
127.129 -27.6564 2.86375
127.914 -27.6685 2.88404
129.545 -28.0883 2.93031
117.072 -19.5329 2.55801
117.104 -19.3324 2.5577
117.13 -19.13 2.5574
117.149 -18.9268 2.5571
117.176 -18.7255 2.55779
117.203 -18.5244 2.55748
117.221 -18.2173 2.55753
117.245 -18.0156 2.55723
117.34 -17.8321 2.55889
118.655 -17.7213 2.59483
129.532 -18.8776 2.89355
132.5 5.94391 2.66202
131.578 6.20308 2.64251
122.972 8.4372 2.45941
104.242 12.7527 2.07405
90.7511 11.4175 1.76376
107.343 28.0012 2.3351
107.412 28.2657 2.34003
107.47 28.5235 2.34593
77.8322 11.9061 1.5029
-0.158679 20.7424 2.24357
126.23 -27.1561 2.48306
121.902 -20.4215 2.36505
120.535 0.99202 1.86111
107.315 28.0679 1.87432
107.42 28.2431 1.87696
107.5 28.5143 1.88191
77.8792 11.9594 1.2971
84.019 -18.1392 1.27861
84.0611 -18.0447 1.27895
104.644 -21.0195 1.58365
104.74 -20.8774 1.58517
123.308 -27.1709 1.86976
124.198 -27.2403 1.8829
128.462 -27.6988 1.94717
121.757 -20.5305 1.83962
121.903 -20.456 1.84193
123.465 -20.6333 1.865
116.904 -17.9136 1.76442
132.227 -21.4679 1.99891
118.38 -17.7424 1.78764
88.7669 9.56729 1.24063
109.097 29.2559 1.58911
109.155 29.5227 1.59104
109.247 29.8105 1.59505
77.7718 11.9633 1.15606
101.796 -24.0158 1.28627
106.283 -24.5829 1.33026
111.423 -25.3902 1.38072
104.522 -20.8843 1.31206
104.801 3.40352 1.01957
109.105 29.2049 1.14993
109.192 29.4883 1.15093
109.322 29.7995 1.15304
83.3614 -18.159 0.880263
116.428 -26.2022 0.973098
104.4 -21.1379 0.944142
116.557 -19.618 0.989489
116.689 -18.928 0.991886
116.719 -18.7282 0.992577
116.745 -18.5289 0.993264
116.758 -18.326 0.993958
116.747 -18.2198 0.993314
118.271 -17.7533 1.00055
88.9445 13.1536 0.828871
109.202 29.5234 0.853054
109.317 29.8264 0.854131
61.1973 11.9298 0.845871
38.7641 -3.22816 0.78487
38.6284 -3.28165 0.78463
84.2628 -17.8918 0.729554
102.822 -24.1346 0.685301
104.671 -20.8697 0.697166
116.551 -19.59 0.68958
116.381 -19.0274 0.691416
116.392 -18.8242 0.69211
116.416 -18.6247 0.692797
116.461 -18.4307 0.693474
116.533 -18.2432 0.694141
116.528 -18.1388 0.694493
116.967 -17.8342 0.695714
118.773 -17.6288 0.694182
132.979 -18.9433 0.673789
134.889 -1.72447 0.225015
134.898 -1.47368 0.225869
77.2738 10.1257 0.666615
107.818 28.3028 0.46132
109.091 29.1718 0.452811
108.819 29.2402 0.454927
108.829 29.4759 0.454731
68.7833 9.81883 0.717948
66.9743 -19.468 0.605823
105.731 -20.9241 0.353432
116.834 -19.7158 0.281272
117.466 -19.6753 0.277679
117.224 -19.401 0.280506
116.861 -17.9605 0.291238
118.024 -17.7177 0.283558
118.758 -17.6778 0.279007
134.679 -2.14799 -0.264514
114.699 1.10187 0.0169797
112.312 1.66075 0.0498566
87.6509 10.5672 0.380542
107.668 28.1607 0.0857712
107.596 28.342 0.0863558
108.589 29.1627 0.0715637
77.9167 12.0492 0.492413
12.7914 -3.76579 0.205952
100.803 -21.209 0.0833599
101.953 -21.4925 0.0658889
104.393 -19.5454 0.0505357
103.498 -19.0783 0.0657385
112.357 -19.4303 -0.0516733
111.631 1.20445 -0.336985
101.53 4.16335 -0.128259
99.2143 4.37756 -0.0815206
99.311 4.60933 -0.0826932
107.365 27.925 -0.33316
107.438 28.191 -0.336226
107.54 28.4755 -0.340218
1.06561 16.0086 -0.339977
84.9319 -18.2296 0.0726894
104.493 -18.3262 -0.302287
106.755 -17.2579 -0.336697
116.668 -19.7728 -0.554997
107.908 -15.5351 -0.344361
110.32 -14.9159 -0.388231
110.579 -14.7892 -0.39269
110.706 -14.6327 -0.394105
108.501 -13.0366 -0.337632
105.58 -7.51054 -0.504134
105.582 -7.34955 -0.502587
105.668 -7.0358 -0.503486
105.688 -6.87717 -0.502939
105.761 -6.72205 -0.504381
105.829 -6.16518 -0.502463
105.862 -6.00606 -0.502909
105.839 -5.84493 -0.501373
105.686 -5.67653 -0.496867
107.257 27.8046 -0.641616
107.52 28.5194 -0.654079
77.9473 12.0686 0.15849
70.5923 13.9964 0.27689
68.0005 16.3096 0.278631
86.68 -20.5116 -0.175307
86.9472 -20.398 -0.178807
97.6908 -17.2403 -0.389509
99.7878 -16.0805 -0.427679
99.6689 -14.9096 -0.412758
97.7102 -8.32848 -0.564269
97.7986 -8.20251 -0.565804
97.8966 -7.32689 -0.562792
97.9563 -7.19632 -0.563324
98.0042 -7.06425 -0.564855
98.049 -6.93181 -0.565387
98.0889 -6.79874 -0.565918
98.0845 -6.72966 -0.564686
98.0905 -6.59335 -0.564221
98.1214 -6.46015 -0.564756
98.1415 -6.3246 -0.564287
98.1754 -6.19078 -0.564819
98.2074 -6.05672 -0.56435
98.2885 -5.92479 -0.566868
98.3629 -5.86158 -0.568622
98.3871 -5.72553 -0.56915
98.4231 -5.59097 -0.568678
98.4493 -5.45517 -0.569206
99.4975 -3.97119 -0.595725
99.6941 -3.83462 -0.601178
99.8364 -3.69628 -0.604648
99.986 -3.55682 -0.609111
100.793 -3.06151 -0.633086
101.021 -2.91775 -0.639501
101.202 -2.77125 -0.644926
101.367 -2.62461 -0.649359
101.571 -2.47687 -0.65577
102.499 -1.9423 -0.683561
102.624 -1.78968 -0.68699
102.802 -1.63461 -0.692388
103.659 -1.07309 -0.718117
103.695 -0.918316 -0.718577
104.093 -0.591334 -0.730298
104.298 -0.425613 -0.736648
104.594 -0.0969613 -0.745406
105.094 0.0116666 -0.761825
93.1038 0.312782 -0.382921
87.4496 10.6017 -0.253431
87.4634 10.728 -0.254996
107.552 28.4914 -1.01816
77.9419 12.0255 -0.0036592
55.3838 19.7642 0.162961
55.3124 19.7974 0.162044
81.6064 -19.6934 -0.235698
81.6705 -19.6167 -0.236411
81.7674 -19.5594 -0.238175
81.8492 -19.4941 -0.238918
95.3637 -13.0378 -0.534247
95.4398 -12.9213 -0.535819
93.0814 -11.3977 -0.446657
95.8354 -11.6659 -0.534391
95.8587 -11.5368 -0.533943
97.0423 -10.1384 -0.557694
97.0551 -10.0049 -0.557236
97.134 -9.88178 -0.557785
97.1568 -9.74859 -0.557323
97.2328 -9.62509 -0.558872
97.2576 -9.49215 -0.55841
97.3051 -9.36305 -0.558952
97.3233 -9.29782 -0.559723
97.3263 -9.16213 -0.558261
97.3698 -9.03254 -0.558803
97.3885 -8.89984 -0.558345
97.3984 -8.76502 -0.557883
97.4102 -8.63045 -0.556422
97.4825 -8.50448 -0.557964
97.5813 -8.44835 -0.560731
92.0819 -7.60984 -0.627235
92.1716 -7.56164 -0.631033
93.3421 -3.63687 -0.651219
93.468 -3.51762 -0.655761
93.6595 -3.39753 -0.662272
93.7714 -3.27653 -0.666814
93.8865 -3.15492 -0.670352
94.0007 -3.03218 -0.674887
94.0958 -2.90907 -0.677429
94.2094 -2.84674 -0.682169
94.3006 -2.72313 -0.684711
94.4312 -2.59743 -0.689228
94.5236 -2.47195 -0.692763
94.6898 -2.34466 -0.698261
94.8258 -2.2166 -0.703768
97.2749 0.0369209 -0.793078
97.5796 8.28346 -0.828973
95.4775 7.99707 -0.749842
95.1999 8.05813 -0.740753
87.6199 10.69 -0.49106
87.339 10.692 -0.481173
58.0992 11.2245 0.301152
55.4281 19.7874 0.0130581
55.3565 19.7954 0.0120547
55.2858 19.8264 0.0111299
51.4019 15.6113 0.145173
51.4115 15.2463 0.157939
78.7338 -15.6052 -0.255056
88.0428 -12.154 -0.525375
91.6758 -8.79649 -0.622434
91.717 -8.68476 -0.623037
91.7505 -8.57103 -0.623637
91.7641 -8.45482 -0.623237
91.7548 -8.33575 -0.621837
91.7533 -8.27609 -0.620636
91.7776 -8.16224 -0.621239
91.8071 -8.04802 -0.620839
91.8465 -7.93505 -0.621439
91.8462 -7.8171 -0.620039
91.9541 -7.71272 -0.623639
90.8799 6.45949 -0.792021
87.1218 10.207 -0.674912
89.2794 16.4443 -0.860833
89.9776 17.1317 -0.900203
77.8941 11.9259 -0.34402
65.0808 13.8242 0.000950775
51.4273 15.1317 0.0525563
-5.07983 16.6464 -1.95245
-13.7175 -1.76124 -2.26358
90.5505 2.33896 -0.961141
89.4154 5.95362 -0.929363
89.3679 6.05734 -0.928032
89.3527 6.16911 -0.928659
89.3144 6.21726 -0.927512
51.4637 15.2445 -0.0590464
0.248813 -6.00086 -1.967
18.6257 -15.0437 -1.16082
49.1554 -18.208 -0.0535152
82.4016 -5.2661 -0.740419
82.4303 -5.18202 -0.741121
82.4581 -5.09682 -0.74182
82.4769 -5.01149 -0.742523
82.5008 -4.9258 -0.743222
82.5172 -4.88351 -0.744071
82.529 -4.79731 -0.743774
82.5569 -4.71211 -0.745473
82.5677 -4.62579 -0.745176
82.5847 -4.53923 -0.745875
82.5795 -4.45191 -0.744581
82.5954 -4.36521 -0.74528
82.6213 -4.27977 -0.745979
82.6187 -4.23611 -0.745832
82.6407 -4.14917 -0.746528
82.6486 -4.06248 -0.74623
82.6736 -3.97591 -0.746926
82.6785 -3.88884 -0.746628
82.6964 -3.8024 -0.747327
82.7204 -3.71571 -0.748023
82.742 -3.67206 -0.749866
82.758 -3.58537 -0.749565
82.773 -3.49756 -0.750261
82.81 -3.4115 -0.751953
82.8332 -3.3237 -0.752645
82.8441 -3.23638 -0.753344
82.8663 -3.14845 -0.754036
82.8728 -3.10492 -0.754886
82.8808 -3.01723 -0.754585
83.0437 -2.26566 -0.761966
83.1308 -2.17478 -0.766621
83.2401 -2.08268 -0.772262
83.3324 -1.98944 -0.777906
83.4171 -1.94161 -0.781707
83.477 -1.84935 -0.785369
83.5451 -1.7571 -0.789027
86.8092 5.38543 -1.0084
86.7919 5.48839 -1.00806
79.5599 11.6111 -0.746379
76.1129 9.9744 -0.538401
9.00649 -5.2203 -1.81161
8.17125 -5.99603 -1.8646
8.62915 -6.77126 -1.84403
81.8601 -8.33151 -0.744049
84.5929 4.24698 -1.03821
84.6005 4.34783 -1.03987
84.5332 4.42985 -1.03662
84.5285 4.52822 -1.03829
84.5155 4.67397 -1.0388
84.4971 4.768 -1.03949
84.4767 4.86228 -1.03918
76.067 10.0179 -0.670274
75.8157 10.1361 -0.659981
61.2198 14.4505 -0.273575
15.3769 -7.74077 -1.68244
70.406 -16.4777 -0.493574
82.0095 4.07692 -1.07789
81.9019 4.09445 -1.07088
82.0201 4.21671 -1.08041
80.0591 3.50563 -1.06866
80.4683 3.69822 -1.10084
80.6317 3.8279 -1.11433
80.4705 3.82796 -1.1024
61.236 14.4916 -0.49843
59.6112 10.7046 -0.208969
52.9323 15.27 -0.483335
49.1762 7.70883 -0.0515869
27.6797 9.45943 -1.36484
23.4062 -8.08906 -1.57019
74.2245 -8.07522 -0.79744
62.6807 14.1899 -0.749838
62.4874 14.0469 -0.732406
67.7368 11.1472 -0.891002
62.0032 -15.7571 -0.565718
62.02 -15.6 -0.553177
73.9562 4.25778 -1.15772
73.9749 4.33407 -1.16245
73.9964 4.37673 -1.1653
74.0766 4.47756 -1.17592
49.448 -12.6794 -0.311637
67.5157 10.3662 -1.05775
67.5512 10.4888 -1.06832
67.3463 10.695 -1.0697
67.3714 10.7664 -1.07645
66.9264 10.2248 -1.12248
66.924 10.3501 -1.13305
66.8271 10.325 -1.12318
52.7813 13.7639 -1.01151
51.9483 -15.8889 -0.696459
67.5883 8.87495 -1.17878
67.5554 8.91838 -1.17864
67.5192 8.95922 -1.17952
67.4948 8.97337 -1.17848
66.5052 9.79212 -1.16413
66.4315 9.79128 -1.15816
66.5149 9.96532 -1.17953
69.7846 4.43347 -1.1999
66.1201 9.44656 -1.20146
66.0835 9.48442 -1.20135
65.9144 9.37356 -1.1778
36.7225 -2.68073 -1.43016
68.6278 -3.05468 -0.9368
68.9231 2.15769 -1.07599
65.4597 8.23353 -1.22786
65.4282 8.27175 -1.22874
65.3942 8.30626 -1.22864
65.3661 8.34709 -1.23052
65.3288 8.37899 -1.22942
65.2983 8.41709 -1.23031
65.2609 8.448 -1.23022
65.2417 8.46352 -1.23017
65.2053 8.49529 -1.23008
65.1303 8.48353 -1.22215
65.1528 8.58254 -1.23381
51.117 13.3203 -1.40073
64.9935 7.81242 -1.24549
64.9752 7.82682 -1.24445
64.9361 7.85289 -1.24338
64.8984 7.88182 -1.24329
64.8662 7.91409 -1.2432
64.8366 7.95107 -1.24408
64.8103 7.99066 -1.24596
64.7539 7.99874 -1.24096
58.9987 11.3889 -1.26192
58.9602 11.427 -1.2658
58.1151 11.5352 -1.2518
63.5143 6.55615 -1.27238
63.4964 6.59772 -1.27525
63.4394 6.59377 -1.26929
57.6438 9.91052 -1.31951
57.5722 9.24431 -1.3398
57.5361 9.26195 -1.34076
57.4965 9.26793 -1.34075
64.1323 -6.60283 -0.937756
57.3098 7.75851 -1.36695
57.2735 7.75804 -1.36597
57.2401 7.76525 -1.36596
57.2027 7.75584 -1.36201
57.1752 7.79358 -1.36789
57.1361 7.77933 -1.36396
57.2453 7.09234 -1.36224
57.2102 7.08566 -1.35928
57.181 7.10243 -1.36123
57.1482 7.10555 -1.36124
57.117 7.1145 -1.36122
57.0872 7.13338 -1.36317
57.0724 7.14431 -1.36514
57.0408 7.1493 -1.36513
57.0073 7.14745 -1.36315
56.9704 7.13494 -1.35921
56.8626 6.99854 -1.42472
56.8315 7.00749 -1.42471
56.8026 7.02625 -1.42765
56.7841 7.01546 -1.4247
56.7639 7.08759 -1.43846
56.7206 7.02344 -1.4237
61.5511 -1.70342 -1.02124
61.5467 -1.65045 -1.02206
61.543 -1.60765 -1.02392
61.5459 -1.58483 -1.02584
61.5383 -1.56473 -1.02477
61.5276 -1.54526 -1.02271
61.5211 -1.52528 -1.02265
61.5257 -1.51275 -1.0246
61.517 -1.49353 -1.02354
61.5033 -1.47467 -1.02048
61.5019 -1.45333 -1.02141
61.5048 -1.43051 -1.02333
61.4847 -1.41389 -1.01928
60.4381 1.37362 -1.08928
60.4208 1.3879 -1.08823
60.4225 1.41793 -1.09313
60.4894 -0.904767 -1.03098
57.4711 -2.89949 -0.299034
53.9357 -1.49463 -0.0227758
53.7227 -4.3927 -0.0216981
100.786 -18.5282 -19.7167
54.1502 -1.80119 0.102277
54.0662 -1.95605 0.136716
123.039 -19.1151 -29.4772
54.1965 -1.76157 0.0784306
54.2306 -1.83453 0.114198
54.2198 -1.82408 0.107229
54.0203 -1.53534 -0.0668781
54.1659 -1.77985 0.0613554
54.1616 -1.78233 0.0613452
54.1564 -1.78369 0.0603383
54.1193 -1.73358 0.0324923
54.0788 -1.679 0.00266004
54.0417 -1.62989 -0.0261894
54.0589 -1.66134 -0.00928864
54.0545 -1.66381 -0.0092989
54.062 -1.68494 0.000632656
54.0543 -1.68195 -0.00236046
53.894 -1.44971 -0.130642
54.1074 -1.87639 0.0840031
54.0479 -1.86077 0.0620306
56.2972 -4.22111 -0.102017
56.2339 -4.25143 -0.109147
56.2284 -4.23867 -0.103106
56.2675 -4.2244 -0.113041
1.15033e-41 0 -1.97107e-29
