ply
format ascii 1.0
element vertex 799
property float x
property float y
property float z
end_header
94.6171 4.52286 2.88692
94.7058 4.77669 2.88799
94.624 5.01995 2.88447
39.0661 16.5927 1.21162
35.6569 19.2029 1.16828
25.4541 18.8613 0.974687
25.1906 18.484 0.961813
1.16969 15.8651 1.05712
-26.7458 42.9092 2.23909
-26.7172 42.4777 2.23102
-41.8248 54.9197 2.83372
-16.6808 28.7814 1.74094
-16.7446 28.6547 1.74095
-17.0674 28.4829 1.74677
-28.9024 38.2556 2.22149
-29.2283 38.2891 2.2309
-29.6086 38.3667 2.24311
-29.5479 37.2284 2.22386
-31.5234 38.3548 2.29596
-28.6616 35.8023 2.17897
-28.6028 35.6399 2.17498
-28.7205 34.1501 2.15751
-4.8584 15.5763 1.21597
-5.72211 14.7846 1.23114
-5.79019 14.7312 1.23264
-5.70901 14.577 1.22855
-5.84243 14.568 1.23287
-29.2874 27.9647 2.09737
-36.1279 31.9866 2.35202
-37.0802 32.2312 2.38321
-31.7434 28.7692 2.18164
-38.5654 32.4371 2.4317
-39.9117 33.0041 2.47943
-30.5871 26.2069 2.12008
-32.227 26.7371 2.17664
-30.7722 25.7346 2.1217
-34.4613 27.0578 2.24981
-34.4538 25.9416 2.24051
-33.5902 25.1029 2.20561
-36.8995 24.1277 2.30486
-39.3502 24.6248 2.38824
-37.1257 22.0487 2.29867
-37.2188 21.8921 2.30094
-53.6158 26.278 2.87286
-54.9376 24.8874 2.91107
-54.9601 24.2718 2.90837
-58.7889 -18.517 3.27965
-41.0816 -19.6883 2.68993
-39.1536 -20.8798 2.64637
-9.47658 -14.0601 1.52989
-6.63327 -13.8127 1.43559
-6.45876 -13.8023 1.43018
1.36564 -14.5629 1.22705
3.70711 -14.2502 1.15829
3.73986 -14.2574 1.15727
3.80647 -14.269 1.15622
63.576 -24.0153 2.28216
88.4582 -15.3348 2.87728
88.5119 -15.1077 2.8756
88.5378 -14.8756 2.87295
88.5736 -14.6448 2.87128
88.6133 -14.4151 2.86961
88.6317 -14.2997 2.86778
88.6466 -14.0661 2.86514
94.8555 4.55036 2.39225
94.7947 4.79484 2.38968
89.9609 8.36836 2.25048
72.0463 9.84452 1.79347
62.9854 10.7121 1.56627
61.0426 10.9419 1.5185
-39.3855 54.5908 2.27119
-34.2946 41.4915 2.00672
-54.7603 24.6772 2.42916
-52.5271 -18.1375 2.6077
-17.3585 -14.4354 1.56397
-15.6254 -14.0424 1.50985
67.1211 -20.2545 1.95719
78.3206 -21.5434 2.24509
86.5889 -15.3914 2.36033
86.5853 -15.2742 2.35852
86.6189 -15.0493 2.3569
86.6614 -14.8258 2.35528
86.7 -14.6021 2.35365
86.7454 -14.3797 2.35203
86.7721 -14.1535 2.34941
86.8216 -13.9313 2.34778
86.8358 -13.8187 2.34697
86.9767 -13.6139 2.34828
94.828 4.73894 2.01799
57.8896 14.7206 1.23457
1.14022 22.2749 0.888872
-33.4405 23.988 1.58501
-33.706 23.6379 1.58995
-22.4045 -14.7311 1.51393
-15.6647 -13.8839 1.34583
64.8956 -19.5276 1.64453
81.645 -21.1403 1.99477
84.6553 -21.5076 2.05839
86.7296 -14.2033 2.00883
94.9058 4.4426 1.42187
94.9033 4.69187 1.42015
1.16407 22.2796 0.685788
-29.7266 44.1489 1.15435
-30.0892 42.9838 1.15512
-34.5768 24.0715 1.18665
84.6794 -21.3232 1.51106
91.341 -16.2825 1.54213
93.0089 -16.1337 1.56282
94.9091 4.46966 1.01667
94.8898 4.59248 1.01586
1.15117 22.4202 0.548838
1.14373 22.2774 0.548839
-27.4461 43.5303 0.808136
-29.4628 36.6089 0.827938
82.1907 -21.2242 1.12325
89.7746 -19.481 1.1643
94.861 4.38759 0.466316
94.8846 4.63787 0.46454
94.8116 8.005 0.44241
94.0434 8.17433 0.440749
43.0372 13.5614 0.351749
-28.5697 34.9049 0.42695
-35.926 27.1984 0.500674
91.5449 -22.8493 0.661091
89.5644 -19.3786 0.631994
89.6235 -19.2708 0.631133
86.1253 -15.212 0.595953
86.1684 -15.1055 0.595133
86.1742 -14.8756 0.593532
86.2204 -14.424 0.59032
86.3053 -13.981 0.587091
87.0503 -13.548 0.584634
94.9148 8.18259 0.0669701
69.5597 8.87088 0.151042
35.2295 25.1355 0.14109
-29.1002 35.4126 0.157477
-45.7753 -14.5251 0.525411
66.1619 -19.984 0.358161
85.9672 -15.1443 0.257787
85.9829 -14.9177 0.25619
85.9078 -14.7867 0.256433
85.9165 -14.5589 0.254841
85.946 -14.3349 0.253234
85.9983 -14.1167 0.251624
86.1301 -13.9136 0.249961
86.9109 -13.488 0.243485
94.7707 7.83933 -0.432387
75.8535 9.68327 -0.261952
70.9114 12.7456 -0.240406
70.5014 12.8313 -0.237192
40.2602 16.4417 0.00828925
-35.7955 26.5295 -0.137976
85.6069 -21.9356 -0.159576
91.237 -22.4064 -0.211388
89.6103 -19.9236 -0.207351
91.0393 -20.0552 -0.22025
90.3577 -19.3737 -0.217621
90.1799 -19.0777 -0.217317
87.4731 -17.3113 -0.200206
92.6211 -17.4065 -0.249666
86.1279 -15.4768 -0.196242
86.1893 -15.259 -0.197868
86.6923 -15.1351 -0.203714
86.5008 -13.5927 -0.209998
86.6298 -13.3864 -0.212677
95.5159 2.96012 -0.89314
94.6505 3.17528 -0.880926
48.1248 12.1638 -0.229604
34.9062 8.49843 0.0127128
43.8676 15.9466 -0.216384
30.1711 16.2389 -0.0434832
26.2652 16.761 -0.0124155
24.6194 22.6663 -0.114
24.5783 22.6649 -0.113909
24.513 22.7084 -0.114081
24.4376 22.7263 -0.114057
24.3577 22.7313 -0.113935
24.2744 22.7255 -0.112731
-30.3489 36.7408 -0.590269
-37.1507 24.5921 -0.483931
-37.1317 24.3813 -0.481511
71.2335 -20.2954 -0.393673
75.6435 -18.247 -0.465498
79.1151 -15.1402 -0.529796
85.364 -15.7029 -0.625189
89.4603 -10.4063 -0.71285
89.4822 -10.174 -0.714499
89.3991 -10.0447 -0.714229
53.9107 13.331 -0.612052
33.1084 14.6999 -0.211623
28.3353 17.1013 -0.18784
24.6946 22.6773 -0.285228
24.6181 22.6922 -0.28518
24.5483 22.7249 -0.285269
24.4763 22.7516 -0.285312
24.4363 22.7541 -0.285251
24.352 22.7474 -0.284039
-35.1112 27.3998 -0.902355
59.2508 -19.21 -0.545631
60.1771 -18.2206 -0.56429
60.2965 -18.107 -0.566309
61.8636 -15.1356 -0.599927
62.5665 -15.2035 -0.61484
62.9394 -15.1607 -0.622868
62.8417 -14.9669 -0.621016
70.0116 -13.6547 -0.78218
71.7176 -13.7108 -0.820145
73.13 -13.2004 -0.85245
68.1683 -1.96972 -1.05333
68.1384 -1.88652 -1.05384
68.1694 -1.23024 -1.05844
67.6701 -0.649754 -1.04847
48.1201 6.74556 -0.569154
44.6529 6.43387 -0.470184
44.3244 6.45343 -0.461673
44.2944 7.58632 -0.476445
33.1239 14.6925 -0.327605
24.5643 22.7304 -0.411342
24.5001 22.7779 -0.411544
24.4202 22.7829 -0.411422
24.3758 22.7736 -0.41027
24.296 22.7796 -0.409155
-40.9243 -14.8168 -0.915143
53.4648 -17.2821 -0.632587
56.4735 -16.2412 -0.706696
56.5027 -16.1053 -0.707693
56.6099 -16.0733 -0.710125
56.7054 -13.6441 -0.708102
57.4551 -12.9553 -0.727337
57.7365 -12.898 -0.734286
61.0201 -12.3631 -0.823439
64.0004 -11.9607 -0.904079
65.3512 -11.9633 -0.941716
65.7654 -11.7309 -0.953136
65.6793 -11.5465 -0.950242
65.8977 -11.5138 -0.956897
65.9199 -11.3526 -0.957055
66.062 -11.2199 -0.961252
65.5151 -10.4454 -0.947529
65.571 -10.2134 -0.949243
66.0235 -9.81339 -0.962897
66.3128 -9.70537 -0.971213
66.5545 -9.58652 -0.977509
67.9592 -8.7506 -1.01905
68.3247 -3.3797 -1.04989
68.2538 -2.79758 -1.05177
68.2121 -2.63086 -1.05084
68.2034 -2.46542 -1.05197
68.1547 -2.29843 -1.05103
68.158 -2.13444 -1.05217
61.0458 -1.73719 -1.12394
61.0192 -1.59407 -1.12388
60.9609 -1.52179 -1.12226
60.9693 -1.38001 -1.12326
60.9438 -1.23693 -1.1232
60.9411 -1.09573 -1.12417
60.9256 -0.953037 -1.12512
60.9339 -0.812257 -1.12611
60.9323 -0.670097 -1.12709
60.943 -0.599454 -1.1276
60.9004 -0.457726 -1.1275
60.8768 -0.315721 -1.12743
60.7981 -0.174608 -1.12525
60.7214 -0.0335783 -1.12408
60.7608 0.108014 -1.12613
60.576 0.248184 -1.12074
60.8279 0.320596 -1.12973
60.9754 0.463049 -1.13601
61.2562 0.609408 -1.14657
61.4629 0.755598 -1.15499
61.6036 0.902322 -1.16028
61.6801 1.04749 -1.16443
61.7587 1.19358 -1.1686
61.9005 1.34226 -1.1739
62.0756 1.42062 -1.18079
62.2224 1.5711 -1.18712
62.4044 1.72424 -1.19454
62.6164 1.87924 -1.20302
63.36 2.43417 -1.23232
63.7164 2.75475 -1.24724
65.5645 4.51323 -1.32703
65.7563 4.60996 -1.33407
65.91 4.7832 -1.34057
59.1133 4.67319 -1.11045
39.4731 15.9075 -0.669489
31.1517 15.7554 -0.444079
13.2343 20.5016 -0.400672
2.27645 22.7458 -0.580653
-27.1629 38.9079 -1.64254
-60.9093 14.1649 -2.04621
-61.0524 13.692 -2.04366
46.8522 -17.9064 -0.681278
46.8972 -17.8031 -0.681081
46.9872 -17.7245 -0.683801
47.0464 -17.6937 -0.68513
47.1414 -17.6183 -0.686838
47.2471 -17.5482 -0.68953
47.3333 -17.4665 -0.691265
47.4889 -17.2943 -0.694761
47.5741 -17.2115 -0.696501
47.6403 -17.183 -0.698828
47.7078 -17.0905 -0.6996
47.692 -16.9538 -0.698514
47.9328 -16.5687 -0.702649
47.9362 -16.5068 -0.702083
48.0831 -16.3272 -0.705613
49.3378 -13.7822 -0.72767
57.4197 -10.9832 -0.980904
58.5667 -10.2155 -1.01847
58.692 -10.1032 -1.02249
58.3085 -9.24291 -1.00968
57.9465 -9.0259 -0.997468
60.1603 -8.12393 -1.07205
60.2295 -7.77732 -1.07459
59.7945 -7.55951 -1.06024
59.5232 -7.08979 -1.05195
59.2762 -6.98026 -1.04422
61.8831 -5.84617 -1.13419
61.563 -5.65979 -1.12384
61.4928 -5.50599 -1.12277
61.4158 -5.42499 -1.12018
61.4662 -5.28481 -1.12225
61.5304 -5.14718 -1.12532
61.532 -5.00213 -1.12533
61.4996 -4.85378 -1.12529
61.4204 -4.70064 -1.12319
61.359 -4.55018 -1.12111
61.3 -4.47187 -1.11954
61.2935 -4.32751 -1.11952
61.2511 -4.17979 -1.11946
61.1897 -4.03033 -1.11737
61.1881 -3.88717 -1.11836
61.2674 -3.7501 -1.12146
61.4026 -3.61718 -1.12665
61.4809 -3.47908 -1.12976
61.4886 -3.40732 -1.13027
61.4561 -3.26098 -1.13021
61.3668 -3.11145 -1.12807
61.3652 -2.96728 -1.12807
61.185 -2.81328 -1.12278
61.1495 -2.66782 -1.12271
61.1269 -2.52385 -1.12266
61.1666 -2.45532 -1.12421
61.136 -2.31105 -1.12415
61.1145 -2.16712 -1.1241
61.1049 -2.02465 -1.12407
61.0664 -1.88008 -1.12399
56.2944 2.65883 -1.26099
56.5129 2.80156 -1.27041
56.7406 2.94693 -1.28186
56.9222 3.09107 -1.29021
57.0652 3.16664 -1.29702
57.1655 3.3059 -1.30218
57.3141 3.4493 -1.30946
57.5219 3.59944 -1.31991
57.6394 3.74203 -1.32612
57.7921 3.88929 -1.33344
58.4186 4.28655 -1.36342
58.5996 4.44072 -1.37184
58.9927 4.61978 -1.38985
60.0872 5.79864 -1.44715
52.257 12.8991 -1.25083
47.4871 11.643 -1.04377
33.8923 7.80624 -0.448523
40.824 13.2831 -0.833009
39.4974 15.7642 -0.853551
39.4965 15.8713 -0.85629
39.511 15.9898 -0.860137
-39.5548 54.4743 -2.8658
-16.738 31.4179 -1.50125
-40.2101 33.0796 -2.23063
-55.7866 28.938 -2.6394
42.0627 -17.3003 -0.740057
45.2042 -15.2128 -0.825661
45.289 -15.1399 -0.827331
45.3464 -15.0531 -0.829045
45.3751 -15.0091 -0.829405
45.4953 -14.9527 -0.833031
45.5635 -14.8702 -0.834735
45.6386 -14.791 -0.83643
44.5485 -12.9338 -0.779123
45.8889 -11.8683 -0.821123
46.323 -11.9279 -0.837564
46.3527 -11.829 -0.838306
46.5216 -11.7834 -0.843953
46.5237 -11.7295 -0.84333
46.7774 -11.7142 -0.852935
47.1052 -11.7257 -0.865499
47.2465 -11.6661 -0.87119
47.5498 -11.6647 -0.882795
47.635 -11.5819 -0.885535
47.8643 -11.5517 -0.894195
48.0234 -11.5518 -0.899507
49.9854 -11.1125 -0.973401
52.4583 -8.68639 -1.06103
52.5552 -8.58702 -1.06491
52.5171 -8.45747 -1.06373
55.8944 -4.88017 -1.20009
50.8056 -1.43819 -1.21488
50.8058 -1.32812 -1.21565
50.816 -1.21843 -1.21642
50.8251 -1.10871 -1.2182
50.8243 -0.998596 -1.21796
50.7905 -0.888225 -1.21766
50.7576 -0.83292 -1.21597
50.7238 -0.722549 -1.21567
50.6959 -0.612399 -1.21438
50.6691 -0.502295 -1.21409
50.6283 -0.39265 -1.21276
50.5914 -0.283164 -1.21245
50.5675 -0.174166 -1.21115
50.5256 -0.119525 -1.21045
50.5197 -0.0102188 -1.21019
50.5128 0.0981189 -1.21093
50.502 0.207608 -1.21166
50.4931 0.316029 -1.2114
50.4872 0.424328 -1.21213
50.4694 0.533091 -1.21185
50.4604 0.58747 -1.21221
50.4445 0.696156 -1.21193
50.4196 0.804186 -1.21163
50.3807 0.91175 -1.21129
50.3397 1.0184 -1.20995
50.2918 1.12531 -1.20859
50.2318 1.23168 -1.20721
50.1837 1.28356 -1.20547
50.1628 1.39144 -1.20518
50.1048 1.49673 -1.20379
50.1389 1.6055 -1.20561
50.1952 1.71642 -1.20949
50.3808 1.83538 -1.21968
50.5123 1.95141 -1.22674
50.6178 2.06745 -1.23275
50.6861 2.12687 -1.23629
50.7344 2.2401 -1.23917
50.7567 2.35131 -1.24198
50.797 2.46485 -1.24485
50.8343 2.57749 -1.2477
50.9028 2.69395 -1.25164
50.9843 2.8109 -1.25661
51.0888 2.87593 -1.26226
51.1885 2.99619 -1.26829
51.3494 3.1221 -1.27747
51.4922 3.24771 -1.28562
51.6452 3.37593 -1.29381
51.7691 3.50126 -1.30092
51.8196 3.6204 -1.30484
51.8409 3.67963 -1.30629
51.8352 3.79392 -1.30707
55.4342 6.65278 -1.50991
55.5721 6.80459 -1.51923
55.3353 6.89173 -1.50937
50.9549 11.9568 -1.40277
50.8167 12.0322 -1.39901
50.7258 12.0617 -1.39504
50.6839 12.1704 -1.39571
47.6789 11.5652 -1.25062
36.222 13.7374 -0.831105
36.241 13.8437 -0.834878
-43.6096 33.6016 -2.75657
43.2313 -11.8587 -0.897968
43.3936 -11.8259 -0.904514
43.4044 -11.7793 -0.903857
43.5697 -11.7476 -0.910402
43.5745 -11.6467 -0.910108
43.6424 -11.5733 -0.91175
43.73 -11.5066 -0.915383
43.8471 -11.452 -0.91999
50.3393 -6.64313 -1.18399
50.4409 -6.54996 -1.18784
50.3995 -6.42927 -1.18559
50.4236 -6.32212 -1.18738
50.5153 -6.22557 -1.19122
49.3621 -5.31766 -1.13823
49.8281 -5.0093 -1.15928
51.5872 -4.40731 -1.2409
51.4789 -4.28107 -1.23656
51.3826 -4.15629 -1.23223
51.3042 -4.03419 -1.22892
51.3483 -3.9268 -1.23075
51.3773 -3.87387 -1.23217
51.3836 -3.76103 -1.23297
51.363 -3.64616 -1.23272
51.3463 -3.53243 -1.23147
51.3147 -3.41714 -1.23121
51.2531 -3.29869 -1.22791
51.2095 -3.18294 -1.22662
51.1588 -3.12194 -1.22394
51.1301 -3.00877 -1.22367
51.1094 -2.89488 -1.22241
51.0378 -2.77806 -1.22008
50.9861 -2.66299 -1.21777
50.9724 -2.55138 -1.21752
51.0095 -2.44273 -1.22034
51.0615 -2.39069 -1.2228
51.1077 -2.28238 -1.22464
51.1389 -2.1735 -1.22746
51.1371 -2.06235 -1.22722
51.1094 -1.94921 -1.22695
51.0726 -1.83672 -1.22566
50.9612 -1.61028 -1.221
50.8194 -1.5488 -1.21515
47.8317 4.01531 -1.30974
47.8638 4.12215 -1.31354
47.8668 4.17407 -1.3139
47.8727 4.27691 -1.31563
47.9521 4.39093 -1.32157
48.0526 4.50815 -1.32858
48.1189 4.62068 -1.33349
49.4774 7.05708 -1.442
49.6058 7.19525 -1.4502
50.0197 7.39748 -1.47542
49.814 7.40839 -1.46509
43.1905 6.48204 -1.11066
47.8376 10.4321 -1.4261
47.8389 10.5441 -1.42888
47.7853 10.5822 -1.42704
47.7825 10.6923 -1.42979
47.6915 10.7739 -1.42718
47.6401 10.8679 -1.42673
47.5937 10.9637 -1.4263
47.5513 11.0604 -1.42688
47.5242 11.1625 -1.42753
47.502 11.2114 -1.42783
47.4424 11.3017 -1.42734
47.3635 11.3848 -1.42576
47.3303 11.4852 -1.42638
28.8175 15.9921 -0.774136
20.0242 16.8283 -0.600631
19.9681 16.8264 -0.599508
17.5147 18.4965 -0.669231
17.4543 19.199 -0.70897
17.3315 18.4164 -0.663318
17.2724 18.4127 -0.663176
17.2441 18.8289 -0.686998
-40.5541 15.5124 -2.53554
-46.6462 14.2704 -2.79599
-40.4419 -7.57736 -2.28816
36.2545 -16.007 -0.828584
36.3088 -15.9471 -0.830105
36.3924 -15.9082 -0.832538
36.3796 -15.7957 -0.829291
36.533 -15.6574 -0.832548
43.8473 1.99969 -1.25697
44.8726 5.04226 -1.36002
44.9467 5.14948 -1.36591
44.9052 5.1891 -1.3641
44.9823 5.29721 -1.37
45.0726 5.40881 -1.37695
45.1045 5.51065 -1.38071
45.1602 5.71263 -1.38822
44.6861 10.0574 -1.45632
44.6799 10.1577 -1.458
44.6554 10.2507 -1.4596
44.6674 10.3573 -1.46336
44.6583 10.4057 -1.46367
32.1544 8.43382 -0.732452
36.3388 13.5328 -1.12693
36.155 13.5948 -1.12
13.0343 17.1276 -0.700966
10.7006 18.7097 -0.823318
-32.5744 -2.14308 -2.23118
-32.7146 -2.22486 -2.23834
-31.0307 -6.31026 -2.13941
-31.808 -7.32876 -2.18185
36.1815 -14.1607 -0.940205
44.7326 -3.76443 -1.27787
44.6843 -3.48236 -1.27473
44.5884 -3.42564 -1.26993
42.5595 9.29663 -1.46988
42.5257 9.37898 -1.47039
42.4958 9.46317 -1.47091
42.5056 9.56086 -1.4736
42.4544 9.63686 -1.47303
42.4329 9.67671 -1.47326
36.1504 13.6631 -1.25346
36.1859 13.7808 -1.26035
21.227 19.3417 -0.994377
21.1784 19.4046 -0.996716
13.0636 17.1129 -0.792924
-29.8261 5.81217 -2.40057
-29.6638 5.50086 -2.38674
-29.5639 5.41606 -2.37935
-29.5156 5.26514 -2.3744
-29.4513 5.11362 -2.36848
-29.404 4.96474 -2.36354
-29.2938 4.8085 -2.35468
-29.0006 4.49226 -2.33307
-28.8933 4.33913 -2.32522
-28.6876 4.24833 -2.311
-28.6155 3.95943 -2.30314
-28.6737 3.82353 -2.30509
-28.723 3.68729 -2.30605
-28.7792 3.55032 -2.30799
-28.7846 3.40942 -2.30701
-28.7782 3.33914 -2.30554
-28.7586 3.19631 -2.30259
-28.753 3.055 -2.30062
-28.7344 2.91321 -2.29768
-28.6459 2.76678 -2.29084
-28.6552 2.62704 -2.28986
-28.6735 2.48763 -2.28986
-28.6752 2.41764 -2.28937
-28.6995 2.27847 -2.28936
-28.5515 1.22318 -2.27036
-28.4918 1.08184 -2.2655
-28.4811 0.942342 -2.26355
-28.5204 0.803727 -2.26452
-28.5027 0.663962 -2.26259
-28.642 0.316964 -2.26792
-28.2487 -0.102127 -2.24179
-28.1368 -0.240429 -2.23405
-28.112 -0.378461 -2.23215
-28.1237 -0.448066 -2.23165
-12.9627 -13.1564 -1.41058
33.3402 -13.0915 -0.89301
40.3443 5.20123 -1.41022
40.3645 5.2865 -1.41385
40.3726 5.36823 -1.41643
40.8378 7.91778 -1.51197
40.8583 8.01104 -1.51566
40.8833 8.06211 -1.51906
40.2584 8.75954 -1.49765
40.2293 8.8357 -1.49812
36.1298 13.5767 -1.41883
36.156 13.6867 -1.42564
21.3149 19.1583 -1.12329
21.2446 19.259 -1.12884
39.4985 8.67388 -1.56857
36.3471 13.7446 -1.56142
36.2142 13.7487 -1.55319
-5.21025 19.3233 -1.80732
38.3787 -5.24216 -1.31317
38.3989 -4.9497 -1.31224
38.4036 -4.87682 -1.31175
38.3783 -4.83381 -1.31
38.514 -2.74141 -1.30972
36.8235 -0.905838 -1.32209
36.842 -0.840503 -1.32358
36.8832 -0.80907 -1.32688
36.8928 -0.742393 -1.32836
36.8993 -0.676595 -1.32882
36.9048 -0.610765 -1.33029
36.9023 -0.544617 -1.32974
36.8908 -0.478127 -1.32918
36.8864 -0.41191 -1.32963
36.5252 3.06033 -1.34292
35.389 12.2357 -1.58011
35.3451 12.2934 -1.58042
35.3013 12.3512 -1.57973
35.2523 12.4061 -1.57902
35.2178 12.4704 -1.58039
35.1661 12.4804 -1.57736
35.1335 12.5447 -1.57774
35.0754 12.594 -1.57697
35.0367 12.6555 -1.57732
34.9795 12.7037 -1.57554
34.9459 12.769 -1.57692
34.9021 12.8267 -1.57724
21.2558 19.273 -1.36097
28.6518 -13.4003 -1.01567
28.7059 -13.3733 -1.01796
36.7551 -1.10034 -1.31561
36.7786 -1.0352 -1.31811
36.801 -0.971014 -1.3196
33.9112 12.1647 -1.59971
21.3866 19.1652 -1.47048
21.3502 19.1546 -1.46834
1.02877 16.8045 -1.62316
-13.9148 9.90278 -2.31311
-13.9295 9.80428 -2.3104
-13.9018 9.69118 -2.30468
-13.8721 9.57801 -2.29895
-13.8869 9.53154 -2.2986
34.3537 0.460955 -1.34368
34.3519 0.520063 -1.34409
34.3512 0.578127 -1.34549
34.3582 0.606877 -1.3457
34.3464 0.664374 -1.34508
34.3477 0.723361 -1.34649
34.3349 0.780895 -1.34586
34.3301 0.839118 -1.34625
34.3252 0.896349 -1.34564
34.3234 0.954451 -1.34704
34.3357 1.01402 -1.34847
34.3248 1.04246 -1.34765
34.317 1.0998 -1.34803
34.3152 1.15791 -1.34843
34.2953 1.21471 -1.34778
34.2865 1.27309 -1.34717
34.2837 1.33024 -1.34755
34.286 1.38919 -1.34897
34.2931 1.41893 -1.35019
34.2943 1.47693 -1.35059
34.2795 1.53454 -1.34996
34.2817 1.59249 -1.35136
34.2568 1.64849 -1.3497
34.2751 1.70881 -1.35315
21.3468 19.0968 -1.58194
21.2444 19.1938 -1.5884
22.404 -14.33 -0.95596
22.5292 -14.485 -0.973135
22.5695 -14.4525 -0.972439
22.6073 -14.3007 -0.962562
33.5369 5.79885 -1.50998
33.5241 5.85637 -1.51135
33.5599 5.93001 -1.51793
33.5562 5.99119 -1.51934
-4.32926 13.9029 -2.07359
-4.39808 13.8565 -2.07614
-4.42128 13.8254 -2.07587
-4.49499 13.7821 -2.07943
-4.53555 13.7156 -2.07889
-4.57022 13.6459 -2.07734
-4.61855 13.5857 -2.07683
7.9835 -14.4837 -1.09756
31.5053 10.1413 -1.658
31.4882 10.165 -1.65813
31.4438 10.2067 -1.65633
31.4085 10.2531 -1.65658
31.3569 10.2901 -1.65474
31.3216 10.3365 -1.65399
31.273 10.3744 -1.65216
31.244 10.4255 -1.65345
31.2108 10.4738 -1.65372
21.3361 19.1165 -1.83406
21.2314 19.2065 -1.84047
21.1143 19.259 -1.84261
-3.36174 12.8994 -2.07756
-3.40992 12.8431 -2.07807
-3.47659 12.8006 -2.08065
30.7451 9.70475 -1.67949
30.7108 9.75009 -1.67874
30.707 9.78124 -1.68095
21.3276 18.5289 -1.89798
21.3245 18.7371 -1.92141
21.2731 18.781 -1.92462
21.2459 18.8011 -1.9267
21.1875 18.8193 -1.92671
21.1351 18.8633 -1.92991
21.034 18.7282 -1.91178
20.9523 18.6603 -1.90115
20.8882 18.6567 -1.899
17.7931 -13.7899 -1.04563
30.3429 3.46429 -1.40456
20.5757 16.6191 -1.7633
20.5174 16.6143 -1.76115
20.4698 16.5451 -1.75158
20.4357 16.6224 -1.75905
9.8996 15 -1.59712
-1.13894 11.5629 -2.06369
-1.19159 11.5209 -2.06629
-1.23646 11.4725 -2.06687
-1.2891 11.4305 -2.06848
-1.33689 11.3843 -2.07006
-1.3925 11.3433 -2.07267
-1.40859 11.3149 -2.07144
14.2895 16.2904 -1.82168
19.8641 14.6195 -1.77308
19.8129 14.6165 -1.77096
11.7449 13.4328 -1.85992
21.3369 11.1441 -1.75495
21.3037 11.1643 -1.75603
21.2673 11.1797 -1.75606
18.6296 -8.51149 -2.7308
18.9647 -9.42024 -3.06419
20.7786 -14.7347 -4.99607
20.8278 -14.7296 -5.00021
18.3666 0.26313 -0.716883
18.384 0.273427 -0.723989
18.3851 0.302391 -0.726191
14.735 1.35589 -0.453292
16.3173 -1.77118 -0.389787
14.9582 1.08902 -0.335883
15.04 1.08193 -0.332995
15.071 1.0279 -0.304682
15.0471 1.05572 -0.320827
14.9103 1.20128 -0.428568
14.994 1.08248 -0.360909
14.9889 1.08167 -0.361894
14.9782 1.08904 -0.367924
14.9437 1.12921 -0.392134
14.8908 1.18901 -0.428444
14.8495 1.23541 -0.457685
14.8683 1.2018 -0.439489
14.8623 1.20202 -0.441479
14.8821 1.16837 -0.423284
14.8483 1.20252 -0.445455
14.8628 1.08321 -0.398657
14.9548 0.971098 -0.331061
14.8403 1.04309 -0.390336
17.3202 -1.15767 -0.506001
17.5019 -8.85614 -3.77323
17.6287 -9.37807 -4.01888
17.4798 -8.4457 -3.58702
17.288 -1.21464 -0.528545
17.2844 -1.20447 -0.524608
17.1769 -1.11186 -0.459035
24.277 -10.9374 1.65838e-39
