ply
format ascii 1.0
element vertex 548
property float x
property float y
property float z
end_header
97.0985 17.6472 2.5443
45.9411 27.0044 1.73099
45.2158 21.9901 1.55886
37.6911 17.067 1.45278
37.6183 17.0728 1.45386
35.8229 16.8241 1.47451
35.7977 16.7283 1.47146
33.554 19.6588 1.60003
29.7839 18.5803 1.64306
29.8069 18.418 1.63791
27.5883 18.6427 1.69436
25.1967 18.8386 1.75697
25.045 18.8598 1.76214
23.9316 17.0041 1.74585
22.8288 17.2721 1.78119
22.6292 17.3145 1.78842
22.436 17.3511 1.79365
22.2473 17.3832 1.79987
22.0251 17.44 1.80714
21.8185 17.4831 1.81338
21.6414 17.5009 1.81858
21.4795 17.5674 1.8248
21.2994 17.5855 1.83
17.6669 19.9095 1.98051
17.3909 19.9811 1.98985
17.1872 19.9947 1.99607
17.1021 19.9886 1.99815
11.6223 21.2338 2.17974
6.81482 21.3033 2.32272
6.67995 21.2171 2.32579
6.58592 20.2003 2.3101
10.3321 17.6401 2.15129
10.3837 17.539 2.14816
10.2854 17.4469 2.15019
4.09996 20.6627 2.39401
3.53791 20.7958 2.41369
3.44362 20.6751 2.41469
2.81429 20.8375 2.43646
8.13533 17.3325 2.2143
10.159 15.8705 2.1281
10.0203 15.7293 2.13013
8.36047 16.4045 2.19236
8.2042 16.3347 2.19646
9.57714 15.1741 2.13516
9.58853 14.7515 2.12882
10.0703 14.3926 2.10805
10.0785 14.2529 2.10493
-26.3254 30.405 3.50173
1.78926 15.7273 2.39257
-5.16205 17.8781 2.64636
0.39676 13.6016 2.41136
-4.12654 14.6314 2.5728
-5.75145 14.9922 2.63074
-5.94094 14.8746 2.63584
-4.58663 13.4726 2.57537
-4.58819 13.1268 2.57111
-16.3916 -14.7468 2.92871
23.6194 -8.69881 1.52834
4.53708 -18.6427 2.26124
4.76517 -18.7011 2.25496
-2.03943 -26.371 2.57302
-2.19793 -26.6417 2.58198
20.5779 -15.8475 1.71494
20.4684 -15.9595 1.71997
-0.695981 -27.9418 2.55543
21.1968 -15.9655 1.69822
51.3617 -18.2329 1.28453
80.8237 -20.9381 2.01822
110.143 -18.6815 2.8919
110.152 -18.4684 2.89005
110.168 -18.2579 2.8892
110.19 -18.048 2.88834
110.193 -17.8352 2.8865
110.223 -17.6282 2.88663
110.243 -17.5257 2.88668
110.276 -17.32 2.88581
110.31 -17.1145 2.88593
110.336 -16.9071 2.88507
123.19 7.96049 2.79607
122.163 8.0717 2.76921
33.5682 19.4724 1.43587
17.5524 15.9506 1.69058
-4.32565 18.8061 2.28722
89.084 -22.129 1.97483
91.5789 -22.5944 2.03892
109.758 -18.2381 2.45763
109.781 -18.0304 2.45777
109.798 -17.822 2.45691
109.831 -17.6173 2.45604
109.865 -17.4118 2.45616
109.863 -17.306 2.45524
109.903 -17.103 2.45536
109.85 -16.8782 2.45259
110.203 -16.7478 2.46133
111.06 -16.7283 2.48246
109.502 9.82445 2.14254
90.5138 10.4113 1.74447
97.2863 17.7835 1.94221
79.2963 11.7418 1.525
46.6139 13.4648 1.08985
11.452 -15.8436 1.59431
120.996 -27.304 2.43311
121.303 -27.1435 2.43892
121.225 -26.8547 2.43522
121.839 -26.7922 2.44764
114.524 -19.504 2.25377
96.39 17.7856 1.51313
107.327 22.8597 1.68883
107.386 23.1089 1.69196
79.2664 11.7371 1.25003
46.6777 13.452 0.971777
39.5953 14.0219 1.00548
79.8061 -17.6084 1.24484
79.8604 -17.5046 1.24586
114.767 -25.8578 1.74362
101.062 -20.8287 1.53955
101.116 -20.6535 1.53963
121.103 -26.8644 1.83334
109.581 -16.7978 1.64192
107.339 22.8828 1.34984
79.2797 11.6654 1.06496
46.6419 13.475 0.891831
82.6003 -21.0449 1.08932
79.6586 -17.5564 1.05303
79.7838 -17.4852 1.05395
100.905 -20.7676 1.23976
100.956 -20.592 1.23984
101.057 -20.4327 1.24086
109.675 9.58165 0.871179
99.9503 10.3791 0.852767
88.468 10.8245 0.829888
88.2787 11.0588 0.830263
107.679 22.7363 0.889374
79.2034 11.6888 0.813057
58.919 -19.1838 0.765044
63.2171 -19.2214 0.769606
100.776 -20.7667 0.835892
100.833 -20.5937 0.835967
109.078 -18.5097 0.852118
109.027 -18.3906 0.851263
109.027 -18.1785 0.851426
109.022 -17.9667 0.851595
109.049 -17.7625 0.851724
109.091 -17.5617 0.851837
109.115 -17.3572 0.851969
109.183 -17.1633 0.852049
109.219 -17.0665 0.852087
110.539 -16.7382 0.854987
122.108 -18.2387 0.877963
117.418 4.83866 0.543577
117.04 7.29344 0.545859
93.0179 8.87272 0.607715
90.8946 8.45283 0.613569
90.653 8.54488 0.613888
89.3666 9.32826 0.617812
67.2005 13.9917 0.672144
45.5148 24.0355 0.703134
80.0949 -17.3832 0.617714
101.23 -20.5141 0.561621
109.226 -18.5192 0.543959
109.087 -18.2721 0.544292
109.025 -18.1499 0.54545
109.023 -17.9385 0.545615
109.047 -17.7339 0.545748
109.343 -17.3842 0.544715
109.194 -17.1381 0.546058
110.275 -16.6486 0.543327
89.4441 9.25586 0.331676
89.3218 9.29702 0.332833
107.456 23.0702 0.153859
79.2603 11.6981 0.414005
60.097 16.1629 0.540104
60.03 16.1941 0.540197
57.0033 18.5714 0.542136
45.5838 24.2133 0.536201
45.3342 22.3482 0.549018
53.6212 -18.6335 0.557901
79.6032 -17.6828 0.382987
79.8296 -17.5299 0.381872
79.9309 -17.4471 0.380832
101.022 -20.6798 0.192706
101.215 -20.5514 0.191607
117.253 -23.3284 0.0460155
115.95 -20.5632 0.0644853
110.168 -18.603 0.119928
109.884 -18.3163 0.123441
108.757 -17.7138 0.135061
110.118 -17.412 0.123898
110.225 -17.2243 0.123933
109.762 -16.9036 0.128655
110.249 -16.6968 0.124315
102.962 3.7151 -0.136463
103.72 4.34342 -0.147756
74.8096 3.45347 0.284209
74.8117 3.54879 0.283281
107.39 22.7688 -0.251305
107.299 22.9575 -0.251067
105.768 22.5521 -0.227809
70.0971 10.1301 0.326194
60.0446 16.1917 0.39818
60.0052 16.1989 0.398226
57.0305 18.5164 0.398065
56.9748 18.5695 0.398163
54.453 -18.7923 0.436926
80.5076 -17.6299 0.1421
94.5925 -22.5846 -0.0841691
94.7446 -22.468 -0.0862352
95.9489 -21.9615 -0.10008
96.4321 -21.7866 -0.10544
94.3727 -20.5469 -0.0693717
99.1101 -20.9258 -0.138523
102.285 -18.4304 -0.171854
104.089 -18.5569 -0.198802
109.21 -19.0429 -0.275429
115.555 -15.7783 -0.355419
115.635 -15.5666 -0.356337
115.693 -15.3505 -0.35623
115.727 -15.1298 -0.356094
115.786 -14.574 -0.354726
104.177 -5.75615 -0.566017
104.056 -5.56435 -0.562745
110.806 -1.17521 -0.706282
112.434 -0.840463 -0.741694
111.793 -0.644519 -0.726884
91.5263 4.8595 -0.287852
91.2635 5.1117 -0.282388
91.4512 5.28785 -0.287444
69.6169 4.83926 0.184604
79.7243 11.3946 -0.0667052
79.6781 11.4991 -0.0665772
105.84 22.412 -0.678991
79.3192 11.661 -0.0600842
57.0491 18.5798 0.234095
18.9504 14.909 0.0953385
83.64 -20.7966 -0.215556
83.7667 -20.7115 -0.216621
84.4672 -20.3837 -0.228086
84.644 -20.3191 -0.230218
84.844 -20.2639 -0.23438
80.1596 -17.4852 -0.113432
85.6908 -19.828 -0.246913
82.9868 -17.0365 -0.166986
83.1812 -16.9114 -0.170088
88.1848 -16.4889 -0.269895
95.4139 -17.0683 -0.425756
96.0434 -17.0869 -0.439416
97.9471 -16.3299 -0.474785
109.288 -18.6959 -0.731242
98.1063 -15.0586 -0.470967
97.7788 -14.5451 -0.460235
99.3959 -14.4022 -0.494784
100.228 -13.9667 -0.510301
100.939 -13.9418 -0.525011
101.123 -13.7995 -0.52809
101.475 -13.692 -0.535368
101.654 -13.5471 -0.53844
102.015 -13.4376 -0.545725
101.474 -12.5124 -0.529457
101.525 -12.3407 -0.530377
100.63 -11.8192 -0.508056
100.249 -11.6631 -0.499546
99.2361 -11.1381 -0.475101
103.593 -11.3226 -0.570712
103.9 -8.58675 -0.566917
95.569 -7.06447 -0.636198
95.6224 -6.91226 -0.637135
95.6948 -6.76106 -0.638093
95.7353 -6.60748 -0.639016
95.7429 -6.45041 -0.638902
95.7486 -6.29312 -0.638787
95.7562 -6.13605 -0.637673
95.7918 -5.98095 -0.63859
95.8121 -5.90366 -0.638551
95.8538 -5.74819 -0.639474
95.9313 -5.59653 -0.641437
95.9539 -5.44005 -0.641339
96.0485 -5.2882 -0.643319
92.0431 2.08951 -0.531519
75.7268 2.75786 -0.0942684
74.909 4.27883 -0.0782562
70.8631 9.11863 -0.00937263
57.0588 18.5678 0.114076
56.9993 18.6134 0.113172
35.5802 24.4414 0.0106363
66.6739 -19.9474 -0.0294999
78.6881 -19.6335 -0.29658
79.2511 -19.266 -0.304874
82.4126 -18.5572 -0.37457
89.1764 -16.0501 -0.520573
89.8709 -15.4391 -0.532814
90.5747 -15.3459 -0.550464
90.6517 -15.2928 -0.552502
90.7387 -15.1653 -0.553493
90.736 -15.0111 -0.552371
90.9049 -14.9074 -0.555465
89.7727 -14.064 -0.519653
90.4781 -14.1068 -0.538409
90.9622 -14.0848 -0.550889
91.2097 -13.9985 -0.557076
90.5355 -13.6714 -0.537132
93.2066 -12.1653 -0.59671
94.3491 -11.3787 -0.623275
94.6659 -10.0165 -0.623549
94.7298 -9.86947 -0.625501
88.5052 -6.57392 -0.698574
89.7414 -2.96737 -0.72906
89.9217 -2.83267 -0.735141
90.0558 -2.69609 -0.739173
90.1566 -2.62835 -0.742224
90.2738 -2.48997 -0.746238
90.4173 -2.35136 -0.750278
90.5618 -2.21185 -0.755318
90.7215 -2.07195 -0.760374
90.8773 -1.93062 -0.765425
91.0614 -1.78828 -0.771504
91.2179 -1.71642 -0.776609
91.4626 -1.57147 -0.784748
91.5674 -1.42674 -0.787744
91.9195 -1.1323 -0.799878
92.1426 -0.98304 -0.806992
92.2388 -0.834381 -0.809976
92.3404 -0.758692 -0.813022
92.5566 -0.606698 -0.821126
92.7075 -0.454797 -0.825164
92.8434 -0.302303 -0.830185
92.9794 -0.148816 -0.835206
93.0892 0.00443624 -0.838201
93.3021 0.162818 -0.845297
93.2848 0.311489 -0.845165
93.9611 0.723316 -0.86754
94.0127 0.877726 -0.869474
94.36 1.05199 -0.881696
94.4615 1.21216 -0.884677
73.2929 3.3053 -0.19735
73.5373 10.0131 -0.264426
73.6418 10.1629 -0.269417
52.7362 15.9542 0.110493
31.4228 14.2146 0.0520105
87.7555 -8.36672 -0.682189
87.8063 -8.23937 -0.683142
87.8243 -8.10754 -0.683059
87.8602 -7.9786 -0.683996
87.8405 -7.90813 -0.682922
87.8386 -7.77419 -0.681817
87.8776 -7.64457 -0.682756
87.9412 -7.5186 -0.683725
87.9792 -7.38888 -0.684664
88.0795 -7.26781 -0.687673
88.2506 -7.15325 -0.69276
88.379 -7.03315 -0.695799
88.4685 -6.97629 -0.698847
88.5176 -6.84575 -0.699797
88.5337 -6.71271 -0.699711
88.6655 4.18763 -0.985437
88.6424 4.32082 -0.98531
88.7145 4.46903 -0.98927
75.9853 2.71455 -0.481567
88.1577 13.941 -1.05339
73.6818 10.0311 -0.46756
50.788 6.48892 0.342189
50.7503 6.48488 0.343224
50.6585 6.60526 0.340411
49.7456 17.8681 -0.0509636
15.6337 17.5831 -0.623197
15.8519 17.3085 -0.610633
-17.3269 -13.6487 -1.70049
-17.1225 -13.7127 -1.69375
81.035 -11.6667 -0.727841
81.2653 -11.6097 -0.736034
79.6176 -3.78062 -0.818304
79.6209 -3.67437 -0.818225
79.6245 -3.62145 -0.818188
79.6498 -3.51554 -0.819132
79.6681 -3.40988 -0.82007
79.6743 -3.30394 -0.819994
79.7056 -3.19866 -0.820945
79.7188 -3.09347 -0.820878
79.7502 -2.98719 -0.822828
79.7484 -2.88141 -0.821744
79.7581 -2.82813 -0.822713
79.7824 -2.72211 -0.823656
79.7383 -2.29506 -0.821282
79.7245 -2.189 -0.820186
79.7412 -2.13547 -0.821161
79.7847 -2.02946 -0.823124
80.4163 -1.43188 -0.851311
80.4782 -1.3228 -0.85429
80.5675 -1.21161 -0.858296
80.6345 -1.10108 -0.86128
84.8155 3.70197 -1.06586
84.8555 3.83248 -1.0688
73.9723 9.97516 -0.658901
47.72 20.8471 -0.286588
45.9324 26.2837 -0.51856
45.4868 23.2256 -0.384463
16.4148 17.2508 -0.801255
15.8775 17.2013 -0.819742
69.8434 -14.1929 -0.508312
74.0493 9.94396 -0.837004
61.1512 5.96576 -0.155844
45.5007 23.4525 -0.541302
-10.0158 -8.0249 -2.04865
50.2987 -18.4367 -0.148539
76.1824 -5.87016 -0.847393
76.1627 -5.81879 -0.846333
74.2032 9.86136 -1.03823
74.2085 9.9684 -1.04115
34.3888 -17.0127 -0.346123
63.364 -15.8582 -0.568951
71.642 -7.24188 -0.796794
71.9071 -1.96626 -0.917996
71.9339 -1.88463 -0.918961
71.9336 -1.80214 -0.918897
71.9248 -1.76199 -0.918857
73.6354 7.75665 -1.12327
73.5971 7.84117 -1.12216
73.1467 9.00531 -1.1208
73.1221 9.09542 -1.12171
73.1005 9.1862 -1.12262
73.0854 9.28033 -1.12353
73.0471 9.36485 -1.12342
72.9709 9.43329 -1.12029
65.0195 12.3731 -0.771869
50.8276 13.5085 -0.284437
-3.02226 10.1146 -2.33783
19.812 -15.4645 -1.07698
19.8987 -15.4717 -1.07307
61.4275 -15.7227 -0.58786
61.5524 -15.7018 -0.592972
70.2012 -9.28194 -0.88089
70.741 8.4083 -1.1548
67.2535 13.6101 -1.11521
65.0399 12.0835 -0.929114
56.7748 12.7437 -0.546127
28.45 18.3589 -1.09474
68.4271 -0.352296 -0.970182
66.6501 12.9965 -1.18206
65.2715 12.0881 -1.06035
62.1813 13.8003 -0.962857
52.1421 13.2663 -0.496972
45.8163 25.6822 -1.30491
50.5124 7.42059 -0.12681
44.1796 14.2617 -0.585038
57.0269 -14.1698 -0.624149
66.6464 6.6906 -1.23492
63.9935 10.795 -1.20103
63.974 10.8675 -1.20296
28.5089 17.4508 -1.49451
47.871 -17.5618 -0.639375
44.4292 15.771 -0.911129
44.1249 13.2087 -0.681794
22.1102 -8.01241 -1.51459
22.2836 -8.00873 -1.49876
64.5496 5.88679 -1.28939
64.7259 6.03198 -1.31146
58.4615 13.1601 -1.22454
48.9809 13.4165 -0.824614
45.9007 22.2603 -1.65363
44.4779 16.3914 -1.0847
44.382 15.8012 -1.02806
44.3264 15.7981 -1.029
53.4842 -13.6956 -0.665149
44.9416 19.2537 -1.49297
44.6616 17.251 -1.28623
44.4677 16.1925 -1.17884
44.4271 15.9715 -1.15597
44.3847 15.7899 -1.13807
44.329 15.7858 -1.13802
44.3021 15.7696 -1.136
44.1039 14.9448 -1.05243
44.0631 14.8164 -1.04049
59.8878 -6.61071 -0.839252
47.8798 12.8036 -0.937958
45.2845 18.8382 -1.58564
45.1858 18.8467 -1.58653
45.1195 18.8467 -1.58747
44.7245 17.2293 -1.41131
44.6479 17.4838 -1.43903
44.4711 16.1882 -1.29785
44.4328 15.9599 -1.27299
44.3871 15.823 -1.25905
44.3298 15.8331 -1.25998
44.269 15.8757 -1.26588
44.1899 15.8128 -1.25885
57.1806 -11.3681 -0.926145
45.2433 17.5232 -1.56161
45.2124 17.5355 -1.56357
45.1508 17.5421 -1.5635
45.0878 17.5648 -1.56642
45.0264 17.5643 -1.56736
44.9644 17.5679 -1.56729
44.9028 17.5745 -1.56922
44.8399 17.5791 -1.56916
44.7779 17.5918 -1.57108
44.7466 17.6001 -1.57304
44.6907 17.4995 -1.56106
44.6442 17.2419 -1.53122
44.4784 16.2106 -1.41284
60.7525 -4.37746 -1.06342
60.7476 -4.32867 -1.06137
60.7512 -4.30491 -1.06136
60.7621 -4.25881 -1.06233
44.7296 17.1856 -1.63535
44.5742 17.2374 -1.64215
44.5112 17.2692 -1.64706
44.4479 17.2981 -1.65097
44.3949 17.1961 -1.639
44.3097 16.4227 -1.5455
43.7279 7.01272 -0.420167
33.6901 13.2064 -1.65809
43.7582 7.07088 -0.474153
43.7431 7.0041 -0.466189
43.7249 6.96685 -0.527199
48.6478 10.4495 -1.38656
48.6301 10.4635 -1.38753
39.8876 -5.36811 -1.27478
39.8892 -5.39141 -1.2778
49.1326 -7.08017 -1.10558
-13.505 11.5067 -20.639
-13.4959 11.3086 -20.6212
48.4076 -1.88487 -0.390831
48.4304 -1.85914 -0.400834
48.3423 -2.8202 -0.408485
44.8826 -0.56602 -0.105198
44.8547 -0.534886 -0.122145
45.0833 -0.835824 0.00538855
45.1442 -0.830229 -0.0016696
45.1676 -0.874971 0.0202719
45.046 -0.731245 -0.0794926
45.1048 -0.832053 -0.0266306
45.0955 -0.825026 -0.0316156
45.0712 -0.797298 -0.0485694
45.0462 -0.767476 -0.0655207
45.0058 -0.711875 -0.0974365
44.9598 -0.652654 -0.131344
44.9964 -0.715894 -0.0984298
44.9877 -0.711958 -0.101418
45.0026 -0.742709 -0.0864569
44.9572 -0.686579 -0.118367
44.9777 -0.825561 -0.0614953
45.0625 -0.946245 0.00532469
44.922 -0.828685 -0.0754406
44.6316 -3.51191 -0.237213
47.2111 -3.17175 -0.161596
47.2548 -3.28998 -0.230732
47.2258 -3.25976 -0.211679
47.189 -3.21866 -0.18561
-69.5499 -15.3765 0.361085
