ply
format ascii 1.0
element vertex 604
property float x
property float y
property float z
end_header
105.088 11.0971 2.74321
54.6664 15.3005 1.32174
46.7342 22.4167 1.37486
46.7881 22.8386 1.38678
46.8486 23.288 1.39956
46.9119 23.7572 1.41324
46.9762 24.2374 1.42686
24.6777 18.8953 1.42334
21.9066 20.2856 1.51622
9.62651 20.9302 1.85014
9.51075 20.8726 1.85263
9.37716 20.8287 1.8561
9.1354 20.864 1.8634
7.9941 21.0436 1.89979
7.74689 21.0744 1.90712
10.0164 16.166 1.76969
9.939 16.0888 1.7712
9.59422 15.7359 1.77753
9.50243 15.6661 1.78004
-1.46548 20.616 2.18322
-3.12021 20.9232 2.23901
-25.9119 31.3539 3.08157
-29.5083 31.4364 3.19819
1.99627 15.885 2.02164
2.09844 15.6968 2.01632
-28.6706 29.7372 3.15452
2.20831 14.4685 2.00186
2.16751 14.418 2.00218
2.11578 14.3033 2.00282
-4.84154 15.4338 2.24408
-6.8662 15.4748 2.31183
-4.3052 13.3838 2.21164
-32.9348 20.6882 3.23022
-30.1353 -15.8143 3.23875
-27.3913 -16.222 3.14831
-27.7062 -16.5122 3.16229
-6.93276 -14.9509 2.42149
15.9773 -9.365 1.55467
14.3229 -16.8259 1.75385
14.2291 -16.9388 1.75856
18.4381 -15.8647 1.60732
22.0279 -15.7025 1.49957
22.1114 -15.7222 1.4975
24.8602 -15.7295 1.42518
82.3747 -21.7302 2.28623
113.143 -29.3429 3.32195
113.12 -29.2012 3.31834
113.263 -28.9895 3.31906
114.208 -26.8099 3.31301
114.28 -26.5705 3.31175
114.662 -26.4339 3.32037
115.406 -22.9987 3.29283
115.478 -22.8888 3.29417
104.64 -17.7559 2.89224
104.679 -17.5466 2.89118
104.708 -17.3344 2.88913
104.739 -17.1233 2.88708
104.74 -17.014 2.88557
104.792 -16.8079 2.8855
104.801 -16.5918 2.88247
104.847 -16.3842 2.88141
104.88 -16.1742 2.88036
59.6326 -4.03111 1.33162
54.6346 15.2746 1.17392
46.7926 22.5953 1.21891
46.852 23.0328 1.22875
46.9112 23.4803 1.23953
46.977 23.9543 1.25019
-27.8926 30.6374 2.66778
-29.3343 30.6728 2.70642
-31.4419 25.5254 2.73264
71.9449 -20.0501 1.71768
113.121 -28.9216 2.81202
114.317 -26.965 2.81352
114.333 -26.7063 2.81028
104.081 -17.9245 2.45111
104.145 -17.7225 2.45004
104.172 -17.5112 2.448
104.193 -17.2992 2.44596
104.239 -17.0935 2.44491
104.268 -16.8833 2.44387
104.279 -16.7769 2.44235
104.366 -16.3641 2.44025
104.398 -16.1551 2.43921
104.476 -15.9565 2.43912
115.298 8.06905 2.21249
114.778 8.2464 2.20167
114.238 8.4176 2.18992
105.707 10.8507 2.01214
95.1419 16.2326 1.80252
46.7482 22.4201 1.09682
46.802 22.841 1.10474
46.9013 23.2757 1.11251
46.9641 23.74 1.12021
47.0255 24.2104 1.12889
62.3624 -19.2062 1.36039
63.0074 -19.2795 1.37248
114.359 -26.7748 2.43754
108.943 -18.7476 2.24049
46.7908 22.6131 0.908827
46.8486 23.0446 0.912693
46.9148 23.5136 0.917367
46.9738 23.9691 0.922119
56.3962 -19.006 1.07707
92.1824 -22.6837 1.52058
96.9693 -23.4403 1.5868
113.48 -25.753 1.81346
115.209 8.03532 1.23481
91.6346 8.41537 1.04396
46.7821 22.6303 0.778762
46.8447 23.0815 0.781526
46.9101 23.5515 0.783197
46.9751 24.0286 0.785836
39.9143 16.6744 0.747043
22.9666 -9.49722 0.900664
45.5081 -12.032 0.814616
76.5569 -17.4248 1.06638
76.6224 -17.3134 1.06573
98.2163 -20.6554 1.25532
97.0134 7.96479 0.678585
46.7765 22.398 0.602858
46.834 22.8255 0.601744
46.8952 23.2728 0.601529
46.9576 23.733 0.600252
47.0412 24.2696 0.599575
-30.2007 27.5854 0.88555
45.8214 -17.8364 0.770195
99.3461 -23.8454 0.841052
98.0846 -20.5631 0.821134
103.633 -17.9485 0.812077
103.649 -17.7361 0.81105
103.788 -17.1223 0.807904
103.781 -16.9047 0.806898
103.831 -16.7014 0.805849
103.865 -16.4947 0.804814
103.852 -16.384 0.804321
104.656 -15.9177 0.80257
116.536 -17.6476 0.825525
87.7976 9.75866 0.425135
69.2158 10.6897 0.483981
60.8279 14.4041 0.491925
56.5494 12.5324 0.516029
44.8382 17.2585 0.520709
44.7783 17.2731 0.520758
39.5872 16.8882 0.534675
76.8478 -17.1477 0.586512
108.357 -25.0629 0.512194
98.6494 -20.4116 0.525321
98.6874 -20.2173 0.524336
103.538 -17.6802 0.497
103.494 -17.2383 0.495017
103.494 -17.0234 0.494009
103.517 -16.8147 0.493986
103.585 -16.616 0.492924
103.603 -16.4058 0.491903
103.631 -16.3049 0.491377
104.566 -15.8688 0.485512
118.652 0.407014 -0.143184
104.891 6.45703 -0.0397112
103.436 6.69545 -0.0269924
97.8505 7.88455 0.0203212
91.4724 9.44086 0.0734591
44.7879 17.1722 0.39721
51.0004 -18.5391 0.541392
114.848 -23.1563 -0.0193922
112.1 -20.5152 -0.000408479
112.487 -20.369 -0.00384716
103.811 -17.6984 0.0715477
104.338 -17.7218 0.0666304
103.179 -17.0045 0.0755289
103.201 -16.7957 0.0755073
103.249 -16.5942 0.0744706
104.656 -16.4908 0.0602439
104.206 -16.0637 0.0631214
104.523 -15.9182 0.0598209
93.0803 4.5704 -0.248863
77.4205 9.37978 -0.0368764
46.7162 22.1534 0.175116
46.7872 22.6198 0.166793
46.8246 22.993 0.159972
46.9052 23.5087 0.149399
46.9561 23.9418 0.141271
44.7822 17.1882 0.277145
92.7919 -21.5872 -0.167768
97.0781 -4.75234 -0.670987
76.4811 8.91065 -0.290852
46.8145 22.4819 -0.00661644
46.8536 22.8529 -0.0164304
46.9264 23.3382 -0.0288457
46.98 23.768 -0.0399639
37.1023 25.4804 -0.0387392
36.9658 25.012 -0.0272789
36.8826 25.0136 -0.0271244
36.024 18.3762 0.142643
-31.9614 29.5329 -0.979166
-39.2679 -14.396 -0.799148
80.3049 -20.1494 -0.297175
103.791 -17.8072 -0.804914
96.2201 -12.8638 -0.635318
88.9568 -5.99668 -0.739335
89.0485 -5.6878 -0.74196
89.0964 -5.37388 -0.744524
89.09 -5.21462 -0.744258
89.1201 -5.13806 -0.745675
89.1696 -4.98295 -0.747498
89.216 -4.82755 -0.749316
89.2605 -4.67098 -0.751137
89.309 -4.51478 -0.752963
89.3156 -4.35671 -0.753716
89.3651 -4.2006 -0.755544
89.3913 -4.12268 -0.75596
89.389 -3.96279 -0.756704
89.3615 -3.8026 -0.756401
89.366 -3.64435 -0.757152
89.1835 -3.4779 -0.752576
89.3452 -3.3251 -0.757606
96.2704 1.46945 -0.975562
94.9684 1.84452 -0.940782
74.628 2.74302 -0.379351
73.5218 2.94438 -0.350138
78.0526 8.23666 -0.52476
77.9839 9.20299 -0.534153
46.3261 19.6314 -0.0473127
46.7042 22.2354 -0.127248
46.8058 22.6739 -0.1415
40.9604 13.0576 0.19494
30.6888 14.1351 0.132905
-30.5692 29.1068 -1.33789
-30.3828 26.8424 -1.29964
74.4177 -18.9753 -0.372204
74.5519 -18.9023 -0.374808
74.6458 -18.8095 -0.376425
77.1621 -18.1356 -0.436486
77.2177 -18.0875 -0.43782
77.3492 -18.0012 -0.44148
76.0303 -17.2962 -0.403212
83.4899 -13.1773 -0.586044
85.9074 -13.1831 -0.651728
85.8146 -13.0029 -0.649391
87.7048 -11.8535 -0.699459
87.9252 -11.7392 -0.705424
88.2201 -10.4328 -0.713119
86.6178 -9.6002 -0.668896
88.0735 -9.13484 -0.709913
88.8116 -6.2213 -0.733999
81.8146 -5.36379 -0.797384
81.856 -5.23103 -0.798086
81.8982 -5.09935 -0.799785
81.9007 -4.96301 -0.800429
81.9081 -4.82812 -0.801075
81.9265 -4.69324 -0.801743
81.93 -4.55699 -0.802388
81.9172 -4.48853 -0.802684
81.9247 -4.35264 -0.802335
81.9301 -4.21757 -0.802978
81.9466 -4.08252 -0.804643
81.932 -3.9466 -0.804251
81.9544 -3.81209 -0.804925
81.9869 -3.67751 -0.806619
82.015 -3.61182 -0.807981
82.0314 -3.47676 -0.808646
82.0479 -3.3417 -0.810311
82.0634 -3.20555 -0.810979
82.4934 -2.05821 -0.830191
82.6765 -1.92345 -0.836179
82.8095 -1.78709 -0.842078
82.9363 -1.71944 -0.846641
83.0383 -1.58123 -0.850488
83.2108 -1.44248 -0.856474
83.4004 -1.3023 -0.8645
83.5218 -1.16185 -0.868394
83.6713 -1.02099 -0.874346
83.9683 -0.805352 -0.885935
84.104 -0.662206 -0.89087
84.2429 -0.517348 -0.896819
84.3496 -0.372535 -0.900705
84.4705 -0.226022 -0.905627
84.5965 -0.0789718 -0.910562
84.9005 0.147069 -0.922213
85.1214 0.299426 -0.931357
85.3253 0.453351 -0.938476
85.4336 0.604043 -0.943393
85.546 0.756358 -0.948325
85.613 0.905838 -0.951156
85.8867 1.1417 -0.961794
86.0498 1.29938 -0.968851
86.4673 1.62341 -0.985182
86.6964 1.78907 -0.994405
86.9711 1.95856 -1.00473
87.0337 2.11547 -1.00759
88.125 2.4286 -1.04718
87.4956 3.534 -1.03414
87.5748 3.69641 -1.03805
75.8907 8.43779 -0.696492
61.7656 11.6758 -0.302132
48.7345 19.4402 -0.207111
48.7043 19.461 -0.20715
46.2445 18.8451 -0.151472
46.3029 19.2062 -0.165277
46.3297 19.4869 -0.174644
40.3479 -17.6026 0.201757
40.3992 -17.6013 0.200651
57.6784 -19.1841 -0.132607
68.3495 -18.4251 -0.417958
68.4156 -18.3398 -0.419487
68.5131 -18.2725 -0.421992
71.1596 -17.3736 -0.492361
69.0501 -15.5703 -0.410697
71.501 -14.8853 -0.481682
71.4976 -14.5847 -0.479083
71.7967 -14.5862 -0.488659
80.2446 -9.66782 -0.744162
81.501 -7.98606 -0.784489
81.5135 -7.85063 -0.785148
81.6101 -7.72798 -0.78791
81.6493 -7.59703 -0.7896
81.6786 -7.46415 -0.79028
81.6682 -7.32562 -0.789908
81.647 -7.18508 -0.789526
81.6611 -7.1191 -0.789862
81.6378 -6.97937 -0.789471
81.6443 -6.84339 -0.789121
81.6418 -6.70659 -0.789757
81.6105 -6.56712 -0.788349
81.6537 -6.43554 -0.79005
81.7515 -6.31099 -0.793824
81.8304 -6.25098 -0.796259
81.8944 -6.12232 -0.798986
81.7765 -5.42857 -0.796006
78.0921 8.25968 -1.03095
76.3953 8.4041 -0.966321
77.5149 8.82905 -1.01649
61.8371 11.7135 -0.478451
46.2092 18.7141 -0.286791
46.2715 18.9875 -0.299193
46.3263 19.3439 -0.31497
46.3591 19.6451 -0.327445
46.4128 20.0107 -0.343262
29.4662 22.3451 -0.431178
29.4443 22.1834 -0.424378
62.854 -18.6677 -0.456115
63.0254 -18.562 -0.459944
63.089 -18.4936 -0.461388
63.2575 -18.4408 -0.465964
63.7 -18.0628 -0.474597
76.0645 -9.60604 -0.854308
76.3011 -9.53445 -0.863105
76.2829 -9.46951 -0.862374
76.7681 -7.72267 -0.877502
76.7098 -7.59177 -0.874002
76.6942 -7.46681 -0.873556
76.6597 -7.3401 -0.872083
76.648 -7.2165 -0.871639
76.6837 -7.1003 -0.873253
76.7001 -7.04256 -0.873555
76.73 -6.9248 -0.874165
76.7549 -6.80759 -0.875763
76.768 -6.68728 -0.875352
76.7145 -6.55884 -0.873849
76.7205 -6.43888 -0.873423
76.7007 -6.31554 -0.872962
76.7003 -6.25525 -0.873244
76.6775 -6.13163 -0.871778
76.6766 -6.01104 -0.872341
76.6567 -5.8887 -0.870876
76.6269 -5.76444 -0.8704
76.6717 -5.64907 -0.872028
76.7682 -5.53946 -0.875729
76.8283 -5.48576 -0.878098
76.8751 -5.37057 -0.879729
73.1129 -2.10029 -0.938718
73.1168 -1.99219 -0.939232
74.7104 0.627388 -1.02861
74.8016 0.745506 -1.03334
75.8154 1.97352 -1.09007
75.8962 2.09862 -1.09481
75.3933 7.42698 -1.13679
75.2918 7.52371 -1.13305
75.2076 7.62385 -1.13135
75.1521 7.73039 -1.12974
75.1266 7.84621 -1.13124
75.0917 7.95788 -1.13069
75.0614 8.01088 -1.13088
59.8292 10.4651 -0.52069
61.8639 11.7133 -0.636504
46.2248 18.5585 -0.408094
46.2531 18.833 -0.420435
46.3033 19.1717 -0.43712
29.5024 22.2818 -0.579954
29.474 22.1368 -0.57322
60.2616 -17.6029 -0.511052
60.3768 -17.5844 -0.514363
64.6899 -13.1976 -0.609318
71.4846 -7.72544 -0.863194
70.3088 -0.127291 -0.999497
70.3804 -0.0254479 -1.00411
70.5051 0.129742 -1.01108
70.9365 0.757731 -1.03887
71.0382 0.815627 -1.04434
71.1447 0.925299 -1.05106
71.2471 1.03435 -1.05677
71.3487 1.14547 -1.06349
71.4199 1.25338 -1.06813
71.4608 1.36007 -1.07071
72.4643 2.72756 -1.13707
72.0575 7.2226 -1.17934
72.104 7.34584 -1.184
62.6621 11.5616 -0.820351
62.5171 11.579 -0.81415
59.8236 10.2219 -0.651542
59.8299 10.3991 -0.657384
61.91 11.6712 -0.789398
46.2258 18.5929 -0.531259
46.258 18.8781 -0.546657
46.2992 19.1946 -0.56422
29.6077 22.0646 -0.713144
29.5214 22.1749 -0.720492
29.4857 22.0487 -0.713831
-20.5992 -6.65697 -2.20979
55.6113 -18.6803 -0.510944
55.6819 -18.6447 -0.512249
55.7497 -18.6057 -0.513563
59.9652 -15.9885 -0.612039
60.0388 -15.941 -0.614404
60.1064 -15.9382 -0.616549
60.2273 -15.8248 -0.619316
60.929 -14.2234 -0.615185
67.2692 -11.4308 -0.872623
67.4309 -11.3875 -0.880141
62.4295 11.5461 -0.979827
62.5383 11.7028 -0.990773
59.8222 10.3719 -0.808244
46.2107 18.5183 -0.662882
46.2787 18.7992 -0.68033
43.5116 17.1987 -0.535439
-11.1117 -6.4348 -2.07332
65.9547 -8.85491 -0.958129
67.0216 3.49526 -1.19906
67.0832 3.59702 -1.20366
67.1357 3.69762 -1.20923
67.3594 5.80175 -1.26053
67.3365 5.89122 -1.2609
67.2714 5.96953 -1.25814
67.2669 6.06332 -1.25957
62.3957 11.6068 -1.12405
62.2484 11.6214 -1.11583
62.155 11.6651 -1.11185
62.1708 11.7711 -1.11638
46.2171 18.5684 -0.77913
46.2398 18.8263 -0.796383
46.2959 19.1856 -0.820175
43.6081 17.2345 -0.640796
19.7181 17.7067 -1.08146
-4.63521 14.3337 -2.20523
65.5522 5.62223 -1.33717
65.4598 5.68799 -1.33229
61.6047 11.3726 -1.25341
50.5071 5.82657 -0.353796
46.2057 18.6982 -0.936718
46.2423 18.998 -0.958194
46.3221 19.32 -0.982858
53.5022 -15.3409 -0.70548
53.5631 -15.3114 -0.707737
54.0417 -13.6591 -0.666409
61.6406 -2.50132 -1.07349
61.6102 -2.42821 -1.07077
61.6408 -2.35773 -1.07316
61.6543 -2.28668 -1.07452
61.6517 -2.25028 -1.07469
61.6532 -2.17912 -1.07502
53.6404 6.89239 -0.670898
50.4493 5.87676 -0.419919
49.4415 6.13144 -0.367148
49.4117 13.5504 -0.794849
46.2333 18.6068 -1.03635
46.2629 18.8852 -1.05771
46.3228 19.2531 -1.08655
46.3445 19.5212 -1.10685
52.0595 -13.8863 -0.658482
59.9298 -8.59791 -1.00059
61.0016 3.09509 -1.23146
61.0197 3.17174 -1.23385
61.0685 3.25459 -1.23934
61.0906 3.33187 -1.24274
61.1159 3.40987 -1.24716
61.1607 3.49308 -1.25263
61.1902 3.5737 -1.25607
48.1858 12.2986 -0.768596
46.1235 18.0702 -1.12962
46.2444 18.6864 -1.18274
6.47387 9.8071 -2.09667
6.52606 9.6758 -2.08915
50.2742 -14.9958 -0.734808
50.3266 -13.8595 -0.674232
50.1689 13.3911 -1.04858
50.1191 13.3736 -1.0444
50.0218 13.3424 -1.03707
46.2131 18.5221 -1.29091
46.2691 18.7709 -1.31419
46.3167 19.1038 -1.34384
46.3434 19.3834 -1.3682
34.1423 14.915 -0.88549
50.1108 13.3508 -1.15228
50.0156 13.3204 -1.14495
49.9727 13.3123 -1.14183
49.8969 13.3073 -1.13666
49.8488 13.3408 -1.13672
46.1326 17.7901 -1.34833
46.1231 17.9496 -1.36206
46.0782 18.2037 -1.38316
43.3673 17.1806 -1.21108
52.9659 12.1771 -1.37135
52.947 12.2451 -1.37463
52.8806 12.2653 -1.3716
52.8608 12.3334 -1.37488
52.812 12.371 -1.37396
52.7711 12.418 -1.3751
52.7445 12.4345 -1.37412
52.6626 12.439 -1.36898
52.6106 12.4739 -1.36805
52.5641 12.5144 -1.36715
46.1261 17.9406 -1.49302
46.2033 18.5298 -1.55293
46.1937 18.6983 -1.5687
51.4447 12.0269 -1.36568
51.3921 12.0549 -1.36371
50.7112 12.8184 -1.37896
50.6676 12.8576 -1.37906
50.6306 12.9031 -1.3812
50.5927 12.9498 -1.38234
50.5411 12.9787 -1.38138
45.8477 17.3494 -1.54871
45.8187 17.3621 -1.54871
45.7674 17.405 -1.55181
45.7123 17.4392 -1.55287
42.8484 12.4004 -0.930675
35.1417 7.7735 -0.428978
45.4639 16.3112 -1.5521
45.4182 16.3605 -1.55524
45.3644 16.3866 -1.55626
45.3336 16.3904 -1.55522
44.2298 7.98334 -0.678672
34.4237 14.8936 -1.40594
46.8622 -11.258 -0.88067
46.9224 -11.2686 -0.885738
46.99 -11.2869 -0.892784
34.5159 14.7959 -1.57367
51.6574 1.89558 -1.17863
48.2986 9.85784 -1.41139
48.2888 9.88184 -1.41348
48.2658 9.92712 -1.41565
48.2315 9.95739 -1.41673
48.1927 9.98406 -1.41578
48.163 10.0209 -1.41689
48.1321 10.0559 -1.41899
44.6269 15.9319 -2.0407
44.557 15.9032 -2.03343
44.4911 15.8862 -2.02822
44.5025 16.108 -2.05928
44.4397 16.1027 -2.05613
44.3766 16.0935 -2.05197
44.3422 16.0796 -2.04883
47.9194 -8.0627 -0.931699
47.3859 9.008 -1.39063
49.0564 2.70316 -1.21435
47.4058 -7.69388 -1.09743
45.8296 8.03011 -1.46902
44.8401 7.81804 -1.4391
47.029 -3.24221 -1.23155
-13.9375 11.4142 -18.4476
-13.9483 11.2415 -18.4358
-14.1746 11.1194 -18.5018
-14.0153 10.9062 -18.4301
37.8499 0.0749576 -0.197189
37.7284 -2.82806 -0.178353
65.1841 3.29913 -11.0467
65.2084 3.38919 -11.0652
65.2092 3.47444 -11.0726
65.2223 3.56255 -11.086
38.0759 -0.221382 -0.0692398
38.1122 -0.164631 -0.102577
38.1518 -0.236387 -0.0653174
38.1458 -0.235846 -0.0673084
38.0775 -0.180616 -0.121435
37.8644 0.147425 -0.301558
38.0805 -0.191912 -0.116387
38.0808 -0.199956 -0.11335
38.0375 -0.145913 -0.14452
38.0159 -0.118894 -0.160604
37.9761 -0.0701828 -0.188755
37.9737 -0.0749784 -0.188728
37.9835 -0.0989249 -0.176635
37.9784 -0.100463 -0.177618
37.984 -0.116004 -0.169556
37.8745 0.0272319 -0.252014
38.0204 -0.277688 -0.0998684
37.9894 -0.298929 -0.0997084
37.6845 -2.86671 -0.283088
75.4275 6.58738 -17.0181
75.4399 6.83113 -17.0493
40.2533 -2.61506 -0.282272
40.2567 -2.61135 -0.282296
40.1535 -2.51215 -0.215559
1.15033e-41 0 -4.91532e-30
