ply
format ascii 1.0
element vertex 529
property float x
property float y
property float z
end_header
113.262 8.67251 3.04037
112.697 8.85366 3.02245
90.2853 8.72191 2.32672
88.892 13.1589 2.28448
57.3081 14.8986 1.38766
46.2278 19.0377 1.22704
35.8135 17.0589 1.08939
16.8044 20.1498 1.42548
16.5973 20.2664 1.43315
16.4839 20.2657 1.43543
16.449 20.1723 1.43418
16.058 20.5018 1.44979
16.0428 20.4519 1.44918
16.0919 20.2572 1.44445
14.5383 21.1489 1.49986
14.4198 20.385 1.48859
14.2888 20.3909 1.49187
14.1449 20.4098 1.49608
14.0029 20.4277 1.5003
13.8625 20.4403 1.50355
13.7174 20.4574 1.50778
17.2263 15.4842 1.3317
17.0902 15.5126 1.33583
16.9762 15.518 1.33907
3.9396 21.633 1.79813
3.54964 21.6253 1.80913
1.12289 22.2354 1.88967
0.40595 20.5829 1.89218
0.165601 20.6611 1.90021
-1.83785 20.7613 1.96335
-2.5802 20.8963 1.98819
-28.8571 34.3125 2.95236
-25.2733 32.0588 2.81672
-26.9998 32.6428 2.87775
-27.6675 32.5046 2.89835
-27.9198 32.3901 2.90478
-27.159 31.4849 2.87238
-26.0123 30.5146 2.82751
-26.3363 30.4432 2.83681
-26.2747 30.1701 2.83261
1.25472 15.8369 1.81894
-0.572485 16.6351 1.88468
-0.4186 16.2159 1.8763
0.878636 15.4397 1.82768
0.844142 15.3262 1.82757
1.07246 13.8802 1.80932
0.99973 13.8501 1.81171
-34.0123 28.2623 3.07397
-4.43203 15.4175 2.00372
-30.6102 26.2003 2.94741
-4.02867 14.7517 1.98649
-4.12649 14.3705 1.98744
-3.89021 13.517 1.97495
-5.07938 13.8296 2.01661
-36.4174 21.9425 3.12584
-36.3892 21.8107 3.12471
-36.5692 21.624 3.13047
-39.5407 -16.1494 3.43884
-31.9853 -16.4513 3.17566
-16.1779 -14.9568 2.59565
-15.7948 -15.0197 2.58317
-15.4845 -16.2034 2.59185
-22.8867 -20.4463 2.92305
-5.33397 -17.966 2.27779
17.6741 -9.13855 1.32706
17.7407 -9.17017 1.32512
17.7738 -9.21807 1.32538
17.8939 -9.22203 1.32212
19.634 -8.92818 1.2588
16.6757 -10.8224 1.39748
17.6135 -10.3666 1.35696
17.6096 -10.4375 1.35847
12.6488 -15.5022 1.6396
8.76435 -19.4203 1.86094
8.81977 -19.5021 1.86139
9.01731 -19.4794 1.85475
20.1707 -11.6073 1.31059
20.082 -15.4283 1.42504
20.1495 -15.449 1.42402
20.1522 -15.5375 1.42665
20.2295 -15.5489 1.42554
82.1001 -36.1104 2.74903
81.8778 -35.7178 2.73277
81.9486 -35.5411 2.72934
82.0968 -35.5332 2.73292
68.9041 -20.0147 1.99632
101.044 -17.2258 2.88653
101.085 -17.0134 2.88492
101.11 -16.7978 2.88232
101.16 -16.5882 2.8807
101.153 -16.4753 2.87891
101.178 -16.2596 2.87632
101.214 -16.0468 2.87472
101.224 -15.8279 2.87113
101.285 -15.6203 2.8705
113.224 8.55453 2.53428
112.672 8.7377 2.52032
106.007 10.6725 2.34869
74.088 8.73903 1.56886
73.7447 8.78649 1.56135
73.3972 8.83128 1.55288
-28.6786 34.5763 2.49103
-32.7716 34.84 2.60108
-25.8527 30.4038 2.3909
-3.76882 16.67 1.72418
-3.89633 16.5842 1.7271
-3.81401 13.861 1.71431
-3.86514 13.813 1.71577
-39.9112 -18.4429 3.00207
-23.8076 -23.0515 2.60884
4.72304 -18.7942 1.75028
42.0081 -17.2249 1.19665
43.8559 -17.6557 1.23024
86.977 -22.0388 2.18992
100.539 -16.7558 2.43139
100.565 -16.5412 2.4288
100.604 -16.3307 2.42721
100.61 -16.2218 2.42641
100.692 -15.8022 2.42222
100.966 -15.4235 2.42386
113.48 8.5266 2.16485
112.908 8.70837 2.15294
89.2773 13.3182 1.6674
89.3843 13.5321 1.66861
89.279 13.6893 1.66675
46.2822 19.0343 0.967924
113.342 8.58376 1.55876
112.781 8.64024 1.55072
88.5056 13.4602 1.22624
22.1146 21.2038 0.862077
100.525 -23.979 1.67587
101.573 -24.1049 1.69023
102.723 -24.2582 1.70553
103.873 -24.4036 1.72178
105.075 -24.5603 1.73798
106.332 -24.852 1.75601
110.253 -25.3541 1.80908
100.11 -17.2994 1.59528
105.141 -18.3047 1.66825
113.402 8.49152 1.15126
112.816 8.67151 1.1464
107.256 10.3229 1.09412
106.162 10.6153 1.08469
46.2444 18.96 0.669537
22.1217 21.3287 0.732167
22.0922 21.2157 0.732043
74.5101 -17.1507 1.06129
87.1853 -22.0101 1.20218
96.4686 -20.3948 1.25116
96.4693 -20.1801 1.24963
112.636 8.57001 0.595546
42.6715 12.6715 0.538007
44.2506 15.6823 0.522723
35.5568 15.1967 0.537269
22.1639 21.2246 0.555801
92.6759 -22.8633 0.815933
97.3221 -23.5864 0.823817
105.08 -24.7389 0.837214
110.269 -25.4157 0.846451
96.2782 -20.3934 0.797597
100.041 -17.2194 0.774854
100.071 -17.0071 0.77227
100.103 -16.7961 0.770687
100.141 -16.5865 0.769103
100.165 -16.3738 0.767528
100.186 -16.1598 0.765952
100.204 -16.0549 0.765162
100.242 -15.8453 0.763576
101.387 -15.4385 0.760901
91.1676 9.0725 0.305025
88.0359 13.3106 0.285422
47.906 16.4342 0.412497
44.2844 15.8022 0.429784
65.4374 -19.546 0.604353
74.7622 -16.9786 0.552442
102.327 -24.141 0.492622
96.7703 -20.0912 0.487242
99.8433 -17.1421 0.455775
99.8374 -16.9229 0.454227
99.8561 -16.7087 0.452655
99.8541 -16.4908 0.451107
99.8768 -16.2779 0.449536
99.8994 -16.0661 0.447972
99.9771 -15.8668 0.446363
100.025 -15.7685 0.445545
100.507 -15.4392 0.44103
90.2683 8.50824 -0.0487834
35.7135 16.3051 0.339986
31.5969 13.4767 0.391124
22.9963 19.7719 0.297125
22.17 21.1468 0.276333
74.4898 -17.1848 0.279565
74.6142 -17.0878 0.277571
104.333 -24.0348 0.0159867
99.6393 -21.3627 0.0503314
103.871 -21.8401 0.0104681
107.535 -22.434 -0.0231866
109.561 -22.6401 -0.0426317
110.831 -22.7445 -0.0549701
100.464 -18.9095 0.0298515
100.06 -17.3659 0.025832
100.604 -17.1692 0.0191107
99.4951 -16.2494 0.0252464
100.704 -16.0908 0.0121833
100.306 -15.6735 0.0141749
100.445 -15.4863 0.0115044
101.018 -15.3914 0.00543823
77.6688 8.22772 -0.191231
56.7212 11.0424 0.104527
55.4231 15.1886 0.0621309
49.5213 19.2119 0.065778
39.4572 29.073 -0.0520806
39.365 29.0997 -0.0520474
35.4459 14.3851 0.273313
-39.0695 24.528 -0.488256
74.3479 -17.2563 0.0144103
74.4491 -17.1493 0.0134024
74.5414 -17.1128 0.0119185
75.1828 -17.2192 0.00212078
88.7723 -21.5849 -0.199737
84.9509 -17.0253 -0.150956
95.0323 -17.2899 -0.310526
69.8313 4.91587 -0.283627
55.4948 15.1983 -0.126118
51.0331 21.0776 -0.17819
49.5246 19.2314 -0.111374
49.4366 19.2477 -0.110277
46.6533 16.3905 -0.000165166
46.5824 16.4064 -0.000106511
59.1821 -19.35 0.0241109
76.5389 -20.5361 -0.337544
76.6745 -20.4369 -0.340579
76.7899 -20.3281 -0.342635
76.9179 -20.2243 -0.345684
77.0856 -20.1379 -0.348707
77.214 -20.1145 -0.352186
74.2367 -17.2352 -0.284479
87.5314 -15.9669 -0.580768
89.2993 -13.9693 -0.62529
89.3841 -13.8068 -0.627654
88.8485 -13.5014 -0.615531
92.4836 -9.87081 -0.711219
92.4325 -7.07304 -0.72303
84.234 -5.16398 -0.798751
84.3049 -4.85379 -0.802133
84.2671 -4.69211 -0.802193
84.2806 -4.61396 -0.802783
84.3136 -4.45817 -0.804973
84.3256 -4.30063 -0.806125
84.3735 -4.14607 -0.808342
84.4505 -3.12095 -0.815834
84.4324 -2.96293 -0.816916
84.4506 -2.80489 -0.818086
87.3198 -0.31598 -0.916782
90.4517 3.53976 -1.03885
90.4171 3.71522 -1.03902
59.7918 5.11733 -0.189711
58.4802 5.04265 -0.151997
55.7763 5.49399 -0.0846529
70.2322 13.0053 -0.593248
70.0221 12.9877 -0.587612
69.8683 13.0576 -0.584738
51.4983 6.03191 0.0228929
49.5361 19.2284 -0.242385
49.4616 19.2617 -0.241441
35.4306 14.4954 0.0825594
56.176 -19.0925 -0.0634354
80.0768 -12.6976 -0.659985
83.1307 -11.9268 -0.745887
82.7324 -9.22654 -0.74016
82.7027 -9.06453 -0.740243
83.9425 -7.03522 -0.78171
83.9534 -6.8786 -0.782853
84.1581 -5.63229 -0.79423
84.2199 -5.47989 -0.796466
84.2528 -5.32409 -0.798656
77.6613 -4.64396 -0.873518
35.4473 14.4452 -0.008126
24.4001 18.6825 -0.219531
75.6591 -7.91931 -0.794321
77.7491 -5.82526 -0.871313
77.8311 -5.6956 -0.874436
77.8733 -5.56164 -0.876493
77.8916 -5.4247 -0.878513
77.672 -4.78231 -0.873557
72.409 -4.12697 -0.946465
72.3969 -4.00555 -0.946301
72.2838 -0.938756 -0.959878
72.4173 -0.878609 -0.965631
72.5768 -0.757419 -0.972881
72.7174 -0.634661 -0.980097
72.8279 -0.5124 -0.985237
72.9314 -0.388564 -0.99037
73.0129 -0.264898 -0.994449
73.1206 -0.140396 -0.999598
73.6807 0.43211 -1.02804
73.835 0.562763 -1.03534
73.9733 0.693749 -1.04161
74.0943 0.761946 -1.04739
74.1904 0.891425 -1.05255
74.9802 6.79176 -1.15451
74.92 6.91316 -1.15322
74.8624 6.96812 -1.15148
74.8031 7.08843 -1.15119
74.7327 7.20767 -1.14987
61.4587 4.584 -0.577964
56.1586 6.45644 -0.399447
54.2238 13.6371 -0.508922
72.4129 -6.68304 -0.940261
72.4328 -6.62449 -0.940727
72.4766 -6.50772 -0.942665
72.5243 -6.39227 -0.944603
72.5453 -6.2716 -0.945514
72.5434 -6.14903 -0.946383
72.5336 -6.02479 -0.946244
72.489 -5.89765 -0.944042
72.4593 -5.77176 -0.943867
72.4385 -5.70782 -0.943272
72.4425 -5.58674 -0.943145
72.387 -5.33628 -0.941794
72.3631 -5.21288 -0.940616
72.3989 -5.09544 -0.942539
72.4617 -5.04046 -0.946083
72.5313 -4.92684 -0.949062
72.5454 -4.80559 -0.94996
72.5782 -4.68791 -0.951878
68.8329 -0.115455 -1.03038
69.2236 0.446048 -1.05333
69.3103 0.560243 -1.05835
69.3894 0.618879 -1.06296
69.4682 0.733734 -1.06797
69.5751 0.850257 -1.07406
69.6853 0.968524 -1.08017
69.8125 1.08737 -1.08733
69.9409 1.20813 -1.0945
70.2188 1.51011 -1.11032
70.2524 1.62571 -1.11323
70.3519 1.74787 -1.11934
70.4623 1.87013 -1.12548
70.5901 1.99595 -1.13269
70.5765 2.10947 -1.13346
70.6953 2.23604 -1.14065
70.8487 2.30756 -1.14853
70.9383 2.43255 -1.15364
71.0138 2.55571 -1.1587
71.0883 2.67994 -1.16377
71.1598 2.80443 -1.16883
71.2425 2.931 -1.17393
71.9263 3.78515 -1.21668
72.0419 3.92102 -1.22393
72.1048 4.05024 -1.228
71.1565 6.01042 -1.21267
71.079 6.1162 -1.21023
71.0187 6.22456 -1.20886
70.9778 6.27612 -1.20813
70.9564 6.39229 -1.2089
59.8997 4.6262 -0.672487
43.8003 13.8761 -0.317339
61.3616 -12.7967 -0.69689
66.8581 -6.58377 -0.911495
65.4152 -2.62187 -1.03323
65.3963 -2.52296 -1.03189
65.3944 -2.42447 -1.03259
65.4065 -2.32713 -1.03331
65.3727 -2.22699 -1.03294
65.3598 -2.12858 -1.03261
65.3348 -2.03018 -1.03125
65.3369 -1.98118 -1.0316
65.319 -1.88236 -1.03126
65.3261 -1.78462 -1.03298
65.3281 -1.68746 -1.03368
65.3373 -1.58888 -1.0344
65.3193 -1.49106 -1.03405
65.3404 -1.39348 -1.0358
65.3264 -1.34415 -1.03512
65.3335 -1.24641 -1.03683
65.3276 -1.14858 -1.03651
65.3397 -1.05126 -1.03824
65.2527 -0.611553 -1.03716
65.2015 -0.417649 -1.03542
65.2036 -0.320487 -1.03611
65.1926 -0.223248 -1.03678
65.26 -0.123504 -1.04065
65.251 -0.0745957 -1.04098
65.2833 0.0240601 -1.04376
65.3497 0.123887 -1.04764
67.9981 5.67775 -1.25964
67.8809 5.76476 -1.25497
67.8304 5.8091 -1.25317
59.8447 4.68083 -0.821747
59.5829 4.70564 -0.808288
35.4565 14.3691 -0.288614
28.6353 17.5107 -0.490462
-26.4969 -1.97562 -2.29095
-9.81439 -13.3557 -1.4973
52.3779 -18.2467 -0.576265
53.6479 -16.7977 -0.58967
55.2821 -16.2803 -0.647322
63.5226 1.82282 -1.15731
63.676 1.97861 -1.16779
63.7415 2.07851 -1.17367
63.797 2.17924 -1.17752
66.0416 5.49997 -1.36163
59.7894 4.68221 -0.985627
41.702 12.7629 -0.405321
35.7166 16.2404 -0.507585
-16.9115 4.22971 -2.21641
-16.9049 4.06662 -2.21427
-16.4252 -6.67324 -2.1149
60.8644 -3.2407 -1.10378
60.8255 -3.15317 -1.10131
51.0025 5.77835 -0.611116
46.7858 16.3981 -0.885566
46.7253 16.371 -0.882226
37.2667 13.5487 -0.434163
-10.1364 14.3043 -2.30263
-11.5518 5.40834 -2.19081
-10.1391 -6.41373 -2.015
-8.85525 -7.91137 -1.94144
47.3602 -18.0461 -0.639527
47.4165 -18.0086 -0.63993
47.4774 -17.9755 -0.641314
53.1781 -12.5353 -0.735906
51.4561 5.92722 -0.773281
50.7784 5.77603 -0.723559
44.7225 7.17127 -0.403804
44.7369 7.23628 -0.407302
44.7174 7.32818 -0.41091
44.734 7.395 -0.415426
44.7268 7.41668 -0.415563
44.7219 7.46723 -0.417912
44.7612 7.55424 -0.424627
28.0318 8.97682 -0.266185
51.6125 5.77006 -0.870543
45.7772 12.5455 -0.842667
45.6806 12.5174 -0.835233
54.4296 -10.1294 -1.01909
54.4831 -10.0767 -1.0216
54.665 -9.66128 -1.025
55.6882 2.77351 -1.23309
55.7409 2.85239 -1.23878
55.7815 2.93028 -1.24343
55.8363 2.97486 -1.24888
55.8667 3.05058 -1.2535
57.4763 6.55609 -1.47738
57.4709 6.63579 -1.47994
57.4634 6.71467 -1.48148
38.1523 16.8881 -1.11812
44.2854 -15.1284 -0.813864
45.871 15.7966 -1.43508
38.2294 16.8037 -1.22171
25.7477 14.2094 -1.09295
25.7317 14.1255 -1.08632
50.8254 5.09833 -1.33786
43.3107 13.7667 -1.3464
50.8919 -3.84889 -1.19027
50.9013 -3.79648 -1.19066
50.9254 -3.74732 -1.19207
44.2869 13.0528 -1.45268
38.7479 16.7841 -1.58384
38.4606 16.829 -1.58046
38.3584 16.7693 -1.57079
38.2014 16.8606 -1.57706
30.2113 13.8768 -1.21341
38.1819 15.9841 -1.58277
28.059 8.94233 -0.831021
38.2747 -13.8813 -0.895174
38.4137 -13.8989 -0.902386
38.7638 14.8323 -1.55797
38.2319 15.0619 -1.56832
43.7785 -10.501 -1.01061
43.7868 -10.4495 -1.007
43.9053 -10.4474 -1.0183
43.9253 -10.437 -1.01942
31.706 -13.3247 -0.996212
31.7798 -13.3549 -0.998175
31.8667 -13.2145 -0.978386
26.8094 11.8638 -1.75883
26.786 11.8597 -1.75975
26.7431 11.8392 -1.7605
26.7031 11.8164 -1.76024
26.6585 11.799 -1.76101
26.6166 11.7774 -1.76075
37.6695 10.3711 -1.58253
37.6504 10.3707 -1.58148
36.0674 7.82135 -1.07546
36.6993 10.1544 -1.60263
36.6641 10.1663 -1.60363
36.6254 10.1585 -1.60048
36.586 9.78035 -1.61269
36.5682 9.78383 -1.61268
36.5462 9.84577 -1.62407
35.1349 9.06551 -1.64108
35.0839 9.00892 -1.72356
34.9872 8.9919 -1.7172
34.9564 9.00748 -1.72024
34.9245 9.01012 -1.72018
39.4191 -6.02145 -1.26096
39.4354 -6.00674 -1.26111
-14.1766 11.2455 -16.9455
-14.2074 11.0915 -16.9413
-14.2333 10.9362 -16.9361
37.8939 -16.0528 -4.78989
33.1374 0.441957 -0.247753
83.2098 6.83869 -21.1004
83.1325 6.98373 -21.0782
83.0451 7.12763 -21.052
33.3626 0.154282 -0.122246
33.4066 0.20161 -0.149691
33.451 0.118962 -0.108209
33.4461 0.120365 -0.109207
33.3701 0.185424 -0.169488
33.1441 0.52588 -0.358371
33.3785 0.165735 -0.159368
33.377 0.159845 -0.158322
33.3324 0.215486 -0.190611
33.3105 0.242268 -0.206749
33.2569 0.310643 -0.246108
33.2508 0.309138 -0.247082
33.2637 0.283078 -0.233927
33.264 0.274048 -0.230864
33.276 0.249066 -0.217714
33.1526 0.409128 -0.310558
33.3085 0.0953327 -0.151696
33.283 0.0663676 -0.147428
35.1844 -10.364 -3.77482
35.567 -2.22844 -0.324621
35.5675 -2.22145 -0.322672
35.4874 -2.14821 -0.272998
