ply
format ascii 1.0
element vertex 544
property float x
property float y
property float z
end_header
143.197 -4.02186 4.00153
137.177 4.19991 3.75692
133.562 6.69353 3.62146
103.258 14.158 2.53804
103.276 14.317 2.54057
92.5545 24.6209 2.35591
96.142 28.406 2.5353
96.0417 28.511 2.53447
73.4892 10.2945 1.52967
73.3503 10.3333 1.52789
73.1879 10.3846 1.52496
73.0226 10.3796 1.52121
44.6203 17.5338 1.75669
44.4629 16.44 1.73579
44.448 16.327 1.73311
44.4594 16.2507 1.73143
39.2206 16.8676 1.84802
38.6658 17.0732 1.86373
38.2398 17.297 1.87598
37.5471 17.2555 1.88991
27.365 18.6455 2.14591
25.2705 18.798 2.19868
24.931 18.9187 2.20869
28.1051 15.1081 2.0797
27.9602 14.8973 2.08076
6.72792 20.7957 2.69484
6.63199 20.7315 2.69662
19.0459 -9.08341 2.27228
23.6492 -9.40256 2.14171
25.1123 -10.0142 2.10462
25.4435 -10.0863 2.0954
25.5859 -10.1862 2.09241
25.5898 -10.3089 2.09386
19.7852 -12.0297 2.276
19.8901 -12.1526 2.27391
21.6347 -11.9012 2.22111
6.96086 -15.1643 2.67257
-5.3615 -17.784 3.05067
13.8567 -16.8657 2.49544
14.0094 -16.9933 2.4936
8.46872 -19.1695 2.67455
5.94948 -20.0496 2.75596
16.0779 -18.8812 2.45977
43.899 -10.6417 1.5788
44.0372 -10.6642 1.57552
32.2645 -19.2947 2.03017
-7.21419 -38.6177 3.40089
30.197 -20.5518 2.10598
30.3367 -20.6139 2.10385
30.3659 -20.6645 2.10416
30.4863 -20.735 2.10196
9.28108 -33.9507 2.89296
43.0142 -17.0314 1.71603
63.6551 -19.2286 1.50529
132.703 -42.8096 4.07447
132.529 -42.4285 4.06033
133.509 -40.846 4.06333
133.902 -40.7712 4.07589
134.244 -40.668 4.08512
133.796 -38.6406 4.03196
138.843 -30.0174 4.0702
139.097 -29.8402 4.07776
138.879 -29.5023 4.06456
138.539 -29.1262 4.04668
138.73 -29.0592 4.05233
138.943 -28.8671 4.05764
139.636 -28.8305 4.08272
126.624 -20.4253 3.49109
126.64 -20.2185 3.48944
126.686 -20.02 3.48896
126.621 -19.7927 3.48387
126.638 -19.5871 3.48223
126.686 -19.4938 3.48212
126.707 -19.2897 3.48051
126.711 -19.0812 3.4788
103.251 14.1128 2.26116
103.29 14.282 2.26275
112.024 39.186 2.80018
92.3706 24.4825 2.09054
96.4114 28.6156 2.25381
92.2564 24.639 2.09046
33.2654 17.5325 1.75312
8.09115 15.721 2.23888
20.765 -8.72214 1.94597
-3.43542 -18.9663 2.57271
8.69339 -19.0437 2.30614
12.9371 -20.7632 2.2328
18.4061 -19.4503 2.09954
9.93824 -29.993 2.42317
9.7441 -30.2948 2.43132
92.3122 -22.5607 2.07564
133.586 -28.3155 3.3839
138.771 -29.8451 3.56226
138.623 -29.5312 3.55347
138.861 -29.3488 3.55894
139.27 -29.2227 3.56939
139.385 -29.1289 3.5716
124.972 -20.5943 3.02903
125.001 -20.3953 3.02746
124.985 -20.2881 3.02602
125.009 -20.0884 3.02443
125.011 -19.8838 3.02272
125.012 -19.6788 3.02001
125.051 -19.4833 3.01951
125.066 -19.2825 3.01787
125.072 -19.0794 3.01619
125.073 -18.9775 3.01484
125.348 -18.8385 3.02263
138.245 -20.0657 3.43965
103.221 13.9629 2.05354
111.955 39.1848 2.49286
96.6943 28.7164 2.04276
96.6601 28.8889 2.044
98.0829 30.5343 2.09384
92.1893 24.7651 1.89871
33.2343 17.5485 1.57791
139.256 -29.8055 3.20036
139.301 -29.5553 3.19869
139.01 -29.1952 3.18809
124.727 -19.0528 2.7095
124.749 -18.8549 2.70791
124.734 -18.6477 2.70611
125.053 -18.622 2.7145
111.486 37.1226 1.98089
98.729 30.7268 1.73516
97.9432 30.1611 1.71949
97.8729 30.3064 1.71866
22.5568 -10.1209 1.40515
51.9628 -11.713 1.12688
139.005 -29.2457 2.58723
129.322 -21.1933 2.33725
129.459 -21.0087 2.33924
130.989 -21.2882 2.3703
125.791 -18.5165 2.25054
129.438 -18.8183 2.32349
140.369 -19.3705 2.54004
122.85 -14.2567 2.16504
123.439 9.84274 1.78955
89.1525 11.2967 1.30669
97.1395 29.2447 1.45797
95.6736 27.9812 1.4366
88.3503 -18.6936 1.39677
88.3767 -18.657 1.39677
129.285 -21.2759 1.99036
110.839 34.3638 1.21752
22.861 -15.6229 0.925772
39.3446 -17.0698 0.961159
77.6005 -20.492 1.13027
128.27 -27.8762 1.54072
134.674 -28.846 1.59376
135.888 -29.0143 1.60397
137.056 -29.159 1.61288
138.281 -29.3148 1.6231
139.394 -29.4254 1.63164
128.272 -20.6373 1.50843
128.283 -20.4249 1.50774
124.216 -18.7942 1.46921
125.674 -18.6325 1.4794
140.281 -19.4011 1.59572
110.299 33.3405 0.933589
110.344 33.619 0.931821
105.388 -24.5027 1.13396
109.055 -21.2131 1.13545
108.931 -21.0866 1.13543
124.256 -20.5035 1.18136
124.315 -20.3149 1.18098
124.324 -20.1131 1.18031
124.333 -19.9124 1.17965
124.328 -19.8097 1.17927
124.311 -19.6023 1.17947
124.345 -19.4082 1.17895
124.374 -19.2133 1.1784
124.388 -19.0143 1.17777
124.377 -18.8098 1.177
126.044 -18.4866 1.18059
97.5511 11.1908 0.750947
97.4777 11.286 0.750274
110.31 33.2914 0.553806
110.326 33.5457 0.55199
119.905 41.576 0.469289
119.66 41.6702 0.468824
111.307 36.7468 0.523348
66.9229 17.7264 0.704279
134.335 -28.6348 0.763437
135.421 -28.885 0.761339
136.643 -29.0495 0.757573
137.972 -29.2433 0.754404
139.267 -29.4171 0.75101
123.826 -20.0318 0.783715
123.818 -19.8276 0.783962
123.833 -19.6309 0.783347
123.829 -19.5282 0.782967
123.873 -19.3385 0.782507
123.902 -19.1447 0.782966
123.964 -18.9596 0.781609
124.134 -18.7997 0.780833
126.086 -18.5482 0.774995
141.911 -2.89172 0.201562
139.821 -2.44799 0.219331
138.357 -2.24638 0.231851
109.418 35.3109 0.16761
109.357 35.5094 0.164635
76.5174 12.161 0.651154
43.7295 -3.25223 0.565177
88.7055 -18.4418 0.702524
88.7613 -18.3688 0.702528
115.886 -25.9547 0.465634
126.767 -26.9521 0.371505
127.55 -22.2514 0.368705
128.778 -22.3775 0.357835
124.241 -20.5985 0.398609
124.305 -20.4116 0.398251
124.7 -20.3118 0.394731
123.597 -19.8197 0.403904
123.587 -19.6163 0.404148
123.546 -19.4055 0.405222
124.649 -19.3796 0.395242
124.218 -18.8692 0.398458
124.131 -18.6469 0.39928
124.707 -18.5829 0.394726
125.875 -18.4458 0.383654
140.161 -4.55988 -0.308721
140.243 1.46277 -0.335385
140.726 1.74198 -0.344125
113.914 1.52602 0.0924779
113.877 1.6019 0.0930426
111.3 36.6042 -0.296203
110.996 36.6016 -0.293599
-1.6123 -13.6553 -0.712459
114.339 -21.2602 0.113061
115.398 -20.4495 0.0991361
117.726 -20.347 0.0635548
123.969 -17.8628 -0.0292165
124.129 -17.6996 -0.032044
121.742 -11.0168 -0.292456
131.692 -1.78603 -0.528636
104.488 6.66218 -0.0101198
98.3351 8.12923 0.0982636
90.3811 10.8959 0.210766
88.2992 9.82158 0.26588
76.5406 12.1873 0.399165
62.6944 17.576 0.291217
104.292 -22.7988 0.0279138
112.708 -10.9968 -0.39436
112.664 -10.8341 -0.39313
112.655 -10.6762 -0.392724
112.772 -10.5352 -0.395675
112.666 -9.6618 -0.392218
112.695 -9.50931 -0.393618
112.731 -9.35793 -0.393978
112.75 -9.20403 -0.394429
112.752 -9.12653 -0.394691
112.767 -8.97207 -0.395162
112.745 -8.81456 -0.394811
112.724 -8.65705 -0.394459
112.692 -8.49899 -0.393161
112.664 -8.34149 -0.392842
112.744 -8.19231 -0.39499
112.693 -8.03357 -0.393782
112.705 -7.95746 -0.393994
112.705 -7.8019 -0.394538
112.746 -7.65024 -0.395876
112.749 -7.49509 -0.396405
112.749 -7.34052 -0.395947
112.699 -7.18305 -0.394726
113.228 -6.20135 -0.411709
117.613 -3.2479 -0.540722
121.13 -1.021 -0.647222
121.22 -0.653032 -0.652089
98.3529 4.27235 -0.0721804
108.171 30.3226 -0.77675
108.259 30.6161 -0.785369
78.3764 9.65045 0.313529
90.2523 22.5704 -0.23763
76.5315 12.1539 0.276238
62.7471 17.5298 0.16362
62.6773 17.5508 0.162224
62.7568 14.4626 0.272384
62.695 14.5259 0.269877
-13.6603 -9.38803 -1.88218
-13.4028 -11.1978 -1.87066
94.7248 -18.0645 0.0430686
96.1748 -17.925 0.00829471
108.427 -15.1396 -0.289705
112.897 -11.5759 -0.400461
112.841 -11.4094 -0.398304
112.774 -11.2425 -0.396194
105.563 -9.96984 -0.477037
105.56 -9.90281 -0.476283
105.548 -9.76678 -0.475815
105.526 -9.63034 -0.475394
105.584 -9.50424 -0.476565
105.652 -9.37856 -0.478688
105.746 -9.25651 -0.481679
105.784 -9.12649 -0.48296
105.701 -8.91688 -0.480074
105.626 -8.775 -0.477917
105.577 -8.63577 -0.47563
105.605 -8.50534 -0.476959
105.606 -8.37325 -0.476413
105.625 -8.24156 -0.476787
105.655 -8.11155 -0.478101
105.684 -8.04786 -0.479193
107.572 -3.93576 -0.550815
107.691 -3.796 -0.555754
107.826 -3.6565 -0.560617
109.172 -2.49639 -0.61144
109.326 -2.34654 -0.617248
109.44 -2.19802 -0.62124
109.615 -2.04601 -0.627961
109.762 -1.89405 -0.633812
109.896 -1.74239 -0.639719
110.026 -1.66173 -0.644401
110.004 -1.51723 -0.645008
95.4179 8.35529 -0.273041
109.981 31.9129 -1.23594
110.063 32.2133 -1.2456
110.138 32.5086 -1.25629
111.866 43.9363 -1.63122
90.4867 22.7476 -0.495169
76.5377 12.193 0.139127
62.7554 17.5838 0.019468
62.6883 17.5589 0.0192439
62.6523 17.5973 0.0179431
62.7416 14.522 0.147104
62.6829 14.5212 0.146835
-6.31036 8.881 -2.17598
1.4506 -11.4982 -1.73983
9.53083 -14.7278 -1.40212
101.239 -16.6759 -0.369625
101.382 -16.6567 -0.374029
101.366 -16.5211 -0.372578
101.602 -16.4666 -0.379676
101.787 -16.3938 -0.385073
106.197 -11.7692 -0.502815
105.702 -11.5448 -0.485889
106.359 -11.3832 -0.506411
105.642 -10.789 -0.480808
105.649 -10.6546 -0.481245
105.631 -10.5178 -0.479807
105.635 -10.383 -0.48026
105.597 -10.2433 -0.478923
105.586 -10.1074 -0.47745
100.591 -7.91355 -0.527247
100.582 -7.7952 -0.5267
100.605 -7.68132 -0.527991
104.826 0.934573 -0.732553
104.715 1.05235 -0.729481
94.9663 8.36905 -0.459184
95.1752 8.56776 -0.470911
109.87 31.5912 -1.57033
89.6937 16.0517 -0.477444
110.07 32.0962 -1.59217
90.8102 22.7558 -0.729703
90.53 22.6459 -0.718616
90.7497 22.9491 -0.735659
62.7602 17.5484 -0.108389
62.6914 17.5551 -0.10973
62.768 14.4907 0.0383343
-0.410313 10.6278 -2.33577
2.77556 -6.52445 -2.04708
4.71077 -7.65689 -1.95016
100.549 -10.685 -0.532757
100.451 -10.5489 -0.528686
100.423 -10.4248 -0.527249
100.436 -10.3085 -0.527594
100.43 -10.1885 -0.527042
100.429 -10.0702 -0.526458
100.434 -9.95269 -0.525847
100.41 -9.83011 -0.524387
100.397 -9.76974 -0.523657
100.393 -9.65095 -0.523093
100.416 -9.53608 -0.523386
100.414 -9.4187 -0.523804
97.8324 -3.06755 -0.622953
97.9412 -2.95567 -0.628841
98.0387 -2.84423 -0.633779
98.1304 -2.73195 -0.637747
98.2173 -2.67455 -0.642545
98.2928 -2.56201 -0.646589
99.4819 -1.03749 -0.71141
101.018 0.64098 -0.795162
101.281 0.795646 -0.809484
94.2313 0.250971 -0.485222
91.9768 4.16984 -0.441355
88.9586 15.4684 -0.620812
88.9358 15.5786 -0.623303
89.0528 15.7984 -0.63553
89.1052 15.9051 -0.64066
90.8694 22.8952 -0.95692
90.9518 23.1492 -0.969426
90.8035 23.1722 -0.965193
12.2936 4.56194 -1.94774
10.7266 -3.57598 -1.96856
12.4939 -6.16928 -1.86431
86.2918 -19.049 -0.263548
95.7021 -12.0942 -0.542277
95.1091 9.11419 -0.892133
91.1652 23.0133 -1.21597
20.1281 4.3054 -1.80256
90.4017 -14.7137 -0.525668
92.079 -11.1897 -0.560215
90.9232 23.1166 -1.41645
25.358 -8.14367 -1.60984
25.7436 -8.22329 -1.58478
88.7914 -3.27057 -0.678111
88.7905 -3.19166 -0.679391
88.7895 -3.11275 -0.679672
89.4371 6.67324 -0.90387
89.4343 6.76755 -0.907213
89.4637 6.87548 -0.912454
89.4438 6.96313 -0.913852
89.4241 7.00227 -0.91408
86.8668 8.18576 -0.806055
86.7387 8.35131 -0.805227
86.694 8.42124 -0.805678
96.4148 28.4994 -2.20784
78.9523 11.7804 -0.567261
78.8835 11.8083 -0.565677
78.7971 11.8185 -0.563113
78.7141 11.8312 -0.559542
30.3187 -8.53486 -1.5175
75.3555 -17.965 -0.203977
78.9532 11.8466 -0.679491
78.9022 11.8437 -0.677716
59.5318 6.42691 0.041524
86.2554 6.34464 -0.994457
86.2749 6.43983 -0.998699
86.2587 6.47544 -0.998899
85.7481 7.35851 -0.999348
85.7257 7.43539 -1.00172
85.6573 7.48748 -0.99922
85.6436 7.56919 -1.00157
85.621 7.64509 -1.00294
91.1493 23.4886 -2.16172
78.999 11.8155 -0.825172
35.2225 -3.35049 -1.48391
84.4919 -0.980201 -0.789026
84.5347 -0.906465 -0.793085
84.5496 -0.836869 -0.79526
84.4698 6.87239 -1.02957
84.4159 6.92746 -1.02901
84.3928 6.9994 -1.03037
84.3608 7.06652 -1.03075
46.1257 7.80294 -1.01438
80.6455 -13.7464 -0.626228
79.7024 -12.4676 -0.512061
83.4005 6.0437 -1.04963
83.358 6.1002 -1.04902
83.3241 6.16053 -1.04939
83.2979 6.22583 -1.04974
83.2533 6.28162 -1.04914
83.2353 6.31143 -1.04933
83.2124 6.37828 -1.05067
89.0305 17.9616 -2.11722
82.1719 5.62431 -1.06885
82.1407 5.68224 -1.0692
82.0843 5.72657 -1.06661
82.075 5.79655 -1.0689
73.375 12.5089 -1.09164
73.2691 12.4461 -1.08091
80.2309 4.75102 -1.10479
64.3143 13.9407 -1.1366
68.3202 11.6595 -1.03008
68.3323 11.887 -1.05682
64.3214 13.8869 -1.24138
78.6078 3.87031 -1.10623
78.7076 3.95413 -1.12206
78.8955 4.11838 -1.15176
67.1886 11.4617 -1.07163
66.5025 10.6625 -1.14202
66.4177 10.727 -1.14863
61.7417 10.8719 -1.2768
61.6981 10.8356 -1.27187
61.6728 10.8422 -1.27401
62.1254 10.3714 -1.26227
73.291 5.28962 -1.12181
62.0257 9.80771 -1.28176
72.9894 4.78971 -1.17946
72.945 4.80407 -1.17671
72.8969 4.8139 -1.17297
72.8709 4.81557 -1.1701
72.8285 4.83064 -1.16735
72.7379 4.85456 -1.15985
61.9102 8.86055 -1.28299
61.8684 8.85836 -1.28417
61.8276 8.85504 -1.28435
61.8061 8.8601 -1.28547
61.7652 8.84971 -1.28562
62.1525 6.03016 -0.820969
61.9635 8.2359 -1.30456
61.9283 8.2015 -1.2996
62.1419 7.6189 -1.29958
62.1053 7.60993 -1.29871
62.0678 7.60916 -1.29989
62.0472 7.62015 -1.30202
62.0121 7.60087 -1.30011
61.9759 7.58781 -1.29824
67.7721 4.26387 -0.883775
62.112 7.21306 -1.3123
62.0769 7.20085 -1.31142
62.0408 7.20291 -1.31259
62.0045 7.19592 -1.31274
61.9959 7.13556 -1.30156
71.0471 -2.98432 -0.901284
65.0858 -10.291 -0.685355
65.1073 -10.2961 -0.688237
65.1237 -10.2802 -0.685217
65.1388 -10.3025 -0.691069
65.1501 -10.2647 -0.682149
65.1766 -10.2917 -0.690932
67.6995 -1.86033 -0.944714
62.7374 -2.64024 0.100051
45.7989 -2.77564 -6.81103
45.7721 -2.83044 -6.81996
45.7611 -2.88647 -6.82282
45.7602 -2.94289 -6.82062
45.7444 -2.99824 -6.8265
45.5846 -3.01627 -6.89418
45.9182 -3.09428 -6.74936
62.9265 -2.91306 0.211882
62.8435 -3.07089 0.249049
62.9785 -2.88208 0.191014
63.0155 -2.96192 0.230465
62.9992 -2.94148 0.219318
62.799 -2.64206 0.0373417
62.9486 -2.90113 0.175942
62.9499 -2.91341 0.180991
62.9343 -2.89509 0.169855
62.8955 -2.84223 0.139489
62.8766 -2.81939 0.126322
62.8312 -2.75553 0.0898881
62.8447 -2.78162 0.103042
62.8434 -2.79052 0.107067
62.8514 -2.81183 0.117179
62.8413 -2.80536 0.112109
62.7173 -2.6215 0.0098907
62.8877 -2.99548 0.19699
62.8312 -2.9815 0.176679
65.0151 -5.44556 0.00139864
64.9929 -5.41612 0.0181933
64.9858 -5.40197 0.024111
64.9965 -5.36105 0.0340181
-17.507 1.15033e-41 0
