ply
format ascii 1.0
element vertex 502
property float x
property float y
property float z
end_header
96.8543 13.3923 3.06078
-0.125505 20.6175 1.24525
-0.205549 20.5752 1.24648
-1.08842 20.6853 1.26862
-3.42364 21.1461 1.33133
-4.01859 21.1827 1.34597
-16.9213 29.1726 1.80123
-34.9841 40.3316 2.44334
-27.933 34.758 2.17429
-28.3148 34.8157 2.18586
-28.9934 30.7725 2.14989
-5.70371 15.313 1.3027
-5.03628 14.1166 1.27
-33.5499 29.1601 2.26249
-53.1524 31.079 2.86952
-31.3324 20.7245 2.12045
-33.294 21.1671 2.18436
-18.5497 -15.6004 1.87066
-18.2326 -16.492 1.87807
-20.4434 -17.6245 1.96733
-20.5909 -17.9129 1.97803
-17.1042 -18.3912 1.88269
-4.29619 -14.0193 1.40847
-1.41494 -14.3193 1.33592
-1.0812 -14.549 1.33237
0.156187 -14.6345 1.30217
0.556058 -14.7331 1.29385
4.7311 -14.3974 1.1808
4.73211 -14.4405 1.18206
4.79502 -14.4654 1.18222
4.95697 -14.3839 1.17577
5.01261 -14.4145 1.17497
5.1367 -14.3722 1.17074
5.25143 -14.3375 1.16756
5.3208 -14.3527 1.16667
90.3875 -15.7867 3.03282
90.4256 -15.6773 3.03218
90.4831 -15.4527 3.03085
90.5425 -15.2283 3.03052
90.5057 -14.9843 3.02605
90.583 -14.7646 3.02576
90.5987 -14.5321 3.02337
90.5967 -14.2958 3.01995
90.5872 -14.1762 3.01824
95.322 13.2647 2.51418
23.9677 15.949 0.804699
-29.2616 30.4895 1.79451
-38.2337 22.3464 1.95916
-49.8131 -18.7289 2.4692
-28.884 -19.086 1.93314
68.636 -20.4971 2.05298
88.9332 -15.5713 2.52319
88.8794 -15.3275 2.51872
88.8698 -15.21 2.51702
88.8893 -14.9826 2.51566
88.9208 -14.7579 2.51332
88.9819 -14.5394 2.51303
89.0084 -14.3144 2.51069
89.0527 -14.0923 2.50937
35.8391 19.6649 0.918202
56.8435 -19.1166 1.52901
63.2901 -19.4671 1.66959
41.8125 16.2472 0.773014
25.0464 18.1454 0.618806
78.0911 -20.7846 1.52787
82.009 -21.1368 1.58887
93.204 -16.6127 1.71139
94.8998 -16.4828 1.735
88.1102 11.9271 1.0885
70.1208 12.8727 0.902705
38.2691 16.7285 0.597318
24.8809 18.2226 0.518304
90.7587 -19.422 1.31862
38.3276 16.7367 0.415279
-30.7517 28.7973 0.425269
78.6778 -21.1377 0.770099
79.0097 -21.0399 0.770591
67.4543 -16.5412 0.702026
90.4944 -19.6672 0.798019
90.5183 -19.431 0.796612
87.9188 -15.726 0.762853
88.0155 -15.5183 0.761633
88.0756 -15.3018 0.761352
88.0891 -15.0762 0.759005
88.0913 -14.9622 0.758324
88.1256 -14.7406 0.757006
88.1648 -14.5201 0.755696
88.2279 -14.3048 0.754423
88.2205 -14.0752 0.753048
88.221 -13.848 0.751689
97.2061 7.92043 0.276538
70.4944 9.1728 0.302911
46.9926 16.2959 0.285905
28.0623 15.1049 0.31168
79.5135 -21.1872 0.468582
67.2923 -16.6483 0.459625
67.3859 -16.5085 0.45781
67.6717 -16.4316 0.457416
90.5311 -19.3967 0.445403
90.8913 -19.2492 0.443604
87.8973 -15.4597 0.426249
87.9098 -15.2331 0.424896
87.8459 -14.9909 0.423433
87.8544 -14.765 0.423084
87.8615 -14.6532 0.422417
87.8968 -14.4326 0.421106
87.9984 -14.2261 0.418894
88.0991 -14.0186 0.417675
88.2346 -13.8176 0.416504
88.7253 -13.6842 0.415819
93.1644 8.1457 -0.196746
75.9976 9.28227 -0.0744863
76.3321 9.52404 -0.0788556
-39.6532 25.7396 -0.240498
79.7812 -21.228 0.0568805
67.5097 -16.7554 0.13031
67.6605 -16.6343 0.12962
94.7949 -23.2048 -0.0448477
90.9031 -19.3246 -0.0309508
88.2477 -15.832 -0.0254514
88.1145 -15.5726 -0.0260338
88.5889 -15.4464 -0.0296797
87.6028 -14.7771 -0.0259098
87.4506 -14.5178 -0.0254958
87.5718 -14.4303 -0.0269913
88.4094 -13.9165 -0.0358721
88.3167 -13.6699 -0.0353682
98.3071 2.73513 -0.69121
97.5315 2.95628 -0.681711
94.1887 7.97033 -0.67147
54.5958 5.60743 -0.111423
10.0989 -0.409551 0.311351
78.111 -20.9157 -0.319378
78.3738 -20.7958 -0.323035
78.5687 -20.6516 -0.325853
67.4178 -16.69 -0.186108
67.6001 -16.5803 -0.188722
67.7115 -16.5304 -0.189995
79.6478 -18.6845 -0.343371
77.732 -16.1911 -0.323725
81.0401 -15.5095 -0.369043
85.5666 -16.0578 -0.428725
81.9777 -2.71701 -0.876354
90.9267 2.05019 -1.08982
90.0961 2.2499 -1.0742
58.862 10.5272 -0.503877
57.5652 14.7366 -0.530354
44.0228 16.4068 -0.305451
44.0303 16.5256 -0.30716
34.3797 25.2369 -0.349484
22.8001 19.4794 -0.110702
22.8372 19.9361 -0.123426
11.7018 21.3731 -0.175581
65.0776 -18.9371 -0.50321
68.2577 -17.538 -0.56385
68.4313 -17.4219 -0.566504
67.6272 -16.8 -0.550409
69.2017 -14.7057 -0.581575
68.4969 -14.0783 -0.567489
69.3814 -14.1524 -0.584843
71.564 -14.1255 -0.628503
79.0782 -13.7784 -0.779855
79.1924 -13.6045 -0.782869
79.2798 -13.4234 -0.784933
81.6863 -9.83407 -0.84185
81.7026 -9.63362 -0.843045
80.0685 -8.99319 -0.811251
79.2898 -8.49156 -0.79643
82.1363 -8.67769 -0.854664
73.0051 -1.46345 -0.975915
72.821 -1.28773 -0.972008
70.6377 3.19023 -0.945294
63.4993 11.2446 -0.843109
63.2723 11.3362 -0.838709
63.1253 11.4491 -0.836418
44.2916 15.7227 -0.453301
22.7687 19.5353 -0.216046
22.8284 20.111 -0.234476
56.217 -18.7026 -0.55065
56.3574 -18.6971 -0.553651
56.4346 -18.5875 -0.555288
56.5157 -18.4792 -0.555918
56.6692 -18.4052 -0.559325
60.4097 -16.4284 -0.639291
60.5238 -16.3206 -0.64191
59.7172 -14.323 -0.617043
61.4431 -14.2369 -0.659162
61.3594 -13.8376 -0.65557
62.0825 -13.4648 -0.673634
68.5202 -13.211 -0.832676
68.5846 -12.6404 -0.834074
69.7936 -12.2571 -0.86509
70.2462 -12.191 -0.876381
70.3264 -12.0375 -0.878281
70.6354 -12.0218 -0.886304
71.5484 -10.2262 -0.909835
73.0699 -9.53807 -0.949602
73.0293 -9.35499 -0.948706
72.9748 -9.16926 -0.94783
72.7464 -8.95644 -0.943155
72.4006 -8.81425 -0.934085
73.0306 -7.24979 -0.953298
65.8544 0.244333 -1.08277
65.9711 0.320997 -1.08721
66.0812 0.471049 -1.09108
66.2274 0.623421 -1.09696
66.3836 0.777328 -1.10284
66.585 0.93214 -1.11072
66.7344 1.08737 -1.11662
66.9339 1.24528 -1.12351
68.3766 2.30842 -1.17754
68.5415 2.47494 -1.1835
68.7609 2.56584 -1.192
68.986 2.73657 -1.19996
69.0898 2.90293 -1.20494
69.1957 3.06919 -1.20891
69.4642 3.24691 -1.21891
69.7348 3.42754 -1.22893
70.4047 3.88491 -1.25451
70.5942 4.06431 -1.26154
70.7676 4.24344 -1.26857
70.9674 4.42736 -1.27662
71.4335 4.63593 -1.29376
70.849 4.83227 -1.27707
39.8433 13.657 -0.466967
22.8025 19.7892 -0.345559
22.7616 19.9002 -0.349233
18.9064 14.4718 -0.129645
13.0765 15.7753 -0.207782
-41.8481 26.7064 -1.85981
50.0959 -18.1965 -0.624085
50.1945 -18.121 -0.626514
50.2277 -18.0735 -0.626791
50.3536 -18.0132 -0.629122
50.4377 -17.928 -0.630612
50.5207 -17.8428 -0.632103
50.5706 -17.739 -0.632713
51.2755 -16.8056 -0.644134
53.8589 -15.7973 -0.710572
53.199 -14.0918 -0.680925
62.7944 -10.7815 -0.959526
62.4581 -10.045 -0.948008
63.3487 -9.35963 -0.975903
63.6192 -8.75052 -0.983485
64.0974 -8.69265 -0.998721
64.3722 -8.5953 -1.00724
64.5279 -8.4744 -1.01193
64.6455 -8.4208 -1.01622
64.718 -8.28301 -1.01803
64.7467 -8.13819 -1.01889
64.687 -7.97825 -1.01786
64.6184 -7.81789 -1.01583
64.2914 -7.61549 -1.00512
63.7013 -7.30076 -0.987138
64.3561 -7.2561 -1.00725
63.6962 -6.7179 -0.987625
62.6903 -6.21766 -0.956848
65.2816 -6.42217 -1.03803
65.39 -6.28705 -1.04181
65.589 -6.16215 -1.04852
65.5362 -6.00453 -1.04647
65.574 -5.85913 -1.04833
65.7133 -5.72545 -1.0531
65.7357 -5.65241 -1.05353
65.7984 -5.50917 -1.05637
65.7565 -5.35406 -1.05531
65.6977 -5.19717 -1.05426
65.6359 -5.04013 -1.05222
65.593 -4.88597 -1.05115
65.6048 -4.73836 -1.05203
65.5724 -4.65977 -1.05151
65.5564 -4.50887 -1.05141
65.632 -4.36623 -1.05425
65.7237 -4.22533 -1.05707
65.8223 -4.08376 -1.06089
65.8302 -3.93396 -1.06179
65.5787 -3.0954 -1.05686
47.7736 11.9823 -0.864135
29.8529 16.1928 -0.43843
10.3845 17.9106 -0.446178
-27.5565 35.8826 -2.05242
-48.6632 -12.1675 -2.14386
-42.5306 -14.2619 -1.91392
-41.9045 -14.3167 -1.89045
-41.6152 -14.4472 -1.8796
-40.546 -14.6836 -1.83994
56.3379 -9.15152 -1.01276
56.5198 -8.94174 -1.01897
57.0373 -6.47708 -1.0356
59.0591 5.10676 -1.41843
59.2052 5.25611 -1.42729
46.5141 11.8485 -0.998627
36.0743 14.8883 -0.692202
-44.2625 33.576 -2.95648
-31.1484 25.215 -2.21444
-43.6833 -9.17051 -2.32465
-43.0717 -9.27974 -2.29786
-35.9291 -11.4845 -1.98702
-31.8448 -12.6295 -1.81323
-30.5625 -13.2151 -1.76043
-30.259 -13.2981 -1.74787
-30.0639 -13.4092 -1.74016
-29.8891 -13.5244 -1.73343
-29.7558 -13.6507 -1.72864
-29.6478 -13.7838 -1.72482
-29.3725 -13.8685 -1.71325
-29.2342 -13.9089 -1.70798
-29.0581 -14.0202 -1.70127
41.2281 -17.4474 -0.737605
41.2806 -17.3737 -0.738033
41.3697 -17.3288 -0.740282
41.427 -17.2584 -0.74069
41.5104 -17.2092 -0.742965
41.5783 -17.1473 -0.74332
41.6022 -17.1084 -0.743547
44.7124 -15.3167 -0.826551
44.7475 -15.2272 -0.826078
44.4592 -13.4747 -0.788626
45.3482 -11.8091 -0.802384
52.571 4.25935 -1.32185
52.6349 4.32244 -1.32621
52.6803 4.43844 -1.32989
36.1495 14.7809 -0.824545
26.7436 8.64757 -0.234009
26.7001 8.65761 -0.233079
26.8165 8.83835 -0.245133
49.6994 -7.36642 -1.13496
47.8979 2.76613 -1.25999
47.9163 2.86136 -1.26255
47.9428 2.95823 -1.26513
47.9804 3.05658 -1.26871
50.5548 7.50213 -1.48171
48.2469 10.7396 -1.4296
48.2275 10.8386 -1.4302
48.0281 11.1372 -1.42803
47.9832 11.2264 -1.42758
36.2037 14.8035 -0.97467
36.1862 14.8364 -0.975871
-32.1737 7.29514 -2.5215
45.9436 -8.96162 -1.14929
45.9519 -8.8689 -1.14884
45.9274 -8.81369 -1.14617
45.991 -8.73856 -1.14861
46.021 -8.65286 -1.15011
46.0075 -8.55412 -1.14771
45.7824 10.4161 -1.44723
45.7735 10.4626 -1.44751
45.7619 10.5572 -1.45008
45.789 10.667 -1.45473
45.7509 10.7519 -1.45525
45.7219 10.8393 -1.45578
45.6634 10.9161 -1.45525
45.6435 11.0071 -1.4568
45.5592 11.0231 -1.45192
45.5108 11.1024 -1.4514
45.4512 11.1772 -1.45086
45.3865 11.2493 -1.44931
45.3626 11.3405 -1.45086
36.2031 14.9199 -1.10437
26.0388 14.0495 -0.65649
-14.8944 -10.525 -1.67692
42.8061 -9.65622 -1.13085
45.7372 -2.71489 -1.2507
45.6934 -2.6668 -1.248
43.1913 -1.29076 -1.2688
43.2031 -1.25227 -1.27003
43.2027 -1.17417 -1.2705
43.1933 -1.09664 -1.26996
43.1779 -1.01784 -1.26944
43.1785 -0.939791 -1.26991
43.1551 -0.861614 -1.26838
43.1487 -0.783231 -1.26785
43.1235 -0.744012 -1.26609
43.0831 -0.66505 -1.26457
43.0647 -0.587105 -1.26304
43.0603 -0.509819 -1.2635
43.0509 -0.432295 -1.26297
43.0514 -0.35524 -1.26343
43.064 -0.277747 -1.26489
43.0738 -0.239165 -1.26612
43.0664 -0.161735 -1.26558
43.06 -0.084356 -1.26605
43.0575 -0.0071563 -1.26551
43.0252 0.224593 -1.26491
42.9986 0.340954 -1.26461
42.979 0.416941 -1.26407
43.1232 9.80329 -1.46318
43.1305 9.89603 -1.46673
43.1164 9.98177 -1.46825
43.0901 10.0611 -1.46873
43.0923 10.108 -1.47101
43.0363 10.1747 -1.46942
43.0386 10.2677 -1.47298
39.5711 16.4164 -1.51955
36.6433 15.1706 -1.30277
16.9274 15.2456 -0.734739
13.0396 18.5381 -1.02833
-19.8391 8.32318 -2.33081
40.676 -9.50284 -1.17426
43.1618 -1.36746 -1.26735
25.3519 14.1943 -0.836517
20.1685 16.404 -0.903926
14.6751 20.2622 -1.23127
32.8189 -13.1711 -0.924119
33.645 -12.0401 -0.923694
40.6698 7.4499 -1.50467
-13.4315 9.74657 -2.31985
-13.4246 9.63516 -2.31618
39.1309 6.31898 -1.47726
39.1505 6.39614 -1.48071
39.0304 8.64671 -1.5522
35.3303 14.2027 -1.56729
23.8504 8.74969 -0.52729
20.736 19.3611 -1.38549
20.6364 19.3067 -1.37919
37.7606 -5.91775 -1.27237
38.4704 -1.80821 -1.29179
38.4514 -1.74325 -1.29019
38.4563 -1.68041 -1.29056
38.4552 -1.61729 -1.28994
38.4627 -1.58561 -1.29113
38.4496 -1.52193 -1.28951
34.2152 13.6215 -1.58407
34.1882 13.6858 -1.58646
20.7732 19.3186 -1.49823
20.1629 16.2573 -1.19406
3.2957 16.8323 -1.77438
33.6214 12.5147 -1.59558
33.6088 12.5453 -1.59677
33.5721 12.5951 -1.59808
33.5365 12.6468 -1.59839
33.4904 12.6889 -1.59866
33.4526 12.7387 -1.59896
33.4222 12.7952 -1.60031
33.372 12.8346 -1.59955
33.3458 12.8528 -1.59867
33.3133 12.9073 -1.601
20.1255 16.2484 -1.29801
35.6625 8.42266 -1.63664
25.664 -12.9387 -1.03015
16.4884 18.3591 -1.75748
31.7913 10.6489 -1.65485
31.7478 10.683 -1.65306
31.7168 10.7275 -1.65433
31.6733 10.7615 -1.65255
15.1755 15.3669 -1.53088
30.7976 10.8509 -1.67828
30.7529 10.8811 -1.67647
21.5584 16.3827 -1.74749
31.2768 -3.01723 -1.33421
31.1805 -2.86952 -1.31812
31.1775 -2.82733 -1.31737
31.1387 -2.77745 -1.31068
21.9033 12.111 -1.75586
21.8884 12.1347 -1.75901
24.0438 5.54017 -1.54807
24.036 5.56754 -1.55123
17.4649 -6.48227 -1.46466
23.0917 -14.8985 -4.97209
23.094 -14.8263 -4.94952
23.1599 -14.8726 -4.97123
23.1907 -14.8128 -4.95558
-15.0006 11.2906 -12.4196
-14.9952 11.1713 -12.4029
-15.0173 11.0612 -12.3973
-14.9615 10.9257 -12.3614
-15.0605 10.842 -12.386
-15.0904 10.7353 -12.3823
20.9459 0.171662 -0.690651
17.3647 1.27009 -0.409039
17.3054 1.28673 -0.429152
18.8977 -2.03154 -0.436939
18.8411 -1.80511 -0.342305
18.8159 -1.69856 -0.297947
18.8106 -1.66119 -0.282171
17.5481 0.995971 -0.298355
17.6116 1.004 -0.305389
17.6402 0.952782 -0.279075
17.6146 0.983889 -0.297268
18.7183 -1.77657 -0.371504
17.4793 1.13067 -0.404179
17.5609 1.01216 -0.33845
17.5559 1.01138 -0.339446
17.5425 1.02596 -0.348537
17.5186 1.049 -0.36368
17.4616 1.11548 -0.403092
17.4235 1.15713 -0.42935
17.4458 1.12017 -0.409124
17.4474 1.11012 -0.405063
17.4564 1.08974 -0.394939
17.4306 1.11486 -0.412095
17.4327 1.00987 -0.373466
17.5283 0.891749 -0.302736
17.4165 0.963645 -0.361193
19.9526 -8.9305 -3.73949
19.9124 -8.54215 -3.56082
20.0167 -8.97266 -3.76422
19.8892 -1.35219 -0.530776
19.8393 -1.30465 -0.499071
19.8328 -1.2953 -0.494129
19.7787 -1.20744 -0.449666
33.1439 -3.6152 -1.35207
