ply
format ascii 1.0
element vertex 713
property float x
property float y
property float z
end_header
122.447 8.04126 3.25507
122.023 8.99167 3.24401
78.8351 9.08868 1.87791
97.603 17.5547 2.52801
74.1876 9.20056 1.73661
68.3808 13.5526 1.62448
45.8131 26.5913 1.60977
45.6271 25.3386 1.57028
45.3316 23.0134 1.49585
44.3655 16.3353 1.28116
36.5814 17.203 1.36117
33.6165 20.2249 1.49319
26.9546 19.1288 1.59103
26.7059 19.0353 1.59356
24.5489 20.5341 1.6801
24.3261 18.6197 1.64083
21.8091 19.8192 1.73044
21.7967 19.6968 1.72767
16.7135 20.2071 1.87431
16.1052 20.5632 1.89758
15.9636 20.5343 1.90084
16.0181 20.3478 1.89609
15.9246 20.2085 1.89647
15.8007 20.1658 1.89873
14.1145 21.3516 1.96913
14.6306 20.3626 1.93512
14.4183 20.3801 1.9414
14.224 20.456 1.94856
13.9919 20.4865 1.95585
13.0692 20.3668 1.98043
6.48368 20.7014 2.18061
9.86772 17.0843 2.02202
9.81635 16.9739 2.02129
9.31384 17.1132 2.03979
10.5258 16.3071 1.98943
10.3994 16.3088 1.99361
-1.90106 20.7659 2.44293
9.1109 14.9576 2.01593
9.05307 14.8529 2.0162
9.0028 14.7434 2.01647
-4.75734 21.1544 2.53848
-26.555 31.2513 3.36586
-26.6362 30.8856 3.36363
-27.0942 30.8294 3.37741
-29.1614 30.6827 3.44274
1.96777 16.377 2.263
1.58036 16.2333 2.27383
1.54985 16.0906 2.27413
0.37158 15.5605 2.30582
0.816164 15.2261 2.28776
0.36549 15.0133 2.3008
1.14642 14.0991 2.26527
0.975679 14.0108 2.26968
-6.95286 16.5087 2.558
-5.12995 14.3894 2.47707
-4.40048 13.9799 2.44971
-4.97614 13.6642 2.46613
-5.97414 13.5551 2.49881
-12.0179 -13.0755 2.71815
-11.9915 -13.2521 2.71943
-27.1789 -17.0785 3.27777
-27.1166 -17.2978 3.27807
-18.886 -15.5958 2.97783
-16.2529 -15.409 2.88559
-15.9448 -15.7316 2.8777
-15.4762 -15.8182 2.86316
19.9444 -9.93949 1.59214
24.7895 -9.44477 1.42508
4.92285 -19.194 2.2189
4.77367 -19.407 2.2275
6.00142 -19.9282 2.1966
9.26718 -19.8355 2.09159
8.937 -20.1489 2.10764
-1.34054 -27.1556 2.55336
-1.39749 -27.2815 2.55767
19.8859 -15.8565 1.68976
19.9554 -15.9147 1.68776
23.3701 -15.7999 1.58349
23.4464 -15.8408 1.58245
51.7391 -12.1172 1.15084
61.423 -19.1917 1.54706
68.5835 -19.629 1.73322
77.968 -20.698 2.01019
85.789 -21.5528 2.24911
108.265 -18.3254 2.89202
108.283 -18.1142 2.89062
108.326 -17.9085 2.89019
108.347 -17.6975 2.88878
108.337 -17.587 2.8876
108.398 -17.386 2.88715
108.421 -17.1763 2.88575
108.452 -16.9684 2.88433
108.471 -16.7583 2.88293
108.555 -16.5627 2.88446
121.131 5.54689 2.71346
121.954 5.87388 2.73466
103.537 10.3406 2.27104
103.584 10.5469 2.2736
103.686 10.6662 2.27624
103.987 10.9273 2.28533
104.191 11.169 2.29059
45.585 24.7555 1.38138
45.0128 20.639 1.27655
44.6677 18.351 1.21713
33.6266 20.2869 1.34107
21.8385 19.8038 1.53442
38.555 -16.9794 1.17205
107.747 -18.4951 2.45709
107.807 -18.295 2.45665
107.841 -18.0884 2.45523
107.872 -17.8815 2.45481
107.907 -17.6759 2.4534
107.919 -17.4641 2.452
107.942 -17.3629 2.45179
107.971 -17.1558 2.45138
108.003 -16.949 2.44996
108.029 -16.7415 2.44955
108.494 -16.4196 2.45829
120.633 7.28113 2.33711
122.429 8.87963 2.37661
104.53 11.1855 2.00606
90.0424 10.2477 1.70322
66.923 13.5627 1.27463
66.7923 13.5819 1.27279
45.8808 26.6985 1.29648
45.3493 23.0834 1.2207
33.6151 20.2537 1.22614
21.8291 19.7532 1.38952
13.6438 -15.7593 1.51885
89.5555 -22.2883 1.81483
112.5 -19.3248 2.24852
122.453 -14.5989 2.42534
106.96 21.8583 1.59247
66.8258 13.5188 1.06085
49.3098 56.0719 1.47214
45.6107 24.6468 1.05253
45.4348 23.4534 1.03691
45.0004 20.5503 0.997723
55.631 -18.9417 1.03021
78.7753 -17.4361 1.26019
95.7762 -23.2275 1.51827
100.081 -23.8586 1.57701
100.138 -20.6633 1.55524
112.521 -19.3702 1.71056
114.162 -19.5521 1.73345
107.716 -16.5466 1.63167
106.945 21.9848 1.24626
66.7819 13.514 0.917923
45.5861 24.5545 0.91573
45.1402 21.6656 0.891531
78.0721 -20.7194 1.07807
93.713 -22.933 1.21081
95.6702 -23.1791 1.22834
100.004 -20.5115 1.24816
116.88 6.86665 0.806416
100.418 10.248 0.774826
53.9653 15.3102 0.714743
49.1164 55.6298 0.769207
45.8455 26.2768 0.733281
45.6558 25.0265 0.731787
45.211 21.811 0.728167
49.1486 -12.6521 0.746637
59.6766 -19.2759 0.7798
59.7873 -19.2851 0.779652
59.8639 -19.3119 0.779586
59.9747 -19.3201 0.779437
114.39 -25.9543 0.871501
99.8869 -20.8151 0.834877
107.357 -18.5251 0.840719
107.232 -18.2793 0.839467
107.448 -16.7382 0.836405
108.982 -16.4469 0.837612
120.204 -18.0732 0.859854
87.7254 11.3341 0.536725
71.3805 12.9247 0.581147
54.0001 15.4371 0.619465
50.0648 63.5007 0.469796
47.2429 37.7119 0.559863
47.0691 37.8722 0.559836
45.5652 24.6897 0.60552
45.1152 21.7099 0.616489
44.78 19.1607 0.625521
38.971 -1.88659 0.696585
38.9736 -1.90092 0.696607
59.7042 -19.3392 0.667872
59.9056 -19.3354 0.666566
78.9921 -17.2321 0.612505
96.1585 -23.2117 0.568672
109.712 -25.1412 0.531994
110.744 -25.3852 0.528898
100.293 -20.4356 0.553599
107.221 -18.2485 0.530428
107.178 -17.811 0.529714
107.154 -17.5934 0.529363
107.17 -17.385 0.528968
107.169 -16.9618 0.528216
107.347 -16.6863 0.527462
107.551 -16.522 0.526867
105.711 3.54622 0.102894
108.855 5.99523 0.0668715
112.609 6.66384 0.0301115
100.981 6.7082 0.138286
66.8522 13.6094 0.413647
54.0066 15.3638 0.491586
60.0144 -19.3216 0.51338
81.0232 -21.2353 0.342612
85.5668 -21.6969 0.302692
114.375 -23.1561 0.0465434
112.415 -20.9246 0.0644807
113.856 -20.3758 0.0513669
108.125 -18.3207 0.104214
107.897 -18.0474 0.107066
106.858 -17.5744 0.115766
106.864 -17.3639 0.116384
106.896 -17.1611 0.115975
108.243 -17.0582 0.103792
107.881 -16.6527 0.106608
107.885 -16.441 0.107227
108.552 -16.3778 0.101124
117.647 0.320864 -0.45708
114.96 0.578555 -0.415552
93.4682 5.46527 -0.0983563
73.0326 10.0742 0.184766
69.9402 13.5751 0.201126
53.989 15.3604 0.367618
37.0799 -17.0366 0.501343
94.9655 -22.0692 -0.118592
112.221 -12.9926 -0.361343
116.916 -13.163 -0.433006
101.619 -5.31142 -0.604278
101.503 -5.12183 -0.602444
110.147 -0.587847 -0.802336
109.669 -0.388687 -0.791981
75.8864 10.17 -0.0976395
54.0146 15.3766 0.226551
47.9894 39.8863 -0.265115
47.4625 37.2993 -0.204731
46.7343 32.83 -0.100699
46.0693 27.7142 0.0173895
45.6769 25.1648 0.0765073
45.5027 24.0176 0.102807
45.3284 22.7809 0.132266
44.8338 19.261 0.213262
82.2656 -21.0384 -0.234583
82.7212 -20.8071 -0.241671
82.8397 -20.7879 -0.243881
82.9943 -20.7101 -0.246248
83.0541 -20.5865 -0.246557
83.2117 -20.509 -0.249929
79.5676 -17.4948 -0.153884
86.9641 -19.2713 -0.318698
80.9131 -16.7022 -0.17729
81.2549 -16.7016 -0.183799
86.0875 -16.1824 -0.283893
96.1851 -16.0671 -0.501081
96.0431 -15.9402 -0.497096
96.7868 -15.9612 -0.513162
107.42 -18.3576 -0.753677
97.21 -14.9064 -0.519667
96.1254 -14.2921 -0.49315
99.5839 -13.7253 -0.56829
99.8403 -13.5945 -0.572904
100.115 -13.4664 -0.578538
100.256 -13.3099 -0.582027
100.359 -13.2379 -0.583307
100.271 -12.2962 -0.579852
100.101 -12.081 -0.575983
99.6274 -11.9035 -0.564596
98.2746 -11.3063 -0.533651
93.3743 -6.83683 -0.676332
93.4757 -6.68829 -0.678747
93.4767 -6.52959 -0.679031
93.6071 -6.38297 -0.682485
93.633 -6.22678 -0.682801
93.6409 -6.06877 -0.683094
93.6308 -5.98936 -0.683221
93.6159 -5.82904 -0.682484
93.6616 -5.67486 -0.683826
93.6656 -5.51645 -0.683113
93.7074 -5.36088 -0.684452
93.7622 -5.20661 -0.685808
93.8082 -5.05044 -0.687154
93.8591 -4.97418 -0.689365
93.8821 -4.8167 -0.68968
93.908 -4.65951 -0.689998
93.91 -4.5009 -0.690283
93.8399 -4.18022 -0.688749
93.6877 -4.01606 -0.684816
79.6691 10.8745 -0.380506
75.2654 9.88578 -0.255213
74.988 9.89575 -0.247819
66.8688 13.6108 -0.0963809
54.0643 15.4216 0.121397
53.9788 15.4011 0.12356
47.6072 37.6099 -0.415499
47.179 35.7697 -0.362589
46.8686 33.7237 -0.304489
46.6967 33.0667 -0.285065
46.3245 30.061 -0.200165
45.9142 26.9075 -0.110945
45.548 24.4781 -0.04308
45.3975 23.5556 -0.0162154
45.2358 22.394 0.016091
45.1005 21.5022 0.0418787
44.8857 19.8053 0.0892163
43.5574 18.9144 0.117772
72.8133 -20.4756 -0.22056
75.9602 -20.5246 -0.296142
77.7553 -19.6005 -0.329449
77.9306 -19.4866 -0.332912
78.0342 -19.2669 -0.333457
88.0935 -15.2169 -0.560588
88.6913 -15.3185 -0.577294
91.0016 -12.5782 -0.625598
90.6198 -9.72523 -0.606106
92.932 -8.04948 -0.665519
93.3963 -7.07627 -0.676939
93.2908 -6.98619 -0.673943
86.3981 -5.61087 -0.739163
86.7992 -4.34783 -0.752005
86.8451 -4.28212 -0.75319
86.9078 -4.14875 -0.75552
86.9705 -4.01539 -0.75785
87.0273 -3.88143 -0.760173
87.1509 -2.85768 -0.764178
87.2981 -2.72382 -0.769634
87.4243 -2.58884 -0.774062
87.5638 -2.52154 -0.778389
87.7233 -2.38591 -0.784866
87.8608 -2.24806 -0.789316
87.9463 -2.10895 -0.79269
88.0809 -1.9698 -0.797137
88.2167 -1.82976 -0.801588
88.3365 -1.6891 -0.806016
88.5004 -1.61825 -0.811385
88.6887 -1.47548 -0.817919
88.8118 -1.33214 -0.822356
88.9277 -1.18909 -0.826783
89.0811 -1.0438 -0.832269
89.2145 -0.897485 -0.836727
89.349 -0.750279 -0.842189
89.4954 -0.674629 -0.84754
89.6208 -0.527511 -0.851988
89.8008 -0.376874 -0.858523
89.9478 -0.225901 -0.86401
90.1119 -0.0736531 -0.869524
90.1661 0.0746431 -0.871869
90.384 0.231504 -0.879471
91.0399 0.933031 -0.903692
91.4202 1.10662 -0.917566
92.6664 3.20278 -0.968144
69.8472 3.45735 -0.212737
75.576 8.64586 -0.450468
75.2941 9.784 -0.455075
66.9014 13.5378 -0.2623
54.0038 15.3622 0.0045917
48.3229 20.372 -0.0788923
49.2601 49.4605 -1.05704
47.3428 36.1608 -0.600529
47.1446 35.3627 -0.572815
46.0014 27.4933 -0.303118
45.6552 24.9343 -0.215051
45.4868 23.8448 -0.177863
45.3191 22.6828 -0.138547
45.1783 21.7966 -0.107761
44.9146 20.0232 -0.0472146
44.8009 19.296 -0.0217521
54.6899 -18.8635 0.0574636
71.5782 -19.2594 -0.372891
71.7204 -19.2246 -0.376164
71.8256 -19.1679 -0.378421
71.8478 -19.0585 -0.377648
71.9085 -18.9742 -0.377889
71.9931 -18.9034 -0.37914
72.033 -18.8662 -0.380266
72.0967 -18.7832 -0.380508
72.1567 -18.6968 -0.38075
72.2309 -18.6189 -0.381999
74.8145 -17.7686 -0.447345
74.8856 -17.6813 -0.447606
74.9836 -17.6068 -0.449884
75.2648 -17.4996 -0.457492
75.4194 -17.4519 -0.460806
81.962 -14.3849 -0.633971
82.9203 -14.2205 -0.662685
82.847 -14.0613 -0.65986
82.677 -13.8743 -0.65294
82.9057 -13.809 -0.659396
83.1901 -13.7593 -0.667906
83.3604 -12.5925 -0.665234
83.2767 -12.4363 -0.662388
84.0226 -11.6193 -0.680949
85.44 -8.53627 -0.713536
85.4613 -8.40475 -0.713802
85.5292 -8.27995 -0.716125
85.6337 -8.16087 -0.719492
85.6888 -8.03376 -0.7208
85.7162 -7.90185 -0.721075
85.7041 -7.83228 -0.720181
85.7324 -7.70147 -0.721456
85.7409 -7.56764 -0.720706
85.7584 -7.43473 -0.720969
85.7441 -7.29759 -0.720191
85.7952 -7.17009 -0.721494
85.8554 -7.0425 -0.72381
85.9386 -6.98458 -0.726037
86.108 -6.87005 -0.731492
86.1891 -6.74358 -0.733837
86.2454 -6.61459 -0.73615
86.4213 3.82611 -1.04699
86.3824 3.9577 -1.04616
75.5517 9.72031 -0.686344
60.4606 14.5901 -0.269616
54.0007 15.3924 -0.128458
48.3672 20.712 -0.241563
48.2961 20.7252 -0.241481
48.2254 20.7414 -0.241405
45.4662 17.4677 -0.0904867
47.1637 35.7643 -0.833558
46.7347 33.0308 -0.722058
46.364 30.0794 -0.601257
46.0834 27.959 -0.515068
45.8912 26.7644 -0.465658
45.5241 24.305 -0.365737
45.2552 22.2618 -0.281703
45.1273 21.4828 -0.250127
44.8717 19.7197 -0.178611
-18.1439 15.6863 -1.71594
-18.3258 15.5278 -1.72039
55.4392 -18.9556 -0.0964847
77.432 -4.19384 -0.863381
77.4309 -4.08618 -0.86357
77.4157 -3.9781 -0.86274
77.4064 -3.87062 -0.861918
77.3852 -3.76293 -0.861078
77.3909 -3.65597 -0.861276
77.3907 -3.5494 -0.861466
77.3851 -3.49556 -0.860553
77.3977 -3.3903 -0.861759
79.8994 1.01412 -0.987307
80.3087 1.45413 -1.0087
80.3743 1.57614 -1.01301
80.439 1.69925 -1.01633
80.5251 1.82522 -1.02068
80.734 2.02218 -1.03134
80.809 2.14826 -1.03567
80.8974 2.27701 -1.04103
81.0275 2.41059 -1.04747
81.1566 2.54427 -1.05489
81.2635 2.67717 -1.06029
81.3816 2.75166 -1.0666
81.4855 2.88487 -1.07199
81.6253 3.0245 -1.07944
81.7629 3.16335 -1.0869
82.6201 3.40023 -1.12759
70.9088 3.29599 -0.595026
75.7972 9.71618 -0.898702
68.9286 13.1842 -0.68268
54.0116 15.3529 -0.247404
47.4288 36.7893 -1.10678
47.1986 35.7041 -1.0555
46.0766 27.6357 -0.677484
45.679 25.0348 -0.555266
45.5068 23.9175 -0.503023
45.3368 22.7428 -0.44868
45.1959 21.8555 -0.406893
44.9635 20.063 -0.323359
44.8486 19.3339 -0.288891
44.3857 16.0662 -0.13639
-8.40898 -12.9945 -1.57136
-8.17079 -13.114 -1.5615
-7.94783 -13.235 -1.55362
-7.61617 -13.2454 -1.54009
50.9158 -18.5424 -0.0995083
64.1897 -17.8169 -0.469495
76.521 -9.93329 -0.851818
76.8582 -9.73925 -0.864664
76.7916 -9.50335 -0.859984
75.5687 2.96473 -0.989352
72.3536 3.55148 -0.830625
75.7257 9.3994 -1.08603
75.7262 9.51293 -1.08824
75.5494 9.56399 -1.08006
69.016 13.167 -0.855779
54.0022 15.3506 -0.362386
48.2979 43.3029 -1.67265
47.3519 36.6379 -1.32139
47.1117 35.4039 -1.25584
46.7624 32.9026 -1.12387
46.4157 30.2473 -0.984634
45.9922 27.052 -0.81632
45.6108 24.5107 -0.683233
45.2935 22.4052 -0.572016
45.1564 21.5256 -0.526247
44.9011 19.8057 -0.435809
44.8262 19.1339 -0.400502
26.2063 9.59696 -0.341908
-14.9215 -6.621 -2.15404
-14.609 -7.1481 -2.14056
-13.496 -8.0405 -2.08963
48.0172 -18.2424 -0.137742
65.1705 -14.0708 -0.564615
65.043 -13.9101 -0.555712
65.2988 -13.9642 -0.567995
65.3179 -13.8847 -0.567165
74.7739 3.45687 -1.15405
74.8457 3.57021 -1.15936
74.9215 3.6339 -1.16458
74.9657 3.743 -1.16884
75.0243 3.85567 -1.17313
75.0809 3.96853 -1.17741
73.2802 8.18618 -1.14425
73.2068 8.26597 -1.14128
73.1771 8.35943 -1.1414
73.1568 8.45697 -1.14254
73.1032 8.5428 -1.14162
73.0284 8.56846 -1.13755
69.809 13.0402 -1.07973
69.6618 13.0651 -1.07256
69.5188 13.0927 -1.06639
57.0877 14.8844 -0.574135
57.0106 14.8972 -0.571044
56.939 14.9155 -0.56997
56.856 14.9189 -0.566853
56.7856 14.9391 -0.564785
54.0337 15.326 -0.49039
49.2547 48.4295 -2.2652
47.573 38.1818 -1.65747
46.081 27.6738 -1.03756
45.6813 25.051 -0.882299
45.5496 23.9277 -0.816105
45.3759 22.7252 -0.745708
-12.2445 10.4728 -2.47442
57.9675 -17.9618 -0.523005
58.0183 -17.9166 -0.523161
58.0745 -17.8771 -0.524315
58.129 -17.8354 -0.52447
58.1635 -17.8228 -0.525543
58.2215 -17.7854 -0.525696
58.3376 -17.7107 -0.528001
58.5436 -17.4823 -0.526713
58.6362 -17.3821 -0.527029
66.8919 -12.9276 -0.784204
69.583 -3.28975 -0.957343
69.5992 -3.20897 -0.958511
69.5916 -3.12578 -0.957648
71.291 7.36106 -1.17383
71.271 7.45153 -1.17496
71.2604 7.49582 -1.17502
71.2175 7.57856 -1.1741
71.1913 7.66665 -1.17422
71.141 7.74611 -1.17329
71.1158 7.83509 -1.17341
71.1156 7.9326 -1.17558
71.057 8.00889 -1.17363
67.861 11.9255 -1.09686
67.8387 12.0132 -1.09898
67.8592 12.1267 -1.10321
67.8306 12.212 -1.10432
67.8832 12.3443 -1.11164
56.9209 14.9664 -0.686034
56.8345 14.9661 -0.682905
54.0163 15.3738 -0.599449
53.9647 15.4102 -0.600437
48.1166 42.2519 -2.13352
45.9821 27.4835 -1.18307
45.7913 26.2516 -1.1036
45.6383 24.8661 -1.01391
45.4741 23.7984 -0.945763
45.3077 22.6092 -0.869401
45.1778 21.8405 -0.81984
43.1993 13.7193 -0.296455
-3.12878 10.6138 -2.2462
67.3395 -0.339106 -0.987264
69.019 6.62083 -1.20814
68.9732 6.69481 -1.2072
68.9398 6.77256 -1.20629
68.9174 6.809 -1.20632
68.8935 6.89082 -1.20643
68.8799 6.97462 -1.20756
68.857 7.05634 -1.20767
68.8288 7.13557 -1.20777
56.9318 14.9067 -0.832945
49.8415 14.0744 -0.522943
46.6309 31.5399 -1.67825
46.1002 27.8983 -1.41799
45.9049 26.692 -1.33155
45.6951 25.2218 -1.22662
45.5285 24.1905 -1.15254
45.2532 22.122 -1.00545
44.3932 16.2063 -0.583652
57.3249 -15.6777 -0.648116
57.3858 -15.6517 -0.649252
57.4638 -15.4264 -0.642769
67.0341 1.75101 -1.10153
67.0623 1.83157 -1.10471
67.0823 1.90995 -1.10788
67.0983 1.98874 -1.11005
67.1092 2.06703 -1.1122
67.15 2.11216 -1.11534
67.1691 2.19163 -1.11751
67.2209 2.27684 -1.12274
67.2749 2.36384 -1.12798
68.5776 4.91044 -1.26944
67.7199 6.29883 -1.23964
67.7027 6.37695 -1.24075
67.6721 6.45142 -1.23984
67.6349 6.48131 -1.23784
67.6167 6.55954 -1.23895
67.5933 6.63629 -1.23905
67.5803 6.717 -1.24018
45.641 17.4557 -0.775727
47.6604 37.2159 -2.27788
46.4633 30.7586 -1.78262
46.0207 27.3623 -1.52392
45.6356 24.7944 -1.32778
45.4728 23.7497 -1.24768
45.3094 22.6095 -1.1604
45.1745 21.7719 -1.09671
44.9533 20.0597 -0.966339
44.8411 19.3475 -0.911906
44.4459 16.7093 -0.710625
44.3617 16.144 -0.667494
56.2706 -15.3189 -0.67019
56.2184 -15.1789 -0.660361
56.3387 -15.2213 -0.668465
47.4231 29.7164 -1.92119
45.7482 17.2346 -0.886493
47.1378 29.8568 -1.93001
47.0434 29.9176 -1.93398
46.9469 29.9565 -1.93591
46.5125 30.1643 -1.94863
46.1184 27.9842 -1.76717
27.5689 9.56165 -0.877869
58.3923 -11.9786 -0.756281
46.9189 26.2297 -1.79424
46.7106 26.3663 -1.80317
46.5443 26.4907 -1.81214
46.4608 26.5494 -1.81712
19.3376 16.0598 -1.89122
19.2415 16.0133 -1.89499
19.2144 15.9748 -1.89488
19.1135 15.9307 -1.89866
19.0632 15.8504 -1.89844
46.6123 23.7531 -1.72737
46.4658 23.9046 -1.74043
51.3215 -15.1291 -0.712184
61.2439 1.17663 -1.10692
62.4991 5.55109 -1.35056
62.5231 5.63006 -1.35574
50.8151 -13.6566 -0.663053
61.2676 5.64846 -1.35891
57.1931 10.8871 -1.30118
57.2154 10.9884 -1.3104
31.4721 16.1239 -1.58034
56.6548 10.266 -1.33128
56.6269 10.2779 -1.33026
56.5789 10.3099 -1.32824
56.5487 10.3592 -1.33029
31.7136 16.1184 -1.70769
31.6489 16.0947 -1.70955
31.6426 15.9828 -1.69934
31.6241 15.8892 -1.69114
47.4041 -14.7653 -0.78902
47.4393 -14.7356 -0.787124
47.4624 -14.6666 -0.781281
47.5285 -14.7376 -0.790253
47.5575 -14.6893 -0.786382
56.0089 9.7725 -1.34544
45.4103 7.4769 -0.44163
45.376 7.45625 -0.438543
55.5141 9.31292 -1.35789
41.7432 -14.0311 -0.861926
41.7997 -13.9092 -0.845227
45.7651 -12.7651 -0.720146
48.9455 12.5019 -1.41182
53.6291 7.59886 -1.36304
46.6284 12.1904 -1.43983
53.3992 7.3637 -1.41129
53.5465 7.5588 -1.44885
32.7287 7.39105 -1.63966
-13.6752 11.4392 -19.9081
-13.6271 11.2384 -19.8748
-13.7362 11.0745 -19.8993
46.0596 -1.6276 -0.421396
42.5439 -0.307658 -0.143527
42.4986 -0.308123 -0.153459
42.5048 -0.326822 -0.145435
42.3622 -3.21812 -0.13208
42.7299 -0.626749 -0.0172354
42.7699 -0.578586 -0.0463806
42.8115 -0.655081 -0.00730603
42.8056 -0.653486 -0.00930016
42.7337 -0.589031 -0.0673082
42.5306 -0.269308 -0.240576
42.7417 -0.608923 -0.0572847
42.7332 -0.604045 -0.0612807
42.6949 -0.554997 -0.0893112
42.669 -0.522265 -0.108331
42.6202 -0.458097 -0.145373
42.6228 -0.471422 -0.139353
42.6282 -0.488033 -0.132332
42.6318 -0.502453 -0.125311
42.6328 -0.512596 -0.121295
42.4877 -0.315219 -0.233431
42.6776 -0.686841 -0.0450509
42.6382 -0.697952 -0.0509728
42.3158 -3.25786 -0.237941
44.8715 -2.9433 -0.188292
44.8767 -3.03035 -0.235145
44.8884 -3.03356 -0.240157
44.775 -2.92345 -0.166184
1.15033e-41 0 -1.67255e+20
