ply
format ascii 1.0
element vertex 421
property float x
property float y
property float z
end_header
176.542 -6.86737 3.99039
132.453 0.235886 2.5655
174.205 13.5154 3.90344
174.095 14.0052 3.90176
172.831 16.0942 3.87257
143.017 25.1852 3.10496
147.605 38.1833 3.42522
147.653 38.525 3.43216
147.786 38.8013 3.44034
147.824 39.1384 3.44632
104.365 14.8229 2.14024
104.283 14.8152 2.13941
104.191 14.7765 2.13778
104.113 14.7793 2.13788
104.027 14.757 2.13614
103.986 14.7497 2.13525
103.908 14.7595 2.13531
106.494 53.8047 3.21817
104.614 46.0388 2.99726
104.448 46.1175 2.99906
104.28 46.1803 2.99995
104.111 46.2272 3.00095
103.938 46.2524 3.00107
99.1571 15.1167 2.12661
89.3394 23.2319 2.40365
80.6158 21.5156 2.48418
80.5853 21.3482 2.4802
80.1825 18.5396 2.42317
80.0284 17.3079 2.39857
79.6963 14.9539 2.35478
77.225 12.1338 2.35702
75.9138 12.3173 2.39399
75.7569 12.3363 2.39812
74.7956 11.0793 2.40193
72.4778 10.2666 2.45326
66.5781 13.7544 2.67313
62.6999 11.6971 2.76312
54.781 15.3595 3.04712
53.7425 15.6735 3.0829
51.0467 14.3676 3.15469
50.4298 14.4903 3.17593
44.016 15.8972 3.39371
46.8285 13.7343 3.28492
45.6023 13.5 3.32319
37.5087 16.8597 3.61222
36.7472 16.9593 3.63782
39.2188 14.5169 3.54019
39.2983 14.0605 3.53372
38.2845 13.8146 3.56573
29.1376 16.6887 3.88721
23.8903 18.3796 4.07153
23.3091 18.0642 4.08926
37.8834 11.8411 3.56783
28.0674 14.9917 3.91375
29.1134 14.1535 3.874
28.8231 13.8902 3.88298
19.7231 -7.49226 4.20551
27.5642 -10.9316 3.94934
27.0434 -11.1687 3.96953
48.9626 -11.2872 3.19518
41.7755 -12.4427 3.45806
55.0494 -13.0683 2.99508
54.8035 -13.7729 3.01056
52.1672 -15.8241 3.12459
51.4602 -16.2299 3.15305
38.9207 -19.5672 3.62894
40.1231 -20.2837 3.59625
26.5752 -24.8469 4.12384
54.3276 -24.1331 3.16658
71.1878 -20.491 2.5432
82.7842 -30.9436 2.50901
82.9008 -30.9185 2.50568
82.9634 -30.9767 2.50592
133.794 -40.7171 3.21468
162.61 -32.4655 3.82994
162.682 -22.0003 3.67495
162.71 -21.7932 3.6737
162.713 -21.6876 3.67208
162.739 -21.4802 3.67083
162.764 -21.2738 3.66859
162.783 -21.0654 3.66635
176.319 -6.98369 3.48441
174.31 12.7787 3.39955
164.609 16.6992 3.1718
167.689 20.8131 3.26409
131.819 8.16482 2.35235
151.034 20.2856 2.87401
150.682 22.1816 2.88153
154.785 33.91 3.07893
147.606 37.7676 2.98463
147.649 38.1028 2.98961
147.71 38.4559 2.99546
147.766 38.8085 3.00133
104.504 46.0793 2.64719
104.333 46.1162 2.64724
104.163 46.1613 2.64824
103.994 46.2052 2.64825
99.1093 16.9998 2.01473
78.3278 58.4631 3.01879
47.2499 -13.7139 2.95395
47.2897 -13.8699 2.95479
47.8048 -13.8976 2.94015
31.3161 -21.519 3.4891
136.723 -30.1444 2.74162
165.209 -34.3566 3.48291
160.762 -22.1094 3.20655
160.773 -21.9038 3.20434
160.807 -21.7048 3.20313
160.841 -21.5055 3.20192
160.861 -21.3023 3.19971
160.883 -21.2034 3.1991
160.919 -21.0046 3.19788
160.949 -20.8048 3.19667
160.979 -20.6039 3.19546
176.351 -6.79242 3.11424
173.623 -4.35465 3.04429
174.726 12.1842 3.03336
152.4 20.9674 2.61692
150.384 34.8438 2.67932
147.637 38.0147 2.66614
147.71 38.3801 2.6709
120.633 12.9376 2.01394
104.221 46.1869 2.388
157.532 -33.9134 2.98624
161.19 -34.6252 3.0687
165.406 -34.4922 3.14938
173.141 -34.2075 3.29972
173.232 -33.9748 3.29822
173.18 -33.6939 3.29367
160.827 -21.56 2.89925
160.839 -21.3556 2.89704
160.867 -21.1555 2.89584
160.893 -20.9542 2.89362
160.884 -20.85 2.89303
174.909 11.9196 2.4316
174.726 12.1301 2.42866
174.517 12.3329 2.42481
174.651 12.7604 2.42611
171.008 21.6947 2.37179
171.251 21.9314 2.37504
164.312 19.277 2.28825
167.796 25.2646 2.33401
150.15 22.2192 2.12112
141.203 23.5502 2.02427
152.494 34.4066 2.18058
152.215 34.4657 2.17767
151.915 34.5056 2.1749
151.627 34.555 2.17206
151.355 34.6143 2.17014
150.815 34.7331 2.16429
120.268 12.2732 1.76737
147.831 38.7428 2.15259
91.7014 36.41 1.89531
82.6908 49.729 2.05781
40.9882 -19.1452 2.47926
125.588 -24.1747 1.98516
125.531 -24.0294 1.9824
167.257 -22.6642 2.50668
150.61 34.7263 1.81164
150.336 34.7797 1.80975
121.715 12.3559 1.61764
121.138 13.4755 1.61602
63.0531 11.6641 1.79575
136.182 -28.9164 1.9503
174.361 12.886 1.45982
174.377 13.1514 1.45825
174.391 13.416 1.45769
174.453 13.5649 1.45672
158.911 26.5748 1.37617
151.575 34.4582 1.33669
151.364 34.4271 1.3362
150.837 34.5564 1.33527
150.568 34.6151 1.33534
99.8851 31.5659 1.34277
99.6376 31.7096 1.34332
92.3443 31.1894 1.35667
83.2644 48.3611 1.32987
52.2604 -11.6473 1.68412
161.023 -32.5816 1.70705
173.476 -34.1658 1.73593
160.249 -22.1339 1.63547
160.325 -21.9447 1.63525
160.396 -21.3438 1.63064
160.429 -21.1454 1.62943
160.437 -21.0445 1.62884
160.447 -20.842 1.62764
160.483 -20.644 1.62643
160.528 -20.4483 1.62523
164.907 25.6971 1.03096
146.074 29.8194 1.05721
150.032 35.0456 1.01166
149.777 35.1125 1.01167
120.453 11.9999 1.24967
121.343 13.4405 1.2369
99.6701 32.3329 1.14764
99.5135 31.755 1.15124
78.4106 67.5023 0.917038
82.3602 47.7235 1.05798
82.6776 45.8697 1.07127
82.5565 45.6393 1.0728
82.3733 45.6356 1.0731
23.7222 17.3362 1.29481
126.298 -24.0813 1.4475
173.491 -34.1258 1.35966
160.196 -21.8931 1.33414
160.205 -21.6904 1.33295
160.216 -21.488 1.33175
160.208 -21.2819 1.33057
160.244 -21.085 1.32936
160.293 -20.8899 1.32815
160.292 -20.7878 1.32756
160.355 -20.5957 1.32635
176.668 -8.03871 0.702955
174.894 -7.81384 0.718401
162.202 -5.13921 0.821548
159.576 32.1747 0.532538
159.373 32.3202 0.533007
150.658 34.6516 0.576976
150.125 34.7685 0.580123
100.378 30.2101 0.912887
100.255 30.205 0.913107
74.0452 38.4517 0.797821
168.311 -32.9692 0.89497
160.329 -22.0767 0.927995
160.672 -22.046 0.924283
160.769 -21.8596 0.923049
160.482 -21.5942 0.924951
160.577 -21.4086 0.922724
160.438 -21.1762 0.923586
160.487 -20.98 0.92137
156.894 -15.5725 0.564483
157.711 -15.4738 0.551639
157.239 -14.0043 0.551822
175.261 -8.10134 0.240494
139.973 6.52805 0.666181
145.355 16.8857 0.469564
145.218 17.0048 0.470084
142.728 18.0911 0.489629
125.16 7.6893 0.864427
142.744 18.4867 0.484303
154.996 29.8663 0.169072
158.434 33.314 0.0766744
144.678 29.069 0.312733
150.927 34.671 0.152437
123.419 15.7849 0.770031
83.1848 48.57 0.310757
83.302 46.9958 0.341734
82.5855 49.0213 0.301062
73.27 38.6075 0.466112
76.6522 31.7207 0.608929
138.857 -29.2747 0.863208
153.616 -30.2872 0.651179
154.07 -29.9549 0.64354
157.83 -26.8346 0.58355
162.506 -22.0555 0.501484
162.619 -20.8081 0.496051
103.867 11.5488 0.877035
79.3552 68.1061 -0.62597
82.8606 49.2721 -0.120832
80.877 56.2176 -0.309163
76.5817 32.2223 0.278115
137.811 -28.7839 0.565971
137.995 -28.7178 0.563301
138.158 -28.6396 0.559593
138.257 -28.5313 0.557809
138.386 -28.4352 0.55605
138.577 -28.369 0.552368
138.725 -28.3615 0.549094
151.197 -22.1882 0.289811
145.712 16.5864 -0.188262
121.534 7.40487 0.566707
121.608 7.56615 0.561654
121.829 7.77352 0.553105
103.831 11.4834 0.769469
79.8538 62.7106 -0.860359
80.8607 57.7786 -0.702226
80.7009 57.5314 -0.69554
80.4709 57.5615 -0.697358
80.2675 57.4859 -0.695602
155.556 14.7624 -0.776945
155.438 14.9263 -0.776715
155.202 15.2532 -0.77525
155.023 15.3903 -0.77177
155.056 15.7238 -0.778762
153.994 16.6428 -0.763459
153.899 17.5638 -0.77867
153.8 18.3834 -0.791284
79.9684 62.4931 -1.28928
79.7127 62.5632 -1.29329
80.6275 58.0268 -1.12032
79.7993 60.3725 -1.21268
82.6286 48.6413 -0.761814
82.4873 48.447 -0.755464
125.526 -24.8163 0.473961
128.009 -25.8011 0.390833
137.31 -19.454 0.138463
139.172 -16.4574 0.0811363
147.133 11.2899 -0.801665
147.08 11.4498 -0.803513
148.006 14.8558 -0.910768
147.795 14.9479 -0.904976
147.664 15.0784 -0.902531
113.054 8.81264 0.420681
112.987 8.84822 0.421577
90.4839 21.6372 0.0771075
19.0467 -9.8017 -1.4521
25.5248 -16.3199 -1.18924
123.286 -25.0058 0.338539
130.565 -20.4096 0.123493
130.596 -20.3039 0.12283
130.624 -20.1977 0.122169
130.644 -20.0895 0.122508
130.696 -19.9917 0.120859
136.622 5.67657 -0.543684
135.64 6.20174 -0.513215
137.312 9.0681 -0.650489
137.317 9.22083 -0.654385
137.496 9.37758 -0.665574
137.096 9.64557 -0.655513
106.78 11.0606 0.346343
100.977 10.4689 0.460796
29.571 -9.66459 -1.46724
29.6291 -9.87766 -1.46409
31.1262 -10.7974 -1.39506
38.235 -17.2752 -1.07741
131.435 4.96396 -0.514485
131.481 5.10704 -0.520388
131.769 5.28882 -0.538893
32.9689 -2.3239 -1.75123
35.5656 -8.84929 -1.57029
94.6253 -22.8531 0.818522
100.919 11.2558 0.175303
99.6655 -23.5554 0.694781
99.7137 -23.5642 0.693757
126.487 0.665581 -0.527795
126.509 0.723046 -0.531164
126.516 0.827001 -0.53378
126.495 0.920833 -0.535293
126.502 1.0238 -0.537904
126.514 1.13016 -0.541541
126.501 1.22685 -0.543084
126.547 1.34462 -0.54884
126.563 1.40192 -0.552198
126.577 1.509 -0.555843
126.591 1.61707 -0.559494
126.596 1.72144 -0.562108
126.606 1.82808 -0.565744
126.627 1.94013 -0.570429
126.648 2.05133 -0.574108
121.38 0.534109 -0.220097
116.542 5.97898 -0.151259
114.707 8.29724 -0.172898
124.076 1.42628 -0.601479
120.143 -11.3099 -0.23827
120.146 -11.2751 -0.238478
120.203 -8.61635 -0.249034
120.23 -8.54444 -0.251495
120.223 -8.47375 -0.250895
120.215 -8.43927 -0.251083
114.815 8.29345 -0.46605
108.948 -20.8142 0.182412
99.1571 10.8183 -0.365426
111.286 5.32469 -0.588301
99.2073 10.8098 -0.608459
75.4511 4.96014 -1.16855
104.219 10.5643 -0.816816
109.637 -18.7718 -0.135546
109.842 3.84638 -0.598458
109.741 3.98252 -0.603095
97.3044 11.9349 -0.981056
97.2446 11.6658 -0.950397
97.059 11.4142 -0.920645
112.049 -13.6286 -0.228213
111.991 -11.6392 -0.350701
96.3331 2.44392 -0.797329
100.592 -13.8636 -0.229058
100.607 -13.8547 -0.229134
100.203 -8.74915 0.3368
100.23 -8.7408 0.325711
100.239 -8.7118 0.321528
150.648 -14.7873 -20.7068
150.667 -14.6204 -20.7088
150.686 -14.4544 -20.7098
150.702 -14.1193 -20.7047
150.719 -13.9521 -20.7057
150.731 -13.8699 -20.7082
150.742 -13.7019 -20.7072
96.7618 -7.33126 0.6229
96.696 -7.29598 0.595797
120.68 -14.1295 -8.59385
120.711 -14.0601 -8.6003
120.72 -13.9857 -8.59775
120.75 -13.9546 -8.60798
120.776 -13.8845 -8.61243
120.799 -13.813 -8.61588
96.9002 -7.59842 0.721241
96.8084 -7.74291 0.751225
96.9719 -7.59837 0.71613
96.9973 -7.65527 0.744422
96.9794 -7.63164 0.731312
96.8483 -7.4565 0.614494
96.9384 -7.61399 0.698272
96.932 -7.60908 0.695254
96.918 -7.59404 0.686188
96.8857 -7.5503 0.660983
96.8466 -7.49756 0.630736
96.8092 -7.44707 0.6025
96.8305 -7.4903 0.623719
96.8177 -7.48047 0.617681
96.8371 -7.51538 0.635855
96.8086 -7.48023 0.614694
96.6472 -7.24036 0.481547
96.7759 -7.54825 0.633141
96.8793 -7.70456 0.719891
96.792 -7.6502 0.67671
96.4736 -10.165 0.569833
96.4257 -10.2909 0.512639
99.0229 -10.1665 0.491882
98.9548 -10.091 0.538549
98.9672 -10.0958 0.532558
2.66645e-40 0 1.15033e-41
