ply
format ascii 1.0
element vertex 522
property float x
property float y
property float z
end_header
120.773 -0.738087 3.27603
120.372 5.48919 3.25686
120.444 5.74746 3.25909
120.453 5.99883 3.25941
120.314 6.11069 3.25526
120.207 6.35102 3.25173
120.659 7.15332 3.26711
104.563 11.28 2.75647
95.0209 16.0264 2.4831
73.6081 9.37656 1.76594
27.0298 18.6533 1.47446
22.64 16.9003 1.53488
22.5078 16.9151 1.53798
22.3837 16.92 1.5411
22.1926 16.9907 1.54812
22.0381 17.0238 1.5522
21.8899 17.0491 1.55629
21.7765 17.04 1.55944
21.6232 17.1282 1.56537
21.4738 17.1516 1.56946
21.329 17.1707 1.57357
21.2356 17.1405 1.57475
15.0089 20.7393 1.81087
14.8364 20.7429 1.81505
5.26683 20.2068 2.07981
5.17113 20.1106 2.08117
4.76856 20.1967 2.09437
4.41993 20.2485 2.10561
4.09952 20.2805 2.11587
3.7561 20.3237 2.12713
9.13434 15.9801 1.90191
-4.27587 21.0417 2.38388
-26.9903 31.9356 3.23134
-28.4089 31.8205 3.27518
0.89207 15.9247 2.16095
0.730684 14.7216 2.15333
-0.742013 14.6288 2.20017
-5.31244 16.227 2.36484
-5.18695 13.1465 2.33492
15.7048 -8.95673 1.62133
-17.1567 -18.6058 2.84153
16.4669 -9.50255 1.60296
16.4148 -9.60501 1.60629
20.3102 -8.64233 1.46352
20.2872 -8.7245 1.46576
20.4092 -9.19841 1.46789
21.4663 -9.70643 1.44111
16.7601 -15.7996 1.69644
16.8411 -15.8557 1.6955
17.068 -15.8254 1.68818
28.1118 -16.2948 1.39451
106.54 -18.0493 2.92456
106.575 -17.8408 2.92297
106.602 -17.6294 2.92238
106.63 -17.4192 2.92078
106.634 -17.311 2.91949
106.683 -17.1058 2.91889
106.706 -16.894 2.9173
106.744 -16.6867 2.91671
106.766 -16.4748 2.91512
120.776 4.66018 2.76363
120.495 4.88826 2.75632
120.524 5.1416 2.75662
120.446 5.38522 2.75505
120.457 5.6373 2.75537
120.521 6.39674 2.75627
120.646 7.03968 2.76042
89.1723 9.97999 1.94654
55.5112 71.3179 2.50726
55.3129 71.5219 2.51093
55.1939 72.1523 2.52638
54.9348 72.0487 2.52294
-4.07845 17.6269 2.02577
106.002 -18.2187 2.48559
106.058 -18.0161 2.48499
106.077 -17.8039 2.48341
106.119 -17.598 2.48281
106.13 -17.3851 2.48123
106.157 -17.1758 2.47964
106.159 -17.0684 2.47836
106.214 -16.8668 2.47876
106.241 -16.6574 2.47717
106.272 -16.4494 2.47658
106.948 -16.1701 2.49111
120.758 1.21896 2.39283
120.654 1.46507 2.39028
105.108 11.0436 2.05451
97.115 17.3667 1.90727
55.4295 71.8382 2.16696
55.2748 72.2851 2.17594
110.784 -19.0386 2.27762
120.794 5.43536 1.78354
88.6042 14.4546 1.34022
55.5458 71.6013 1.59847
55.5738 72.3592 1.60742
55.207 71.7024 1.59856
55.0249 72.0013 1.60196
-32.0319 29.0832 1.88038
115.191 -25.9806 1.84338
110.655 -19.1633 1.73409
110.791 -19.081 1.73572
90.3703 10.7732 1.09913
88.6235 14.5425 1.08496
56.0285 72.3474 1.22196
55.6663 72.9771 1.22667
55.1807 71.6938 1.21661
55.1561 72.1985 1.22029
77.6734 -17.4242 1.07704
77.7487 -17.321 1.07668
98.6052 -23.5457 1.28978
99.1516 -20.5816 1.27728
99.1997 -20.3953 1.27573
120.751 7.1477 0.816012
114.834 8.02043 0.80207
88.344 9.99635 0.744385
73.8289 9.93503 0.716212
55.8325 72.2262 0.697488
55.5731 72.1307 0.698023
55.3394 72.1653 0.698183
55.1073 72.2068 0.698322
35.6163 13.5493 0.689808
37.844 -16.9328 0.766707
74.8812 -20.3693 0.807905
99.0194 -20.6875 0.853706
99.0953 -20.4115 0.851888
105.518 -18.2277 0.857133
105.597 -18.0324 0.856526
105.63 -17.8266 0.855942
105.637 -17.6132 0.855366
105.7 -17.4144 0.854767
105.726 -17.206 0.854183
105.773 -17.0025 0.85359
105.759 -16.8927 0.853312
105.791 -16.6858 0.852725
105.819 -16.4796 0.852145
106.015 -16.3106 0.851483
106.475 -16.1993 0.85169
107.421 -16.1932 0.853652
98.7906 7.87783 0.494762
95.777 8.34967 0.501755
55.5846 15.5561 0.576907
56.987 17.3657 0.566567
52.0911 13.201 0.592958
52.0266 13.2103 0.593003
47.88 31.1025 0.526755
48.6212 35.0847 0.508334
55.2743 70.7872 0.349927
55.0608 70.9063 0.34984
54.8388 70.98 0.349883
54.6389 71.1781 0.34957
27.8906 18.4613 0.596043
27.7921 18.4718 0.596121
23.0754 16.3915 0.60476
77.9659 -17.1594 0.613014
99.0796 -23.5473 0.573268
99.478 -20.5136 0.565746
99.61 -20.3535 0.565177
105.417 -17.9586 0.544523
105.375 -17.7335 0.543968
105.405 -17.5275 0.543385
105.418 -17.3167 0.54281
105.407 -17.1006 0.542246
105.475 -16.9043 0.541648
105.493 -16.695 0.541071
105.519 -16.5951 0.540776
105.865 -16.2477 0.539476
106.398 -16.1535 0.537649
111.712 7.0207 0.0131026
111.727 7.24722 0.0124813
115.022 8.01401 -0.0201197
114.065 8.35465 -0.0119947
39.5208 14.0438 0.508275
-33.4956 23.3352 0.0642841
43.3043 -17.8363 0.584224
62.9443 -19.6134 0.474769
76.4087 -20.8083 0.369426
109.528 -24.9071 0.091618
109.129 -24.5331 0.0950507
100.486 -20.5819 0.168839
116.502 -23.3895 0.0310441
114.802 -21.2793 0.0452503
105.815 -18.0082 0.121224
106.197 -17.9969 0.117782
105.087 -17.0789 0.126531
106.5 -16.7714 0.114186
105.946 -16.3221 0.118585
106.107 -16.1447 0.116938
101.575 3.0518 -0.253374
101.398 3.22762 -0.251652
94.4186 4.51565 -0.152555
74.3553 3.98832 0.150503
60.3445 5.43313 0.34677
70.6087 9.93701 0.16668
63.4077 12.031 0.246866
47.8955 29.6633 0.132575
39.4972 14.0398 0.410311
78.3897 -17.4057 0.108212
93.3989 -22.5265 -0.116327
93.7261 -22.4667 -0.12084
93.9181 -22.3516 -0.123354
94.0182 -22.1996 -0.123868
94.3119 -22.1224 -0.128391
90.0619 -19.8693 -0.0628134
95.1903 -20.5375 -0.136566
98.6169 -20.8314 -0.18648
97.7809 -17.8261 -0.170594
100.513 -5.18932 -0.627248
100.42 -4.99749 -0.62566
108.931 -0.37864 -0.824164
75.8432 3.84492 -0.114721
87.3544 9.80841 -0.40505
88.0017 13.0581 -0.445417
47.9275 31.069 -0.12321
48.5736 35.4097 -0.227485
41.081 13.7962 0.307251
36.4143 24.8883 0.0407004
45.6146 -18.0781 0.353375
45.6715 -18.0816 0.353322
82.1954 -20.4295 -0.266831
82.3907 -20.3629 -0.27022
82.6443 -20.2438 -0.274811
77.2684 -17.4156 -0.149553
78.4535 -17.4508 -0.173738
80.2536 -16.5788 -0.206006
80.4004 -16.4946 -0.209389
83.9453 -16.176 -0.281065
93.5098 -16.7344 -0.484898
94.1486 -16.8292 -0.499334
95.2217 -16.2246 -0.520105
95.086 -16.0066 -0.51654
95.3884 -15.9966 -0.522893
95.4045 -15.8193 -0.522383
95.3745 -14.2773 -0.518464
95.4858 -14.1243 -0.520992
95.6925 -13.9915 -0.524569
96.6868 -14.0354 -0.546525
97.5708 -14.1409 -0.565198
99.1704 -13.5449 -0.598513
99.1923 -13.3602 -0.59903
99.3344 -13.1991 -0.601613
99.1216 -13.062 -0.596749
98.9334 -12.8369 -0.593146
98.2613 -12.15 -0.577253
98.4556 -12 -0.581863
97.8337 -11.4286 -0.567716
96.8432 -10.8969 -0.545065
92.1443 -6.42297 -0.703928
92.1867 -6.26531 -0.705394
92.242 -5.78641 -0.706731
92.2746 -5.70819 -0.707975
92.2611 -5.54614 -0.707392
92.3255 -5.3896 -0.708879
92.3229 -5.22861 -0.709306
92.3714 -5.07054 -0.71078
92.4343 -4.75211 -0.712697
92.5389 -4.67783 -0.716008
73.5151 3.7901 -0.231063
79.4402 9.98979 -0.441994
56.8226 12.6925 0.0642066
52.4969 14.5469 0.101929
47.9617 29.9672 -0.263308
48.0337 32.4205 -0.33293
76.6771 -19.3855 -0.352661
77.4872 -17.364 -0.355927
88.3542 -14.5762 -0.619091
87.6167 -13.6721 -0.595706
89.6167 -12.8215 -0.645134
88.549 -12.3406 -0.616264
89.4292 -12.3804 -0.639108
90.0906 -12.367 -0.656857
91.06 -11.681 -0.680733
91.1089 -11.528 -0.681194
90.0614 -9.57925 -0.650261
91.9854 -6.81047 -0.699723
84.6686 -5.73745 -0.760689
84.6877 -5.60167 -0.761072
84.7496 -5.47001 -0.76349
84.8026 -5.3375 -0.764901
84.8268 -5.2012 -0.76629
84.8549 -5.06627 -0.766681
84.8785 -4.99923 -0.767885
84.8947 -4.86216 -0.768268
84.9309 -4.72701 -0.769667
84.9501 -4.59022 -0.770053
84.9813 -4.4546 -0.771448
85.0195 -4.31865 -0.772852
85.0477 -4.18273 -0.773245
85.0933 -4.11681 -0.77547
85.1576 -3.98136 -0.776901
85.1968 -3.84551 -0.778305
85.2471 -3.70972 -0.780722
85.2554 -3.57188 -0.781099
85.5569 -2.54011 -0.793176
85.7468 -2.40475 -0.799742
85.9148 -2.26728 -0.80529
86.0601 -2.19893 -0.809629
86.1831 -2.05912 -0.814135
86.3021 -1.91892 -0.818637
86.4212 -1.77773 -0.823142
86.5755 -1.63592 -0.828687
86.7511 -1.49314 -0.834257
86.9045 -1.35024 -0.839804
87.0492 -1.27683 -0.845156
87.2421 -1.1317 -0.851751
87.3798 -0.985277 -0.85729
87.4662 -0.838918 -0.860774
87.6333 -0.690301 -0.866351
87.7773 -0.541463 -0.871903
87.9556 -0.389923 -0.8785
87.9436 -0.317424 -0.87768
88.1674 -0.163247 -0.886333
88.3843 -0.00839468 -0.89398
88.5186 0.144393 -0.898533
88.6127 0.297046 -0.902041
88.6957 0.449761 -0.905538
88.9151 0.609398 -0.913201
89.0377 0.765326 -0.918749
89.2196 0.850211 -0.925172
89.3989 1.01071 -0.931793
89.6056 1.17458 -0.938454
89.8063 1.33903 -0.946109
90.4468 1.68803 -0.968731
91.4044 2.78196 -1.00668
91.5931 2.95762 -1.01335
91.4864 3.02821 -1.01043
91.4096 3.1793 -1.00875
91.3561 3.33315 -1.0081
90.2976 4.24218 -0.978382
68.2811 3.79308 -0.255423
68.2247 4.13509 -0.256274
68.2684 4.23334 -0.258584
79.3175 10.0733 -0.676085
75.9739 9.16679 -0.559059
50.1769 17.6468 -0.0698367
47.9961 29.66 -0.444527
47.9724 31.5679 -0.50959
48.8839 37.3164 -0.711907
73.1855 -17.7667 -0.465212
72.9192 -15.0314 -0.42822
78.0074 -13.8895 -0.575757
80.3725 -14.1362 -0.652652
83.998 -8.54095 -0.742488
84.0426 -8.20368 -0.743436
84.135 -8.07998 -0.745865
84.2243 -7.956 -0.748292
84.2553 -7.82236 -0.749682
84.2645 -7.68561 -0.749057
84.2502 -7.61491 -0.74923
84.2336 -7.47466 -0.748586
84.4526 -6.74636 -0.754765
84.5799 -6.62404 -0.758229
84.6627 -6.4954 -0.760661
84.7017 -6.36154 -0.76206
84.696 -6.22334 -0.761423
84.6923 -6.08435 -0.76179
84.6707 -5.94462 -0.761139
84.6156 -5.86997 -0.759279
75.7237 8.92812 -0.784153
75.7779 9.06352 -0.788573
58.5367 10.9579 -0.206018
54.0196 13.0158 -0.131632
47.9621 30.7868 -0.699497
48.6078 35.0932 -0.87968
65.4346 -18.6619 -0.45046
65.6033 -18.6099 -0.454781
65.7124 -18.4587 -0.455302
65.7829 -18.3942 -0.45655
65.8356 -18.3169 -0.456813
76.5404 -11.3824 -0.752862
77.7639 -9.2301 -0.785923
77.6271 -8.43023 -0.776908
75.564 -1.70409 -0.892623
76.6427 8.8658 -1.03798
76.0312 8.74408 -1.00899
76.2241 8.92133 -1.02068
76.9326 9.2567 -1.05634
60.0982 4.74998 -0.252145
75.4158 -7.55597 -0.892855
75.4461 -7.45039 -0.894169
74.4552 8.15449 -1.12972
74.3909 8.24911 -1.12791
74.3681 8.3558 -1.12917
74.2961 8.39088 -1.12618
65.3667 9.72839 -0.724111
51.0684 6.39214 0.00122021
45.5019 17.0727 -0.348262
47.2346 25.1684 -0.786726
47.6053 27.4892 -0.911317
47.9757 29.6714 -1.02854
48.0929 30.7198 -1.08446
48.0544 31.049 -1.1013
48.6365 35.0189 -1.31351
-17.5206 -1.53265 -2.21864
-17.4953 -1.6245 -2.21642
58.1921 6.26773 -0.426137
47.3189 25.6058 -0.987985
47.5276 26.9668 -1.06984
48.7175 34.8306 -1.5411
39.8257 16.2523 -0.391948
39.7843 16.0724 -0.381424
69.7396 6.42044 -1.21401
69.7161 6.51011 -1.21422
69.6482 6.587 -1.21135
69.5982 6.62097 -1.20939
69.5726 6.70984 -1.2096
69.5367 6.79569 -1.20879
69.4906 6.87952 -1.20796
69.4692 6.96999 -1.20818
56.0709 5.30627 -0.377283
47.1755 24.902 -1.08995
47.3183 25.955 -1.15892
47.5399 27.4082 -1.25303
48.7254 35.4651 -1.7788
-3.34827 14.1237 -2.25169
54.401 -17.397 -0.572928
54.4548 -17.36 -0.573084
54.6108 -17.0967 -0.567955
57.873 -14.421 -0.611612
57.9283 -14.4213 -0.614671
58.0096 -14.3176 -0.615035
58.0798 -14.2872 -0.617192
58.1819 -14.281 -0.622319
58.1987 -14.2113 -0.620523
58.2849 -14.1925 -0.624666
63.1379 -12.3329 -0.831864
65.7731 -9.3667 -0.926619
56.1848 5.24873 -0.496253
47.2657 25.3699 -1.3133
48.0326 30.7139 -1.69938
48.6103 34.3063 -1.95959
65.9365 5.92748 -1.28059
52.0941 6.07212 -0.344035
44.0925 7.36394 -0.0538442
44.0658 7.37857 -0.0548544
44.0373 7.38534 -0.0548417
44.0076 7.39022 -0.0538227
43.9781 7.39708 -0.0538092
43.9512 7.40973 -0.0538139
47.1943 24.9746 -1.41917
47.3808 26.0224 -1.50016
47.5879 27.3975 -1.60706
43.0301 16.4583 -0.721957
64.3598 4.59079 -1.29332
64.3901 4.67626 -1.29758
64.5729 5.08151 -1.32186
64.6221 5.17519 -1.32817
64.6424 5.26062 -1.33242
64.6473 5.34253 -1.33464
64.7536 5.4548 -1.34605
64.8671 5.56939 -1.35748
64.9964 5.6493 -1.36983
10.6759 3.82234 -1.80734
56.5349 5.3085 -0.809792
56.5125 5.35688 -0.809897
58.6899 10.6078 -1.21525
58.6402 10.6136 -1.21222
54.8539 15.2147 -1.2534
44.3795 6.75834 -0.127539
44.3562 6.77667 -0.128563
14.3953 -6.29051 -1.63538
58.4196 10.3584 -1.3073
58.403 10.4263 -1.30946
51.9535 5.94944 -0.569556
54.6803 15.187 -1.37014
57.0797 -7.73552 -0.891589
39.9956 16.6134 -1.1781
38.0902 13.2237 -0.862
46.8872 -14.4396 -0.764708
45.1979 7.00605 -0.414084
45.1556 6.98402 -0.40998
45.1304 6.96235 -0.406895
53.4295 6.76691 -1.10033
53.348 6.88027 -1.10055
43.6477 16.6817 -1.54822
35.5798 14.5728 -1.38189
48.5193 12.2055 -1.29754
50.5498 11.0738 -1.39171
50.5176 11.1141 -1.39379
50.4795 11.1469 -1.39383
50.4412 11.1767 -1.39487
36.1369 7.42408 -0.684422
48.1014 11.8115 -1.41204
48.0458 11.8078 -1.40897
53.4855 -4.69062 -1.12383
53.4851 -4.67366 -1.17988
36.0946 7.37319 -0.946242
45.3777 6.48909 -0.880901
42.2247 7.04825 -1.04799
45.353 7.91349 -1.45068
-13.7542 11.316 -19.204
-13.9895 11.1889 -19.2734
-13.8053 10.9633 -19.192
43.7949 -1.42626 -0.441079
43.8275 -1.41136 -0.455154
43.8081 -1.40444 -0.447152
40.2934 -0.131947 -0.158752
40.1067 -3.0224 -0.158841
40.0941 -3.04834 -0.169758
40.4439 -0.394361 -0.0602139
40.5165 -0.391341 -0.0653003
40.5459 -0.45136 -0.0351718
40.5263 -0.425397 -0.05022
40.3843 -0.251267 -0.168532
40.4783 -0.401776 -0.0862314
40.4718 -0.396139 -0.0912394
40.4676 -0.398741 -0.0912279
40.4283 -0.347807 -0.120321
40.3914 -0.303126 -0.146401
40.3448 -0.244469 -0.180507
40.3679 -0.285827 -0.159422
40.3724 -0.302308 -0.151383
40.38 -0.31709 -0.144351
40.3536 -0.288469 -0.161399
40.1751 -0.0445651 -0.299858
40.4329 -0.508823 -0.0578967
40.3371 -0.449475 -0.105952
38.838 -5.03999 -1.3111
42.6651 -2.85987 -0.283036
42.6168 -2.80791 -0.250122
42.6175 -2.80093 -0.248141
42.6413 -2.77309 -0.248241
76.1913 -12.0406 0.177396
