ply
format ascii 1.0
element vertex 503
property float x
property float y
property float z
end_header
176.046 -6.97543 4.01905
147.434 2.69993 3.05166
171.915 15.564 3.83185
169.364 17.3012 3.75816
166.78 16.8803 3.67778
151.722 34.6416 3.3986
151.508 34.6138 3.39209
151.242 34.6841 3.38686
147.322 35.3615 3.29838
147.18 35.5195 3.2973
147.227 35.8402 3.30267
147.275 36.1667 3.309
104.311 15.6333 2.09748
104.231 15.6494 2.09745
90.7418 27.2475 2.38564
91.2842 22.8045 2.26952
90.08 29.5178 2.44831
90.3181 23.8942 2.30401
61.9706 11.7737 2.66878
51.8667 14.042 2.99938
44.3149 17.1807 3.25979
24.5821 18.6474 3.90495
28.4789 16.6771 3.7688
20.3378 -8.598 4.10238
26.9155 -10.566 3.88783
55.614 -13.8975 2.91828
55.6243 -13.9615 2.91878
35.5068 -24.937 3.77302
37.0354 -26.9488 3.75619
54.1236 -22.2597 3.09809
54.2162 -22.523 3.10008
54.182 -23.1976 3.11453
68.3643 -20.4711 2.59281
68.5185 -20.5602 2.59032
69.4412 -21.1278 2.5727
88.4008 -22.5069 2.09682
132.654 -42.7442 3.34804
150.186 -31.0354 3.52022
165.113 -32.885 4.01022
168.711 -33.0056 4.12265
160.885 -21.8834 3.68948
160.907 -21.6765 3.6878
160.928 -21.4705 3.68512
161.009 -20.7488 3.67724
161.024 -20.5409 3.67456
161.072 -20.3406 3.6739
155.945 -5.04531 2.97391
166.053 16.7572 3.18467
147.353 35.2739 2.87103
147.225 35.4431 2.86984
147.281 35.7726 2.87413
36.8183 -27.7627 3.38197
159.098 -21.9105 3.22593
159.118 -21.7083 3.22429
159.126 -21.6075 3.22247
159.159 -21.4091 3.22085
159.191 -21.2096 3.21921
159.392 -20.121 3.21024
169.589 -2.54164 2.96967
166.939 17.019 2.85344
165.152 16.8582 2.81698
137.256 8.80505 2.2586
165.164 26.4221 2.82842
141.15 24.7655 2.38595
151.883 34.5766 2.62389
151.588 34.6266 2.61886
31.7431 -21.7396 3.12315
166.662 -32.1173 3.22409
158.987 -21.74 2.9197
159.009 -21.5392 2.91807
159.037 -21.3401 2.91544
159.036 -21.237 2.91461
159.065 -21.0381 2.91298
159.07 -20.8339 2.91034
159.134 -20.438 2.90709
159.141 -20.235 2.90446
173.836 -4.07097 2.48254
172.481 14.3295 2.36597
172.626 14.6354 2.36634
172.579 14.8833 2.36541
172.518 15.127 2.36354
172.52 15.259 2.36348
171.915 15.8538 2.35348
168.261 25.1411 2.28375
141.449 25.1829 1.96621
109.112 31.7332 1.74155
108.975 31.7412 1.74066
105.155 45.8618 1.82846
102.601 42.1839 1.80012
17.624 -17.9593 2.81469
124.787 -24.0312 2.01513
124.845 -23.9463 2.01438
171.569 -33.5433 2.7453
158.679 -21.9132 2.43246
165.454 -22.4482 2.5312
171.472 -21.2082 2.60069
164.799 26.4798 1.84539
152.153 34.4793 1.7323
151.829 34.5081 1.73048
120.867 12.7957 1.5623
108.192 -21.3456 1.69755
108.305 -21.3854 1.69873
124.596 -23.894 1.84627
171.262 -33.8078 2.34079
171.872 -33.7482 2.34455
168.269 24.812 1.32634
152.849 34.3705 1.24328
152.571 34.4393 1.24208
98.8534 17.1042 1.30656
81.0894 67.0511 1.09118
80.9515 67.1197 1.09181
80.6996 67.1376 1.09198
110.664 -25.1549 1.61792
108.136 -21.4115 1.57715
108.153 -21.3492 1.57563
108.194 -21.3136 1.57529
170.246 -33.8075 1.78905
171.452 -33.9548 1.79271
158.519 -21.7196 1.66109
163.802 -22.0559 1.67412
165.416 -22.1511 1.67784
171.426 -23.0802 1.6967
161.048 -20.8767 1.65815
164.387 26.2269 0.9509
152.422 34.6461 0.907598
152.035 34.6262 0.908246
151.659 34.6139 0.909819
151.364 34.663 0.909798
151.088 34.7245 0.909653
100.867 31.031 1.04955
100.792 30.9303 1.05045
100.657 30.8431 1.05132
108.012 -21.4443 1.49556
108.109 -21.469 1.49564
125.442 -24.0136 1.46915
156.446 -31.7579 1.44404
158.099 -32.0584 1.44136
158.609 -21.9193 1.36356
159.311 -20.0139 1.34642
176.096 -7.91726 0.698417
169.609 -5.9047 0.741489
165.64 -5.18113 0.771704
164.271 -4.92914 0.781414
163.272 20.3025 0.542712
120.611 7.5132 1.04389
145.014 28.2534 0.595097
144.785 28.3196 0.595857
144.877 28.6319 0.591241
120.403 12.504 0.981201
102.971 41.5453 0.623724
97.3661 16.3697 1.03431
97.263 15.744 1.04445
73.6512 38.8653 0.667147
125.561 -24.0783 1.25951
158.453 -21.9393 0.960905
158.236 -21.69 0.961183
158.207 -21.481 0.960547
158.208 -21.2783 0.958923
158.213 -21.0771 0.957306
158.221 -20.9782 0.956505
158.249 -20.7812 0.954892
158.296 -20.5889 0.953293
158.345 -20.3958 0.951686
175.778 -8.21932 0.216219
174.353 -7.98272 0.236123
158.897 -5.37223 0.449726
151.698 -3.83276 0.545484
170.903 -0.128807 0.218611
156.077 3.16827 0.409923
159.136 31.2752 -0.008917
153.928 28.2139 0.107157
153.831 28.4071 0.104733
153.757 28.6153 0.10316
103.275 9.98097 0.995994
102.36 42.0629 0.303342
73.9479 38.349 0.354895
124.941 -24.2137 1.06537
153.57 -30.9677 0.678315
158.607 -29.1705 0.600577
159.345 -29.1933 0.58983
159.999 -29.2954 0.579822
159.573 -26.1266 0.573995
159.564 -25.9103 0.573275
157.991 -21.0837 0.573626
157.987 -20.8812 0.57201
158.033 -20.6887 0.570412
159.383 -20.6433 0.550345
159.452 -20.451 0.547719
162.858 -7.94323 -0.0517079
148.516 16.0878 -0.0419671
148.438 16.2522 -0.0431838
152.955 26.1527 -0.311133
90.1393 31.0366 0.280004
126.228 -24.315 0.813549
139.373 -28.4301 0.543902
139.523 -28.3348 0.540951
139.725 -28.263 0.537121
140.488 -28.2742 0.521248
140.831 -28.2594 0.514697
141.584 -28.0007 0.498676
145.348 -22.9958 0.414867
151.645 -22.2284 0.277781
154.581 -18.6511 0.200443
146.184 -15.4997 0.111805
146.24 -15.3479 0.11052
146.26 -15.2709 0.108878
146.292 -15.1149 0.107589
146.368 -14.9649 0.105293
146.476 -14.8184 0.100984
146.554 -14.6688 0.0986873
146.734 -14.1285 0.0911353
146.753 -13.9706 0.0888476
146.923 -13.8276 0.0834893
146.748 -13.4892 0.0870019
146.613 -13.318 0.0898016
146.588 -13.2358 0.090175
146.666 -13.0831 0.0868543
146.731 -12.9297 0.0845436
146.782 -12.7742 0.082235
146.81 -12.6166 0.0799379
146.817 -12.458 0.0786601
146.868 -12.3016 0.0763435
146.888 -12.2236 0.0756941
146.853 -12.0612 0.0754385
153.02 -6.49768 -0.135875
151.221 -5.44363 -0.0960414
151.073 -5.28069 -0.0941589
150.962 -5.11491 -0.0923468
150.883 -4.94833 -0.0915794
137.401 -1.48666 0.235724
136.969 -0.570437 0.235935
146.837 3.73765 -0.0870002
151.397 16.4496 -0.416508
98.6328 14.2681 0.644521
126.211 -24.3059 0.640493
133.832 -26.7339 0.44431
133.981 -26.6597 0.441528
134.126 -26.5829 0.437731
131.192 -23.4212 0.520126
135.39 -22.9253 0.41286
144.803 -20.0405 0.163893
144.395 -19.1517 0.173294
146.316 -16.5609 0.113133
146.115 -16.1291 0.11693
145.977 -15.9495 0.119666
146.034 -15.7978 0.117381
146.107 -15.6485 0.115093
140.066 -10.1816 -0.0110502
140.323 -10.0518 -0.0214133
140.519 -9.91956 -0.028719
140.696 -9.78473 -0.0350219
140.823 -9.71866 -0.0397115
140.894 -9.5801 -0.0429098
140.985 -9.44133 -0.0471353
141.063 -9.30176 -0.0513509
141.192 -9.16328 -0.0566225
141.312 -9.02343 -0.0618925
141.47 -8.883 -0.0682171
141.573 -8.81249 -0.071911
141.685 -8.66955 -0.0761962
141.823 -8.52722 -0.0825094
141.946 -8.38282 -0.0878206
142.028 -8.23886 -0.0920771
142.831 -7.42782 -0.125581
142.919 -7.27959 -0.129879
143.03 -7.12943 -0.134221
143.095 -6.98002 -0.138499
143.245 -6.901 -0.144321
143.351 -6.74817 -0.148678
143.473 -6.59558 -0.154054
143.635 -6.43945 -0.161508
143.77 -6.28356 -0.166926
143.889 -6.12843 -0.172317
144.051 -5.96834 -0.179804
144.177 -5.88588 -0.184622
144.275 -5.72898 -0.189003
154.914 13.9927 -0.834291
154.625 13.9865 -0.824876
154.421 14.1178 -0.82067
153.646 14.6497 -0.80795
152.882 15.6969 -0.805368
152.831 15.9907 -0.809656
152.932 16.2472 -0.818836
151.994 16.6736 -0.799065
126.033 37.0407 -0.716345
125.918 37.0223 -0.714053
125.556 -27.0194 0.43803
125.643 -26.9456 0.43633
136.239 -21.2896 0.143689
136.324 -20.7664 0.141393
136.378 -20.7143 0.139909
136.424 -20.5904 0.13886
136.399 -20.4467 0.13974
136.462 -20.3282 0.137712
136.587 -20.2275 0.133748
136.571 -20.086 0.134636
136.682 -19.9812 0.130658
137.047 -19.8766 0.119359
137.801 -17.7341 0.0942594
138.734 -16.2758 0.0604104
138.649 -16.1237 0.0632995
138.626 -15.9146 0.0636543
138.631 -15.7789 0.0625626
138.863 -15.2691 0.0541889
139.016 -14.6766 0.047253
133.513 -13.8234 -0.0206389
133.549 -13.7092 -0.0225976
133.569 -13.5929 -0.0235541
133.588 -13.4764 -0.0245105
133.904 -12.7391 -0.039812
133.995 -12.6284 -0.0438111
134.008 -12.5697 -0.0442979
134.034 -12.4532 -0.0462634
134.071 -12.3373 -0.0482386
134.105 -12.2208 -0.0502132
134.145 -12.1042 -0.052197
134.194 -11.9888 -0.054182
134.246 -11.8739 -0.0571675
134.271 -11.7553 -0.0591491
134.312 -11.6995 -0.060648
134.331 -11.5799 -0.0616286
134.349 -11.4612 -0.0636009
134.385 -11.3441 -0.065584
134.486 -10.9896 -0.0715484
134.671 -9.43239 -0.0882467
134.739 -9.37318 -0.0918061
134.882 -9.25489 -0.0989344
135.045 -9.13525 -0.106098
135.157 -9.01451 -0.111205
135.279 -8.89317 -0.11733
135.335 -8.77079 -0.120381
135.436 -8.64755 -0.125495
135.536 -8.58569 -0.130115
135.599 -8.46229 -0.133183
135.704 -8.33861 -0.138306
135.79 -8.21329 -0.142418
135.913 -8.08701 -0.148583
136.008 -7.96096 -0.153712
136.116 -7.83458 -0.15886
136.327 -7.64096 -0.169677
136.41 -7.51311 -0.173804
136.493 -7.38342 -0.177948
136.575 -7.25445 -0.183083
136.654 -7.1252 -0.187218
136.641 -6.99812 -0.188218
137.032 -6.66188 -0.206403
137.109 -6.52925 -0.210561
137.487 -5.92466 -0.231878
137.579 -5.78815 -0.237087
137.668 -5.65209 -0.242288
137.748 -5.51478 -0.247488
137.85 -5.37556 -0.252731
137.941 -5.2368 -0.257957
138.021 -5.0985 -0.262164
144.946 11.6081 -0.822636
116.524 8.26356 0.254008
22.2574 -16.0572 -1.28451
131.337 -17.8748 0.0665356
131.609 -16.8293 0.0568244
132.436 -15.7158 0.0248679
132.511 -15.6121 0.0219437
132.591 -15.5092 0.0190187
132.667 -15.4642 0.0155632
132.725 -15.3573 0.0136333
132.764 -15.2455 0.0116901
132.829 -15.1395 0.00875928
132.872 -15.0285 0.00681551
132.908 -14.9164 0.0048728
132.929 -14.8022 0.0039323
132.904 -14.739 0.00545923
132.907 -14.6214 0.00451328
132.958 -14.5114 0.00256833
133.028 -14.404 -0.000379396
133.087 -14.2952 -0.00332553
133.16 -14.1881 -0.00627358
133.252 -14.0829 -0.0102327
133.353 -14.0384 -0.0137163
133.462 -13.9354 -0.0186777
133.237 -5.67067 -0.286554
133.325 -5.54663 -0.291658
133.38 -5.42511 -0.2957
133.464 -5.35907 -0.300335
133.549 -5.23362 -0.305446
133.614 -5.10938 -0.310523
133.684 -4.98385 -0.314616
133.748 -4.85947 -0.319692
133.815 -4.73352 -0.323784
133.876 -4.60774 -0.327868
133.961 -4.53887 -0.333527
134.617 -3.73481 -0.373791
134.809 5.36419 -0.551868
135.184 5.6381 -0.574533
135.266 5.80735 -0.581991
135.22 5.86008 -0.581357
135.129 5.96568 -0.579087
134.971 6.32386 -0.581754
134.862 6.42077 -0.579392
134.74 6.51254 -0.575972
135.005 6.68752 -0.591708
135.329 7.10068 -0.615425
135.103 7.15136 -0.607545
135.042 7.26894 -0.607408
135.107 7.43756 -0.61484
135.305 7.7359 -0.630479
32.2755 -10.8074 -1.32117
98.8479 -23.3075 0.886013
129.567 -15.0846 -0.0645701
129.648 -14.9918 -0.0684142
129.687 -14.8903 -0.0702766
129.672 -14.8336 -0.0687108
129.832 -14.0503 -0.0771831
129.836 -13.9428 -0.0770483
129.877 -13.8415 -0.0789111
129.903 -13.7381 -0.0807714
129.915 -13.6317 -0.0806378
119.772 1.31344 0.0415356
104.253 11.3033 0.181149
104.186 11.3167 0.182127
44.9695 -14.7948 -1.05125
124.519 -15.797 -0.00650072
124.407 -15.535 -0.000456084
124.466 -15.4553 -0.00316772
124.462 -15.3609 -0.00191874
124.53 -14.8645 -0.00397748
124.498 -14.7652 -0.00173246
124.509 -14.6748 -0.0024694
127.894 0.531057 -0.542463
127.941 0.652682 -0.547497
127.935 0.759554 -0.550344
127.94 0.868874 -0.553226
127.947 0.979898 -0.556124
127.959 1.09235 -0.559039
127.978 1.20681 -0.562979
127.991 1.26553 -0.565465
128.014 1.38241 -0.56943
128.024 1.49513 -0.573345
128.043 1.61156 -0.577301
128.072 1.73072 -0.581291
128.09 1.8473 -0.585247
128.097 1.96043 -0.589161
128.137 2.02957 -0.592765
128.169 2.15128 -0.59778
128.185 2.26912 -0.601744
128.192 2.38324 -0.605666
128.199 2.49837 -0.608596
128.212 2.61563 -0.612552
128.244 2.73932 -0.617583
128.29 2.81271 -0.622228
128.295 2.92811 -0.626158
105.663 -24.3951 0.512113
98.9111 11.6879 -0.0061987
108.826 -21.6088 0.406819
120.044 -14.1617 -0.0609479
111.736 6.64865 -0.315047
94.9748 1.39535 0.601166
112.157 6.64948 -0.482589
76.7166 -18.9373 -0.366101
113.045 -18.3986 -0.176214
104.632 11.1645 -0.719247
114.048 -14.7668 -0.266552
110.53 4.33339 -0.587004
110.649 4.52571 -0.610693
102.062 9.0122 -0.548773
101.894 -1.17979 -0.635988
98.8842 -8.56839 0.309977
98.9046 -8.53091 0.300651
150.623 -14.6758 -21.2361
150.626 -14.5035 -21.2315
150.693 -14.0788 -21.245
150.687 -13.9052 -21.2373
150.704 -13.735 -21.2397
95.4037 -7.12625 0.583831
95.3809 -7.15937 0.591126
120.597 -14.1634 -9.12693
120.636 -14.0911 -9.13756
120.646 -14.0138 -9.13519
120.693 -13.9437 -9.14981
120.723 -13.8701 -9.15544
120.719 -13.7897 -9.14708
95.5813 -7.44673 0.711177
95.5463 -7.40067 0.686851
95.6482 -7.45906 0.711191
95.6592 -7.48874 0.725415
95.5437 -7.33924 0.623361
95.5929 -7.42848 0.670015
95.5894 -7.43203 0.671048
95.5652 -7.40256 0.653842
95.5346 -7.36114 0.629548
95.4953 -7.30244 0.597127
95.4686 -7.2696 0.577897
95.4957 -7.3216 0.60528
95.4762 -7.30184 0.592146
95.4942 -7.33952 0.611425
95.4532 -7.28561 0.581044
95.4726 -7.42917 0.641171
95.5562 -7.55431 0.711069
95.4289 -7.44635 0.636363
95.1679 -9.9559 0.573777
97.6809 -9.88251 0.530019
97.6653 -9.96547 0.490702
97.6236 -9.91703 0.520367
97.6273 -9.91249 0.520327
-36.9728 2.1806e-39 0
