ply
format ascii 1.0
element vertex 515
property float x
property float y
property float z
end_header
110.769 9.38484 3.12409
110.208 9.56265 3.10441
94.4026 14.4932 2.56281
55.7699 15.1022 1.36838
55.6466 15.1288 1.36515
36.2781 17.1106 1.00758
24.3872 18.8897 1.07972
22.158 22.1596 1.17593
11.5401 20.6261 1.35179
11.5044 20.5285 1.35087
9.64069 20.7984 1.3998
9.47988 20.82 1.40364
9.32818 20.8298 1.40761
9.16346 20.8527 1.41243
9.00977 20.8627 1.4164
8.8393 20.889 1.42119
8.67611 20.9058 1.42508
8.5054 20.9291 1.42991
8.36571 20.9902 1.43431
8.20236 21.005 1.43822
8.03794 21.0188 1.44215
7.86225 21.0425 1.44697
7.68641 21.0643 1.45182
7.51432 21.0827 1.4567
1.57452 22.9549 1.633
3.47056 21.1015 1.56341
9.92881 15.8742 1.33665
9.76355 15.6193 1.33952
-1.00166 20.8989 1.68676
-1.14136 20.8436 1.69044
-1.25089 20.8412 1.69351
-1.38883 20.7827 1.69722
-1.48194 20.6947 1.69923
-2.23345 20.7303 1.7212
-3.1633 21.0136 1.75053
-3.1757 20.9443 1.7503
-27.2775 33.5724 2.54132
-27.1087 33.2272 2.53403
-27.0676 32.9571 2.53197
-27.4028 32.903 2.54072
-27.2823 32.7111 2.53677
-27.3457 32.5023 2.53709
-27.4399 32.3101 2.53924
-3.64202 17.4758 1.74355
-2.74583 16.6695 1.71296
-28.6071 29.3206 2.55957
-2.66038 16.2204 1.70784
-5.30341 17.0969 1.79349
-5.35323 17.0497 1.79503
-5.79761 15.7593 1.80439
-5.47742 15.4785 1.79332
-5.12757 15.2565 1.78159
-6.07537 15.5282 1.81206
-30.5335 25.6502 2.60773
-34.0077 24.4812 2.7162
-34.2905 24.3528 2.72574
-35.1505 23.9606 2.75245
-37.7167 24.6646 2.83595
-37.9373 24.4973 2.84289
-38.2926 24.3776 2.85437
-36.3718 23.5655 2.79136
-36.0636 22.0217 2.78114
-33.0862 20.9044 2.68497
-33.094 20.0043 2.68585
-37.1825 20.8413 2.81862
-34.644 18.3359 2.73788
-41.0921 -17.8488 3.33069
-31.5238 -16.2455 2.98155
-30.75 -16.1616 2.95326
-32.4302 -17.0011 3.02527
-30.8958 -16.8241 2.9716
-11.9629 -13.1012 2.27076
-11.9131 -13.2345 2.2712
-16.9017 -14.8154 2.46791
-16.8533 -14.9666 2.46954
-16.7932 -15.0315 2.46923
-16.7592 -15.1876 2.47092
-16.6512 -15.3214 2.47034
-16.5483 -15.4558 2.46976
-16.1557 -15.5015 2.45708
-15.7218 -15.5324 2.44421
-15.6495 -15.6734 2.44472
-20.1286 -17.1638 2.62219
-34.2202 -23.3156 3.21436
-36.1126 -25.5175 3.3244
-35.8636 -25.6683 3.31994
-35.4953 -26.014 3.31555
-34.8875 -26.5047 3.30764
-23.2517 -24.0339 2.87901
-23.433 -24.5202 2.89643
-11.323 -21.7805 2.44962
-11.3151 -21.8604 2.4515
-34.2118 -34.3242 3.48006
-8.78284 -22.4712 2.38999
16.512 -9.04048 1.26168
16.8617 -9.34153 1.25981
16.9417 -9.35781 1.25795
16.3562 -10.0511 1.29484
17.1116 -9.66188 1.26121
18.5186 -9.18811 1.20634
19.0017 -10.019 1.21722
19.2091 -9.93089 1.20916
19.1468 -10.281 1.22103
19.1758 -10.3204 1.22145
16.8582 -15.3707 1.44893
67.2956 -24.3748 2.26178
70.6063 -20.8959 2.25907
72.2556 -21.3434 2.3202
76.6947 -21.668 2.46166
81.1732 -22.8019 2.62498
81.3455 -22.5987 2.62567
100.493 -17.2394 3.11586
100.539 -17.0223 3.11346
100.565 -16.7996 3.11001
100.583 -16.5764 3.10655
100.62 -16.3576 3.10414
100.625 -16.2457 3.10191
100.667 -16.0273 3.09949
100.699 -15.8081 3.09607
100.73 -15.5879 3.09364
110.728 9.26405 2.61841
110.161 9.44236 2.60172
106.482 10.5158 2.49569
22.1924 22.072 1.01587
-33.6317 33.6221 2.26377
-30.809 30.5159 2.18849
-6.27178 15.5035 1.55541
-35.5355 -25.3339 2.84709
-3.78538 -17.5414 1.85854
-10.662 -23.7689 2.17509
10.3801 -15.5198 1.46264
81.4892 -34.0617 2.56328
67.1751 -24.3394 1.98744
52.2805 -11.9959 1.33313
85.5255 -22.0267 2.3734
98.9734 -17.1967 2.62709
99.0002 -16.9802 2.6247
98.8873 -16.7298 2.61701
98.9171 -16.5144 2.61363
98.9528 -16.3006 2.61127
98.9619 -16.0806 2.60786
99.0054 -15.8684 2.60551
99.012 -15.7586 2.6033
99.0329 -15.5416 2.60091
99.0903 -15.3324 2.59859
73.0914 9.16054 1.41831
71.9725 9.42482 1.39295
22.1659 22.17 0.899795
-38.2345 23.7672 2.03199
-32.4161 21.4948 1.91214
79.471 -21.0138 1.95714
98.6753 -16.5173 2.28376
98.7536 -15.8715 2.27564
89.3416 10.6211 1.31859
-22.7768 -22.988 1.74225
-22.8239 -23.207 1.74667
77.1588 -20.6451 1.52717
98.5976 -23.7089 1.87162
99.7276 -23.8568 1.8897
100.95 -24.0288 1.91001
102.116 -24.1735 1.92805
103.393 -24.3478 1.94935
104.654 -24.5078 1.96851
105.887 -24.7801 1.99091
103.297 -18 1.8518
105.055 -17.8144 1.87393
98.5536 -15.2078 1.74343
108.256 9.96032 1.20386
106.783 10.4729 1.18494
88.2596 13.1129 0.985764
69.2011 9.96223 0.835334
63.4427 11.3422 0.771931
36.093 16.1983 0.566645
22.3142 21.7277 0.582556
-31.3848 26.755 1.00192
85.9099 -21.5772 1.36523
95.6129 -20.2376 1.43395
101.517 9.83132 0.649437
89.1146 8.94993 0.625979
45.2542 17.0062 0.445437
22.9828 20.2776 0.422127
-29.3259 34.488 0.441131
-41.7735 29.8688 0.526681
-33.0105 21.8804 0.575111
92.1147 -22.7119 0.990708
102.036 -24.3256 1.0347
107.346 -25.0482 1.05711
98.2068 -16.4988 0.932697
98.2413 -16.2868 0.930357
98.2739 -16.0747 0.928016
98.3015 -15.8612 0.925662
98.3706 -15.657 0.92339
98.3543 -15.5434 0.922152
98.3553 -15.3248 0.919755
72.6145 10.1681 0.37143
46.1057 18.2165 0.323756
-31.7134 29.2069 0.169147
-35.1375 25.702 0.206199
-43.8895 15.5034 0.314168
98.228 -17.0275 0.616465
97.9657 -16.4143 0.610867
97.9825 -16.199 0.608498
98.0091 -15.9864 0.606154
98.0583 -15.7786 0.603853
98.1027 -15.5695 0.601538
98.7779 -15.1676 0.595812
110.583 5.65479 -0.15612
69.4646 13.0902 0.08887
69.3866 13.1956 0.0877518
46.0486 18.101 0.175041
37.0996 19.8161 0.17848
37.0701 19.8364 0.178271
37.0123 19.88 0.17782
36.9387 19.8617 0.178056
36.8713 19.872 0.177975
-37.5293 31.7659 -0.352184
62.0087 -19.4824 0.486544
98.2292 -17.0915 0.18314
98.1614 -16.8536 0.181563
98.7426 -16.7714 0.176387
97.6312 -16.3981 0.181821
98.5448 -15.2907 0.164246
99.3288 -15.1271 0.15608
78.9155 7.89621 -0.214684
78.8502 8.0367 -0.215193
50.7846 20.2889 -0.0632068
36.9877 19.4463 0.0565797
36.9844 19.7013 0.0507854
36.8541 19.8698 0.0469988
33.9247 18.9204 0.078799
29.6461 21.5676 0.0158012
29.6227 21.086 0.0270924
96.0289 -19.9648 -0.184337
94.9362 -17.7132 -0.185505
101.729 -18.2314 -0.277049
98.4195 -16.1942 -0.245813
94.4198 -4.36515 -0.731636
94.3445 -4.26199 -0.730732
86.8794 9.06667 -0.733323
86.8814 9.15677 -0.735312
78.2181 7.73531 -0.531608
71.8747 12.6979 -0.480006
54.946 14.5603 -0.188381
50.9043 20.2924 -0.263314
50.7829 20.2919 -0.26225
38.598 16.988 -0.0242369
37.0501 19.2293 -0.0830788
32.7326 30.0426 -0.412605
32.4702 24.3986 -0.231591
32.3693 23.5661 -0.205415
59.9852 -19.425 0.0578482
79.316 -20.5151 -0.310387
79.4604 -20.4 -0.313718
79.6196 -20.3773 -0.316043
79.6561 -20.2177 -0.31781
89.8361 -16.4097 -0.5414
95.1614 -12.3947 -0.678951
85.6861 -3.2487 -0.831742
85.5172 -3.07203 -0.828599
72.7128 3.3794 -0.564243
86.5321 9.21698 -1.01382
59.6758 5.86111 -0.260253
59.6893 5.95733 -0.262314
59.6834 6.04905 -0.264317
64.904 10.289 -0.47429
71.8105 12.7607 -0.696677
47.5842 16.332 -0.230318
47.5234 16.3749 -0.230759
47.4602 16.4139 -0.230157
47.4608 16.5242 -0.234366
47.3713 16.5341 -0.232433
32.7358 30.0837 -0.572067
32.4827 24.4303 -0.362952
32.4022 24.3754 -0.360312
32.3059 23.5757 -0.330497
-31.4169 28.5622 -1.53503
58.4137 -19.3063 -0.0797163
82.4834 -14.4951 -0.668912
84.9 -11.7058 -0.745644
85.4733 -11.6462 -0.760569
85.5698 -10.7019 -0.768969
85.3706 -6.0284 -0.798115
79.5094 0.373571 -0.989536
47.6253 16.2912 -0.368898
47.526 16.2919 -0.366859
47.5045 16.3768 -0.36878
32.7293 30.025 -0.753432
32.4675 24.3757 -0.510355
32.3661 23.5103 -0.473817
31.6158 15.7864 -0.140759
31.5893 15.8065 -0.141967
31.5374 15.8095 -0.141976
26.2033 14.2878 -0.105761
68.7088 -14.523 -0.553068
55.4461 6.60796 -0.476449
59.1138 14.6114 -0.819955
47.3605 16.3683 -0.518627
32.6374 24.5732 -0.686612
32.5658 24.8394 -0.699497
32.4729 24.4185 -0.678838
32.4257 24.1345 -0.6647
32.3338 23.5331 -0.635062
69.4975 -12.6104 -0.837429
68.9698 1.59994 -1.12899
70.0827 3.12856 -1.20128
70.1691 3.25919 -1.20776
70.2758 3.39326 -1.21428
70.1026 5.77062 -1.24726
70.0595 5.88732 -1.24752
70.0164 6.00401 -1.24778
58.8696 4.71392 -0.731321
32.7476 30.0384 -1.14161
32.3799 23.5189 -0.778936
64.2898 -3.22219 -1.0529
65.0399 1.80505 -1.14738
65.1227 1.86476 -1.15207
65.1855 1.97518 -1.15731
65.2574 2.08788 -1.16258
65.3041 2.19756 -1.16681
65.3701 2.31073 -1.17208
32.8056 30.0099 -1.31734
32.7083 29.9964 -1.31614
32.3607 23.4777 -0.916484
30.5989 -16.56 -0.0426365
63.8642 -8.30739 -1.01395
63.9128 -8.21188 -1.01602
63.9662 -8.11877 -1.01906
64.0295 -8.02643 -1.0221
64.4081 -4.78312 -1.04884
64.3883 -4.67725 -1.049
64.3824 -4.57248 -1.04914
64.3635 -4.46668 -1.04829
64.3516 -4.41359 -1.04787
62.8342 3.2613 -1.25931
62.8967 3.36873 -1.26451
62.9461 3.47517 -1.26971
41.7046 16.2912 -0.741113
41.6463 16.3158 -0.741355
41.5635 16.2961 -0.7381
32.7473 29.9812 -1.51201
32.4199 23.5165 -1.07495
31.653 15.7469 -0.549369
-19.7424 -3.77342 -2.28609
-19.7336 -4.09808 -2.28354
-17.0534 -8.19759 -2.11385
30.5762 -16.5945 -0.144254
47.3902 15.7676 -1.02909
47.3217 16.2802 -1.05567
47.218 16.2743 -1.05056
32.71 30.0555 -1.68181
32.3615 23.5387 -1.20617
-8.12723 14.1971 -2.21062
50.374 -13.0223 -0.676837
50.6571 -13.1217 -0.693882
50.7387 -13.091 -0.697258
50.8573 -12.9979 -0.701334
57.4194 -9.97694 -1.02259
59.0983 6.47652 -1.4688
32.383 23.5692 -1.37953
56.0779 -7.14606 -1.09699
56.0929 -7.069 -1.09784
56.1335 -6.99796 -1.10064
56.1456 -6.91965 -1.10051
56.1449 -6.83835 -1.1004
56.1736 -6.80449 -1.10178
56.1079 -6.70804 -1.09681
56.0531 -6.61346 -1.09282
57.0601 -4.38239 -1.15776
53.284 6.14541 -1.18339
53.2786 6.21802 -1.18619
53.2959 6.29888 -1.19008
53.5964 10.329 -1.37042
53.5417 10.3874 -1.36904
53.5118 10.4148 -1.36832
53.4634 10.4768 -1.36798
53.4067 10.5344 -1.36658
53.3719 10.6033 -1.36832
53.3183 10.6616 -1.36694
53.2751 10.7251 -1.36761
53.1929 10.8549 -1.368
42.062 16.4098 -1.10561
38.6098 13.0864 -0.730509
38.5485 13.0721 -0.727323
38.525 13.079 -0.727387
32.3222 19.1251 -1.12276
32.2573 19.0129 -1.1135
54.2984 5.06536 -1.37405
54.3177 5.14606 -1.37894
54.3371 5.22776 -1.38285
51.8408 9.96477 -1.3886
51.6977 9.96899 -1.37858
41.9776 16.3047 -1.22642
38.5593 13.0431 -0.828016
32.5325 24.3672 -1.73337
32.4535 24.3703 -1.73336
1.17518 -6.1105 -1.84536
46.9622 -12.1658 -0.829619
51.7432 2.87937 -1.22686
52.4446 5.17961 -1.35742
50.8913 8.88505 -1.39131
50.8514 8.94031 -1.3909
50.8095 8.99473 -1.39047
50.7959 9.06398 -1.39323
50.756 9.11924 -1.39281
50.7455 9.19024 -1.39559
50.7266 9.21779 -1.39588
50.6837 9.27229 -1.39546
50.6396 9.32487 -1.39501
50.6322 9.39764 -1.39781
42.1574 16.2423 -1.34383
42.1026 16.2726 -1.34413
38.5589 13.2436 -0.93422
32.4737 24.307 -1.87269
32.4131 23.4901 -1.7927
31.4534 14.6478 -0.934247
27.6499 13.9898 -0.916229
50.5691 3.0146 -1.24579
45.5509 14.5692 -1.5091
39.2213 13.5064 -1.07943
39.1524 13.4838 -1.07514
39.2069 13.6438 -1.09193
38.7353 13.3831 -1.04784
31.5463 14.888 -1.05093
48.3344 8.28938 -1.39857
44.7844 13.289 -1.4817
44.7624 13.3549 -1.48642
44.7141 13.3918 -1.4858
31.4651 14.8361 -1.14633
47.6621 7.91199 -1.43011
47.5867 7.93496 -1.42533
44.0478 12.5238 -1.48096
43.998 12.5538 -1.48027
31.4402 14.5805 -1.21352
29.5166 18.0638 -1.62882
26.0347 14.421 -1.40822
25.9678 14.4512 -1.41352
39.2001 13.6318 -1.50282
39.0044 13.3596 -1.46074
29.0354 14.0556 -1.37063
37.1344 -13.9355 -0.940563
31.7668 16.5853 -1.76769
44.3139 -8.81794 -1.17109
34.1 7.34399 -0.67541
28.0855 13.9388 -1.65192
38.6296 11.4546 -1.57068
38.5982 11.4881 -1.57303
38.5623 11.517 -1.57433
43.0104 2.38244 -1.26827
43.0093 2.42062 -1.26969
43.0011 2.45636 -1.27108
42.9867 2.49058 -1.27045
42.999 2.53271 -1.27492
43.0139 2.55659 -1.27818
27.7102 7.90344 -1.00953
27.7011 7.85007 -1.00194
37.0924 9.56365 -1.60122
37.0667 9.5937 -1.60454
37.027 9.59883 -1.60157
26.9863 10.7402 -1.75034
26.9575 10.7053 -1.74694
26.9246 10.6828 -1.74468
26.8866 10.6707 -1.74553
26.8452 10.6669 -1.74747
26.8064 10.6579 -1.74835
36.7605 9.06193 -1.59356
36.7369 9.09382 -1.5969
36.6979 9.09488 -1.59389
36.6431 9.06114 -1.5835
35.7412 7.28071 -1.20853
36.7133 8.95761 -1.6534
36.6633 8.97255 -1.65154
20.7103 0.66668 -1.57891
20.7096 0.631643 -1.57752
38.8227 5.78542 -1.46361
40.2672 -2.67246 -1.27355
40.2823 -2.61949 -1.27514
40.2765 -2.59092 -1.27245
40.2777 -2.56293 -1.27276
40.2927 -2.53804 -1.27504
40.3017 -2.51268 -1.27632
40.3038 -2.4988 -1.27647
40.3069 -2.47195 -1.27577
35.617 -15.8354 -4.74524
35.9711 -16.7906 -5.08896
34.2835 -0.626192 -0.537106
30.6948 0.626588 -0.291125
32.1525 -2.42528 -0.152348
30.9275 0.331086 -0.158988
31.0008 0.319389 -0.156894
31.0154 0.287331 -0.141548
32.0067 -2.79224 -0.347268
32.0116 -2.78053 -0.342398
30.8999 0.414626 -0.236895
30.9507 0.332929 -0.192021
30.9402 0.339708 -0.19709
30.9144 0.36861 -0.214396
30.8876 0.397578 -0.232702
30.8373 0.460255 -0.270368
30.8125 0.489079 -0.287673
30.8427 0.439873 -0.261146
30.8348 0.441468 -0.26316
30.8451 0.418726 -0.251915
30.8036 0.465772 -0.280413
30.8381 0.315362 -0.214776
30.9135 0.214844 -0.156706
30.8961 0.185168 -0.150372
30.7633 0.333908 -0.242946
33.2392 -2.03355 -0.35517
32.7998 -9.82798 -3.5977
32.9414 -10.8079 -4.04605
33.1925 -2.09232 -0.374505
33.1508 -2.04865 -0.346962
33.1552 -2.04398 -0.347016
33.0945 -1.94643 -0.297053
49.7154 -15.5251 1.15033e-41
