ply
format ascii 1.0
element vertex 466
property float x
property float y
property float z
end_header
177.399 15.7522 3.81136
136.321 9.422 2.65257
161.88 30.6132 3.6139
102.568 42.7654 3.20028
101.508 38.7669 3.07535
99.7031 34.911 2.95984
99.5581 35.019 2.96441
99.418 35.0282 2.96507
99.4827 32.3237 2.87711
99.7821 14.8503 2.3063
98.5151 13.9469 2.28754
94.4731 14.1053 2.34086
90.2499 23.5516 2.69756
79.1475 47.5794 3.61343
78.6837 46.6817 3.59478
78.0042 46.5813 3.60418
77.6892 46.3461 3.603
80.0957 18.1563 2.75628
79.5245 13.9041 2.66831
76.8558 12.2322 2.70827
62.4943 12.5413 3.18225
62.0325 12.6377 3.20036
61.571 12.7299 3.21747
61.0828 12.8332 3.2357
56.5017 15.2527 3.42983
53.9397 15.5944 3.52378
52.5525 14.6762 3.55962
48.007 14.244 3.71511
48.0062 14.044 3.71236
40.4706 16.4268 4.0118
46.597 13.5373 3.75679
45.9084 13.415 3.78027
35.3491 16.6481 4.19927
44.6301 12.1819 3.81297
44.5138 12.0209 3.81573
39.9939 12.5096 3.98596
36.8087 13.0692 4.10865
21.8584 -11.3254 4.59007
21.8888 -11.5754 4.58923
54.7673 -12.9398 3.32313
55.0825 -13.5039 3.3133
54.455 -14.0828 3.34005
54.5946 -14.3668 3.33673
52.377 -16.0929 3.43058
43.2529 -18.6552 3.79582
42.459 -19.5453 3.83276
34.031 -22.2046 4.17275
55.5858 -21.5173 3.3518
67.9039 -20.6163 2.88219
73.7409 -25.1895 2.74266
83.5769 -24.0027 2.39568
80.1939 -30.143 2.64263
80.1576 -30.3095 2.64801
80.2166 -30.3837 2.64782
81.5695 -33.0032 2.67853
137.349 -30.5904 2.76817
138.123 -30.9705 2.7939
137.461 -29.4548 2.75022
143.645 -30.2046 2.91828
166.7 -22.5883 3.45651
166.728 -22.3811 3.45612
166.752 -22.1734 3.45475
166.794 -21.9683 3.45429
166.798 -21.7568 3.45301
166.856 -21.555 3.45348
166.899 -21.351 3.45302
166.897 -21.2446 3.4519
166.936 -21.0391 3.45146
166.951 -20.8301 3.45012
176.934 14.8295 3.28774
168.105 17.682 3.12584
165.543 19.3766 3.08912
170.99 23.0081 3.23632
136.823 8.74145 2.40298
149.62 22.0814 2.81366
100.256 33.8924 2.64843
99.5879 35.191 2.68605
82.7132 49.274 3.2171
78.4624 46.4018 3.20719
78.3761 45.8707 3.19626
26.4682 14.0182 4.00041
78.7631 -21.4872 2.34082
87.5492 -23.249 2.13256
96.0837 -22.8825 1.94989
175.015 -34.0428 3.31154
166.242 -22.6863 3.02584
166.278 -22.4814 3.02441
166.299 -22.3803 3.02419
166.328 -22.1743 3.02379
166.35 -21.9673 3.02343
166.389 -21.7639 3.02299
166.406 -21.5552 3.02165
166.448 -21.3521 3.0212
166.458 -21.1434 3.01989
166.472 -21.0403 3.01969
166.467 -20.8294 3.01845
166.779 -20.6736 3.02476
150.017 22.4941 2.55423
79.1121 46.4525 2.91599
96.1006 -22.9447 1.88189
128.306 -24.5855 2.09639
175.865 -33.998 2.96038
176.722 17.417 2.32355
175.971 19.1427 2.32304
163.762 20.0204 2.21591
156.05 19.5956 2.14568
164.071 26.678 2.25717
152.16 21.4274 2.1242
105.653 46.2385 2.26507
99.5262 39.8219 2.2036
99.2013 38.5443 2.18775
31.0376 -21.7846 2.95068
128.228 -24.6938 1.8639
160.721 -32.3773 2.2145
162.542 -32.6457 2.23304
138.074 -22.8428 1.93806
170.528 -33.6066 2.31466
176.787 17.3389 1.91532
176.656 17.558 1.91469
152.943 21.6941 1.82508
147.367 36.4694 1.88171
121.847 11.902 1.67738
102.683 42.7777 1.96169
102.105 42.4331 1.96191
80.0962 46.8174 2.14677
175.22 -34.3217 1.96588
176.569 17.4464 1.36024
172.446 26.2732 1.36822
163.547 26.3291 1.38613
158.642 28.0829 1.39764
144.553 25.1605 1.4283
106.163 47.8254 1.59263
105.916 46.9701 1.59188
51.977 13.3196 1.88806
42.8305 16.5158 1.95827
128.735 -24.5569 1.49028
159.294 -32.2829 1.45026
166.037 -22.7739 1.41692
165.695 -22.4928 1.41723
165.771 -22.2977 1.41662
165.871 -21.5837 1.41525
165.961 -21.3916 1.41458
166.044 -21.1975 1.41494
166.043 -20.9882 1.41368
166.052 -20.8844 1.41351
170.6 1.77359 1.04847
171.845 24.1034 1.00281
172.87 26.6768 0.991666
172.724 26.7434 0.992288
157.34 28.6623 1.08321
155.62 27.7379 1.09566
143.901 20.281 1.18249
147.332 36.1143 1.12631
145.64 43.2402 1.11965
107.525 10.573 1.41819
103.102 42.5014 1.352
102.942 42.6378 1.35261
100.835 41.44 1.36626
79.6222 48.6633 1.44176
78.2431 48.6998 1.44838
129.086 -24.6556 1.3417
143.849 -29.9575 1.25297
165.845 -22.4959 1.1085
165.665 -22.0404 1.1088
165.626 -21.9276 1.10885
165.64 -21.7215 1.10853
165.664 -21.5179 1.10816
165.697 -21.3154 1.10775
166.429 -20.7143 1.10248
181.459 -8.95971 0.487319
178.938 -0.790723 0.505378
164.329 13.2719 0.646513
158.581 33.2254 0.614554
143.925 23.3376 0.836586
147.548 37.42 0.705644
150.074 50.4997 0.587245
149.78 50.5211 0.589638
149.63 50.7207 0.590114
132.596 -28.2364 1.09018
128.26 -24.8049 1.15087
128.221 -24.6709 1.1509
128.67 -24.3673 1.14735
157.762 -31.5979 0.782808
160.584 -30.8051 0.750197
163.621 -27.2688 0.716147
173.256 -26.0786 0.597144
166.652 -22.5028 0.681606
166.498 -22.2592 0.684046
165.361 -21.8253 0.698002
165.326 -21.7141 0.699035
165.332 -21.5079 0.698747
165.441 -21.3206 0.696989
166.218 -20.8362 0.687638
166.403 -20.6589 0.685523
140.145 7.03013 0.708036
140.181 7.18873 0.706669
135.786 25.4008 0.610334
122.381 16.5348 0.904055
102.338 46.6964 0.643489
102.162 46.7249 0.644303
80.7136 49.3501 0.657634
144.729 -29.7994 0.650517
152.01 -25.2654 0.53774
159.127 -6.26168 0.0118224
146.162 -2.05707 0.330232
140.486 -1.5937 0.47207
150.773 28.2501 -0.0805847
144.971 29.5806 0.0217916
150.406 34.7279 -0.167834
150.189 34.8098 -0.16489
122.53 12.4731 0.739367
115.79 8.58227 0.930739
106.516 45.5647 0.253709
78.8751 44.0395 0.329086
78.5866 44.2521 0.324216
63.828 13.5303 0.731549
39.8778 -17.1996 0.507273
129.472 -24.8706 0.717095
129.716 -24.8898 0.711942
147.245 -11.2606 0.0913982
147.49 -11.1263 0.0830497
151.308 -8.06227 -0.0381868
150.438 -4.22649 -0.0227365
145.047 17.4607 -0.0745658
148.651 27.0379 -0.322837
115.789 8.67306 0.811628
107.242 45.3688 -0.0285584
107.072 45.4126 -0.0277943
95.7772 15.0337 0.846394
83.8585 39.0436 0.184206
78.5925 44.1284 0.0293368
130.338 -23.6213 0.543365
139.926 -14.9273 0.0822849
139.941 -14.8061 0.0820645
139.978 -14.6883 0.0807382
140.042 -14.5743 0.0792878
140.018 -14.4485 0.0802488
140.015 -14.3248 0.0801112
140.122 -14.2151 0.0764545
140.134 -14.1552 0.0763236
140.192 -14.0394 0.0748988
140.269 -13.9251 0.0723894
140.343 -13.8106 0.0698891
140.41 -13.6941 0.0674192
140.492 -13.5797 0.0648802
140.539 -13.4612 0.0635087
140.562 -13.4008 0.0623233
140.779 -12.8019 0.055532
140.82 -12.6805 0.0541844
140.825 -12.6195 0.0540857
140.855 -12.4975 0.0537905
140.875 -12.3741 0.0525414
140.909 -12.2529 0.0522232
140.94 -12.13 0.0509216
141.2 -11.2108 0.0415287
141.73 -10.2874 0.0218249
141.909 -10.2286 0.015886
142.046 -10.1039 0.0100732
142.171 -9.97859 0.00531295
142.277 -9.85254 0.00164391
142.418 -9.72544 -0.00319299
142.505 -9.59766 -0.00677269
142.626 -9.46867 -0.0115156
142.735 -9.40472 -0.0151228
142.847 -9.27444 -0.0198245
142.985 -9.14493 -0.0246514
143.119 -9.01287 -0.0304638
143.255 -8.88095 -0.035281
143.386 -8.74846 -0.0400795
143.512 -8.61412 -0.0458525
143.579 -8.48049 -0.0483458
143.722 -8.41123 -0.0531195
143.863 -8.27608 -0.0589672
143.948 -8.13994 -0.0625484
144.037 -8.00424 -0.0661433
144.298 -7.86129 -0.075582
144.465 -7.71983 -0.0825639
144.577 -7.58051 -0.0872782
144.688 -7.50765 -0.0909026
144.842 -7.3653 -0.0968228
144.917 -7.22462 -0.100359
145.045 -7.08166 -0.105159
145.179 -6.93743 -0.110985
145.329 -6.79041 -0.11689
145.499 -6.64231 -0.123894
145.662 -6.56292 -0.12978
145.822 -6.4124 -0.135741
145.966 -6.26353 -0.14162
146.048 -6.11678 -0.145197
146.141 -5.96864 -0.149831
146.265 -5.81789 -0.154616
146.007 -5.3458 -0.146951
91.0849 10.144 0.820111
30.9448 -16.5383 -0.418416
108.87 -24.894 0.936622
112.949 -22.1949 0.91358
139.859 -15.1025 0.0838247
139.911 -14.9868 0.0824296
136.046 -12.8091 0.00239978
136.088 -12.7587 0.000131286
136.117 -12.6517 -0.000139682
136.159 -12.5456 -0.00247232
136.196 -12.4389 -0.00378667
150.707 14.9147 -0.880758
150.306 15.0023 -0.865927
150.071 15.0758 -0.857884
149.851 15.3463 -0.855155
149.815 15.5202 -0.856199
149.554 15.5773 -0.847007
149.482 15.7312 -0.847852
149.408 15.7885 -0.845563
149.316 15.9321 -0.8453
149.285 16.1084 -0.847368
149.158 16.4261 -0.848145
149.066 16.5697 -0.847882
148.893 17.1557 -0.852769
148.785 17.2905 -0.851416
148.738 17.4591 -0.852396
148.585 18.0613 -0.859403
148.476 18.1963 -0.858045
81.5498 47.4859 -0.795114
82.7961 37.2848 -0.403492
133.85 -16.6605 0.0777752
133.06 -11.9918 -0.0551934
133.114 -11.8956 -0.0575751
133.132 -11.7971 -0.0577809
133.17 -11.7501 -0.0600233
136.436 -3.04341 -0.252587
136.606 3.83031 -0.350922
137.985 4.61017 -0.428548
138.993 7.05962 -0.519451
143.691 11.6206 -0.82279
143.57 12.0564 -0.826748
143.428 12.4842 -0.829592
143.421 12.565 -0.83166
143.442 12.7438 -0.835983
143.455 12.9189 -0.840259
143.522 13.1234 -0.847836
143.572 13.3212 -0.855322
144.655 15.2343 -0.945926
144.56 15.3592 -0.944622
144.475 15.4908 -0.944375
121.664 6.41563 0.247044
112.925 -22.0242 0.70448
112.947 -22.0071 0.704355
128.093 -20.4578 0.106282
128.101 -20.3641 0.108125
130.204 -16.1474 0.0607484
130.025 -12.4739 -0.0719401
130.06 -12.387 -0.073216
130.079 -12.2978 -0.0734183
130.091 -12.2086 -0.0745865
130.123 -12.1213 -0.0758485
130.506 0.855983 -0.193777
135.879 6.99921 -0.595337
135.976 9.15645 -0.651481
135.851 9.22815 -0.647966
135.778 9.32873 -0.646737
135.493 9.58946 -0.639681
135.221 9.50764 -0.624268
135.316 9.70003 -0.633963
135.324 9.84539 -0.638182
107.352 45.2532 -1.35297
103.368 9.96915 0.493005
99.7202 11.6019 0.426597
131.565 5.70546 -0.562902
131.622 5.85184 -0.570357
131.561 5.94051 -0.569173
131.578 6.00877 -0.572339
131.585 6.13109 -0.575523
131.579 6.24805 -0.578642
131.573 6.36516 -0.581757
131.541 6.46889 -0.582729
131.767 6.70976 -0.602123
131.773 6.83519 -0.605308
131.815 6.9181 -0.61061
131.681 6.9689 -0.604026
131.644 7.31772 -0.612283
131.635 7.43624 -0.615386
131.718 7.60717 -0.624995
132.008 7.83276 -0.646677
82.5849 36.1285 -1.25105
103.843 11.8306 0.143402
107.268 45.3066 -1.99563
107.099 45.3424 -1.99686
125.487 -13.52 -0.113731
127.279 2.90599 -0.602738
127.253 2.99373 -0.603717
127.277 3.1044 -0.608971
127.256 3.19439 -0.60998
127.285 3.3093 -0.615266
127.254 3.39464 -0.616222
127.299 3.46694 -0.621528
127.319 3.57819 -0.626763
127.312 3.67621 -0.628851
120.505 5.22174 -0.256887
103.799 11.6396 0.00884738
123.1 -10.1281 -0.194406
123.1 -10.0604 -0.194489
125.497 2.3644 -0.597459
125.503 2.46055 -0.601607
125.526 2.56627 -0.606851
125.545 2.6696 -0.612071
116.751 6.47107 -0.213303
101.127 7.14023 0.263327
117.658 -19.3041 0.0382464
103.663 9.78265 -0.0811989
111.7 -22.5922 0.128093
111.726 -22.5828 0.126957
119.833 0.149455 -0.37536
121.191 0.25598 -0.620054
121.073 0.274217 -0.611504
117.053 -14.0387 -0.0603534
118.676 -0.989481 -0.587361
109.795 5.9829 -0.381107
109.742 6.00169 -0.379875
110.609 6.69284 -0.612922
101.866 11.4325 -0.837573
109.861 5.30588 -0.633592
109.803 5.31124 -0.630319
109.759 5.3409 -0.631142
105.1 -20.4633 0.00332916
109.266 4.00386 -0.641104
109.229 4.03845 -0.642971
109.196 4.07671 -0.644855
109.1 4.10578 -0.641428
95.5971 -19.5409 -0.128923
101.612 -20.2258 -0.0271194
101.647 -20.3046 -0.0381907
101.666 -20.5268 -0.0690085
101.806 -20.5532 -0.0746549
101.84 -20.4874 -0.0648999
101.926 -20.4544 -0.0613544
101.96 -20.436 -0.0595412
107.215 -18.4545 -0.162374
107.248 -18.4431 -0.163547
106.927 -15.7027 -0.206393
97.943 0.0572295 -0.738534
104.071 -9.27867 0.379451
104.091 -9.27052 0.371342
103.975 -10.2117 0.364066
100.303 -10.7208 0.669438
120.952 -14.1799 -7.1201
120.977 -14.1542 -7.12825
120.987 -14.092 -7.12538
120.984 -14.0258 -7.11844
121.009 -13.9679 -7.12264
121.017 -13.9043 -7.11975
121.036 -13.8445 -7.12192
121.042 -13.7817 -7.11903
100.791 -8.12583 0.790866
100.843 -8.095 0.769577
100.875 -8.1673 0.804512
100.856 -8.14139 0.790569
100.806 -8.10286 0.748763
100.7 -7.92088 0.653051
100.808 -8.1163 0.75477
100.793 -8.09888 0.743824
100.757 -8.04934 0.715933
100.734 -8.02074 0.70001
100.708 -8.00288 0.687112
100.75 -8.20382 0.775159
102.875 -10.672 0.538954
102.823 -10.6129 0.575132
102.829 -10.6118 0.5731
1.15033e-41 0 -1.06982e+20
