ply
format ascii 1.0
element vertex 430
property float x
property float y
property float z
end_header
176.51 -10.2067 4.05686
176.518 -9.95747 4.05493
176.441 -9.70647 4.05007
176.406 -9.45729 4.04719
165.197 -7.43568 3.66513
173.612 13.9417 3.88638
173.356 14.9133 3.88016
170.855 16.4472 3.8071
166.011 16.6214 3.65819
164.838 16.9178 3.62422
154.526 21.2738 3.34311
150.804 34.8089 3.38963
150.608 34.7887 3.384
147.393 36.8512 3.33466
147.463 37.204 3.34186
147.484 37.5141 3.34744
107.873 58.7116 3.22301
91.5809 11.3292 2.00067
91.4481 11.5648 2.008
91.3835 11.5506 2.00818
80.7183 22.2181 2.40868
80.3376 19.3093 2.3516
79.3531 12.3009 2.2319
76.6647 12.2233 2.29452
63.8051 13.3345 2.66138
43.1037 16.0635 3.32155
28.6926 -9.43102 3.83789
27.737 -10.4204 3.87962
48.6321 -12.5054 3.17025
51.372 -15.6335 3.11136
43.2302 -18.9494 3.43616
42.9955 -19.17 3.44713
55.7373 -21.1133 3.04483
67.7896 -19.646 2.61693
74.3325 -19.9111 2.41163
74.5413 -21.1092 2.43366
78.7059 -22.2277 2.33863
79.7794 -21.9867 2.30155
79.5021 -22.3761 2.32088
79.8157 -22.3057 2.30998
88.0393 -23.067 2.13762
82.7642 -31.995 2.5626
82.8786 -31.9705 2.56028
114.007 -26.4289 2.39246
161.792 -22.0328 3.71183
161.796 -21.8223 3.7092
161.811 -21.6134 3.70657
161.826 -21.4045 3.70394
161.855 -21.3045 3.70413
161.855 -21.0936 3.7005
161.909 -20.8931 3.69989
161.925 -20.6853 3.69726
173.752 13.4721 3.38284
173.38 13.6247 3.37408
173.177 13.8256 3.36875
173.117 13.9379 3.36695
173.242 14.498 3.37048
173.331 14.7876 3.37214
172.683 15.7642 3.35732
166.81 17.8072 3.21411
149.689 18.6644 2.8067
162.359 28.3149 3.14986
149.317 29.819 2.87487
147.39 36.4434 2.89981
147.457 36.7904 2.90405
147.501 37.1196 2.90845
17.5652 -17.3311 3.79648
160.032 -22.1701 3.24886
160.203 -20.8632 3.23656
160.237 -20.664 3.23498
160.299 -20.2647 3.23082
166.599 -5.58801 2.92925
174.014 12.5734 3.01348
173.984 12.825 3.01257
173.96 12.9485 3.01165
173.785 13.1605 3.0082
173.723 13.4034 3.00639
173.278 13.7955 2.99686
173.098 14.0023 2.99246
171.601 16.3922 2.95966
164.688 26.5373 2.83498
150.955 34.7414 2.62696
147.482 37.0248 2.5862
106.961 23.5588 1.95482
158.082 -32.3916 3.05108
159.892 -21.6835 2.93724
159.919 -21.5853 2.93645
159.921 -21.3807 2.93387
159.945 -21.1801 2.93129
159.978 -20.9807 2.92971
159.992 -20.7787 2.92813
160.037 -20.3771 2.92398
160.105 -20.0827 2.92162
176.45 -6.8106 2.54963
173.872 13.1306 2.40532
173.217 13.7224 2.39448
173.374 14.0298 2.39492
165.772 19.4255 2.27974
164.599 26.4372 2.25583
142.958 20.1703 1.99559
98.4749 -23.241 1.77624
159.789 -20.1607 2.43257
151.182 34.6171 1.74963
121.515 13.7183 1.57856
98.4083 17.1196 1.50421
92.3818 37.9604 1.56282
148.378 -30.6374 2.11939
176.343 -6.99107 1.59111
166.27 25.8774 1.34226
152.363 21.3612 1.3468
145.622 28.4963 1.2942
152.016 34.361 1.26866
103.498 42.2554 1.20411
80.2331 67.2108 1.12027
79.9759 67.2416 1.12032
79.7176 67.2715 1.12138
79.4574 67.3097 1.12138
79.1926 67.3658 1.12124
50.4082 -19.9104 1.73347
171.992 -34.0145 1.80397
159.336 -22.0554 1.6777
161.809 -22.4762 1.68618
161.809 -22.2642 1.68354
161.829 -22.056 1.68191
161.884 -21.8547 1.68029
164.546 -22.1716 1.68875
166.295 -22.2938 1.69273
159.621 -20.2756 1.66362
176.483 -6.94693 1.2166
173.255 1.54397 1.15857
168.251 25.9399 0.972537
156.496 20.6726 1.04647
167.322 26.1732 0.972776
150.459 34.8305 0.939772
79.7972 67.2777 0.754233
79.6594 67.3322 0.753966
83.6193 49.1404 0.918195
79.1392 67.4036 0.752998
81.603 55.9945 0.856457
81.3722 56.063 0.856187
80.9216 23.3602 1.15758
167.97 -5.64636 0.779093
172.877 0.328754 0.684376
153.987 28.4086 0.554456
142.54 23.6714 0.69995
102.355 41.2762 0.652953
102.334 42.5876 0.632836
97.9875 13.3059 1.09716
170.444 -33.6594 0.940936
170.943 -33.6987 0.937678
159.17 -21.8459 0.97325
159.123 -21.6314 0.972644
159.096 -21.5247 0.971849
159.1 -21.3223 0.970279
159.122 -21.1234 0.969717
159.131 -20.9227 0.968155
159.175 -20.7289 0.966607
159.226 -20.5361 0.965059
159.305 -20.3483 0.962517
160.451 -16.0241 0.53178
176.925 -8.31972 0.22869
124.783 6.34749 0.85086
124.756 6.4461 0.850128
124.713 6.53589 0.849482
124.68 6.63136 0.847781
124.682 6.68963 0.847328
124.687 6.80702 0.845414
124.682 6.91886 0.843556
124.696 7.04108 0.841595
124.715 7.1687 0.839587
124.762 7.31155 0.837429
141.848 19.9368 0.423597
155.759 30.0343 0.0888807
144.183 22.81 0.349755
144.036 22.9272 0.349013
145.849 27.9699 0.24698
99.8161 10.79 1.01056
100.395 31.498 0.560764
80.2176 68.1877 -0.238306
154.442 -31.1444 0.686455
154.721 -31.045 0.682372
154.828 -30.8772 0.680954
155.744 -30.4909 0.666937
161.961 -27.9139 0.568025
161.368 -27.5193 0.57564
160.049 -21.6675 0.568871
158.87 -21.2246 0.584771
158.894 -21.028 0.583224
158.929 -20.934 0.582457
160.199 -20.7706 0.562767
160.333 -20.5904 0.559223
160.419 -20.3995 0.557649
155.315 -16.5114 0.203306
155.041 -16.3824 0.208617
160.57 -6.07733 0.0157148
142.234 19.7389 0.049683
142.106 19.8557 0.0499239
81.119 63.8415 -0.660724
90.6398 9.64617 0.897705
140.12 -28.5614 0.551564
141.221 -28.4816 0.529709
140.207 -24.6278 0.551048
155.71 -17.5044 0.199541
146.983 -15.6947 0.123347
146.989 -15.536 0.122113
147.062 -15.3855 0.119868
147.134 -15.2351 0.117624
147.271 -15.0917 0.11236
147.368 -14.9436 0.109107
147.464 -14.7944 0.105845
147.51 -14.7191 0.104211
152.104 -6.05074 -0.0799841
152.187 -5.87354 -0.0834479
152.178 -5.69963 -0.0847825
152.128 -5.52911 -0.085045
152.053 -5.36024 -0.0852672
151.859 -5.19883 -0.0812966
151.7 -5.03632 -0.0783745
121.06 6.93191 0.543514
81.7081 62.9965 -1.00986
81.5085 62.8244 -1.00531
81.2745 62.8186 -1.006
81.0357 62.8296 -1.00782
80.812 62.7749 -1.00714
80.6912 62.7847 -1.00808
80.4696 62.7227 -1.00635
126.666 -24.4051 0.65454
134.62 -26.8122 0.451213
144.84 -21.1852 0.195214
147.098 -16.1125 0.121449
146.935 -15.9282 0.125207
146.953 -15.7702 0.123965
140.239 -13.0584 0.0355343
140.284 -12.9253 0.0334547
140.299 -12.7901 0.0323923
140.335 -12.7245 0.0308442
140.353 -12.5887 0.0287737
140.343 -12.451 0.0287202
140.365 -12.3157 0.0276496
140.376 -12.1799 0.0265873
140.876 -10.2829 -0.00164429
141.081 -10.151 -0.00889514
141.299 -10.0885 -0.0166234
141.423 -9.95228 -0.0218158
141.526 -9.81518 -0.0259916
141.637 -9.6782 -0.0311756
141.743 -9.53954 -0.0353672
141.837 -9.40021 -0.0395504
141.963 -9.26134 -0.0447664
142.064 -9.19156 -0.048419
142.219 -9.05062 -0.0546831
142.321 -8.90942 -0.0588902
142.461 -8.76641 -0.0651535
142.599 -8.62311 -0.0704168
142.724 -8.48 -0.0756639
142.811 -8.33461 -0.0798858
142.92 -8.26198 -0.0835701
143.104 -8.115 -0.0909136
143.018 -7.97175 -0.0899246
143.339 -7.82063 -0.101454
143.525 -7.67095 -0.108821
143.637 -7.52195 -0.114099
143.773 -7.37131 -0.119417
143.856 -7.29509 -0.1231
143.924 -7.14496 -0.126336
144.031 -6.99329 -0.131629
144.18 -6.83949 -0.137987
144.316 -6.68476 -0.144336
144.488 -6.52805 -0.150741
144.605 -6.37267 -0.156074
144.812 -6.28755 -0.163966
144.922 -6.13021 -0.169306
145.07 -5.97105 -0.175702
145.189 -5.81198 -0.181066
144.337 -4.59272 -0.165537
144.282 -4.44781 -0.164596
144.207 -4.37976 -0.163038
144.013 -4.09942 -0.159988
143.881 -3.96382 -0.156888
142.693 3.50199 -0.219286
154.854 14.5538 -0.800424
154.657 14.7913 -0.799039
153.725 15.5623 -0.785953
153.633 16.1576 -0.795454
153.522 16.5335 -0.800236
153.536 16.7536 -0.804954
153.45 17.2502 -0.812697
151.467 16.7542 -0.742633
151.495 16.9765 -0.748383
80.6638 62.6528 -1.43804
80.4494 62.5565 -1.43606
130.866 -21.9238 0.342625
136.762 -20.9961 0.159824
136.98 -20.9255 0.153033
138.501 -17.9724 0.105486
138.574 -17.9209 0.103007
134.387 -13.051 -0.018951
144.754 7.87712 -0.691447
144.923 8.1059 -0.702406
146.179 10.8411 -0.806971
146.124 10.9982 -0.809124
145.709 11.9969 -0.816381
122.018 -26.3907 0.370105
122.074 -26.3126 0.369439
122.098 -26.212 0.369634
122.112 -26.1634 0.370243
122.174 -26.0904 0.368608
122.245 -26.0225 0.367003
122.348 -25.9752 0.364522
122.482 -25.8333 0.362275
122.555 -25.7667 0.360678
122.631 -25.7017 0.359089
131.159 -18.7284 0.10858
131.297 -18.6527 0.10284
131.269 -18.5277 0.104904
131.307 -18.4219 0.103044
131.38 -18.3846 0.100673
131.535 -18.3104 0.0949246
131.77 -18.1412 0.0863524
131.947 -18.071 0.0796103
132.106 -17.9952 0.0738457
132.131 -17.7069 0.0735883
132.123 -17.5877 0.0736751
132.188 -17.4867 0.0718212
132.251 -17.3853 0.0689672
132.279 -17.2742 0.0680759
132.315 -17.1662 0.0671998
132.297 -17.103 0.0677322
132.345 -16.9977 0.0658633
132.583 -16.5826 0.0573859
133.428 -6.66746 -0.239243
135.047 4.43569 -0.495927
136.129 6.48544 -0.589995
136.468 6.90354 -0.614609
136.368 7.00743 -0.6123
136.397 7.16278 -0.617535
136.357 7.29062 -0.618477
136.324 7.42131 -0.620452
136.529 7.87021 -0.640154
136.395 7.95956 -0.636694
136.212 8.02754 -0.631013
135.97 8.06931 -0.622065
136.082 8.26367 -0.631694
136.011 8.30586 -0.62994
136 8.59315 -0.636149
31.8674 -10.2018 -1.37287
109.121 -21.5455 0.743137
119.86 -24.2057 0.307632
129.949 -5.57368 -0.283794
130.026 -5.46129 -0.28875
130.121 -5.3463 -0.294746
130.811 -4.08877 -0.347247
130.855 -3.97381 -0.351185
130.897 -3.85955 -0.355116
130.971 -3.73955 -0.361127
131.024 -3.62285 -0.36509
131.108 -3.55485 -0.37071
130.556 4.31052 -0.506915
130.535 4.42357 -0.508764
130.904 4.63148 -0.531788
123.921 5.73095 -0.237437
35.6748 -7.35801 -1.58114
36.7214 -8.99245 -1.51668
49.8492 -17.1722 -0.846152
109.21 -21.5607 0.638152
109.367 -21.6028 0.631301
109.452 -21.6107 0.628265
127.333 -3.83504 -0.370302
127.417 -3.72264 -0.377266
128.996 0.77944 -0.557858
129 0.999896 -0.563568
129.146 1.43177 -0.582072
129.183 1.55576 -0.587073
109.605 -21.6501 0.506395
123.437 -8.58845 -0.227166
124.299 -5.60843 -0.31518
124.326 -5.56168 -0.317572
124.349 -5.4721 -0.320291
124.406 -5.37803 -0.326082
125.883 2.01413 -0.583911
125.887 2.11863 -0.586723
123.486 1.12785 -0.613366
97.5154 -23.2726 0.552523
121.259 -2.32832 -0.489135
102.967 7.90506 -0.00370572
111.124 5.75163 -0.432229
102.357 10.4584 -0.433777
96.2205 14.5025 -0.744166
79.15 9.76901 -1.0524
110.882 4.94302 -0.602709
96.8969 5.44917 -0.157901
110.166 -12.4359 -0.227508
96.6462 1.34817 0.062099
108.204 -1.29365 -0.604476
96.6267 1.57833 -0.159666
96.6333 1.34994 -0.196908
96.6142 1.00974 -0.142254
96.5892 0.851872 -0.117005
96.6549 1.12812 -0.28922
96.6341 0.883971 -0.248307
100.762 -16.8969 -0.311452
98.5673 -15.1562 -0.375449
99.5399 -8.66154 0.327259
99.4398 -9.61291 0.319728
96.0758 -7.21104 0.591942
96.0472 -7.23531 0.594161
95.8097 -10.0876 0.634485
96.2359 -7.51208 0.708093
96.315 -7.53114 0.712152
96.3352 -7.57418 0.733463
96.3053 -7.5278 0.709137
96.2109 -7.41537 0.625371
96.2682 -7.51883 0.680108
96.2647 -7.52237 0.68114
96.2491 -7.50412 0.670016
96.2172 -7.45749 0.64369
96.1772 -7.4037 0.613318
96.135 -7.34457 0.579907
96.1661 -7.40419 0.610334
96.1517 -7.39115 0.602249
96.1788 -7.44317 0.629622
96.1397 -7.39051 0.599258
96.1278 -7.49055 0.635046
96.2182 -7.6247 0.709984
96.1158 -7.54729 0.654499
95.8468 -10.0386 0.586063
98.3626 -10.0766 0.484528
98.2884 -10.0002 0.534022
98.3009 -10.005 0.528045
-42.2977 6.69014 2.18623e-39
