ply
format ascii 1.0
element vertex 515
property float x
property float y
property float z
end_header
104.633 2.99815 3.16798
95.024 14.0838 2.77088
73.053 9.98657 2.05312
58.3014 14.723 1.57524
3.68914 21.7638 1.33114
1.38086 23.7025 1.41178
1.36506 23.5672 1.41022
3.09297 20.1759 1.3259
2.9697 20.2221 1.32938
2.79883 20.2452 1.33408
2.64023 20.2566 1.33791
2.30678 20.2914 1.34644
2.13752 20.3084 1.35121
1.95302 20.3375 1.35585
1.81336 20.3937 1.36021
1.64205 20.4099 1.36499
0.628137 20.5372 1.39133
0.403079 20.59 1.3977
-0.67125 20.6511 1.42674
-26.1355 32.578 2.22809
-28.7478 32.8137 2.30382
-4.909 17.091 1.51449
-4.6044 16.2262 1.5008
-4.70899 16.1589 1.50349
-3.44347 15.2304 1.46076
-4.50023 15.13 1.49153
-30.8793 24.7767 2.32594
-31.0164 24.6243 2.33052
-31.486 24.7241 2.34532
-31.8736 24.2484 2.35529
-33.694 24.0395 2.41098
-33.8817 23.8974 2.41645
-36.4861 24.7329 2.49877
-32.8169 21.2352 2.37916
-33.2516 20.4519 2.39239
-36.5717 21.4083 2.49722
-37.9955 21.4592 2.54226
-43.8104 15.2949 2.73934
-43.8326 15.1851 2.7405
-51.1986 -18.723 3.36214
-42.8218 -17.5376 3.06693
-41.7703 -17.5021 3.03185
-42.8837 -18.0125 3.07798
-41.4015 -18.5361 3.03999
-31.8613 -16.071 2.68347
-39.5515 -18.8122 2.98548
-39.3739 -19.427 2.99209
-31.0802 -17.113 2.67881
-27.3971 -16.3996 2.54627
-27.307 -16.5548 2.54595
-27.1207 -16.6802 2.54234
-39.2661 -20.6204 3.01285
-20.1193 -17.6763 2.34201
-20.354 -18.0958 2.35842
-6.06902 -14.2782 1.82583
-5.9965 -14.3651 1.82578
-2.82023 -18.4597 1.8404
-9.76096 -23.0542 2.1684
12.867 -15.0998 1.32611
77.451 -34.2964 2.9779
67.9974 -24.0414 2.4117
50.4318 -13.3102 1.59702
68.9359 -22.475 2.39826
71.4245 -21.0949 2.44026
81.6596 -23.0096 2.80771
95.9712 -16.3935 3.13733
96.0207 -16.1723 3.13498
96.0829 -15.7234 3.12921
96.1036 -15.4973 3.1258
96.154 -15.2771 3.12347
96.1668 -15.0485 3.12003
104.827 2.89309 2.67413
104.73 3.13688 2.6695
72.1122 12.6697 1.7102
17.1533 15.5213 0.840649
-32.474 36.5841 1.99848
-29.5781 34.4961 1.9246
-31.8596 24.5348 1.95721
-5.53807 -18.8649 1.69892
-12.6153 -24.2346 1.99615
67.4042 -23.9372 2.08839
82.0493 -22.1231 2.41734
98.2713 -18.4629 2.77806
94.4129 -16.479 2.63976
94.458 -16.2625 2.63746
94.4804 -16.0405 2.6351
94.5124 -15.9343 2.63397
94.5062 -15.7065 2.62954
94.5513 -15.49 2.62724
94.5885 -15.2719 2.62493
94.6267 -15.054 2.62261
94.6738 -14.8386 2.62033
104.867 3.08396 2.30108
61.0283 -19.971 1.64819
74.2313 -20.4098 1.93275
77.0819 -20.9239 2.00407
78.336 -21.0411 2.03269
94.2639 -14.8126 2.27891
104.954 2.78439 1.70627
104.933 3.03326 1.70361
87.7884 12.4823 1.35576
69.3397 13.0806 1.07497
-34.9891 22.9677 1.23597
-50.9109 -18.3276 1.87892
74.6566 -20.4255 1.54202
93.6475 -22.9667 1.8597
96.0036 -23.3809 1.90081
97.2794 -23.5487 1.92198
98.6099 -17.5678 1.85355
98.7902 -17.368 1.85348
100.472 -17.2635 1.87785
100.698 -15.2251 1.85317
104.238 -15.7941 1.91428
104.914 3.05623 1.29733
90.3212 8.42761 1.09375
88.1413 12.464 1.03604
69.4858 13.0435 0.842392
61.822 11.5975 0.777574
-32.591 22.1297 0.886596
63.886 -19.4283 1.15521
72.5884 -20.2732 1.24977
78.4873 -20.8361 1.31551
104.841 2.97287 0.747171
56.4561 14.8851 0.464912
-40.8867 -14.8708 0.860916
71.2173 -19.8964 0.887329
96.053 -23.4517 1.01053
101.392 -24.2813 1.03795
93.2872 -19.765 0.958388
93.6594 -15.6708 0.912814
93.8995 -14.8286 0.903899
105.001 3.01966 0.374698
104.984 3.26827 0.37204
63.116 11.6881 0.331961
52.4792 12.9774 0.329094
50.3379 13.381 0.327161
1.24499 22.9037 0.202198
1.22372 22.7768 0.203545
71.0179 -16.6913 0.623062
93.3329 -19.9769 0.630643
93.3033 -19.7385 0.628091
93.7233 -19.6275 0.62603
93.6962 -16.4352 0.592962
93.4944 -16.1636 0.591005
93.5556 -15.7306 0.586404
93.5277 -15.3891 0.582752
93.6313 -14.966 0.578267
93.6644 -14.7497 0.575969
93.8695 -14.5696 0.574108
94.3684 -14.4487 0.571964
104.604 2.42685 -0.119122
104.685 2.67814 -0.12278
104.587 2.92203 -0.124411
104.224 3.15305 -0.123981
104.388 3.40893 -0.128664
103.76 3.62309 -0.126132
103.479 3.85284 -0.126665
89.2264 8.69575 -0.0734994
88.4854 8.68882 -0.068642
39.1811 20.0843 0.101368
34.5169 28.1598 -0.0281581
34.581 28.6987 -0.0388893
34.6728 29.341 -0.0507158
34.6259 29.5284 -0.0537292
34.5303 29.5536 -0.0540265
34.4791 29.5519 -0.0540235
34.3835 29.5772 -0.0543208
31.5109 22.6739 0.0774958
31.4366 22.6877 0.0773264
31.3986 22.6892 0.0772997
31.3253 22.702 0.0771419
31.2497 22.7099 0.0770352
31.1751 22.7188 0.076919
31.1023 22.7395 0.0766761
31.0276 22.7464 0.0765811
30.9066 22.7202 0.0768254
-36.754 31.6253 -0.405002
81.8453 -21.4071 0.278521
70.6909 -16.7625 0.321708
93.2324 -22.9182 0.20997
92.8227 -19.5536 0.184953
93.5652 -16.4695 0.152264
94.1699 -16.3855 0.147545
94.1636 -16.1577 0.145112
93.9894 -15.8928 0.144235
94.0572 -15.6828 0.142014
94.0577 -15.4583 0.13962
94.0966 -15.3537 0.138514
94.2543 -15.1635 0.135532
94.3074 -14.5006 0.129474
89.1081 8.62711 -0.464824
39.2019 20.0934 -0.0497309
35.7913 19.0848 -0.0039655
35.8488 19.2754 -0.00898276
35.8604 19.453 -0.0128743
34.2025 27.5911 -0.198193
34.1318 27.6749 -0.200107
34.5773 29.5335 -0.245809
34.4881 29.5804 -0.247335
34.3783 29.5555 -0.246101
31.5551 22.6434 -0.0691742
31.4833 22.6631 -0.0694055
31.4078 22.673 -0.0695333
31.3344 22.6848 -0.0696805
31.2953 22.6853 -0.0696976
31.2208 22.6952 -0.0698245
31.1475 22.708 -0.0699823
31.0719 22.7169 -0.0690996
30.9973 22.7257 -0.0692159
30.9239 22.7375 -0.0693631
-38.2388 26.9044 -0.777092
70.7138 -16.9846 0.0290676
70.8199 -16.8632 0.0268037
87.4919 -22.0351 -0.157152
94.75 -20.3891 -0.262595
89.2099 -17.1866 -0.21238
95.7623 -16.3445 -0.305453
93.7743 -15.4475 -0.285603
95.85 -15.4423 -0.313053
95.9138 -15.3402 -0.315123
90.5609 -3.80143 -0.795821
97.0438 1.35347 -0.982931
93.3858 3.38554 -0.930678
87.9657 8.20483 -0.880677
50.9834 5.95665 -0.0964655
48.9898 16.0069 -0.256281
37.3424 17.1359 -0.116725
35.8227 19.025 -0.155327
35.849 19.2297 -0.161504
35.8776 19.4392 -0.168731
34.783 29.5348 -0.465775
34.6835 29.5463 -0.464927
34.5878 29.5696 -0.465203
34.4533 29.4571 -0.461042
32.9612 24.601 -0.303661
31.5513 22.6739 -0.236511
31.4771 22.6888 -0.236691
31.4053 22.7095 -0.236933
31.3323 22.7273 -0.237144
31.2551 22.7273 -0.237166
31.1822 22.746 -0.237388
31.1415 22.7366 -0.2363
31.0697 22.7573 -0.236541
30.9981 22.782 -0.236826
30.9181 22.7692 -0.236712
72.1492 -20.5019 -0.321007
70.7799 -16.8822 -0.306024
87.4754 -15.2465 -0.64361
43.4179 13.3197 -0.21624
37.2898 17.1421 -0.224814
35.8152 19.1245 -0.271397
35.836 19.3205 -0.278483
35.8718 19.5486 -0.286906
64.3185 -19.8287 -0.396485
73.2057 -14.1158 -0.616847
77.2008 -14.4766 -0.714834
77.7506 -14.4503 -0.728954
79.505 -11.4472 -0.786484
80.9609 -11.1122 -0.825634
81.3713 -11.0107 -0.836597
81.1621 -10.7907 -0.833006
80.5612 -9.35052 -0.826546
73.1594 -0.90217 -0.987854
48.5552 16.0219 -0.560586
22.3179 16.6274 -0.234703
-32.7846 24.9405 -1.8236
59.5483 -18.7985 -0.513878
59.6305 -18.7056 -0.515844
59.7088 -18.6105 -0.517836
57.9358 -16.7008 -0.459725
68.1656 1.49817 -1.13493
68.3217 1.57214 -1.14168
68.4089 1.71073 -1.14713
68.4942 1.85046 -1.1516
50.9545 13.2154 -0.734952
-47.5727 -9.76353 -2.26471
54.8836 -17.6415 -0.600591
54.8884 -17.5215 -0.599869
54.9259 -17.4218 -0.599923
54.9915 -17.3368 -0.601809
55.0629 -17.2563 -0.602648
55.1277 -17.2315 -0.604894
57.8434 -15.7662 -0.686736
60.0047 -12.4548 -0.749436
63.8412 -12.4651 -0.889213
64.1776 -12.4389 -0.901394
65.3756 -11.0591 -0.945767
65.2997 -7.52258 -0.95052
64.1905 2.47201 -1.22449
64.2991 2.60217 -1.23085
64.3887 2.73158 -1.2372
64.4259 2.8564 -1.24052
64.4551 2.98175 -1.24385
64.6446 3.06054 -1.25264
64.7504 3.19289 -1.26002
64.8432 3.3261 -1.26541
64.9209 3.45729 -1.27079
64.9957 3.58967 -1.27618
65.0735 3.72286 -1.28158
65.1735 3.8586 -1.288
65.3038 3.99837 -1.29645
65.3978 4.07238 -1.30121
60.3343 4.64811 -1.08983
45.1157 6.46912 -0.473671
53.1782 -15.9275 -0.716383
53.3574 -15.9141 -0.722473
52.7964 -14.2908 -0.683953
54.179 -12.924 -0.728134
55.0864 -12.5614 -0.762739
55.1772 -12.4912 -0.765462
55.2572 -12.4162 -0.768238
55.3744 -12.3547 -0.77286
61.5151 -9.06134 -1.02321
61.495 -8.93775 -1.02154
62.1879 -7.66627 -1.0539
62.0847 -7.52723 -1.04942
60.8135 -6.31566 -0.997711
60.8952 -6.21578 -1.00175
60.882 -6.15679 -1.00139
59.0354 1.17395 -1.17015
59.158 1.28616 -1.17831
59.298 1.45135 -1.18703
59.3693 1.56191 -1.19219
59.4034 1.6699 -1.19533
59.4778 1.78127 -1.2005
59.5954 1.8958 -1.20869
43.1434 12.7268 -0.723024
42.9487 12.9229 -0.724173
39.7997 16.5262 -0.77654
-29.0779 -8.68548 -2.20579
49.2882 -14.2425 -0.703496
57.2693 -10.4482 -1.03266
54.2158 -8.94942 -0.881535
57.8381 -8.29465 -1.05447
57.9027 -8.25678 -1.05686
57.212 -5.57489 -1.02567
59.4978 -5.34578 -1.13945
59.4888 -5.23695 -1.13861
59.4183 -5.1191 -1.13589
59.3835 -5.00759 -1.13509
59.376 -4.95298 -1.13468
59.4137 -4.85023 -1.13676
59.4296 -4.74504 -1.13788
59.3502 -4.25382 -1.13614
59.1026 -3.59225 -1.12827
59.0851 -3.538 -1.12786
59.1407 -3.43742 -1.13092
59.2073 -3.33756 -1.13496
59.2561 -3.23553 -1.13804
59.2978 -3.13304 -1.14012
55.3662 1.41323 -1.17877
55.4478 1.51209 -1.1848
55.5274 1.61108 -1.19084
55.5738 1.70824 -1.19486
58.3223 4.97187 -1.40589
58.4822 5.10367 -1.41725
58.4963 5.21196 -1.4204
55.5499 10.0077 -1.38042
20.1579 16.0277 -0.65896
-21.6672 3.90486 -2.24895
-21.7108 3.75838 -2.2484
-21.7504 3.61162 -2.24885
47.5515 -13.2576 -0.774516
47.6103 -13.2464 -0.777619
47.7522 -13.2376 -0.783671
47.8111 -13.0871 -0.784259
56.4315 -4.80333 -1.18614
56.2524 -4.58315 -1.17654
56.3044 -4.49335 -1.17948
56.3184 -4.44618 -1.18098
56.0268 -2.87278 -1.17185
53.4647 2.85491 -1.24371
53.8993 3.31235 -1.27947
53.9598 3.41059 -1.2845
54.0224 3.50968 -1.29054
53.1822 9.25553 -1.38709
38.8125 16.2124 -0.978492
32.748 16.1885 -0.788001
32.8737 17.1978 -0.859735
31.2503 17.8303 -0.870959
30.3381 15.9759 -0.725434
50.8902 -5.45871 -1.01376
50.8226 8.38139 -1.40746
50.7658 8.44922 -1.4062
46.0977 13.3052 -1.32436
32.3877 15.8241 -0.878223
32.7783 16.9462 -0.971086
38.5522 -17.1815 -0.754285
38.5832 -17.1675 -0.755425
38.6358 -17.1278 -0.755833
38.7052 -17.1093 -0.758011
49.465 4.34462 -1.31878
49.5214 4.39501 -1.3243
49.5468 4.4785 -1.32819
49.5835 4.56426 -1.33309
43.5375 13.1082 -1.28201
40.2628 16.2581 -1.30057
40.0545 16.1225 -1.28219
39.7525 15.978 -1.25773
20.2902 17.6721 -1.09049
44.8142 12.5962 -1.48218
44.7721 12.612 -1.48037
44.7655 12.6955 -1.48426
44.7159 12.7489 -1.48384
44.6673 12.8031 -1.48444
42.4655 12.3867 -1.31863
42.5113 12.5059 -1.32789
39.7836 16.0375 -1.40537
38.8507 15.5919 -1.32588
38.7402 15.5581 -1.31755
38.6298 15.5242 -1.31022
38.5324 15.5066 -1.30406
32.7661 16.5082 -1.15043
30.2875 15.6715 -1.01322
45.3686 -10.0119 -1.1318
45.4942 -4.80699 -1.05929
38.7884 15.834 -1.46049
24.9714 8.26219 -0.345686
32.8249 16.6232 -1.37865
19.9404 14.2911 -1.11852
10.5085 16.7336 -1.80238
41.1494 11.3446 -1.52291
41.0903 11.3755 -1.52025
34.8989 -13.6448 -0.920095
42.9845 -6.58981 -1.21501
25.4952 -15.7728 -0.923143
25.5429 -15.7639 -0.922224
37.3036 -10.5967 -0.978914
32.7543 16.1025 -1.67013
32.7811 16.315 -1.69539
32.8202 16.5607 -1.725
32.8501 16.7889 -1.75243
32.8718 17.0007 -1.77669
32.8878 17.1228 -1.79098
32.8464 17.1795 -1.7966
32.1411 15.1025 -1.63464
32.09 15.1168 -1.63481
19.1442 16.6172 -1.83361
19.1001 16.572 -1.83014
38.15 8.84309 -1.5751
38.132 8.8593 -1.57428
38.112 8.90567 -1.57678
38.018 8.95593 -1.57134
14.8827 13.1224 -1.88058
14.8358 13.0943 -1.88129
28.2246 -13.0636 -0.994252
38.0472 8.80167 -1.66869
37.6858 8.85458 -1.63436
37.8834 9.07279 -1.67663
32.7479 7.56043 -1.01796
32.7429 7.6068 -1.02246
32.7469 7.63656 -1.02678
32.7277 7.66585 -1.02809
32.6999 7.68471 -1.0273
32.6494 7.67802 -1.02225
19.6384 -12.1427 -1.1466
19.7222 -12.0718 -1.13333
27.8152 -12.9496 -1.05959
14.5438 10.5733 -1.92848
32.7638 7.69339 -1.23339
32.7024 7.67342 -1.22519
29.1596 11.6105 -1.69926
29.124 11.6329 -1.70151
29.0879 11.6492 -1.70269
28.4104 11.138 -1.71044
28.3752 11.1513 -1.71159
28.3388 11.1617 -1.71171
28.3022 11.17 -1.71181
28.2631 11.1696 -1.71082
27.6824 8.51567 -1.22365
27.5818 8.60225 -1.2356
15.2339 -6.31979 -1.54203
30.4066 -7.70903 -1.32376
29.5046 -5.19658 -1.36583
-35.8422 12.399 -21.8318
-35.9254 12.2138 -21.8459
30.0541 -15.5197 -4.86373
30.066 -15.4742 -4.85022
30.1237 -15.4971 -4.86295
24.7423 0.940313 -0.337638
24.7338 0.947828 -0.342721
26.1287 -1.90372 -0.150879
26.1264 -1.87839 -0.14015
26.1305 -1.87565 -0.139178
26.1309 -1.86964 -0.137241
24.9481 0.684601 -0.226843
24.8782 0.519187 -0.188097
25.0461 0.635382 -0.204288
25.031 0.650303 -0.212452
26.0842 -2.40863 -0.40652
26.0818 -2.3521 -0.382123
26.0829 -2.31995 -0.368464
26.0966 -2.37121 -0.391915
24.81 0.931295 -0.395525
24.9672 0.699992 -0.265004
24.9649 0.696141 -0.263963
24.9543 0.702787 -0.269038
24.9152 0.748118 -0.297534
24.8899 0.774643 -0.313826
24.8388 0.835688 -0.351494
24.8634 0.79824 -0.330086
24.849 0.808118 -0.337196
24.8623 0.782339 -0.323916
24.8554 0.783758 -0.326934
24.723 0.949651 -0.425748
24.9118 0.603608 -0.242991
24.857 0.607979 -0.261054
27.115 -9.88643 -3.87064
27.0873 -9.47778 -3.68599
27.1067 -9.41058 -3.6567
27.2913 -1.75211 -0.467175
27.2073 -1.67193 -0.414052
27.2115 -1.66919 -0.41408
27.1187 -1.58439 -0.357008
39.327 -7.94027 1.15033e-41
