ply
format ascii 1.0
element vertex 706
property float x
property float y
property float z
end_header
144.93 -6.31745 3.92667
147.423 -5.24107 4.01538
145.488 -4.7411 3.94098
142.247 -2.40237 3.81163
144.526 1.29873 3.88974
137.603 3.29772 3.6293
138.477 4.18796 3.66239
123.849 8.61917 3.12786
97.3204 12.1499 2.21326
97.2441 12.2297 2.21167
97.4136 12.4517 2.2205
97.772 12.7859 2.23666
92.0861 27.9244 2.36013
92.0103 28.0364 2.36042
91.935 28.1514 2.3617
90.2171 26.01 2.26997
91.1541 27.5085 2.32805
89.8864 25.9588 2.26087
89.7134 25.9221 2.25633
89.3668 25.5367 2.23842
75.8896 12.2929 1.61616
75.8268 12.2989 1.6149
39.0582 14.0878 1.98888
14.0233 -12.5453 2.66643
41.9549 -12.266 1.84728
24.2427 -27.5099 2.58698
44.8323 -28.1721 2.11672
44.7548 -28.4003 2.12527
47.364 -25.7823 2.00069
47.6746 -25.9889 1.99967
45.3816 -28.5658 2.11733
54.2498 -19.7227 1.69598
54.2984 -19.764 1.69632
48.8375 -27.2463 2.01489
48.932 -27.2782 2.01437
54.688 -20.4862 1.71053
130.922 -53.249 4.12977
131.142 -53.103 4.13308
131.138 -52.7851 4.12488
131.232 -52.5432 4.12235
131.367 -52.3323 4.12109
131.67 -52.2468 4.12895
133.217 -48.321 4.08637
132.419 -41.213 3.9078
136.26 -40.0445 4.01442
139.521 -30.4446 3.9624
133.783 -28.0411 3.72107
130.223 -20.7792 3.49316
130.261 -20.5796 3.49256
130.267 -20.3723 3.48981
130.24 -20.0542 3.48552
130.263 -19.8514 3.48386
130.271 -19.6454 3.48212
130.306 -19.4464 3.48052
130.309 -19.2398 3.47876
145.867 2.90295 3.44199
145.97 3.16088 3.44443
131.284 6.87334 2.98734
109.298 9.05659 2.32248
109.166 9.1575 2.31859
108.987 9.16926 2.31385
108.842 9.26496 2.30993
103.52 15.2948 2.19973
97.3935 12.0477 1.99792
97.1139 12.1336 1.99051
98.8894 34.3657 2.35868
95.8452 32.5415 2.2626
91.9523 27.5852 2.09287
96.8225 34.3463 2.31569
92.1196 28.2391 2.10809
91.9179 28.0742 2.10091
90.2873 26.0617 2.03105
90.1248 26.0418 2.02749
89.8836 25.9109 2.02003
89.684 25.8367 2.01453
89.2936 25.492 2.00029
75.8944 12.2665 1.49528
75.8546 12.25 1.49418
132.789 -44.8446 3.51175
128.804 -20.9048 3.04209
128.779 -20.6931 3.0392
128.652 -20.2514 3.03106
128.726 -20.0669 3.03066
128.685 -19.8529 3.0277
128.736 -19.6622 3.02719
128.726 -19.4577 3.02439
128.737 -19.3583 3.02407
128.829 -19.1786 3.02475
107.397 10.4745 2.07379
103.544 15.2452 2.007
98.295 29.2693 2.04233
100.138 35.7142 2.16452
90.3221 26.2198 1.85359
90.0622 26.0644 1.84716
89.387 25.3284 1.82526
89.2902 25.3929 1.82365
75.8447 12.3118 1.40691
17.1422 15.5405 1.97902
9.17891 -28.8559 2.31425
140.742 -29.1274 3.13624
128.529 -18.9624 2.71978
129.027 -18.8758 2.7324
138.137 8.02589 2.32276
97.6608 12.3321 1.5849
110.354 38.5451 1.93681
99.0834 30.3576 1.71535
96.6392 28.2396 1.6647
96.5762 28.377 1.66494
75.8523 12.2547 1.26315
134.592 -28.6421 2.43745
134.529 -21.623 2.37907
134.743 -21.4538 2.38227
138.813 -21.7615 2.46029
128.166 -19.0064 2.24152
133.143 -18.9966 2.33389
139.441 -13.7409 2.05087
138.064 7.34923 1.95799
91.7519 8.78273 1.32907
90.8614 8.37499 1.31712
98.074 26.347 1.44934
98.0516 28.3438 1.45582
97.8442 29.173 1.45692
95.1714 26.2505 1.41738
96.7168 28.2105 1.44111
94.5058 25.8819 1.40916
95.7406 27.5039 1.42793
90.4513 -19.0729 1.4207
90.4691 -18.9845 1.42044
90.5073 -18.9092 1.42031
134.546 -21.6093 2.02708
137.425 -20.8304 2.06141
140.63 -19.4135 2.09763
121.369 49.4968 1.25498
95.5565 26.6617 1.13135
95.4833 26.7773 1.13063
95.5375 27.0403 1.13086
95.7011 27.4309 1.13105
95.8042 28.3809 1.13091
22.0814 -15.4875 1.01778
131.014 -28.3051 1.55523
141.751 -29.8238 1.63575
143.022 -29.9915 1.64533
130.296 -20.8011 1.51449
130.331 -20.6011 1.51389
133.108 -20.6522 1.53391
127.827 -19.2638 1.49114
129.481 -18.8463 1.50004
143.87 -19.6444 1.60412
111.26 9.31131 1.05416
110.113 9.67833 1.04932
105.232 15.8455 1.01034
121.305 49.8282 0.894494
96.5287 27.6561 0.931431
95.5221 26.7186 0.932997
95.7609 27.2933 0.931788
96.0595 27.8422 0.929909
95.9337 28.7465 0.925052
110.727 -21.4279 1.16552
128.029 -20.1942 1.20339
128.031 -19.9934 1.20265
128.01 -19.7873 1.2018
128.05 -19.5961 1.20125
128.058 -19.3971 1.20053
128.052 -19.1953 1.19976
128.044 -19.093 1.20035
129.431 -18.8107 1.2027
130.011 -18.737 1.20369
144.169 -19.4119 1.23941
97.0221 11.2035 0.798602
97.0122 11.3171 0.798141
105.598 16.3364 0.734929
115.205 44.1316 0.472909
114.045 45.5563 0.461082
96.0014 27.8508 0.655647
92.8886 26.5682 0.672285
79.1297 15.2974 0.794599
25.1021 -15.9038 0.534095
110.003 -21.5515 0.876156
130.881 -28.1711 0.809202
141.367 -29.7265 0.773875
127.561 -20.8259 0.81191
127.53 -20.6164 0.812012
127.519 -20.4127 0.811211
127.506 -20.2088 0.811401
127.504 -20.0084 0.810646
127.501 -19.908 0.810262
127.531 -19.7153 0.809661
127.572 -19.5261 0.809115
127.622 -19.3394 0.808616
127.693 -19.1576 0.808215
128.023 -19.0366 0.80705
129.438 -18.8635 0.800924
129.988 -18.7834 0.798771
131.152 -18.8377 0.794512
140.586 -19.3871 0.75934
144.145 -19.3564 0.746102
147.574 -3.83607 0.195684
145.137 -3.13587 0.217576
142.352 -2.96028 0.245065
121.633 8.19658 0.391749
101.519 7.8201 0.586728
120.334 49.1756 -0.0448771
111.59 44.0338 0.0771741
99.7484 31.0634 0.325292
93.0463 24.1804 0.458786
92.9171 24.2163 0.459149
91.2512 22.4658 0.49317
43.1743 -3.57506 0.560663
121.035 -26.685 0.488274
136.311 -26.2692 0.347284
129.647 -22.9053 0.411781
130.814 -22.9257 0.400407
131.275 -22.8428 0.395895
131.715 -22.7508 0.392267
128.432 -20.7016 0.42384
127.265 -20.1963 0.43441
127.364 -20.0217 0.433146
129.276 -18.7726 0.413948
129.834 -18.7978 0.409219
135.382 -10.3183 -0.131727
135.06 -10.0787 -0.126874
135.194 -9.87588 -0.129105
143.056 -5.02895 -0.277499
140.351 -3.07946 -0.239303
141.847 2.32584 -0.291591
141.957 2.57156 -0.295076
142.074 2.81841 -0.29854
116.969 0.740748 0.140315
116.538 0.84859 0.146233
94.9493 0.392913 0.512762
102.207 8.49869 0.317882
110.896 39.4085 -0.284321
114.246 44.2018 -0.410104
114.681 44.9705 -0.429272
99.2187 29.0132 0.0358544
96.4358 27.3163 0.0973219
93.009 23.8445 0.198887
96.3513 27.7306 0.0894497
91.4874 22.3793 0.242409
92.5006 24.0807 0.199025
92.4255 24.1764 0.197376
66.1811 17.3958 0.452295
113.501 -24.8918 0.21222
113.515 -24.726 0.212657
113.962 -24.7493 0.205488
114.132 -24.7365 0.203101
114.453 -24.5283 0.198578
114.552 -24.3971 0.198475
114.899 -24.3696 0.192728
115.137 -24.2938 0.189371
115.824 -21.552 0.188845
119.287 -20.7911 0.135513
123.301 -20.9031 0.0705781
126.333 -18.1531 0.0251619
127.204 -18.1568 0.0105697
125.454 -8.7269 -0.262362
125.399 -8.54111 -0.261268
125.192 -8.34655 -0.256797
110.268 2.46352 0.020773
121.362 4.96009 -0.24127
90.0159 12.6549 0.291874
110.775 39.628 -0.602612
99.8701 29.2061 -0.213328
113.078 43.6524 -0.726619
92.3075 22.2803 0.0489728
91.8344 23.0469 0.0372741
78.9641 8.52853 0.547148
74.7873 12.4194 0.485377
25.9283 8.20064 -0.348431
108.301 -19.9052 0.0923787
109.055 -19.9659 0.0765447
109.142 -19.8512 0.0754582
110.676 -19.6508 0.0446915
117.271 -16.2078 -0.0834159
117.385 -15.9061 -0.0850933
118.716 -14.3699 -0.111624
118.887 -14.236 -0.115456
119.109 -14.1105 -0.120056
119.353 -13.9873 -0.124563
115.799 -11.5954 -0.334329
115.789 -11.5171 -0.333659
115.809 -11.3664 -0.334143
115.763 -11.2063 -0.332917
115.812 -11.0597 -0.334273
115.928 -10.9209 -0.337337
116.037 -10.5507 -0.34029
115.959 -10.3879 -0.338198
115.85 -10.2215 -0.335244
115.787 -10.0619 -0.333083
115.822 -9.91334 -0.334501
115.844 -9.7629 -0.334976
115.851 -9.61146 -0.33551
115.858 -9.53567 -0.335765
115.895 -9.38639 -0.336177
115.912 -9.23524 -0.336675
115.874 -9.08017 -0.336401
115.82 -8.92281 -0.335197
115.812 -8.7702 -0.334794
115.845 -8.62135 -0.33622
115.839 -8.54468 -0.33553
115.829 -8.39165 -0.336139
115.857 -8.24222 -0.336584
115.884 -8.0925 -0.338037
115.889 -7.94062 -0.337583
115.893 -7.78959 -0.338131
115.899 -7.638 -0.338669
115.88 -7.56145 -0.338029
115.941 -7.41265 -0.340346
115.773 -7.25197 -0.335598
115.683 -7.09637 -0.333531
115.946 -6.9587 -0.341016
116.113 -6.81406 -0.346906
116.234 -6.66692 -0.34998
116.398 -6.51987 -0.354889
120.658 -3.60526 -0.485129
120.722 -3.43765 -0.487505
120.85 -3.35106 -0.491329
121.12 -3.00819 -0.500553
121.243 -2.83603 -0.504715
121.715 -2.05572 -0.522777
122.159 -1.86337 -0.535762
123.124 -1.02699 -0.568114
123.249 -0.843941 -0.57231
123.376 -0.6592 -0.576503
123.36 -0.485225 -0.577211
123.587 -0.291767 -0.585045
123.693 -0.105999 -0.589325
95.2342 1.07415 0.192331
95.2732 1.30897 0.189609
95.2993 1.40523 0.187353
95.2857 1.49307 0.186973
102.358 7.02264 -0.0720399
94.5282 22.4038 -0.210832
95.6967 30.0627 -0.443792
92.3332 26.981 -0.300431
90.6179 25.644 -0.235141
79.5563 15.8189 0.216312
74.7786 12.3072 0.37976
74.808 12.5313 0.37204
74.8387 12.7643 0.363292
50.3858 14.9275 0.023892
50.4119 14.8358 0.0263352
-5.96969 -13.4445 -1.62724
-5.11797 -13.5768 -1.59643
90.3847 -18.9809 0.292085
90.5482 -18.8359 0.290182
111.539 -17.9942 -0.238114
111.482 -17.8272 -0.23496
110.786 -16.4493 -0.209804
112.167 -16.0803 -0.245792
111.833 -15.6269 -0.234781
112.638 -15.6777 -0.256453
113.287 -15.6847 -0.273897
113.729 -15.6386 -0.286345
113.983 -15.546 -0.2927
114.052 -15.4084 -0.293945
114.406 -15.4132 -0.303547
114.494 -15.1248 -0.305277
114.491 -14.9708 -0.304862
111.968 -14.1256 -0.232846
113.716 -14.2726 -0.281483
114.331 -14.2484 -0.298176
112.599 -13.6007 -0.248337
112.468 -13.4291 -0.24449
115.888 -12.9249 -0.33803
115.811 -12.7561 -0.335961
115.739 -12.589 -0.333863
115.768 -12.5164 -0.334022
115.859 -12.377 -0.336187
115.904 -12.229 -0.337559
115.945 -12.0803 -0.338954
115.895 -11.9184 -0.336753
115.872 -11.7606 -0.336429
109.065 -10.671 -0.419026
109.063 -10.5384 -0.419528
109.007 -10.3978 -0.417271
108.975 -10.3276 -0.415655
108.933 -10.1912 -0.414326
108.992 -10.0673 -0.41556
109.072 -9.94554 -0.4187
109.195 -9.82896 -0.422655
109.241 -9.70219 -0.423949
109.251 -9.57139 -0.424393
109.23 -9.50262 -0.423733
109.211 -9.36951 -0.423303
109.231 -9.23901 -0.423711
109.074 -9.09107 -0.417872
109.049 -8.95808 -0.417465
109.035 -8.82568 -0.417014
109.022 -8.69343 -0.416557
109.035 -8.62967 -0.416743
109.036 -8.49843 -0.416228
109.051 -8.36935 -0.417648
109.044 -8.23795 -0.417166
109.043 -8.10741 -0.416657
109.007 -7.97498 -0.416288
109 -7.84358 -0.415805
108.982 -7.71259 -0.415365
108.968 -7.64595 -0.414666
108.983 -7.51771 -0.415087
108.995 -7.38819 -0.416519
108.992 -7.25836 -0.416016
109.027 -7.13001 -0.417359
109.014 -6.99988 -0.416892
109.02 -6.87035 -0.417352
108.989 -6.80326 -0.416722
108.995 -6.67373 -0.417182
108.931 -6.54124 -0.414924
108.93 -6.41183 -0.415407
108.906 -6.28196 -0.414987
108.852 -6.15091 -0.413685
109.118 -5.96516 -0.423338
109.265 -5.83886 -0.428236
109.448 -5.71278 -0.434992
109.611 -5.58482 -0.440833
109.754 -5.45598 -0.446755
109.901 -5.32572 -0.451667
109.987 -5.19465 -0.45582
110.085 -5.12907 -0.458681
110.239 -4.99671 -0.464575
110.361 -4.86387 -0.469593
110.525 -4.72997 -0.475452
110.685 -4.59451 -0.481333
110.858 -4.45894 -0.488162
111.016 -4.3222 -0.494054
111.148 -4.25231 -0.498802
111.272 -4.11466 -0.503831
111.384 -3.97529 -0.508913
112.165 -3.33359 -0.538257
112.326 -3.18824 -0.545169
112.462 -3.04311 -0.550182
112.59 -2.89699 -0.555226
112.729 -2.75046 -0.561228
112.839 -2.60359 -0.565349
112.977 -2.45395 -0.571364
113.09 -2.37723 -0.576213
113.28 -2.22387 -0.583043
113.397 -2.07419 -0.588142
113.496 -1.92376 -0.592317
113.676 -1.76798 -0.599195
113.904 -1.60705 -0.608903
114.097 -1.44804 -0.616744
113.164 -0.222711 -0.592944
113.204 0.0695274 -0.595875
106.734 1.81248 -0.389588
89.8342 16.4214 -0.165862
95.1698 24.154 -0.530851
95.0409 24.1989 -0.529521
94.1686 24.0786 -0.505474
92.2224 22.4599 -0.411035
92.2292 22.6398 -0.416677
92.3161 22.9121 -0.427353
90.7813 26.8137 -0.527863
74.7642 12.225 0.262008
50.386 14.9936 -0.151356
90.4917 -19.001 0.113574
90.6236 -18.9837 0.110024
109.449 -11.9997 -0.435584
109.375 -11.8526 -0.432419
109.289 -11.7037 -0.429311
109.277 -11.5676 -0.428863
109.264 -11.4324 -0.427416
109.214 -11.2907 -0.426139
109.175 -11.2184 -0.424561
109.169 -11.0842 -0.424083
109.139 -10.9465 -0.422711
109.106 -10.8093 -0.421353
104.281 -9.91039 -0.472512
104.274 -9.79214 -0.47198
104.262 -9.67318 -0.47147
104.247 -9.61347 -0.47075
104.284 -9.50168 -0.47202
104.303 -9.38716 -0.472374
104.369 -9.27953 -0.475517
104.428 -9.1699 -0.477694
104.464 -9.05683 -0.478976
104.454 -8.93914 -0.478454
104.418 -8.81872 -0.476043
104.378 -8.75642 -0.474429
104.351 -8.63729 -0.473979
104.332 -8.4032 -0.472923
104.342 -8.28739 -0.473317
104.352 -8.17272 -0.473702
104.371 -8.05919 -0.474053
104.394 -8.00295 -0.475172
104.407 -7.88856 -0.475549
104.418 -7.77304 -0.475933
104.412 -7.65692 -0.475391
104.408 -7.54123 -0.475835
104.77 -5.00793 -0.494857
104.885 -4.89219 -0.49984
104.99 -4.77614 -0.50486
106.445 -3.19828 -0.571065
106.547 -3.07262 -0.576135
106.653 -2.94555 -0.581194
106.659 -2.82323 -0.581624
106.813 -2.69285 -0.588511
107.048 -2.55712 -0.599101
107.172 -2.4882 -0.604874
107.256 -2.35896 -0.609026
107.354 -2.22862 -0.61413
107.428 -2.09894 -0.617323
107.527 -1.96676 -0.622429
107.696 -1.82949 -0.630284
106.456 1.59337 -0.61086
106.403 1.70915 -0.609498
93.8791 8.9944 -0.256444
95.294 24.0343 -0.765924
92.2943 22.3084 -0.624193
92.1867 22.3603 -0.622806
91.0664 21.2818 -0.554158
91.1444 21.5342 -0.565794
97.0447 31.8107 -1.10005
92.1767 27.2526 -0.80906
91.0141 27.0531 -0.77485
5.9846 -5.95296 -1.98152
5.99487 -6.14744 -1.98076
21.1619 -14.7473 -1.2616
104.351 -10.5662 -0.477799
104.333 -10.4454 -0.476318
104.322 -10.3852 -0.475583
104.318 -10.2664 -0.475041
104.287 -10.1447 -0.473615
104.299 -10.0292 -0.473999
94.0672 22.5765 -0.898282
96.3079 25.4739 -1.08334
91.3612 21.6851 -0.780513
93.9759 29.9546 -1.20511
15.3614 1.7351 -1.87658
15.3387 1.65453 -1.87737
15.3625 1.48436 -1.87465
16.0813 -6.10349 -1.78959
16.0411 -6.18559 -1.79145
16.6295 -7.69831 -1.75752
16.8627 -7.84618 -1.74406
25.4806 -10.0665 -1.28219
96.5143 25.2998 -1.34589
96.4717 25.4453 -1.35159
91.342 20.3667 -0.944682
91.5102 21.1092 -0.983791
91.0412 21.1649 -0.969827
18.9156 10.1694 -2.13213
96.3264 -12.3812 -0.52633
94.6471 -8.16941 -0.553557
94.6811 -8.08844 -0.554726
94.7549 -8.01122 -0.558726
94.8009 -7.93099 -0.561845
94.8438 -7.89275 -0.56382
94.871 -7.80978 -0.565023
94.8922 -7.72596 -0.566252
94.9114 -7.64185 -0.56649
94.9406 -7.55918 -0.568685
94.9191 -7.47018 -0.5671
96.9391 -0.676844 -0.718516
96.9478 -0.582111 -0.719835
96.9699 -0.485284 -0.722109
72.2932 12.7883 -0.16373
26.8164 6.2134 -1.82059
90.2073 -16.1567 -0.422131
90.2463 -16.132 -0.424071
93.6984 -10.6965 -0.516848
93.5254 -10.53 -0.506142
93.4267 -10.4227 -0.498926
94.493 -9.4374 -0.551437
94.5456 -9.36015 -0.55452
94.5677 -9.27746 -0.554742
93.3131 -2.1467 -0.672181
93.3742 -2.05957 -0.677267
93.4478 -1.9702 -0.682313
93.4546 -1.88833 -0.683591
93.5068 -1.79992 -0.688717
93.5331 -1.71582 -0.690927
93.568 -1.67036 -0.693961
93.6409 -1.57887 -0.700017
93.6685 -1.49294 -0.70223
93.7063 -1.40647 -0.705404
93.7371 -1.31899 -0.70861
94.4209 0.618849 -0.782159
93.1998 2.90292 -0.882424
86.0003 8.40086 -1.03997
85.9748 8.4692 -1.04232
85.4318 5.72282 -0.984211
84.0887 7.93483 -1.01068
84.1173 8.04081 -1.01997
84.1193 8.12437 -1.02527
84.1695 8.20599 -1.03438
84.2084 8.32057 -1.04465
84.2269 8.42092 -1.05195
84.2787 8.54778 -1.06422
84.2801 8.63445 -1.07054
84.3172 8.75031 -1.08083
84.2925 8.81752 -1.08318
84.2664 8.83949 -1.08236
84.3325 8.98145 -1.09663
84.485 9.19676 -1.12184
84.5885 9.37371 -1.14109
84.6321 9.50072 -1.1534
84.6415 9.60038 -1.16073
84.6589 9.70596 -1.16906
84.8076 9.8814 -1.19113
84.8658 10.0245 -1.20444
84.8686 10.1211 -1.21178
76.1855 12.1805 -0.885302
71.2241 3.9722 0.0619252
64.0489 12.7795 -0.838851
84.9641 -0.571485 -0.7916
85.347 2.67871 -0.947209
85.3445 2.71038 -0.948336
82.5505 8.00878 -1.02496
82.5838 8.0777 -1.03208
71.3075 3.96702 0.00126877
81.2174 -13.9009 -0.608583
82.0381 6.98759 -1.03415
81.9977 7.0298 -1.03447
81.9734 7.08485 -1.03677
81.9611 7.11188 -1.03692
81.9356 7.16608 -1.03922
81.909 7.21944 -1.04152
80.9532 -12.6542 -0.621255
81.2714 6.59728 -1.05169
81.2453 6.64753 -1.05298
81.2271 6.66835 -1.05313
81.1941 6.71253 -1.05342
81.1612 6.7577 -1.05472
81.1179 6.79327 -1.05402
80.7796 6.25609 -1.07934
80.7358 6.2887 -1.07863
80.7002 6.29386 -1.07579
80.6795 6.34636 -1.07806
65.5402 12.5231 -1.21109
81.2032 4.67919 -1.07881
81.1514 4.70489 -1.07611
80.2625 5.76911 -1.07654
80.223 5.80312 -1.07582
80.1845 5.83699 -1.0751
79.6908 5.32938 -1.09413
79.6597 5.36621 -1.09439
79.6348 5.41023 -1.09565
79.6027 5.44719 -1.09591
69.2266 -16.0853 -0.493202
73.7406 8.51616 -1.0852
73.6971 8.52953 -1.08442
73.6596 8.55717 -1.08566
73.6165 8.57351 -1.08589
73.5824 8.60976 -1.08916
78.699 4.62007 -1.09336
78.6521 4.63798 -1.08961
61.9189 9.31424 -1.30326
61.8919 9.31613 -1.30437
61.8433 9.308 -1.30653
61.5411 7.47026 -1.32387
61.5036 7.44841 -1.32394
61.4565 7.4441 -1.3271
61.4209 7.42097 -1.32616
61.4063 7.35541 -1.31797
72.5327 5.73124 -1.13554
72.5123 5.73015 -1.13361
72.4788 5.74308 -1.13379
72.4483 5.76264 -1.13498
70.2407 -10.4997 -0.743045
73.3605 -5.49713 -0.850506
73.355 -5.47915 -0.847594
46.6674 -3.03723 -6.98683
46.6689 -3.10412 -6.98357
46.6713 -3.17115 -6.98132
46.6648 -3.2369 -6.9811
46.7552 -3.30947 -6.94547
46.6627 -3.36996 -6.97761
70.33 -4.64509 -0.0954833
70.3388 -4.63324 -0.0984931
46.0005 -2.8732 -7.99406
45.9936 -2.94192 -7.99483
45.9707 -3.00937 -8.00166
45.7434 -3.06064 -8.09236
45.9789 -3.14794 -7.99312
66.8876 -3.19042 0.166683
66.8319 -3.17031 0.147391
66.8388 -3.19249 0.156501
66.8267 -3.17864 0.148402
118.346 -10.7492 -20.7728
118.35 -10.5891 -20.7674
106.846 -19.0862 -16.7776
124.073 -19.9558 -23.8923
124.119 -19.7797 -23.8928
67.1138 -3.50167 0.280726
67.1231 -3.52823 0.292861
67.0241 -3.40506 0.205015
67.07 -3.49138 0.250516
67.0567 -3.47837 0.242416
67.0321 -3.44658 0.224201
67.0034 -3.40814 0.201946
66.9598 -3.34738 0.167549
66.9318 -3.31107 0.146305
66.9589 -3.36037 0.172594
66.9503 -3.35712 0.169549
66.9682 -3.39399 0.187756
66.9088 -3.30978 0.14021
66.9541 -3.49693 0.224085
67.0266 -3.60827 0.285783
66.9923 -3.61544 0.279675
66.8734 -3.46212 0.18964
66.5609 -6.07259 0.0931382
66.6184 -6.07985 0.10839
69.0931 -5.99536 0.0847236
69.1047 -5.99908 0.0797826
34.7571 1.15033e-41 0
