ply
format ascii 1.0
element vertex 364
property float x
property float y
property float z
end_header
170.674 -6.40008 3.94535
166.44 -4.99122 3.79254
155.268 18.8519 3.37258
141.526 24.9647 3.01317
116.554 57.3711 3.07149
94.7849 14.7184 1.93185
91.3341 10.5299 1.83319
78.652 46.5802 2.75987
78.7295 45.9249 2.74434
78.5057 46.0856 2.74991
75.8312 47.3177 2.80469
80.3981 19.7563 2.14666
80.0311 16.9665 2.09473
79.5089 13.2603 2.03103
78.9405 11.8535 2.01548
78.8394 11.8668 2.01842
78.7396 11.8758 2.02041
40.4042 -19.5424 3.34465
24.0198 -25.2684 3.99821
103.71 -24.1434 2.19109
105.004 -24.3281 2.22194
142.058 -29.2487 3.37172
148.275 -30.7671 3.59611
152.239 -31.8311 3.74169
156.273 -21.2034 3.66076
156.29 -20.9989 3.65771
156.305 -20.794 3.65466
156.305 -20.586 3.65158
156.322 -20.4854 3.65057
156.341 -20.282 3.64753
156.371 -20.0803 3.6455
143.681 25.4098 2.68808
106.702 22.2664 1.99058
106.586 22.2676 1.98965
106.455 22.2345 1.98808
106.389 22.2165 1.98631
106.278 22.224 1.98532
106.142 22.1755 1.98391
106.069 22.2695 1.98403
94.5909 14.2291 1.77686
93.7183 29.0725 2.03571
78.2967 44.4035 2.36781
29.0385 16.3621 3.06072
17.6562 14.4363 3.3676
51.8804 -12.5415 2.58412
17.9603 -18.5163 3.61557
117.023 -26.2521 2.37794
138.829 -31.0112 2.99072
154.619 -20.5423 3.19541
154.646 -20.3451 3.19343
154.674 -20.1482 3.19045
154.703 -20.0533 3.19048
154.775 -19.8645 3.18954
155.892 -19.8698 3.21874
136.581 20.5728 2.25865
120.727 11.7297 1.94681
121.033 12.0816 1.95407
120.564 11.879 1.94445
115.761 57.9829 2.30296
95.6996 41.482 2.0196
95.1119 40.692 2.00892
94.0716 39.3122 1.99145
154.421 -20.5609 2.89373
124.802 6.02143 1.75054
151.041 22.4675 2.03573
136.338 20.5898 1.85865
136.338 20.7868 1.85769
122.201 12.7825 1.70219
120.657 11.8209 1.68494
111.164 38.107 1.66539
110.919 37.9163 1.66348
110.727 37.8543 1.66224
110.802 38.2588 1.66416
116.957 56.9863 1.77295
116.663 56.8225 1.7708
96.3346 41.4424 1.64249
76.7551 35.1324 1.66528
15.7411 -19.0988 2.73102
148.804 -30.7446 2.48443
160.829 -21.9939 2.5261
159.232 -21.5617 2.49801
155.563 -19.5953 2.42022
162.673 -20.3183 2.531
166.852 -20.5641 2.59326
163.787 20.2286 1.81829
120.54 11.5173 1.50905
120.471 11.5998 1.50828
117.675 57.3857 1.4184
109.795 44.5349 1.4034
109.624 44.5691 1.40319
109.466 44.6489 1.40352
93.256 38.8452 1.3887
93.1032 38.2537 1.3887
137.303 -29.1285 2.05509
166.872 -20.6656 2.21024
141.293 23.9129 1.20874
147.874 28.7536 1.1805
141.332 24.6011 1.20285
117.531 57.1474 0.931862
107.812 45.0624 1.01365
107.643 45.1033 1.01337
122.755 -23.4939 1.61705
162.261 -32.7136 1.80473
159.141 -21.5924 1.67834
160.752 -21.6947 1.68313
156.375 -20.618 1.66075
153.997 -19.9533 1.64895
166.748 -20.7201 1.68685
162.616 25.0889 0.875731
155.978 26.189 0.878841
159.028 31.4381 0.816232
141.254 23.9066 0.933815
107.656 45.2048 0.752333
97.8523 16.1903 1.0958
97.7148 15.9168 1.09863
93.3259 42.9517 0.791714
77.0039 34.306 0.899285
122.788 -23.5254 1.45833
122.874 -23.4486 1.4575
122.979 -23.3826 1.45677
163.819 -32.7232 1.45462
153.936 -21.6261 1.37064
154.063 -20.9472 1.36378
154.084 -20.7511 1.36181
154.095 -20.5517 1.35982
154.102 -20.3529 1.35783
154.136 -20.1586 1.35587
154.163 -19.9636 1.35391
155.228 -19.6589 1.34906
171.939 -7.31468 0.686327
165.619 -6.12145 0.728269
163.901 -5.72217 0.739605
161.855 -4.81237 0.748105
163.247 13.29 0.530743
159.946 25.1758 0.40488
159.531 25.2322 0.406635
158.913 33.1396 0.302348
108.26 44.9669 0.402224
108.093 45.0156 0.401866
107.923 45.0527 0.401627
96.0729 41.508 0.48998
93.7018 48.5025 0.368123
77.2498 33.691 0.623209
122.783 -23.4066 1.24314
154.188 -31.5445 1.04721
153.629 -21.611 0.975702
153.569 -21.3976 0.973622
153.531 -20.9895 0.970586
153.554 -20.7937 0.969618
153.452 -20.4744 0.967516
153.618 -20.3089 0.964741
153.681 -20.1218 0.96283
155.258 -19.7177 0.9456
156.107 -14.3326 0.499297
156.364 -13.248 0.486298
77.7594 36.2861 0.290957
73.2227 49.2143 -0.0263535
77.2094 33.7322 0.347815
122.824 -23.4256 1.03529
123.084 -23.4965 1.0318
153.13 -30.7624 0.65421
138.842 -22.8396 0.811217
154.298 -26.5643 0.614505
159.613 -26.6663 0.53946
153.319 -20.7968 0.59081
154.949 -19.6104 0.558749
152.18 -15.8056 0.151948
151.869 -15.5771 0.15691
152.296 -15.4402 0.146221
152.366 -14.5929 0.138727
152.234 -14.2006 0.137921
151.947 -12.389 0.130097
158.258 -7.2655 -0.0557571
157.619 -7.17243 -0.0421953
155.165 -4.94859 -0.0124686
158.386 14.8906 -0.361533
158.217 15.0628 -0.361119
152.922 15.9993 -0.269399
79.5026 27.5482 0.234648
26.7918 -16.0226 0.116821
137.729 -27.9437 0.509885
137.927 -27.8614 0.505915
138.22 -27.8188 0.500267
140.886 -26.8461 0.444542
141.488 -26.9027 0.432644
142.129 -23.9199 0.410447
142.297 -23.8012 0.406136
147.668 -22.2219 0.287301
148.923 -22.1673 0.259799
149.136 -22.0317 0.255285
146.988 4.44073 -0.242751
158.497 14.8725 -0.720455
158.564 15.0124 -0.7249
157.712 17.1539 -0.743578
157.427 17.2778 -0.739595
157.423 17.5116 -0.743921
125.239 4.78313 0.310468
115.974 8.42637 0.449263
79.529 27.4477 0.0436203
124.05 -23.9267 0.596324
142.313 -18.4438 0.120753
135.758 -14.252 0.0130038
135.784 -13.3599 0.00709893
137.525 -9.24494 -0.0812174
137.6 -9.10508 -0.085668
137.661 -8.96524 -0.0881074
137.719 -8.824 -0.0915588
138.303 -8.18726 -0.117347
138.464 -8.04342 -0.123903
138.551 -7.89916 -0.128407
138.666 -7.75384 -0.132942
138.757 -7.68085 -0.136739
138.885 -7.53425 -0.143297
138.993 -7.38684 -0.147847
139.158 -7.23747 -0.154461
139.314 -7.08786 -0.162071
139.397 -6.93893 -0.165618
140.072 -5.9516 -0.198968
140.175 -5.79742 -0.204582
140.298 -5.71587 -0.209489
140.426 -5.55923 -0.215147
140.774 4.49012 -0.377507
149.127 11.5411 -0.776126
94.3045 9.25696 0.642541
122.256 -22.2812 0.447298
133.939 -18.1664 0.0873804
134.108 -18.069 0.0812816
134.156 -17.6677 0.0792484
134.139 -17.527 0.07886
134.217 -17.4077 0.0766119
134.548 -16.8616 0.0639197
134.692 -16.7537 0.0587345
134.813 -16.6404 0.0545143
134.58 -16.3884 0.0611829
134.737 -16.2824 0.0560059
135.236 -15.8245 0.0380644
135.262 -15.7605 0.0364072
135.304 -15.3544 0.0333305
135.739 -14.3877 0.0143695
134.822 3.8084 -0.463178
135.386 4.77193 -0.505207
134.477 4.92638 -0.474049
135.639 5.36626 -0.52732
124.518 4.10087 -0.0852067
119.27 -22.1078 0.338845
119.249 -22.0442 0.340228
121.576 -21.341 0.262445
127.134 -12.3986 -0.15088
127.119 -12.2874 -0.150977
130.513 3.49974 -0.529818
28.683 -10.5231 -1.39647
31.6537 -12.4341 -1.2527
33.5788 -16.6181 -1.14649
115.128 -25.3514 0.274308
125.582 -4.10828 -0.354273
125.593 -4.00178 -0.356342
125.653 -3.94158 -0.359988
125.687 -3.83137 -0.364112
125.728 -3.72002 -0.368252
125.784 -3.60665 -0.372424
127.572 2.2284 -0.582913
116.36 5.55247 -0.15344
104.767 11.1323 0.0308468
104.709 11.1747 0.0294681
102.575 7.96176 0.257108
34.1497 -8.97636 -1.50705
120.878 -12.1335 -0.215749
120.885 -12.089 -0.216197
120.893 -11.9093 -0.216992
124.053 0.964893 -0.587644
88.4134 13.3926 -0.0791869
41.9787 -6.46458 -1.46804
53.1759 -16.7801 -0.79082
119.072 -9.7986 -0.264627
119.096 -9.71724 -0.266456
104.98 3.98512 0.173874
101.723 10.2817 -0.0873638
118.263 -2.43929 -0.506316
118.306 -2.34549 -0.512284
118.352 -2.2924 -0.516848
118.388 -2.19944 -0.520801
118.432 -2.10281 -0.526798
118.771 -0.531168 -0.592712
118.686 -0.511081 -0.587847
118.562 -0.459242 -0.581268
118.496 -0.390346 -0.578904
94.9442 0.923208 0.637052
94.911 0.909711 0.638212
94.883 0.9187 0.638144
94.841 0.871133 0.64265
94.8292 0.887925 0.641492
94.7982 0.883201 0.642562
94.7676 0.880447 0.642613
108.092 2.19337 -0.111671
113.748 -10.7734 -0.319857
113.884 -10.4865 -0.330818
113.913 -10.422 -0.333484
113.909 -10.3538 -0.33316
113.919 -10.2875 -0.333828
113.903 -10.252 -0.333169
113.894 -10.184 -0.332839
113.878 -11.743 -0.3313
113.417 -1.34858 -0.588484
113.534 -1.23701 -0.602685
113.638 -1.12857 -0.614845
113.464 -1.11496 -0.600847
91.1714 9.14785 -0.294027
98.5372 8.13529 -0.38857
91.6813 15.7579 -1.06829
91.7892 -22.3334 0.216063
100.577 -22.0511 0.0415349
100.707 -22.0755 0.0336784
104.394 -18.9606 0.0108404
104.427 -18.9239 0.0104493
97.662 5.25913 -0.174246
98.7145 -21.7325 0.0497842
94.9324 1.75543 0.076745
94.9003 1.75692 0.0777546
94.8691 1.76534 0.0776946
94.8384 1.77672 0.0766046
94.9285 1.79269 0.0133736
97.3816 -17.5082 0.181737
98.1611 -17.0083 -0.264859
98.2009 2.15857 -0.791808
98.1787 2.19496 -0.796154
98.1434 2.20904 -0.795267
98.1046 2.2135 -0.793282
98.0705 2.2294 -0.793414
98.0388 2.248 -0.793576
98.0016 2.25628 -0.79163
97.9901 2.27505 -0.793808
99.7973 -13.1653 -0.442392
97.9594 -2.22906 -0.618917
97.9476 -2.20521 -0.622146
97.9341 -2.20126 -0.620175
97.9116 -2.189 -0.61928
97.9012 -2.16233 -0.622537
47.2993 -3.39717 -15.0843
95.185 -8.11652 0.268881
95.2194 -8.08718 0.253562
91.7544 -6.67292 0.544136
91.686 -6.64235 0.518882
91.4311 -9.54691 0.557007
91.9148 -6.97504 0.662028
91.987 -6.99323 0.666155
91.9845 -6.99691 0.666193
91.9046 -6.91163 0.598401
91.9232 -6.95142 0.617784
91.9203 -6.95101 0.617783
91.8889 -6.90846 0.593382
91.86 -6.87028 0.571022
91.8194 -6.81441 0.538495
91.8058 -6.80348 0.531396
91.8187 -6.83342 0.546685
91.8119 -6.83148 0.543671
91.8249 -6.86143 0.55896
91.7373 -6.73068 0.485721
91.8352 -6.99564 0.614292
91.8423 -7.06703 0.643999
91.719 -6.91024 0.551527
93.9638 -9.45367 0.45814
93.9482 -9.43521 0.468969
93.8942 -9.37372 0.506399
2.69219e-40 0 1.15033e-41
