ply
format ascii 1.0
element vertex 456
property float x
property float y
property float z
end_header
164.316 -7.469 3.84663
165.576 -5.35123 3.85808
165.806 -5.0952 3.86216
121.727 5.6805 2.35616
149.34 18.7899 3.16535
141.512 21.474 2.93597
141.554 21.7165 2.93749
105.05 45.8961 2.44042
77.4554 45.6398 2.38803
77.312 45.4785 2.3855
74.7426 10.1569 1.78398
67.0444 13.5481 1.9975
56.3518 15.0903 2.29512
52.5094 13.1046 2.39829
52.2512 13.1145 2.40649
51.9297 13.1619 2.41626
51.6497 13.182 2.42435
51.4382 13.1589 2.43096
51.254 13.1208 2.43675
51.0419 13.1706 2.44333
44.2396 16.4271 2.66055
44.2212 16.264 2.66087
28.1514 16.6983 3.17235
28.2397 15.2873 3.17113
12.8748 20.3486 3.66741
27.9874 14.2345 3.18232
28.0742 13.9946 3.17958
27.4963 13.2697 3.20058
27.5205 12.8479 3.2015
27.2728 12.727 3.20954
18.764 15.1454 3.48587
16.8756 13.3787 3.55632
10.6134 13.9589 3.76556
10.0275 13.9948 3.78484
9.9268 13.7649 3.79022
16.2673 -3.2845 3.71514
24.6993 -8.79794 3.49256
27.9881 -9.084 3.38117
28.704 -9.42455 3.36101
27.1975 -9.66503 3.41843
25.7707 -9.91298 3.47184
24.9614 -10.2368 3.5055
25.0154 -10.6203 3.50983
24.9576 -11.009 3.51839
25.0889 -11.2905 3.51819
25.2579 -11.4714 3.51551
25.1614 -11.6717 3.52147
41.9611 -11.5198 2.93074
41.4194 -12.6388 2.96925
52.0468 -11.8641 2.58403
55.5798 -14.2762 2.5103
54.3811 -15.1307 2.56997
54.3632 -15.2412 2.57255
50.5525 -16.5486 2.73211
26.8291 -23.7986 3.70526
25.5056 -24.4745 3.76557
26.0826 -24.5152 3.74737
26.033 -24.7343 3.75353
44.5383 -21.5352 3.05453
44.581 -21.6666 3.05632
44.4206 -21.8687 3.06639
44.2143 -22.0885 3.07877
35.7892 -25.143 3.43618
34.2702 -25.8645 3.50539
44.3412 -22.4148 3.0832
53.6224 -19.1816 2.69212
53.654 -19.2852 2.69454
53.5148 -22.596 2.78842
53.9669 -22.9439 2.78372
53.6811 -23.5905 2.81223
54.4753 -23.7584 2.79153
54.5877 -23.8271 2.79035
54.092 -24.4082 2.82321
54.3462 -24.5306 2.81859
54.4038 -24.6288 2.8199
54.5613 -24.6717 2.81629
54.6266 -24.7659 2.81754
48.3481 -28.3922 3.12212
54.1952 -25.2017 2.84426
54.2977 -25.276 2.84317
71.937 -20.1509 2.15718
141.008 -38.1448 3.79547
137.747 -30.3225 3.4715
160.921 -33.3147 4.2497
161.285 -33.177 4.25727
161.435 -32.9641 4.25606
161.581 -32.7507 4.25586
161.695 -32.1298 4.24395
161.741 -31.8828 4.2394
161.924 -31.6797 4.23929
160.184 -30.354 4.15392
148.809 -21.3363 3.59095
148.804 -21.2326 3.5885
148.802 -21.0263 3.58359
148.792 -20.8177 3.57966
148.838 -20.6223 3.57684
148.803 -20.4092 3.57089
148.842 -20.2128 3.56806
119.995 0.00802374 2.10845
143.247 22.0573 2.57938
121.109 11.0788 2.08483
107.517 24.1141 1.87922
77.506 45.6741 2.04744
77.0284 47.5122 2.07417
26.4616 14.4486 2.82831
20.5172 -9.44369 3.23225
15.4763 -20.5321 3.56641
15.247 -20.8061 3.57858
18.2048 -20.6886 3.49295
26.8458 -23.5228 3.30731
23.0211 -24.9911 3.44516
35.9148 -25.3114 3.09735
49.5302 -26.2898 2.75985
76.9719 -20.4628 1.9468
152.592 -31.5805 3.50233
161.61 -32.6187 3.74891
161.706 -32.2556 3.74266
147.108 -21.4408 3.14266
147.122 -21.2429 3.13885
147.116 -21.0411 3.13501
147.13 -20.843 3.1312
147.124 -20.7412 3.12877
147.14 -20.5445 3.12598
147.178 -20.352 3.12221
147.177 -20.1519 3.11839
158.98 -5.67922 2.84445
124.407 5.96015 1.98958
100.403 30.5768 1.6756
105.917 45.5991 1.82038
105.773 45.7198 1.82087
77.6277 45.2609 1.79108
77.2341 46.6008 1.80371
77.259 45.4372 1.79409
115.264 -25.8124 2.31293
115.501 -25.8979 2.31982
161.562 -32.1404 3.36319
161.443 18.8176 2.04861
161.347 19.0486 2.04548
161.255 19.8134 2.03682
140.758 21.0018 1.76952
107.97 26.9541 1.41151
107.892 26.9492 1.41169
107.761 26.9801 1.41043
107.635 27.0184 1.40906
107.527 27.0855 1.40826
107.408 27.1348 1.40772
107.284 27.1759 1.40731
100.637 30.4772 1.36966
100.458 30.3635 1.36951
100.328 30.376 1.3685
100.222 30.4539 1.36855
100.095 30.4752 1.36742
82.6214 66.8529 1.39486
77.5539 45.8003 1.38853
77.4275 45.5325 1.38848
77.2643 45.4862 1.38935
18.1757 -20.1713 2.6326
143.323 -29.9291 2.48337
148.366 -30.6939 2.5634
153.989 -31.4821 2.65099
158.212 -32.0999 2.71804
159.328 -32.2286 2.73536
161.58 -31.9434 2.75933
153.219 -22.0788 2.4684
153.375 -21.6718 2.46345
151.821 -21.1237 2.4338
159.337 -19.85 2.51377
162.545 14.6068 1.69748
162.616 14.7572 1.69626
162.641 15.0245 1.69346
162.683 15.2982 1.69054
162.712 15.5679 1.6877
162.735 15.8373 1.68487
143.358 19.8979 1.48557
141.134 21.3152 1.45457
121.276 11.226 1.39847
107.2 27.1365 1.19995
107.143 27.2882 1.19889
82.9496 66.7943 1.01521
83.5787 48.6942 1.08661
119.013 -23.0142 1.8514
119.062 -22.9111 1.84988
138.979 -29.3639 2.12419
139.899 -29.3525 2.1308
151.671 -21.9415 2.1025
132.56 5.16299 1.21882
162.667 14.5551 1.14499
162.681 14.8198 1.14224
162.712 14.9588 1.14024
162.653 15.2016 1.13689
162.692 15.4748 1.13299
162.73 15.7483 1.13008
158.728 26.165 0.988535
141.428 21.188 1.02592
141.235 21.3086 1.02348
96.2798 13.7862 1.06885
96.4085 16.0043 1.04339
105.953 45.5346 0.71213
77.5891 43.7352 0.760545
53.3098 -22.6077 1.67975
53.2254 -22.7733 1.6832
77.7467 -20.4232 1.55116
77.7898 -20.4465 1.55144
118.814 -23.1196 1.59912
156.172 -31.9493 1.79356
148.804 -21.9819 1.63087
148.845 -21.7838 1.62802
148.828 -21.5733 1.62507
151.528 -21.4357 1.62751
162.715 -20.366 1.63143
162.54 14.3003 0.775716
162.578 14.5707 0.770852
162.599 14.8364 0.767077
162.652 15.1126 0.76311
162.718 15.2628 0.760904
162.749 15.5331 0.75705
162.783 15.806 0.753156
159.189 25.453 0.621921
158.535 26.3964 0.609492
97.2317 14.9125 0.938675
95.3131 15.2558 0.937407
95.2509 15.2031 0.938234
77.5978 43.6123 0.518242
17.888 -11.932 1.35567
27.579 -18.3987 1.44788
146.551 -21.4343 1.32714
146.618 -20.6519 1.31701
146.663 -20.4625 1.31428
146.465 -20.1228 1.30976
146.665 -19.9667 1.30729
166.201 -6.55309 0.555857
165.226 -6.31396 0.561793
162.437 -5.8696 0.581269
161.591 -5.76718 0.587959
164.904 0.753956 0.461544
164.557 0.967367 0.461999
162.542 14.4758 0.269189
162.568 14.7437 0.264375
162.627 15.0211 0.259384
162.633 15.2838 0.25567
162.658 15.5521 0.250854
116.074 5.78251 0.823147
115.6 8.19408 0.784771
83.6081 67.2998 -0.33294
83.3634 67.5511 -0.338156
80.5428 26.2745 0.569793
20.3823 -10.886 0.923533
45.8718 -17.6546 1.17683
119.751 -22.9498 1.18843
155.761 -31.7232 0.974843
156.891 -31.8704 0.966404
161.67 -32.6058 0.933363
146.08 -20.9803 0.933326
146.077 -20.7819 0.930532
146.084 -20.5859 0.927758
146.108 -20.3943 0.926025
146.114 -20.1982 0.923251
146.146 -20.1068 0.92192
148.343 -19.3569 0.892395
165.475 -6.61234 0.0766173
119.945 5.32295 0.576412
119.842 5.40549 0.576386
106.629 45.36 -0.258412
106.295 45.4837 -0.259709
106.116 45.5124 -0.258874
105.949 45.5708 -0.259473
90.9673 9.20899 0.823495
83.5609 66.596 -0.771997
80.9452 45.1242 -0.167636
79.79 32.1798 0.19449
17.8906 -8.83023 0.458838
17.81 -9.04696 0.461003
22.7132 -11.02 0.55026
126.436 -27.4524 0.903934
149.818 -28.2422 0.575685
147.82 -25.5687 0.578663
147.651 -25.4131 0.579695
151.646 -26.3646 0.52975
151.822 -26.1928 0.526092
151.73 -25.9442 0.524709
148.172 -24.305 0.560369
155.609 -24.4776 0.451819
155.214 -24.15 0.45373
147.07 -21.3604 0.54532
146.95 -21.2321 0.545671
145.844 -20.783 0.557823
145.878 -20.594 0.555111
145.767 -20.373 0.554143
146.944 -20.231 0.534562
145.858 -13.2378 0.0503517
145.656 -13.0289 0.0526768
145.602 -12.9302 0.0523579
145.587 -11.5198 0.0354872
145.567 -11.3311 0.0338524
161.331 14.4997 -0.744628
123.802 5.55531 0.23893
107.115 45.2643 -0.652754
106.945 45.319 -0.653297
91.5097 10.0443 0.670973
81.2405 44.1465 -0.500278
120.171 -23.0889 0.695781
132.714 -27.6036 0.464604
139.697 -22.5774 0.281343
144.784 -19.4434 0.142312
137.132 -14.4515 -0.00483733
137.179 -13.4005 -0.0177215
137.265 -13.2483 -0.0209844
137.246 -13.0838 -0.0222775
137.268 -12.9234 -0.0245703
137.314 -12.7664 -0.0278462
137.335 -12.6876 -0.0299861
137.409 -12.5325 -0.0332719
137.433 -12.3723 -0.0355634
137.492 -12.0535 -0.0411389
137.472 -11.889 -0.0424319
137.654 -9.95656 -0.070931
140.24 -4.05676 -0.226611
140.236 -3.97248 -0.227796
140.138 -3.80875 -0.226972
140.09 -3.64127 -0.22827
140.203 7.76054 -0.44323
140.24 7.9542 -0.449011
119.313 4.72297 0.17068
102.375 9.937 0.421891
82.307 39.797 -0.589381
82.0345 37.9074 -0.514361
124.83 -24.8 0.393633
126.331 -22.0933 0.343447
127.308 -21.5794 0.315886
134.15 -21.7029 0.137434
134.596 -21.5055 0.124051
134.715 -21.3751 0.120053
135.301 -18.6642 0.0840334
136.093 -16.8012 0.046696
130.483 -12.9785 -0.104703
130.412 -12.8289 -0.103717
130.39 -12.755 -0.10373
134.427 -4.43809 -0.347452
132.911 3.11867 -0.437993
82.9081 66.9968 -2.12291
111.708 2.59391 0.0738918
105.302 6.54757 0.171738
105.71 10.8814 -0.00894291
102.783 10.5516 0.0886434
95.8989 14.4206 0.0653119
84.6315 69.743 -2.75601
119.514 -20.2382 0.0643983
121.107 -17.2559 -0.00179937
121.311 -17.0763 -0.0106078
121.435 -16.9912 -0.0159753
121.501 -16.7713 -0.0191642
122.693 -4.35697 -0.415867
122.717 -4.23922 -0.41956
114.948 5.31066 -0.310803
102.315 9.87169 -0.0101515
88.9947 13.1969 0.0878289
82.8321 66.9904 -3.05281
10.6239 -1.66007 -2.04778
12.378 -8.297 -1.86952
19.438 -10.7269 -1.53369
109.768 3.01558 -0.166478
81.9578 67.0906 -3.48709
82.8587 48.4059 -2.28469
25.6002 3.864 -1.86975
22.7627 -5.41115 -1.82714
21.3222 -6.79627 -1.87668
21.6503 -8.01493 -1.84293
32.0758 -12.1648 -1.28534
34.3148 -16.2773 -1.14533
110.031 -22.4598 0.0684433
114.107 -19.677 -0.0912813
114.72 -8.50489 -0.332674
114.71 -8.46004 -0.332294
114.705 -8.37039 -0.333551
90.2682 15.3017 -0.323601
89.0873 12.9116 -0.144294
82.8375 66.9465 -3.94929
31.9171 -5.32326 -1.72565
32.4437 -5.51159 -1.69369
32.5969 -7.03354 -1.66243
37.602 -9.81521 -1.34989
40.9213 -14.9799 -1.12648
103.526 7.05132 -0.317033
82.5594 66.7668 -4.33242
82.3246 66.7712 -4.33217
100.136 3.61014 -0.0909377
100.05 3.75485 -0.093863
100.165 3.88158 -0.107806
100.351 4.10515 -0.13021
95.7584 1.52821 0.267328
98.2887 11.6924 -0.53448
89.1187 60.8491 -4.36477
82.6319 66.2989 -4.80997
100.604 -18.0181 0.200462
109.127 -12.9889 -0.272935
84.2679 64.2538 -4.99034
99.4738 -21.7924 0.0421866
70.5298 11.5368 -0.9151
70.4212 11.5472 -0.922102
70.3466 11.5761 -0.927409
88.1203 53.0304 -4.75321
70.5069 11.538 -1.0581
70.4284 11.5119 -1.05963
83.0371 36.3267 -3.61873
80.5688 40.1566 -4.06747
101.868 -12.6392 -0.269131
102.71 -3.04776 -0.562548
102.713 -3.01991 -0.563945
82.3503 35.6164 -3.80881
81.4286 26.5877 -2.75315
81.4949 36.0041 -4.14916
79.5999 12.3153 -1.27228
79.594 12.1335 -1.2507
78.8198 10.0785 -1.03766
81.3538 36.0744 -4.67902
81.2876 36.0496 -4.67658
79.9367 9.23816 -1.10632
81.999 31.7762 -4.28723
81.4872 25.7127 -3.43795
99.3447 -11.5728 -0.422802
76.1978 5.93259 -1.12069
76.1466 5.91365 -1.12236
76.0969 5.89146 -1.12398
76.0526 5.86447 -1.12454
75.3613 4.50467 -1.20444
91.3146 -15.8245 -0.330068
91.8391 -15.3179 -0.47293
90.6552 -2.71984 -0.649016
88.7651 -7.24474 0.186412
88.7998 -7.23577 0.172238
88.8014 -7.2037 0.169783
88.7995 -7.19534 0.170668
85.252 -5.76966 0.433346
85.4812 -6.09357 0.574621
85.5434 -6.09651 0.569579
85.5597 -6.13093 0.587044
85.5363 -6.09652 0.568588
85.4417 -5.98211 0.483093
85.496 -6.08208 0.537435
85.4919 -6.08252 0.536447
85.4653 -6.04968 0.517017
85.4329 -6.00096 0.489371
85.4104 -5.97473 0.47303
85.3561 -5.89584 0.427986
85.3968 -5.97083 0.467993
85.3826 -5.95778 0.459827
85.3954 -5.9877 0.475233
85.3622 -5.9449 0.449671
85.3643 -6.06372 0.498349
85.4489 -6.19205 0.570053
85.3368 -6.1001 0.5049
84.9999 -8.73482 0.392495
87.5665 -8.64019 0.359715
87.5154 -8.58081 0.39495
87.5207 -8.57857 0.393911
-44.9713 9.42832 -2.75694
