ply
format ascii 1.0
element vertex 629
property float x
property float y
property float z
end_header
121.28 6.59908 3.19529
121.236 6.83785 3.19516
103.916 11.8554 2.66827
53.7243 15.468 1.34759
37.161 17.1352 1.40038
37.0893 17.1417 1.40149
36.1078 17.2846 1.41986
36.0363 17.283 1.42097
35.5418 15.4512 1.37527
35.4205 14.7177 1.35607
10.4155 20.6657 2.1321
18.5397 14.2668 1.77713
5.78153 20.1085 2.26362
-27.7064 30.6417 3.47768
-27.7641 30.3953 3.47698
1.78396 14.5269 2.31641
-2.98483 15.2484 2.48206
-5.93407 16.2217 2.59072
-16.7725 -15.4253 2.94391
14.962 -9.42964 1.79857
20.4419 -9.73029 1.61549
20.7149 -9.72541 1.60607
20.6103 -9.84225 1.61133
24.1794 -10.1599 1.49616
15.823 -14.81 1.8348
15.9072 -14.8811 1.83273
15.9428 -14.9732 1.83276
-4.75947 -27.2669 2.68663
-1.21984 -26.6466 2.56472
-0.864204 -26.6392 2.55317
26.4481 -15.7908 1.52446
59.5726 -19.2436 1.47698
66.7451 -19.5152 1.6483
109.141 -18.4334 2.87888
109.135 -18.3231 2.8778
109.156 -18.1132 2.87659
109.194 -17.907 2.87536
109.199 -17.6934 2.87417
109.23 -17.4865 2.87295
109.263 -17.2798 2.87272
109.301 -17.0746 2.87149
109.313 -16.9703 2.87139
109.364 -16.7675 2.87114
120.085 1.11755 2.66874
106.664 9.36854 2.34019
105.477 9.74592 2.31168
105.126 9.87573 2.3031
104.308 10.0087 2.28324
95.0782 15.4922 2.08665
44.4271 16.8114 1.2116
-4.87864 18.4947 2.2422
-0.286366 14.6437 2.08246
3.65199 -19.2188 2.01104
108.689 -18.4031 2.44554
108.739 -18.2012 2.4453
108.737 -18.0934 2.44421
108.768 -17.8874 2.44299
108.806 -17.6823 2.44276
108.835 -17.4761 2.44154
108.871 -17.2718 2.44131
108.888 -17.0624 2.44011
108.919 -16.8565 2.43989
108.857 -16.7355 2.43688
109.262 -16.6155 2.44616
121.199 -18.0714 2.75823
105.471 21.4024 2.08285
105.528 21.6438 2.08556
105.577 21.883 2.08829
105.622 22.1227 2.09102
105.057 11.0654 1.5482
89.5812 11.1207 1.3437
107.022 22.3018 1.61373
107.129 22.4557 1.61544
48.7385 63.0748 1.64101
48.5373 63.151 1.64225
45.9685 27.3696 1.13035
33.5407 19.8174 1.08063
79.2423 -17.485 1.24857
109.794 -25.1667 1.68357
118.807 -26.559 1.80703
108.601 -16.6595 1.6242
122.736 -14.6928 1.80604
122.617 -14.4221 1.80399
104.285 11.2054 1.22526
48.6473 63.5193 1.31177
48.4383 63.4816 1.31112
33.5269 19.8217 0.955644
24.0093 -10.5138 0.97472
73.5363 -20.282 1.02761
100.463 -20.4553 1.23479
122.688 -15.0341 1.4024
122.703 -14.533 1.40095
45.9932 27.5547 0.776152
45.3515 23.0599 0.766921
33.5914 19.835 0.785534
21.886 19.6405 0.825507
-28.5997 30.2241 1.04639
29.107 -16.1324 0.811705
31.8133 -16.4149 0.802825
41.772 -17.1946 0.776332
60.5973 -19.3576 0.774515
61.4105 -19.1845 0.775132
73.7633 -20.174 0.789173
77.343 -20.741 0.795205
106.891 -24.8366 0.843705
115.086 -26.109 0.858311
108.053 -18.3679 0.833479
108.038 -18.1522 0.833319
108.037 -17.94 0.833142
108.012 -17.8278 0.833086
108.044 -17.624 0.832865
108.073 -17.4199 0.832649
108.114 -17.2191 0.832417
108.17 -17.0208 0.832165
108.248 -16.8288 0.831884
109.673 -16.6256 0.833544
122.466 -14.8216 0.850559
107.389 22.7744 0.488775
58.994 15.0951 0.638885
50.7995 13.3988 0.661784
50.7461 13.4073 0.661858
50.6933 13.4128 0.661933
50.6436 13.428 0.661996
48.287 55.7261 0.565892
48.5426 63.0719 0.548305
48.105 64.5248 0.544745
45.2918 22.9705 0.649087
34.3218 18.4442 0.672596
21.7631 19.6401 0.677695
39.5154 -1.99706 0.709942
39.553 -2.01302 0.709898
79.53 -17.2521 0.609933
111.487 -25.4257 0.51821
108.078 -18.1345 0.525244
108.05 -17.9155 0.525101
108.048 -17.7032 0.524925
108.051 -17.5979 0.524832
108.3 -17.2356 0.524148
108.238 -16.7989 0.523874
108.398 -16.6255 0.523483
109.337 -16.5207 0.520967
113.262 8.6352 0.0477683
90.6901 9.37909 0.255483
91.3015 10.6227 0.246504
88.652 10.8802 0.270318
106.294 22.062 0.0730409
56.8388 17.8749 0.490818
56.855 18.0411 0.488653
45.0089 20.8733 0.509287
33.7337 19.5726 0.517539
71.8271 -20.0029 0.425974
109.152 -18.4644 0.0998873
108.913 -18.1874 0.102017
107.795 -17.4833 0.113124
107.935 -17.4124 0.111851
109.134 -17.2773 0.100913
109.268 -17.0951 0.100556
109.326 -16.4667 0.0999372
122.538 -14.7385 -0.020623
98.7835 3.50816 -0.140877
89.7164 8.64125 -0.0174132
105.898 21.969 -0.326278
105.794 22.0391 -0.325179
56.8375 17.7774 0.348902
56.8538 17.9436 0.345737
56.8643 18.1034 0.343586
33.8644 19.3418 0.372534
35.6077 15.6354 0.431009
1.04124 21.9527 0.0582694
103.619 -18.384 -0.225763
107.469 -18.8192 -0.284253
108.445 -18.8661 -0.299699
102.313 -5.44278 -0.587696
102.178 -5.34339 -0.584575
110.694 -0.554855 -0.778571
56.8973 17.9007 0.183707
56.9123 18.065 0.180545
47.9808 20.4514 0.209121
47.9454 20.4591 0.209168
45.7538 25.9813 0.0968428
45.0435 20.8332 0.210267
44.6793 18.4532 0.26283
41.7975 13.4899 0.370402
26.405 8.27666 0.28922
35.2551 -16.9479 0.364038
83.8573 -20.2067 -0.243159
84.0361 -20.1398 -0.246487
84.5213 -16.2631 -0.228496
86.6009 -16.345 -0.273591
98.1199 -14.2112 -0.512917
93.9458 -6.93131 -0.65571
94.0267 -6.78185 -0.656959
94.1253 -6.63523 -0.659232
94.1793 -6.48299 -0.660443
94.2322 -6.40905 -0.662586
94.2802 -6.25619 -0.663788
94.2375 -6.09593 -0.661858
94.2466 -5.94004 -0.662004
94.2488 -5.78343 -0.662139
94.3198 -5.63194 -0.663375
94.3499 -5.47722 -0.664551
94.369 -5.39977 -0.664646
94.441 -5.24739 -0.666884
94.4772 -5.0923 -0.66707
94.5394 -4.93889 -0.669294
90.5634 4.72452 -0.577398
90.5472 4.86896 -0.577495
88.0435 13.9745 -0.577369
56.8497 18.0051 0.0626911
52.4917 15.0275 0.193834
52.5093 15.2067 0.189656
46.1704 28.9761 -0.128318
45.7788 26.438 -0.0585808
44.9498 20.6971 0.0975247
44.6989 18.7697 0.150533
44.634 18.2798 0.163045
36.0023 25.154 -0.043623
89.3331 -15.1706 -0.564739
91.3685 -13.1759 -0.606519
92.8096 -11.6966 -0.63896
91.5804 -11.2183 -0.603493
92.5687 -11.2564 -0.629965
93.2838 -9.74002 -0.644332
93.2494 -9.5776 -0.642417
93.5307 -8.21133 -0.646998
93.9904 -7.24859 -0.65751
93.8702 -7.0793 -0.65347
86.9528 -6.23985 -0.714653
86.9497 -6.10481 -0.713763
86.9942 -5.97572 -0.714939
87.0907 -5.84999 -0.718192
87.1423 -5.72062 -0.71938
87.1921 -5.65742 -0.721509
87.2716 -5.52994 -0.723738
87.3324 -5.39951 -0.72494
87.3553 -5.26616 -0.726088
87.3552 -5.13143 -0.726201
87.4189 -5.00131 -0.727408
87.4378 -4.86755 -0.728549
87.4927 -4.80386 -0.729687
87.5456 -4.67162 -0.731879
87.5694 -4.53837 -0.732027
87.6274 -4.40564 -0.734228
87.6623 -4.27253 -0.735393
87.7203 -4.1398 -0.736593
87.7783 -4.00707 -0.738793
87.7913 -3.94005 -0.73887
87.8213 -3.80543 -0.740029
87.8213 -3.66971 -0.740144
88.1834 -2.79439 -0.751433
88.304 -2.6591 -0.755731
88.4356 -2.52395 -0.760045
88.5553 -2.38757 -0.764342
88.6821 -2.25091 -0.76865
88.809 -2.11326 -0.772959
88.9187 -2.0442 -0.777185
89.0729 -1.90436 -0.782537
89.223 -1.7651 -0.786883
89.3875 -1.6233 -0.793253
89.5248 -1.48171 -0.797582
89.6884 -1.33882 -0.803951
89.8381 -1.19448 -0.808301
89.9854 -1.12128 -0.813586
90.1222 -0.975604 -0.818917
90.2429 -0.829272 -0.823225
90.4049 -0.682194 -0.828595
90.561 -0.533503 -0.833958
90.8 -0.381331 -0.84245
90.9029 -0.232149 -0.845733
91.0639 -0.153328 -0.852044
91.1912 -0.0016468 -0.856366
91.3034 0.149591 -0.860664
91.4661 0.303631 -0.866042
92.1886 0.863114 -0.891613
92.3751 1.02373 -0.898032
92.6388 1.19144 -0.907575
92.6242 1.34174 -0.90768
93.2326 1.53706 -0.92877
93.9172 1.74055 -0.951983
93.6872 1.879 -0.94475
93.4012 2.24243 -0.936622
93.4853 2.40461 -0.939887
93.535 2.56334 -0.942096
90.1456 4.6449 -0.838695
72.9272 3.71839 -0.263716
78.8795 10.4213 -0.520428
52.5145 15.1326 0.0797104
52.5414 15.3339 0.0724996
52.5592 15.5161 0.0673188
46.2417 29.5114 -0.329879
45.7442 25.796 -0.205987
45.0053 20.8078 -0.0406534
44.6776 18.4883 0.0358024
27.428 -16.1803 0.0302984
70.5017 -20.0734 -0.326951
86.1533 -10.7726 -0.706613
86.0511 -8.59644 -0.692293
86.0933 -8.47012 -0.693464
86.1575 -8.34607 -0.694666
86.2464 -8.29296 -0.697846
86.3115 -8.16901 -0.69905
86.3589 -8.04222 -0.700229
86.3834 -7.91205 -0.700376
86.3901 -7.77904 -0.700499
86.4147 -7.64888 -0.700646
86.4065 -7.51432 -0.699747
86.45 -7.38611 -0.700921
86.4736 -7.32321 -0.70201
86.5319 -7.19656 -0.703206
86.636 -7.07564 -0.706466
86.7728 -6.95812 -0.710774
86.9116 -6.84081 -0.715084
86.9781 -6.71299 -0.716293
87.0247 -6.5841 -0.717472
87.0356 -6.51787 -0.717545
87.0305 -6.38262 -0.717651
87.1335 3.9676 -1.01654
87.1264 4.10305 -1.01665
87.0836 4.23316 -1.01569
74.5867 9.85067 -0.589415
58.831 5.80885 0.0559671
68.5364 13.2627 -0.434089
68.6439 13.4365 -0.441399
52.4986 15.0588 -0.0412033
46.1587 28.995 -0.515317
45.6872 25.4811 -0.375634
44.976 20.6438 -0.183471
44.69 18.7261 -0.107417
-19.0626 -13.7982 -1.68398
78.3002 -3.19687 -0.841057
78.3147 -3.14408 -0.842123
78.3317 -3.03827 -0.843239
78.3395 -2.93352 -0.843339
78.3545 -2.82751 -0.843451
78.3745 -2.722 -0.844571
78.3854 -2.61657 -0.844676
78.3734 -2.50976 -0.844748
78.3558 -2.45666 -0.843766
78.3336 -2.3508 -0.842821
78.3164 -2.24447 -0.841885
78.3214 -2.13842 -0.841982
78.3122 -2.03291 -0.842057
78.3383 -1.92703 -0.843186
78.3533 -1.82101 -0.844298
78.5267 -1.66104 -0.851697
78.6615 -1.55337 -0.858993
78.7743 -1.44443 -0.864257
78.8841 -1.33517 -0.869516
78.9497 -1.22635 -0.872708
79.0133 -1.11733 -0.875896
79.0628 -1.00786 -0.878064
79.1531 -0.951864 -0.882249
79.2229 -0.840474 -0.885449
79.3472 -0.72769 -0.891733
79.4655 -0.614287 -0.897009
80.0172 -0.0924013 -0.924289
80.1279 0.0248106 -0.929556
67.5675 4.15506 -0.38793
67.5788 4.23532 -0.390015
67.556 4.30605 -0.39004
74.8963 9.83347 -0.792872
74.6189 9.83407 -0.781451
46.8287 33.9329 -0.925503
45.7621 25.8672 -0.556075
45.0187 20.8242 -0.325688
44.6888 18.4839 -0.219211
-23.0559 -8.45562 -2.20941
62.6648 -19.1618 -0.414797
62.7409 -19.1265 -0.415943
63.2938 -18.9415 -0.42994
63.3884 -18.9212 -0.432101
63.463 -18.8806 -0.434249
63.5394 -18.8423 -0.435398
63.5955 -18.7858 -0.435531
63.6328 -18.7655 -0.436605
63.6825 -18.7033 -0.436733
64.4262 -18.337 -0.452173
64.6234 -18.2378 -0.456557
64.9136 -17.9502 -0.459241
64.8603 -17.8049 -0.453283
77.9807 -7.15301 -0.840233
77.9975 -7.04919 -0.840346
78.0193 -6.94488 -0.840467
75.038 -4.37793 -0.869097
75.0619 -4.28289 -0.869214
76.9268 0.656091 -0.971218
77.0044 0.764666 -0.975428
77.7936 1.72539 -1.02144
77.8637 1.83877 -1.02564
77.9953 2.01312 -1.03399
78.2265 2.36213 -1.04764
78.3234 2.48278 -1.05388
78.4204 2.60342 -1.06013
78.5301 2.67248 -1.06636
78.62 2.79285 -1.0716
78.7519 2.92093 -1.07891
76.6021 9.57298 -1.05725
74.9718 9.79831 -0.981958
74.7448 9.81983 -0.971631
67.2291 13.4089 -0.712224
56.0749 5.86417 -0.0128865
46.254 29.2311 -0.889662
45.723 25.5987 -0.701789
45.0018 20.663 -0.448526
44.6806 18.3871 -0.331117
44.1997 14.1121 -0.112778
-11.6187 -8.00901 -2.04319
71.7897 -10.6655 -0.75885
74.1299 -9.11455 -0.855719
74.0352 8.86273 -1.11874
74.0141 8.96042 -1.11879
73.992 9.05722 -1.11984
73.9949 9.16348 -1.12194
73.9268 9.24293 -1.1199
73.7978 9.29852 -1.11475
46.321 29.7256 -1.11618
45.0551 20.8011 -0.599724
-3.90249 -6.15644 -1.97149
45.2488 -12.2251 0.130848
45.2803 -12.2032 0.132782
45.2958 -12.1988 0.132754
59.0511 -17.6996 -0.509533
59.1173 -17.6723 -0.511657
59.1012 -17.556 -0.505731
70.7244 -7.0716 -0.832261
69.0815 3.56033 -0.885733
72.0044 8.20452 -1.1491
71.9554 8.284 -1.14809
71.8947 8.35865 -1.14706
71.8719 8.44848 -1.1471
71.7986 8.51741 -1.14405
71.7464 8.5962 -1.14304
68.5849 13.255 -1.09716
46.2178 29.5079 -1.27084
46.1138 28.3576 -1.19871
45.3142 23.1989 -0.872142
45.0032 20.8355 -0.723675
69.9914 6.9312 -1.18896
69.9774 6.97085 -1.18897
69.9494 7.05015 -1.189
69.8165 7.27104 -1.18498
69.8064 7.35754 -1.18704
69.7596 7.42975 -1.18503
69.7602 7.47492 -1.18707
69.7271 7.55276 -1.18608
69.6855 7.62744 -1.18508
69.6346 7.69807 -1.18407
64.7444 10.6139 -0.967086
57.4113 11.2194 -0.587439
46.3317 29.9211 -1.51936
46.1874 29.0716 -1.45943
45.3815 23.3455 -1.05837
45.0571 20.9795 -0.891878
66.2889 -7.555 -0.861105
68.9168 3.43938 -1.16938
68.3888 7.24102 -1.21578
46.6967 32.5462 -1.87413
46.2704 29.5162 -1.64593
45.3556 23.1752 -1.16919
45.0864 21.3322 -1.03122
45.0053 20.8209 -0.992666
63.7398 -11.5666 -0.891842
29.828 18.2986 -1.30345
55.256 -15.4265 -0.677677
55.2036 -15.2723 -0.664728
55.3608 -15.3851 -0.679872
55.4061 -15.3556 -0.680966
55.2235 -14.7515 -0.634197
64.3063 -2.05248 -1.01573
64.2946 -1.99094 -1.01477
64.2938 -1.9597 -1.01479
64.3062 -1.89865 -1.01586
64.2956 -1.83622 -1.0159
64.302 -1.77455 -1.01596
64.2932 -1.71332 -1.015
64.2915 -1.65182 -1.01505
64.299 -1.58926 -1.01611
64.3081 -1.24939 -1.01841
64.3188 -1.15599 -1.01951
59.4906 14.5582 -1.24042
45.9175 26.7436 -1.79105
45.3677 23.1897 -1.47922
45.1337 21.3371 -1.3183
45.0516 20.845 -1.27476
44.7572 18.9333 -1.1087
44.6918 18.5531 -1.07528
56.9038 11.2856 -0.983723
56.9313 11.3572 -0.989826
46.1156 24.7355 -1.77666
46.0329 24.7522 -1.77755
45.9503 24.7899 -1.78045
45.8684 24.8335 -1.78437
45.7041 24.927 -1.79219
45.5422 23.9546 -1.70113
45.4405 23.3117 -1.64043
45.2472 22.0269 -1.52105
45.1579 21.4169 -1.4644
45.0752 20.9389 -1.41887
45.0298 20.442 -1.37338
44.7385 18.5793 -1.19937
62.7255 2.33068 -1.15303
63.4812 4.96769 -1.3024
56.828 11.1858 -1.08552
46.0586 21.7386 -1.64904
45.8741 21.7728 -1.65179
45.7268 21.8162 -1.6546
45.6534 21.8449 -1.65752
45.5788 21.8627 -1.65842
45.5047 21.8945 -1.66133
45.3926 21.8991 -1.66117
45.2447 21.9566 -1.66599
45.1649 21.7397 -1.64469
45.0795 21.1183 -1.58203
44.9996 20.6279 -1.5335
44.9224 20.066 -1.4779
44.8843 19.708 -1.44254
44.7447 18.7675 -1.34854
44.6798 18.4415 -1.31616
52.7257 -13.0872 -0.651801
59.1783 -8.02757 -0.860888
56.5096 11.2097 -1.17506
45.3487 19.9814 -1.60548
45.2802 20.0187 -1.60941
45.2458 20.0263 -1.61036
45.178 20.0413 -1.61127
45.1079 20.0054 -1.60713
45.0396 20.0446 -1.61106
44.9696 19.9996 -1.60592
44.8987 19.8099 -1.58565
52.6068 -12.5843 -0.687045
52.652 -12.5749 -0.689122
52.7184 -12.5939 -0.695207
48.1302 13.4706 -1.06822
47.6628 15.2782 -1.25503
44.8021 16.6342 -1.37382
44.6854 16.779 -1.38977
55.8529 -9.66262 -0.979449
55.1513 9.00978 -1.37014
55.121 9.0471 -1.37112
55.0715 9.0643 -1.36806
55.0412 9.10162 -1.36905
55.0058 9.09926 -1.36499
54.9698 9.13014 -1.36496
54.9258 9.15179 -1.36291
54.8898 9.18267 -1.36289
54.8629 9.22366 -1.36388
54.7214 9.13881 -1.34259
54.7841 9.27907 -1.36281
49.0661 13.0384 -1.42428
49.0223 13.0621 -1.42523
42.6717 7.31894 -0.579722
54.5675 8.57565 -1.36988
54.5266 8.59799 -1.36884
54.4857 8.62033 -1.3668
54.4538 8.65278 -1.36677
54.4341 8.66588 -1.36676
54.3931 8.68723 -1.36471
54.3477 8.70501 -1.36166
54.2864 8.24989 -1.37218
54.2476 8.27301 -1.37014
54.2088 8.29614 -1.3691
54.1721 8.32105 -1.36807
54.1434 8.35419 -1.36805
54.128 8.37086 -1.36904
53.9949 8.28916 -1.34677
54.0242 8.38766 -1.3599
34.5685 10.8851 -1.6764
53.9063 8.20175 -1.42656
45.4688 7.30527 -0.854967
45.4392 7.3013 -0.853919
45.3926 7.08398 -0.818664
54.3159 1.44887 -1.11749
54.3105 1.46451 -1.11749
45.9114 9.46961 -1.42147
45.8754 9.47133 -1.42041
45.8381 9.46013 -1.41835
45.8213 9.47292 -1.42033
45.7841 9.46271 -1.41727
45.7491 9.47438 -1.41922
45.7108 9.45422 -1.41415
45.6758 9.46589 -1.41611
45.7454 9.01229 -1.41783
45.7106 9.0159 -1.41778
45.677 9.02139 -1.41873
45.6585 9.01728 -1.4177
45.7752 8.48442 -1.41343
45.7425 8.48981 -1.41438
45.7105 8.50117 -1.41534
45.6781 8.50855 -1.4163
45.6464 8.52289 -1.41827
45.6132 8.52231 -1.41721
45.5815 8.53665 -1.42018
45.5638 8.52139 -1.41614
45.5314 8.53783 -1.4191
45.4988 8.54421 -1.42006
45.4659 8.54662 -1.42001
45.4334 8.553 -1.42097
45.3991 8.54248 -1.41791
45.3656 8.52887 -1.41484
45.3486 8.52963 -1.41482
45.3144 8.501 -1.40874
43.6286 -0.420486 -0.134648
43.4759 -3.33023 -0.12596
116.5 -10.412 -29.9981
70.7225 2.22518 -10.8161
43.8394 -0.706621 -0.0157267
43.7553 -0.859727 0.0165306
43.909 -0.704785 -0.0198341
43.9381 -0.76407 0.00917174
43.9176 -0.73784 -0.00581936
43.7718 -0.552939 -0.128754
43.8786 -0.725784 -0.0357702
43.8609 -0.702846 -0.0487626
43.848 -0.691463 -0.0567526
43.8133 -0.647677 -0.0817367
43.7785 -0.604885 -0.10672
43.735 -0.548138 -0.138702
43.7621 -0.598165 -0.113701
43.7447 -0.581296 -0.124688
43.76 -0.608006 -0.109689
43.7452 -0.595423 -0.118677
43.5728 -0.356504 -0.252617
43.8142 -0.804547 -0.0216057
43.7285 -0.757507 -0.0625151
43.4979 -3.35974 -0.208969
46.0739 -3.11398 -0.224095
45.9835 -3.1227 -0.213951
45.998 -3.12823 -0.220968
1.15033e-41 0 -8.84528e-30
