ply
format ascii 1.0
element vertex 855
property float x
property float y
property float z
end_header
96.4962 12.9363 2.08522
96.6734 13.2004 2.09571
96.4303 13.1209 2.08736
90.2803 8.72009 1.83251
91.0412 29.319 2.33508
92.6115 41.8622 2.70167
92.5187 42.0628 2.70568
92.3606 42.1012 2.70412
92.3294 50.1308 2.92925
92.0482 49.8678 2.91849
91.9853 49.969 2.92094
74.8221 10.5796 1.59193
56.5865 15.0937 1.8872
52.7921 14.3514 1.94898
44.5596 17.6659 2.19802
26.1227 18.7151 2.69162
15.9766 13.1301 2.93165
9.15985 13.2285 3.13435
0.922972 12.6806 3.37871
23.2632 -10.6967 2.70123
20.8553 -13.6417 2.79983
-3.87458 -18.8009 3.60691
3.12355 -18.0638 3.38459
43.8311 -11.2852 2.07153
43.8174 -11.3852 2.07286
43.1642 -17.8466 2.17912
44.2471 -17.7339 2.14555
44.4244 -17.9307 2.14375
26.9932 -27.9497 2.81207
9.94226 -38.8826 3.48878
35.8064 -26.2797 2.53806
53.0031 -19.7889 1.94821
45.2054 -33.9179 2.49013
46.7975 -32.5005 2.41706
46.9436 -32.524 2.41453
47.1888 -32.4448 2.40688
47.226 -32.5766 2.41047
136.043 -54.6412 4.13006
135.752 -49.1126 3.98977
139.216 -38.2459 3.87056
131.159 -29.7501 3.44983
135.871 -20.9685 3.48765
135.828 -20.8541 3.48511
135.855 -20.4478 3.48067
135.854 -20.0353 3.47614
135.88 -19.8348 3.47546
135.886 -19.6305 3.47272
149.864 18.3411 3.4056
149.615 18.5252 3.39926
117.944 53.1091 3.0186
96.7481 27.7614 2.15087
96.3422 32.6931 2.24051
92.636 41.7807 2.37604
92.4327 41.7044 2.37178
92.5297 42.3856 2.38851
92.8167 50.7777 2.57713
92.4257 50.2003 2.55924
92.2091 50.1361 2.55591
74.8561 10.6026 1.48894
71.4663 13.1787 1.54446
21.0522 -11.0358 2.43667
4.13757 -17.3431 2.89957
24.947 -38.0095 2.70101
24.8203 -38.2042 2.7074
25.1362 -38.2142 2.70127
25.2942 -38.3294 2.70011
24.8008 -38.8875 2.72089
25.5406 -38.6061 2.70079
46.8618 -32.0681 2.16462
46.9016 -32.1962 2.1662
46.9535 -32.311 2.16876
47.0192 -32.4136 2.16932
45.353 -34.2669 2.24081
45.1614 -34.642 2.2527
137.483 -37.4877 3.34718
134.232 -21.2488 3.03637
134.252 -21.0506 3.03469
134.192 -20.8336 3.03072
134.179 -20.6275 3.02792
134.222 -20.4368 3.02733
134.193 -20.3295 3.02586
134.22 -20.1343 3.0242
134.226 -19.935 3.02248
135.418 -19.4005 3.05263
146.358 -19.7107 3.37857
137.638 7.68446 2.70697
105.997 18.5955 2.01422
98.7631 35.341 2.10705
95.7941 50.7984 2.32788
92.4344 50.0536 2.27981
92.2642 50.1271 2.28009
74.8549 10.5509 1.41212
135.067 -19.1771 2.74388
149.717 17.1365 2.42267
149.656 17.5093 2.42113
149.668 17.7734 2.42218
149.532 17.9934 2.42001
98.6321 34.2623 1.7327
91.0631 32.8864 1.64489
92.9745 42.2211 1.75729
92.1415 40.5746 1.7332
95.7587 50.1208 1.8623
92.4594 49.7674 1.83293
92.3641 49.7723 1.83166
92.2182 49.914 1.83275
74.8455 10.5054 1.28827
140.201 -21.7802 2.37604
140.424 -21.169 2.37536
133.681 -19.4927 2.2454
149.804 17.0617 2.01717
149.713 17.2944 2.01607
149.71 17.5546 2.0161
149.547 17.7656 2.01389
97.2788 12.5169 1.39483
89.7095 9.15089 1.3064
95.3315 38.7468 1.49038
95.2923 39.0235 1.49125
92.3521 39.8495 1.47545
92.241 39.7809 1.47441
92.712 42.2174 1.49161
91.4467 39.4447 1.46756
91.2799 40.2839 1.47201
91.7512 41.7379 1.48286
91.1533 40.6057 1.47248
90.8905 40.3441 1.46976
74.8784 10.8308 1.20814
93.6591 -19.4889 1.44907
93.7172 -19.4368 1.44903
138.772 -21.6321 2.00673
97.3225 12.6725 1.18736
92.2365 39.4954 1.13345
91.4467 37.9649 1.13205
91.3215 38.048 1.13141
96.3011 50.6118 1.1409
91.0068 37.8597 1.13029
90.8491 37.8596 1.12987
90.7041 37.891 1.12937
90.6276 38.0994 1.1284
91.137 39.8338 1.1293
91.0655 40.0757 1.12922
90.9901 40.0929 1.12895
90.7469 39.882 1.1281
91.0787 41.2119 1.12804
74.9056 10.8345 1.0932
148.732 -30.8154 1.63901
135.851 -21.7979 1.52465
138.714 -21.1349 1.53872
153.217 -0.72705 1.16615
153.163 -0.479633 1.16509
108.957 10.4447 1.07124
98.4101 28.7293 0.970643
99.8592 38.7662 0.923212
93.5205 30.8301 0.950982
95.0567 38.4871 0.915611
92.1688 38.9467 0.907307
92.3782 39.8559 0.902484
92.0667 39.9097 0.901465
91.2232 38.2133 0.90854
91.0389 38.1494 0.909293
90.9013 38.0039 0.909471
90.7628 38.0515 0.908929
90.6412 38.1462 0.908258
90.6113 38.479 0.905944
91.0657 40.0931 0.89915
90.2123 38.2607 0.906705
90.5632 39.6242 0.900568
90.4958 39.6604 0.900257
90.3204 39.6224 0.899936
74.9902 11.5394 1.01181
74.8868 10.8492 1.0151
93.7228 -19.2677 1.16441
133.64 -20.3956 1.21563
133.619 -20.1905 1.21481
133.634 -19.9955 1.21413
133.625 -19.8933 1.21373
133.612 -19.6911 1.21294
133.577 -19.4849 1.21208
153 -0.691858 0.661448
153.436 0.46819 0.654289
152.751 1.54104 0.653507
151.313 3.26035 0.653343
98.2138 11.3367 0.864663
98.634 32.9516 0.658561
97.3881 31.282 0.677479
96.8732 32.153 0.669892
94.4639 37.5483 0.615532
91.8458 38.1037 0.610582
92.3777 39.7842 0.591746
92.2579 39.8978 0.591009
91.3093 37.9672 0.612677
91.2224 38.1467 0.609782
90.7425 37.7351 0.615047
90.6755 37.9673 0.612009
90.567 37.8892 0.613013
90.4286 37.9379 0.612469
90.2197 38.2152 0.60989
90.0982 38.3098 0.608219
90.2325 39.0936 0.599664
78.3348 16.0781 0.854764
78.2646 16.0823 0.854564
78.1954 16.0925 0.854344
78.1307 16.1202 0.854071
75.1002 12.2031 0.894633
75.0013 11.6537 0.901411
74.8935 10.9337 0.908799
140.127 -29.4692 0.804361
148.23 -30.6797 0.767171
138.154 -22.9704 0.806054
133.15 -21.0184 0.827646
133.099 -20.9058 0.827093
133.095 -20.7061 0.827341
133.091 -20.5064 0.82659
133.117 -20.3141 0.825945
133.185 -19.7378 0.824984
133.236 -19.6503 0.824795
133.53 -19.5217 0.82309
135.374 -19.1377 0.812518
145.729 -3.1132 0.267298
140.294 -2.35809 0.326196
138.939 -2.21861 0.341113
153.135 2.53613 0.156821
109.272 44.6592 0.142103
98.0245 38.4554 0.292531
97.8848 38.5295 0.291889
94.1114 36.7046 0.335732
97.2135 51.1302 0.0883629
91.6276 38.0296 0.32228
91.5269 38.1768 0.319469
92.0338 39.6245 0.29443
91.6385 39.0529 0.304511
91.2333 38.4413 0.315715
90.9495 38.1262 0.322137
90.7845 38.111 0.322759
90.5784 37.9877 0.325675
90.4561 38.0774 0.32402
90.4229 38.1955 0.322495
90.2782 38.2289 0.32199
90.0261 37.9779 0.326258
89.8721 37.9823 0.326836
90.0649 38.9303 0.310826
78.3114 16.0608 0.718766
78.2446 16.0808 0.718516
78.1733 16.0771 0.719342
75.0949 12.2126 0.784582
74.8775 10.7265 0.810525
64.2776 -5.49891 0.940843
93.8784 -19.233 0.85969
93.9239 -19.1709 0.859579
130.397 -28.0531 0.475501
132.169 -27.8031 0.457236
138.361 -26.5014 0.392697
129.937 -23.2927 0.484626
130.098 -22.9556 0.4828
132.085 -23.3657 0.461549
132.742 -23.3632 0.454269
133.681 -23.4405 0.444026
133.768 -23.3634 0.442969
135.283 -23.3909 0.427058
134.101 -21.1128 0.439493
132.85 -20.5935 0.453275
132.917 -20.5113 0.452145
133.697 -19.5111 0.443488
133.797 -19.4349 0.442469
135.216 -19.1521 0.42715
138.373 -10.9555 -0.0739622
138.608 -10.4624 -0.079173
150.619 3.29924 -0.356637
147.926 4.173 -0.313964
120.306 1.52358 0.2052
114.331 5.14768 0.283031
118.679 7.58638 0.183421
97.9615 38.2735 -0.0529633
92.8988 40.6272 -0.073018
97.082 51.1825 -0.339181
96.9004 51.2466 -0.339897
91.3804 38.1356 -0.00776714
92.4258 41.1363 -0.0821519
91.4073 38.7997 -0.0231609
90.8294 37.7496 0.00421549
90.7278 37.8899 0.00142748
90.7327 38.3086 -0.00811333
90.572 38.3019 -0.0075112
90.3293 38.0808 -0.00132948
90.2026 38.1611 -0.00196063
90.0804 38.0446 0.0011499
89.9188 38.032 0.00177176
78.3032 16.0908 0.563631
78.2368 16.1137 0.563371
117.863 -25.5799 0.271342
118.035 -25.49 0.26846
118.21 -25.4006 0.265592
118.355 -25.2975 0.264589
118.607 -25.2405 0.260041
118.831 -25.1704 0.257372
118.835 -25.087 0.25707
119.156 -25.0575 0.251807
122.881 -24.1403 0.193204
123.046 -24.026 0.191213
123.361 -23.9661 0.18582
123.483 -21.3016 0.191255
127.794 -21.4579 0.116175
128.419 -11.9993 -0.172281
129.801 -9.31681 -0.207597
129.657 -9.21879 -0.205341
129.613 -9.03943 -0.204123
136.1 1.973 -0.405918
135.764 2.13063 -0.399388
135.354 2.17767 -0.390641
109.306 9.86163 0.121314
88.8399 10.3008 0.504839
88.7627 10.3193 0.506568
88.6817 10.2837 0.508487
98.0835 42.2134 -0.416266
94.9984 42.5282 -0.397551
97.4068 51.0751 -0.652931
92.9539 40.8315 -0.335634
92.7927 40.8552 -0.335146
92.3347 40.1463 -0.31172
90.9822 37.2089 -0.220379
90.8631 37.2992 -0.222027
90.8202 37.5855 -0.229202
90.9672 38.1591 -0.246944
90.6929 37.8609 -0.236559
90.6002 38.0281 -0.240423
90.469 38.0979 -0.242028
90.4264 38.3993 -0.249258
90.317 38.5285 -0.253026
90.2583 38.7959 -0.260172
90.1682 38.9809 -0.264096
78.3602 16.4489 0.439451
74.0964 15.9292 0.457161
74.0284 15.9482 0.455911
112.382 -23.5917 0.152542
121.542 -17.5746 -0.0186852
121.632 -17.4372 -0.0209584
121.9 -17.3421 -0.026607
122.102 -17.2303 -0.0304893
122.386 -17.1376 -0.0370875
133.569 -19.5868 -0.297576
123.294 -16.0431 -0.0557579
123.435 -15.0166 -0.0571966
127.081 -14.5812 -0.141219
120.285 -12.4098 -0.26316
120.28 -12.3343 -0.262454
120.248 -12.181 -0.261107
120.245 -12.0309 -0.261672
120.252 -11.8835 -0.2612
120.336 -11.7452 -0.263492
120.47 -11.6142 -0.267626
120.649 -11.487 -0.272627
120.705 -11.4195 -0.274729
120.722 -11.2713 -0.275235
120.708 -11.1196 -0.274834
120.709 -10.9702 -0.274387
120.672 -10.8171 -0.273053
120.624 -10.6626 -0.27175
120.664 -10.5169 -0.273187
120.698 -10.446 -0.274361
120.726 -10.2996 -0.274829
120.799 -10.1576 -0.277165
120.821 -10.0104 -0.277652
120.889 -9.86765 -0.280004
120.88 -9.7177 -0.279585
120.904 -9.56974 -0.281069
120.907 -9.42054 -0.280616
120.935 -9.34881 -0.281809
120.956 -9.2014 -0.283299
121.001 -9.05535 -0.284723
121.048 -8.9086 -0.286145
121.122 -8.76479 -0.288484
121.159 -8.61772 -0.289931
121.173 -8.46815 -0.290449
121.193 -8.39526 -0.290667
121.242 -8.24782 -0.293086
121.222 -8.09726 -0.292698
121.175 -7.9449 -0.291385
121.119 -7.79307 -0.290097
121.227 -7.64826 -0.29335
121.333 -7.50317 -0.296609
121.475 -7.43403 -0.301493
121.609 -7.28806 -0.305681
121.947 -6.99711 -0.315871
122.261 -6.70154 -0.326144
122.408 -6.55138 -0.331313
122.563 -6.47819 -0.336176
122.748 -6.32748 -0.342249
122.894 -6.17505 -0.346431
123.169 -5.86772 -0.355849
123.653 -5.47809 -0.371019
123.715 -5.32136 -0.373439
123.882 -5.16295 -0.379588
124.064 -5.00275 -0.385703
124.229 -4.84205 -0.390865
124.33 -4.68209 -0.394192
124.418 -4.52109 -0.39756
124.493 -4.43923 -0.400664
124.61 -4.27749 -0.404957
124.731 -4.11337 -0.409248
124.86 -3.94942 -0.413516
124.977 -3.78457 -0.417822
125.099 -3.61862 -0.422116
125.25 -3.4508 -0.427341
125.395 -3.28211 -0.432586
125.593 -3.19084 -0.438405
125.789 -3.01854 -0.445528
126.188 -2.83363 -0.458164
126.552 -2.64857 -0.469894
127.33 -2.09793 -0.495889
127.895 -1.12074 -0.518029
127.52 -0.980769 -0.507534
128.073 -0.847672 -0.524575
130.068 0.218456 -0.590282
129.067 0.291811 -0.562187
88.6865 10.2653 0.378566
88.6846 10.3626 0.3762
88.6407 10.3661 0.377071
88.2558 12.2246 0.332162
97.8098 38.1646 -0.601964
96.98 39.9874 -0.649912
92.7922 37.3039 -0.514972
91.7215 36.491 -0.477772
97.3438 51.065 -1.01706
92.5858 40.0811 -0.604821
91.4465 37.5218 -0.509321
91.2974 37.5458 -0.508802
91.189 37.6678 -0.51154
92.1746 40.5155 -0.615515
90.5206 37.1707 -0.488454
90.6105 37.7962 -0.510539
90.758 38.3799 -0.531317
90.4962 38.1122 -0.520012
78.3355 16.0782 0.31876
78.2659 16.0864 0.319547
78.1942 16.0868 0.319357
78.1326 16.1282 0.318041
74.0771 15.9053 0.329197
74.0093 15.9183 0.328971
73.942 15.9211 0.328783
61.5481 13.847 0.258868
104.597 -23.2398 0.103753
104.707 -23.2377 0.101034
104.828 -23.1776 0.0991293
102.716 -21.5038 0.172363
103.265 -21.6845 0.156477
108.464 -22.112 0.0167403
108.552 -22.0198 0.0156308
108.653 -21.9335 0.0135754
105.505 -20.1549 0.114696
104.994 -19.8018 0.131041
116.041 -15.65 -0.148303
116.064 -15.5151 -0.147741
120.182 -13.2922 -0.261158
120.277 -13.1586 -0.263402
120.253 -13.0045 -0.262037
120.316 -12.8642 -0.264391
120.305 -12.713 -0.263982
120.311 -12.5632 -0.263522
114.248 -11.4314 -0.354675
114.227 -11.299 -0.354221
114.224 -11.2338 -0.353473
114.216 -11.1032 -0.352979
114.189 -10.9699 -0.351544
114.196 -10.8416 -0.352
114.315 -10.7267 -0.356113
114.462 -10.6159 -0.361139
114.272 -9.75311 -0.353839
114.267 -9.62397 -0.353332
114.266 -9.49541 -0.353813
114.254 -9.43003 -0.353086
114.276 -9.30284 -0.354501
114.308 -9.1771 -0.354884
114.312 -9.04941 -0.355346
114.299 -8.9201 -0.354861
114.288 -8.79008 -0.354373
114.265 -8.66045 -0.353913
114.215 -8.59236 -0.352299
114.219 -8.46467 -0.35276
114.257 -8.33981 -0.354125
114.264 -8.21256 -0.354577
114.273 -8.08447 -0.355029
114.272 -7.95704 -0.355504
114.278 -7.8295 -0.355962
114.301 -7.76723 -0.356132
114.32 -7.6396 -0.357556
114.32 -7.51218 -0.35803
114.3 -7.38298 -0.357561
114.286 -7.25451 -0.357076
114.294 -7.12741 -0.357525
114.248 -6.99824 -0.356127
114.359 -6.68205 -0.361008
114.43 -6.55605 -0.363288
114.554 -6.43083 -0.368425
114.701 -6.30486 -0.374506
114.823 -6.17723 -0.378659
114.931 -6.11432 -0.383608
115.084 -5.9861 -0.388683
115.187 -5.85669 -0.392893
115.305 -5.72651 -0.398065
115.457 -5.59631 -0.404147
115.603 -5.46411 -0.409254
115.72 -5.33165 -0.414439
115.891 -5.19814 -0.420484
116.008 -5.13046 -0.425427
116.106 -4.99637 -0.429665
116.276 -4.86059 -0.435723
116.358 -4.72502 -0.440011
116.49 -4.58781 -0.445172
116.611 -4.45 -0.450364
116.807 -4.30895 -0.457373
116.79 -4.24185 -0.457665
117.062 -4.09687 -0.467488
117.303 -3.95134 -0.477394
117.388 -3.81012 -0.480696
118.26 -3.0025 -0.517397
118.531 -2.84521 -0.527268
118.734 -2.69105 -0.536308
118.885 -2.53851 -0.542474
119.027 -2.38551 -0.548669
119.2 -2.30178 -0.554525
119.361 -2.14546 -0.561682
119.553 -1.98673 -0.569766
119.683 -1.83099 -0.575002
119.936 -1.66401 -0.585956
120.313 -1.33647 -0.601178
120.474 -1.24789 -0.608084
120.646 -1.08313 -0.615243
118.695 0.232535 -0.556257
109.481 2.28139 -0.251101
111.644 9.14947 -0.427898
106.748 8.51777 -0.254432
96.3589 27.8481 -0.5255
92.5461 24.0859 -0.31957
95.4758 42.8257 -1.07241
91.7085 37.1044 -0.801085
91.3012 36.5063 -0.772938
91.1001 37.7374 -0.819036
91.0935 38.1184 -0.833467
90.9991 38.2808 -0.839318
90.3014 37.7012 -0.808003
78.2504 16.4793 0.157046
74.0548 15.9435 0.186996
73.9877 15.9543 0.186779
73.9199 15.9673 0.185552
73.8523 15.9752 0.185345
64.4825 14.6992 0.137426
112.399 -15.1449 -0.303761
112.639 -15.1388 -0.312151
112.72 -15.0294 -0.314344
112.751 -14.9067 -0.314718
112.745 -14.7754 -0.313221
112.72 -14.6402 -0.31179
111.62 -12.8917 -0.266171
114.33 -12.5552 -0.36029
114.283 -12.4159 -0.357932
114.32 -12.291 -0.359296
114.349 -12.1648 -0.359689
114.367 -12.1028 -0.360871
114.359 -11.9703 -0.360384
114.373 -11.8419 -0.359824
114.343 -11.7062 -0.358405
114.289 -11.5678 -0.357062
109.973 -6.03505 -0.420948
94.355 1.35819 0.15453
94.8269 25.934 -0.653429
97.0556 33.0698 -0.995047
97.2834 40.8684 -1.33239
91.2873 35.4089 -0.994905
91.1808 35.5165 -0.997584
91.1174 35.5461 -0.99786
91.7153 37.3298 -1.08691
91.5739 37.3718 -1.08644
90.5807 37.8421 -1.09379
74.0906 15.9155 0.060192
74.0561 15.9216 0.0600787
0.897843 10.4493 -2.47113
10.0275 -7.59028 -1.89817
93.7291 -19.3641 0.117776
106.089 -10.2474 -0.444538
106.053 -10.138 -0.443037
106.035 -10.0322 -0.441479
106.056 -9.93114 -0.442799
106.05 -9.82717 -0.442201
106.032 -9.77307 -0.440447
106.027 -9.66924 -0.439845
106.074 -9.57199 -0.442084
106.142 -9.47681 -0.445259
106.099 -8.34058 -0.441587
106.134 -8.24158 -0.442862
106.13 -8.1379 -0.443258
106.125 -7.06377 -0.443256
106.137 -7.01405 -0.444408
106.725 -4.91127 -0.478665
104.36 2.13135 -0.440019
97.982 3.93433 -0.18549
101.947 42.3762 -1.80272
97.9322 38.187 -1.51573
100.387 43.9039 -1.84149
96.5297 41.9847 -1.67052
98.9709 47.5055 -1.98758
91.8964 36.3009 -1.30461
91.9053 36.6846 -1.32402
91.791 36.7873 -1.3277
91.214 35.7918 -1.26752
91.0324 35.7255 -1.26175
90.8293 35.6017 -1.25183
90.757 35.6123 -1.25106
74.8963 10.7794 0.214372
20.5934 -5.69608 -1.71039
20.5503 -7.86788 -1.70745
21.0902 -7.92789 -1.6788
92.8971 -20.3865 -0.0166209
106.309 -10.8548 -0.457705
106.223 -10.7371 -0.453368
106.178 -10.6253 -0.450901
106.158 -10.5172 -0.449356
106.124 -10.4608 -0.447653
106.114 -10.3551 -0.446074
104.522 1.97254 -0.646008
100.465 43.9892 -2.20461
96.2977 41.8297 -1.99156
92.1308 36.2665 -1.59787
91.9681 36.253 -1.59325
91.8752 36.2192 -1.59037
91.7242 36.2302 -1.58781
91.6364 36.3896 -1.59463
91.5551 36.5653 -1.6025
91.4075 36.586 -1.60096
91.2972 36.6951 -1.60566
78.4477 16.355 -0.242977
75.0331 11.5563 0.0628478
74.9251 10.8496 0.105186
74.7201 -20.3999 0.312605
89.1443 -21.9084 -0.0748483
89.1945 -21.9108 -0.0767077
103.29 -0.0410817 -0.709777
88.4758 14.874 -0.504099
96.2537 35.1465 -1.87787
91.7685 36.3613 -1.83918
91.6025 36.3393 -1.83354
91.4048 36.239 -1.82368
91.2392 36.2128 -1.81802
91.1437 36.3541 -1.8248
90.981 36.3336 -1.82015
90.9598 36.4711 -1.82872
75.0202 11.7347 -0.0408493
74.9186 11.0716 0.00234458
102.743 46.4252 -3.12166
99.2257 41.8682 -2.723
97.1887 42.3272 -2.69407
91.3402 33.4705 -1.95358
91.284 33.6728 -1.96548
90.7756 34.2022 -1.98778
90.6974 34.1925 -1.98495
80.9022 11.4593 -0.223353
80.8446 11.4729 -0.222555
80.7459 11.3863 -0.214493
80.7193 11.4731 -0.219885
90.6923 35.9717 -2.10457
75.0581 11.8662 -0.171239
74.9499 11.1717 -0.120946
74.8488 10.5054 -0.0727391
97.2081 36.5444 -2.55756
98.0999 38.4697 -2.71835
91.2868 33.6868 -2.17753
90.7769 34.3852 -2.21346
80.872 11.5403 -0.319734
80.894 11.7452 -0.334436
75.053 11.7676 -0.249887
74.9467 11.0658 -0.195562
74.8522 10.4713 -0.149605
70.6694 13.251 -0.390927
96.171 -1.18759 -0.701254
98.3948 36.8671 -2.94063
101.043 46.9576 -3.78412
92.1862 34.6208 -2.55863
90.808 34.405 -2.50146
56.0729 15.1154 -1.21226
94.9687 0.713068 -0.781471
94.9981 0.795668 -0.785701
95.0102 0.871695 -0.788951
95.0287 0.914462 -0.792061
95.0462 0.992729 -0.795305
94.9786 37.9634 -3.18069
92.2117 35.18 -2.85964
91.998 35.0467 -2.84171
91.8004 34.9474 -2.82686
91.5089 34.9792 -2.81975
91.3723 35.0124 -2.81823
91.4252 35.4886 -2.85986
91.0786 34.8575 -2.79643
90.9064 34.807 -2.78669
90.6449 34.5413 -2.75639
90.1056 34.668 -2.75128
90.0461 34.703 -2.75157
56.1341 15.0746 -1.36195
92.0035 -10.309 -0.466371
92.918 -2.60775 -0.654543
90.3782 7.59403 -0.866084
90.3523 7.65847 -0.868391
93.0152 36.7121 -3.28722
91.9454 34.8757 -3.08922
91.7825 34.8542 -3.08156
91.2063 33.8992 -2.97754
91.51 34.9256 -3.07855
91.1026 34.6853 -3.04373
90.9361 34.6462 -3.03402
90.7655 34.4207 -3.00863
60.6683 -17.2287 -0.504143
81.0363 -19.0695 -0.248718
91.8146 34.8668 -3.36553
91.6679 34.8802 -3.36097
91.1736 33.9323 -3.25375
91.4769 34.9629 -3.36178
91.3759 35.0798 -3.36847
91.0646 34.7092 -3.32292
90.7778 34.3886 -3.28248
90.6802 34.5081 -3.29018
81.8888 -18.2904 -0.323367
81.903 -18.2692 -0.322408
81.9348 -18.2314 -0.321464
91.8137 34.8347 -3.63442
91.2666 33.9471 -3.52456
91.5366 34.8956 -3.62937
91.4745 34.9269 -3.62965
91.2709 34.8073 -3.60974
90.7282 33.9019 -3.49881
90.6508 34.0629 -3.51161
90.197 34.564 -3.54466
91.8238 34.6705 -3.90778
91.7839 34.9209 -3.93182
91.207 33.962 -3.80678
91.4752 34.9117 -3.9186
90.7352 33.5585 -3.74452
90.5912 33.5625 -3.73891
90.4739 33.4595 -3.72284
90.4288 33.6954 -3.74683
90.2211 33.5481 -3.72183
76.597 3.45074 0.013039
70.8299 13.2341 -1.09745
70.8342 13.0163 -1.07263
85.3318 10.2575 -1.23725
85.3258 10.3544 -1.24662
85.3135 10.4421 -1.25398
91.9281 34.336 -4.14627
91.8304 34.4555 -4.15497
91.7455 34.4346 -4.14912
91.5923 34.4309 -4.14151
91.4554 34.4621 -4.13898
90.7303 33.1562 -3.96204
90.5768 33.1363 -3.95337
90.4281 33.1289 -3.94574
90.2696 33.0956 -3.93503
90.238 35.3048 -4.18031
71.0488 12.4327 -1.1149
70.9904 12.4342 -1.11606
70.9363 12.4099 -1.11411
91.0731 25.6072 -3.36312
90.4377 25.7269 -3.34124
90.4092 25.9109 -3.36
90.8915 28.8913 -3.72179
90.6317 28.6375 -3.67953
90.4048 28.4485 -3.64643
91.1351 33.1191 -4.21984
90.9747 33.0871 -4.20814
90.8069 32.8744 -4.1758
90.6939 32.9445 -4.17835
90.5419 32.9285 -4.16969
90.4246 32.9902 -4.17123
90.3182 33.0775 -4.17584
90.1636 33.0508 -4.16614
90.0728 33.1752 -4.17684
89.4222 26.0008 -3.49793
89.3307 26.0658 -3.50041
89.2711 26.1968 -3.51305
89.3052 26.3939 -3.53769
89.2431 26.5212 -3.55033
89.148 26.5827 -3.55181
89.1318 26.8093 -3.57869
89.1661 27.1448 -3.61985
89.1365 27.3492 -3.64268
89.0455 27.4242 -3.6472
88.9856 27.5664 -3.66089
90.2142 31.5978 -4.20762
90.1263 31.7148 -4.21729
89.9977 31.7408 -4.21472
89.9754 31.8502 -4.22618
89.8972 31.992 -4.23992
89.9212 32.3744 -4.28727
80.6764 10.9251 -1.24498
71.2088 10.8659 -1.10466
70.9057 10.777 -1.10013
79.1145 8.46487 -0.977953
85.9536 -5.65907 -0.666546
85.9483 -5.6401 -0.66663
85.954 -5.60152 -0.666758
85.9585 -5.56378 -0.667886
85.9618 -5.48644 -0.669165
85.9755 -5.44803 -0.671271
78.3979 7.30748 -1.04854
78.3828 7.32888 -1.05166
78.341 7.34008 -1.05082
71.6539 4.6116 -0.54728
71.6897 4.50186 -0.65978
77.857 5.90914 -1.07678
77.8239 5.93119 -1.07795
76.8625 3.35306 -0.606906
76.7527 3.08837 -0.558212
71.6996 4.51219 -0.761793
76.796 3.22215 -0.664596
76.9084 4.22494 -1.13103
76.8812 4.24611 -1.13418
76.8504 4.25669 -1.1343
76.8269 4.23489 -1.12828
76.7347 4.26763 -1.12964
76.6652 4.15261 -1.1024
76.6707 4.27906 -1.12785
78.7862 -5.95186 -0.761319
47.0613 -3.21102 -8.93005
47.0111 -3.29163 -8.94588
47.0278 -3.37694 -8.93652
46.9987 -3.41717 -8.94645
76.2419 -5.49071 -0.00771687
76.2997 -5.44874 -0.0317208
72.744 -4.01083 0.240591
72.7493 -4.02977 0.247675
72.9453 -4.30985 0.363231
124.531 -19.9662 -21.5462
124.573 -19.8067 -21.5456
73.0093 -4.30109 0.354367
73.0388 -4.36798 0.386693
73.0205 -4.34109 0.371545
72.9769 -4.3156 0.335335
72.874 -4.13707 0.240401
72.9726 -4.31699 0.33533
72.9513 -4.29066 0.320175
72.9308 -4.26546 0.305028
72.8939 -4.21465 0.276742
72.8495 -4.15266 0.241395
72.8712 -4.19721 0.263617
72.8653 -4.19635 0.261599
72.876 -4.21912 0.273711
72.8644 -4.20934 0.266644
72.7165 -3.98689 0.143429
72.9148 -4.40748 0.356513
72.8473 -4.37946 0.328231
72.5348 -6.8395 0.229536
72.6202 -6.75181 0.285437
72.6298 -6.74815 0.289448
72.6262 -6.79416 0.272609
75.002 -6.75014 0.219696
75.0387 -6.8801 0.148275
74.992 -6.82563 0.18095
74.9754 -6.8009 0.194815
75.0359 -6.80886 0.172003
1.15033e-41 0 -1.67285e+20
