ply
format ascii 1.0
element vertex 751
property float x
property float y
property float z
end_header
147.559 -6.30427 3.95333
149.947 -4.87061 4.0415
122.937 11.2024 2.94359
98.9115 13.7596 2.1228
97.1756 34.5386 2.5357
96.4351 37.785 2.60112
82.1213 47.258 2.65806
81.9537 47.3076 2.65752
81.787 47.3843 2.65881
68.758 13.3239 1.74993
67.9631 13.4524 1.76138
52.5999 13.3639 2.01054
17.633 -8.41612 2.87707
25.556 -9.28651 2.6725
17.76 -10.9677 2.89551
14.8818 -12.31 2.98523
14.9765 -12.5076 2.98426
47.9617 -11.0945 2.09653
20.458 -22.2758 2.96542
28.6313 -20.4595 2.72817
24.2669 -21.8325 2.86151
42.8084 -17.1797 2.31463
27.9195 -24.7927 2.81887
21.0929 -28.2343 3.05089
21.2807 -28.3747 3.04919
23.7134 -27.672 2.97569
23.8668 -27.7155 2.97308
36.1381 -25.4977 2.63226
35.9572 -25.7412 2.64165
54.558 -19.5511 2.07362
56.7732 -19.4553 2.02074
48.3108 -28.1627 2.41829
130.545 -64.8095 4.56107
130.677 -64.5922 4.55752
119.764 -51.3346 3.80865
136.591 -54.4365 4.43088
143.242 -55.4744 4.68241
132.053 -46.0151 4.04268
135.734 -46.7835 4.18919
137.037 -0.213689 3.12849
115.107 2.25521 2.37323
88.5277 63.2688 2.70471
83.2593 38.4281 2.1448
82.0941 47.2044 2.31522
81.9592 45.7707 2.2851
81.7885 45.5549 2.27837
80.0319 16.7761 1.67253
15.1618 15.093 2.46394
16.0293 13.3604 2.44502
14.3207 -11.1367 2.57015
9.51539 -24.2496 2.81401
27.3197 -20.1357 2.41058
27.0555 -20.3823 2.4194
27.1145 -20.4565 2.41933
54.3703 -20.2069 1.90678
81.7062 -20.8028 1.69863
121.967 -41.6497 3.23478
131.176 -30.9988 3.28123
151.733 -31.7695 3.96402
142.324 -21.3212 3.49518
142.325 -21.1153 3.49277
142.325 -20.9092 3.49036
142.279 -20.5903 3.48384
142.321 -20.3953 3.48279
142.327 -20.1911 3.48044
140.931 18.5056 2.95162
105.593 19.0397 2.02012
92.5536 52.63 2.25146
82.2744 46.0772 2.04623
82.1002 45.8236 2.04073
81.9899 47.4545 2.06574
81.7834 46.2313 2.04467
81.6212 46.3741 2.04554
11.3434 -39.0473 2.66069
140.82 -21.4235 3.15115
140.836 -21.2257 3.1499
140.821 -21.0205 3.14639
140.843 -20.8246 3.1452
140.843 -20.6235 3.14282
140.854 -20.425 3.14053
140.862 -20.2262 3.13823
140.857 -20.1244 3.13649
140.855 -19.924 3.1341
140.871 -19.7273 3.13286
155.87 -3.27399 2.86368
121.044 6.24052 2.04814
142.993 19.083 2.49732
142.713 19.1984 2.49153
106.383 20.1697 1.76597
106.425 20.3807 1.76683
96.0553 13.8987 1.55946
95.8275 13.8044 1.55549
92.329 30.8194 1.62067
92.1858 30.7795 1.61892
92.0281 30.6882 1.61543
90.5321 65.6591 1.88053
84.8543 66.4803 1.83743
82.3979 44.7453 1.63724
81.965 38.1184 1.57868
81.9622 46.104 1.6448
81.7786 45.5273 1.63846
11.9326 -41.5237 2.11387
137.588 -30.0648 2.70847
150.446 -31.1731 2.99671
155.889 -31.7567 3.1205
155.891 -31.6256 3.11962
137.887 -22.8654 2.63013
140.397 -20.7486 2.66248
140.399 -20.5488 2.66012
140.413 -20.3529 2.65787
140.423 -19.9572 2.65423
141.839 -19.3611 2.67922
159.476 -5.71363 2.55411
142.734 18.9932 2.14608
142.764 19.2354 2.14563
95.8096 13.7365 1.42382
95.5359 13.5771 1.41996
96.723 37.7913 1.48407
96.6526 38.0308 1.48393
96.5477 38.1784 1.48317
94.3568 39.6955 1.46513
92.3538 52.031 1.48112
82.7051 38.6524 1.35727
81.9147 36.6713 1.34525
82.0049 44.9756 1.37285
81.8799 46.1204 1.37509
81.6934 45.3916 1.37177
154.806 20.0675 1.79169
150.712 22.1656 1.73811
94.9595 40.5024 1.12987
94.4435 39.3687 1.12998
91.9095 61.8975 1.02515
89.8952 63.2313 1.00463
88.627 62.8827 0.995988
87.2887 66.0909 0.974411
87.0616 66.1208 0.972587
86.3815 66.2315 0.966981
82.8123 38.8725 1.04251
82.1414 38.2524 1.03999
81.8063 36.8823 1.04302
82.0765 46.013 1.01021
81.9032 45.7592 1.01072
81.3652 33.6036 1.0514
83.0149 -20.8006 1.35692
97.4635 -19.8276 1.47619
115.818 -22.4077 1.6787
116.029 -22.3665 1.67992
131.36 -28.3004 1.88193
142.684 -29.9359 2.00886
144.566 -30.1815 2.02996
146.81 -21.8716 1.98785
145.655 -21.2798 1.97156
139.996 -19.8036 1.90309
141.323 -19.4948 1.91442
154.835 20.3865 1.41669
154.69 20.5985 1.4142
154.632 21.3748 1.40745
143.734 19.5973 1.35901
95.5328 35.5457 0.942994
95.5054 35.677 0.941897
94.4508 35.2054 0.938622
92.1127 31.047 0.957533
94.7559 40.3881 0.897189
94.7089 40.7607 0.894294
89.1027 55.5963 0.731421
88.4782 62.8134 0.666388
88.3198 63.3517 0.661561
88.1666 62.9849 0.662989
87.0656 60.8559 0.673771
85.8988 66.3814 0.618495
81.8051 36.8206 0.838421
81.6684 36.8121 0.837506
81.4267 33.4037 0.865201
81.3525 33.0244 0.867278
24.52 -10.344 0.735285
115.858 -22.5661 1.49607
144.266 -21.257 1.64848
144.281 -21.048 1.64716
145.79 -21.282 1.65652
145.916 -21.0932 1.65612
141.611 -19.3321 1.62034
156.379 -19.679 1.70596
154.717 20.525 0.911871
154.493 20.708 0.910017
154.377 20.93 0.907663
92.9224 31.4737 0.705358
90.281 54.5583 0.35593
88.5451 59.385 0.274399
87.2686 62.2375 0.224704
83.7535 38.7362 0.548129
81.4122 32.5586 0.623892
81.2846 32.3962 0.625098
22.1046 15.3861 0.138279
144.318 -30.1205 1.27173
149.33 -30.8637 1.27355
140.048 -21.4309 1.23361
140.058 -21.2342 1.23332
140.062 -21.1348 1.23267
140.07 -20.9379 1.23138
140.057 -20.736 1.2299
140.053 -20.5363 1.2295
140.033 -20.3333 1.22796
140.065 -20.143 1.22688
140.066 -19.945 1.22653
141.568 -19.3738 1.22231
152.802 -19.4834 1.2161
156.255 -19.7326 1.21542
89.6362 11.291 0.853607
90.2933 30.4865 0.471397
91.5061 57.2832 -0.0750823
87.8776 58.6479 -0.121313
86.8991 62.4179 -0.205189
82.2124 36.7635 0.30069
81.4525 32.2452 0.39032
81.2854 30.7458 0.420432
100.201 -23.694 1.08124
97.5066 -19.7189 1.09973
153.182 -31.2442 0.800584
139.669 -21.3871 0.857586
139.632 -21.1787 0.856894
139.616 -20.9773 0.856395
139.607 -20.7769 0.855951
139.586 -20.6739 0.855098
139.595 -20.4792 0.854825
139.633 -20.2906 0.853796
139.662 -20.1009 0.852703
139.707 -19.9143 0.851736
152.706 -19.5155 0.763616
159.531 -5.83616 0.0872331
158.269 -5.60142 0.102626
145.716 -2.64822 0.253907
119.205 5.01104 0.536408
99.4329 14.5935 0.583707
94.4146 41.5545 -0.0893038
92.4424 42.7528 -0.12459
88.1801 60.6563 -0.631981
86.8534 61.276 -0.655692
86.6631 61.531 -0.6638
86.489 61.9815 -0.677136
82.9751 36.6127 0.00814464
84.1575 66.7942 -0.823818
97.5594 -19.7395 0.947244
97.5624 -19.6561 0.947692
137.181 -28.106 0.467001
142.738 -24.1075 0.394121
142.998 -24.0735 0.390736
143.445 -23.9848 0.385314
143.882 -23.8906 0.378781
144.656 -23.8847 0.369255
145.093 -23.7844 0.362679
144.684 -23.0257 0.36755
140.308 -21.6016 0.422593
140.688 -21.4951 0.417571
139.424 -20.9843 0.433057
139.448 -20.7927 0.43191
144.11 -12.5589 0.0125407
144.634 -11.282 -0.00350087
144.331 -11.1591 0.00149227
151.394 3.28147 -0.244401
94.2636 8.72396 0.645202
91.5981 39.1589 -0.269922
87.0891 60.959 -0.992851
83.3974 38.9517 -0.287929
82.4969 38.178 -0.267029
82.8828 47.2561 -0.56366
82.0704 33.6067 -0.119656
81.3072 29.3822 0.0149359
80.9711 23.1025 0.219692
97.7047 -19.6986 0.832993
117.18 -22.607 0.511719
132.384 -13.978 -0.0752659
132.538 -13.8327 -0.0791638
132.632 -13.6777 -0.0815577
132.726 -13.5224 -0.0849596
132.776 -13.4449 -0.0861313
133.345 -12.5028 -0.102556
133.35 -12.4197 -0.103092
133.444 -12.2606 -0.106509
133.521 -12.099 -0.10907
133.624 -11.9402 -0.111429
133.682 -11.7768 -0.114138
133.751 -11.6129 -0.115777
133.817 -11.4497 -0.118428
133.883 -11.2856 -0.121083
133.945 -11.2057 -0.12219
134.001 -11.041 -0.12492
134.053 -10.8747 -0.126697
134.132 -10.7104 -0.12926
134.173 -10.5435 -0.131119
138.026 -3.73471 -0.271449
137.969 -3.55568 -0.271085
137.917 -3.37639 -0.271686
137.873 -3.19627 -0.272234
137.85 -3.10697 -0.272014
137.586 -2.94133 -0.267033
137.614 -2.75855 -0.269085
139.796 3.94415 -0.394597
121.021 1.2619 0.0960856
133.125 4.24359 -0.236174
90.3913 40.1081 -0.585057
88.922 65.8806 -1.57963
85.7403 66.3206 -1.60933
85.5127 66.3536 -1.61117
83.3765 39.4047 -0.576204
82.9378 36.0375 -0.447191
81.1806 25.4108 -0.0446862
81.0557 24.5793 -0.0128617
8.88195 -14.6665 -1.55855
97.2842 -19.7414 0.710284
117.081 -22.7132 0.273729
126.561 -20.8144 0.0642223
126.791 -20.7256 0.0592517
128.847 -17.9077 0.0145396
129.269 -17.8436 0.00410314
129.187 -17.3395 0.00705206
129.302 -17.2028 0.00393768
129.428 -17.1493 0.00046803
129.551 -17.0135 -0.00258994
129.674 -16.8778 -0.00564807
129.825 -16.7472 -0.00846731
130.012 -16.6227 -0.0139913
129.703 -16.397 -0.00574233
131.694 -15.4563 -0.0560214
131.839 -15.3136 -0.0589685
131.896 -15.1561 -0.0606505
131.935 -14.9961 -0.0624692
131.967 -14.8341 -0.06335
131.991 -14.6708 -0.0643031
132.025 -14.5099 -0.06517
132.112 -14.4397 -0.0670328
132.17 -14.2815 -0.0697044
132.26 -14.1278 -0.0721189
125.041 -12.9623 -0.194565
125.099 -12.8272 -0.19608
125.148 -12.6899 -0.197673
125.195 -12.5521 -0.19929
125.301 -12.4221 -0.203422
125.49 -12.3019 -0.208907
125.628 -12.1745 -0.213793
125.65 -12.1049 -0.214121
125.626 -11.9569 -0.214309
125.593 -11.8076 -0.213569
125.568 -11.6605 -0.212759
125.565 -11.5157 -0.21377
125.599 -11.375 -0.214497
125.651 -11.2361 -0.217077
125.713 -11.1702 -0.219095
125.801 -11.0345 -0.222397
125.853 -10.8945 -0.223991
125.904 -10.7545 -0.226586
125.943 -10.6136 -0.228278
125.976 -10.4708 -0.229025
126.001 -10.328 -0.230823
126.038 -10.2585 -0.232041
126.111 -10.1195 -0.234478
126.157 -9.97781 -0.237118
126.184 -9.83418 -0.237913
126.27 -9.69509 -0.241257
126.31 -9.55235 -0.243953
126.361 -9.4102 -0.245567
126.387 -9.33927 -0.246866
126.77 -8.11462 -0.265552
126.921 -7.97285 -0.270451
127.734 -6.72772 -0.304219
129.678 -4.40116 -0.382351
120.237 0.227302 -0.137402
116.003 5.07356 -0.0868605
103.399 7.27527 0.219223
97.3064 13.2363 0.16786
89.2355 9.7298 0.425456
93.6611 41.3475 -0.960293
88.5701 55.3761 -1.58397
85.3167 66.3964 -2.09289
82.7372 35.3992 -0.699248
81.8395 28.9104 -0.409052
76.9998 16.0579 0.133789
76.9235 16.0821 0.131079
68.6055 14.9355 0.0206861
19.1926 -9.02504 -1.58085
21.8291 -10.2019 -1.45497
22.549 -11.5207 -1.41678
21.0893 -13.2424 -1.47736
22.9717 -13.5735 -1.39166
114.971 -22.5529 0.0705895
113.885 -21.0997 0.11387
119.667 -17.5789 -0.034134
119.74 -17.4652 -0.0363943
119.751 -17.4021 -0.0367479
119.814 -17.285 -0.0381002
119.918 -17.1798 -0.0410883
120.051 -17.081 -0.0448155
120.187 -16.9824 -0.0485267
120.783 -16.1221 -0.0641932
120.865 -16.0057 -0.0664042
120.92 -15.9521 -0.0683789
121.021 -15.8394 -0.0704395
121.143 -15.7319 -0.0743036
121.229 -15.616 -0.0764906
121.335 -15.5041 -0.0795029
121.336 -15.2334 -0.0793565
121.43 -15.1854 -0.0820176
124.943 -13.7402 -0.189924
125.018 -13.6077 -0.192294
125.043 -13.4668 -0.194088
125.045 -13.3225 -0.194066
125.009 -13.1738 -0.193345
125.013 -13.1027 -0.192803
120.618 -8.78275 -0.3088
120.66 -8.65756 -0.311358
120.679 -8.53088 -0.312097
120.677 -8.40332 -0.312986
120.677 -8.27604 -0.313858
120.691 -8.14865 -0.314638
120.649 -8.08294 -0.313389
120.664 -7.95683 -0.315146
120.632 -7.82792 -0.314259
120.676 -7.70188 -0.316814
120.715 -7.57624 -0.318397
120.769 -7.44967 -0.321883
120.835 -7.32381 -0.32428
120.928 -7.1969 -0.328488
121.044 -7.13496 -0.334086
121.164 -7.00797 -0.3391
121.26 -6.88035 -0.343298
121.374 -6.7525 -0.34836
122.246 -5.76664 -0.387923
124.586 -1.80311 -0.513486
124.61 -1.72978 -0.514821
124.601 -1.59004 -0.516845
125.273 -0.29333 -0.556965
125.331 -0.141027 -0.561602
125.404 0.0140698 -0.566147
125.474 0.169598 -0.570717
125.572 0.257464 -0.575625
125.666 0.417602 -0.581056
125.764 0.579138 -0.587465
97.178 13.0045 0.0245298
89.8226 50.4101 -1.70094
89.5308 50.3151 -1.69636
86.5682 62.3243 -2.31401
83.5073 39.7784 -1.16987
82.0403 29.8974 -0.669414
22.0085 -1.95445 -1.85237
22.3109 -5.53267 -1.80363
21.6833 -6.44017 -1.82987
30.2278 -9.83107 -1.37067
30.3386 -9.90268 -1.36439
107.772 -22.8699 0.0704733
110.038 -22.0034 0.0116577
119.065 -3.00211 -0.518588
119.185 -2.92957 -0.525234
119.28 -2.79588 -0.530475
103.327 3.25889 0.0242898
89.7167 11.1225 0.129303
91.02 52.0246 -2.12552
88.9729 57.7499 -2.44645
88.0298 66.085 -2.92046
86.9812 60.3135 -2.59426
85.4141 66.4975 -2.95093
83.4014 39.4174 -1.41516
82.4565 33.0531 -1.05615
82.2513 31.5868 -0.973532
81.3029 26.5807 -0.692883
81.1515 25.0531 -0.606463
79.8616 15.1144 -0.0473474
32.6924 3.13101 -1.64818
30.847 -6.93443 -1.63618
80.0398 -20.8042 0.567714
106.121 -21.6286 -0.0308242
106.365 -21.5509 -0.0376222
111.345 -15.5561 -0.156331
90.9168 52.301 -2.52017
85.7534 70.3871 -3.66027
83.3392 39.349 -1.70414
82.0453 29.8728 -1.10823
77.3013 12.6138 -0.0564111
45.8531 -12.4083 -0.984621
109.054 -16.229 -0.262034
109.756 -9.81706 -0.420093
109.585 -8.86471 -0.411848
109.597 -8.77338 -0.412395
109.592 -8.67974 -0.412071
109.622 -8.58917 -0.414477
109.601 -8.49408 -0.413284
109.581 -8.40026 -0.41207
109.589 -8.35489 -0.413327
97.9574 8.30242 -0.218626
96.9039 13.2144 -0.427887
93.6698 70.3309 -4.0705
81.2582 25.1758 -0.983564
79.766 14.8671 -0.284341
79.5253 13.0607 -0.16164
43.686 3.01896 -1.47007
98.304 -20.0369 0.0105462
108.676 -1.38081 -0.637756
102.461 2.45857 -0.368399
102.373 2.50474 -0.365345
102.193 2.5127 -0.35468
91.9398 61.4448 -3.94177
83.3494 39.4432 -2.27575
82.6328 34.7847 -1.92583
79.7517 14.5451 -0.409238
102.509 2.41353 -0.487753
102.242 2.38762 -0.470474
102.391 2.52864 -0.484383
95.6271 40.8289 -2.69881
92.5039 61.7185 -4.30565
84.8966 53.7243 -3.6479
85.6532 66.3366 -4.66121
83.6026 40.0031 -2.5468
83.449 39.9062 -2.53923
82.5261 34.0759 -2.07173
80.5489 20.2082 -0.96349
79.8041 14.851 -0.536972
79.7449 14.493 -0.508932
79.6862 14.1591 -0.482056
92.7233 42.9177 -3.15687
91.3034 42.8135 -3.13127
90.5516 63.6917 -4.91815
90.3321 63.7316 -4.92098
90.1209 63.8288 -4.92816
85.5977 53.5345 -4.02662
82.5291 33.8386 -2.31809
81.6846 27.8204 -1.79673
79.7923 14.6095 -0.656402
90.3681 -21.5936 -0.0983069
90.4134 -21.5598 -0.0982164
101.565 -11.4219 -0.388423
92.4786 40.7225 -3.24754
87.2391 58.2533 -4.81138
86.9232 57.2094 -4.71446
86.8236 57.2259 -4.71528
85.2768 53.3033 -4.35133
81.0891 23.7092 -1.61472
79.7567 14.5039 -0.767936
79.6985 14.1599 -0.736986
58.6042 9.79946 -1.40436
97.2142 -17.0839 -0.343523
94.6233 38.2879 -3.34553
91.1438 53.6918 -4.77522
90.9362 53.6259 -4.76725
90.3773 53.7716 -4.77623
90.1537 53.6031 -4.75767
90.0473 53.5458 -4.75203
89.8766 53.6847 -4.7642
89.6976 53.7813 -4.77214
89.1332 53.8954 -4.77995
88.9392 53.8953 -4.77833
88.8439 53.9071 -4.77909
88.6601 53.9772 -4.78488
88.2944 54.1443 -4.79863
88.1016 54.1531 -4.79907
87.9231 54.2729 -4.81016
87.7234 54.2271 -4.80427
87.6148 54.1267 -4.79435
87.433 54.2248 -4.80332
87.2366 54.2017 -4.80056
86.8996 54.6485 -4.84304
86.7056 54.6554 -4.84347
86.514 54.6791 -4.84499
86.2246 54.6969 -4.84618
86.0348 54.7466 -4.85087
85.8521 54.866 -4.862
84.9485 46.9976 -4.08634
84.1294 39.5218 -3.34978
81.1858 23.7871 -1.80158
79.805 14.5376 -0.895829
99.6562 1.16327 -0.785503
99.6102 1.21543 -0.783189
99.5804 1.27432 -0.783807
99.5903 1.34965 -0.788254
99.5742 1.37826 -0.787565
99.5197 1.42761 -0.785292
91.7998 0.532242 -0.115112
90.9203 33.5245 -3.08618
91.0207 43.5198 -4.11218
90.4181 49.629 -4.73548
90.1464 49.6371 -4.73347
89.9536 49.5762 -4.72543
89.7538 49.4678 -4.7121
89.5803 49.5112 -4.71464
89.4095 49.5733 -4.72028
89.2133 49.4826 -4.70906
89.0242 49.4262 -4.70101
88.6046 49.6254 -4.71837
88.4289 49.661 -4.72087
88.2516 49.6786 -4.72226
88.0705 49.6705 -4.71949
87.8921 49.6873 -4.71988
87.8021 49.6872 -4.71952
87.6339 49.7742 -4.72831
87.4576 49.7988 -4.72974
87.2808 49.8193 -4.73114
87.1014 49.8302 -4.73049
86.9257 49.8587 -4.73294
86.3043 49.9215 -4.7368
86.1254 49.9283 -4.73712
85.9438 49.9091 -4.73528
85.7671 49.9307 -4.73669
85.5847 49.8925 -4.73173
85.4028 49.8583 -4.72779
85.0192 46.6248 -4.38829
83.7878 37.7175 -3.45382
79.8697 15.0566 -1.08394
86.7806 -19.8691 -0.139717
89.6623 46.2719 -4.7088
89.4815 46.2173 -4.70171
88.154 46.4411 -4.71271
87.9855 46.4503 -4.71297
87.8193 46.4745 -4.71432
87.6491 46.4789 -4.71356
87.4822 46.4981 -4.71389
87.3095 46.4716 -4.70993
87.1404 46.4759 -4.70917
87.0558 46.4781 -4.70879
86.8878 46.4903 -4.70907
86.721 46.5105 -4.71039
86.5456 46.4582 -4.70428
85.7749 46.3427 -4.68798
82.0865 32.7175 -3.17158
88.5562 -19.0237 -0.240879
88.5902 -18.9913 -0.23986
90.4911 6.26544 -0.65085
89.2376 18.377 -1.86005
88.5903 43.9482 -4.77848
88.4329 43.9842 -4.78085
86.9142 44.1519 -4.78682
86.7521 44.1491 -4.78495
86.5897 44.1444 -4.78308
86.5083 44.14 -4.78163
86.346 44.1363 -4.78076
85.3583 43.9321 -4.75139
83.4595 35.9069 -3.80374
82.026 27.899 -2.86189
86.9491 -17.5289 -0.125594
86.5071 41.9825 -4.82982
86.3479 41.9511 -4.82474
86.1963 41.9721 -4.82696
86.0454 42.004 -4.82925
85.6552 41.9758 -4.82384
85.4947 41.9213 -4.81561
85.342 41.9343 -4.81679
85.1792 41.8509 -4.80537
86.2822 -18.5749 -0.272166
95.2191 -8.30979 -0.556026
95.2626 -8.17061 -0.560673
95.3382 -5.95657 -0.574346
95.3279 -5.9086 -0.573748
95.3338 -5.86096 -0.575033
95.3276 -5.81358 -0.575404
95.331 -5.78982 -0.575542
95.3289 -5.74202 -0.575886
95.3277 -5.69436 -0.576222
95.3194 -5.64668 -0.576608
95.3244 -5.5989 -0.577901
81.0251 22.9113 -2.62675
79.8099 13.6142 -1.42848
78.658 10.5419 -1.04556
90.2479 -15.6765 -0.352827
87.5042 37.0671 -4.71694
85.8561 37.3172 -4.7314
85.7183 37.3351 -4.7325
85.5783 37.3383 -4.73152
85.4413 37.3551 -4.73262
85.3011 37.3572 -4.73163
85.1625 37.3632 -4.73166
85.0263 37.392 -4.73483
84.9601 37.4299 -4.73856
84.825 37.4737 -4.74382
84.6911 37.5254 -4.75013
84.5547 37.5674 -4.75539
84.4178 37.5984 -4.75858
83.5297 36.0914 -4.55255
80.8762 21.9667 -2.65032
80.8152 21.293 -2.56012
79.5994 10.1335 -1.06405
86.3251 34.6243 -4.66556
86.1956 34.637 -4.66657
86.0688 34.6756 -4.66973
85.9366 34.6766 -4.66868
85.8071 34.6964 -4.66974
85.6803 34.7349 -4.67391
85.5508 34.7477 -4.67492
85.4218 34.7704 -4.676
84.2574 34.9554 -4.69356
84.1283 34.9852 -4.69669
82.8764 34.9102 -4.68109
82.8114 34.9145 -4.68158
82.6764 34.8412 -4.67104
81.7478 26.316 -3.46403
81.6399 26.2065 -3.44805
81.5359 26.1862 -3.44565
79.5663 10.0528 -1.16973
90.8679 3.36362 -0.934243
90.8764 -7.1397 -0.617009
90.8742 -7.10603 -0.617256
76.4643 5.44354 -1.10917
76.4242 5.43922 -1.11142
76.4072 5.42655 -1.10946
76.3686 5.41799 -1.11067
76.3293 5.41156 -1.11191
86.0331 -14.1844 -0.580119
86.0648 -14.1748 -0.581959
47.6376 -3.24566 -11.5954
47.6466 -3.34999 -11.5876
47.3616 -3.42649 -11.6941
46.9238 -3.31153 -12.225
46.9117 -3.41587 -12.2254
46.8965 -3.52079 -12.2268
82.7153 -6.40562 0.092835
79.2504 -4.94171 0.338103
79.2149 -4.94366 0.330862
79.2029 -4.9359 0.324723
78.9476 -7.83107 0.359796
79.4216 -5.25279 0.461465
119.277 -11.1487 -16.0429
119.251 -11.0215 -16.0259
79.4911 -5.26792 0.463065
79.4939 -5.28343 0.470191
79.2025 -7.49443 0.488306
79.197 -7.51894 0.479434
79.4074 -5.1804 0.391863
79.4313 -5.2302 0.417377
79.4303 -5.23711 0.420417
79.4066 -5.20649 0.402037
79.3778 -5.1691 0.380574
79.3287 -5.09856 0.340738
79.3024 -5.06554 0.321322
79.3425 -5.13481 0.358086
79.3226 -5.1128 0.344793
79.3427 -5.15399 0.36622
79.2728 -5.05425 0.309033
79.3186 -5.24228 0.394656
79.4008 -5.36798 0.465109
79.3673 -5.37629 0.458927
79.2471 -5.22096 0.366999
78.9956 -7.76654 0.318693
79.0711 -7.68929 0.367702
79.0902 -7.67583 0.377746
79.1419 -7.62352 0.411757
79.1948 -7.57037 0.445771
79.1998 -7.57108 0.446811
79.1865 -7.59347 0.43587
79.123 -7.67143 0.389951
79.0866 -7.72189 0.362037
81.4937 -7.68936 0.306961
81.4888 -7.78187 0.261559
81.4624 -7.7466 0.28213
81.4526 -7.72998 0.289946
81.4501 -7.67696 0.307565
-37.3725 18.762 -2.47883
