ply
format ascii 1.0
element vertex 613
property float x
property float y
property float z
end_header
137.444 3.80004 3.63466
136.971 4.62978 3.62133
136.965 5.8815 3.6256
110.437 32.6206 3.06754
94.8154 22.7552 2.42426
94.8689 22.968 2.43037
10.2791 20.7971 2.62836
16.8389 14.392 2.34111
-1.12426 14.3953 2.89346
1.41818 13.2439 2.80199
0.270441 13.1857 2.83772
-6.15203 14.2612 3.04993
18.7591 -8.56891 2.16009
24.6613 -9.14947 1.97142
-4.39347 -17.472 2.95679
-4.20238 -17.6356 2.95196
-4.11093 -17.8203 2.95002
6.71638 -16.2638 2.59421
7.19627 -16.486 2.58068
7.27098 -16.6372 2.57973
3.1587 -17.9805 2.72093
3.26077 -18.1384 2.71901
15.9217 -14.895 2.29158
15.9188 -15.0378 2.29255
6.93074 -19.4287 2.61574
6.50367 -20.0982 2.63612
8.38599 -20.274 2.57914
8.96297 -20.252 2.56078
18.8763 -18.9753 2.2429
-3.49152 -31.5863 3.07863
9.72196 -25.7451 2.60538
9.70654 -25.9367 2.60832
27.9859 -19.1141 1.97384
28.0087 -19.2231 1.97484
32.4321 -18.8855 1.84375
32.8915 -19.3219 1.83816
32.9094 -19.4222 1.83915
39.2195 -17.6429 1.63645
122.325 -40.781 3.4262
120.384 -19.9145 3.09472
120.382 -19.8095 3.09374
120.41 -19.6084 3.09382
120.42 -19.4029 3.09187
120.437 -19.1994 3.09094
120.444 -18.9934 3.08899
120.486 -18.7963 3.08908
120.495 -18.5917 3.08814
137.176 2.9169 3.12017
137.764 3.46718 3.13794
134.064 6.76301 3.04363
90.8363 9.53479 1.85896
89.9463 11.2461 1.85437
109.136 31.8667 2.62195
94.8382 22.6363 2.13726
94.6961 22.6219 2.1341
95.1108 23.0933 2.15166
77.2903 12.0749 1.55671
36.8054 18.0262 1.67276
-0.413656 16.495 2.50071
-4.74691 -17.1595 2.55647
4.63007 -16.7215 2.31382
-9.75213 -34.5897 2.83111
46.305 -17.6334 1.3502
53.6047 -18.3545 1.27803
130.215 -29.8341 3.03526
119.893 -19.8643 2.6732
119.918 -19.6638 2.67227
119.94 -19.4629 2.67234
119.93 -19.3566 2.67135
119.954 -19.1561 2.67042
119.976 -18.9552 2.66949
120.012 -18.5525 2.66762
120.038 -18.3531 2.66769
137.302 3.24729 2.75138
137.689 3.40559 2.76084
104.373 13.2052 2.02759
108.409 31.2968 2.30903
108.575 32.3561 2.32645
94.6614 22.6175 1.92206
94.5428 22.7039 1.92095
77.3968 12.0931 1.44283
-0.305488 17.2373 2.21199
21.7311 -10.4603 1.66192
18.1455 -11.8717 1.74469
-4.56956 -17.0649 2.24868
107.773 -24.8116 2.13384
108.296 -24.8508 2.1464
108.917 -24.9275 2.16006
110.133 -25.0591 2.18836
111.475 -25.3234 2.22077
129.224 -31.0568 2.66191
132.975 -28.4015 2.7266
104.409 13.0442 1.65559
104.444 13.2202 1.65767
78.3376 8.88906 1.23915
108.383 31.598 1.84907
108.511 31.806 1.85326
108.593 32.0997 1.85641
108.589 32.3333 1.85846
108.678 32.6362 1.86262
77.3139 12.0527 1.25373
51.1463 12.1584 1.11313
85.6565 -18.303 1.35709
85.6995 -18.2149 1.35716
117.74 -26.3022 1.88541
133.427 -28.6016 2.13805
126.387 -20.4345 1.99517
121.091 -18.0682 1.9029
104.419 13.2094 1.40564
110.257 33.2897 1.5645
110.322 33.5817 1.56663
110.466 33.8077 1.56884
110.535 34.1062 1.57198
77.3038 11.9603 1.1277
77.2734 12.035 1.12768
85.5885 -18.3454 1.19701
85.7083 -18.1878 1.19718
89.1705 9.54089 0.997141
77.3703 12.0796 0.9568
-4.34264 14.7193 0.996013
62.771 -19.1676 0.90787
105.814 -21.2345 1.06349
106.009 -20.8811 1.06378
106.492 -20.8859 1.06531
119.415 -20.0654 1.11863
119.463 -19.873 1.11872
119.476 -19.67 1.11778
119.488 -19.4677 1.11784
119.514 -19.2695 1.11791
119.474 -19.1562 1.11789
119.507 -18.9598 1.11797
119.565 -18.7698 1.11808
119.565 -18.565 1.11812
119.547 -18.3568 1.11815
120.852 -18.1542 1.12262
121.465 -18.0895 1.12531
132.344 -19.0268 1.171
135.676 -19.2209 1.1856
91.8733 8.8968 0.838954
77.5652 12.2091 0.841042
60.4909 14.5811 0.832895
105.978 -21.1149 0.824695
105.962 -21.024 0.824697
106.045 -20.8838 0.82482
119.4 -19.8302 0.819661
119.356 -19.6125 0.820662
119.236 -19.3766 0.820583
119.265 -19.1788 0.82066
119.253 -18.9724 0.820693
119.255 -18.8707 0.820717
119.373 -18.6957 0.820885
119.486 -18.5201 0.821048
119.473 -18.3136 0.82108
119.719 -18.1688 0.821381
132.375 -18.9925 0.815041
137.963 -1.97061 0.312944
137.983 -1.7191 0.313022
137.91 -1.47019 0.313997
137.588 -0.855378 0.315782
137.539 -0.606791 0.315784
135.575 5.67821 0.327036
135.538 5.92026 0.327049
77.5374 12.2038 0.68301
86.0007 -18.0197 0.634534
124.543 -27.213 0.366642
124.605 -27.0003 0.366757
124.942 -26.8847 0.365152
126.488 -25.0456 0.360252
130.752 -25.6473 0.330782
131.479 -25.619 0.326584
132.652 -25.7196 0.318844
133.588 -25.7422 0.312863
124.189 -22.3962 0.381328
124.055 -22.1342 0.38324
124.346 -21.9924 0.38159
124.261 -21.745 0.382552
119.527 -19.9146 0.417782
120.016 -19.8384 0.414334
118.905 -19.3385 0.42323
121.352 -17.9834 0.409208
132.348 -18.9342 0.335024
122.565 -14.5837 0.407292
138.24 -2.63878 -0.179902
137.197 -2.52519 -0.166018
119.81 0.750849 0.0576944
120.335 0.983594 0.0503208
113.497 2.06503 0.137082
111.712 9.14729 0.145708
107.97 31.4136 0.0645752
108.002 31.6696 0.0626673
108.548 32.1749 0.0533776
108.665 32.4954 0.0495761
108.739 32.7891 0.0457229
108.251 -24.032 0.14653
108.767 -24.0583 0.140089
108.698 -23.7536 0.142082
109.61 -23.9335 0.13104
109.764 -23.8077 0.129236
107.2 -21.126 0.174028
116.105 -22.7084 0.0584161
114.39 -20.1035 0.0911212
116.351 -20.2878 0.0662249
116.658 -20.2772 0.0625631
117.281 -20.2561 0.0542484
118.259 -20.3308 0.0423022
119.07 -20.353 0.0321845
119.936 -20.3845 0.0211241
120.52 -20.334 0.0137738
123.112 -18.0087 -0.00987267
118.985 -7.66572 -0.357083
90.6668 10.5143 0.151994
87.9995 9.42261 0.209833
108.033 31.3973 -0.35836
108.444 31.9206 -0.370793
108.611 32.2747 -0.377532
108.731 32.4787 -0.382356
108.831 32.7902 -0.387177
71.4711 15.3001 0.391064
111.709 -18.5329 -0.255462
112.249 -18.3204 -0.264824
112.381 -18.1735 -0.266647
112.736 -18.0866 -0.273239
112.184 -17.1233 -0.256629
111.955 -16.7076 -0.250786
113.071 -16.3455 -0.269485
113.482 -13.7239 -0.266451
113.302 -13.5122 -0.261601
113.225 -13.3193 -0.259643
109.806 -7.89089 -0.440173
109.821 -7.72853 -0.44012
109.805 -7.56392 -0.440101
120.554 -0.47778 -0.704766
108.227 31.5894 -0.676105
109.552 32.7599 -0.720395
98.7152 25.293 -0.389911
108.73 32.6564 -0.702317
108.761 32.9196 -0.706224
77.5048 12.1599 0.231964
71.4606 15.2582 0.275044
71.4413 15.3556 0.273044
63.8436 14.8685 0.363625
86.5639 -18.4314 0.0460578
102.554 -17.9755 -0.317351
103.931 -16.931 -0.341612
104.315 -16.9659 -0.351201
104.643 -16.9036 -0.358828
104.389 -15.6602 -0.343829
104.796 -15.6115 -0.352373
107.69 -13.9063 -0.412827
107.308 -13.2634 -0.400102
106.315 -12.2052 -0.369952
106.547 -12.0908 -0.374673
101.83 -9.16183 -0.50718
101.875 -9.0286 -0.508101
102.021 -8.90783 -0.511915
102.076 -8.77493 -0.512825
102.112 -8.63952 -0.513755
102.108 -8.5694 -0.512744
102.073 -8.42549 -0.51175
102.056 -8.28408 -0.510737
102.058 -8.14504 -0.509704
102.036 -8.00396 -0.508696
102.072 -7.86855 -0.509627
102.115 -7.73406 -0.51055
102.161 -7.66843 -0.511486
102.183 -7.53117 -0.511431
102.172 -7.39154 -0.511411
102.179 -7.2533 -0.510372
102.184 -7.11466 -0.510337
102.237 -6.97951 -0.512248
102.251 -6.84219 -0.512202
102.345 -6.22311 -0.512962
102.365 -6.08558 -0.513909
102.379 -5.94727 -0.513863
102.646 -4.91441 -0.520341
102.883 -4.85216 -0.527068
103.018 -4.71567 -0.531891
103.203 -4.57995 -0.536657
103.391 -4.44252 -0.542421
103.537 -4.30364 -0.54723
103.682 -4.16351 -0.551041
103.83 -4.02278 -0.555847
104.046 -3.95367 -0.562596
104.268 -3.81167 -0.569322
104.519 -3.66853 -0.577015
104.701 -3.52324 -0.582784
104.878 -3.37741 -0.588557
105.028 -3.23087 -0.592361
105.672 -2.85555 -0.612573
105.614 -2.70761 -0.610603
105.98 -2.5515 -0.622168
106.245 -2.39607 -0.630844
106.433 -2.24053 -0.636604
106.587 -2.08546 -0.641401
106.774 -2.00347 -0.647177
106.955 -1.84489 -0.652945
107.112 -1.68625 -0.657737
107.302 -1.5249 -0.663494
107.487 -1.36288 -0.670255
107.698 -1.19821 -0.676988
107.83 -1.03628 -0.680807
107.984 -0.873149 -0.685603
108.164 -0.785146 -0.691386
108.385 -0.614729 -0.698107
107.975 0.538359 -0.688298
108.016 0.699411 -0.690218
107.801 0.837927 -0.683421
107.768 0.991625 -0.682423
88.84 15.2276 -0.256955
95.5573 22.8483 -0.56091
89.688 18.8626 -0.341217
71.4519 15.2745 0.138038
63.889 15.0955 0.242726
63.9398 15.4772 0.230866
-11.4094 15.8513 -1.53347
39.3197 -17.2814 0.0786397
60.484 -19.2858 0.340342
63.4532 -19.4579 0.316552
81.7863 -18.6278 -0.0212115
94.6712 -16.2324 -0.345585
100.756 -12.8777 -0.496182
99.3527 -12.2945 -0.449587
101.793 -10.9759 -0.515624
101.793 -10.8356 -0.514594
101.725 -10.6833 -0.511634
101.692 -10.5377 -0.509637
101.688 -10.397 -0.50861
101.709 -10.3302 -0.508572
101.754 -10.198 -0.509494
101.718 -10.0519 -0.5075
101.73 -9.91433 -0.507456
101.741 -9.77648 -0.507414
101.768 -9.64088 -0.507355
101.805 -9.50659 -0.508284
101.805 -9.43701 -0.507268
101.819 -9.29968 -0.507222
96.3914 -5.88483 -0.579399
96.4393 -5.76812 -0.58032
96.4643 -5.64837 -0.581266
96.4892 -5.52961 -0.582212
96.515 -5.41099 -0.582158
96.541 -5.29138 -0.583103
96.5761 -5.23249 -0.584051
98.7445 -2.34123 -0.664035
98.8648 -2.21095 -0.668875
98.9741 -2.07922 -0.672726
99.1271 -1.94523 -0.678529
99.2868 -1.87468 -0.685338
99.2798 -1.74562 -0.685317
99.5376 -1.60539 -0.695004
99.7296 -1.4665 -0.701763
99.8568 -1.32909 -0.706593
99.973 -1.19121 -0.711436
100.078 -1.05386 -0.71629
100.198 -0.981008 -0.720143
100.479 -0.697574 -0.731773
100.627 -0.553872 -0.737578
100.785 -0.409508 -0.743373
101.373 0.110515 -0.766614
101.557 0.262619 -0.774379
101.696 0.411603 -0.780194
102.209 0.597562 -0.799592
93.4769 8.32175 -0.537421
92.3078 8.46721 -0.498668
77.4826 12.1044 -0.0760726
63.8553 14.9316 0.121652
63.9326 15.2926 0.107817
63.9816 15.6765 0.0929563
58.9617 11.2579 0.288481
59.1435 18.1937 0.0232252
80.783 -20.3999 -0.212704
84.548 -18.8681 -0.297245
84.6508 -18.8162 -0.299121
92.1915 -12.769 -0.468526
95.4659 -0.598478 -0.766233
95.5183 -0.477336 -0.769149
95.5895 -0.41216 -0.772057
95.6931 -0.285718 -0.776915
96.3866 0.49767 -0.809982
94.6766 8.10874 -0.805157
92.2423 8.40539 -0.708753
77.3899 11.9675 -0.216205
63.8965 15.0815 0.000730624
59.0764 18.1734 -0.104853
0.91478 15.42 -1.89208
-5.80356 -7.74616 -2.07459
10.0257 -13.654 -1.39559
13.6426 -14.9626 -1.24893
61.2798 -19.0839 0.144257
90.4486 -1.7003 -0.730966
90.5192 -1.59469 -0.734866
90.6244 -1.48661 -0.739727
91.6366 -0.157502 -0.794323
91.8248 6.91147 -0.872543
91.8587 7.0371 -0.876478
91.7854 7.13059 -0.873537
91.6877 7.21522 -0.870625
91.5604 7.28966 -0.865748
91.5099 7.38817 -0.864781
91.4379 7.42298 -0.861852
91.4751 7.55119 -0.865783
91.4574 7.66048 -0.866778
91.4567 7.77659 -0.868753
91.4518 7.89124 -0.869733
91.4172 7.9957 -0.870747
87.8268 12.7791 -0.805609
77.4005 12.0004 -0.359186
64.5836 13.8683 -0.0627882
-1.2081 14.4437 -2.32762
-2.76179 14.3892 -2.40333
-2.8409 14.204 -2.40446
6.14351 -7.70884 -1.83152
61.2232 -19.0854 0.0531952
63.639 -19.5501 0.00173404
67.977 -19.861 -0.0985905
68.045 -19.858 -0.100515
73.935 -20.0152 -0.279108
73.9817 -19.9599 -0.279045
74.0169 -19.9454 -0.280003
74.0857 -19.9132 -0.280921
74.1679 -19.8949 -0.282827
74.2332 -19.8592 -0.283747
74.2933 -19.8167 -0.284672
75.6967 -19.1944 -0.311999
89.3933 4.99852 -0.936629
88.9575 6.56065 -0.938757
88.9313 6.65897 -0.938764
88.8363 6.68069 -0.933863
88.8766 6.80143 -0.937792
88.8703 6.90617 -0.939776
87.7789 12.1601 -1.0008
87.76 12.2685 -1.0028
87.7294 12.3715 -1.00381
87.7399 12.4962 -1.00777
87.7419 12.617 -1.01074
87.7766 12.7566 -1.01667
46.474 16.698 -0.476966
5.79041 11.0276 -2.28073
4.00153 10.5172 -2.3728
12.5849 -7.60159 -1.79245
29.4547 -16.5604 -0.97299
83.4989 -6.74164 -0.695691
86.9991 5.91335 -0.985044
86.9307 5.99104 -0.982101
86.8486 6.06351 -0.979175
86.7199 6.11998 -0.972303
86.8557 6.2159 -0.982133
86.8253 6.30569 -0.982146
86.9093 11.6362 -1.11687
87.5658 12.2177 -1.16902
87.6428 12.3185 -1.17591
87.5599 12.3931 -1.17399
87.5748 12.5202 -1.17794
87.542 12.6224 -1.17896
54.692 19.2231 -0.567415
48.539 13.6358 -0.372389
16.1263 2.35529 -1.82436
16.1383 2.2185 -1.82337
16.0792 2.0922 -1.82547
16.0763 2.025 -1.82548
83.5082 -6.82357 -0.697699
84.6209 5.334 -1.02977
84.622 5.42565 -1.03175
84.5726 5.50183 -1.03079
86.7144 11.7692 -1.33505
86.6201 11.8342 -1.33114
48.6311 13.6751 -0.50828
64.8623 -17.1212 -0.189387
64.8952 -17.0792 -0.187342
77.9666 -12.2369 -0.613966
83.3367 4.9319 -1.06927
83.3161 5.01231 -1.06927
83.2999 5.09518 -1.07027
48.7836 13.0313 -0.558257
48.8355 12.8227 -0.543246
69.3997 -17.4364 -0.458495
78.8906 -5.50694 -0.791456
78.8929 -5.47396 -0.791446
81.6 4.44272 -1.10028
48.9541 12.932 -0.669092
26.8355 7.886 -1.86341
69.3293 -16.5332 -0.51537
77.958 -9.89224 -0.792453
78.0373 -9.84933 -0.797357
78.1089 -9.80437 -0.802269
78.0582 -9.75324 -0.796313
78.0737 -9.68973 -0.796282
78.0776 -9.62266 -0.795262
78.1182 -9.56754 -0.797206
78.0216 -0.832453 -0.841365
78.0363 -0.767821 -0.843335
78.0601 -0.732658 -0.846301
79.9264 3.96531 -1.09321
48.9111 12.9489 -0.780136
48.9053 12.8377 -0.772167
48.7982 12.9649 -0.786255
78.2285 3.08558 -1.05827
31.9398 8.31644 -1.82673
31.9579 8.21012 -1.82173
74.7391 -10.6866 -0.788151
76.0279 0.029087 -0.909354
76.7942 2.86786 -1.05288
72.0871 10.4258 -1.05735
71.7709 10.2792 -1.02573
54.9252 14.3166 -0.927253
48.8845 12.8536 -1.00619
47.5314 16.365 -1.51088
47.4766 16.3168 -1.50995
67.1249 11.9659 -1.11143
55.4697 12.0025 -0.893173
73.4271 4.44584 -1.13522
73.3458 4.46472 -1.1273
66.1657 11.8605 -1.15651
48.6954 13.9756 -1.48614
69.0324 -11.5494 -0.796585
69.4266 -10.2087 -0.743855
65.3033 10.7697 -1.17069
65.1907 10.7655 -1.16482
56.6721 6.28981 -0.41513
68.0675 -11.9698 -0.804734
68.1111 -11.9534 -0.806683
50.5218 11.6372 -1.44467
50.4923 11.6351 -1.4467
50.44 11.6208 -1.44776
64.4419 9.94414 -1.23182
64.3946 9.95245 -1.23087
64.3543 9.97597 -1.23091
64.3055 9.98045 -1.22896
64.2666 10.0068 -1.23
64.2444 10.0138 -1.23002
64.1857 9.55756 -1.23218
64.1394 9.56574 -1.23023
64.1084 9.60618 -1.23426
64.0719 9.63525 -1.23629
63.9718 9.51944 -1.21443
63.8896 9.07641 -1.24962
63.8625 9.1224 -1.25463
63.8334 9.16158 -1.25766
56.7664 6.63954 -0.716949
63.6024 8.23697 -1.25912
63.5623 8.24634 -1.25716
63.5276 8.26609 -1.25819
63.4905 8.28313 -1.25823
63.4561 8.30486 -1.25926
63.4129 8.30657 -1.25631
51.3461 8.35577 -1.4045
51.3294 8.29847 -1.39853
63.3027 7.03804 -1.28371
63.265 7.04305 -1.28175
63.2305 7.05672 -1.28179
63.2016 7.08176 -1.28381
63.1881 7.09464 -1.28482
63.1534 7.10633 -1.28386
63.1243 7.13038 -1.28589
63.0926 7.14973 -1.28592
63.0564 7.15858 -1.28495
63.0289 7.18646 -1.28798
56.7541 8.49764 -1.36355
56.7145 8.50391 -1.36559
56.6781 8.49564 -1.36463
56.6401 8.49061 -1.36468
56.6045 8.47315 -1.36272
56.5841 8.4789 -1.36374
63.0004 6.76049 -1.3001
62.9693 6.77674 -1.30013
62.949 6.77541 -1.29916
62.9206 6.79734 -1.30018
62.8897 6.81557 -1.30121
56.8119 8.11366 -1.38057
56.773 8.12389 -1.38361
56.7558 8.11609 -1.38263
56.7193 8.11489 -1.38267
56.6829 8.10662 -1.38271
56.6449 8.11672 -1.38575
56.6905 7.64055 -1.39581
56.6557 7.6371 -1.39585
59.9689 6.2439 -1.41854
59.9382 6.24799 -1.41857
59.9106 6.26781 -1.42159
62.945 -8.04974 -0.933464
-13.8766 11.3369 -25.1352
60.8029 -3.32414 -0.254754
57.3313 -1.89078 0.0137689
57.3027 -1.9243 0.01873
57.0697 -4.78154 0.0268387
57.4978 -2.20049 0.131882
123.261 -19.5939 -28.0281
123.286 -19.4924 -28.028
57.5397 -2.15158 0.101939
57.5872 -2.24871 0.149969
57.5801 -2.24171 0.145963
57.5188 -2.18713 0.0939079
57.3485 -1.89909 -0.0582143
57.5169 -2.19394 0.0969043
57.516 -2.20088 0.0989017
57.4726 -2.14061 0.0648677
57.4391 -2.09681 0.0398408
57.4095 -2.05352 0.0158181
57.4018 -2.05148 0.0138101
57.4133 -2.07824 0.0268168
57.424 -2.10388 0.0398228
57.4238 -2.11293 0.0428205
57.298 -1.9297 -0.0582763
57.4484 -2.26857 0.107813
57.4129 -2.28503 0.10477
57.2875 -2.12202 0.0106693
57.11 -4.72938 -0.0201056
59.6386 -4.65021 -0.0653223
59.6109 -4.72218 -0.0973686
59.5742 -4.67897 -0.0713991
59.585 -4.68142 -0.0753879
59.5631 -4.61092 -0.0453961
-1.962 1.15033e-41 0
