ply
format ascii 1.0
element vertex 607
property float x
property float y
property float z
end_header
115.243 8.08871 3.1653
94.7956 13.4392 2.50951
95.574 14.9252 2.53804
96.0864 15.4698 2.55631
95.9524 15.5327 2.5521
46.3095 20.0292 1.28753
46.3723 20.2536 1.29417
46.4167 20.5319 1.30151
35.4566 15.0864 1.08974
25.1318 18.7981 1.30651
21.9256 20.8288 1.41359
22.3518 16.5085 1.31095
22.1265 16.5604 1.31692
22.0142 16.5853 1.31991
21.9144 16.592 1.32199
21.793 16.6267 1.32593
21.6904 16.6357 1.328
21.6387 16.6413 1.33003
21.4924 16.7023 1.33385
21.3825 16.7189 1.33688
21.2797 16.7259 1.33996
17.366 19.953 1.49499
17.229 19.97 1.49805
15.5611 20.3309 1.54593
18.7235 14.2171 1.35741
6.28862 21.107 1.80637
5.88458 20.0221 1.80309
3.3434 20.4977 1.88334
-1.62099 21.5811 2.04494
-2.03147 21.6623 2.05795
-28.874 30.949 2.98405
-28.5506 30.5372 2.97004
-4.1657 16.3911 2.07381
-40.0089 -14.0544 3.41622
-6.75026 -14.3529 2.28384
-6.74197 -14.4992 2.28567
-7.42085 -15.2376 2.32072
-7.51617 -15.421 2.32689
15.4204 -8.63592 1.45186
-4.98958 -16.6491 2.26299
15.3305 -9.30857 1.46684
21.1204 -10.1239 1.29872
21.1652 -10.162 1.29889
21.2111 -10.2001 1.29805
5.95108 -19.3209 1.96951
12.2155 -15.7073 1.69734
17.939 -15.5362 1.52562
22.7428 -15.6437 1.40259
22.9266 -15.6307 1.3973
81.4975 -36.9577 2.72627
102.902 -17.402 2.95654
102.937 -17.1892 2.95428
102.962 -16.9746 2.95201
103.009 -16.7649 2.95075
103.014 -16.6559 2.95012
103.042 -16.4426 2.94786
103.073 -16.2295 2.94559
103.106 -16.0175 2.94433
115.45 1.26188 2.69235
115.363 2.00423 2.68718
115.192 7.97074 2.66103
46.3514 20.1311 1.14089
46.3841 20.3782 1.14643
21.9727 20.91 1.24606
21.9663 20.768 1.24388
21.937 20.6621 1.24253
-4.14462 16.9558 1.79553
-30.6662 26.4705 2.54493
61.9045 -19.2514 1.55935
102.207 -17.7614 2.50942
102.186 -17.5367 2.50615
102.182 -17.3166 2.50289
102.198 -17.1021 2.50064
102.219 -16.8892 2.49839
102.259 -16.6799 2.49713
102.271 -16.4652 2.49488
102.285 -16.36 2.49426
102.352 -16.1571 2.49301
102.414 -15.9537 2.49277
102.496 -15.754 2.49253
102.94 -15.6332 2.50231
67.7919 13.4019 1.29444
46.3648 20.0319 1.02845
46.3901 20.2646 1.03208
46.4318 20.534 1.03648
35.4254 14.8923 0.904888
21.9613 20.8721 1.12129
21.9442 20.7461 1.11903
-2.55774 -16.6381 1.71906
84.3475 -21.1867 1.86812
115.266 7.99573 1.68878
106.206 10.626 1.55428
67.8443 13.3145 1.03388
46.3878 20.1362 0.851816
46.4191 20.3795 0.853379
21.9822 20.6543 0.918515
-20.4968 -17.222 1.6875
-34.3701 -24.7618 1.98321
111.084 -25.4406 1.87319
112.454 -25.6225 1.89363
106.987 -18.4809 1.74893
108.633 -18.7642 1.77363
108.716 -18.3037 1.77088
102.164 -15.7761 1.65803
86.9645 9.49756 1.02838
77.015 8.58315 0.945336
67.7445 13.3683 0.855681
54.8793 15.1912 0.760303
46.3799 20.1382 0.730811
46.4066 20.3748 0.731418
21.9771 20.7804 0.784793
21.9665 20.6478 0.784568
75.49 -17.2979 1.10013
75.5156 -17.1656 1.09933
88.4659 -21.8737 1.25022
97.3516 -20.4397 1.31153
97.3938 -20.2437 1.31035
115.339 7.82616 0.732654
111.033 9.11803 0.717276
100.888 9.99376 0.693156
88.5127 8.94053 0.674762
87.2798 9.94871 0.667407
87.3144 10.4596 0.664425
54.9993 15.2099 0.589052
46.3682 20.2357 0.566261
46.39 20.4616 0.565935
35.3887 14.0153 0.588975
22.0266 20.762 0.600838
22.0062 20.6433 0.600545
35.8608 -16.8656 0.767202
47.9473 -18.0187 0.774637
51.7871 -11.897 0.729882
111.198 -25.5315 0.92656
112.551 -25.7079 0.930986
97.1161 -20.4208 0.866686
97.169 -20.2286 0.865518
101.775 -17.5747 0.856827
101.852 -17.3767 0.855596
101.868 -17.1623 0.854343
101.89 -16.9504 0.853097
101.848 -16.7229 0.851836
101.884 -16.5152 0.850599
101.946 -16.3129 0.849361
102.022 -16.2222 0.848749
102.024 -16.0055 0.8475
103.511 -15.6798 0.847877
116.152 5.1831 0.372907
116.161 5.43527 0.371445
116.051 5.6778 0.370178
116.105 5.9351 0.368634
115.679 7.90766 0.357778
67.8222 13.3873 0.452473
62.1694 11.8449 0.476996
56.9215 16.7716 0.4568
43.1076 16.4216 0.488049
43.0675 16.4 0.48822
43.0027 16.3937 0.488333
42.9433 16.4029 0.48835
21.9378 20.781 0.47683
21.9077 20.6773 0.477463
-31.6187 34.2605 0.383165
-32.9024 29.1651 0.416008
-35.0061 26.1489 0.434845
75.7355 -16.989 0.606051
101.462 -24.0368 0.575391
104.703 -24.4526 0.568977
97.6891 -20.1554 0.56448
101.763 -17.3266 0.538407
101.731 -17.1009 0.537146
101.63 -16.8603 0.536878
101.673 -16.6532 0.535635
101.682 -16.4402 0.534399
101.733 -16.2358 0.533163
101.895 -16.0563 0.531938
101.823 -15.9325 0.531311
115.586 4.81005 -0.127289
114.59 4.98149 -0.119105
113.564 5.14359 -0.110832
112.634 5.30819 -0.103687
110.109 5.79111 -0.0834989
94.912 4.99651 0.0589367
90.0456 9.30188 0.0728701
87.5391 9.39467 0.0942818
87.9599 13.6912 0.0570518
56.9627 16.8764 0.282145
46.3705 20.2179 0.305357
21.993 20.6789 0.31035
52.3094 -18.6766 0.522294
53.154 -18.6501 0.517149
51.8394 -11.8717 0.522671
90.9138 -22.5243 0.224074
108.683 -24.9992 0.0794379
95.5273 -20.4575 0.177753
97.5873 -20.2834 0.159329
105.594 -21.9525 0.0955278
112.61 -23.1495 0.0381732
102.383 -17.3191 0.106628
101.378 -16.6419 0.11291
101.251 -16.3969 0.112649
102.248 -15.8699 0.102442
102.315 -15.6679 0.101201
103.039 -15.6078 0.0940041
116.255 0.16536 -0.594343
98.4971 3.16793 -0.343756
68.9842 3.85662 0.096969
69.0688 3.97469 0.0951898
69.0486 4.07584 0.0946313
67.7833 13.3701 0.0206106
46.3422 20.1251 0.161921
38.0593 29.0187 0.025453
37.9666 29.0609 0.0243188
37.8692 29.0253 0.0256385
37.8233 29.0634 0.0244729
37.6876 28.0626 0.0453947
-35.5625 -14.1815 -0.241333
76.2851 -17.2088 0.0696612
92.0922 -22.2361 -0.151977
92.3579 -22.1359 -0.155866
92.6065 -22.1285 -0.159201
93.3988 -21.8154 -0.170935
107.717 -12.4993 -0.403398
113.487 -12.9149 -0.488787
113.709 -12.8239 -0.492571
96.611 -4.77312 -0.68783
96.5246 -4.57884 -0.686847
102.684 -0.241653 -0.846056
95.2604 0.0198404 -0.683835
77.1272 8.23448 -0.351811
69.0654 13.1571 -0.242674
44.1042 18.7542 0.0534418
-32.231 33.423 -1.10732
75.5659 -17.0854 -0.213209
81.9571 -15.7999 -0.345123
92.9512 -15.7717 -0.580209
92.572 -14.4596 -0.572317
95.8375 -12.5984 -0.645871
95.3429 -11.6426 -0.636791
93.9059 -11.2016 -0.606641
88.2259 -5.06236 -0.766312
88.222 -4.98071 -0.766777
88.2392 -4.8186 -0.767731
88.5094 -3.77121 -0.780079
88.4777 -3.60581 -0.779993
88.367 -3.43751 -0.777832
88.1111 -3.26453 -0.771527
94.4066 1.7722 -0.972925
94.1963 2.39792 -0.97128
77.3875 8.3088 -0.573549
76.2331 8.171 -0.541398
67.8689 13.2849 -0.397007
49.3896 19.8037 -0.154815
45.8994 17.0017 -0.0255801
36.1814 15.6345 0.0887126
34.4861 14.9126 0.109862
32.8125 14.9093 0.104847
21.4711 17.3423 -0.0868347
21.7111 16.9299 -0.0727424
7.78479 21.7612 -0.432196
73.6686 -18.7385 -0.389466
73.8109 -18.6616 -0.393076
82.6624 -15.2056 -0.606377
83.8176 -15.2305 -0.636592
84.8857 -14.0702 -0.663527
84.7537 -13.2265 -0.659229
85.1595 -13.1657 -0.670057
85.2854 -13.1145 -0.6735
85.1282 -12.915 -0.669463
86.172 -12.3429 -0.696984
86.1184 -11.9226 -0.69534
87.3521 -11.5207 -0.729104
87.4236 -11.3684 -0.731065
87.6222 -11.3245 -0.736551
87.3154 -10.4364 -0.728304
87.2713 -10.2638 -0.728245
87.8565 -6.41728 -0.752077
87.7332 -6.24286 -0.748937
80.6973 -5.08507 -0.825335
80.6974 -4.94556 -0.826138
80.7166 -4.8067 -0.82696
80.7237 -4.6678 -0.827768
80.7219 -4.52811 -0.82857
80.7241 -4.38777 -0.828381
80.6913 -4.31563 -0.827758
80.6764 -4.1758 -0.827545
80.6776 -4.03637 -0.828349
80.7007 -3.89786 -0.829174
80.6868 -3.75812 -0.829962
80.6979 -3.61957 -0.830773
80.7111 -3.48019 -0.831591
80.7282 -3.34215 -0.832405
80.7713 -3.27466 -0.834844
80.7854 -3.13537 -0.835663
80.7856 -2.99585 -0.836466
80.7547 -2.85562 -0.836237
81.0181 -1.9552 -0.848731
81.2559 -1.81845 -0.857798
81.4476 -1.68066 -0.864816
81.5242 -1.53981 -0.867717
81.6388 -1.46954 -0.872257
81.7616 -1.32773 -0.877217
81.8875 -1.18518 -0.882186
82.0445 -1.04234 -0.888193
82.2197 -0.898097 -0.895229
82.4051 -0.752727 -0.902284
82.6086 -0.605937 -0.909369
82.7738 -0.531068 -0.914994
82.8971 -0.383276 -0.91999
82.9804 -0.234982 -0.923941
83.1681 -0.0848057 -0.931027
83.3148 0.0659588 -0.937067
83.4244 0.216963 -0.942065
83.4615 0.365291 -0.943963
83.7308 0.449096 -0.953762
83.928 0.604466 -0.960888
84.0208 0.757947 -0.965881
84.0934 0.91119 -0.968848
84.2204 1.06669 -0.973893
84.3808 1.22528 -0.980995
84.5363 1.38432 -0.987093
84.6494 1.54203 -0.992134
84.7651 1.62525 -0.996749
85.1146 1.7994 -1.00916
85.3744 1.96936 -1.01945
85.5253 2.13381 -1.02557
85.5702 2.29149 -1.02853
85.794 2.4636 -1.03679
86.2324 3.04652 -1.05666
86.3098 3.36899 -1.0616
86.578 9.68629 -1.13829
77.4449 8.10558 -0.82145
77.1753 8.11112 -0.813165
76.9415 8.19184 -0.806355
58.6355 6.39193 -0.19547
67.997 13.2825 -0.606147
67.8406 13.3303 -0.602239
57.0155 16.8077 -0.378533
57.0427 16.9469 -0.382366
45.8458 16.7347 -0.137982
45.8966 16.9019 -0.145004
34.4901 14.8675 0.0151147
33.1271 17.0972 -0.0731213
33.0996 16.92 -0.0670685
31.1288 16.0444 -0.0477115
21.5009 17.3398 -0.227858
21.5061 17.2149 -0.224145
1.13649 22.315 -0.828579
67.3418 -18.9767 -0.448661
67.4165 -18.8909 -0.450242
69.7296 -15.3862 -0.489138
74.7733 -13.4269 -0.636347
76.7501 -13.6412 -0.699437
79.7823 -10.9345 -0.790584
79.7455 -9.50783 -0.787754
80.4954 -8.0146 -0.813232
80.447 -7.93608 -0.811628
80.4225 -7.79139 -0.811432
80.4961 -7.66132 -0.813267
80.554 -7.52786 -0.816103
80.6087 -7.39514 -0.817932
80.6319 -7.25663 -0.818757
80.6421 -7.11699 -0.819572
80.5927 -7.03938 -0.817961
80.5691 -6.89577 -0.81676
80.5663 -6.755 -0.817567
80.5657 -6.6134 -0.817382
80.541 -6.4707 -0.817174
80.5214 -6.32745 -0.816976
80.618 -6.19839 -0.819832
80.6977 -6.1371 -0.822279
80.7684 -6.00478 -0.825124
80.7946 -5.86654 -0.82695
80.6998 -5.43562 -0.82432
80.6542 -5.29109 -0.823098
80.6692 -5.22215 -0.824513
67.9924 5.44646 -0.693032
77.3437 8.04156 -1.09197
77.197 8.14275 -1.08838
77.0584 8.24524 -1.0838
68.0942 13.2817 -0.83726
67.9252 13.3236 -0.832303
55.0889 15.2672 -0.451401
36.2067 14.0194 -0.0510211
33.1186 17.0701 -0.194958
33.093 16.8917 -0.1869
28.2141 16.0724 -0.204451
62.0511 -18.1449 -0.490232
65.7941 -14.634 -0.574844
65.8179 -14.5337 -0.57545
73.7499 -10.549 -0.846716
72.6704 -10.0377 -0.80339
75.316 -6.94191 -0.901323
75.3297 -6.81965 -0.902043
75.3514 -6.69807 -0.902768
75.3542 -6.57385 -0.903487
75.359 -6.45079 -0.903201
75.34 -6.32365 -0.90291
75.2961 -6.19432 -0.900603
75.2697 -6.12877 -0.899949
75.2051 -5.62722 -0.897761
75.2506 -5.50874 -0.900496
75.3309 -5.39431 -0.90325
73.8802 7.08511 -1.17239
73.8205 7.19473 -1.17095
73.7731 7.30729 -1.17055
68.0811 13.2374 -1.04199
67.9289 13.2869 -1.0371
54.2018 14.2722 -0.533632
35.4682 14.8732 -0.185071
-32.6222 -8.68691 -2.34346
-16.5357 -13.2113 -1.6623
59.5404 -15.138 -0.520593
71.2755 4.0682 -1.21496
70.3541 6.29704 -1.20171
70.3314 6.34721 -1.20097
70.2861 6.44855 -1.2005
70.3042 6.56439 -1.20319
67.4456 12.9387 -1.20353
67.7459 13.1362 -1.22302
58.6517 14.618 -0.861858
40.0997 14.0231 -0.255621
38.9204 16.908 -0.402846
38.8521 16.8267 -0.397297
35.4767 14.8217 -0.274786
29.7533 23.1761 -0.780165
29.7913 22.5998 -0.748891
29.6388 19.8103 -0.60065
-19.7325 -8.22144 -2.11328
54.5178 -18.3238 -0.546351
54.5524 -18.2496 -0.545819
54.627 -18.2119 -0.547123
54.6904 -18.1643 -0.548472
54.7593 -18.1221 -0.549796
55.6784 -17.4146 -0.565949
55.7393 -17.3617 -0.567325
55.7981 -17.3086 -0.5677
55.8645 -17.2612 -0.569051
55.7726 -17.0835 -0.560966
55.957 -17.1328 -0.569899
58.3464 -15.9347 -0.639605
58.404 -15.8735 -0.641025
58.4814 -15.8261 -0.643389
58.5589 -15.7777 -0.645759
58.6279 -15.7235 -0.647152
50.4932 13.302 -0.61869
50.3971 13.2934 -0.614527
50.3805 13.3681 -0.616938
50.2455 13.3167 -0.609483
50.1858 13.2998 -0.606316
43.9335 12.8892 -0.3696
35.4974 14.8293 -0.377856
30.0515 22.9143 -0.921011
63.2469 -3.04075 -1.0576
63.1771 -2.90914 -1.05328
63.1947 -2.74204 -1.05426
63.2244 -2.57501 -1.05726
63.2117 -2.49058 -1.05673
63.2224 -2.44835 -1.05698
63.2397 -2.36555 -1.05848
63.243 -2.28152 -1.05897
63.2383 -2.19679 -1.05845
63.2347 -2.11215 -1.05893
63.23 -2.02842 -1.05941
63.2023 -1.94368 -1.05786
63.2206 -1.85996 -1.05937
63.1972 -1.81775 -1.05758
63.1985 -1.73355 -1.05807
63.1839 -1.64895 -1.05754
63.1912 -1.56527 -1.05903
63.2025 -1.48194 -1.05952
63.1888 -1.39742 -1.05899
63.1851 -1.31378 -1.05947
63.1877 -1.27186 -1.05971
63.195 -1.18818 -1.06121
63.1893 -1.10436 -1.06068
63.2168 -0.767488 -1.06465
63.2144 -0.726122 -1.06489
63.2127 -0.641659 -1.06537
63.2049 -0.558665 -1.06584
63.1822 -0.47436 -1.0653
63.1744 -0.39136 -1.06477
63.1495 -0.307876 -1.06422
63.1417 -0.224883 -1.06469
63.1102 -0.183968 -1.06289
63.1074 -0.100414 -1.06336
63.0715 -0.0179584 -1.0618
63.0476 0.0644423 -1.06124
63.5018 0.896847 -1.09757
53.4741 6.46642 -0.594841
50.5019 13.3679 -0.730081
45.8273 16.5501 -0.732908
45.8441 16.7192 -0.743901
-11.3158 10.4218 -2.4315
-11.2842 10.2554 -2.42558
54.0274 -15.3788 -0.709731
53.2382 -14.658 -0.646953
54.1031 -15.259 -0.70951
53.2863 -14.5668 -0.646534
62.3134 -6.62183 -1.00889
62.1599 -6.50596 -0.998374
61.9926 -6.38787 -0.986857
61.8794 -6.28256 -0.97933
35.4257 14.7461 -0.570296
-0.371221 -6.1032 -1.86322
61.5611 5.24598 -1.35433
61.6189 5.34528 -1.36097
53.2038 6.49889 -0.799713
38.472 13.8814 -0.590898
36.817 13.6669 -0.562718
36.7717 13.734 -0.568051
35.5826 15.6691 -0.721797
35.3135 14.6451 -0.641584
7.4118 18.0241 -2.02527
2.99442 13.0353 -2.10336
58.9153 3.45808 -1.27093
58.9352 3.53662 -1.2744
45.9106 16.4724 -1.10156
45.8465 16.4861 -1.09957
42.3682 -15.2066 -0.521018
53.0129 13.2289 -1.37024
52.9052 13.2253 -1.3631
45.806 15.4485 -1.12855
45.9123 16.4816 -1.21762
38.4968 13.8575 -0.867795
45.8973 16.2768 -1.44443
38.4714 13.8893 -0.967949
36.7124 17.0457 -1.28106
13.4708 -6.3183 -1.63725
36.9503 13.7258 -1.02922
51.6798 -7.56469 -1.07896
40.7308 14.5441 -1.28838
40.5073 14.6058 -1.28947
38.0595 13.5881 -1.12073
37.747 16.9288 -1.50661
37.1715 16.8327 -1.49038
49.8438 -9.52835 -1.0915
49.8715 -9.4876 -1.09177
49.8668 -9.3687 -1.08545
49.5162 8.91888 -1.38832
49.4889 8.96341 -1.38955
49.452 8.99977 -1.38871
42.9819 13.3111 -1.33693
42.9629 13.392 -1.34537
40.4669 14.2356 -1.34429
40.4588 14.3035 -1.35268
37.8118 16.5333 -1.57041
37.7422 16.3568 -1.54831
36.0146 7.96731 -0.510962
35.9992 7.98671 -0.514056
35.7104 15.3572 -1.51516
48.465 -8.73118 -1.08647
37.6064 15.0566 -1.56466
36.0565 8.14962 -0.636063
47.2168 8.38308 -1.39254
36.0052 8.03436 -0.68534
20.5706 2.66889 -1.59333
20.5723 2.64264 -1.59218
46.4997 8.07003 -1.44489
46.454 8.08709 -1.44194
46.3819 8.07739 -1.43279
46.3296 8.08701 -1.42779
36.031 8.25013 -0.823615
48.0965 0.510496 -1.20524
48.0987 0.547436 -1.20646
48.0892 0.621551 -1.20687
48.0918 0.640386 -1.20799
36.0742 8.34396 -1.12721
36.0439 8.34259 -1.12717
36.0307 8.29461 -1.11888
43.6522 5.1223 -1.35657
34.4935 -8.81544 -1.22457
43.0349 1.33327 -1.24203
43.0142 1.34916 -1.2381
43.0185 1.37486 -1.24225
43.0091 1.38272 -1.24029
43.0081 1.40588 -1.24242
-14.0864 11.3081 -17.7416
-14.1058 11.1442 -17.7336
-14.1507 10.9865 -17.7347
40.0896 -16.2862 -4.7952
40.13 -16.2495 -4.78646
39.026 -0.988069 -0.495945
38.9591 -1.94792 -0.498341
38.9628 -1.94022 -0.499389
35.5055 0.248977 -0.203924
35.44 0.268632 -0.225961
35.3353 -2.63921 -0.201097
35.6647 -0.0213058 -0.0995537
35.7063 0.0300887 -0.129899
35.7494 -0.0507363 -0.0884837
35.7488 -0.0576982 -0.0864429
35.6662 0.0194126 -0.151791
35.6781 -0.00564623 -0.13966
35.6775 -0.0126022 -0.136619
35.6361 0.0430218 -0.168892
35.6097 0.0733373 -0.187035
35.5625 0.131465 -0.221315
35.5574 0.129902 -0.2223
35.571 0.101692 -0.208154
35.5809 0.0778038 -0.196028
35.5902 0.0579757 -0.185924
35.4788 0.207747 -0.272657
35.595 -0.0596251 -0.140252
35.594 -0.117637 -0.119916
37.8706 -2.42484 -0.310313
37.8582 -2.40563 -0.300409
37.774 -2.32467 -0.246775
-3.26601 27.5004 1.15033e-41
