ply
format ascii 1.0
element vertex 555
property float x
property float y
property float z
end_header
112.052 8.98707 3.01427
111.488 9.16664 2.99586
96.1391 14.8024 2.50134
69.7844 13.1291 1.7089
46.055 18.4349 1.17081
46.0752 18.5979 1.17421
22.0475 21.7004 1.25287
22.0594 21.586 1.24993
14.9531 20.4281 1.37534
18.8973 14.7662 1.18831
18.9139 14.6977 1.18692
18.9241 14.5885 1.18494
10.9142 20.5778 1.48021
10.7864 20.6352 1.48395
10.6359 20.6463 1.48819
10.4684 20.6719 1.49334
10.3166 20.6811 1.4976
10.1555 20.6981 1.50181
6.50024 20.7648 1.60358
6.42183 19.9383 1.59665
5.37879 20.0665 1.62883
5.17462 20.0849 1.63412
5.00388 20.1448 1.63994
4.80521 20.1568 1.64629
4.58565 20.1835 1.65254
4.33082 20.2332 1.66065
4.10811 20.2582 1.66792
0.938276 21.5972 1.77544
2.14076 20.6063 1.73013
0.928774 21.304 1.77326
0.90226 21.1737 1.77256
1.49844 20.6902 1.74981
0.891108 20.9599 1.77063
0.997811 20.7395 1.76549
0.914375 20.65 1.76754
-0.558442 20.9603 1.81496
-4.14336 21.0405 1.92645
-5.08441 21.2769 1.95836
-26.3616 33.4574 2.72006
-26.6357 33.3671 2.72756
-28.0419 33.7955 2.77571
-25.9022 32.3328 2.69674
-26.4604 32.4019 2.71537
-27.6924 31.852 2.75045
-26.2479 30.951 2.69873
-3.19136 17.0177 1.86966
-0.737776 15.0791 1.77952
-0.769985 14.9654 1.77968
-0.852505 14.8747 1.78173
-4.9235 16.6345 1.9243
-3.54615 15.3727 1.87318
0.429435 13.4741 1.73315
-3.57707 14.5003 1.87058
-3.35467 14.2717 1.86225
-3.09029 14.0287 1.85296
-3.16862 13.9276 1.8551
-3.08919 13.8299 1.85185
-3.16553 13.7287 1.854
-3.36534 13.6766 1.86095
-6.90701 14.9574 1.98388
-31.5885 24.3332 2.8442
-31.737 24.1575 2.84821
-6.34277 14.1634 1.96316
-6.29185 14.0731 1.96091
-6.11401 13.8641 1.95449
-6.17943 13.749 1.95674
-6.15623 13.6006 1.9551
-36.2717 24.3034 3.00326
-36.7247 24.2215 3.01809
-36.7694 24.1137 3.01922
-36.8872 23.9085 3.02345
-36.1811 23.1694 2.99788
-36.9387 22.9425 3.02379
-32.4897 21.1923 2.86825
-33.1977 20.3956 2.89149
-32.7199 17.7636 2.87451
-32.7648 17.5536 2.87662
-37.0376 17.575 3.02525
-43.8967 17.0816 3.26675
-43.9099 16.8308 3.26818
-43.8679 16.5666 3.2666
-43.8682 16.3128 3.26803
-43.8832 16.0632 3.26844
-43.8795 15.8101 3.26885
-43.8875 15.6853 3.27006
-43.9341 15.4423 3.27149
-43.9569 15.1953 3.2729
-39.6329 14.0501 3.12288
-38.7812 -15.9411 3.37923
-43.0236 -17.9534 3.56321
-41.5839 -17.8769 3.51116
-42.4105 -18.3138 3.54824
-30.5923 -15.6914 3.086
-43.177 -19.6273 3.59754
-39.3796 -19.2974 3.45865
-27.122 -16.586 2.97955
-27.5364 -17.1003 3.00341
-16.2781 -14.503 2.5627
-36.9627 -22.9568 3.44302
-35.5553 -25.1436 3.43866
-34.824 -25.6068 3.4234
-25.5686 -22.4428 3.04189
-25.445 -22.5019 3.03817
-25.4674 -22.7188 3.04429
-22.8755 -23.0601 2.96358
-23.962 -23.6977 3.01417
-7.20109 -17.7984 2.31926
-7.24244 -17.9636 2.32394
-7.29853 -18.1376 2.32973
-2.87055 -19.0501 2.20625
18.4805 -9.69309 1.28176
18.1509 -9.92431 1.29873
4.71779 -18.2332 1.94298
5.15243 -19.5049 1.96512
13.0709 -15.7497 1.61804
20.0575 -11.1421 1.27597
14.3426 -15.7789 1.58239
14.4296 -15.7568 1.57898
14.4622 -15.8256 1.58056
15.4254 -15.836 1.55344
15.8395 -15.5765 1.53401
16.0168 -15.5165 1.52703
16.0595 -15.5721 1.52747
18.4366 -15.3774 1.45614
19.596 -15.4436 1.4291
20.8151 -15.616 1.40494
20.9338 -15.6125 1.40263
21.3118 -15.6138 1.39378
21.5919 -15.5872 1.38588
75.4628 -21.1011 2.28063
105.423 -16.2579 3.07952
112.007 8.86641 2.50751
111.441 9.04717 2.49208
72.6596 8.97178 1.53297
46.0664 18.3292 1.02079
46.0839 18.4853 1.02326
22.0771 21.6352 1.09142
18.8729 14.7779 1.05525
-28.9555 29.672 2.34115
-6.31794 16.352 1.6972
-34.4897 25.0783 2.48574
-39.8394 24.8069 2.63564
-31.2729 -15.8763 2.69531
9.82249 -15.1477 1.52776
9.87735 -15.1641 1.52679
9.8963 -15.2529 1.5276
20.2475 -10.2607 1.14411
23.8031 -8.98117 1.02471
28.4782 -16.0929 1.18185
99.4323 -17.2868 2.47909
99.4212 -17.0632 2.47498
99.4158 -16.7307 2.46982
99.4223 -16.5116 2.46572
99.4633 -16.3012 2.46361
99.4954 -16.0881 2.4615
99.5374 -15.8778 2.4594
99.5902 -15.6694 2.45729
99.6324 -15.5694 2.45624
99.7602 -15.377 2.45711
112.239 8.96257 2.13704
111.675 9.14312 2.12461
111.136 9.19934 2.11331
110.576 9.37458 2.09993
110.053 9.55093 2.08845
109.005 9.89568 2.06557
108.476 10.0625 2.05319
107.949 10.226 2.04184
106.482 10.5983 2.00966
89.6772 9.88141 1.67514
89.1007 12.6353 1.65118
88.7313 12.7321 1.64311
95.4075 14.7887 1.76712
95.2126 14.9478 1.76205
68.4739 13.2469 1.24777
68.2856 13.3011 1.24469
46.1104 18.4299 0.911721
46.1167 18.5699 0.91337
-11.6951 -21.8479 2.01724
85.2315 -21.4652 1.94862
112.127 8.89441 1.53092
111.55 9.07305 1.52254
111.155 9.27326 1.51553
46.0934 18.5088 0.733998
36.122 16.6432 0.689743
35.9935 16.8913 0.69067
-24.1185 -24.1266 1.88157
-23.6189 -24.3383 1.87744
94.738 -23.1211 1.66155
97.7132 -23.502 1.70234
107.266 -24.8825 1.83855
108.558 -25.1676 1.8583
104.071 -18.2987 1.70905
104.24 -18.1026 1.70878
105.962 -17.7902 1.72584
112.208 8.80365 1.12358
89.3016 10.0649 0.93822
88.9781 10.1842 0.934826
68.2287 13.2638 0.76015
62.7455 11.5447 0.731173
55.4524 15.1233 0.666785
73.0401 -20.3911 1.13637
73.9074 -17.1974 1.09889
73.9599 -17.0692 1.09755
91.6041 -22.6132 1.29589
112.053 8.70338 0.568863
111.554 8.89294 0.567203
68.3234 13.1613 0.495898
51.3236 13.3582 0.486124
35.9633 17.1575 0.470188
35.9055 17.1611 0.470287
35.8423 17.1371 0.470661
-28.9235 34.664 0.619339
-36.5224 32.4825 0.675647
-34.2024 30.2035 0.682066
-36.4819 26.9888 0.720999
29.6843 -16.2326 0.794394
70.7279 -20.0319 0.820249
76.2196 -20.6312 0.830338
73.2785 -17.2653 0.79197
73.5202 -17.067 0.789521
73.6055 -16.9535 0.789241
99.8531 -23.9476 0.880633
108.558 -25.2261 0.899815
95.7497 -20.352 0.839746
95.7842 -20.1471 0.837711
99.0212 -17.1145 0.808314
99.1132 -16.3685 0.800981
99.1207 -16.1504 0.798881
99.2749 -15.5288 0.792592
99.9033 -15.3365 0.79131
100.881 -15.3237 0.791938
102.855 7.05687 0.244724
100.655 7.55957 0.248986
68.3269 13.2837 0.314713
36.0188 17.3127 0.381575
35.9609 17.3163 0.381673
35.9019 17.318 0.381793
-39.9329 -14.9299 0.778102
16.8903 -9.05763 0.678326
52.8115 -12.1306 0.617026
69.9694 -20.0923 0.624561
74.1682 -16.8763 0.580199
95.8229 -20.1331 0.528474
96.1759 -20.0231 0.525611
98.854 -16.2796 0.481712
98.8997 -16.0726 0.479631
98.9376 -15.863 0.477543
99.1204 -15.686 0.474433
99.1957 -15.4844 0.472335
99.7956 -15.2858 0.469059
103.703 2.4982 -0.163729
103.274 2.69922 -0.161661
102.629 2.8855 -0.156955
102.761 3.11267 -0.160426
102.612 3.32424 -0.161104
100.575 3.52004 -0.142287
99.1779 3.84603 -0.131184
98.9284 4.03662 -0.130429
94.9284 4.4223 -0.093908
60.1608 4.92733 0.252266
68.252 13.2422 0.0742693
37.9272 20.1425 0.207163
37.9695 20.4701 0.200938
36.0236 17.2991 0.263688
35.9679 17.3186 0.263629
-33.3198 26.3409 -0.0821283
55.6024 -18.9885 0.482066
56.3821 -19.0732 0.476081
73.7248 -17.2457 0.306732
73.8034 -17.1286 0.304434
73.9609 -17.1162 0.302953
103.994 -24.4154 0.0615345
105.01 -24.5001 0.0520044
108.707 -22.5842 0.00120779
101.021 -18.8927 0.0506513
99.098 -17.1681 0.0566127
99.3044 -16.9971 0.0525054
99.6229 -16.8532 0.0483984
93.0038 4.11092 -0.441525
74.8352 3.30105 -0.136985
60.4754 4.98763 0.0749577
36.0188 17.3164 0.149528
35.9576 17.3043 0.149785
29.6393 19.7163 0.107291
22.4882 20.8278 0.0681295
-32.0112 29.1287 -0.550774
-38.4672 27.4644 -0.594038
88.5787 -22.1317 -0.169817
89.6776 -21.9392 -0.188183
89.9594 -21.8395 -0.192784
94.0631 -20.2323 -0.264569
86.952 -17.0651 -0.170442
92.7918 -16.975 -0.26274
96.8288 -17.41 -0.324876
98.0746 -17.5122 -0.343767
99.9647 -16.9861 -0.37714
107.941 -12.0408 -0.539704
69.0363 9.42463 -0.380114
68.8533 9.49453 -0.37736
39.8281 16.633 0.0102821
35.996 17.31 0.0206356
34.827 21.3325 -0.0960802
34.7566 21.3301 -0.0958956
-34.827 27.9551 -1.07412
86.2617 -13.7599 -0.560424
88.2974 -13.8816 -0.605947
91.6631 -12.5444 -0.689459
91.9577 -12.4106 -0.697414
91.9724 -12.0286 -0.700095
92.1833 -11.875 -0.706047
92.1352 -11.6745 -0.70585
83.6799 -4.83978 -0.81765
83.6778 -4.6791 -0.819179
83.6417 -4.51568 -0.818657
83.6585 -4.35752 -0.820205
83.6583 -4.197 -0.821737
83.6717 -4.11782 -0.822524
83.6695 -3.95714 -0.824053
83.6436 -2.91776 -0.831915
87.5386 1.13932 -0.981612
89.5558 2.82366 -1.05733
75.4246 2.68084 -0.655445
77.7868 7.77611 -0.788526
71.2809 12.809 -0.6926
71.0266 12.8536 -0.68644
70.6637 12.8557 -0.677625
54.1646 12.0215 -0.232686
39.8696 16.6779 -0.0892465
39.8068 16.682 -0.0881406
34.8802 21.3482 -0.211358
34.8107 21.3567 -0.21128
34.7748 21.3596 -0.211225
34.7062 21.3792 -0.212254
33.5663 18.7257 -0.113296
23.9805 16.5762 -0.0707238
-35.5178 31.9297 -1.54649
67.1045 -20.0081 -0.327699
73.6809 -17.6643 -0.493209
79.2998 -12.6029 -0.652458
81.3707 -12.7988 -0.709355
83.4319 -11.466 -0.771822
83.5683 -11.3286 -0.776449
82.8168 -9.95582 -0.761824
83.5527 -8.37384 -0.79062
83.461 -8.27917 -0.788312
83.6216 -5.71688 -0.809143
83.6104 -5.55548 -0.810658
83.6183 -5.3956 -0.812202
83.662 -5.2386 -0.813802
78.4661 0.12295 -0.98404
78.5842 0.268923 -0.989705
81.0079 7.83084 -1.16948
78.9576 7.75734 -1.10005
78.3339 7.78654 -1.0789
60.4998 4.58951 -0.427322
58.0457 5.72218 -0.364486
58.0864 5.8172 -0.367487
39.4826 15.6068 -0.154134
36.4558 17.244 -0.185802
36.4002 17.2635 -0.18686
36.3699 17.2609 -0.185766
34.9955 21.2624 -0.341811
34.9266 21.279 -0.34181
34.856 21.2856 -0.341711
34.787 21.3012 -0.342701
34.7172 21.3068 -0.342594
33.6841 18.3711 -0.216188
33.6231 18.373 -0.216065
33.5937 18.3824 -0.216087
23.9671 -9.13683 0.299784
67.0597 -17.076 -0.543596
75.7122 -10.5147 -0.821148
55.4779 15.1302 -0.684405
42.9065 13.2583 -0.239596
39.4436 15.6108 -0.271088
36.4544 17.3031 -0.310369
36.3939 17.2999 -0.3102
32.064 22.2133 -0.524153
23.9259 -9.1614 0.21911
23.9722 -9.17113 0.220096
62.5739 -16.0424 -0.618147
53.9138 6.567 -0.524054
39.2001 13.9778 -0.28894
39.3826 15.4773 -0.368678
36.4985 17.2543 -0.41901
36.441 17.264 -0.41897
35.9409 17.2821 -0.414992
32.1089 22.1261 -0.657431
32.0406 22.0123 -0.651187
-24.9197 -11.4318 -1.79195
65.8003 2.54842 -1.18107
65.8865 2.60967 -1.18685
65.9487 2.72202 -1.19107
32.0937 22.102 -0.789172
31.1744 22.7352 -0.827104
-26.5058 -8.50037 -2.20931
64.501 -5.77736 -1.04259
64.4922 -5.67431 -1.04156
64.4675 -5.62015 -1.04102
64.5093 -5.5242 -1.04303
64.548 -5.42901 -1.04503
64.6047 -5.33528 -1.04905
64.6088 -5.23428 -1.04903
64.5788 -3.92064 -1.0525
64.6456 -3.82572 -1.05656
39.1401 13.8964 -0.479035
32.1512 21.9586 -0.925942
32.0783 21.9745 -0.926926
-18.7176 -0.238779 -2.21909
-18.5638 -1.37259 -2.20062
-18.5357 -1.53434 -2.19714
-18.6079 -1.69711 -2.19942
61.9952 5.61488 -1.3866
43.6317 13.1398 -0.667153
40.4436 16.5429 -0.775311
40.3908 16.5722 -0.776469
39.1742 13.8357 -0.561538
38.5607 16.8317 -0.749736
38.497 16.8248 -0.748523
32.0963 22.0139 -1.05235
32.0265 21.9694 -1.04876
48.1921 -17.0494 -0.665454
48.2133 -16.9718 -0.664243
48.2153 -16.9228 -0.662716
48.4596 -16.5782 -0.661567
48.4967 -16.5661 -0.662768
48.5058 -16.4776 -0.660634
48.5744 -16.448 -0.662074
48.6625 -16.438 -0.666372
58.5141 -6.87283 -1.03936
57.2762 1.80206 -1.18233
49.618 5.87121 -0.758541
40.4076 16.5214 -0.90603
38.6693 16.7746 -0.878447
38.6362 16.8625 -0.88421
32.1492 19.961 -1.05187
48.7809 -14.8112 -0.766179
48.8054 -14.7439 -0.764878
48.8297 -14.6786 -0.763557
48.7387 -14.5127 -0.752931
48.8127 -14.4906 -0.756313
46.2473 12.5496 -0.97255
42.0758 13.3825 -0.825899
38.7282 16.773 -0.971571
38.6842 16.8246 -0.974963
29.2121 18.2036 -1.02734
29.1439 18.2291 -1.02943
29.1128 18.2286 -1.03035
29.0518 18.2184 -1.03011
-1.87533 11.12 -2.16326
47.3128 -13.6426 -0.738956
54.7637 3.91076 -1.30669
52.708 10.0706 -1.38277
52.6708 10.1317 -1.38327
52.3681 10.5724 -1.38378
46.9511 16.0497 -1.3786
46.862 16.2143 -1.38597
46.197 -12.6332 -0.751026
46.4106 -12.7458 -0.769443
49.5405 -11.0462 -0.915875
53.6332 -6.84911 -1.13337
51.2043 10.0467 -1.39708
51.1709 10.1055 -1.39757
52.2557 -6.74961 -1.13815
50.173 9.37196 -1.40127
50.1749 9.446 -1.40598
50.6628 -2.16073 -1.19129
50.6843 -2.1053 -1.19387
49.1337 8.63577 -1.39585
49.0963 8.68192 -1.3952
49.0695 8.73524 -1.39565
49.0426 8.78755 -1.39709
49.0308 8.81558 -1.39733
38.7892 -15.2555 -0.808955
50.7508 -3.32665 -1.20036
50.7095 -3.17882 -1.19568
50.6981 -3.1207 -1.19421
40.455 13.6827 -1.29206
18.3977 -12.1384 -1.18582
47.5096 2.46219 -1.23617
47.5238 2.51419 -1.2397
46.9211 7.73124 -1.46113
46.9696 7.82256 -1.47211
46.9579 7.87664 -1.4746
46.9341 7.89261 -1.4737
41.9295 12.3839 -1.45006
39.9277 13.4035 -1.44119
38.4153 13.3201 -1.35691
38.3359 13.1802 -1.33639
38.4488 13.8885 -1.42641
40.7527 12.422 -1.46672
38.4475 13.4609 -1.46433
38.4989 14.1652 -1.55418
33.6126 8.95621 -0.733172
33.5832 8.99063 -0.737433
33.5661 8.96495 -0.734148
33.5355 8.97141 -0.73414
31.6302 17.0979 -1.80939
27.4962 15.5127 -1.69174
27.4398 15.5092 -1.69257
27.376 15.5273 -1.6976
38.1872 13.2306 -1.50154
33.5747 8.83552 -0.766934
33.5441 8.84098 -0.767916
33.5109 8.81559 -0.763597
33.7804 -13.2878 -0.965224
38.3551 12.1741 -1.56884
42.9738 0.871785 -1.25456
42.973 0.887883 -1.25571
37.4703 9.93932 -1.59947
37.4564 9.95347 -1.60058
37.4202 9.96441 -1.5996
36.1814 9.01817 -1.62872
36.1528 9.0375 -1.63083
36.1331 9.02908 -1.62771
34.0844 8.89166 -1.72169
34.0533 8.89116 -1.72061
34.0216 8.8837 -1.71747
33.9901 8.89123 -1.71847
33.9548 8.85102 -1.709
36.5382 -7.41178 -1.21067
36.9806 -17.0075 -5.13928
31.91 0.536682 -0.255858
31.8482 0.554491 -0.275887
82.9714 6.93593 -21.5714
82.8789 7.08209 -21.5426
32.0949 0.239082 -0.135437
32.0146 0.0873345 -0.102802
32.1393 0.280416 -0.160935
32.184 0.198988 -0.118258
32.1665 0.218345 -0.129403
33.1522 -2.86956 -0.334203
33.1526 -2.84037 -0.321482
31.9528 0.496621 -0.307577
32.1051 0.266927 -0.179728
32.1019 0.264177 -0.179695
32.0977 0.261507 -0.17966
32.0565 0.311669 -0.210045
32.0225 0.351291 -0.233346
31.9696 0.417359 -0.272857
31.9927 0.380573 -0.253558
31.9885 0.377903 -0.253523
32.0113 0.336162 -0.231176
32.0035 0.339764 -0.234193
31.8607 0.524742 -0.342635
32.0511 0.168154 -0.15666
31.9909 0.1808 -0.178643
31.8563 0.331152 -0.271774
34.0312 -10.8437 -4.02728
34.0644 -10.8544 -4.03326
34.3818 -2.21132 -0.387318
34.3111 -2.142 -0.341815
34.3015 -2.12509 -0.332954
34.2064 -2.03562 -0.273586
-64.0794 37.9782 1.15033e-41
