ply
format ascii 1.0
element vertex 469
property float x
property float y
property float z
end_header
185.312 -9.29833 3.82853
184.998 -9.05119 3.8217
165.493 16.3935 3.71033
164.01 17.8543 3.708
162.673 17.6619 3.67004
166.085 20.3709 3.82279
165.803 20.4667 3.81825
157.044 16.6683 3.50339
157.013 16.7547 3.50543
160.892 19.2055 3.66411
137.223 7.99676 2.78979
142.726 23.7784 3.38791
142.024 24.0961 3.38382
152.909 34.5026 3.94293
152.691 34.577 3.94083
148.207 35.3214 3.88291
147.84 39.395 4.02038
147.893 39.7712 4.03393
149.286 47.1439 4.32583
99.0149 40.3446 3.79989
98.8097 40.6826 3.81641
97.8069 28.1818 3.28217
97.2831 29.817 3.35959
97.2149 29.5228 3.34795
97.1075 29.4173 3.34444
96.9679 29.4649 3.34865
99.0156 19.083 2.87404
98.9869 18.9973 2.87031
99.0072 17.2981 2.79688
99.308 14.8155 2.68598
98.7614 14.8437 2.69413
98.3067 13.4412 2.64121
98.4244 12.8017 2.61207
98.3588 12.7607 2.612
98.2407 12.7618 2.61363
98.1427 12.8246 2.61778
97.9001 13.0792 2.63265
97.4348 13.9886 2.67836
97.3983 13.8494 2.67314
97.274 14.0908 2.68525
96.7867 12.0717 2.60821
77.0482 12.4692 3.13973
77.0134 12.2793 3.13498
77.6171 10.0362 3.04694
74.0914 10.6762 3.18294
73.8126 10.7178 3.19283
61.0256 13.4112 3.70733
56.6718 15.2084 3.90748
48.5787 14.2473 4.17411
48.4031 14.1102 4.17663
46.1919 13.8442 4.25151
47.7296 12.5987 4.16675
40.5047 13.0913 4.44464
40.3641 12.9107 4.44654
47.6971 -12.2933 3.77209
45.9018 -12.5553 3.83983
82.9647 -22.6288 2.40082
44.0851 -50.2529 3.93299
165.386 -34.9764 3.16708
165.669 -34.8733 3.17365
179.961 -37.5472 3.55453
172.801 -23.3249 3.37204
172.813 -23.1075 3.3732
172.827 -22.8901 3.37434
172.86 -22.7869 3.37622
172.898 -22.5751 3.37818
172.976 -22.3702 3.38086
173.012 -22.1572 3.38285
173.062 -21.9472 3.38473
173.119 -21.7384 3.38755
173.165 -21.5268 3.38947
176.157 12.0939 3.4286
175.96 12.2763 3.42749
165.136 16.6013 3.29229
161.48 18.8748 3.27063
161.777 19.5891 3.29236
161.033 32.8029 3.61001
95.2245 12.8253 2.51008
33.8985 16.6863 4.28291
165.051 -32.8516 2.74848
172.653 -23.3801 2.93323
172.822 -22.755 2.93971
172.834 -22.6476 2.94075
172.882 -22.4373 2.94264
172.923 -22.226 2.94458
172.965 -22.0139 2.94752
172.999 -21.8016 2.94851
172.934 -21.5717 2.9492
179.728 19.0476 3.26077
154.61 21.4629 2.92999
142.437 23.5975 2.82354
120.398 5.58197 2.10929
121.638 18.845 2.49905
122.53 20.6556 2.55884
122.355 20.5669 2.55485
98.3667 30.0187 2.90694
96.9651 13.9264 2.40317
96.7782 14.2103 2.41405
131.492 -24.919 1.93415
173.071 14.3561 2.52477
172.829 15.7131 2.54387
169.629 17.3084 2.53991
169.701 17.4577 2.54306
169.469 17.5975 2.54369
168.27 17.7869 2.53591
170.741 23.2726 2.6489
161.035 19.2309 2.49954
170.934 25.8686 2.69536
121.145 18.4131 2.23721
169.319 -33.4386 1.99908
172.389 -23.3003 2.08937
172.637 -21.6023 2.10438
123.508 20.6817 2.11395
122.222 20.3207 2.10801
97.4831 30.2546 2.40294
131.969 -25.0325 1.55347
131.893 -24.88 1.55342
131.985 -24.8217 1.55453
172.481 -23.1881 1.74201
172.51 -22.9751 1.74403
172.524 -22.7587 1.74516
172.525 -22.6497 1.74627
172.548 -22.4358 1.74833
172.597 -22.2268 1.7502
172.629 -22.0152 1.75219
172.652 -21.8012 1.75426
171.61 16.052 1.67966
170.861 23.0391 1.76184
165.146 25.6591 1.80649
164.178 26.4715 1.81885
98.5922 31.115 2.12289
131.816 -24.9951 1.34164
160.923 -32.4798 1.2058
164.37 -32.9184 1.19326
169.946 -33.7052 1.17402
178.538 -35.066 1.14212
172.084 -23.3813 1.26509
172.14 -23.1753 1.26689
172.052 -22.5055 1.27418
172.058 -22.3982 1.27425
172.114 -22.1922 1.27705
172.285 -22.0069 1.27805
172.571 -21.8405 1.27925
172.533 -21.6167 1.28173
173.115 -21.4995 1.28087
173.462 2.77383 1.20254
150.785 22.6359 1.54491
160.296 32.4154 1.57378
142.375 23.7291 1.60912
136.123 21.1856 1.62595
120.401 12.7929 1.64777
97.8924 33.6191 1.95207
49.8382 -19.8201 1.63999
170.149 -31.6876 0.870507
175.308 -30.8822 0.843687
177.79 -31.1325 0.825124
173.013 -23.0935 0.94213
171.99 -22.1357 0.959259
172.92 -21.6499 0.957339
172.929 -21.433 0.959501
185.349 -9.42882 0.49279
183.609 -9.31643 0.516054
170.083 -5.95749 0.727189
141.576 23.1797 1.29869
148.115 40.3587 1.30558
97.7372 34.6247 1.67512
94.7354 -22.8217 1.3291
132.541 -25.1957 0.993776
153.614 -29.7852 0.670535
154.904 -26.854 0.692664
157.89 -27.4189 0.647257
160.933 -27.2809 0.609712
176.11 -9.74515 0.176955
156.942 -3.45299 0.604577
174.681 12.89 0.384247
144.54 22.8976 0.950258
142.215 23.8089 0.987738
123.227 8.68577 1.27206
97.4239 35.4412 1.39507
89.0862 25.5181 1.43659
132.786 -25.2772 0.796645
147.261 -27.3651 0.503491
147.74 -24.0012 0.545281
147.621 -23.8141 0.550814
148.882 -24.1536 0.522742
149.948 -23.5018 0.511801
151.53 -23.3535 0.484022
151.034 -23.0538 0.497676
164.099 -8.06831 0.0159795
162.453 -7.49089 0.0644929
162.526 -7.30853 0.0649691
162.622 -7.12439 0.0633456
162.661 -6.94207 0.0640015
162.71 -6.75922 0.0646095
155.724 -4.51609 0.266095
158.466 25.5202 0.281983
158.139 25.5416 0.288917
157.724 25.7425 0.298137
157.798 25.9127 0.296488
155.607 29.2552 0.337051
156.172 29.8247 0.323895
154.163 34.1432 0.352458
147.411 36.3611 0.477458
148.591 42.7475 0.41939
76.8814 35.1006 1.02722
27.9536 -15.9661 0.250865
48.4032 -18.0933 0.543039
132.888 -25.3323 0.574536
148.962 -13.3114 0.133844
149.015 -13.1776 0.133931
149.044 -13.1111 0.133458
149.108 -12.9779 0.133481
149.193 -12.8448 0.132392
149.24 -12.7101 0.132519
149.318 -12.577 0.131467
149.35 -12.4402 0.131694
149.428 -12.3061 0.131652
149.428 -12.2364 0.132362
149.504 -12.102 0.131333
149.467 -11.8227 0.135375
150.604 -11.2314 0.106449
151.774 -10.3914 0.0788781
151.976 -10.3199 0.0735466
152.182 -10.1749 0.0679496
153.313 -9.35349 0.0413948
155.008 -8.31911 -0.00194284
155.914 -6.46131 -0.0137477
155.981 -6.29731 -0.0144287
155.975 -6.21768 -0.0135876
155.907 -6.0632 -0.0106541
155.798 -5.91285 -0.00554755
155.735 -5.75825 -0.00264445
155.676 -5.60408 0.0012385
135.638 26.6456 0.51309
148.506 42.5731 0.0740315
148.631 42.8935 0.0686456
98.0289 32.8109 0.879048
97.8032 26.8781 0.970746
133.83 -22.5085 0.447384
122.765 -14.4825 0.930228
142.677 -13.7111 0.1027
142.747 -13.6 0.101467
142.808 -13.4876 0.100294
142.865 -13.3746 0.100148
144.538 -10.6939 0.0697086
144.734 -10.5749 0.063893
144.889 -10.4539 0.0593196
145.068 -10.3315 0.0536265
145.177 -10.2079 0.0513153
145.342 -10.147 0.0460742
145.501 -10.0217 0.0415142
145.618 -9.89618 0.0381844
145.782 -9.7695 0.0336164
145.935 -9.64123 0.0291217
146.152 -9.51214 0.022301
146.306 -9.38204 0.0178183
146.465 -9.31629 0.0126544
146.637 -9.18369 0.0071052
146.798 -9.05148 0.00261051
146.969 -8.91675 -0.00291338
147.155 -8.78122 -0.00850905
147.386 -8.64398 -0.0153165
147.374 -8.51186 -0.0139062
147.633 -8.43748 -0.0225076
147.958 -8.29285 -0.033738
148.12 -8.15174 -0.0381486
148.278 -8.01103 -0.043542
148.422 -7.86931 -0.0468515
148.549 -7.7271 -0.0510665
148.688 -7.58367 -0.0543335
148.844 -7.50731 -0.0593708
149.006 -7.36109 -0.064728
149.101 -7.21838 -0.0667741
149.254 -7.06989 -0.0710622
149.532 -6.91325 -0.0809196
149.738 -6.75938 -0.0874326
149.883 -6.60876 -0.0906581
150.022 -6.52781 -0.0955568
152.739 16.7911 -0.17904
135.527 26.7181 0.233396
135.631 27.0809 0.225547
120.919 12.7525 0.806584
101.037 41.7912 0.424821
101.521 35.2156 0.566247
101.225 35.3316 0.563984
99.7297 38.9202 0.489401
45.1664 -17.8786 -0.175858
101.576 -23.8011 0.952244
138.557 -19.1254 0.167088
138.908 -12.5678 0.0371017
138.948 -12.4655 0.0369338
139.004 -12.3634 0.0356848
139.051 -12.2602 0.035489
139.104 -12.1578 0.0342533
139.147 -12.0538 0.0330909
139.185 -12.0037 0.0324044
139.225 -11.8995 0.0322553
139.243 -11.794 0.0322339
139.303 -11.6905 0.0309769
135.43 -1.57441 0.262431
140.979 8.17798 -0.00522834
144.953 27.408 -0.387006
101.539 39.9832 0.134736
101.006 34.9993 0.27672
100.867 34.9773 0.277227
82.0525 37.1555 0.112012
76.9594 43.3508 -0.100148
79.1239 32.7992 0.174944
77.0172 35.2574 0.0880408
77.5208 33.998 0.123563
136.277 -11.4594 -0.016815
136.326 -11.3645 -0.0181054
136.373 -11.2692 -0.0193758
136.409 -11.1734 -0.0205889
151.809 17.503 -0.824949
151.841 17.7187 -0.82992
151.824 17.9061 -0.830919
148.614 16.82 -0.678165
148.485 16.9279 -0.674385
122.614 10.9326 0.45512
101.731 38.3848 -0.107586
101.587 38.2755 -0.103944
101.11 38.5059 -0.111097
100.961 38.4589 -0.108793
74.6829 51.7533 -0.739588
78.2481 44.1716 -0.462555
75.9308 45.9136 -0.548656
76.676 44.0921 -0.484129
79.3371 30.7055 -0.0615358
89.6211 14.5108 0.572495
137.416 -3.65696 -0.20624
137.414 -3.55258 -0.206166
137.425 -3.44597 -0.207134
146.479 16.7851 -0.867343
146.221 17.8192 -0.87345
146.193 17.988 -0.874583
146.122 18.6009 -0.882961
145.943 19.4347 -0.89052
143.121 17.8421 -0.729962
101.566 40.3376 -0.462834
101.432 40.0387 -0.450175
101.052 38.1521 -0.374416
89.766 14.4791 0.410402
37.5243 -9.0094 -1.50947
135.336 -4.63698 -0.286339
141.949 13.6658 -0.874415
142.026 13.879 -0.883642
142.223 14.3366 -0.903011
142.315 14.5638 -0.913175
142.383 14.7752 -0.920377
142.461 14.9964 -0.92953
142.677 15.2257 -0.945326
142.085 15.9306 -0.930035
141.991 16.0382 -0.928448
141.972 16.1967 -0.93073
141.816 16.2588 -0.924282
101.466 39.8194 -0.757608
101.321 39.6696 -0.75038
92.8066 9.2528 0.498187
135.557 8.48854 -0.62069
137.716 12.9376 -0.849654
137.683 13.0667 -0.850167
137.699 13.1554 -0.853346
101.444 39.8523 -1.02418
101.286 39.8674 -1.02519
127.724 -10.6327 -0.126574
127.75 -10.5637 -0.128009
127.769 -10.4937 -0.12839
127.782 -10.4238 -0.128748
127.814 -10.3548 -0.130213
127.814 -10.3194 -0.129853
127.85 -10.2498 -0.131328
127.868 -10.1787 -0.1317
127.899 -10.1095 -0.133159
127.924 -10.0382 -0.134561
127.954 -9.9679 -0.136004
127.988 -9.89699 -0.137457
128.026 -9.79031 -0.139567
128.035 -9.7199 -0.139898
128.055 -9.64797 -0.140267
128.083 -9.57733 -0.141697
128.124 -9.50544 -0.144178
128.129 -9.43348 -0.143472
128.156 -9.39691 -0.145239
128.156 -9.32621 -0.144519
128.173 -9.25383 -0.145868
129.219 -7.04404 -0.211821
129.337 -6.83897 -0.220353
129.376 -6.7576 -0.222724
129.421 -6.67526 -0.226122
129.446 -6.59499 -0.227434
129.489 -6.51235 -0.230819
129.525 -6.42971 -0.233166
129.532 -6.35081 -0.233396
129.576 -6.30565 -0.237166
129.606 -6.22411 -0.239492
129.654 -6.13909 -0.242876
129.707 -6.0528 -0.246274
131.543 -2.31137 -0.39776
134.31 10.3939 -0.839741
134.269 10.501 -0.840435
101.887 36.3134 -1.16459
101.764 36.025 -1.14789
101.604 36.2142 -1.15912
101.455 36.2461 -1.16101
79.9515 -19.876 -0.317506
114.15 -23.5406 0.233965
126.111 -12.0728 -0.130806
131.313 7.79761 -0.733503
121.692 1.69684 0.0937605
121.658 1.75027 0.0934814
121.295 2.18323 0.1028
124.863 9.453 -0.393802
117.856 5.18609 0.180442
101.655 36.3575 -1.39494
101.528 36.1303 -1.38159
89.0228 9.40935 -0.0514256
128.986 6.42839 -0.725269
101.412 36.05 -1.67782
102.556 8.81793 0.218646
126.907 4.27644 -0.64831
126.897 4.36673 -0.651342
118.306 1.27246 0.112176
115.356 2.1314 0.261401
124.086 2.386 -0.635804
124.089 2.47145 -0.639951
96.2079 5.24376 -0.00754524
112.517 5.74556 -0.251905
109.635 9.23602 -0.701243
109.467 9.33333 -0.706372
109.405 9.33733 -0.705006
109.328 8.42882 -0.698866
109.126 7.29094 -0.684406
109.099 7.29484 -0.684226
104.535 -20.8177 -0.0549052
92.36 0.440017 -0.848417
153.828 -12.4451 -8.78441
110.933 -12.4136 -0.179751
110.948 -12.3986 -0.181679
111.663 -8.11848 -0.323793
111.663 -8.10829 -0.323687
111.666 -8.08551 -0.326472
107.985 -9.80155 0.405366
107.886 -10.757 0.378142
107.875 -10.7443 0.384331
121.377 -13.7886 -5.61485
121.384 -13.7371 -5.61237
104.679 -8.63952 0.830566
121.234 -14.0353 -5.74263
121.235 -13.9829 -5.7361
121.254 -13.9342 -5.7377
121.259 -13.8824 -5.7342
121.265 -13.8307 -5.7307
121.288 -13.7835 -5.73534
121.3 -13.7338 -5.7349
121.306 -13.7083 -5.73467
121.32 -13.6589 -5.73524
104.766 -8.68067 0.844691
104.767 -8.69303 0.849559
104.676 -8.58604 0.773121
104.701 -8.63331 0.796512
104.701 -8.6414 0.799431
104.669 -8.76858 0.840301
106.775 -11.1032 0.60545
106.753 -11.1806 0.567772
106.726 -11.1455 0.589273
106.734 -11.1456 0.586229
106.705 -11.068 0.622175
6.73 2.25394e-39 0
