ply
format ascii 1.0
element vertex 923
property float x
property float y
property float z
end_header
156.782 -5.82057 4.20903
148.159 -2.74101 3.86636
135.309 -1.8067 3.36944
135.131 -0.358904 3.36063
152.162 20.5774 4.07835
152.253 20.8754 4.08356
105.974 18.9056 2.46572
96.6506 34.7726 2.60007
91.968 33.1414 2.47254
91.3363 31.8004 2.42506
80.6775 21.3245 1.98554
80.2462 18.3129 1.89389
79.9187 16.0634 1.8246
79.6448 14.1749 1.76608
79.403 12.4859 1.71488
63.8606 12.8859 1.79538
26.5432 13.6538 2.6719
26.6414 12.9755 2.66316
10.0374 14.1348 3.1245
54.0172 -12.8625 1.88965
32.3281 -19.8351 2.58531
30.6054 -20.843 2.64728
44.3949 -18.4713 2.23603
22.5837 -28.4364 2.98244
24.9082 -27.682 2.90838
24.1302 -28.3941 2.94061
48.8885 -19.9198 2.14235
48.9463 -20.002 2.14296
48.9593 -20.107 2.14445
11.9555 -40.6648 3.48331
54.0886 -23.8561 2.10227
21.2848 -50.965 3.49706
21.5059 -50.9315 3.49097
21.3297 -51.3636 3.50591
130.844 -54.3763 4.03674
130.492 -53.3066 3.99766
130.677 -52.8746 3.99176
134.924 -54.5592 4.16488
152.642 -31.034 4.2892
156.953 -2.68114 3.6999
151.901 15.8387 3.54561
152.146 20.4536 3.57378
149.413 19.737 3.48574
122.769 10.7436 2.62415
98.2064 13.8856 1.95747
97.1692 13.9932 1.9341
96.0056 13.4139 1.89696
88.3885 62.7314 2.83267
88.2974 62.8549 2.83473
80.903 22.7838 1.8456
80.4953 20.1084 1.78068
80.0892 17.2912 1.71235
79.7852 14.9332 1.65562
79.508 13.022 1.60817
26.2627 -28.006 2.52514
54.0931 -23.8452 1.91624
47.8665 -29.0833 2.13123
133.247 -44.8947 3.4421
137.828 -47.6598 3.62126
141.401 -28.8651 3.41283
151.954 -30.9204 3.76345
138.082 -21.3323 3.21803
138.085 -21.1306 3.21621
138.097 -20.9312 3.21445
138.108 -20.7317 3.21268
138.12 -20.5335 3.21092
138.1 -20.4275 3.20939
139.338 -19.4931 3.23842
149.373 -3.40145 3.11883
131.401 7.73729 2.61655
121.903 6.41944 2.36084
149.073 20.3189 3.11972
98.4526 13.6077 1.82379
96.0965 13.1869 1.76932
96.1481 13.4856 1.77434
95.7726 13.3352 1.76417
88.5414 61.9581 2.49158
80.7689 21.9691 1.69232
80.32 18.8308 1.63111
79.9483 16.2159 1.58011
79.6689 14.2899 1.54271
79.4496 12.5411 1.50887
23.1658 -9.42434 2.14189
23.1681 -9.59546 2.1436
54.0844 -23.7858 1.77695
54.0938 -23.8943 1.77844
127.553 -27.3495 2.71377
129.802 -27.7215 2.77699
137.559 -21.0571 2.90741
137.542 -20.8524 2.90448
137.538 -20.6518 2.90263
137.555 -20.4562 2.90091
137.562 -20.2581 2.89913
137.574 -20.0619 2.89838
137.575 -19.9619 2.89697
137.609 -19.7708 2.89634
139.082 -19.2921 2.93137
156.59 -6.41216 2.72952
156.677 -6.16307 2.72991
156.618 -5.91386 2.7276
156.454 -4.54899 2.7192
156.328 -3.43523 2.71302
100.737 39.2313 1.84711
100.569 39.2529 1.84522
92.0733 36.8253 1.73085
89.18 60.9881 1.96359
88.1831 62.2258 1.96976
84.0204 37.6167 1.67132
83.6186 37.265 1.66486
83.6301 38.3366 1.6765
83.4955 38.3976 1.67661
83.3301 38.2196 1.67356
83.187 38.2081 1.67293
83.0693 38.3991 1.67358
80.9586 22.9099 1.48934
80.5445 20.2123 1.45748
80.1328 17.393 1.42413
79.7711 14.8545 1.39387
79.4914 12.9135 1.37053
116.624 -26.1044 2.08569
131.545 -28.1659 2.38509
152.361 -32.615 2.82234
152.735 -31.0293 2.81559
144.009 -21.8083 2.56914
153.405 -19.6694 2.73899
152.663 20.8162 2.20171
152.638 21.0745 2.20053
122.789 10.6772 1.7825
96.869 37.0645 1.54065
90.442 31.2452 1.45507
92.3556 51.5521 1.58254
88.1044 62.5332 1.61711
88.4042 65.9639 1.63941
87.954 66.0508 1.63691
83.3768 36.9569 1.43798
83.4181 38.2949 1.44566
86.9368 66.2202 1.63138
86.706 66.2245 1.63027
86.4801 66.2625 1.62904
82.7804 37.7118 1.43803
80.9069 22.6743 1.33806
80.4646 19.6656 1.31835
80.0942 17.1234 1.30106
79.772 14.8773 1.28578
79.5264 13.2122 1.27447
95.8628 -19.7164 1.52272
114.598 -22.2954 1.80037
114.633 -22.1711 1.80003
138.218 -29.2189 2.18814
156.708 -4.22042 1.76604
136.706 -1.32917 1.59608
136.681 -1.2376 1.59558
132.525 -0.705692 1.56064
132.446 -0.538594 1.55958
135.366 5.81577 1.55928
151.876 20.9796 1.63929
151.479 21.0991 1.63591
97.3724 13.2478 1.24912
97.3915 32.8156 1.21963
101.494 46.8003 1.22653
97.1791 38.0571 1.21103
97.0284 38.0911 1.21017
95.4239 39.4032 1.19915
88.2412 65.9647 1.13162
83.3077 38.3645 1.13285
82.9415 36.6353 1.13323
82.8039 36.627 1.13261
82.725 37.0983 1.13129
80.7004 21.3678 1.13646
80.2643 18.056 1.13802
79.9091 15.639 1.13829
79.6148 13.6264 1.13818
19.3709 -15.2404 1.09379
70.9052 -19.7575 1.21928
82.2934 -20.7682 1.27856
114.371 -22.3491 1.51651
146.588 -30.3744 1.80666
152.904 -31.3999 1.8609
139.949 -21.7227 1.71148
143.98 -21.8453 1.74314
142.77 -21.2334 1.73087
137.156 -19.7343 1.68002
138.315 -19.7981 1.68979
153.319 -19.7024 1.80669
156.792 -4.17637 1.39225
151.463 21.4022 1.26258
102.404 10.5283 1.15023
89.9082 30.9627 0.992692
87.7258 61.2921 0.812409
82.9756 36.8964 0.92831
82.8239 36.778 0.928077
82.7778 37.5295 0.923763
80.9029 22.9112 0.998059
80.4694 19.9579 1.01316
80.104 17.4514 1.02575
79.8106 15.1396 1.03688
79.5454 13.2996 1.04619
114.633 -22.4679 1.32824
137.322 -20.6436 1.39554
137.346 -20.4501 1.39486
137.368 -20.2572 1.39417
137.361 -20.0561 1.39331
137.338 -19.9517 1.39277
156.678 -4.13018 0.889505
153.34 -0.0268545 0.880743
152.244 1.18894 0.878527
146.915 3.77043 0.882574
92.0136 50.6848 0.519464
88.6174 60.426 0.393204
88.4846 60.9223 0.386529
83.0286 36.6401 0.656612
82.9773 37.3004 0.648649
82.9526 37.6506 0.644089
82.7988 37.5386 0.64482
80.8235 22.2906 0.819234
80.334 18.8847 0.858936
79.9267 16.0145 0.890822
79.625 13.9313 0.914968
79.3648 12.1048 0.936254
45.136 -12.2885 0.759059
146.308 -30.3071 0.997038
152.681 -31.3593 0.981656
136.983 -21.305 1.00665
137.03 -21.1179 1.0061
136.857 -20.9754 1.00669
136.822 -20.7683 1.00668
136.825 -20.5706 1.00588
136.851 -20.3793 1.00521
136.887 -20.1916 1.00461
136.947 -20.0083 1.00414
137.421 -19.6226 1.0018
142.399 -19.3579 0.986369
144.606 -19.3702 0.979904
149.877 -19.4685 0.964357
156.164 -15.739 0.447864
157.035 -5.1691 0.404469
152.274 -4.28614 0.44421
150.985 -3.85579 0.454315
148.623 -3.59333 0.475011
148.404 -3.37845 0.476084
146.198 3.62081 0.458776
96.0739 12.6553 0.786385
92.1195 9.87674 0.845038
87.8206 12.2343 0.8239
98.8034 41.9101 0.312863
98.733 42.1618 0.308491
92.8593 42.5207 0.303102
90.7935 38.6726 0.369134
88.134 59.14 0.00119599
88.1266 59.7473 -0.010341
83.3974 37.9881 0.368807
82.9104 36.3877 0.396085
82.7797 36.4269 0.394302
82.6946 36.8486 0.387161
80.9329 22.7783 0.635742
80.4984 19.8535 0.686723
80.1285 17.3377 0.731328
79.7914 14.9636 0.772504
79.5333 13.1935 0.803568
44.2631 -4.51512 0.515892
45.0944 -12.3529 0.556122
96.1439 -19.6177 0.966635
114.701 -22.0783 0.819949
114.767 -22.0373 0.820092
135.399 -24.1971 0.644027
148.261 -28.081 0.533141
137.877 -21.3811 0.622205
136.58 -20.6594 0.633067
136.579 -20.5602 0.632656
137.5 -20.3852 0.624311
137.191 -19.7187 0.626097
138.048 -19.4131 0.618911
153.49 -19.5662 0.47992
145.119 -13.5939 0.0695354
145.321 -13.5082 0.0661447
146.831 -11.5839 0.0373917
155.73 -6.98783 -0.121249
155.442 -6.73965 -0.11764
137.906 -2.40837 0.147195
153.382 2.13831 -0.129994
139.581 5.33174 0.0682759
140.257 7.92227 0.0358178
107.101 10.5733 0.503352
107.012 10.6458 0.503633
95.4847 8.65003 0.681078
95.2394 8.87374 0.679991
96.0959 12.9243 0.596378
91.9436 9.80889 0.696479
100.476 38.7659 0.0117547
90.696 38.7614 0.0422987
89.9369 54.2456 -0.337086
90.5425 58.6954 -0.445537
88.0122 59.3138 -0.464107
83.1237 37.8672 0.0609986
82.9478 37.5897 0.0673059
82.8263 37.7337 0.0641353
80.8329 22.3486 0.443033
80.2618 18.2524 0.54419
79.9369 15.7827 0.604819
122.82 -27.0355 0.398939
125.584 -26.5015 0.36187
125.813 -26.4208 0.358625
126.197 -26.4021 0.353376
126.913 -26.1547 0.343756
127.582 -26.2431 0.333301
128.048 -22.1212 0.338541
129.315 -22.0756 0.319373
129.683 -22.0089 0.313844
136.828 -22.0663 0.204032
137.502 -22.0453 0.193148
137.971 -21.9662 0.186053
138.9 -22.1067 0.171043
139.65 -22.0938 0.159558
137.389 -20.7111 0.196118
137.265 -20.4818 0.198583
134.796 -13.2317 -0.0610137
136.296 -10.5219 -0.0970435
136.426 -10.1589 -0.0999224
136.172 -9.95603 -0.0949668
140.616 2.21379 -0.250971
141.869 3.51459 -0.287376
140.293 4.59523 -0.263314
139.6 5.18131 -0.25402
113.406 5.34046 0.283863
113.171 5.38895 0.288544
112.938 5.43799 0.292238
112.517 5.48319 0.300052
99.3062 36.5417 -0.176649
87.9266 57.8205 -0.758371
87.9345 59.1562 -0.797835
87.1832 60.4833 -0.838871
83.3536 38.1462 -0.174063
83.2563 37.9431 -0.167689
83.1322 38.0764 -0.171827
82.9619 37.8445 -0.165681
82.818 37.814 -0.165239
80.8773 22.668 0.286925
80.4334 19.6184 0.377377
80.0692 17.115 0.451958
79.7518 14.8837 0.51864
79.5207 13.05 0.573095
118.706 -24.6447 0.237538
117.079 -23.7668 0.274193
115.834 -22.424 0.306745
127.535 -21.064 0.0807409
131.132 -17.4633 0.0160044
131.192 -17.1235 0.0148931
131.2 -17.0377 0.0145751
125.953 -13.1712 -0.165283
125.976 -13.0189 -0.165805
126.054 -12.8737 -0.168029
126.137 -12.8079 -0.169908
126.266 -12.6691 -0.173865
126.487 -12.5416 -0.179341
126.657 -12.4068 -0.184088
126.635 -12.2469 -0.183852
126.605 -12.0869 -0.182654
126.601 -11.9298 -0.182318
126.72 -11.8652 -0.18602
126.684 -11.7043 -0.184855
126.669 -11.5456 -0.184576
126.728 -11.3954 -0.185918
126.848 -11.2512 -0.189941
126.907 -11.1012 -0.191277
127.006 -10.954 -0.194412
127.113 -10.8068 -0.197513
127.128 -10.7292 -0.197759
127.192 -10.5778 -0.200081
127.255 -10.4254 -0.201406
127.287 -10.2703 -0.202894
127.345 -10.1182 -0.204243
127.447 -9.96831 -0.207377
127.479 -9.81227 -0.208868
127.574 -9.74029 -0.211711
127.611 -9.58398 -0.21218
127.644 -9.42809 -0.213666
127.654 -9.27086 -0.214267
127.706 -9.11474 -0.215662
127.773 -8.96079 -0.217978
127.668 -8.79586 -0.216158
127.78 -8.72336 -0.218922
127.978 -8.57432 -0.224596
128.097 -8.42095 -0.228661
131.943 -4.91426 -0.346831
134.112 -3.70867 -0.411491
134.204 -3.52608 -0.414805
133.263 1.38392 -0.424497
133.423 1.49503 -0.429196
133.508 1.68668 -0.433578
133.553 1.87224 -0.436132
133.82 2.09093 -0.444763
133.717 2.25655 -0.443935
118.938 4.61793 -0.0748828
108.858 9.90851 0.0984343
108.726 9.96518 0.100573
90.8136 23.1816 0.056022
95.2125 40.9458 -0.575247
91.7642 40.2248 -0.530663
88.7559 54.7842 -1.03493
88.5598 54.7976 -1.03592
87.8607 61.0531 -1.25801
87.6202 60.8942 -1.25249
87.3352 60.4234 -1.23591
86.7033 61.2592 -1.26636
82.5374 31.9611 -0.217469
82.3861 31.7416 -0.210284
82.2671 31.7569 -0.210913
82.2213 31.8657 -0.214578
81.4219 26.3873 -0.0188106
80.6215 20.6039 0.188208
80.2067 17.7887 0.288833
79.8579 15.3983 0.374022
79.5884 13.5864 0.439205
75.7265 14.1016 0.403731
2.89243 -14.1182 -1.57619
109.881 -24.3409 0.182348
111.82 -23.4201 0.146771
118.029 -19.9345 0.0219194
119.13 -19.51 -0.00359843
119.094 -19.3541 -0.00241079
119.063 -19.2 -0.00019327
119.052 -19.0539 0.000152508
119.687 -18.4553 -0.0122955
119.835 -18.1374 -0.0148996
120.715 -17.0034 -0.0333891
125.824 -13.8517 -0.162096
125.895 -13.7853 -0.164031
125.942 -13.6365 -0.16542
125.941 -13.4806 -0.165069
125.909 -13.3205 -0.163877
125.983 -0.0929111 -0.536014
126.504 0.129124 -0.55545
95.7267 8.74167 0.260843
95.622 8.70337 0.265503
96.5606 11.6383 0.155874
88.0301 59.2273 -1.62669
87.921 59.8646 -1.65383
87.769 60.2566 -1.67017
87.5503 60.2188 -1.66805
87.4134 60.7348 -1.68983
87.2417 61.0266 -1.70185
87.0194 60.9782 -1.6997
86.911 60.9697 -1.69918
86.6945 60.9608 -1.69918
86.5413 61.4136 -1.71777
81.8408 27.2763 -0.271486
81.7125 27.1031 -0.263383
81.6241 27.2453 -0.269388
81.5037 27.1335 -0.2645
80.8479 22.4952 -0.0685099
80.4263 19.2809 0.0677272
80.0621 16.7927 0.173246
79.7609 14.7289 0.260316
106.093 -22.7948 0.0709777
106.147 -22.7664 0.0701205
107.011 -19.9515 0.082633
107.131 -19.8941 0.0799648
119.427 -13.4755 -0.269046
119.318 -13.3889 -0.265919
119.381 -13.2637 -0.267137
119.419 -13.1348 -0.268487
115.086 -11.5476 -0.346616
115.083 -11.4269 -0.346126
115.089 -11.3076 -0.346587
115.074 -11.1851 -0.345165
115.052 -11.0617 -0.344775
115.109 -10.9487 -0.34697
115.218 -10.9019 -0.350646
115.322 -10.7948 -0.354595
115.364 -10.6786 -0.355873
115.362 -10.5581 -0.356377
115.353 -10.4365 -0.355923
115.317 -10.3109 -0.353613
115.303 -10.1897 -0.353177
115.194 -10.1172 -0.348992
115.173 -9.99598 -0.34859
115.177 -9.8762 -0.348067
115.179 -9.75629 -0.34855
115.172 -9.63605 -0.348077
115.185 -9.51758 -0.348507
115.196 -9.39995 -0.348939
115.21 -9.34046 -0.350114
115.227 -9.22256 -0.350523
115.218 -9.10303 -0.350057
115.189 -8.98061 -0.348697
115.19 -8.86154 -0.349182
115.168 -8.74112 -0.348782
115.165 -8.62132 -0.348293
115.172 -8.5628 -0.348499
115.186 -8.44461 -0.349918
115.179 -8.32537 -0.349442
115.176 -8.20557 -0.348953
115.181 -8.08708 -0.349416
115.19 -7.96916 -0.350859
115.214 -7.85143 -0.351229
115.221 -7.73223 -0.351685
115.218 -7.67311 -0.351945
115.479 -6.54803 -0.366338
115.598 -6.42903 -0.371261
115.707 -6.30943 -0.376239
115.811 -6.19024 -0.380234
115.921 -6.12947 -0.384962
116.025 -6.00816 -0.389969
116.126 -5.88656 -0.393987
116.54 -5.39311 -0.413055
117.123 -4.82125 -0.438641
117.242 -4.69221 -0.444603
117.363 -4.56233 -0.450563
117.54 -4.49314 -0.458008
117.504 -4.36858 -0.456694
117.731 -4.23194 -0.467177
117.913 -4.09573 -0.474876
118.066 -3.96042 -0.481705
118.182 -3.82586 -0.486705
118.311 -3.69006 -0.493652
118.413 -3.61894 -0.497463
118.514 -3.4832 -0.502539
118.644 -3.34542 -0.508493
104.187 2.71347 -0.0181312
103.786 3.18232 -0.0119705
93.9954 29.9196 -0.689623
89.6445 58.1986 -1.97479
88.3322 58.4575 -1.98309
88.0974 58.3028 -1.97557
89.1411 65.9854 -2.34726
87.9263 59.8312 -2.04868
87.8922 60.2898 -2.07073
87.694 60.3854 -2.07507
87.5148 60.6186 -2.08588
87.2812 60.486 -2.07844
87.1165 60.8252 -2.09462
87.0288 61.7201 -2.13772
86.8201 61.7788 -2.13996
81.8659 27.2194 -0.468137
81.7576 27.2039 -0.467588
81.6561 27.2429 -0.469231
81.584 27.5172 -0.482703
80.7043 21.1384 -0.173606
9.71114 10.3982 -2.34677
8.78346 10.3968 -2.39118
29.2615 -12.114 -1.22013
115.174 -12.7772 -0.354131
115.137 -12.6484 -0.351841
115.066 -12.5139 -0.348729
115.096 -12.4585 -0.349818
115.125 -12.3415 -0.350161
115.169 -12.2276 -0.351422
115.213 -12.1128 -0.353686
115.234 -11.9946 -0.354071
115.227 -11.8713 -0.353614
115.179 -11.743 -0.35137
115.132 -11.6755 -0.34887
93.464 38.3644 -1.33794
88.7204 39.8752 -1.3697
89.3332 49.9484 -1.90829
89.7007 58.1264 -2.34723
88.2258 58.6496 -2.36839
88.0245 58.6971 -2.37055
88.9882 66.0305 -2.76718
88.7576 66.0428 -2.76732
87.635 60.2371 -2.45174
87.5177 60.8806 -2.48595
87.3762 60.6517 -2.47368
87.1742 60.7357 -2.47799
81.883 27.281 -0.664313
81.7121 27.1967 -0.659778
81.5823 27.0136 -0.649641
81.4792 27.0347 -0.651217
54.1141 12.8239 -0.553727
20.2187 10.0133 -2.18025
26.9407 1.79662 -1.69546
109.516 -14.8003 -0.336685
107.989 -9.54638 -0.435585
107.998 -9.4508 -0.435932
107.99 -9.35249 -0.435379
108.506 -5.05116 -0.471639
108.559 -4.95176 -0.474797
108.619 -4.8514 -0.478924
108.679 -4.75088 -0.482058
108.752 -4.64943 -0.487127
108.83 -4.54657 -0.491181
108.897 -4.49374 -0.495079
108.981 -4.38977 -0.500108
109.047 -4.2873 -0.504215
109.115 -4.183 -0.508322
109.179 -4.07911 -0.512448
91.0123 10.7817 -0.0879684
90.9263 10.8913 -0.0908287
95.8953 41.0634 -1.82851
95.0495 42.2273 -1.88233
93.2647 38.1995 -1.62521
93.1822 38.4095 -1.63647
91.9717 61.6415 -2.98593
89.7342 57.5382 -2.72666
89.5361 57.5862 -2.7288
89.5286 58.0955 -2.75893
90.7063 65.5643 -3.2111
90.4791 65.5933 -3.2123
90.2525 65.6264 -3.21251
90.0263 65.6624 -3.21374
89.8006 65.7013 -3.21497
89.6041 65.9128 -3.22678
89.4975 65.9718 -3.22952
89.2682 65.9931 -3.2297
89.0403 66.0243 -3.23091
88.8088 66.0308 -3.23004
88.5816 66.0598 -3.23124
88.3538 66.091 -3.23245
95.7673 -21.4278 -0.0567197
96.0401 -21.2625 -0.062105
107.944 -11.3508 -0.440366
107.987 -11.259 -0.442541
107.987 -11.161 -0.441944
107.976 -11.0604 -0.440409
107.962 -11.0089 -0.439686
103.313 2.31591 -0.452656
92.3821 59.7123 -3.23304
90.7199 61.7065 -3.34915
90.666 65.6133 -3.6025
90.4377 65.6344 -3.60268
90.2098 65.6656 -3.60289
89.9845 65.7076 -3.60413
88.9325 60.9203 -3.28641
89.5585 65.9323 -3.61608
89.4561 66.02 -3.62193
89.2222 66.0096 -3.62
88.9951 66.0467 -3.62123
88.773 66.1104 -3.62355
88.5434 66.1297 -3.62372
88.3206 66.1955 -3.62705
88.0873 66.1901 -3.62613
87.9517 66.0503 -3.6162
37.8947 0.403759 -1.55167
37.8981 0.274923 -1.54912
37.5909 -1.71557 -1.54438
39.7043 -9.20308 -1.3655
104.467 -1.71115 -0.631594
103.492 2.07291 -0.64681
94.0482 10.8098 -0.480665
89.9282 36.5298 -2.0322
91.3585 60.8167 -3.77246
90.8286 65.5727 -4.10857
90.7086 65.5538 -4.10607
90.4863 65.6095 -4.10835
90.2562 65.6258 -4.10751
90.0306 65.6658 -4.10875
89.8069 65.7115 -4.111
89.5768 65.7278 -4.11016
89.3475 65.7421 -4.10931
89.1285 65.8205 -4.11367
89.0074 65.7937 -4.11114
88.7871 65.8631 -4.11447
88.5562 65.8665 -4.11358
88.3339 65.9292 -4.1169
88.1024 65.9286 -4.11599
87.8758 65.9616 -4.11721
101.795 -3.64376 -0.557331
102.423 2.02137 -0.70968
92.3803 57.7892 -3.88914
90.6845 65.646 -4.47057
90.4549 65.6653 -4.47074
88.9811 65.8842 -4.47564
88.7535 65.9103 -4.47583
88.6392 65.9239 -4.47643
88.4118 65.951 -4.47762
88.1873 65.9988 -4.47989
87.9598 66.0259 -4.48008
70.7004 10.6399 -0.28991
96.5278 -17.0315 -0.343218
99.3921 -8.26953 -0.515695
99.3772 -8.19863 -0.514058
99.4179 -6.33098 -0.517557
101.066 1.42463 -0.767672
101.07 1.50791 -0.769995
101.027 1.57577 -0.769477
89.6755 41.0263 -2.90394
92.1977 55.8817 -4.15916
91.9568 55.734 -4.14369
91.8105 55.9846 -4.16242
91.9905 58.6053 -4.38036
88.5879 65.8731 -4.94947
88.3588 65.8893 -4.94963
86.1814 53.469 -3.8968
56.9787 13.8468 -1.33234
96.2725 -13.3401 -0.357634
99.0064 -1.36623 -0.674962
94.8708 0.125764 -0.393754
93.2171 29.1677 -2.25326
93.1655 29.2015 -2.25364
96.2625 42.1726 -3.42537
91.5201 36.6134 -2.837
91.2263 52.7013 -4.23068
91.2151 53.0737 -4.26326
91.5399 55.3439 -4.46707
91.452 55.8558 -4.5116
90.4553 52.2944 -4.18366
89.0582 52.499 -4.18414
89.338 57.5853 -4.63777
88.0634 52.8006 -4.19911
87.8337 52.5845 -4.17732
87.6319 52.518 -4.17
87.4417 52.5164 -4.1679
87.049 53.01 -4.2078
86.8211 52.7786 -4.18493
87.9906 61.5035 -4.97232
90.8603 51.7472 -4.49449
91.294 54.4713 -4.75665
88.8715 55.3284 -4.8037
87.664 52.4201 -4.51445
87.4723 52.4087 -4.51132
87.3194 52.6209 -4.52992
87.1983 56.0633 -4.85468
87.0041 56.1037 -4.85676
70.6139 11.1353 -0.668368
81.2656 -20.9468 -0.187615
95.9543 41.2304 -3.96196
90.4433 41.3306 -3.82756
90.5399 50.7036 -4.76172
90.3378 50.6421 -4.75143
90.1385 50.5853 -4.74214
89.9524 50.5912 -4.74005
89.464 50.4856 -4.72194
89.2909 50.5462 -4.72501
87.9458 50.7746 -4.72934
85.5739 39.5199 -3.56424
85.4673 39.7587 -3.58673
85.3607 39.5691 -3.56645
87.1666 51.072 -4.74927
86.9933 51.1447 -4.75439
86.8179 51.2026 -4.75846
86.6453 51.2803 -4.7646
86.471 51.3461 -4.7697
86.2967 51.4119 -4.7738
86.2032 51.4084 -4.77323
71.2513 5.17258 -0.199774
59.4698 10.0446 -1.38585
90.8529 -16.0864 -0.396078
91.3207 41.23 -4.13998
90.0623 46.9776 -4.71564
89.8947 47.0132 -4.71659
89.7162 47.0018 -4.71239
87.506 47.2997 -4.70712
87.3443 47.3617 -4.71114
87.1654 47.3342 -4.70588
85.4828 39.7504 -3.87262
85.2995 39.5478 -3.84866
86.5601 47.3416 -4.69879
86.3913 47.3622 -4.69867
86.2164 47.3482 -4.69545
86.0479 47.3778 -4.69637
85.8723 47.3519 -4.6911
85.691 47.2935 -4.68272
83.7828 37.2423 -3.58337
83.6141 37.0355 -3.55932
91.4999 35.674 -3.85724
89.658 40.3823 -4.3274
89.0497 44.4925 -4.77422
88.8829 44.4926 -4.77102
88.7267 44.5436 -4.77397
86.6368 44.8967 -4.77735
85.5289 39.5638 -4.15664
85.3827 39.573 -4.15538
86.1435 44.91 -4.77175
85.9691 44.8576 -4.76337
85.8018 44.8406 -4.76009
84.8948 39.7542 -4.16944
84.7485 39.7634 -4.16917
84.6026 39.7745 -4.16791
84.4586 39.7986 -4.1697
84.3127 39.8097 -4.16944
84.1352 39.6053 -4.14344
83.6504 37.2384 -3.86899
92.8062 -4.32678 -0.605231
88.7487 41.9755 -4.78929
88.6177 42.0956 -4.8004
86.3333 42.57 -4.81321
85.5964 39.7732 -4.46819
85.934 42.5423 -4.804
85.7844 42.5904 -4.80791
85.6192 42.5458 -4.79951
85.464 42.5553 -4.79828
84.8481 39.7287 -4.45156
84.702 39.746 -4.45133
84.6282 39.7456 -4.45068
84.4833 39.7637 -4.45044
84.3394 39.7816 -4.4512
82.7546 -18.2448 -0.33467
82.7942 -18.2294 -0.334545
91.4928 -10.444 -0.497277
92.2778 -1.43167 -0.719668
90.6673 38.6947 -4.72066
90.5616 38.8566 -4.73683
90.485 38.8577 -4.73519
88.4577 39.8674 -4.80499
88.3348 39.9944 -4.8181
88.1821 39.9934 -4.81382
88.0275 39.9867 -4.80952
87.8835 40.0248 -4.81137
87.7351 40.0404 -4.81013
87.6522 40.0121 -4.80441
87.2232 40.1332 -4.80995
87.0803 40.1793 -4.81282
86.9483 40.2712 -4.82182
86.8064 40.3242 -4.82572
86.157 40.4926 -4.8345
85.9829 40.3736 -4.81683
85.8207 40.3083 -4.80633
85.5368 39.5567 -4.70759
85.4629 39.5554 -4.70593
85.471 40.4603 -4.81962
85.3106 40.4069 -4.81017
85.1409 40.2902 -4.79249
84.9478 40.0203 -4.7563
84.7562 39.7543 -4.72011
84.6138 39.7821 -4.7209
84.4689 39.8002 -4.72166
84.3982 39.8216 -4.72309
84.2523 39.8328 -4.72283
76.496 10.1235 -0.930256
70.5954 -15.4265 -0.273056
90.9191 27.2618 -3.53935
89.727 36.8198 -4.6924
89.5966 36.8752 -4.69525
89.5305 36.9 -4.69667
89.4041 36.9689 -4.70155
89.2693 37.0078 -4.70235
89.142 37.0768 -4.70824
89.0115 37.1312 -4.71109
88.8821 37.1935 -4.71596
88.7571 37.2713 -4.72187
88.7 37.3302 -4.72739
88.5744 37.4111 -4.73532
88.4476 37.4841 -4.74122
88.3126 37.5281 -4.74304
88.1663 37.5231 -4.73872
88.0291 37.5593 -4.73952
87.89 37.5826 -4.73927
87.7461 37.5874 -4.73598
87.6777 37.6034 -4.73637
87.5366 37.62 -4.73511
87.3922 37.6208 -4.7318
85.7582 38.0852 -4.75748
85.6215 38.1243 -4.76029
85.4812 38.1397 -4.75902
85.3436 38.1729 -4.76081
85.2069 38.213 -4.76362
85.0694 38.2472 -4.76642
84.9296 38.2726 -4.76718
84.8643 38.3094 -4.77065
84.7301 38.3664 -4.77652
84.5946 38.4144 -4.78036
84.4614 38.4773 -4.78625
68.6425 -15.7795 -0.533888
86.7564 -15.5947 -0.476571
89.6324 33.9962 -4.62322
89.5703 34.0204 -4.62462
89.4384 34.0376 -4.62231
86.5055 35.1025 -4.68064
86.3792 35.1441 -4.68341
86.2567 35.2044 -4.68824
86.195 35.2316 -4.69065
86.0644 35.2577 -4.69137
85.9359 35.2916 -4.69312
85.8082 35.3304 -4.69589
85.6777 35.3575 -4.69662
80.2741 11.2239 -1.28884
80.2192 11.2289 -1.28912
80.1585 11.2004 -1.28429
80.1019 11.1935 -1.28253
80.0445 11.1816 -1.27976
79.4306 -16.7253 -0.262723
80.9025 9.71379 -1.20563
76.9759 -17.1592 -0.382602
88.5912 2.81873 -0.933695
88.5618 2.85233 -0.932974
88.5656 2.91339 -0.940207
88.5554 3.02298 -0.948707
76.7446 3.71662 -0.345676
71.9667 4.99975 -0.743673
75.3811 -15.1765 -0.381346
85.7762 -12.5659 -0.541704
79.9973 -6.01498 0.036867
76.53 -4.56283 0.304415
76.492 -4.56036 0.295224
76.4768 -4.54706 0.287097
76.2092 -7.45076 0.309784
119.016 -11.1083 -17.3061
118.95 -10.771 -17.2608
76.7454 -4.84248 0.404592
76.7662 -4.89293 0.4289
76.7485 -4.86918 0.415718
76.6499 -4.99014 0.438748
76.4707 -7.10743 0.442616
76.4735 -7.12301 0.438693
76.6353 -4.72064 0.313566
76.7086 -4.85336 0.383462
76.6955 -4.83935 0.375342
76.6852 -4.82677 0.367241
76.6581 -4.79156 0.346967
76.6204 -4.73967 0.317573
76.5809 -4.68552 0.287162
76.6084 -4.73895 0.314513
76.591 -4.72028 0.302353
76.6208 -4.77808 0.332734
76.5795 -4.72265 0.301309
76.5512 -4.79829 0.323486
76.6558 -4.95775 0.411642
76.5538 -4.87638 0.35382
76.3663 -7.02763 0.41579
76.3448 -7.17727 0.363303
76.2825 -7.35744 0.284748
76.3532 -7.28674 0.330794
76.3628 -7.28308 0.334825
76.417 -7.2292 0.369861
76.4652 -7.18156 0.399894
76.4727 -7.17859 0.403918
76.4472 -7.21537 0.383948
76.4096 -7.26658 0.354979
76.3409 -7.35173 0.305002
78.7625 -7.39475 0.208685
78.7407 -7.3703 0.223481
78.701 -7.32298 0.252098
0 1.15033e-41 0
