ply
format ascii 1.0
element vertex 679
property float x
property float y
property float z
end_header
157.334 -6.28606 4.37918
136.855 5.04616 3.50621
136.349 8.342 3.49002
122.745 7.8673 2.94911
124.339 9.25806 3.01791
93.3406 58.2776 3.11338
82.912 49.3819 2.74582
82.7118 48.9905 2.73382
80.8495 22.3585 1.98341
28.2985 16.3124 2.55717
48.731 -12.0128 2.04468
53.6554 -12.2759 1.91974
53.5014 -12.397 1.92538
14.6896 -23.3303 3.07745
20.7707 -21.9285 2.90144
53.9144 -13.3179 1.92809
48.4399 -20.2539 2.18697
12.0069 -41.2449 3.47386
11.9186 -41.5604 3.48319
54.1921 -23.2621 2.12609
48.6714 -27.7614 2.35445
48.1905 -28.907 2.39313
129.815 -62.1619 4.43559
129.433 -61.3912 4.40004
120.422 -51.2286 3.81285
120.493 -51.0238 3.80808
120.443 -50.8306 3.80052
120.233 -50.3253 3.77886
120.645 -50.488 3.79683
130.788 -60.9522 4.42805
130.968 -60.7984 4.42838
131.186 -60.6866 4.43126
131.44 -60.6092 4.4366
134.45 -63.3777 4.61351
134.807 -63.5668 4.63026
134.911 -63.3142 4.62643
131.533 -54.7394 4.26366
134.397 -41.1592 3.99659
144.381 -46.602 4.48635
144.466 -46.5134 4.48641
144.539 -46.2754 4.48345
138.817 -38.1831 4.08784
141.137 -39.1721 4.19569
141.73 -39.236 4.21936
145.365 -29.3893 4.16411
146.669 -2.46728 3.49363
138.761 5.05979 3.19882
134.694 7.29066 3.05965
151.787 16.2889 3.64552
104.559 13.9497 2.12436
104.412 18.2154 2.17171
99.4332 14.76 1.99344
102.704 46.5858 2.60759
83.1999 48.8319 2.3823
83.1121 48.8184 2.38175
82.9367 48.8004 2.3796
82.7611 48.7814 2.37746
82.5087 47.479 2.34776
80.2269 17.8941 1.70075
23.0473 -27.1901 2.5506
12.2952 -40.7204 2.97864
11.7938 -41.7853 3.00767
54.2558 -23.2097 1.93122
54.2217 -23.3472 1.93483
121.499 -40.3233 3.18258
144.339 -45.9932 3.98623
134.523 -36.9906 3.50149
130.411 -28.2272 3.21027
153.913 -32.2156 4.0462
141.398 -21.4058 3.47478
141.405 -21.2006 3.47255
141.439 -21.0024 3.47156
141.432 -20.5892 3.46593
141.398 -20.3762 3.46236
141.44 -20.2832 3.46208
141.423 -20.0746 3.45866
133.44 -2.00303 2.77755
105.352 18.346 2.02965
105.23 18.3868 2.02652
105.146 18.3829 2.02494
104.768 18.1759 2.01351
99.0217 38.1278 2.15081
92.1539 28.8753 1.90509
90.643 32.76 1.943
82.7616 47.8988 2.10295
82.5947 47.9604 2.10237
11.929 -39.6576 2.61136
12.1297 -39.8202 2.61182
12.1995 -40.0496 2.61475
12.3021 -40.2615 2.61681
12.3347 -40.5097 2.62059
132.378 -40.8651 3.2172
139.999 -21.2257 3.13058
139.949 -21.0112 3.12688
139.913 -20.9019 3.12494
139.92 -20.7018 3.12274
139.906 -20.4978 3.11937
139.934 -20.3038 3.11837
139.957 -20.108 3.11631
139.945 -19.9052 3.11396
157.02 -5.76905 2.91463
138.016 7.53265 2.43101
151.256 21.5955 2.69457
96.8212 13.7296 1.58406
83.3418 47.3758 1.69137
83.1839 47.5483 1.69115
82.6255 46.7916 1.67985
118.071 -26.2857 2.24338
144.091 -30.1721 2.84177
148.845 -30.687 2.95017
153.156 -31.0286 3.04731
139.504 -20.7329 2.64192
139.496 -20.6306 2.64023
139.503 -20.4326 2.63905
139.527 -20.2391 2.63701
139.51 -20.0366 2.63463
139.518 -19.8386 2.63345
155.383 -19.6629 2.98248
158.846 -6.22808 2.55161
159.151 -5.09825 2.54976
95.2939 12.8965 1.42426
94.4256 38.5412 1.48415
91.9732 37.5592 1.45563
89.8298 59.6138 1.51573
87.387 66.1194 1.5196
83.944 48.4814 1.42379
81.9636 37.2793 1.36538
81.8989 38.5468 1.37001
80.3154 18.5359 1.28037
151.864 -19.6131 2.52684
120.912 6.19605 1.53428
142.991 18.6827 1.69425
95.5583 12.9816 1.25262
94.9411 39.5054 1.15583
87.7011 63.3692 1.02299
83.9224 38.6586 1.07186
50.0909 12.5524 0.957275
140.955 -29.7263 1.9734
143.753 -30.0941 2.00382
145.752 -30.357 2.02683
147.822 -30.7402 2.05011
148.924 -30.8861 2.06294
149.983 -31.0105 2.07434
151.224 -31.1896 2.08838
152.409 -31.3425 2.10086
154.96 -31.6844 2.12933
142.383 -21.8833 1.93177
145.828 -21.9569 1.96701
139.065 -19.7777 1.88278
151.749 -19.5444 2.01156
155.27 -19.8161 2.04958
121.041 5.94785 1.33175
153.159 22.4543 1.40485
94.7508 39.6713 0.924416
86.7638 61.1896 0.702817
141.657 -21.4711 1.61896
144.787 -21.0343 1.63375
151.522 3.24312 1.05982
95.5791 12.4416 0.979126
97.3783 39.6075 0.628698
97.2355 39.6677 0.627295
92.0597 60.7418 0.30968
87.7682 61.861 0.268836
87.5372 61.746 0.268892
86.807 66.1928 0.201916
81.8212 33.3693 0.631698
81.7404 33.084 0.634895
33.6212 13.7747 0.327174
33.0486 13.8537 0.318563
32.4795 13.9283 0.310005
21.6321 15.4743 0.138343
96.5783 -23.2002 1.21451
97.0168 -19.7413 1.2111
116.111 -22.2795 1.22325
134.366 -28.651 1.24127
140.758 -29.5701 1.24397
147.483 -30.5304 1.24532
148.556 -30.6671 1.2459
150.779 -31.0698 1.2474
151.932 -31.2129 1.24758
139.051 -21.488 1.21331
139.141 -21.311 1.21285
139.15 -21.1133 1.21169
139.183 -20.922 1.21073
139.189 -20.7249 1.20955
139.183 -20.6239 1.20887
139.176 -20.424 1.20858
139.137 -20.2161 1.208
139.139 -19.8213 1.20555
139.141 -19.6236 1.20533
139.591 -19.5252 1.20396
139.924 -19.4978 1.20418
140.499 -19.4217 1.20284
158.045 -4.28769 0.623661
158.009 -3.7935 0.620326
96.579 13.3262 0.808794
95.3995 12.3931 0.827129
95.3232 12.4244 0.826386
89.7365 60.1474 -0.109342
87.6129 61.075 -0.1384
87.4394 61.4246 -0.146827
87.3471 61.5542 -0.149299
138.778 -21.4695 0.836214
138.735 -21.2591 0.836592
138.689 -21.0504 0.835963
138.691 -20.8525 0.83574
138.681 -20.6531 0.834429
138.689 -20.4571 0.834259
138.69 -20.2603 0.833042
138.708 -20.1668 0.833586
138.735 -19.9758 0.832595
139.066 -19.657 0.828982
154.641 -16.1088 0.183858
154.354 -15.8316 0.187065
154.165 -15.5697 0.18807
154.064 -15.4377 0.189521
154.292 -13.6773 0.179188
154.478 -13.4567 0.176148
154.717 -13.2409 0.171525
155.099 -13.0357 0.164989
158.889 -5.72485 0.073671
153.947 -4.82589 0.135521
106.569 20.5971 0.398297
106.636 20.8339 0.392301
95.4445 12.6999 0.647532
95.4869 12.8736 0.643754
94.4076 49.3248 -0.274286
89.7286 40.7936 -0.0577454
89.1416 55.9878 -0.467706
81.6274 31.2215 0.166672
115.779 -22.2058 0.701386
135.524 -27.8986 0.45087
135.768 -27.7896 0.447947
136.008 -27.6769 0.444968
136.266 -27.5699 0.442157
131.625 -23.8076 0.503332
132.406 -23.6988 0.493269
133.244 -23.5981 0.482663
134.079 -23.7699 0.471739
137.578 -23.58 0.426719
141.877 -23.4699 0.370949
141.92 -23.2701 0.370014
142.298 -23.1602 0.365046
142.888 -23.1035 0.356938
143.111 -22.9491 0.354582
143.485 -22.8306 0.349533
139.142 -21.5154 0.405096
139.679 -21.5511 0.398184
139.553 -20.3171 0.397586
139.385 -19.7815 0.399039
139.189 -19.5407 0.401125
139.899 -19.4973 0.391959
142.781 -12.2026 0.00419442
142.472 -11.9739 0.00955076
143.172 -11.1268 -0.00769547
142.713 -10.8924 0.000540928
108.994 10.4117 0.393234
97.1745 12.8723 0.496893
88.2582 66.2238 -1.1219
82.4575 37.0367 -0.209627
81.6959 32.4532 -0.0655243
81.5551 32.1312 -0.0555289
72.939 13.4529 0.461966
72.8681 13.4591 0.460418
124.709 -25.8033 0.334022
125.387 -25.4967 0.322988
125.64 -25.4302 0.319387
124.679 -21.5457 0.347267
131.165 -13.8146 -0.0843028
131.412 -13.6827 -0.090352
131.595 -13.5416 -0.0949142
131.734 -13.393 -0.0988421
131.853 -13.2406 -0.101936
131.927 -13.0827 -0.104384
131.908 -12.9961 -0.104059
131.853 -12.8213 -0.102548
131.923 -12.6616 -0.105042
131.915 -12.4937 -0.105146
132.043 -12.3406 -0.109177
132.095 -12.1784 -0.110816
132.179 -12.0198 -0.113203
132.249 -11.9432 -0.115172
132.328 -11.7828 -0.117604
132.392 -11.6213 -0.119151
132.432 -11.4564 -0.120891
132.519 -11.2962 -0.123264
132.59 -11.1338 -0.125766
132.667 -10.9722 -0.128219
132.708 -10.8913 -0.129429
132.833 -10.7326 -0.133518
132.859 -10.5655 -0.134378
132.917 -10.4002 -0.136989
133.002 -10.2366 -0.139402
133.048 -10.0706 -0.141103
133.079 -9.64866 -0.143511
132.995 -9.4738 -0.142204
133.224 -9.3171 -0.148534
138.522 -4.95394 -0.305636
136.975 -3.6297 -0.277017
136.981 -3.44771 -0.278106
136.885 -3.27099 -0.277903
137.044 -3.08089 -0.282945
137.586 1.75916 -0.341219
137.326 2.74787 -0.346257
137.449 2.95431 -0.35166
138.064 3.24269 -0.370028
137.916 3.40682 -0.368123
138.157 3.54255 -0.375236
118.947 1.14973 0.120545
117.96 1.72163 0.13688
117.912 1.77506 0.137203
85.7825 62.574 -1.42697
72.8729 13.381 0.338934
72.8413 13.2674 0.342415
3.41371 -11.6878 -1.77444
115.924 -24.7928 0.239532
116.074 -23.5131 0.246636
124.971 -20.6357 0.0596817
125.318 -20.5861 0.0518662
126.7 -17.8867 0.0249721
126.867 -17.7696 0.0214473
127.129 -17.2781 0.0152627
127.54 -17.2126 0.00581565
127.573 -17.0606 0.00509973
127.643 -16.9163 0.00370671
127.684 -16.7666 0.00206801
127.769 -16.6254 0.000800222
127.859 -16.5647 -0.00193342
127.991 -16.4333 -0.00480107
127.569 -15.8728 0.0056704
128.181 -15.5949 -0.00966564
128.09 -15.419 -0.00741417
128.119 -15.2656 -0.00815927
130.747 -15.2454 -0.0723892
130.84 -15.0951 -0.0746602
130.838 -15.011 -0.0741988
130.894 -14.8544 -0.0757714
130.914 -14.6907 -0.0766428
130.954 -14.5307 -0.0773569
130.928 -14.3612 -0.0776
130.869 -14.186 -0.0761126
130.938 -14.0302 -0.0785942
130.991 -13.955 -0.0796788
124.214 -11.3478 -0.214679
124.557 -10.8105 -0.226563
124.668 -10.6053 -0.231046
124.7 -10.4645 -0.23169
124.757 -10.3262 -0.234146
124.746 -10.1812 -0.234124
124.802 -10.0418 -0.236593
124.842 -9.90104 -0.238185
124.873 -9.83182 -0.239392
124.918 -9.6908 -0.240949
124.973 -9.55036 -0.243424
125.009 -9.40903 -0.245048
125.072 -9.26862 -0.247472
125.109 -9.12644 -0.249093
125.625 -7.84449 -0.27137
125.738 -7.70222 -0.275447
125.852 -7.5591 -0.279521
125.926 -7.41433 -0.282887
125.996 -7.26885 -0.286293
126.079 -7.12325 -0.289605
126.202 -7.05115 -0.293173
126.335 -6.90582 -0.29812
126.423 -6.75897 -0.302403
126.521 -6.61058 -0.30562
126.59 -6.46297 -0.309045
126.889 -6.0891 -0.321226
127.136 -5.63689 -0.331272
127.259 -5.48405 -0.336338
127.406 -5.32956 -0.342246
127.504 -5.17609 -0.346497
127.563 -5.09873 -0.348557
127.616 -4.94585 -0.351125
127.695 -4.79064 -0.355524
129.879 -3.2053 -0.436709
131.287 1.76347 -0.532561
107.581 3.14208 0.166378
106.491 2.86905 0.204243
107.558 10.3808 0.00507903
107.41 10.4123 0.00782543
107.276 10.4511 0.0106139
107.152 10.4963 0.0124413
97.4318 8.32107 0.312107
88.0664 10.2202 0.408915
91.1802 53.3453 -1.46162
85.9392 66.3263 -2.04726
83.2833 38.7648 -0.826489
82.6442 34.4356 -0.636089
82.3714 32.6032 -0.555623
80.5539 20.0861 -0.00463886
72.9805 13.196 0.212855
72.9164 13.1861 0.212456
72.8449 13.1944 0.209889
28.3525 -14.3783 -1.13128
107.577 -24.7824 0.190432
112.983 -22.6336 0.074911
113.091 -22.5553 0.0732027
113.233 -22.4922 0.0698344
113.366 -22.4245 0.0663624
117.318 -19.0094 -0.0185045
120.61 -14.1363 -0.101211
122.622 -14.0205 -0.163464
119.643 -7.32767 -0.325622
120.415 -6.37689 -0.359999
120.543 -6.24697 -0.365888
120.666 -6.11732 -0.370812
120.779 -5.98623 -0.375817
120.906 -5.9198 -0.381318
121.03 -5.78733 -0.38725
121.124 -5.65449 -0.391401
121.242 -5.52101 -0.396389
121.358 -5.38639 -0.40239
110.453 2.89431 -0.10643
97.546 8.21585 0.173578
94.3853 41.8482 -1.26688
86.0676 66.2822 -2.47808
83.3065 38.3266 -1.0736
82.9764 36.1702 -0.965527
82.6766 34.2074 -0.867443
82.3852 32.1989 -0.767014
82.1272 30.4473 -0.679945
80.5532 19.7813 -0.14675
73.5205 11.6097 0.178626
68.7869 15.8151 -0.133649
21.9353 3.98685 -1.89796
22.6011 -4.97226 -1.76631
32.6308 -12.2201 -1.21797
103.817 -23.9489 0.117192
103.913 -23.9012 0.115584
114.77 -7.7732 -0.345889
114.77 -7.54989 -0.346281
118.968 -1.87023 -0.574509
119.063 -1.73345 -0.580681
119.052 -1.67134 -0.580142
120.108 -0.698161 -0.637622
110.622 44.2283 -1.90597
90.5073 49.5944 -1.9621
90.9237 54.1466 -2.21549
89.1681 54.8177 -2.2503
89.024 55.1538 -2.26943
88.8528 55.3241 -2.27873
88.6534 55.3217 -2.27815
86.0205 66.2333 -2.89413
85.7938 66.2662 -2.89597
83.0589 37.1672 -1.26716
82.8205 35.1551 -1.15433
80.596 20.2886 -0.324612
80.1925 17.3377 -0.160111
30.0167 -3.85686 -1.67492
29.9171 -4.00714 -1.6797
102.699 -22.0752 0.0244685
112.615 -4.38594 -0.487516
111.219 44.0549 -2.28762
90.2589 12.3203 -0.0914306
90.1772 12.3837 -0.0934137
96.6547 45.3289 -2.1103
96.4627 45.2942 -2.10546
94.707 41.7821 -1.87718
85.848 66.2721 -3.35964
83.1101 37.6139 -1.57159
82.7341 34.8107 -1.39781
82.2342 30.984 -1.15954
80.44 19.0213 -0.415838
80.2223 17.5821 -0.326428
80.1585 16.9014 -0.284642
77.2349 15.9902 -0.252987
32.9987 9.29349 -2.02247
42.3748 -10.4173 -1.16812
101.728 -21.0536 -0.0908921
108.501 -7.9464 -0.416904
108.51 -7.85479 -0.418409
109.899 -3.63715 -0.525715
95.1598 0.591501 0.170947
94.7149 42.3897 -2.18593
86.4847 66.2029 -3.74164
83.1771 38.4909 -1.86659
82.8446 36.1946 -1.71166
81.8355 28.7155 -1.20527
80.371 18.8731 -0.541416
80.2644 18.1622 -0.493749
80.1629 17.4931 -0.448306
80.1043 16.8622 -0.405793
41.0218 6.56694 -1.68376
104.426 -14.5081 -0.230295
107.494 0.347247 -0.661861
107.489 0.392364 -0.663175
107.49 0.486259 -0.664757
107.337 0.823774 -0.663962
107.305 0.90927 -0.663725
107.237 0.985808 -0.661689
107.233 1.03178 -0.662001
107.187 1.11335 -0.661845
107.066 1.17433 -0.656092
107.029 1.25758 -0.65588
106.963 1.33284 -0.653824
106.9 1.40965 -0.651753
91.719 28.6327 -1.51469
93.7122 70.2653 -4.57003
86.0797 66.2177 -4.25067
83.1172 37.6535 -2.11781
82.509 33.5993 -1.8149
80.3363 18.4105 -0.683788
80.2303 17.7178 -0.63223
80.1298 17.0698 -0.583911
80.0347 16.4381 -0.536655
79.8954 15.3371 -0.45479
104.582 -12.5692 -0.399271
104.185 -12.2234 -0.372278
104.153 -12.1328 -0.369076
105.242 -2.44992 -0.600615
105.296 -2.35773 -0.605803
105.333 -2.26917 -0.610088
105.369 -2.2209 -0.613128
105.41 -2.1298 -0.617404
105.909 -0.575685 -0.681507
91.5841 42.7382 -2.77965
92.3385 59.7285 -4.1162
81.9029 29.556 -1.69105
80.4162 18.875 -0.842117
80.3069 18.1394 -0.784315
80.2054 17.4986 -0.733048
80.1082 16.8602 -0.682764
80.0164 16.2584 -0.63467
99.0509 47.5428 -3.63293
96.928 42.7098 -3.19605
96.6907 42.5312 -3.17665
93.3438 42.4022 -3.10791
88.1353 63.0686 -4.81928
84.0013 39.2528 -2.76245
80.3537 18.555 -0.980578
80.2838 17.8338 -0.918582
80.1814 17.173 -0.862196
80.0838 16.5246 -0.805854
58.5723 12.4669 -1.3443
90.6176 -20.8229 -0.130238
90.6189 -20.7301 -0.124807
90.8535 -20.7015 -0.133298
90.9059 -20.6748 -0.134088
90.8003 -20.4542 -0.117221
100.22 -11.1929 -0.371221
101.364 1.89066 -0.74857
87.6328 61.0154 -5.03111
87.1816 59.0457 -4.84906
82.0198 30.0832 -2.18252
81.5902 27.1529 -1.91333
81.4016 25.8743 -1.79571
80.6816 20.6974 -1.32059
79.9795 15.7684 -0.868892
86.2899 55.2685 -4.86893
86.1051 55.3731 -4.87791
85.9226 55.5006 -4.89002
82.376 33.7996 -2.76315
81.9103 29.2516 -2.31813
81.3557 25.1477 -1.91651
80.8756 21.9622 -1.60509
80.095 16.4761 -1.06948
80.0025 15.8563 -1.00928
76.4412 3.86718 0.107896
99.0189 1.19719 -0.811119
98.9826 1.21865 -0.808513
82.3263 33.6247 -3.00143
82.1925 33.5109 -2.98968
81.2952 24.4596 -2.04566
81.0018 22.7681 -1.86922
80.8709 22.0518 -1.79469
80.4626 18.9853 -1.4755
80.4057 18.5956 -1.43548
74.9541 10.4604 -0.675936
74.9069 10.3167 -0.66238
59.8547 7.88256 -1.4285
59.815 7.81759 -1.42838
86.142 46.8591 -4.71856
85.9661 46.817 -4.71257
85.8782 46.7894 -4.70903
85.7095 46.7967 -4.70929
84.0162 38.7601 -3.81732
82.3404 33.7073 -3.25685
81.4108 25.5446 -2.35561
80.294 17.2688 -1.44301
80.1988 16.7696 -1.38758
80.153 16.5389 -1.36247
60.7601 7.01844 -1.4356
85.5783 44.372 -4.77712
83.8715 37.9817 -4.02352
81.3482 25.0558 -2.50802
80.371 17.5457 -1.63019
80.2712 16.9451 -1.56016
80.1817 16.5198 -1.51015
80.0879 15.9124 -1.44004
86.606 -16.7844 -0.123266
94.5197 36.9904 -4.37477
94.2436 36.6367 -4.32455
81.5017 25.7707 -2.79039
80.3357 16.9774 -1.70791
80.2468 16.6116 -1.66226
80.1543 16.103 -1.59975
92.5125 -14.0263 -0.474995
92.5451 -13.9896 -0.47599
84.0506 38.9214 -4.67512
81.4411 25.6018 -2.95278
80.3065 16.7911 -1.81796
80.2077 16.136 -1.73358
80.1029 15.2191 -1.61561
80.0019 14.2381 -1.48922
83.756 36.9706 -4.64708
81.5011 25.4226 -3.09323
81.0161 22.4242 -2.69101
80.3491 16.8964 -1.95132
80.2575 16.4846 -1.8954
80.1156 14.7401 -1.66254
80.0569 14.0972 -1.57595
93.1895 -6.14738 -0.607249
88.6183 26.9105 -3.63635
83.8884 35.3998 -4.73034
83.7622 35.4555 -4.73759
83.6329 35.4904 -4.74174
83.501 35.5076 -4.74279
87.1417 -15.0709 -0.378106
77.4949 7.5923 -1.0928
77.4517 7.58037 -1.09304
77.4326 7.55993 -1.09005
77.3876 7.56342 -1.09139
77.3447 7.54641 -1.0906
77.3013 7.53958 -1.09087
77.2599 7.51933 -1.08804
77.2154 7.51872 -1.08935
77.1715 7.50892 -1.08961
77.1496 7.51108 -1.09078
77.1059 7.50228 -1.09004
77.0593 7.51509 -1.09345
77.0163 7.50416 -1.0937
76.3698 6.46119 -1.09984
76.3273 6.46128 -1.10215
76.2831 6.46971 -1.10452
76.2563 6.40392 -1.0953
85.0619 -15.2383 -0.486026
87.6412 -12.3562 -0.538444
77.9106 5.45023 -1.10546
76.5762 4.80519 -1.12504
76.5567 4.81003 -1.12721
76.5213 4.80304 -1.12742
76.4926 4.7658 -1.12139
76.47 4.7075 -1.11219
76.4425 4.6721 -1.10717
75.769 4.30268 -1.17871
81.8548 -6.27437 0.0720525
78.389 -4.82494 0.327101
78.3407 -4.81699 0.313704
128.826 -1.82002 -19.9748
78.5462 -5.12708 0.444121
119.182 -10.7354 -16.3844
78.6273 -5.16001 0.45591
78.62 -5.15492 0.451825
78.2729 -7.44193 0.431586
78.5432 -5.0744 0.385769
78.5615 -5.11434 0.40615
78.5561 -5.11053 0.403087
78.5242 -5.06663 0.377583
78.5005 -5.036 0.360221
78.4498 -4.96316 0.3184
78.4503 -4.97332 0.322467
78.4735 -5.02103 0.346933
78.4585 -5.00676 0.337735
78.4653 -5.02186 0.345879
78.3898 -4.91219 0.283649
78.4756 -5.16351 0.403839
78.4779 -5.2294 0.430267
78.2842 -7.48412 0.404929
78.2962 -7.49193 0.405064
78.2552 -7.54675 0.375109
78.18 -7.64324 0.319167
80.5882 -7.53826 0.309832
80.6921 -7.74089 0.194838
80.5999 -7.63421 0.258513
80.577 -7.6035 0.276157
80.6378 -7.61043 0.253636
0 1.58066e-42 0
