ply
format ascii 1.0
element vertex 341
property float x
property float y
property float z
end_header
181.882 -4.90144 3.78817
165.652 33.1756 3.75119
143.172 21.4851 3.02449
117.101 10.229 2.26377
117.119 10.381 2.26863
117.118 10.5114 2.2716
101.968 37.7767 3.09852
100.289 35.3009 3.02604
100.526 15.4163 2.3576
100.448 15.3973 2.35702
100.371 15.3802 2.35743
99.0337 33.1675 2.96323
98.8337 32.2881 2.93551
99.1063 15.7454 2.38006
98.6895 17.7647 2.45179
91.2348 22.8479 2.71518
89.656 22.7759 2.73959
89.5461 22.9091 2.74514
79.8629 47.2527 3.67671
79.6228 46.3135 3.65221
76.8538 46.4775 3.70789
76.6327 46.4996 3.71306
76.3957 46.5513 3.71931
91.1748 9.75941 2.31366
79.7682 15.9068 2.7678
79.5752 14.6384 2.74213
77.3527 12.3894 2.75549
73.4168 10.0586 2.83397
72.7117 10.2675 2.86167
66.4887 13.8717 3.13587
63.7902 14.0326 3.23018
67.3755 11.021 3.05585
63.1324 12.459 3.22706
54.5631 15.431 3.57388
44.1305 16.9324 3.96897
44.0882 16.7324 3.96724
37.8265 12.765 4.14948
28.3475 14.3619 4.52048
44.7203 -2.85564 3.76963
44.8451 -3.05271 3.76401
29.8971 -8.57042 4.3388
29.9165 -8.7976 4.33775
43.683 -9.836 3.79883
43.8645 -10.109 3.79193
48.858 -11.4735 3.59872
52.1185 -15.3018 3.48232
46.9786 -17.0507 3.69007
44.0474 -20.8324 3.82456
43.9617 -21.0392 3.83007
55.0194 -19.5253 3.39393
54.109 -22.8416 3.45657
54.5743 -22.873 3.43911
71.018 -20.0987 2.79203
73.8375 -21.6354 2.70742
61.2155 -32.2881 3.31909
66.4267 -42.2577 3.34982
66.4279 -42.36 3.35183
74.3744 -35.1862 2.94586
64.2234 -52.8817 3.67311
65.6498 -53.8556 3.65976
65.6238 -54.1731 3.66898
167.819 -22.6 3.4322
167.617 -22.3453 3.42421
167.657 -22.1399 3.42395
167.685 -21.9317 3.42375
167.682 -21.7181 3.42171
167.74 -21.5154 3.42235
167.751 -21.4109 3.42227
167.785 -21.2035 3.42204
167.828 -20.9986 3.42176
179.293 -6.49141 3.22331
149.399 19.1617 2.77196
155.613 25.0201 2.96751
161.905 30.8217 3.16467
161.602 30.8891 3.16027
143.121 25.6195 2.76776
98.9479 38.0134 2.82451
98.7959 38.0456 2.82631
97.9365 16.7515 2.25703
97.8736 16.6181 2.2534
78.2201 48.4053 3.34516
77.0118 47.2494 3.33586
76.7328 47.3942 3.34331
76.8238 46.7159 3.32499
76.7515 46.4071 3.31845
37.7287 13.3437 3.72586
43.9864 -12.1442 3.42078
28.259 -17.6546 3.9487
172.716 -34.0641 3.19695
177.27 -34.4679 3.29485
167.113 -22.6492 2.99196
167.194 -22.5589 2.9925
167.223 -22.3529 2.9923
167.25 -22.1457 2.99211
167.277 -21.9384 2.99091
167.318 -21.7342 2.99064
167.341 -21.5264 2.99047
167.362 -21.3183 2.99031
167.379 -21.2156 2.99019
167.415 -21.0107 2.98995
167.495 -20.813 2.99048
154.309 21.6212 2.61026
142.863 25.5497 2.51014
99.1545 37.9558 2.59742
99.0042 37.9645 2.59922
98.875 37.667 2.59298
76.3094 45.6587 3.02097
177.786 -34.303 2.92906
167.369 25.6994 2.28286
151.671 21.1977 2.12638
159.136 29.2445 2.24676
141.814 24.6319 2.08793
99.0107 47.6496 2.38383
30.2851 -21.0127 3.00274
84.8747 -21.1375 1.92263
160.039 -32.2109 2.15486
173.618 -33.9823 2.28712
177.495 -34.5219 2.32465
174.565 13.6858 1.88852
166.021 25.7813 1.899
147.503 37.1988 1.91565
147.557 37.5477 1.91828
99.309 31.5084 1.93016
78.1295 46.5337 2.24008
62.7494 11.7417 2.16625
177.845 -34.7401 1.92083
147.412 36.8871 1.4622
147.553 37.1759 1.46238
147.603 37.5222 1.46303
73.8347 -20.1151 1.75805
104.7 -24.2359 1.54701
112.845 -21.813 1.50714
112.865 -21.7583 1.50702
165.471 -32.9102 1.39215
170.505 -33.9248 1.38164
171.635 -34.0834 1.37867
175.081 -34.534 1.37147
166.624 -22.6786 1.37754
166.475 -21.9121 1.37714
166.502 -21.7079 1.37695
166.56 -21.5092 1.37659
166.613 -21.3098 1.37726
166.709 -21.1176 1.37671
166.839 -21.0365 1.376
167.231 -20.8954 1.37488
154.79 -13.6421 1.14924
173.047 1.15904 1.01862
171.734 25.6846 1.01065
167.729 26.5583 1.03673
144.187 20.6573 1.19827
147.432 37.2387 1.15701
147.565 37.5234 1.15523
100.766 39.8945 1.42837
99.196 31.4719 1.45176
112.79 -21.9172 1.43046
174.795 -34.138 1.01088
167.011 -22.7293 1.06549
166.535 -21.896 1.06881
166.556 -21.6908 1.06865
166.525 -21.4751 1.06877
166.673 -21.2925 1.06794
166.702 -21.0885 1.06774
167.101 -20.8445 1.06455
167.676 -20.7323 1.06047
182.07 -9.07958 0.453141
146.391 -2.43001 0.918153
163.461 21.2022 0.634696
144.731 24.151 0.846529
147.692 38.1766 0.735392
147.741 38.5301 0.733043
147.805 38.8998 0.729613
149.425 51.1421 0.637036
149.407 51.5125 0.63504
102.108 41.1861 1.09792
101.95 41.2193 1.09776
100.516 34.5504 1.15999
83.1539 37.3461 1.20059
127.006 -26.7528 1.14208
156.654 -31.4393 0.760638
156.838 -31.3145 0.75863
157.04 -31.1954 0.756526
157.225 -31.1688 0.754538
157.515 -31.0816 0.750978
157.848 -31.0099 0.747192
158.141 -30.9213 0.743608
158.438 -30.8332 0.74001
163.777 -29.486 0.675309
169.645 -23.1055 0.610575
166.428 -21.719 0.654339
166.474 -21.5186 0.654044
167.773 -21.336 0.637097
167.788 -21.126 0.636964
167.089 -20.7907 0.646597
167.695 -20.791 0.63838
149.744 -2.40767 0.57932
158.6 27.7269 0.251943
155.632 30.6749 0.277007
140.68 23.5385 0.584203
147.64 38.5081 0.328581
147.785 38.8133 0.322734
149.222 51.5996 0.162995
149.271 52.0613 0.156622
96.9666 29.1577 0.981162
98.2454 17.3793 1.14322
128.676 -27.7292 0.920431
144.94 -29.402 0.623399
145.07 -29.3815 0.621702
145.189 -29.2726 0.620043
145.388 -29.1985 0.616969
145.626 -29.1433 0.612688
145.816 -29.0628 0.609661
146.169 -29.0557 0.60378
146.447 -28.8466 0.599251
147.191 -27.8362 0.591055
150.669 -27.757 0.527549
150.462 -25.9644 0.539218
150.309 -25.743 0.542975
150.839 -25.7516 0.533159
150.997 -25.6341 0.531293
150.686 -25.3624 0.53788
152.04 -24.5117 0.51648
154.505 -23.4754 0.473127
149.009 27.0486 0.00407796
149.842 29.787 -0.0510153
121.758 11.8216 0.791606
121.979 12.4705 0.777275
80.5687 48.9381 0.303504
77.7232 46.1786 0.350296
77.5523 46.0944 0.352224
25.5209 -15.9587 0.304792
43.756 -17.6656 0.584298
147.851 -10.7878 0.0714044
148.823 -10.0078 0.0410518
149.039 -9.86344 0.0348685
150.945 -8.3444 -0.0256283
143.815 -3.08923 0.184992
149.139 28.1653 -0.321887
78.6729 43.453 0.110906
78.4212 43.5705 0.106215
77.7414 43.9616 0.0937329
77.6281 43.7669 0.097382
81.738 33.7701 0.359967
33.8411 -16.7196 0.0817551
142.37 -20.9172 0.204993
126.406 9.72205 0.383408
77.6351 44.0565 -0.25873
77.4695 44.1959 -0.263884
43.471 14.7222 -0.217051
92.9849 -22.6081 1.04687
149.858 15.9959 -0.838765
149.771 16.1419 -0.838339
149.698 16.296 -0.83799
149.666 16.4724 -0.839864
149.508 16.8714 -0.84112
148.903 18.3935 -0.847275
146.378 17.362 -0.729601
125.719 6.94402 0.269733
111.112 9.68929 0.639703
81.2802 40.4511 -0.478231
80.9022 40.4718 -0.483228
81.4669 37.9006 -0.385604
81.2674 36.9605 -0.354315
113.453 -22.2308 0.791
144.459 10.4615 -0.804733
144.43 10.6911 -0.807633
144.348 11.1426 -0.813308
144.346 11.3066 -0.816335
144.266 11.6791 -0.82
144.195 11.9754 -0.822694
144.106 12.2642 -0.824295
144.113 12.435 -0.828372
144.109 12.8539 -0.837454
144.134 13.0362 -0.841629
144.229 13.2579 -0.851187
144.914 14.7677 -0.914197
145.114 15.4187 -0.937417
128.892 -19.0928 0.101181
138.929 12.0848 -0.835738
138.858 12.1982 -0.835386
132.294 6.82879 -0.597198
132.28 6.88243 -0.598134
132.285 8.19537 -0.63548
106.536 45.4626 -1.64569
106.368 45.5205 -1.64681
106.197 45.5635 -1.64791
82.3882 34.6308 -1.12972
77.6074 -20.7473 0.113134
130.499 6.4941 -0.663576
115.927 8.68781 0.0173435
106.346 45.5881 -1.94471
106.174 45.6151 -1.9448
63.3744 -16.3277 -0.719307
127.55 0.0713853 -0.501343
127.561 0.121275 -0.503415
127.568 0.215302 -0.506473
127.913 4.10708 -0.641253
122.858 1.21276 -0.614685
122.872 1.26123 -0.617772
109.092 -22.9015 0.167333
74.9003 5.37064 -1.20183
74.8402 5.34705 -1.20551
74.7813 5.26873 -1.20617
105.868 -23.2736 0.170554
110.863 8.79756 -0.659776
110.802 8.81951 -0.65946
108.314 -20.7944 0.123954
117.834 -2.84821 -0.474001
117.837 -2.78896 -0.477029
110.571 7.43338 -0.640895
110.475 7.57563 -0.650422
110.426 7.61112 -0.651168
107.91 2.62034 -0.0165795
110.649 -18.848 -0.09993
102.927 -19.3193 0.0972245
113.166 -12.7321 -0.189789
113.784 -5.51396 -0.361828
110.238 -7.60441 -0.327474
106.207 -13.8181 -0.334543
104.66 -9.34861 0.380605
104.68 -9.31119 0.371486
150.899 -14.6258 -19.1391
150.914 -14.3167 -19.1333
150.92 -14.2398 -19.1323
150.939 -14.0868 -19.1335
150.975 -13.9344 -19.1427
150.978 -13.7803 -19.1388
150.984 -13.6255 -19.1358
101.427 -8.17781 0.779508
101.457 -8.2469 0.813363
101.438 -8.21984 0.798459
103.686 -13.0102 -0.319342
101.286 -8.0059 0.66521
101.388 -8.18535 0.757715
101.385 -8.18491 0.75673
101.378 -8.18079 0.753769
101.343 -8.13333 0.727941
101.308 -8.08685 0.701115
101.33 -8.27894 0.781046
103.416 -10.7043 0.569545
103.391 -10.6713 0.588672
26.5906 -7.27839 -1.37994
