ply
format ascii 1.0
element vertex 621
property float x
property float y
property float z
end_header
135.042 -2.31805 3.50908
122.879 9.22024 3.16114
111.145 9.37912 2.77386
106.909 10.6141 2.64738
109.583 30.6237 3.05112
116.748 35.2923 3.35192
46.7595 13.549 1.51965
33.3621 17.99 1.93083
27.3035 15.2321 2.02935
27.4888 14.9875 2.01982
27.3573 14.9449 2.02271
26.9509 13.8841 2.01333
16.8685 17.2803 2.37435
17.0358 17.0371 2.36482
8.88145 21.064 2.68135
16.1169 15.3302 2.36396
10.0205 15.9051 2.56091
10.4452 15.5612 2.54217
10.8003 15.2495 2.5265
10.6814 15.1317 2.52923
10.9806 14.8473 2.51561
10.9556 14.6922 2.51426
9.46432 14.691 2.56018
-0.465856 14.7982 2.87888
1.66538 13.9339 2.79907
1.60056 13.7667 2.79969
0.187388 14.0127 2.84816
-2.84443 14.7416 2.95462
-2.7471 14.5103 2.94911
-3.43591 13.8023 2.9625
-6.79423 14.2263 3.07626
24.9519 -9.63167 1.8938
25.3176 -10.7252 1.88739
25.3393 -10.8227 1.88717
-3.16523 -18.0173 2.86359
3.57768 -16.8553 2.63655
4.89125 -17.2881 2.59665
4.81269 -17.4837 2.60021
13.85 -16.3319 2.29927
8.94611 -19.6678 2.48457
9.04725 -19.7987 2.48228
21.4866 -18.4243 2.07702
18.4066 -19.9234 2.18951
25.6213 -17.2935 1.93676
-2.80698 -30.5826 2.9666
-2.71345 -30.765 2.9662
11.6226 -24.2077 2.44859
11.7268 -24.3299 2.44733
11.7453 -24.4926 2.44797
-8.1187 -34.2916 3.17405
-7.71291 -34.3427 3.16296
-7.0823 -34.1585 3.1414
-6.34737 -34.0411 3.1177
27.3919 -17.9826 1.89232
10.004 -29.2972 2.56516
31.9742 -18.2814 1.76191
31.947 -18.3516 1.76375
32.3539 -18.4098 1.75264
35.5209 -17.3091 1.64527
35.5418 -17.3894 1.64609
35.6992 -17.6637 1.64648
35.9121 -17.6073 1.63962
35.8097 -17.7767 1.64524
52.5315 -18.2349 1.32312
52.6181 -18.0786 1.31748
82.3742 -20.9318 1.86773
129.486 -31.5715 3.43458
129.934 -31.4778 3.44781
130.205 -31.3161 3.45519
129.651 -30.8416 3.43321
130.298 -30.5538 3.45089
129.768 -29.442 3.42334
130.717 -29.5166 3.45423
130.952 -29.3351 3.46064
130.804 -29.0206 3.45234
130.95 -28.8085 3.45582
131.235 -28.7736 3.46491
131.825 -28.7092 3.48309
131.564 -28.095 3.46944
131.853 -27.9264 3.47683
118.496 -19.8369 2.98314
118.525 -19.635 2.98359
118.527 -19.4255 2.98206
118.546 -19.2212 2.98151
118.553 -19.0145 2.97997
118.547 -18.9088 2.97921
118.594 -18.7122 2.97965
118.604 -18.5057 2.97911
118.619 -18.302 2.97856
118.643 -18.0994 2.97802
135.514 -1.04783 3.02494
135.314 -0.804275 3.02047
135.369 5.95877 3.05055
134.51 6.60956 3.03095
115.108 7.03383 2.50484
114.364 7.18783 2.48515
114.079 7.32525 2.47844
113.647 7.43428 2.46766
113.191 7.5352 2.45586
112.687 7.62512 2.44303
112.335 7.74094 2.43427
111.99 7.85686 2.42651
109.978 8.43 2.37668
109.643 8.53447 2.36789
109.356 8.55927 2.36093
109.029 8.66173 2.35314
108.712 8.76404 2.34535
108.386 8.86339 2.33756
108.087 8.96638 2.32977
108.723 29.5323 2.61164
109.831 30.4555 2.65276
109.607 30.5498 2.64996
33.3873 17.9821 1.73281
-3.59857 14.8443 2.58481
6.82459 -19.7476 2.22227
-7.19116 -34.4793 2.70068
-10.4557 -36.2218 2.79862
12.901 -25.4943 2.1178
30.8627 -17.2561 1.59513
10.6791 -29.0413 2.20977
31.7351 -17.7402 1.5801
114.677 -26.4594 2.51617
129.611 -32.134 2.94333
129.608 -31.8664 2.94093
130.243 -31.8462 2.95701
130.075 -31.6471 2.95144
130.386 -31.4996 2.95879
131.351 -28.137 2.96033
118.003 -19.9934 2.56176
118.058 -19.7999 2.56219
118.094 -19.6008 2.56164
118.115 -19.3978 2.56209
118.138 -19.1961 2.56154
118.163 -18.9946 2.56099
118.188 -18.7943 2.56044
118.181 -18.6884 2.55968
118.188 -18.4827 2.55914
118.215 -18.2825 2.55959
118.172 -18.0662 2.55706
130.557 -18.951 2.89377
132.884 0.0350657 2.59421
135.471 6.04223 2.67774
121.897 7.93955 2.38123
90.5816 8.40014 1.68956
89.6888 11.6221 1.70369
107.724 29.0735 2.29457
107.796 29.3455 2.29918
107.846 29.6032 2.30375
107.962 29.9059 2.31043
74.7085 9.9334 1.38211
1.5593 20.9589 2.24272
6.64245 -20.0977 1.98348
6.89215 -20.5321 1.98053
113.287 -25.5491 2.18412
122.349 -26.7184 2.38501
122.959 -20.4985 2.3709
135.5 5.99859 2.07264
107.74 29.0544 1.83352
107.805 29.3222 1.83712
107.889 29.6019 1.84075
107.968 29.88 1.84438
59.2958 -19.1666 1.04541
84.6235 -18.2461 1.29084
84.6579 -18.1507 1.29105
84.696 -18.1133 1.29114
124.519 -20.7098 1.87152
117.921 -17.9869 1.77023
133.208 -21.5246 2.00117
104.302 12.6758 1.38283
109.509 30.4076 1.54763
109.572 30.6829 1.55025
109.693 30.8771 1.55269
109.781 31.1702 1.55535
84.5329 -18.0486 1.12428
105.061 -21.1172 1.32155
105.157 -20.8038 1.32225
135.512 5.57575 1.1077
135.493 5.82611 1.10825
89.1153 12.1662 0.982868
109.593 30.4038 1.10863
54.2511 -18.6846 0.846214
54.2998 -18.6898 0.846205
54.6171 -18.7154 0.846165
117.901 -26.4213 0.991424
118.865 -26.5603 0.994166
104.939 -21.1924 0.958375
123.774 -27.3068 1.00777
117.548 -19.8871 0.997968
117.632 -19.8061 0.999153
117.656 -19.6056 0.999602
117.692 -19.2009 0.999506
117.7 -18.9973 0.99996
117.72 -18.7961 1.00041
117.761 -18.6008 1.00085
117.729 -18.4898 1.00109
117.762 -18.2923 1.00153
117.772 -18.0889 1.00199
89.414 13.3935 0.81262
39.3298 -3.33555 0.803615
39.2918 -3.38814 0.803496
84.8497 -17.9987 0.749403
84.9014 -17.9106 0.749602
104.943 -21.7943 0.712033
117.656 -26.2984 0.681684
105.294 -20.7858 0.7143
117.417 -19.5147 0.699791
117.395 -19.3032 0.700261
117.423 -19.1052 0.700704
117.398 -18.8932 0.701175
117.435 -18.6974 0.701613
117.505 -18.5097 0.702035
117.519 -18.309 0.702484
117.564 -18.2179 0.702689
117.741 -18.0562 0.703059
134.009 -19.0203 0.676793
135.069 -0.860332 0.217325
109.598 30.3806 0.410576
110.12 30.9447 0.405862
71.4163 14.916 0.685036
68.0624 16.5364 0.693466
52.7342 -18.6023 0.672315
84.7264 -18.048 0.545286
118.016 -26.0463 0.263264
106.238 -20.9799 0.374918
118.742 -21.6177 0.278174
120.195 -21.6087 0.267273
122.498 -21.7089 0.250175
123.705 -21.8175 0.239998
118.332 -19.7049 0.289415
117.042 -18.8507 0.303249
117.124 -18.6677 0.303662
119.257 -17.8436 0.290614
135.291 -2.26693 -0.272799
134.028 -2.0372 -0.255355
119.093 0.51167 -0.0424841
113.392 1.531 0.0384788
112.198 6.90289 0.0573873
101.844 7.28055 0.198668
107.448 28.865 0.0560803
107.512 29.13 0.0536744
107.619 29.3108 0.0520833
102.211 -23.8032 0.0794056
102.484 -23.7505 0.0755377
103.264 -23.6541 0.0667949
103.492 -23.5765 0.0649802
103.699 -23.4881 0.0621884
103.88 -23.3884 0.0614205
104.051 -23.2833 0.059664
105.239 -22.969 0.0464289
105.552 -22.9145 0.0425675
106.354 -21.0707 0.0457206
109.498 -19.5819 0.0142094
111.148 -19.6163 -0.0087779
116.105 -19.7669 -0.0758447
126.09 -14.5663 -0.184712
114.596 -10.1244 -0.417435
115.063 -7.18988 -0.414869
115.114 -7.00698 -0.415459
95.0664 0.123077 0.0193463
107.75 28.9965 -0.371611
107.828 29.2717 -0.374994
107.892 29.5388 -0.378395
108.008 29.7256 -0.381972
40.4738 16.7031 0.34334
94.1862 -21.6208 -0.096166
94.3664 -21.5602 -0.0990213
106.443 -17.9065 -0.299223
107.117 -17.756 -0.311851
107.877 -17.7981 -0.327904
108.189 -17.7091 -0.332688
108.258 -17.5527 -0.333336
108.454 -17.5184 -0.337249
117.7 -19.8467 -0.541937
107.313 -15.916 -0.301739
107.477 -15.7858 -0.30444
108.798 -15.7598 -0.331311
111.385 -15.0091 -0.378497
111.545 -14.8623 -0.381161
111.212 -13.8004 -0.366812
110.11 -13.4118 -0.342006
110.08 -13.2306 -0.340604
110.082 -13.1442 -0.340411
109.47 -12.6844 -0.324419
109.725 -12.5558 -0.329119
106.187 -8.85464 -0.494062
106.524 -7.85232 -0.497809
106.498 -7.68975 -0.496448
106.517 -7.61253 -0.497275
106.508 -7.45213 -0.495918
106.542 -7.29509 -0.496566
106.574 -7.13792 -0.496214
106.592 -6.97996 -0.495861
106.695 -6.66848 -0.497162
106.724 -6.59056 -0.497986
106.717 -6.27102 -0.496274
106.82 -6.11694 -0.498925
106.685 -5.95041 -0.494562
106.518 -5.78179 -0.489195
106.654 -5.6298 -0.492849
112.21 -2.45648 -0.628475
115.387 -1.20275 -0.709508
94.33 4.98794 -0.168851
107.764 29.0599 -0.68347
107.828 29.3269 -0.687871
107.893 29.5948 -0.692271
107.959 29.8647 -0.697666
59.4814 17.8158 0.321851
59.417 17.8402 0.321902
59.354 17.8684 0.320961
84.5953 -21.5091 -0.0924374
103.416 -13.9765 -0.457628
103.419 -13.8206 -0.45628
103.735 -13.734 -0.46307
103.736 -13.578 -0.461722
103.939 -13.5435 -0.466634
103.898 -13.377 -0.464266
103.311 -12.7884 -0.444985
103.89 -12.5936 -0.45852
98.5643 -8.61749 -0.549947
98.684 -8.56431 -0.553822
98.7875 -8.44148 -0.556543
98.8632 -8.3151 -0.558257
98.9133 -8.18441 -0.558963
98.8789 -8.04389 -0.556651
98.8483 -7.90486 -0.555343
98.795 -7.76292 -0.55303
98.8523 -7.70171 -0.55389
98.9727 -7.30582 -0.556001
99.0148 -7.17411 -0.556705
99.041 -7.04037 -0.556406
99.0952 -6.90919 -0.557111
99.1168 -6.8434 -0.557963
99.14 -6.70927 -0.557663
99.3686 -5.8403 -0.561713
99.4139 -5.70699 -0.562414
99.5618 -4.68953 -0.563138
99.7138 -4.55781 -0.567836
99.9282 -4.42704 -0.574533
100.098 -4.29352 -0.579226
100.31 -4.15952 -0.585916
100.476 -4.09408 -0.590761
100.623 -3.95664 -0.594447
100.768 -3.81907 -0.599132
100.932 -3.68082 -0.603815
101.13 -3.54181 -0.610495
101.33 -3.4012 -0.616171
101.568 -3.25935 -0.623842
101.769 -3.18832 -0.629672
102.018 -3.0439 -0.637337
102.146 -2.89895 -0.641007
102.344 -2.753 -0.646671
102.451 -2.60637 -0.650338
102.638 -2.45803 -0.655997
102.82 -2.30892 -0.661655
103.052 -2.23093 -0.668469
103.305 -2.07684 -0.676112
103.407 -1.9266 -0.679771
103.659 -1.77041 -0.687409
103.778 -1.61625 -0.69106
104.07 -1.45622 -0.700687
104.186 -1.30069 -0.703334
104.402 -1.21644 -0.710135
104.379 -1.06529 -0.709799
104.743 -0.89632 -0.721403
104.88 -0.737387 -0.725041
105.058 -0.573755 -0.730667
105.754 -0.145904 -0.752675
105.142 0.591037 -0.734066
105.261 0.755238 -0.737693
93.7044 0.250477 -0.369445
63.7225 13.6991 0.274905
59.3932 17.8123 0.195838
94.177 -15.2236 -0.472909
94.9165 -13.7357 -0.479552
95.1795 -13.6747 -0.486402
94.8847 -11.6598 -0.457927
96.6982 -11.3249 -0.512083
96.4532 -11.1443 -0.502693
96.394 -11.0006 -0.499376
94.6667 -10.4764 -0.440301
95.603 -10.526 -0.470361
98.5112 -10.6553 -0.563492
98.3529 -10.4908 -0.557134
98.3211 -10.4162 -0.554969
98.2258 -10.2638 -0.550635
98.1925 -10.1224 -0.549321
98.2412 -9.99456 -0.550034
98.272 -9.86443 -0.549742
98.3268 -9.73636 -0.550454
98.3508 -9.60434 -0.550158
98.3925 -9.47561 -0.550869
98.3843 -9.406 -0.549714
98.4183 -9.27526 -0.550421
98.4552 -9.1449 -0.550128
98.4574 -9.01008 -0.549828
98.4973 -8.8801 -0.549536
98.4778 -8.74149 -0.548228
97.5007 -0.750427 -0.761471
97.603 -0.613333 -0.765159
97.7695 -0.471364 -0.771834
97.9031 -0.396761 -0.77766
98.3871 0.0361387 -0.795669
98.5837 0.185326 -0.803326
70.3699 13.6151 0.0180784
63.7349 13.6151 0.155719
51.0262 16.6287 0.0837459
50.984 16.6614 0.0828164
47.0317 18.6312 -0.0340079
-12.354 -10.9114 -1.84808
89.3211 -14.5352 -0.547638
90.42 -12.9573 -0.566062
89.5219 -6.25204 -0.669166
89.5652 -6.15072 -0.669937
89.6125 -6.04892 -0.671708
89.659 -5.94601 -0.672476
89.7034 -5.84382 -0.674246
89.7469 -5.74052 -0.676013
89.7766 -5.68989 -0.676899
89.7991 -5.58491 -0.676664
89.8156 -5.48015 -0.677429
89.8152 -5.37323 -0.677191
89.8537 -5.27028 -0.677959
89.8742 -5.16505 -0.678724
89.8898 -5.05917 -0.678487
89.9207 -5.00768 -0.67937
89.9543 -4.9031 -0.680135
89.9859 -4.79827 -0.6819
90.0186 -4.69258 -0.682663
90.0492 -4.58762 -0.683427
90.087 -4.48157 -0.685189
90.1227 -4.37626 -0.685952
90.1387 -4.32285 -0.686832
90.1757 -4.00296 -0.687117
90.1478 -3.52149 -0.684046
90.219 -3.41469 -0.686804
93.7713 7.41347 -0.885477
93.7213 7.52676 -0.885227
93.5949 7.55509 -0.880171
93.6685 7.70394 -0.884835
87.8402 11.1823 -0.686398
87.5685 11.1789 -0.67542
51.0941 16.3571 -0.0258561
51.0278 16.3586 -0.0268564
-15.4897 14.6708 -2.41823
-11.6984 -6.53647 -2.2023
90.1344 6.10016 -0.919601
90.0911 6.20251 -0.918376
90.0427 6.3045 -0.917151
90.0371 6.41814 -0.918898
89.9456 6.50651 -0.914706
90.005 6.63903 -0.919407
90.0473 6.70923 -0.922249
3.02138 -7.67668 -1.86004
17.2855 -14.1782 -1.22475
53.5524 -18.5728 0.010423
85.0216 -10.582 -0.685061
84.2327 -10.0997 -0.639028
86.4742 0.783034 -0.892651
86.5053 0.8839 -0.895425
86.5786 0.99145 -0.900181
86.6447 1.09791 -0.90394
87.5162 5.70867 -0.995616
87.4958 5.80909 -0.996394
87.4902 5.91466 -0.997159
80.552 -11.1332 -0.641532
85.3096 4.92746 -1.02748
85.3623 4.99229 -1.03133
85.3556 5.08894 -1.03211
85.3207 5.17811 -1.03192
85.3057 5.27379 -1.03171
65.483 10.1922 -0.152817
62.0344 6.12965 0.165942
61.988 6.12149 0.167922
8.28936 10.4891 -2.22126
8.94984 9.90104 -2.17354
75.7732 -13.4243 -0.565897
81.1541 0.57308 -0.905408
81.2223 0.664152 -0.911201
81.2399 0.707259 -0.912104
81.2279 0.786434 -0.911928
83.0561 4.54152 -1.08246
65.4113 10.2309 -0.265735
62.2613 6.16121 0.0780247
42.0381 8.38059 -0.401127
27.9968 18.4389 -1.56647
31.5813 13.9579 -1.19527
69.2079 3.66566 -0.247161
71.0495 9.41668 -0.585244
65.2376 13.8632 -0.559649
65.1967 13.8513 -0.557677
62.2731 14.5204 -0.638345
62.2081 14.4229 -0.629566
62.1241 14.357 -0.622717
62.0401 14.2922 -0.615866
61.9655 14.2524 -0.610959
65.4629 13.7501 -0.798889
65.4076 13.7744 -0.797838
65.3682 13.7663 -0.795858
65.3181 13.8 -0.796786
65.2364 13.7762 -0.791843
61.9967 14.5269 -0.738346
61.8935 14.399 -0.725636
61.8068 14.3204 -0.716816
61.7295 14.2678 -0.710938
70.2566 13.0333 -1.11523
69.8022 11.4503 -1.10978
69.3859 12.5182 -1.15842
69.3525 12.5799 -1.16129
67.758 -12.2777 -0.645777
70.5511 7.93943 -1.17157
70.5065 7.97741 -1.16948
66.6254 11.1365 -1.11265
59.9415 11.6041 -0.835972
65.7696 9.92143 -1.05141
61.1321 14.5706 -1.2953
61.0453 14.4759 -1.28151
60.0472 11.8227 -0.957479
60.0003 11.74 -0.947666
65.8129 9.85053 -1.14056
65.7988 9.96025 -1.15032
65.7915 10.0368 -1.15715
58.4605 5.49572 -0.260666
57.2281 14.444 -1.30479
65.6669 9.76558 -1.20476
57.6093 13.0004 -1.21799
57.1215 12.9703 -1.21008
45.694 6.80435 -1.00044
65.6227 8.98188 -1.23051
65.5791 9.00361 -1.22946
65.5454 9.0392 -1.23039
65.508 9.07021 -1.23032
65.4634 9.09207 -1.22927
65.4539 9.11952 -1.23121
65.4116 9.14409 -1.23016
65.3791 9.18154 -1.23208
65.3383 9.20896 -1.23102
65.3093 9.25 -1.23293
65.2769 9.28844 -1.23484
65.1515 9.19864 -1.21505
65.2204 9.33502 -1.23574
52.0019 7.53003 -0.700483
41.4662 6.48045 -1.5214
57.5986 11.2918 -1.2048
57.2883 11.7018 -1.2579
57.5717 11.2864 -1.26881
57.333 11.4532 -1.28945
64.2358 7.82316 -1.24817
52.3837 11.0456 -1.39963
52.3355 11.0468 -1.40163
63.8497 7.09345 -1.26981
63.8188 7.1196 -1.26976
63.7877 7.14476 -1.2697
63.7471 7.15804 -1.26768
56.8687 5.93017 -0.771785
56.8324 5.83599 -0.755997
56.7972 5.74975 -0.741191
62.9542 6.25979 -1.29772
62.9249 6.28271 -1.29767
57.4106 8.72923 -1.34952
57.394 8.74952 -1.35347
57.357 8.75932 -1.35445
57.3186 8.7592 -1.35346
57.2816 8.769 -1.35444
57.2434 8.76181 -1.35245
57.2042 8.74767 -1.34949
57.1682 8.76541 -1.35245
57.149 8.76485 -1.35145
62.7308 6.21602 -1.35383
62.6975 6.20012 -1.34787
62.6691 6.22291 -1.34782
62.6307 6.22986 -1.34481
61.9423 6.58442 -1.33005
57.1957 8.35963 -1.36735
56.9221 6.11831 -0.955363
56.8705 5.86572 -0.908929
56.84 5.84038 -0.903987
56.8042 5.75017 -0.88719
56.7972 5.72704 -0.961242
56.7778 5.85057 -0.984968
60.8811 0.911793 -1.06775
60.8651 0.93703 -1.0697
-13.9683 11.4685 -24.3253
58.6521 -3.03619 -0.280672
58.6766 -2.99494 -0.292579
55.143 -1.65148 -0.00477527
55.1408 -1.65321 -0.00477924
54.8985 -4.55195 -0.0152534
101.391 -18.6363 -19.4612
55.344 -1.93969 0.112594
55.2553 -2.08868 0.143257
52.3533 -5.0716 -1.07655
52.3707 -5.07788 -1.07157
52.384 -5.09975 -1.07061
52.3604 -5.12693 -1.08468
52.3734 -5.13566 -1.08169
123.12 -19.4498 -29.0238
123.171 -19.2396 -29.0234
55.3899 -1.89613 0.0866931
55.4287 -1.97883 0.126511
55.4131 -1.95866 0.115555
55.2323 -1.70218 -0.0428835
55.3632 -1.92293 0.0736319
55.3664 -1.93746 0.0805997
55.3545 -1.92786 0.0736204
55.3202 -1.88105 0.0477228
55.2874 -1.83846 0.0238159
55.2485 -1.78803 -0.00507389
55.2565 -1.8042 0.00289054
55.2521 -1.80667 0.0028848
55.2653 -1.83763 0.0178165
55.255 -1.83126 0.0128302
55.1251 -1.64193 -0.0917552
55.3061 -2.02251 0.0974069
55.2459 -2.00464 0.0754434
55.1215 -1.85034 -0.0142197
57.434 -4.32601 -0.0566123
57.4542 -4.43535 -0.115855
57.4406 -4.41548 -0.104811
57.4119 -4.37958 -0.0837329
57.4626 -4.37798 -0.100727
0.913723 1.15033e-41 0
