ply
format ascii 1.0
element vertex 440
property float x
property float y
property float z
end_header
174.054 -4.93331 3.92782
171.895 15.1016 3.82445
167.654 16.8008 3.7005
156.983 22.1632 3.41528
141.78 23.7225 3.0123
152.962 34.5766 3.43374
152.839 34.7664 3.43251
122.186 11.9418 2.36362
148.154 35.2625 3.3234
147.902 35.3308 3.3183
104.735 15.8967 2.11015
104.685 15.8784 2.10937
100.065 15.1581 2.05638
99.8198 16.6818 2.09423
98.6271 15.2702 2.05388
91.0291 9.99416 1.9403
74.9961 12.3875 2.29537
67.6199 13.5196 2.50985
63.2819 11.4086 2.61195
61.5268 11.8338 2.6696
61.1239 11.9282 2.68354
52.7822 15.5416 2.97479
42.358 16.1292 3.31039
38.599 16.6861 3.43631
38.7436 14.6183 3.41975
39.6931 13.3148 3.38208
37.9748 12.4364 3.43455
29.2907 14.5457 3.73376
27.4733 -19.2887 3.95025
41.3576 -20.2746 3.48001
44.0567 -20.6273 3.39127
53.199 -22.6577 3.11271
159.89 -21.9499 3.64397
159.919 -21.7448 3.64237
159.93 -21.5375 3.63977
159.951 -21.3314 3.63718
159.993 -21.1293 3.63558
159.997 -20.9198 3.63298
160.031 -20.7166 3.63139
160.023 -20.6104 3.62959
160.048 -20.406 3.628
171.737 14.6733 3.31394
171.75 14.9391 3.31391
171.737 15.1973 3.31397
171.739 15.4606 3.31397
141.256 25.1272 2.65549
148.447 35.1112 2.89306
148.179 35.1677 2.88807
147.931 35.2405 2.88492
105.884 19.6263 2.021
105.779 19.6117 2.01928
105.674 19.5999 2.01854
105.592 19.6487 2.0193
105.499 19.6707 2.01829
105.391 19.6434 2.01767
105.334 19.623 2.01692
105.236 19.6246 2.01607
105.118 19.5722 2.01366
97.8711 14.9531 1.89352
34.5601 16.6335 3.1493
158.062 -21.4479 3.17514
158.086 -21.2484 3.17258
158.165 -20.6516 3.16693
158.204 -20.4551 3.16538
158.222 -20.2547 3.16383
172.064 14.5815 2.94509
171.832 14.7722 2.94103
171.755 15.0112 2.93934
171.612 15.0976 2.93592
171.667 15.3777 2.93671
167.58 16.855 2.85518
153.604 34.4419 2.64969
153.321 34.5135 2.64561
153.036 34.5834 2.64155
152.75 34.6494 2.63752
120.621 12.4613 1.97023
106.529 23.722 1.93989
106.469 23.7102 1.93908
92.7688 37.2051 2.12817
92.5603 38.1883 2.14406
30.1849 -21.5892 3.15023
158.011 -21.5987 2.87535
158.046 -21.4006 2.87379
158.057 -21.1982 2.87124
158.049 -21.0951 2.86947
158.073 -20.8955 2.86792
158.109 -20.6987 2.86637
158.152 -20.2999 2.86227
171.351 16.0096 2.32741
164.056 16.0478 2.23405
162.135 21.5708 2.19931
143.571 20.505 1.97973
153.43 34.2618 2.10133
153.122 34.3138 2.09844
99.3763 14.997 1.60372
103.225 42.2308 1.80897
92.5718 39.2896 1.79668
89.934 29.3503 1.73034
23.7005 17.9717 2.50689
142.329 -29.7012 2.2894
164.392 -22.7413 2.48957
164.484 -22.3098 2.48615
174.055 -23.5798 2.62614
170.388 -21.0583 2.55201
142.414 23.2391 1.67889
153.116 34.3339 1.73028
152.816 34.3908 1.72834
152.611 34.3769 1.72778
98.1849 15.2364 1.48185
90.9641 25.0548 1.52022
62.5896 11.6472 1.71625
170.573 -21.0668 2.16477
167.802 25.0396 1.30273
167.888 25.2184 1.30123
155.949 26.4076 1.28073
140.901 24.2884 1.27739
140.896 24.5022 1.27678
146.018 28.9714 1.25552
121.513 12.7139 1.32683
121.272 12.9917 1.32512
106.033 45.5359 1.1713
103.854 46.173 1.17003
102.878 40.7881 1.19545
101.89 35.0768 1.22237
101.834 35.1744 1.22172
98.6162 13.7717 1.32124
90.9961 24.8355 1.28482
76.7148 32.9162 1.2849
170.886 -33.9231 1.74371
157.571 -21.5826 1.62091
157.59 -21.3834 1.61937
157.6 -21.2838 1.6186
157.603 -21.0813 1.61706
157.678 -20.489 1.61245
157.757 -20.3011 1.61089
146.853 4.11918 1.16257
132.97 4.64625 1.20127
132.932 4.69899 1.20093
132.89 4.81692 1.2001
168.056 24.9277 0.928148
167.712 25.0442 0.927827
166.882 25.3414 0.927932
143.464 20.2078 1.04113
146.038 28.7685 0.961022
145.333 28.7332 0.963441
145.564 29.1523 0.958885
145.071 29.0241 0.961664
145.465 29.4478 0.956808
103.798 42.623 0.942031
103.448 41.4429 0.953549
103.302 41.539 0.95306
103.177 41.7805 0.951433
102.917 41.112 0.957927
102.781 41.2772 0.955896
101.543 35.1092 1.01468
93.8341 15.3151 1.20835
76.6115 33.1328 1.06742
52.6122 14.8924 1.24094
124.997 -23.9614 1.44119
124.816 -23.7505 1.43988
155.635 -31.6399 1.40132
157.55 -21.7587 1.32427
157.52 -21.5497 1.32274
158.468 -19.9016 1.30769
172.772 -7.48238 0.680139
170.937 -6.79705 0.692943
167.589 24.08 0.434322
166.201 24.2569 0.44525
165.766 24.3235 0.448457
165.4 24.4198 0.450325
162.638 24.807 0.469905
149.881 28.7145 0.532136
121.365 12.8456 0.955066
98.656 15.1049 1.05106
71.8456 52.4047 0.484089
76.6033 33.1983 0.775929
171.055 -31.923 0.854242
157.511 -21.8029 0.923659
157.278 -20.9447 0.920533
157.286 -20.8458 0.919771
157.298 -20.6466 0.91824
157.371 -20.4598 0.916706
173.896 -7.88464 0.192338
167.195 1.11224 0.219085
124.323 6.3148 0.809738
155.446 27.5485 0.0708656
77.7252 34.3777 0.474144
76.7546 32.8066 0.502643
124.482 -24.0425 1.03363
124.354 -23.8581 1.03544
124.365 -23.7475 1.03459
124.453 -23.679 1.03392
151.424 -30.6332 0.657545
160.02 -26.9073 0.517243
157.527 -24.84 0.547647
157.251 -20.5875 0.532858
158.338 -19.8795 0.512714
153.488 -15.8005 0.158707
153.554 -15.6239 0.15626
153.729 -13.0617 0.138548
153.614 -12.869 0.140276
153.654 -12.6888 0.137844
153.477 -12.4936 0.140653
153.604 -12.3183 0.137118
153.986 -12.2515 0.127985
142.43 5.2801 0.215968
150.703 16.4216 -0.126033
150.719 16.6375 -0.130696
148.991 16.1541 -0.0862058
76.642 33.4577 0.167881
73.9146 38.7274 0.00838343
125.672 -24.2007 0.780878
139.371 -27.7693 0.494531
139.55 -27.6843 0.490593
141.209 -24.2774 0.455052
143.869 -23.431 0.397286
144.826 -15.3206 0.096226
144.744 -15.1527 0.098087
144.657 -15.0618 0.100541
144.713 -14.9121 0.0983139
144.8 -14.7667 0.0950695
144.871 -14.6181 0.0928265
145.01 -14.4781 0.0875363
145.543 -12.0857 0.0605283
149.581 -5.40011 -0.100762
149.342 -5.07514 -0.0978359
149.183 -4.74705 -0.0960628
119.823 5.97504 0.534661
143.493 -19.9722 0.14567
143.438 -18.9317 0.145872
144.734 -15.4653 0.0994733
138.056 -13.532 0.0207288
138.121 -13.4048 0.0186577
138.2 -13.2773 0.0155637
138.193 -13.2098 0.0150624
138.226 -13.077 0.0140026
138.261 -12.9456 0.0119487
138.33 -12.817 0.00885985
138.361 -12.6839 0.00780111
138.411 -12.5537 0.00473096
138.46 -12.4221 0.00265412
138.487 -12.3563 0.00111022
138.95 -10.0714 -0.0269695
139.2 -9.94268 -0.0363544
139.423 -9.81207 -0.0447079
139.596 -9.67867 -0.0510023
139.704 -9.61197 -0.0556849
139.78 -9.47523 -0.0588468
139.865 -9.33762 -0.0630288
139.965 -9.20009 -0.0672348
140.045 -9.06178 -0.0704139
140.174 -8.92231 -0.075683
140.331 -8.7836 -0.0819908
140.441 -8.71307 -0.0867049
140.565 -8.57292 -0.0919711
140.677 -8.43096 -0.0962299
140.799 -8.28855 -0.10151
140.912 -8.14575 -0.106777
141.005 -8.00217 -0.111018
141.148 -7.85657 -0.117356
141.203 -7.78439 -0.118992
141.289 -7.63886 -0.123236
141.575 -7.48894 -0.133841
141.675 -7.34138 -0.139124
141.772 -7.19339 -0.143405
141.9 -7.0446 -0.148742
141.993 -6.89493 -0.153028
142.068 -6.81958 -0.156722
142.172 -6.66846 -0.161037
142.29 -6.5173 -0.166376
142.44 -6.36263 -0.172795
142.583 -6.20784 -0.179202
142.741 -6.05117 -0.186649
142.85 -5.89678 -0.190998
143.003 -5.81309 -0.196883
143.13 -5.6561 -0.20328
143.209 -5.50154 -0.207581
142.318 -4.45069 -0.188091
142.367 -4.29794 -0.191329
142.305 -4.15504 -0.190311
142.223 -4.01546 -0.189236
142.208 -3.94269 -0.189763
153.847 14.0738 -0.846394
153.333 14.2937 -0.834221
152.331 15.0389 -0.818232
152.056 15.3427 -0.815086
151.894 15.4834 -0.812888
151.8 15.652 -0.814011
151.7 15.8184 -0.814109
151.656 15.9042 -0.814688
151.753 16.1563 -0.822757
124.306 37.682 -0.719083
65.0199 -19.3479 0.517219
108.195 -21.6195 0.91988
136.51 -17.3844 0.0814641
137.745 -14.6415 0.0356506
137.79 -14.5126 0.0335988
133.372 -11.3479 -0.0801757
133.399 -11.2305 -0.0821096
133.425 -11.113 -0.0830434
133.463 -10.9961 -0.0859912
133.488 -10.8775 -0.0869322
133.514 -10.8194 -0.0884138
133.548 -10.702 -0.0903599
133.575 -10.5836 -0.0923015
133.603 -10.4654 -0.0942442
133.635 -10.3466 -0.0961963
136.185 4.02126 -0.3803
137.69 5.29164 -0.462393
137.739 5.45542 -0.466714
120.523 -25.8014 0.343416
120.603 -25.7409 0.340826
120.653 -25.7175 0.339567
120.723 -25.6495 0.338937
120.807 -25.5906 0.336353
120.871 -25.5197 0.335711
120.946 -25.4544 0.334093
121.551 -24.9874 0.319563
121.636 -24.9266 0.316963
121.697 -24.8512 0.316292
117.8 -20.6975 0.501177
128.87 -20.7192 0.0932344
128.731 -20.4918 0.099738
128.695 -20.3616 0.10181
128.709 -20.2495 0.101937
128.701 -20.1302 0.103046
128.762 -19.9177 0.101334
128.835 -19.7682 0.0990826
128.911 -19.6768 0.0972653
129.559 -19.3612 0.0738129
129.784 -17.9144 0.0694762
129.933 -17.8382 0.0636551
130.148 -17.5481 0.056104
130.159 -17.4345 0.0562251
130.242 -17.3402 0.0533729
130.285 -17.2927 0.0509424
130.313 -17.1844 0.050077
130.366 -17.0818 0.0482115
130.414 -16.9774 0.0463419
130.468 -16.8738 0.0444687
130.519 -16.7698 0.0425974
130.525 -16.6557 0.0427207
130.631 -16.6229 0.0382999
129.974 -15.7368 0.0656567
133.995 7.74158 -0.622931
80.7135 21.5983 -0.279879
118.249 -24.2571 0.277423
126.28 -11.2611 -0.156243
126.318 -11.1665 -0.159023
126.357 -11.073 -0.160796
126.386 -10.978 -0.162563
126.406 -10.8819 -0.164324
126.424 -10.8339 -0.165718
126.447 -10.7382 -0.166481
126.452 -10.6409 -0.167226
126.478 -10.5456 -0.168992
126.494 -10.4489 -0.170751
126.519 -10.3535 -0.172516
126.534 -10.2567 -0.173275
126.559 -10.2086 -0.174679
127.186 -7.60754 -0.226425
127.209 -7.55712 -0.227844
128.066 -5.42637 -0.295401
128.12 -5.31772 -0.299313
128.129 -5.21304 -0.301122
128.15 -5.10692 -0.303961
128.161 -5.00251 -0.305771
130.072 -2.01811 -0.448523
130.115 3.83687 -0.572986
122.849 -17.0407 0.00718554
127.08 2.24639 -0.596968
127.095 2.36239 -0.600872
127.09 2.47209 -0.603696
106.043 3.84036 0.303362
116.627 -14.2033 -0.071156
59.5275 6.65716 -1.52201
116.091 -14.8887 -0.148087
118.087 -0.611574 -0.595601
118.009 -0.599659 -0.589563
117.953 -0.540456 -0.587921
117.608 -0.152023 -0.574301
117.536 -0.100652 -0.571573
112.298 6.15181 -0.509411
95.392 0.925247 0.583881
88.8532 8.91282 -0.208011
113.769 -18.1919 -0.188251
113.79 -18.1655 -0.189485
113.707 -16.9864 -0.150286
113.772 -16.947 -0.153691
113.454 -16.6654 -0.123306
111.915 5.50698 -0.570897
111.832 5.61442 -0.572576
111.798 5.67467 -0.573977
111.803 5.72544 -0.57737
111.773 5.79008 -0.579812
101.206 10.3812 -0.436341
114.093 0.00363207 -0.553734
98.4691 9.14772 -0.373514
79.7584 14.6897 -1.31997
113.185 -14.6311 -0.275293
102.155 4.86181 -0.166041
109.885 -15.6217 -0.216388
110.991 -14.2998 -0.280218
102.287 -20.9482 -0.0595823
98.0977 -19.1525 0.0286548
98.1702 -19.3061 0.00770024
95.5992 -20.1229 -0.127909
99.9056 -16.5243 -0.354237
93.8724 1.30749 -0.794575
92.5711 -16.1587 -0.342019
103.145 -11.3688 -0.44762
103.244 -11.0413 -0.447265
100.577 -8.99773 -0.470399
98.1067 -8.48662 0.308788
98.1374 -8.46878 0.295602
98.0138 -9.4087 0.30093
94.6071 -7.02982 0.566472
94.3698 -9.91336 0.609722
94.8175 -7.3327 0.693428
94.8905 -7.35191 0.697455
94.9076 -7.38848 0.715704
94.7867 -7.23416 0.610729
94.8356 -7.3254 0.658342
94.8331 -7.32908 0.659374
94.8106 -7.30185 0.643204
94.7774 -7.25706 0.616918
94.7521 -7.22139 0.596688
94.6956 -7.14119 0.551171
94.7291 -7.20515 0.585602
94.7223 -7.20322 0.582599
94.7487 -7.25313 0.608935
94.7043 -7.19471 0.575564
94.7077 -7.31596 0.623479
94.7938 -7.44451 0.694315
94.6696 -7.33593 0.620692
96.9703 -9.82046 0.492764
96.9157 -9.87156 0.47624
96.8696 -9.81845 0.508913
96.8724 -9.81278 0.509866
29.3341 2.17567e-39 0
