ply
format ascii 1.0
element vertex 631
property float x
property float y
property float z
end_header
132.629 -0.44418 3.53874
120.927 6.11373 3.1762
121.412 9.04664 3.21592
104.14 12.3715 2.67477
105.681 23.0068 2.88532
107.954 26.9651 3.02673
72.2842 10.2378 1.63799
63.5429 11.5114 1.44924
44.715 18.1098 1.61201
44.7183 18.0036 1.6087
36.7453 18.6171 1.75734
36.7108 18.5236 1.75505
37.1759 17.572 1.71747
35.7155 15.717 1.69449
35.6385 15.0555 1.67854
35.6184 14.9643 1.67627
33.9533 15.3882 1.72684
33.8472 15.3768 1.72877
33.6641 15.4372 1.73487
33.507 15.4713 1.73991
33.3509 15.5043 1.74394
33.257 15.4774 1.74583
32.9422 15.598 1.75705
27.3998 15.9538 1.9079
27.2862 15.9141 1.90974
27.1226 15.9107 1.91467
13.7829 20.5228 2.38482
10.7503 20.7503 2.47729
16.889 16.073 2.2081
10.0308 17.9918 2.44698
10.5279 14.3319 2.37053
9.40075 13.7661 2.39744
-2.8824 16.5702 2.82275
1.08439 14.6474 2.67172
-3.11333 14.1284 2.79755
-4.17152 13.5744 2.82452
18.7378 -9.02899 1.93481
7.27465 -15.5084 2.33844
7.36075 -15.6377 2.33709
7.05999 -15.8008 2.3475
-11.2089 -22.3259 2.97631
7.45433 -18.0283 2.35118
14.1445 -16.6562 2.12881
21.8453 -16.0146 1.88271
27.4631 -16.9133 1.72531
12.5943 -25.991 2.28204
9.92808 -27.7136 2.38298
9.847 -27.9426 2.38828
28.7293 -17.2125 1.69294
27.8744 -18.2091 1.73171
26.5426 -20.8002 1.80964
28.4853 -20.0871 1.74448
122.632 -40.1246 3.39636
123.244 -39.6023 3.40812
115.704 -19.5241 2.97655
115.726 -19.3183 2.97616
115.76 -19.1158 2.97676
115.789 -18.9129 2.97636
115.805 -18.7053 2.97597
115.77 -18.5912 2.97429
115.827 -18.3957 2.97488
115.858 -18.193 2.97449
115.873 -17.9863 2.97409
115.897 -17.7826 2.97369
132.666 -1.68204 3.02815
132.638 -0.426668 3.03179
72.9693 8.64043 1.47661
7.47119 21.2635 2.25748
7.64233 -16.0496 2.032
95.6854 -23.0871 2.06028
115.285 -19.2838 2.55108
115.304 -19.0786 2.55069
115.345 -18.8791 2.55128
115.35 -18.6712 2.55089
115.388 -18.4713 2.55049
115.408 -18.372 2.55079
115.412 -18.164 2.55039
115.446 -17.9635 2.54999
116.995 -17.4863 2.59099
127.715 -18.8303 2.88731
132.675 -0.480379 2.65665
120.917 5.97115 2.41477
72.4751 10.2175 1.381
61.271 14.4137 1.28779
110.732 -25.1927 2.1701
132.662 -0.527414 2.0505
107.868 26.8551 1.85637
83.0531 -17.9818 1.28014
83.0963 -17.8833 1.27945
103.854 -20.8213 1.5881
123.707 -26.9609 1.89407
127.942 -27.6164 1.95884
119.994 -20.2794 1.82904
120.136 -20.2029 1.83132
115.128 -17.6588 1.75275
127.756 -18.6925 1.94572
108.599 27.377 1.54718
82.9648 -17.896 1.10536
109.474 -25.1308 1.36878
110.242 -25.2248 1.37681
110.969 -25.4034 1.38357
103.675 -21.0245 1.30943
103.782 -20.702 1.31041
132.598 -0.573235 1.08534
100.259 10.6772 1.00931
100.269 10.8412 1.00979
35.7252 13.9977 0.912493
51.363 -12.0345 0.796936
58.1716 -19.051 0.804211
58.2302 -19.0581 0.804214
76.6241 -20.4342 0.846471
78.7242 -20.6933 0.852546
103.538 -21.0119 0.932414
103.854 -20.7629 0.934262
114.813 -19.488 0.973297
114.879 -19.2965 0.97388
114.878 -19.0878 0.974486
114.917 -18.8891 0.97508
114.927 -18.6838 0.975681
114.951 -18.4823 0.976277
114.99 -18.2835 0.976871
114.952 -18.1702 0.977185
114.983 -17.9704 0.977779
114.952 -17.7561 0.97839
127.69 -18.721 1.01961
132.693 -0.524137 0.70952
94.8411 8.57736 0.777057
87.8627 10.0944 0.787716
78.4296 8.74645 0.795072
107.866 26.9551 0.80566
107.604 27.0362 0.806792
72.6922 10.2544 0.804194
69.5368 10.6915 0.80722
88.7793 -22.1056 0.689406
90.9801 -22.4403 0.6863
83.2909 -17.7147 0.711013
101.922 -23.9906 0.669109
103.986 -20.7943 0.678222
104.193 -20.6854 0.678621
114.731 -19.3341 0.671711
114.618 -19.2006 0.672055
114.638 -18.9975 0.672653
114.635 -18.7886 0.67326
114.651 -18.5861 0.673855
114.668 -18.3827 0.675454
114.687 -18.1815 0.676046
114.743 -17.9888 0.676629
114.772 -17.8927 0.67692
114.872 -17.7103 0.67649
115.258 -17.5948 0.676978
132.632 -0.599929 0.202273
93.7183 0.736243 0.496802
93.7362 0.868043 0.496193
93.7164 0.995348 0.496555
93.7445 1.12793 0.496952
90.2889 17.3684 0.531833
107.685 26.9157 0.409472
107.51 26.9329 0.411453
67.5045 14.3917 0.671181
91.355 -22.4969 0.410282
113.569 -25.6148 0.239979
115.389 -25.8501 0.226013
103.225 -20.6508 0.340337
105.014 -21.0072 0.325007
122.277 -24.2474 0.185394
123.932 -24.636 0.171916
124.498 -24.5634 0.168351
117.948 -21.6822 0.230148
118.252 -21.5477 0.228659
120.762 -21.6901 0.209235
115.632 -19.4147 0.25783
115.397 -19.2473 0.260224
115.701 -17.5415 0.266307
116.392 -17.4931 0.26172
132.445 -1.77548 -0.289223
112.836 8.776 -0.00626605
90.2316 12.0485 0.286333
107.75 26.899 0.0254474
107.498 26.9858 0.0286008
67.5416 14.5236 0.530579
98.312 -23.4573 0.050233
99.0932 -23.4611 0.0405302
100.107 -23.4679 0.0279105
100.427 -23.429 0.0241499
100.616 -23.333 0.0225038
100.835 -23.2478 0.0208384
100.975 -23.1286 0.02024
97.384 -20.8783 0.0833694
98.0427 -20.9791 0.0743361
106.383 -22.0078 -0.0393653
104.963 -20.9467 -0.0138387
105.989 -19.2638 -0.0145378
107.387 -19.2263 -0.0318773
108.158 -19.2682 -0.0426948
114.984 -19.9193 -0.136895
115.065 -19.7307 -0.136315
115.661 -18.8358 -0.138476
115.652 -18.729 -0.137169
115.659 -18.5204 -0.136559
116.6 -17.6933 -0.143782
116.619 -17.5918 -0.143479
116.588 -17.3735 -0.141856
116.673 -17.1813 -0.141264
116.672 -16.9707 -0.140651
121.742 -14.157 -0.192465
125.098 -14.4752 -0.239067
112.037 -9.75788 -0.4555
112.366 -6.77389 -0.447689
112.916 0.762592 -0.436548
107.785 26.8597 -0.409655
107.523 26.9418 -0.405519
68.315 15.9789 0.343117
52.9813 14.9908 0.472191
90.8902 -21.4348 -0.135814
91.1356 -21.4796 -0.140847
101.259 -18.0038 -0.297741
104.041 -17.5585 -0.348347
104.686 -17.569 -0.361123
105.106 -17.51 -0.369786
105.252 -17.3735 -0.371331
105.359 -17.2253 -0.371858
105.379 -17.142 -0.371608
114.908 -19.5352 -0.58081
104.95 -16.1474 -0.354884
105.566 -16.1282 -0.366585
105.782 -16.0949 -0.371403
105.971 -15.9647 -0.373949
105.699 -15.7202 -0.366346
105.757 -15.558 -0.365851
106.058 -15.4534 -0.371428
106.626 -15.4102 -0.382078
107.154 -15.3542 -0.392707
108.597 -14.6746 -0.41616
108.982 -14.572 -0.42371
109.159 -14.5169 -0.426479
109.339 -14.3694 -0.42898
109.428 -14.2019 -0.430457
108.919 -13.549 -0.414759
108.85 -13.3533 -0.412217
108.043 -13.0211 -0.393569
111.267 -12.5758 -0.456001
103.86 -7.05908 -0.536877
108.744 -2.70282 -0.645277
111.206 -0.492345 -0.702874
110.902 -0.138214 -0.694965
110.759 0.861181 -0.689114
89.8089 17.1306 -0.232052
89.6914 17.2173 -0.229846
65.5461 13.8068 0.299705
65.4551 13.7956 0.301637
52.9205 14.9622 0.382084
70.0785 -20.2113 0.108533
85.3302 -20.1254 -0.207199
83.6205 -16.5726 -0.116538
97.155 -16.3847 -0.440651
97.3828 -16.3005 -0.445316
98.0809 -15.8923 -0.457853
97.6217 -15.0753 -0.438658
98.9171 -14.2669 -0.462795
101.768 -13.0281 -0.524066
96.0914 -7.94136 -0.602509
96.1316 -7.80824 -0.603106
96.1272 -7.66971 -0.601705
96.106 -7.52914 -0.600305
96.0677 -7.38753 -0.597908
97.0217 -4.2725 -0.612469
97.1901 -4.13773 -0.617011
97.3776 -4.00326 -0.622546
97.5652 -3.86779 -0.628078
97.75 -3.73098 -0.633607
97.8701 -3.66289 -0.637361
98.036 -3.52379 -0.641891
98.186 -3.38278 -0.646422
98.34 -3.24224 -0.649952
98.4952 -3.09984 -0.654477
98.717 -2.95642 -0.660972
98.9077 -2.81226 -0.666477
99.1079 -2.73975 -0.673187
99.4678 -2.44582 -0.68319
99.6529 -2.29796 -0.688687
99.8665 -2.14751 -0.695165
100.096 -1.995 -0.702631
100.074 -1.84724 -0.70121
100.434 -1.76478 -0.712828
100.676 -1.60975 -0.720281
100.85 -1.4535 -0.724758
100.998 -1.29811 -0.729248
101.208 -1.13923 -0.735703
101.413 -0.97963 -0.742158
101.637 -0.81735 -0.748597
101.826 -0.732364 -0.754275
101.976 -0.571251 -0.758747
102.197 -0.40551 -0.766178
102.939 0.262212 -0.787943
103.619 0.464055 -0.810087
97.5316 7.64463 -0.631601
96.9109 7.79319 -0.613413
52.9525 15.0019 0.275211
94.4686 -12.1379 -0.587358
94.5868 -12.0273 -0.58899
95.3013 -10.1011 -0.594104
95.2947 -10.0308 -0.592902
95.2566 -9.88725 -0.590499
95.2473 -9.74812 -0.589099
95.3455 -9.62703 -0.591708
95.426 -9.5028 -0.593314
95.4888 -9.37541 -0.593919
95.5566 -9.24763 -0.59552
95.5769 -9.11309 -0.595121
95.5801 -9.04498 -0.594922
95.5994 -8.91033 -0.594522
95.5871 -8.77084 -0.593121
95.651 -8.64258 -0.593723
95.6454 -8.50492 -0.592325
95.6618 -8.36991 -0.591926
95.7605 -8.24485 -0.594523
95.9135 -8.19586 -0.59832
96.0094 -8.06945 -0.600914
90.2919 -7.28797 -0.663898
90.3727 -7.17787 -0.666546
90.4197 -7.06369 -0.667195
90.4469 -6.94711 -0.667845
90.4503 -6.82765 -0.666496
90.4487 -6.70759 -0.666148
90.4292 -6.58538 -0.6638
90.5659 -6.17985 -0.666566
90.6382 -6.06569 -0.669206
90.6825 -5.94916 -0.669849
90.7317 -5.83324 -0.670492
90.7568 -5.77583 -0.671316
90.7702 -5.65658 -0.670963
90.7767 -5.53649 -0.670611
90.8071 -5.41829 -0.671256
90.8275 -5.29987 -0.671903
90.8549 -5.18131 -0.671547
90.8903 -5.06371 -0.672191
90.9228 -4.94475 -0.672832
90.9661 -4.88652 -0.674646
91.0106 -4.76901 -0.675286
91.0521 -4.65013 -0.676924
91.0977 -4.53174 -0.677562
91.1434 -4.41236 -0.679197
91.2487 -3.50846 -0.679526
91.3528 -3.38909 -0.683137
91.4717 -3.32993 -0.686918
91.6172 -3.20952 -0.69251
91.7638 -3.08923 -0.698103
91.9146 -2.96644 -0.702686
92.0131 -2.84337 -0.706289
92.1308 -2.71959 -0.710883
92.2365 -2.59537 -0.71448
92.3357 -2.53283 -0.718258
92.4486 -2.40746 -0.721849
66.9552 9.8928 0.0998745
66.8883 9.91398 0.10191
59.7027 14.7801 0.11723
55.9143 19.7434 -0.0178276
52.9414 14.8767 0.162842
51.7336 16.1592 0.116096
51.6755 16.1279 0.116982
43.0456 16.324 0.0181461
-14.0142 -10.9203 -1.84964
78.4236 -17.8741 -0.389377
76.6068 -15.7227 -0.282835
86.2097 -12.7969 -0.570535
88.4289 -11.8886 -0.640017
88.2829 -9.68119 -0.609653
89.6372 -8.62809 -0.650055
89.7106 -8.52112 -0.651715
89.7504 -8.40809 -0.65237
89.7714 -8.29278 -0.652026
89.7866 -8.17575 -0.65168
89.7978 -8.05825 -0.651334
89.8039 -7.99955 -0.65116
89.8298 -7.88484 -0.650817
89.8598 -7.77061 -0.651472
89.8888 -7.65526 -0.652125
89.9476 -7.54451 -0.65278
90.063 -7.4396 -0.656429
90.1973 -7.33697 -0.661078
86.7174 -5.27798 -0.717462
86.7572 -5.174 -0.718144
86.787 -5.06882 -0.718826
86.798 -4.96136 -0.719509
86.8239 -4.85571 -0.719191
52.8715 14.2407 0.0839641
51.7291 16.1469 0.00305821
51.6685 16.1533 0.00305269
51.6177 16.0002 0.00858749
84.0555 -12.0777 -0.675293
85.0722 -11.2839 -0.706583
85.2471 -11.2205 -0.713329
85.3389 -11.1359 -0.716047
84.3007 -9.04323 -0.645369
87.0622 1.40258 -0.918892
87.1513 1.52277 -0.923508
87.3973 1.77508 -0.936677
87.5072 1.90081 -0.942267
87.5661 2.02062 -0.945896
87.4988 2.12243 -0.942626
88.093 2.94613 -0.975996
88.0866 3.0013 -0.975838
88.107 3.11972 -0.977485
88.1138 3.23473 -0.978148
88.1074 3.34832 -0.97882
88.0516 3.45278 -0.976538
88.0812 3.5731 -0.979176
88.0634 3.68404 -0.978861
88.086 3.74577 -0.979672
88.0423 3.96762 -0.979044
88.072 4.08794 -0.981682
88.0646 4.20165 -0.982354
88.0211 4.30864 -0.98106
87.9684 4.41374 -0.978775
87.9145 4.45953 -0.976663
87.7975 4.55022 -0.971446
87.8739 4.68202 -0.976032
87.7879 4.77903 -0.972784
87.8384 4.90489 -0.976398
87.7399 4.99838 -0.972165
87.7719 5.12144 -0.974794
87.7459 5.17293 -0.973655
87.8309 5.30873 -0.979226
73.1259 4.12201 -0.261479
51.7018 16.0377 -0.100271
44.2769 13.63 -0.0912056
28.0816 9.33217 -0.562102
-1.61796 -6.06948 -1.97263
84.9721 4.60012 -1.04442
70.1196 11.3035 -0.425775
44.2976 13.659 -0.209113
68.9233 -17.3038 -0.474468
82.721 4.07777 -1.07982
82.7779 4.18977 -1.08448
67.8002 9.63284 -0.37455
51.9245 6.90391 0.217248
75.4114 -8.8351 -0.669272
76.737 -8.22669 -0.737979
79.3556 3.01115 -1.05626
79.4107 3.06695 -1.06107
79.4816 3.1702 -1.06674
79.535 3.27052 -1.07143
79.5875 3.37096 -1.07612
69.7791 9.91295 -0.627955
69.4334 10.1945 -0.620273
67.7492 9.5447 -0.504827
67.8168 9.67858 -0.513411
67.6709 9.63878 -0.504585
67.5345 9.64318 -0.497626
51.9632 7.09891 0.13683
51.9585 6.75996 0.158842
13.2995 8.52282 -2.0143
19.1056 -7.91277 -1.57782
62.3245 -17.5461 -0.459777
67.3818 -14.0097 -0.506494
68.5793 -13.6367 -0.555936
68.6246 -13.5948 -0.556796
68.6314 -13.5634 -0.555702
72.9967 -11.193 -0.735084
74.9087 -9.7761 -0.821208
75.3223 -8.63853 -0.822736
75.4621 -8.599 -0.831566
76.3547 0.387212 -0.948072
76.3999 0.469391 -0.951816
67.8114 9.44277 -0.5991
67.8365 9.54149 -0.604803
67.7403 9.62061 -0.60261
67.7725 9.72855 -0.609284
67.819 9.84684 -0.616921
51.9894 7.07372 0.0897667
51.983 6.77124 0.110884
51.9179 6.81639 0.10699
31.1932 15.9021 -1.26576
73.7104 -1.97954 -0.884001
67.7748 9.55637 -0.729784
67.8462 9.65554 -0.738468
67.9577 9.82744 -0.753924
61.1882 13.5208 -0.633851
32.9461 -13.5976 -1.05889
70.5208 -10.9346 -0.79731
73.9674 2.33537 -1.06535
73.9918 2.412 -1.06812
74.0318 2.4928 -1.07286
74.0438 2.5669 -1.07564
74.0693 2.64441 -1.07941
74.0543 2.71171 -1.07922
74.0805 2.75387 -1.08209
74.1051 2.83249 -1.08585
74.5586 3.9916 -1.1463
74.6194 4.08601 -1.154
74.6521 4.17273 -1.15873
74.6951 4.26222 -1.16446
74.7655 4.3615 -1.17214
74.8983 4.44319 -1.18485
74.7811 4.48152 -1.17578
72.4036 8.5846 -1.12279
72.3808 8.61253 -1.12171
72.3243 8.66167 -1.11959
72.2743 8.71505 -1.11846
72.2276 8.77006 -1.11732
72.2288 8.85454 -1.12107
72.1755 8.9053 -1.11894
72.1451 8.97043 -1.11977
72.1179 8.99587 -1.1187
72.0439 9.03302 -1.11462
72.0266 9.10664 -1.11642
72.0048 9.17676 -1.11822
71.9788 9.24438 -1.11903
71.9049 9.36614 -1.11871
71.8083 9.51683 -1.11831
71.8051 9.59882 -1.12207
71.7507 9.64871 -1.11995
71.703 9.70383 -1.11881
71.6342 9.74337 -1.11572
71.5927 9.75845 -1.11369
67.7131 9.58733 -0.838719
67.7923 9.69261 -0.849382
43.9928 15.3781 -0.894236
59.4157 -16.4617 -0.555771
68.9926 10.4134 -1.09081
67.6758 9.50352 -0.946978
61.1762 13.4796 -0.843976
54.8523 13.8362 -0.701434
68.0838 9.82938 -1.11987
67.8517 9.71738 -1.09629
61.1568 13.5437 -0.964798
52.0144 6.93942 -0.141615
69.253 -0.939559 -0.934735
69.241 -0.888755 -0.933592
60.184 6.02742 -0.387045
60.192 6.09296 -0.392851
61.1426 13.5095 -1.0749
52.0132 7.29543 -0.23758
52.0265 6.66408 -0.173411
51.9296 7.14534 -0.22305
68.5034 -1.58213 -0.9559
68.4942 -1.53367 -0.955763
59.9335 10.8338 -0.878164
58.7403 10.8208 -0.819672
51.6459 13.5097 -0.976651
52.0456 6.77277 -0.247088
66.8799 -8.63331 -0.921053
60.9888 12.363 -1.1843
59.9737 10.808 -0.972223
59.6083 12.5923 -1.13618
58.9029 -13.0401 -0.64002
65.7146 7.73003 -1.22691
65.7023 7.75367 -1.22785
65.6724 7.79759 -1.22873
60.9144 12.2312 -1.26471
60.8788 12.2778 -1.26759
60.8499 12.3388 -1.27243
59.773 12.6382 -1.24598
56.5921 5.8534 -0.346968
56.4735 5.62189 -0.316689
52.0714 6.86069 -0.371823
65.775 -7.96573 -0.944547
65.9378 6.40264 -1.23769
65.9107 6.4452 -1.23757
65.8793 6.48526 -1.23747
65.8444 6.52171 -1.23638
65.834 6.57737 -1.23922
65.7969 6.61208 -1.23813
65.7634 6.65138 -1.23703
65.3076 7.28874 -1.23836
65.2918 7.34102 -1.24121
65.1298 7.27594 -1.21946
65.2212 7.41504 -1.24002
59.5582 12.2029 -1.27233
52.0978 6.92111 -0.428637
60.0806 11.0005 -1.27562
60.0459 11.0389 -1.27852
60.0024 11.0623 -1.27847
59.905 10.9814 -1.26275
59.8765 10.4289 -1.29837
44.6095 10.8661 -1.49712
49.7272 -12.4677 -0.723977
52.0912 7.09094 -0.702146
58.8338 8.68756 -1.31384
58.7951 8.70129 -1.31282
58.7633 8.72933 -1.31475
58.7477 8.74229 -1.31472
58.717 8.7712 -1.31665
58.6824 8.79352 -1.31759
58.6478 8.81583 -1.31754
58.6106 8.83243 -1.31751
58.5801 8.86332 -1.31943
58.5445 8.88576 -1.32038
58.5098 8.90708 -1.32033
58.4905 8.91444 -1.32032
58.4544 8.93191 -1.32028
58.4199 8.95522 -1.32123
58.3829 8.9738 -1.32119
58.3498 8.99997 -1.32313
58.3235 9.04044 -1.32702
58.7428 5.07142 -1.0164
58.7646 5.15143 -1.03016
58.7528 5.18711 -1.03306
57.9007 7.82748 -1.34771
57.8583 7.82656 -1.34473
57.825 7.84268 -1.3447
58.7498 4.97909 -1.07666
57.6912 7.50235 -1.36474
51.7868 -8.06532 -1.02236
55.2681 -2.62709 -0.315161
51.7963 -1.25908 -0.0305506
51.5356 -4.15469 -0.0490771
51.9449 -1.52917 0.0677228
122.876 -19.2425 -30.3799
52.012 -1.52417 0.0607637
52.0308 -1.57688 0.085618
51.9767 -1.53293 0.0397243
51.8615 -1.34444 -0.0597733
51.9791 -1.54634 0.0456862
51.9631 -1.52826 0.0347325
51.925 -1.47722 0.00586573
51.8883 -1.4304 -0.0210126
51.8374 -1.36066 -0.05983
51.8652 -1.41347 -0.0329725
51.8647 -1.41744 -0.0309843
51.8757 -1.44299 -0.0190542
51.8638 -1.43346 -0.0260312
51.7127 -1.2174 -0.145463
51.9151 -1.62527 0.0594314
51.8477 -1.5999 0.0314785
51.5431 -4.2097 -0.146235
54.1495 -3.98812 -0.144561
54.1051 -4.04715 -0.166751
54.0671 -4.00335 -0.139638
54.0617 -3.98962 -0.1336
1.86806e-39 0 3.16399e-41
