ply
format ascii 1.0
element vertex 607
property float x
property float y
property float z
end_header
145.473 0.803026 3.75633
144.576 1.73969 3.72541
144.497 1.98239 3.72157
145.238 2.92486 3.74744
121.221 4.77124 2.91724
97.8931 12.1846 2.19042
97.9294 12.3319 2.194
88.1472 11.5094 1.88779
88.1 11.8496 1.89268
109.784 32.9336 2.86774
96.4265 27.9296 2.42366
97.4111 30.6982 2.5081
91.1941 25.7463 2.25171
91.0581 25.7769 2.24947
56.9601 15.062 1.63437
52.8384 14.7871 1.6897
36.6765 17.8128 2.11746
35.779 16.8302 2.12454
35.4191 16.5888 2.1299
35.5874 15.9161 2.11419
35.3793 15.7116 2.11659
28.9503 16.3981 2.30538
28.8496 16.3014 2.30657
28.6027 16.059 2.31005
22.3892 18.3472 2.51807
26.2897 15.5128 2.37021
26.9936 15.0805 2.34434
28.4036 14.0771 2.29102
28.3115 13.9772 2.29323
13.1012 20.543 2.815
9.42729 20.891 2.92787
8.17501 21.0211 2.96608
6.66666 21.2465 3.01372
6.46649 21.1115 3.01792
6.30731 20.9596 3.02122
16.3098 16.5944 2.67685
16.9232 16.1519 2.65391
17.5613 15.7047 2.63101
17.524 15.5434 2.63047
18.797 14.5001 2.58213
10.4044 17.3817 2.86289
15.8606 14.8697 2.67474
16.5359 14.0768 2.64696
15.5786 14.3474 2.67806
15.9091 14.0454 2.66537
10.4188 14.6126 2.83855
10.4191 14.4175 2.83716
10.0046 13.7809 2.84569
9.7704 13.761 2.8525
9.42217 13.6786 2.86237
9.04368 13.6035 2.87419
2.31885 15.5247 3.09679
2.22981 15.3334 3.09829
1.88539 15.2211 3.10826
1.71032 14.2885 3.10798
1.05965 13.71 3.12407
0.852476 13.1103 3.12771
-4.11343 13.7488 3.28826
-6.72593 13.5799 3.36991
18.706 -8.26244 2.53608
18.9923 -8.38634 2.52778
19.0292 -8.53103 2.52727
20.6887 -9.02663 2.47664
20.8936 -9.14793 2.47125
23.4082 -9.08426 2.38882
17.9579 -10.1412 2.57312
24.6243 -9.47384 2.35137
24.1093 -9.6697 2.37042
24.796 -9.71363 2.34831
5.92889 -15.9118 3.00989
3.86898 -16.6094 3.0828
3.71005 -16.8442 3.09036
-0.404782 -19.0787 3.24481
-12.0832 -21.9245 3.64684
13.8466 -16.4321 2.76223
6.2376 -19.6786 3.03999
17.4101 -17.5431 2.66162
20.8162 -17.9134 2.55953
45.3972 -11.9073 1.71483
31.8943 -18.1069 2.22032
32.1127 -18.1413 2.21467
32.4113 -18.5104 2.21115
30.344 -21.2546 2.31944
30.2166 -21.4525 2.32692
48.9382 -12.7595 1.62239
48.9695 -12.8095 1.62258
9.55308 -33.1278 3.14162
21.6051 -27.1403 2.6812
21.5276 -27.3565 2.68779
21.4674 -27.565 2.69337
42.3787 -18.0587 1.91171
42.5543 -18.1021 1.90804
44.2407 -18.2691 1.86442
53.7682 -19.2503 1.65797
53.8046 -19.2999 1.65916
53.8334 -19.3596 1.66038
53.8868 -19.3885 1.65953
48.0425 -27.0913 2.00414
54.5185 -19.2952 1.64493
54.5674 -19.3275 1.64509
54.5838 -19.3541 1.64519
54.6164 -19.4083 1.64639
54.8199 -19.4263 1.64267
54.0996 -20.5261 1.69031
55.3657 -19.4035 1.6322
55.3921 -19.4659 1.63343
55.4403 -19.4961 1.63357
54.2517 -21.4166 1.71426
54.3233 -21.4249 1.71336
54.6175 -21.0994 1.69867
54.4767 -21.4257 1.71054
54.8303 -21.0026 1.6916
131.223 -50.0656 3.89642
131.306 -49.9705 3.89722
131.378 -49.7151 3.8935
131.507 -49.4992 3.89197
131.637 -49.2844 3.89144
131.643 -48.9864 3.88452
131.781 -48.7778 3.88402
131.974 -48.6065 3.8857
132.248 -48.4881 3.89163
132.786 -46.166 3.85797
136.533 -40.5628 3.86161
126.998 -20.4142 3.24122
127.019 -20.2141 3.23961
127.086 -19.1054 3.22923
127.134 -18.9133 3.22868
144.866 0.526881 3.23252
144.746 0.64402 3.22902
144.672 0.888991 3.22717
144.578 1.13184 3.22331
135.956 5.8863 2.97798
114.154 7.75642 2.37014
113.931 7.86115 2.36357
113.746 7.89474 2.35926
113.503 7.99212 2.35269
113.29 8.09643 2.34713
103.921 13.1095 2.12416
111.525 37.9122 2.61412
98.1239 31.4186 2.23363
92.796 25.9111 2.03496
92.6055 26.0829 2.03421
91.3593 25.7047 2.00302
91.1602 25.6615 1.99894
15.4892 16.4484 2.3554
-8.81163 -16.5915 3.01179
1.00954 -20.2889 2.79014
-11.3223 -24.3323 3.14419
8.75834 -30.2542 2.71777
133.872 -40.2752 3.28478
136.172 -40.7813 3.35089
136.095 -40.4623 3.34381
126.336 -20.7286 2.82446
126.325 -20.521 2.8218
126.311 -20.314 2.81914
126.318 -20.1119 2.81752
126.311 -19.9078 2.81488
126.301 -19.8033 2.81354
126.329 -19.6083 2.81296
126.386 -19.4195 2.81243
126.427 -19.2274 2.81188
126.467 -19.0352 2.81132
128.15 -18.7155 2.85518
138.722 -19.5742 3.1585
135.213 -1.11809 2.63202
144.593 1.07609 2.8525
144.7 1.33343 2.85381
104.83 3.41891 1.90841
111.554 37.8618 2.3203
111.637 38.2076 2.32632
100.115 30.883 2.0325
91.4239 26.0829 1.82291
130.777 -28.0541 2.70322
138.988 -30.2496 2.91211
138.661 -29.6209 2.89779
138.034 -29.1513 2.87863
140.965 -29.4923 2.94892
141.202 -29.308 2.95261
141.381 -29.1033 2.95417
126.484 -19.0971 2.51753
109.325 34.8934 1.79911
109.402 35.2127 1.8022
109.489 35.5428 1.80627
109.621 35.7895 1.80964
109.696 36.1132 1.81271
109.801 36.4669 1.81673
109.901 36.8183 1.82074
4.41504 21.7213 1.84475
89.3914 -18.8373 1.47289
135.715 -28.8975 2.26228
136.858 -29.0461 2.28101
139.466 -29.1733 2.32228
141.591 -29.4888 2.3576
132.705 -21.4121 2.15861
132.889 -20.899 2.15821
142.181 -19.3975 2.29675
111.798 38.4689 1.53367
111.885 38.8212 1.53567
91.4196 26.0618 1.31597
89.3229 -18.8239 1.33077
89.3435 -18.7854 1.33067
102.367 -24.073 1.50151
109.274 -21.2906 1.55243
89.9222 10.4505 1.04905
111.671 37.8807 1.09537
111.756 38.2262 1.09538
111.863 38.5958 1.09535
111.956 38.8178 1.09476
112.017 39.1485 1.09479
97.8142 25.981 1.05926
-1.99577 -15.3574 1.15543
89.2645 -18.5777 1.13594
109.143 -21.6587 1.22843
125.988 -20.3549 1.29191
125.996 -20.1551 1.29129
126.02 -19.9585 1.29071
126.006 -19.8545 1.29036
125.984 -19.6473 1.28969
126.047 -19.4613 1.28918
126.024 -19.254 1.28851
125.994 -19.0467 1.28683
142.089 -19.4286 1.35574
116.32 8.03672 0.91564
116.052 8.13782 0.915029
104.954 15.3107 0.892424
89.3816 12.7955 0.906134
111.729 38.2332 0.79933
111.834 38.6001 0.798299
111.894 38.9289 0.796339
111.977 39.1442 0.795759
112.068 39.5059 0.79373
96.7009 25.6753 0.851986
96.6175 25.7842 0.851555
89.1786 -18.6496 1.00706
89.423 -18.5937 1.00716
109.765 -25.1044 1.01687
110.744 -25.2184 1.01731
121.653 -26.8051 1.01727
125.921 -20.719 0.999968
125.765 -20.4744 0.999033
125.743 -20.2672 0.998362
125.733 -20.0627 0.997713
125.735 -19.862 0.997089
125.754 -19.6658 0.996497
125.774 -19.4706 0.99691
125.786 -19.3733 0.996619
125.829 -19.1834 0.996073
125.924 -19.0061 0.994624
138.859 -19.2345 0.990576
91.224 10.6347 0.725905
119.224 41.7704 0.335535
114.376 38.8033 0.384461
111.746 38.1811 0.401508
111.83 38.5287 0.398516
111.902 38.8679 0.395536
111.954 39.1908 0.392586
97.8971 26.1314 0.568878
98.2246 28.8604 0.54372
33.1802 17.3809 0.565955
89.2406 -18.6772 0.832218
89.5755 -18.5747 0.830267
109.457 -21.1707 0.710253
137.217 -26.5156 0.536494
140.259 -27.1981 0.516973
140.326 -26.9632 0.516313
142.177 -27.2598 0.505276
126.582 -20.7432 0.599768
126.509 -20.5195 0.59999
126.33 -20.2687 0.601011
126.254 -20.0457 0.601231
126.363 -19.8703 0.599804
126.404 -19.6782 0.599249
126.271 -19.4419 0.600365
126.537 -19.4063 0.598546
128.269 -18.5888 0.585902
138.819 -19.2948 0.517717
142.109 -19.4653 0.495871
145.649 -3.55924 -0.0568851
140.096 -2.80459 0.011647
132.248 -1.20172 0.108005
142.482 4.77041 -0.0493721
139.808 4.80212 -0.0154139
90.6613 9.00456 0.566373
109.293 36.1021 0.0652955
111.921 38.8206 0.00670277
109.736 37.0336 0.0498763
110.034 37.5779 0.0395044
109.89 37.7075 0.0389424
109.903 37.9845 0.0360913
66.4893 16.8755 0.613198
66.4541 16.8341 0.614288
66.3878 16.8648 0.614119
56.497 -4.42682 0.839694
92.3675 -22.583 0.61285
89.2036 -18.6128 0.663975
89.391 -18.6235 0.662215
119.209 -26.0225 0.29613
119.601 -25.9838 0.291441
109.5 -21.0818 0.422022
123.463 -24.527 0.247145
128.732 -21.4749 0.185417
129.772 -21.5402 0.172766
130.676 -21.5615 0.161827
126.092 -19.8508 0.219442
128.169 -19.4424 0.193453
128.276 -19.2597 0.192001
135.924 -3.95765 -0.418349
135.451 -3.7423 -0.409542
135.448 -3.52268 -0.41023
135.379 -3.30471 -0.409987
134.367 -2.56556 -0.392408
111.54 2.11732 0.0368511
111.305 37.2408 -0.398046
109.235 35.6021 -0.33921
111.711 38.1444 -0.41942
109.464 36.1945 -0.352806
109.832 36.7954 -0.368277
110.035 37.2461 -0.37946
110.182 37.6473 -0.388552
93.4666 23.9009 0.0879607
99.0221 29.7797 -0.0942756
74.6294 11.5012 0.554933
66.4731 16.8804 0.465164
66.4065 16.895 0.464045
53.5198 20.0416 0.315037
53.4199 20.0498 0.312901
-0.587671 -13.7264 -0.469121
108.66 -20.4047 0.113982
120.029 -16.0097 -0.0912234
118.53 -10.5404 -0.331947
118.556 -7.53069 -0.335313
118.442 -7.35767 -0.332979
111.029 37.0502 -0.704757
110.977 37.2657 -0.708487
109.732 36.3735 -0.667072
98.2146 25.8774 -0.240984
109.96 37.1054 -0.686106
110.053 37.4558 -0.696098
110.203 37.7302 -0.703789
93.4318 24.1487 -0.119853
74.6146 11.5454 0.459778
74.639 11.7086 0.455296
74.6404 11.8306 0.451916
66.4916 16.9098 0.354092
66.4249 16.9234 0.353976
66.358 16.9218 0.353907
53.4095 20.0883 0.171769
53.3152 20.0856 0.170674
112.653 -18.7393 -0.205823
110.766 -17.0139 -0.153285
114.679 -16.5405 -0.246457
114.758 -15.9891 -0.246091
115.2 -14.5453 -0.254111
114.036 -13.049 -0.223062
118.021 -13.0799 -0.320579
118.07 -12.9182 -0.322031
110.702 -10.8088 -0.407726
110.614 -10.4365 -0.404985
110.686 -10.3025 -0.407323
110.938 -9.90214 -0.414296
110.705 -9.51622 -0.406757
110.712 -9.37381 -0.407194
110.718 -9.23112 -0.407633
110.715 -9.08828 -0.407082
110.701 -8.94388 -0.406548
110.734 -8.80403 -0.407949
110.765 -8.66404 -0.408352
110.771 -8.59319 -0.408566
110.744 -8.44793 -0.408049
110.72 -8.3041 -0.407524
110.703 -8.16012 -0.406993
110.656 -8.014 -0.405501
110.695 -7.87515 -0.406891
110.703 -7.73288 -0.407326
110.678 -7.6606 -0.406579
110.676 -7.51791 -0.406027
110.698 -7.37749 -0.407442
110.701 -7.2355 -0.407881
110.704 -7.0945 -0.407318
110.704 -6.95209 -0.407762
110.679 -6.8091 -0.407236
111.481 -5.77151 -0.433592
111.93 -5.42174 -0.449189
112.083 -5.27898 -0.453467
112.267 -5.13568 -0.459711
112.677 -4.84684 -0.473163
113.041 -4.62742 -0.485446
114.063 -3.796 -0.519917
114.263 -3.64082 -0.526181
114.442 -3.48465 -0.532472
114.564 -3.32944 -0.536822
114.744 -3.17044 -0.54312
114.988 -3.00935 -0.551355
115.083 -2.8513 -0.554743
115.262 -2.76781 -0.560807
116.865 -1.9097 -0.613721
116.977 -1.74289 -0.618119
116.985 -0.285277 -0.62566
107.165 1.62795 -0.337439
95.9286 7.89117 -0.0733568
98.0822 25.3531 -0.488495
97.884 25.3583 -0.484729
95.4656 23.2948 -0.37895
92.6614 25.904 -0.387181
74.6257 11.6142 0.348575
66.4701 16.8498 0.229255
66.4041 16.8684 0.229124
108.065 -13.525 -0.33415
110.906 -11.9281 -0.416007
110.918 -11.7843 -0.416444
110.955 -11.6442 -0.41684
110.932 -11.4944 -0.416333
110.927 -11.421 -0.415567
110.897 -11.2712 -0.415068
110.822 -11.1149 -0.411639
110.775 -10.9637 -0.410163
104.721 -7.21014 -0.479543
104.721 -7.08696 -0.479927
104.712 -6.96335 -0.479323
104.76 -6.65805 -0.481224
104.782 -6.16733 -0.48273
104.751 -6.10424 -0.481962
104.746 -5.98134 -0.481351
105.471 -4.69623 -0.511564
105.599 -4.57214 -0.516811
105.702 -4.50912 -0.520894
105.827 -4.38361 -0.526149
105.961 -4.25626 -0.531399
106.086 -4.12877 -0.536659
106.212 -4.00044 -0.541921
106.353 -3.87111 -0.547169
106.487 -3.74179 -0.552426
108.163 -1.77389 -0.624724
109.098 -1.02914 -0.664019
109.155 -0.88676 -0.667401
108.446 0.818165 -0.652504
110.538 33.9868 -1.37074
110.622 34.3031 -1.38163
110.697 34.6166 -1.39253
95.5295 23.4768 -0.652449
95.311 23.4465 -0.645595
95.0922 23.591 -0.644287
94.6928 23.3836 -0.627079
92.7242 25.9164 -0.655152
66.0211 -19.5602 0.441413
92.4728 20.7143 -0.707191
92.401 20.8054 -0.707554
92.8081 25.7451 -0.892526
11.323 -12.3897 -1.50319
88.0254 -20.1112 -0.162649
95.988 23.6611 -1.15252
96.0734 23.9186 -1.16523
22.3721 -13.3855 -1.26492
81.3156 -18.5229 -0.0179918
92.6819 -12.8359 -0.386234
95.3084 -2.19567 -0.677557
95.3883 -2.09602 -0.68278
95.4346 -1.99861 -0.686034
95.4801 -1.90007 -0.689291
95.548 -1.7997 -0.69353
95.5954 -1.70145 -0.696784
95.6358 -1.60319 -0.700046
95.6755 -1.55131 -0.703165
95.7293 -1.45094 -0.706419
19.1537 -6.3753 -1.70334
90.4743 -12.5217 -0.444645
92.0472 -4.52949 -0.624862
92.8437 -2.13746 -0.686452
69.7864 13.277 -0.200945
69.699 13.4067 -0.207446
24.6193 -2.67195 -1.61889
88.8514 -14.4643 -0.527368
91.2626 -9.48927 -0.592244
91.2367 -9.27542 -0.58894
91.2502 -9.19552 -0.589174
91.2805 -9.11804 -0.590383
75.5812 4.18059 0.056829
29.5793 12.177 -1.85278
76.6388 -19.8687 -0.26494
77.7284 -18.9055 -0.260747
80.3018 -18.0866 -0.340472
80.3589 -18.0543 -0.342509
58.3067 7.1832 -0.0855592
58.2718 7.15791 -0.0855187
87.3815 -10.8991 -0.648115
86.6929 -2.95215 -0.69568
86.7111 -2.91737 -0.697768
77.7699 8.58408 -0.47851
84.627 -12.1014 -0.619394
84.7044 -12.0974 -0.624322
85.0783 7.44725 -0.99692
85.0516 7.51471 -0.99816
85.0483 7.55459 -0.999288
85.0183 7.6205 -1.00053
84.9783 7.67978 -1.00076
84.9673 7.75812 -1.00401
85.0285 7.88166 -1.01433
85.051 7.98247 -1.02062
85.0535 8.06999 -1.02489
85.1473 8.17471 -1.03711
85.2246 8.3121 -1.04946
85.2819 8.4372 -1.05979
85.3128 8.5469 -1.06809
85.3816 8.68147 -1.07944
85.4786 8.83624 -1.09382
85.4325 8.89537 -1.09405
77.7998 8.77745 -0.595081
76.8007 8.51777 -0.52137
76.6348 8.48804 -0.51046
77.0012 12.0917 -0.787307
76.6345 12.1625 -0.775931
64.0472 14.1586 -0.692017
83.636 7.53365 -1.02578
83.5874 7.58204 -1.02498
77.0484 12.0816 -0.908224
74.6874 -17.1751 -0.408497
74.7353 -17.1577 -0.409499
74.7805 -16.9692 -0.398037
74.9475 -17.1154 -0.417397
82.8024 6.62264 -1.04385
82.7466 6.66298 -1.04104
82.704 6.7115 -1.04124
82.6492 6.7517 -1.03842
82.621 6.80927 -1.03963
82.5673 6.85031 -1.03782
82.5276 6.86208 -1.0349
82.4973 6.91894 -1.03611
60.0916 13.7004 -0.955942
78.5179 -14.4009 -0.574941
78.5954 -14.3959 -0.580871
81.7998 6.21773 -1.05769
81.7545 6.2606 -1.05687
81.7247 6.31337 -1.05707
81.7016 6.37121 -1.05928
76.9619 10.2854 -0.996713
76.3366 11.1245 -1.03202
81.0927 5.81587 -1.09422
81.0502 5.85733 -1.09339
60.1685 13.4735 -1.17015
60.1384 13.1789 -1.13926
71.4922 -16.3495 -0.451591
71.5074 -16.286 -0.445773
80.2911 5.30442 -1.0965
71.3798 12.8587 -1.20789
71.3047 12.814 -1.19983
59.919 13.1343 -1.25637
79.9368 -0.527568 -0.836685
79.7694 4.67404 -1.09911
79.7325 4.71267 -1.09827
79.6967 4.75214 -1.09743
79.6731 4.79896 -1.0986
79.6737 4.8312 -1.1007
79.6312 4.86559 -1.09886
68.0734 10.5207 -1.01123
77.5819 -1.23259 -0.824077
73.6438 6.47418 -1.12447
73.6078 6.49753 -1.12458
73.4906 6.40629 -1.10243
73.5505 6.56331 -1.12785
62.4752 9.58361 -1.28347
73.03 5.79336 -1.12602
61.5033 8.47622 -1.30608
61.4609 8.46916 -1.30711
61.4219 8.45051 -1.30609
61.3837 8.43074 -1.30507
61.362 8.42777 -1.30609
75.6359 -2.18615 -0.816242
72.659 5.29793 -1.14488
72.2645 4.74435 -1.12859
69.9109 3.46753 -0.713191
69.8872 3.48508 -0.714272
74.4892 -0.362253 -0.896198
74.4945 -0.325639 -0.900307
74.4833 -0.297775 -0.900406
74.4734 -0.268075 -0.901509
68.1398 -5.27599 -0.139845
64.8072 -2.91043 0.149104
64.7508 -2.88826 0.128973
64.7543 -2.90592 0.136032
45.8826 -3.07889 -7.51524
64.9525 -3.19259 0.254145
105.8 -18.9061 -17.3819
105.76 -18.8215 -17.3532
64.9954 -3.14024 0.223029
65.0324 -3.22018 0.262319
65.0319 -3.2302 0.26635
64.937 -3.3075 0.273487
64.9647 -3.16417 0.20807
64.9709 -3.18422 0.218139
64.9737 -3.1927 0.222169
64.9268 -3.12548 0.183907
64.9086 -3.10472 0.171822
64.878 -3.06503 0.149665
64.8589 -3.04315 0.135575
64.866 -3.06433 0.145649
64.8804 -3.09766 0.162769
64.8751 -3.09894 0.161767
64.7898 -2.96873 0.0902667
64.8901 -3.24032 0.220226
64.8885 -3.30064 0.243412
64.5068 -5.7477 0.0876294
64.6088 -5.6409 0.154409
64.4769 -5.85063 0.0439177
67.1124 -5.70406 0.0343611
67.0175 -5.70355 0.0472551
67.0161 -5.6993 0.0492403
23.0247 -15.4227 1.15033e-41
