ply
format ascii 1.0
element vertex 753
property float x
property float y
property float z
end_header
95.4199 13.6216 3.01787
69.8927 13.0608 2.14337
10.068 15.6252 0.984274
6.65045 19.8593 1.13408
1.09361 20.4634 1.25877
-1.78106 20.661 1.32773
-1.98293 20.7811 1.33362
-2.56109 20.9063 1.35001
-2.81751 20.868 1.35495
-4.79633 21.356 1.411
-4.90407 21.3077 1.4122
-5.124 21.3526 1.41861
-31.4793 36.1718 2.29467
-5.40003 17.2651 1.37207
-5.45073 17.1787 1.37262
-28.4294 31.6911 2.16013
-33.1234 33.6542 2.30933
-5.33378 14.987 1.34522
-5.00818 14.6901 1.33373
-36.8946 21.0437 2.31945
-51.8697 25.1384 2.79457
-39.894 -14.0851 2.58832
-39.7741 -14.2588 2.5877
-41.4382 -22.4143 2.77409
-35.086 -25.6879 2.64723
-35.2427 -33.6338 2.83306
-35.9047 -34.5124 2.87241
-35.1903 -35.6632 2.88144
-34.6745 -36.0745 2.87799
7.01846 -14.573 1.21731
7.13423 -14.5432 1.21325
7.20653 -14.5581 1.21245
7.2237 -14.6301 1.21398
7.38204 -14.5535 1.20864
7.40178 -14.5776 1.20883
7.44657 -14.6201 1.20919
10.1039 15.6554 0.862103
-37.4351 24.2888 1.95188
-37.7596 22.1761 1.95236
-26.7646 -17.5715 1.91456
67.4313 -23.2697 2.10539
67.632 -23.1873 2.10906
66.1003 -20.1896 2.01298
69.9226 -20.602 2.12175
90.7663 -15.9362 2.62434
90.7992 -15.7136 2.62281
90.8303 -15.49 2.62028
90.8642 -15.2675 2.61875
90.8932 -15.0437 2.61621
90.9122 -14.9336 2.61546
90.9442 -14.71 2.61392
90.9662 -14.4859 2.61137
91.0279 -14.2688 2.61092
89.9218 9.21577 2.06492
44.282 15.6804 1.01934
50.0198 -18.3666 1.40269
54.6229 -18.8779 1.50914
66.337 -19.7603 1.77925
78.8887 -21.1399 2.08193
80.5657 -21.4268 2.12408
83.1141 -21.6721 2.18605
98.0864 -18.789 2.49375
90.7085 -14.0358 2.26386
88.2906 12.2095 1.49773
39.1032 16.8423 0.739567
-51.2981 -18.1664 1.62458
79.7787 -20.9714 1.62786
92.6608 -22.8781 1.85267
94.0853 -23.0744 1.87686
96.7851 -16.6487 1.84999
91.6905 -14.041 1.74113
95.2513 -14.4928 1.80384
24.091 16.2814 0.515448
24.4503 18.5014 0.522252
10.0847 15.6782 0.52591
76.7913 -20.7046 1.27317
37.8518 16.7841 0.43438
36.0194 20.5996 0.410152
10.1542 15.6444 0.391232
10.1182 15.5893 0.391575
6.74177 19.802 0.374585
-34.58 24.6517 0.402905
68.2077 -16.9311 0.792653
84.2323 -21.3645 0.896267
93.9956 -23.2253 0.95279
95.3633 -23.3997 0.959757
91.4461 -19.6549 0.913378
91.5096 -19.5532 0.912741
89.8935 -15.8886 0.877851
89.9114 -15.6652 0.876299
89.9552 -15.4473 0.874818
89.989 -15.2278 0.873313
90.0159 -15.0059 0.870783
90.0645 -14.7892 0.869317
90.0815 -14.5668 0.86777
90.1221 -14.4618 0.867082
90.1272 -14.2368 0.865502
92.9193 8.4204 0.374294
92.4329 8.818 0.371873
90.3314 8.7714 0.372532
87.0659 9.29691 0.369679
74.3697 10.0445 0.367282
24.494 18.861 0.295766
17.1052 15.5878 0.314459
10.0827 15.6917 0.300806
-31.8565 37.0043 0.0262644
-29.9072 32.8292 0.0641778
-32.7836 30.7502 0.0731823
76.9022 -20.6744 0.579083
80.6198 -21.2872 0.582126
68.9841 -16.5217 0.553747
91.4248 -19.6141 0.569054
91.4374 -19.3795 0.567416
98.3973 -18.6709 0.561261
89.8978 -15.7439 0.543828
89.7643 -15.5996 0.542641
89.7535 -15.3707 0.541013
89.7616 -15.1458 0.539438
89.7943 -14.9272 0.537938
89.8519 -14.713 0.536501
89.9143 -14.5001 0.535079
89.9699 -14.2857 0.533638
90.0492 -14.1888 0.533056
90.4139 -14.0351 0.532436
93.7128 1.89153 -0.0406775
59.1166 5.04405 0.163156
59.1179 5.10607 0.162721
59.1204 5.22811 0.161863
59.0968 5.34754 0.160991
59.1114 5.47193 0.160133
37.9574 16.8216 0.167243
37.864 16.8357 0.167026
35.4676 16.8179 0.177107
35.4868 16.9511 0.175192
35.4995 17.0756 0.173331
35.5133 17.203 0.17145
34.155 25.9026 0.0573863
10.1274 15.6424 0.178207
6.68837 19.825 0.102348
-33.9113 23.0381 -0.247885
77.2424 -21.0478 0.201138
68.7155 -16.798 0.234345
68.8895 -16.6902 0.232806
83.4502 -21.4619 0.163942
85.9359 -21.9647 0.151644
87.1011 -22.1223 0.145235
91.3437 -19.4227 0.10559
91.8074 -19.3104 0.101387
98.3276 -18.7348 0.0576101
90.0237 -15.8369 0.095632
90.5166 -15.8333 0.0922326
89.6055 -14.9513 0.0928565
90.2081 -14.0593 0.0843329
100.406 2.54052 -0.577765
94.9276 3.39239 -0.514728
54.7805 13.823 -0.114253
49.8808 15.8293 -0.0856217
35.4485 16.7179 0.0407844
35.4803 16.8644 0.0377921
35.4909 16.987 0.0359411
35.5133 17.1239 0.0330037
24.5814 18.354 0.0624461
17.1117 15.553 0.110707
10.1285 15.6215 0.0603528
6.72455 19.8601 -0.0498573
6.69366 19.7696 -0.0482587
1.41851 23.2872 -0.163763
1.39778 23.1622 -0.161907
-57.0694 -15.2462 -0.651394
-51.8157 -14.8302 -0.573651
60.8084 -19.5473 0.0216796
80.4343 -21.2227 -0.205585
68.7997 -16.7116 -0.0771653
84.2886 -21.1341 -0.251314
85.9448 -19.4375 -0.276174
84.8837 -16.5334 -0.272996
88.6741 -16.5917 -0.319772
91.6015 -16.9441 -0.354569
90.1551 -15.118 -0.344281
92.2115 -15.0912 -0.369859
92.2635 -14.8676 -0.371369
99.7682 -11.1727 -0.48289
87.1562 -3.40779 -0.828664
95.2123 1.34465 -1.01994
93.6711 3.02771 -1.00277
87.2922 7.46316 -0.916138
43.4664 7.13607 -0.0654784
43.4616 7.21343 -0.0670301
59.7181 14.3821 -0.467932
59.3496 14.3818 -0.461399
47.6582 12.8259 -0.227274
44.1388 16.9882 -0.24309
35.509 16.0687 -0.100565
35.4778 16.7192 -0.115192
35.4947 16.8475 -0.118075
35.5363 16.9514 -0.121754
35.549 17.0759 -0.124616
35.5629 17.2033 -0.127497
24.097 15.985 -0.00246857
10.0963 15.6333 -0.0747748
1.42529 23.2764 -0.376683
-30.0058 32.4858 -1.11056
-34.6185 31.5107 -1.18154
70.6221 -18.7848 -0.463243
70.7413 -18.652 -0.465028
70.942 -18.4585 -0.469138
71.0721 -18.3283 -0.47089
71.1945 -18.1936 -0.473684
71.4545 -18.1075 -0.477962
68.5826 -16.9247 -0.424947
68.8805 -16.8596 -0.431028
69.5034 -16.9902 -0.442316
71.2244 -15.7487 -0.474884
71.4808 -15.3939 -0.48006
81.5384 -15.1341 -0.671121
83.9836 -14.1689 -0.720821
84.1322 -13.9937 -0.723868
83.7914 -12.7856 -0.720818
83.8538 -12.5927 -0.722099
84.3513 -12.4842 -0.732232
84.911 -12.4873 -0.7435
85.0424 -9.71636 -0.755869
76.7858 -1.99937 -0.918769
76.6245 -1.90658 -0.915628
48.9273 6.40006 -0.307359
48.9253 6.4933 -0.308019
50.0053 14.8325 -0.469446
50.0076 14.9506 -0.471275
44.1126 17.0176 -0.392334
42.8251 16.1085 -0.345559
24.084 16.0562 -0.0899893
22.3925 20.293 -0.226012
1.35605 23.2129 -0.533328
-28.238 30.1102 -1.32957
-33.0471 28.8892 -1.42007
60.4148 -19.0592 -0.502275
60.4882 -18.942 -0.504009
60.5704 -18.8282 -0.504706
60.7249 -18.7484 -0.508073
60.7348 -18.6017 -0.508095
60.8815 -18.5174 -0.510502
60.9539 -18.4743 -0.512715
61.6844 -17.8866 -0.52693
65.3772 -16.646 -0.607988
65.5899 -16.5653 -0.613287
63.8438 -15.3968 -0.570742
64.014 -15.3048 -0.574175
64.2137 -15.2224 -0.578502
64.2808 -14.9416 -0.579397
64.2012 -14.7631 -0.577757
64.708 -14.8564 -0.589455
64.719 -14.7068 -0.589496
90.0316 -15.7843 -1.19476
74.253 -11.8104 -0.818812
76.2528 -10.5249 -0.869336
76.8197 -10.4483 -0.884157
77.1448 -10.3245 -0.891617
76.8907 -10.1887 -0.885897
77.3309 -10.0842 -0.897075
77.4816 -9.92704 -0.900992
77.4407 -9.73757 -0.90038
77.3103 -9.53428 -0.897978
75.1425 -8.22 -0.848997
75.0782 -8.03729 -0.848367
69.0305 -2.77108 -1.00818
69.0117 -2.61884 -1.00828
68.9997 -2.5421 -1.00883
69.0088 -2.39137 -1.00989
68.9889 -2.23909 -1.00999
68.999 -2.08841 -1.01103
68.9881 -1.93662 -1.01212
69.0632 -1.78844 -1.01507
69.0773 -1.63698 -1.01612
69.0733 -1.56166 -1.01665
69.0094 -1.40901 -1.01581
68.9405 -1.25609 -1.01398
68.9218 -0.577132 -1.01879
69.9321 0.185657 -1.05488
70.1017 0.341767 -1.06077
70.5 0.579698 -1.07494
71.87 1.64358 -1.1257
72.0543 1.81191 -1.13266
72.3209 1.98382 -1.14253
72.5665 2.15687 -1.15144
72.6827 2.32586 -1.15648
72.8873 2.49911 -1.16444
73.6136 3.11895 -1.19189
74.1381 3.65652 -1.21302
74.113 3.8231 -1.21422
58.4813 10.4451 -0.822755
58.3702 10.5411 -0.821574
47.7888 13.6837 -0.578164
24.1018 16.0125 -0.187661
22.318 19.9837 -0.336929
6.68997 19.8178 -0.493614
1.43679 23.2564 -0.714536
57.4779 -14.0127 -0.651589
57.7027 -13.9657 -0.657635
57.8049 -13.8721 -0.660166
66.2276 -12.0549 -0.902285
66.3186 -11.9266 -0.905074
66.5529 -11.834 -0.912429
66.5767 -11.6881 -0.912428
66.5275 -11.5232 -0.911653
66.4999 -11.3645 -0.909807
66.7818 -11.2815 -0.919034
64.7793 -10.5809 -0.858515
66.2559 -10.6293 -0.9023
66.4271 -10.5183 -0.907865
66.4608 -10.3749 -0.908833
66.3302 -10.1967 -0.905256
67.285 -9.72128 -0.934395
67.9445 -9.31912 -0.954393
68.0796 -9.19119 -0.958124
68.6038 -8.82683 -0.975027
68.614 -8.67416 -0.975091
68.2492 -8.38013 -0.964627
68.172 -8.21375 -0.962898
67.7037 -7.83303 -0.949177
68.1188 -7.74822 -0.962248
67.9044 -7.56343 -0.955823
67.5817 -7.3628 -0.946647
67.1972 -7.22995 -0.935072
67.0491 -7.05974 -0.93046
69.2319 -6.37705 -0.999502
69.251 -6.22486 -1.00055
69.3348 -6.08115 -1.00346
69.3112 -5.92465 -1.00259
69.3344 -5.77269 -1.00463
69.2818 -5.61363 -1.00282
69.2122 -5.52877 -1.00151
69.1935 -5.37354 -1.00163
69.1748 -5.21832 -1.00174
69.174 -5.06505 -1.00183
69.1473 -4.9094 -1.00196
69.1933 -4.76066 -1.00395
69.3031 -4.61835 -1.00781
69.351 -4.54582 -1.00926
69.3642 -4.39331 -1.01032
69.3255 -4.23702 -1.01047
69.3297 -4.08402 -1.01054
69.1284 -3.91596 -1.00499
69.1315 -3.76391 -1.00605
69.1356 -3.61292 -1.00711
69.1547 -3.53783 -1.00762
69.1329 -3.38444 -1.00773
69.0991 -3.23041 -1.00786
69.0872 -3.07755 -1.00795
69.0824 -2.92508 -1.00903
62.5739 0.210161 -1.1014
62.7003 0.343554 -1.10718
62.8045 0.476135 -1.11199
62.9449 0.610769 -1.11876
63.0618 0.679585 -1.12309
63.9061 1.57743 -1.16235
64.0751 1.72155 -1.17015
64.2229 1.86379 -1.17697
64.391 2.00997 -1.18379
64.5309 2.15464 -1.19063
64.6569 2.29907 -1.19649
66.8971 4.6138 -1.30396
42.6508 8.01215 -0.472702
51.9504 13.0498 -0.901417
48.1448 13.8734 -0.793055
50.0229 -14.224 -0.653569
61.6171 -7.47838 -1.03641
58.2004 -2.16955 -1.14518
58.1797 -2.05127 -1.14504
58.19 -1.93465 -1.14585
58.1663 -1.81621 -1.14572
58.1495 -1.69914 -1.14556
58.1037 -1.63859 -1.14405
58.0859 -1.52147 -1.1439
58.0612 -1.40297 -1.14276
58.0224 -1.28571 -1.14164
57.9937 -1.168 -1.14151
57.9699 -1.05156 -1.14136
57.9601 -0.934865 -1.14119
57.9512 -0.876307 -1.14162
57.9455 -0.759834 -1.14245
57.9366 -0.644192 -1.14227
57.9069 -0.527426 -1.14213
57.9041 -0.411114 -1.14296
57.9083 -0.295176 -1.14377
57.8935 -0.179213 -1.14361
57.8736 -0.121058 -1.14304
57.8427 -0.00523738 -1.1429
57.7858 0.109991 -1.14078
57.7589 0.225598 -1.14063
57.717 0.341009 -1.1405
57.6751 0.455428 -1.13936
57.6302 0.570008 -1.13822
27.5424 9.63443 -0.137322
29.7008 15.7416 -0.460646
30.7876 17.8536 -0.579159
30.7112 17.8497 -0.578229
30.6571 17.8857 -0.578551
28.016 16.5378 -0.4674
27.9802 16.5988 -0.469876
17.1003 15.5301 -0.386159
-41.3026 -6.54926 -2.36373
55.5206 -10.165 -1.03221
55.5768 -7.69436 -1.02556
57.3135 -7.4124 -1.09834
57.452 -7.20154 -1.10365
57.4117 -7.0752 -1.1026
57.3108 -6.99664 -1.09728
58.6152 -4.87576 -1.15458
58.6475 -4.75932 -1.15536
58.6469 -4.63912 -1.1562
58.6444 -4.51881 -1.15606
58.6279 -4.39675 -1.15594
58.5679 -4.15117 -1.15374
58.5356 -3.96917 -1.15307
58.5191 -3.8481 -1.15194
58.4766 -3.72564 -1.15086
58.428 -3.30542 -1.14989
58.4892 -3.19155 -1.15361
58.5503 -3.07768 -1.15634
58.5387 -2.95788 -1.1562
58.5191 -2.83766 -1.15607
58.4676 -2.71571 -1.15399
54.3223 -2.03197 -1.17008
54.246 -1.92271 -1.16695
54.1747 -1.81471 -1.1638
54.1793 -1.70981 -1.16453
54.1599 -1.60462 -1.1643
54.1875 -1.50096 -1.16599
54.1671 -1.39571 -1.16576
54.1408 -1.34322 -1.16417
54.1144 -1.23765 -1.16394
54.069 -1.13206 -1.16275
54.0456 -1.02764 -1.16151
54.0261 -0.92345 -1.16127
53.9957 -0.818666 -1.16105
53.9572 -0.714446 -1.15983
53.9147 -0.610006 -1.15762
53.8855 -0.558359 -1.15702
53.862 -0.454949 -1.15678
53.8565 -0.351504 -1.15652
53.838 -0.248361 -1.15627
53.8455 -0.144627 -1.15799
53.8351 -0.0409137 -1.15774
53.8266 0.0616867 -1.15847
53.8354 0.114288 -1.15883
53.8068 0.216968 -1.15859
53.8103 0.319925 -1.15931
53.7567 0.421951 -1.1581
53.7402 0.524987 -1.15785
53.7016 0.627209 -1.15662
53.653 0.72797 -1.15539
53.6287 0.779349 -1.15478
53.59 0.880573 -1.15354
53.5815 0.983174 -1.15428
53.4997 1.08172 -1.15108
53.459 1.18305 -1.14984
53.4484 1.28476 -1.15057
53.6857 1.45121 -1.16345
53.8098 1.56168 -1.17107
53.9158 1.67113 -1.1767
54.0008 1.7807 -1.18237
54.0526 1.88806 -1.18606
54.1247 1.99833 -1.19075
54.1695 2.10607 -1.19345
27.8333 16.3958 -0.561633
13.3943 20.4006 -0.807216
13.1755 15.2237 -0.535987
42.2768 -16.4314 -0.748848
42.3438 -16.3769 -0.750147
42.4118 -16.3225 -0.751444
42.476 -16.2658 -0.752762
42.5056 -16.2354 -0.752939
42.5853 -16.1886 -0.755168
49.2161 -9.83448 -0.941549
54.9118 -4.97196 -1.1916
54.6392 -4.82607 -1.17898
54.7524 -4.73303 -1.18449
54.6725 -4.61556 -1.18042
54.6206 -4.5006 -1.1783
54.6163 -4.39321 -1.17806
54.6589 -4.29035 -1.17973
54.6847 -4.23966 -1.18105
54.6943 -4.13403 -1.18179
54.6612 -4.02309 -1.18061
54.6311 -3.91231 -1.17943
54.586 -3.80072 -1.17727
54.5538 -3.69083 -1.17609
54.5307 -3.58142 -1.17489
54.5204 -3.47371 -1.17466
54.4405 -3.41332 -1.17119
54.4163 -3.30486 -1.16999
54.405 -3.1981 -1.16975
54.3548 -3.08824 -1.16759
54.3056 -2.97843 -1.16543
54.2963 -2.87177 -1.16519
54.3418 -2.77008 -1.16785
54.4034 -2.72233 -1.17111
54.447 -2.61953 -1.17378
54.4617 -2.51417 -1.1745
54.4623 -2.40905 -1.17524
54.429 -2.30111 -1.17405
54.4117 -2.19402 -1.17382
54.3954 -2.08799 -1.17359
53.9369 6.42899 -1.45623
50.2006 12.1507 -1.39531
26.3263 8.39241 -0.179111
24.1285 15.9552 -0.593233
15.8615 16.55 -0.66593
-24.5629 -1.78282 -2.16806
-24.6417 -1.92784 -2.17214
48.9642 3.73133 -1.29152
49.0164 3.82864 -1.29614
49.0401 3.87743 -1.29846
49.0722 3.97183 -1.30208
49.066 4.06228 -1.30273
49.4336 7.68523 -1.3978
33.1726 14.7177 -0.835027
33.1127 14.7399 -0.834259
33.0474 14.7554 -0.832452
32.9478 14.7278 -0.827383
25.7494 9.7334 -0.299301
24.0649 16.019 -0.684767
-17.7294 14.5987 -2.26388
-23.5168 9.86188 -2.49584
-23.48 9.70772 -2.49071
-23.4334 9.55004 -2.48454
-23.3609 9.38899 -2.47631
-23.3053 9.23082 -2.47012
-20.4822 3.55836 -2.19954
-20.4862 3.42739 -2.19862
-20.5131 3.29864 -2.19875
-20.4972 3.16661 -2.1958
-20.4488 3.09695 -2.19224
-20.4668 2.96773 -2.19135
-20.4608 2.83623 -2.18942
-20.4289 2.70335 -2.18644
-20.4259 2.57301 -2.18452
-20.4209 2.44157 -2.18259
39.6201 -14.6585 -0.879725
39.6595 -14.5955 -0.880119
39.836 -14.4969 -0.885591
39.9882 -14.424 -0.890912
40.0578 -14.1533 -0.885732
39.9738 -14.0005 -0.877915
44.4502 -10.4349 -1.02937
45.7652 0.922835 -1.23478
45.7533 1.00058 -1.23535
45.7465 1.07906 -1.23491
45.5761 1.73015 -1.23171
45.5361 1.80541 -1.2303
45.5151 1.88065 -1.22985
45.4799 1.9166 -1.22715
46.737 6.55088 -1.39923
44.9984 11.6861 -1.45065
44.983 11.773 -1.45328
44.9784 11.8173 -1.4546
33.2418 14.696 -0.971789
33.168 14.7019 -0.968925
33.1289 14.702 -0.966975
33.1999 14.8864 -0.981185
27.312 15.5546 -0.826371
33.2615 -16.4785 -0.817969
44.3584 -7.33033 -1.15138
33.4101 14.7123 -1.07569
33.347 14.7317 -1.07391
33.2679 14.7319 -1.07101
33.1984 14.7427 -1.06818
33.1343 14.7612 -1.06639
33.0523 14.7075 -1.05911
24.0704 16.0404 -0.884915
24.0286 16.1017 -0.888401
12.9623 15.3433 -0.962112
6.6612 19.8471 -1.52788
-14.4015 9.68167 -2.36999
-13.5136 7.47377 -2.24929
43.1329 7.93223 -1.47755
42.0191 10.3212 -1.49081
33.625 14.6637 -1.21108
33.5449 14.6641 -1.20719
33.4808 14.6835 -1.2054
33.4103 14.6943 -1.20257
33.3659 14.6887 -1.20059
33.2944 14.6986 -1.19675
33.2441 14.7333 -1.19706
12.8697 15.5356 -1.09559
30.5679 -15.6716 -0.884081
30.5982 -15.6672 -0.885074
30.6598 -15.6565 -0.887071
41.4068 -1.15524 -1.27767
41.4273 -1.09126 -1.28009
41.4397 -1.02684 -1.28153
41.4362 -0.962556 -1.28099
41.4236 -0.897786 -1.28046
41.4161 -0.833284 -1.27993
41.4115 -0.768949 -1.28039
41.3902 -0.735751 -1.27865
41.3697 -0.671545 -1.27713
41.3651 -0.607203 -1.27659
41.3495 -0.543271 -1.27606
33.6818 14.6359 -1.32482
33.6007 14.6372 -1.32093
33.5334 14.6519 -1.31812
33.465 14.6656 -1.3153
33.3957 14.6793 -1.31249
33.3208 14.6844 -1.30962
33.2796 14.6816 -1.30665
33.2048 14.6866 -1.30278
33.1352 14.6974 -1.29994
-4.14572 13.3728 -2.13298
-4.21721 13.3095 -2.13563
-4.26538 13.233 -2.13515
-4.295 13.1475 -2.13358
-4.2597 13.0775 -2.12704
-4.28543 12.9898 -2.12546
-4.35692 12.9265 -2.1281
-4.40897 12.8522 -2.12864
-4.46491 12.7801 -2.12921
29.0455 -15.0402 -0.881467
29.2431 -14.9596 -0.883783
33.587 14.6021 -1.4337
33.5491 14.6052 -1.43177
33.4754 14.6132 -1.42792
33.406 14.6249 -1.42509
33.3258 14.6242 -1.42019
33.2606 14.6418 -1.41739
33.1933 14.6554 -1.41558
38.8833 0.510103 -1.29662
38.8683 0.565993 -1.29603
38.8603 0.621501 -1.29643
38.8734 0.678875 -1.29782
38.8638 0.706431 -1.29703
38.8619 0.763608 -1.29843
38.8408 0.818828 -1.29685
38.8508 0.875363 -1.29823
38.8559 0.932166 -1.29963
38.8298 0.986655 -1.29804
38.8359 1.0444 -1.29944
38.8132 1.07066 -1.29766
38.7992 1.1255 -1.29706
38.7891 1.18112 -1.29647
38.7882 1.23825 -1.29787
38.7912 1.29517 -1.29827
38.7842 1.35062 -1.29867
38.7691 1.40551 -1.29807
33.6078 14.6122 -1.55975
33.5352 14.6221 -1.55591
33.4679 14.6367 -1.5531
33.4193 14.6263 -1.54909
33.3466 14.6343 -1.54524
33.2835 14.6537 -1.54345
33.2087 14.6587 -1.53958
33.1466 14.6781 -1.5368
33.0782 14.6908 -1.53398
-2.68251 10.3827 -2.20104
32.9501 14.1494 -1.59632
32.904 14.1849 -1.59663
32.8799 14.2023 -1.59678
32.8274 14.2321 -1.59606
32.7942 14.285 -1.59848
16.2537 17.3367 -1.584
36.2047 -6.60331 -1.20986
37.11 -3.25998 -1.22429
37.1702 7.66517 -1.59025
12.7651 16.3109 -1.7302
24.9024 18.0989 -1.8774
24.8478 18.1269 -1.87966
24.7919 18.1489 -1.88089
24.7647 18.1643 -1.88203
24.7075 18.1804 -1.88222
24.6516 18.2034 -1.88445
32.7323 11.4277 -1.65941
32.6857 11.4552 -1.65866
32.6687 11.4751 -1.65883
32.6232 11.5036 -1.65709
32.585 11.5387 -1.65738
32.5543 11.5824 -1.65873
32.4727 11.6479 -1.65829
32.3868 11.7086 -1.65683
32.3741 11.7333 -1.65802
31.501 12.353 -1.6495
31.4757 12.4044 -1.65289
31.4322 12.4328 -1.65215
31.3737 12.4429 -1.6483
27.402 8.22446 -0.914579
30.9976 11.8913 -1.64488
30.9795 11.9083 -1.64503
30.9701 11.9758 -1.65151
30.7014 11.4282 -1.678
30.679 11.4765 -1.68136
30.6405 11.4676 -1.67735
27.366 8.2025 -1.03847
27.3719 8.23719 -1.04371
27.3287 8.23553 -1.03975
26.9202 8.66204 -1.18028
32.5435 2.58578 -1.38931
32.5344 2.62231 -1.38957
32.5253 2.63982 -1.38971
32.5183 2.67625 -1.38998
32.5092 2.71279 -1.39024
32.4819 2.74532 -1.38751
32.4921 2.78581 -1.39078
32.4759 2.82073 -1.39005
23.2808 7.24245 -1.65191
23.2714 7.25495 -1.65501
23.2441 7.24943 -1.65101
25.431 -15.0208 -4.9113
25.4845 -15.0307 -4.92016
25.5406 -15.0508 -4.93195
-14.7523 11.194 -13.2224
-14.7873 11.0817 -13.2216
-14.7791 10.8876 -13.5573
-14.8142 10.7754 -13.5565
23.4566 0.0515104 -0.654962
19.8424 1.19835 -0.404632
19.8349 1.18974 -0.404581
21.3227 -1.82238 -0.276451
21.3075 -1.74925 -0.245985
21.3024 -1.71282 -0.231248
21.305 -1.70291 -0.227315
46.0324 5.31875 -10.7287
46.059 5.36628 -10.745
46.0341 5.44375 -10.7416
46.0427 5.52832 -10.7541
46.0645 5.61716 -10.7727
20.0675 0.917756 -0.281365
20.0608 0.924093 -0.285418
19.986 0.762107 -0.25037
20.1302 0.929353 -0.290367
20.1696 0.861395 -0.254837
20.1479 0.886492 -0.269042
21.257 -2.15766 -0.464176
21.2359 -1.98777 -0.390398
21.2343 -1.96056 -0.377592
20.0938 0.921132 -0.313356
19.9756 1.08704 -0.407678
20.0878 0.921446 -0.314366
20.0752 0.93008 -0.321443
20.0404 0.969836 -0.345768
20.0072 1.00451 -0.368055
19.9527 1.07024 -0.407589
19.9747 1.03215 -0.387292
19.964 1.0377 -0.392345
19.9796 1.01292 -0.37815
19.9745 1.01119 -0.379144
19.8066 1.21961 -0.50283
20.0498 0.811533 -0.283638
19.9714 0.842527 -0.318957
22.444 -9.5843 -3.9474
22.406 -9.16732 -3.75638
22.4318 -9.15165 -3.75146
22.3445 -1.41078 -0.46506
22.3564 -1.41345 -0.470026
19.9349 -4.0113 1.689e-39
