ply
format ascii 1.0
element vertex 450
property float x
property float y
property float z
end_header
156.478 -4.87895 3.23942
156.383 -3.96886 3.23376
157.605 -2.54881 3.26836
145.019 1.89422 2.88721
175.082 12.8916 3.81379
174.703 13.0436 3.8041
174.559 13.2618 3.80035
173.556 14.3851 3.77528
135.134 9.15176 2.64363
154.541 25.1662 3.33511
147.994 39.8175 3.40531
148.05 40.1803 3.41317
148.107 40.5461 3.42102
148.139 40.89 3.42805
103.775 14.3162 2.13321
106.225 52.7054 3.21138
103.491 46.4172 3.03177
103.318 46.4406 3.03217
103.148 46.4918 3.0344
100.351 14.6385 2.13479
98.7118 14.3202 2.12747
98.0145 14.4676 2.13377
96.6273 13.8151 2.1215
96.5487 13.9029 2.12426
94.335 13.6139 2.13251
90.557 26.7797 2.53443
77.8769 58.6578 3.55161
81.0681 46.8855 3.1939
80.9011 46.8039 3.19385
80.6431 47.3179 3.21083
80.5632 46.9574 3.20203
80.9717 45.0921 3.14693
91.021 10.7244 2.0942
90.756 10.5849 2.09376
90.4526 9.38119 2.06821
79.9102 16.2076 2.44297
79.646 14.348 2.40886
79.5352 13.5304 2.39463
79.3107 11.8673 2.36734
79.2159 11.8392 2.36878
77.8383 12.0389 2.40885
77.7357 12.0776 2.41295
78.2159 9.85993 2.35955
73.0807 10.1577 2.51243
65.3916 13.9039 2.8003
65.1084 14.0225 2.81051
64.8749 14.0281 2.81818
64.7316 13.9715 2.82192
64.0566 13.9603 2.84302
63.7537 12.9254 2.83855
63.7341 12.7857 2.83737
63.2665 11.7931 2.84017
60.8286 12.3651 2.92543
54.2957 15.5226 3.173
53.2623 15.6346 3.20851
57.1721 12.2632 3.04502
52.6598 14.2206 3.21401
51.5557 14.4112 3.25231
56.1826 11.9398 3.07476
45.896 16.7188 3.46286
44.2013 16.7087 3.51903
39.9034 16.5253 3.663
46.1799 13.4049 3.425
40.0293 15.2796 3.64938
40.0629 15.0517 3.64652
28.4267 18.1795 4.06866
40.4295 13.3187 3.62182
40.2369 13.1842 3.62713
39.0452 13.2114 3.66858
38.8498 13.0713 3.67493
38.2309 13.0856 3.69572
39.2031 12.6247 3.65929
36.6108 13.3487 3.75419
29.0394 15.8333 4.03255
28.7958 15.6736 4.04015
29.0854 15.3269 4.02816
27.8154 13.5524 4.06363
26.8264 13.6208 4.09824
27.214 13.2533 4.08307
19.2048 -7.27116 4.3757
20.016 -8.39705 4.35136
19.817 -8.64271 4.3603
19.9063 -9.13593 4.35971
28.7518 -10.097 4.03922
28.2381 -10.3257 4.06002
48.6022 -11.8008 3.31956
48.4925 -11.9641 3.32477
46.2223 -12.8435 3.4154
53.0484 -12.4744 3.16179
53.2651 -12.5998 3.15482
33.9255 -17.6577 3.90966
47.3661 -16.902 3.41099
46.848 -17.5643 3.43715
41.2876 -18.8646 3.65399
40.8095 -19.7889 3.68146
53.4756 -18.7961 3.21183
53.8344 -18.9374 3.20052
44.0171 -21.6829 3.58906
55.3148 -19.8211 3.15885
40.9886 -24.3105 3.73347
42.6455 -25.2826 3.68875
46.6898 -24.273 3.53106
53.705 -22.6502 3.25807
68.0877 -20.0892 2.71175
72.0407 -20.3128 2.57903
75.869 -21.5689 2.4773
77.6918 -21.6828 2.42141
77.8175 -21.65 2.41685
78.4861 -22.6638 2.41934
81.7846 -21.7452 2.2964
81.864 -21.726 2.29305
82.4433 -30.4773 2.53883
82.4449 -30.6169 2.54358
82.4701 -32.3873 2.60112
82.7504 -32.4478 2.59761
76.1815 -42.5672 3.08039
82.1901 -33.6271 2.6487
76.652 -42.1931 3.05694
76.4362 -42.9896 3.08891
76.5515 -43.0462 3.08787
165.472 -33.2664 3.81043
165.23 -31.6462 3.77637
165.356 -31.4548 3.77695
175.273 12.1792 3.31107
175.166 12.4093 3.30914
174.173 13.2919 3.28835
174.93 13.7753 3.30744
172.734 14.7862 3.25857
167.146 21.0284 3.15854
170.4 25.0375 3.25395
170.066 25.0177 3.24607
143.833 23.183 2.68518
149.789 34.9165 2.9305
147.932 39.4792 2.95833
148.104 40.1065 2.9704
148.165 40.4766 2.97621
103.546 46.356 2.67793
103.375 46.4063 2.67917
103.205 46.4675 2.68035
90.1498 23.338 2.23234
34.8036 -20.4302 3.49706
30.4851 -21.4286 3.63752
40.6925 -24.9032 3.37258
141.409 -29.7041 2.76269
161.732 -22.2987 3.12715
161.662 -21.9728 3.12259
161.649 -21.7629 3.11949
161.656 -21.5569 3.11735
161.676 -21.3547 3.11619
161.702 -21.1534 3.11402
161.772 -20.9602 3.11376
161.794 -20.7584 3.1126
161.842 -20.6641 3.11294
175.231 11.5902 2.93539
174.944 11.7708 2.93027
174.186 12.078 2.91589
172.472 14.1312 2.88591
171.975 16.1509 2.87945
163.089 21.9005 2.73704
168.152 25.6729 2.84228
149.903 34.9401 2.61502
149.636 34.9926 2.61154
147.908 39.3777 2.63094
148.167 40.4007 2.64561
148.207 40.7516 2.64958
103.517 46.408 2.41773
103.344 46.4414 2.41807
103.261 46.4874 2.41907
80.7602 48.2843 2.57322
156.922 -31.5717 2.84302
166.687 -32.663 3.03648
161.815 -21.2326 2.81411
161.837 -21.0297 2.81194
161.905 -20.6303 2.80956
161.922 -20.4267 2.80841
174.135 14.7275 2.31665
170.483 24.9576 2.27712
148.084 40.1114 2.11242
148.142 40.4778 2.11525
108.116 28.4837 1.82217
107.984 28.4598 1.8217
103.248 43.351 1.96713
44.7416 -18.1384 2.50661
126.104 -24.181 1.94687
126.173 -24.1625 1.94756
172.584 -33.7199 2.56741
168.172 -23.0717 2.4159
168.227 -22.6261 2.41231
174.411 14.7115 1.91289
173.119 15.3433 1.90236
154.207 21.4 1.77454
120.645 13.2219 1.59623
104.545 46.0666 1.70847
128.957 -27.8976 1.84044
125.982 -24.3082 1.78493
125.996 -24.2023 1.78431
125.963 -23.9592 1.78109
175.09 12.7428 1.36752
174.499 14.0032 1.36146
174.566 14.1544 1.36144
174.581 14.4208 1.35995
174.612 14.6922 1.35838
174.647 14.966 1.35779
171.794 22.6068 1.3249
171.525 22.7638 1.32387
168.111 25.6807 1.31233
165.577 25.7498 1.3126
158.962 28.8941 1.30249
120.566 13.1448 1.37788
102.706 41.53 1.33864
99.334 30.629 1.37302
78.5792 67.4268 1.35983
78.3102 67.4746 1.36038
26.8841 16.3418 1.78325
125.913 -24.3827 1.56553
125.851 -24.2356 1.56492
164.835 -32.9343 1.61851
172.716 -34.0781 1.62494
161.26 -22.1255 1.5496
161.313 -21.9309 1.54839
161.312 -21.8269 1.54782
161.337 -21.6263 1.54666
161.366 -21.4264 1.54549
161.385 -21.2251 1.54434
161.463 -20.6241 1.54084
161.45 -20.5192 1.54031
132.93 5.45608 1.22432
149.298 35.1991 0.967409
149.133 35.197 0.967918
121.935 12.5115 1.22819
148.22 40.6973 0.935805
101.003 14.8985 1.2904
99.7565 30.1314 1.18844
99.3498 31.1478 1.18215
99.2178 30.8402 1.18522
99.1155 32.2187 1.17604
98.5662 16.4826 1.28715
92.4083 26.0547 1.23775
82.9888 48.811 1.10561
82.4457 48.6611 1.10806
82.5032 46.7476 1.12128
82.3369 46.6709 1.1222
82.1443 46.6798 1.12273
50.6168 -20.3238 1.59472
126.949 -24.2796 1.41184
161.37 -22.1235 1.24726
161.188 -21.8798 1.24648
161.167 -21.6709 1.24541
161.101 -21.5545 1.24498
161.095 -21.3487 1.24388
161.154 -21.155 1.24265
161.205 -20.7562 1.24033
161.251 -20.5608 1.23913
161.322 -20.3687 1.23787
161.571 -20.3119 1.23681
177.301 -8.18362 0.600471
158.388 27.3323 0.533689
154.416 29.0311 0.555449
149.654 34.873 0.540097
120.569 12.9909 1.0327
99.4209 31.0323 0.929556
99.3088 34.5498 0.882792
82.5214 46.8257 0.752792
82.4251 46.4989 0.756857
82.2745 46.3686 0.759019
125.967 -24.3731 1.21631
164.599 -32.4129 0.838377
166.895 -30.5936 0.808568
172.114 -30.0957 0.752114
161.364 -22.1765 0.839555
161.319 -21.9602 0.838514
161.873 -21.8673 0.83234
161.819 -20.9247 0.829382
161.507 -20.4558 0.830777
172.434 -7.57936 0.19487
158.733 1.94731 0.363489
142.699 6.19429 0.591819
153.337 26.2611 0.192741
150.035 28.0558 0.21696
145.136 30.3203 0.25445
149.71 34.8587 0.124999
82.9487 46.4799 0.403373
82.106 48.7993 0.35832
82.0232 48.404 0.365717
82.4833 46.1353 0.409649
148.489 -30.2893 0.665459
148.835 -30.2491 0.660196
148.886 -30.0846 0.659148
150.077 -29.9177 0.640648
135.275 -23.0535 0.876048
154.848 -25.5753 0.558668
154.86 -25.386 0.558606
161.544 -21.2317 0.438872
153.414 -16.4119 0.174231
153.3 -16.2212 0.175539
103.137 9.31245 0.954285
81.0277 58.0454 -0.298646
82.8162 47.8087 -0.0314512
80.2191 56.4859 -0.260737
82.5816 47.2742 -0.0188404
82.4247 47.1559 -0.0157243
81.9796 46.7186 -0.00600609
82.0375 46.2036 0.00761561
127.26 -24.5098 0.773144
127.442 -24.4909 0.769491
146.6 -22.2857 0.341693
149.645 -22.0936 0.270459
145.572 -15.5496 0.114212
145.573 -15.3982 0.114387
145.615 -15.2536 0.112476
145.702 -15.1891 0.109863
145.646 -15.0308 0.111172
145.724 -14.8893 0.108167
145.792 -14.7473 0.106192
145.875 -14.6056 0.10317
145.979 -14.4666 0.100104
146.017 -14.3196 0.0991884
146.026 -14.244 0.0987523
146.022 -14.093 0.0979444
146.07 -13.9463 0.0960029
146.138 -12.8188 0.0906742
146.26 -12.6764 0.0865327
146.329 -12.5306 0.0845327
146.399 -12.0052 0.0804693
146.429 -11.856 0.078568
146.316 -11.3957 0.0804103
146.195 -11.2395 0.0829252
146.61 -11.1827 0.0713644
150.168 16.6876 -0.338719
103.272 9.50794 0.850814
82.7261 47.6247 -0.327186
82.4623 46.8672 -0.305275
82.3121 46.7327 -0.302092
81.8624 46.3274 -0.291534
81.9204 45.5105 -0.266273
110.198 -21.9389 1.04068
133.133 -26.42 0.439784
136.861 -22.5663 0.356606
136.966 -22.4669 0.35475
137.765 -22.4005 0.332978
143.92 -19.0143 0.165011
145.484 -16.2178 0.118105
145.371 -16.1242 0.120938
145.366 -15.973 0.121132
145.465 -15.8365 0.118092
145.51 -15.6922 0.116175
154.561 15.2793 -0.79634
154.392 15.9403 -0.803417
152.685 17.8886 -0.785847
81.9842 48.3376 -0.705825
81.8017 47.9584 -0.693215
82.0212 46.5505 -0.641231
50.0935 13.5319 -0.218573
128.647 -21.9137 0.388851
134.069 -13.6524 -0.00737792
134.092 -13.5415 -0.00804862
134.14 -13.4332 -0.0097831
139.186 3.58265 -0.374418
138.542 3.80042 -0.352657
139.604 4.63962 -0.40942
146.631 11.286 -0.809724
146.512 11.5924 -0.81203
147.219 15.1502 -0.915483
82.3503 44.9221 -0.948388
82.1474 44.9808 -0.953095
133.188 -15.4432 0.0280043
133.252 -15.3421 0.025263
133.301 -15.2379 0.0235494
133.352 -15.133 0.0218256
133.377 -15.0244 0.0211598
133.413 -14.9173 0.0194716
133.437 -14.8076 0.0188023
133.497 -14.7615 0.0163709
133.544 -14.6561 0.0146559
124.382 7.55337 -0.0762981
112.553 8.92668 0.30695
34.0056 -14.5461 -1.18657
119.73 -22.4461 0.347655
128.446 -16.4697 0.0338917
124.089 6.51533 -0.205778
124.101 6.6337 -0.210459
124.161 6.78075 -0.217439
124.376 7.6511 -0.255814
27.2728 9.59354 -2.11336
129.908 4.33645 -0.640517
118.135 5.00875 -0.170627
51.1083 -7.35593 -1.33023
113.448 -20.7059 0.165158
122.659 -0.871702 -0.543357
107.393 -24.2816 0.206848
116.882 -16.5036 -0.0270294
111.902 7.09383 -0.473147
111.921 7.16696 -0.4796
111.56 7.0401 -0.449821
95.7912 14.2847 -0.669579
99.4313 9.17802 -0.311826
99.3382 9.0397 -0.297794
94.0997 13.2859 -0.731051
102.85 -23.4755 0.12918
105.504 -22.4587 0.108649
105.556 -22.4539 0.107465
105.644 -22.4158 0.105992
106.038 -22.3308 0.0933423
96.323 4.79954 0.0233363
102.264 11.1515 -0.801101
102.235 11.1687 -0.802108
99.6833 -20.9377 0.262958
83.7544 10.6502 -1.31753
105.424 -20.9568 -0.0402678
113.128 -8.42463 -0.316574
103.126 -20.0835 0.0199254
97.8668 -19.8879 -0.0792673
85.3036 -7.37383 -0.676319
85.29 -7.45575 -0.676833
85.2906 -7.58103 -0.674155
107.597 -12.9264 -0.314438
107.834 -6.69411 -0.382996
103.436 -16.2972 -0.237575
96.2006 -16.4407 -0.241961
102.959 -13.9033 -0.360137
93.4765 -4.62486 -0.575909
100.953 -8.80891 0.329265
97.4729 -7.41569 0.630209
97.4286 -7.41458 0.620336
97.4147 -7.39853 0.612291
97.1794 -10.2827 0.649663
97.6365 -7.71971 0.747368
97.7024 -7.73906 0.749274
97.5206 -7.47112 0.585365
97.6532 -7.70108 0.707216
97.6522 -7.708 0.709256
97.639 -7.69408 0.701221
97.6033 -7.6458 0.674066
97.5766 -7.61288 0.654967
97.5243 -7.53814 0.612718
97.546 -7.57842 0.633872
97.5409 -7.57872 0.632889
97.5515 -7.60436 0.645996
97.5454 -7.60453 0.644016
97.422 -7.4242 0.543407
97.5919 -7.79233 0.728897
97.5436 -7.79068 0.715033
97.1626 -10.2859 0.565729
97.2083 -10.3064 0.572703
99.7594 -10.181 0.538323
99.767 -10.2915 0.481899
99.6937 -10.2102 0.53268
99.6831 -10.1925 0.541616
99.5936 -10.0968 0.602367
-36.6005 2.19578e-39 0
