ply
format ascii 1.0
element vertex 722
property float x
property float y
property float z
end_header
157.046 -4.33159 4.29359
156.817 -2.73398 4.27797
148.478 19.7944 3.98408
99.5565 14.259 2.18244
94.906 13.7032 2.03697
94.8338 13.7419 2.03533
96.2909 34.2725 2.56145
83.5675 48.7625 2.77927
80.5947 20.5427 1.94752
80.4139 19.2976 1.91083
79.631 13.6578 1.74211
37.7529 17.0021 2.37873
25.7525 -11.1616 2.65571
28.0538 -20.1262 2.69392
28.2737 -20.1502 2.68839
130.343 -58.1251 4.23003
130.808 -58.2614 4.24757
130.416 -57.5486 4.2155
130.589 -57.3969 4.21677
130.66 -57.1455 4.21091
130.497 -56.6691 4.19246
130.648 -56.4981 4.1925
130.879 -56.562 4.20124
131.134 -56.49 4.20742
131.25 -56.2835 4.20506
131.954 -56.6324 4.23615
132.065 -56.4202 4.23374
132.165 -56.1984 4.23021
132.277 -55.9872 4.2278
137.888 -46.8915 4.17213
138.573 -30.3541 3.84609
147.928 -30.1191 4.19589
150.305 -30.807 4.29792
150.224 20.7159 3.56995
104.59 18.642 2.18653
90.4519 62.5562 2.80116
79.9477 15.5951 1.66106
132.303 -46.2443 3.54174
132.158 -46.0048 3.53262
132.392 -45.9166 3.53759
132.759 -45.4021 3.53717
137.083 -47.5473 3.70558
141.527 -38.0878 3.65493
142.497 -38.3248 3.68806
139.17 -30.2384 3.45211
145.599 -30.3676 3.65896
147.107 -30.1806 3.70419
139.2 -21.487 3.33421
139.215 -21.288 3.33227
139.242 -21.0919 3.33143
139.259 -20.8943 3.32951
139.291 -20.6999 3.32771
139.281 -20.4954 3.32559
139.287 -20.2952 3.3236
139.274 -20.1912 3.32198
139.271 -19.9897 3.31893
140.18 -19.5842 3.34437
150.16 -2.50961 3.21721
150.197 21.0305 3.20916
94.7226 50.2802 2.31041
80.6695 20.7438 1.65393
12.0996 -41.0909 2.64372
11.8825 -41.4716 2.65336
133.179 -38.8683 3.11706
133.456 -38.4498 3.1166
125.79 -27.2852 2.74035
130.185 -27.9797 2.86871
156.596 -5.29598 2.82277
154.873 -4.47557 2.78205
156.922 -4.1814 2.82502
150.833 -3.31522 2.69145
150.882 -3.08483 2.69056
150.856 -2.85764 2.68923
150.852 -2.62981 2.68804
149.666 20.2664 2.61584
106.265 19.5829 1.77688
96.6316 14.1727 1.58405
89.8469 12.0489 1.46564
99.9375 38.5691 1.81851
83.5509 48.0369 1.74288
82.4105 37.5179 1.62912
17.6239 -11.1054 1.74387
118.564 -26.324 2.19335
139.983 -29.4314 2.65789
141.937 -29.7136 2.70025
150.019 -31.0514 2.87939
153.797 -32.096 2.9668
151.788 -31.149 2.91668
138.555 -20.4103 2.54171
138.577 -20.2163 2.53984
138.618 -19.8272 2.53808
142.625 18.4735 2.12116
106.684 10.695 1.57922
100.567 14.6012 1.49682
98.6417 13.334 1.46861
95.2133 39.716 1.5218
82.4011 36.5745 1.39991
126.682 -27.4247 2.09748
128.97 -27.4867 2.13275
144.915 -21.8933 2.33809
145.076 -21.3792 2.33643
152.971 20.9065 1.72565
152.945 21.163 1.72417
151.917 21.4428 1.71347
106.51 20.3546 1.31738
106.567 20.5758 1.31659
106.601 20.778 1.31676
96.2802 13.131 1.25326
96.3194 13.2961 1.25265
96.1798 13.2669 1.25195
91.484 27.3324 1.18087
90.017 49.9988 1.12315
89.8851 62.2898 1.09702
88.6332 62.0404 1.08868
88.1625 63.368 1.08297
87.7271 66.0295 1.0756
96.3157 -19.7463 1.40987
115.232 -22.3554 1.59558
135.439 -28.8921 1.81839
142.158 -29.8401 1.88522
141.445 -21.9726 1.83134
144.889 -21.9481 1.8622
122.326 -14.7353 1.61355
154.334 -19.8267 1.93683
121.103 7.81051 1.27893
153.088 21.2598 1.35053
153.172 21.5579 1.34951
143.375 18.7268 1.3204
102.045 10.9984 1.17037
96.9514 13.3906 1.13101
95.1644 11.776 1.13144
92.2691 8.84435 1.1359
95.2137 39.8722 0.948982
92.6959 42.5212 0.917991
87.8588 63.8281 0.747737
82.3802 36.8725 0.895236
82.3166 36.9141 0.894634
80.0606 16.6814 1.01713
96.4722 -19.718 1.30567
115.087 -22.1582 1.40467
115.218 -22.0783 1.40406
140.756 -21.6706 1.52058
143.609 -20.969 1.53034
102.769 8.91263 1.00453
96.9154 12.3432 0.970182
98.2292 14.8854 0.94309
97.5416 38.9734 0.656788
90.7217 58.9131 0.376492
88.5666 61.387 0.334613
88.4052 61.7712 0.328651
88.2128 61.9488 0.325563
82.4326 37.2335 0.616686
80.6803 20.7094 0.822148
80.4866 19.3926 0.837753
34.7527 13.6872 0.413461
34.206 13.7698 0.404704
4.70492 20.7918 -0.0472478
115.198 -22.2199 1.15066
115.4 -22.1695 1.14963
141.919 -29.7803 1.13443
144.859 -30.1606 1.13131
151.475 -31.1273 1.1246
138.045 -21.4487 1.1169
137.934 -21.2213 1.11605
137.898 -20.7159 1.11423
137.912 -20.5219 1.11332
137.933 -20.3289 1.11345
137.985 -20.1445 1.11282
138.003 -19.9511 1.11193
138.105 -19.7768 1.11065
138.291 -19.622 1.10999
138.618 -19.5959 1.10985
154.471 -19.6379 1.08366
157.955 -5.1631 0.5233
157.514 -4.92095 0.52636
157.538 -4.79615 0.524865
157.179 -4.55592 0.526439
157.001 -4.31277 0.527102
99.467 14.0497 0.773932
94.9518 40.7514 0.319836
90.212 42.0957 0.285028
88.1743 61.3382 -0.0865388
88.0005 61.6434 -0.0931706
82.0486 32.5704 0.435365
81.9234 32.5432 0.434742
80.7421 21.3554 0.643191
80.0916 16.6029 0.730715
79.53 12.5448 0.806203
69.1385 14.2614 0.682036
88.0253 -21.9441 1.04166
115.227 -22.5618 0.903593
148.741 -30.7384 0.67092
149.852 -30.8738 0.662389
151.972 -31.0884 0.647414
152.605 -31.0422 0.643034
151.202 -28.4318 0.651031
153.942 -28.8771 0.631024
137.793 -20.8386 0.739211
137.86 -19.9672 0.73713
154.446 -19.5586 0.610084
157.388 -5.50228 -0.0194256
156.043 -5.27001 -0.000821641
155.641 -5.03263 0.00450555
153.323 -4.8327 0.0373544
135.347 -0.4972 0.27649
121.865 8.71655 0.382873
103.049 7.21513 0.650969
102.937 8.32778 0.635554
97.9839 13.9737 0.58428
100.46 66.243 -0.668969
87.5138 58.495 -0.489927
87.6635 60.3132 -0.536385
82.2078 32.7836 0.159228
82.0838 32.7854 0.158463
81.9746 32.9377 0.154013
79.7764 14.2786 0.630766
96.6376 -19.6015 0.865067
96.7104 -19.5666 0.865331
130.337 -27.0805 0.409926
130.56 -26.9796 0.406764
138.154 -22.6846 0.308907
138.304 -22.5245 0.306994
139.177 -22.5567 0.294482
140.931 -22.818 0.269515
141.049 -22.6392 0.268312
141.557 -22.5605 0.261
141.657 -22.3739 0.259647
142.183 -22.4021 0.252
142.874 -22.3622 0.242005
138.362 -20.6333 0.305609
138.273 -19.7199 0.307358
138.381 -19.5466 0.305124
146.645 -5.43751 -0.209229
145.502 -5.3459 -0.186665
121.845 8.57893 0.150456
121.869 8.73923 0.147772
94.6783 47.9959 -0.49818
91.9754 54.2343 -0.686797
88.9974 66.166 -1.05843
88.7694 66.1961 -1.05997
87.7624 60.6429 -0.890492
82.1433 32.8588 -0.0445585
82.0151 32.8107 -0.0430926
81.5482 28.933 0.0750445
80.723 21.0769 0.316499
79.5034 12.5527 0.576993
69.0057 14.4745 0.40112
96.8244 -19.5806 0.747094
121.414 -25.5452 0.291639
121.544 -25.4409 0.289896
116.361 -22.4297 0.397802
125.494 -24.2515 0.223834
120.489 -22.1152 0.324338
123.207 -21.7852 0.275193
131.183 -21.6237 0.12596
128.937 -13.5895 -0.130127
128.978 -13.4338 -0.130681
129.511 -12.7737 -0.144837
129.455 -12.604 -0.144047
129.804 -11.7473 -0.154334
129.873 -11.5915 -0.155722
129.965 -11.4372 -0.158955
130.009 -11.2779 -0.160505
130.071 -11.1201 -0.161944
130.135 -10.9628 -0.164363
130.199 -10.8044 -0.165786
130.232 -10.7253 -0.166994
130.3 -10.5674 -0.169397
130.347 -10.4066 -0.170935
130.468 -10.2523 -0.174995
130.517 -10.0918 -0.17652
130.571 -9.93086 -0.178022
130.591 -9.76701 -0.178745
130.842 -9.04065 -0.187957
130.976 -8.88234 -0.191955
135.569 1.62006 -0.380083
135.047 2.54791 -0.376043
100.74 8.04107 0.372633
94.0377 41.6283 -0.605281
91.9784 54.0434 -1.04781
88.3523 59.2287 -1.23862
86.4343 62.5227 -1.36328
86.3041 63.3005 -1.39209
82.034 29.2888 -0.145836
81.938 29.4554 -0.152279
80.816 21.7629 0.128526
79.7381 14.1923 0.40597
75.1069 11.862 0.455759
61.5003 13.3846 0.124994
61.5074 13.3149 0.127396
2.1322 -11.6856 -1.72665
96.4919 -19.7117 0.616739
96.5856 -19.693 0.615213
112.126 -24.9024 0.226731
112.347 -24.8862 0.221998
112.394 -24.704 0.223344
112.967 -24.5965 0.211284
113.798 -24.2606 0.196611
113.938 -24.1921 0.194114
114.051 -24.1086 0.192373
114.141 -24.0135 0.190429
114.258 -24.0022 0.188083
114.658 -23.918 0.180089
117.666 -22.9998 0.118685
115.866 -20.9934 0.174379
116.395 -20.927 0.162261
116.52 -20.8381 0.159565
121.708 -20.3768 0.0377996
123.303 -18.895 0.00487816
124.553 -17.3896 -0.0222565
124.58 -17.0125 -0.0220374
124.79 -16.7551 -0.0270823
125.141 -16.1422 -0.0341016
125.228 -16.0073 -0.0362709
125.264 -15.7084 -0.0365889
125.544 -15.6107 -0.0433859
125.609 -15.4696 -0.045717
126.558 -14.6386 -0.0692182
128.385 -14.8774 -0.115857
128.449 -14.7261 -0.117244
128.485 -14.5706 -0.117827
128.744 -14.4517 -0.124862
128.944 -14.3211 -0.129317
128.839 -13.9804 -0.126713
128.786 -13.8909 -0.125495
128.866 -13.741 -0.127777
121.782 -12.4469 -0.234612
121.809 -12.3114 -0.235147
121.844 -12.178 -0.236624
122.295 -11.608 -0.250814
122.296 -11.4687 -0.250525
122.306 -11.3297 -0.25118
122.263 -11.1851 -0.250185
122.231 -11.043 -0.249111
122.239 -10.9036 -0.249786
122.27 -10.7677 -0.250291
122.543 -10.1667 -0.260728
122.563 -10.0282 -0.261319
123.454 -7.33658 -0.298758
124.714 -5.91129 -0.346427
127.741 -2.7042 -0.465509
127.825 -2.54265 -0.469829
128.019 -2.37079 -0.477533
128.178 -2.20097 -0.484439
128.336 -2.03 -0.490355
128.618 -1.76789 -0.501989
128.855 -1.5871 -0.511479
129.019 -1.25126 -0.51921
128.828 -1.11031 -0.514098
110.915 2.94533 0.00687533
97.5212 12.7032 0.138992
94.036 41.7534 -0.939947
86.6519 62.2406 -1.80452
86.5269 63.0398 -1.8394
86.6664 66.2082 -1.97688
86.4398 66.2411 -1.97843
83.088 37.1466 -0.719915
82.1883 30.9608 -0.452519
81.8237 28.4384 -0.343742
81.3181 25.8709 -0.233591
80.3468 18.5558 0.0831879
79.4966 12.5153 0.343137
21.6933 -11.4329 -1.35675
106.57 -19.7974 0.195574
117.674 -14.6629 -0.107228
117.388 -14.4101 -0.0972702
118.484 -13.8532 -0.130463
121.336 -13.7653 -0.22154
121.541 -13.6618 -0.227824
121.595 -13.5313 -0.229166
121.619 -13.466 -0.229358
121.666 -13.3345 -0.230746
121.698 -13.1996 -0.232248
121.787 -13.0742 -0.234352
121.829 -12.9418 -0.235781
121.809 -12.7984 -0.235639
121.802 -12.659 -0.2354
121.78 -12.5861 -0.233908
92.0774 42.127 -1.24482
86.7701 61.3265 -2.1691
86.5447 61.2431 -2.16504
86.5774 63.353 -2.26872
86.7938 66.1676 -2.40791
86.5665 66.1956 -2.40944
83.0988 36.7095 -0.957605
82.6097 33.4031 -0.794546
81.5192 26.0702 -0.434399
81.0898 23.0835 -0.287623
80.9028 22.0226 -0.235295
80.3219 18.1082 -0.0426613
80.0147 16.0221 0.0592177
79.7895 14.2696 0.145877
79.5657 12.7624 0.219281
79.4677 12.118 0.251005
12.8688 10.3659 -2.33586
12.1119 10.3364 -2.37232
96.4651 -19.708 0.335547
96.4721 -19.6251 0.337163
97.3159 -19.9319 0.305885
103.565 -23.0554 0.0520482
112.107 -18.7463 -0.17011
114.107 -5.19701 -0.422738
114.34 -5.01977 -0.434232
114.436 -4.90337 -0.439248
114.527 -4.78625 -0.444298
114.628 -4.66859 -0.449289
116.641 -2.34469 -0.558997
117.489 -0.762517 -0.612983
117.489 -0.637224 -0.614629
100.05 10.5138 -0.171326
90.6967 40.3455 -1.42706
89.067 39.3571 -1.36389
87.4288 66.0532 -2.81846
87.2024 66.0811 -2.81998
86.976 66.1221 -2.82257
86.7479 66.1381 -2.82405
86.5216 66.1801 -2.82564
80.9814 22.748 -0.43856
79.9818 15.7283 -0.0524725
79.7362 14.0576 0.0386407
79.5545 12.6181 0.117953
69.0875 14.6007 -0.154049
69.0621 14.4822 -0.148593
21.9131 9.8498 -2.22009
23.4787 9.21719 -2.12329
23.5537 9.01027 -2.11476
24.7449 7.50546 -2.02275
27.0919 5.03043 -1.85169
96.4036 -19.7339 0.208302
96.4097 -19.6499 0.209907
96.4468 -19.5896 0.209822
97.3102 -19.9084 0.172724
107.51 -18.0481 -0.180721
109.852 -17.6364 -0.270573
110.536 -12.7044 -0.257814
110.559 -12.6573 -0.258917
109.589 -7.13859 -0.411269
109.596 -7.08911 -0.41248
109.589 -6.99109 -0.412027
109.597 -6.89325 -0.412481
102.891 2.38689 -0.206145
88.1473 8.99913 0.114956
97.2201 41.3892 -1.8697
93.0957 69.763 -3.52307
87.5951 66.022 -3.2793
87.4816 66.0405 -3.28009
87.2534 66.0626 -3.28159
87.0254 66.0857 -3.2831
86.8034 66.1503 -3.28679
86.5742 66.1655 -3.28726
86.3454 66.1836 -3.28875
82.6281 33.5206 -1.28405
82.0716 29.3736 -1.02907
81.9086 28.3325 -0.965699
81.579 26.1083 -0.829243
81.3476 25.8177 -0.811155
80.9188 22.1582 -0.586907
80.0549 16.0353 -0.211614
79.6856 13.6361 -0.0644985
55.0728 15.4523 -0.899857
32.3265 7.21528 -1.90905
32.3578 7.04906 -1.903
36.6096 2.46957 -1.55749
96.4127 -20.1159 0.0543209
96.7405 -19.8705 0.0480539
97.2223 -19.9569 0.0264336
93.3492 1.21926 0.175738
93.9033 65.1319 -3.63629
87.3246 66.0961 -3.67134
87.2133 66.1294 -3.67419
86.984 66.1375 -3.67363
83.8858 41.1874 -2.00891
83.7436 41.2657 -2.01418
83.6041 41.3759 -2.0216
82.979 36.8783 -1.72123
82.5615 34.1346 -1.53763
81.7291 27.5718 -1.09988
81.5036 26.3105 -1.01575
81.3401 25.6544 -0.972365
80.996 22.8878 -0.787202
80.8026 21.7006 -0.708262
38.1577 6.46748 -1.76666
94.9951 -21.5997 -0.060676
95.0316 -21.5848 -0.0615301
95.1056 -21.5562 -0.0632274
95.2416 -21.392 -0.0622441
95.2996 -21.3479 -0.0631181
95.2698 -18.4773 0.034914
105.999 -2.02028 -0.617516
105.996 -1.93189 -0.617991
106.031 -1.83696 -0.622267
94.3944 8.9492 -0.342735
91.4281 47.4321 -2.84215
89.199 60.8368 -3.79983
87.3725 66.0475 -4.17582
87.1477 66.0924 -4.17842
87.0318 66.088 -4.1781
83.9314 41.436 -2.35993
86.579 66.1569 -4.18222
83.6449 41.5847 -2.37044
82.8497 35.5694 -1.92628
82.4216 32.7202 -1.7162
82.0405 30.1581 -1.52732
81.7435 27.7425 -1.34968
81.4388 25.6896 -1.19795
81.1767 23.9497 -1.06958
80.944 22.4177 -0.957103
80.7091 20.7466 -0.83392
80.5253 19.5631 -0.746941
96.0083 41.1547 -2.7089
91.2512 38.9264 -2.4614
91.1378 41.3614 -2.64564
83.0591 35.6724 -2.14154
82.89 35.3374 -2.11484
82.4376 32.2534 -1.8727
82.2391 31.5024 -1.81304
81.8698 28.9457 -1.61211
81.5566 26.8143 -1.44404
81.2704 24.8264 -1.28753
81.0766 23.209 -1.16038
80.8548 21.731 -1.04411
101.93 1.86974 -0.739359
101.914 1.94685 -0.740854
92.4901 41.1804 -2.97448
91.8107 54.25 -4.04899
90.8799 64.67 -4.91437
90.7626 64.6558 -4.91201
83.8943 38.4994 -2.66103
83.6973 38.0432 -2.62188
83.5408 37.9124 -2.61016
83.1512 35.7225 -2.42325
82.9618 35.2146 -2.37878
82.8526 34.8194 -2.34541
82.6968 34.5834 -2.32514
82.1717 30.7252 -1.99546
81.8194 28.3611 -1.79442
81.5135 26.3226 -1.61977
81.2238 24.3182 -1.4492
80.9856 22.7426 -1.31453
100.577 1.49451 -0.767671
100.544 1.56092 -0.767213
92.8129 9.22648 -0.65481
95.7259 40.9911 -3.3098
85.8877 53.2656 -4.26502
83.8653 38.2541 -2.89695
83.7065 37.5195 -2.83014
83.5647 37.5038 -2.82792
83.4646 37.8426 -2.85827
83.092 35.7553 -2.66778
82.8791 35.0176 -2.60028
82.7187 34.7358 -2.5748
82.6002 34.852 -2.58412
80.5007 19.3395 -1.17195
88.8649 54.7149 -4.78236
86.809 55.4665 -4.83876
84.0469 38.3709 -3.17546
83.7843 37.4041 -3.08107
83.6315 37.292 -3.06943
83.5277 37.5909 -3.0976
83.4617 37.6167 -3.10014
83.0559 35.2544 -2.87043
82.8815 34.8707 -2.83251
82.7463 34.8237 -2.8281
82.6148 34.8155 -2.82686
80.8415 21.45 -1.52976
80.6493 20.2314 -1.41165
96.9311 -3.75859 -0.580814
90.5659 50.086 -4.72514
90.3858 50.1122 -4.72537
90.196 50.0862 -4.7204
88.0331 50.313 -4.71674
87.8538 50.331 -4.71693
87.5082 50.4561 -4.72668
86.8993 50.6527 -4.7414
86.7245 50.7085 -4.74576
85.9079 50.7424 -4.74291
84.8292 43.7367 -4.01736
83.9837 38.2365 -3.44716
82.9347 35.1113 -3.12044
82.8441 34.879 -3.09579
82.705 34.7983 -3.08723
82.5761 34.815 -3.0881
81.7255 27.4479 -2.3273
81.5605 26.8305 -2.26312
86.9719 46.9307 -4.69178
84.702 43.1913 -4.26634
83.2618 36.7555 -3.55693
82.9266 34.9538 -3.35869
82.7838 34.8413 -3.34598
82.7128 34.791 -3.34015
81.7951 27.0985 -2.49708
81.6791 27.0032 -2.4863
81.2243 23.3604 -2.08729
80.7686 19.4632 -1.65997
80.5659 18.1119 -1.51224
94.8392 38.1382 -4.22653
83.4269 35.2112 -3.66397
83.2677 34.9798 -3.63575
83.1269 34.8943 -3.62517
82.9964 34.9001 -3.62499
82.866 34.907 -3.62482
81.9236 27.1445 -2.72354
81.8016 26.9875 -2.70448
81.7006 27.0295 -2.70831
80.9646 19.9592 -1.88734
80.7325 18.3587 -1.7015
80.6251 18.039 -1.66451
84.0493 38.3688 -4.30847
83.658 36.3572 -4.06148
83.3435 34.8849 -3.87981
83.2024 34.7974 -3.86821
83.1367 34.7978 -3.86762
82.1582 27.2671 -2.94575
82.0255 27.0298 -2.91634
81.9125 26.9624 -2.90768
81.8053 26.9477 -2.90526
81.7001 26.9539 -2.90493
80.8289 19.0379 -1.93742
80.7148 18.2586 -1.8411
86.2125 39.8306 -4.77783
83.8812 37.7397 -4.48526
83.4571 35.3875 -4.18271
83.2616 34.8524 -4.11315
83.1322 34.8661 -4.11401
82.9999 34.8531 -4.11074
82.0984 27.2153 -3.13286
81.9658 26.972 -3.10041
81.8622 26.9891 -3.10213
81.7676 27.1029 -3.11629
81.6563 27.0393 -3.10764
80.8081 19.1171 -2.09296
80.6629 18.4009 -2.00115
80.605 18.1851 -1.97339
80.5066 17.9408 -1.94173
92.6779 -1.0829 -0.72652
84.0676 38.257 -4.7828
83.899 37.4847 -4.67884
83.4844 35.2463 -4.37883
83.3001 34.8156 -4.32073
83.1726 34.8422 -4.32264
82.181 27.2541 -3.31056
82.036 26.9055 -3.26364
81.9263 26.867 -3.25711
81.819 26.8523 -3.25469
81.7525 26.7155 -3.23639
81.3419 23.6201 -2.82393
81.2325 23.4734 -2.80384
79.9094 11.7633 -1.24352
77.716 9.32304 -0.926306
76.7491 2.99271 -0.106558
76.738 2.9721 -0.104519
91.8522 -10.7936 -0.554516
91.8549 -10.7475 -0.553737
85.6296 8.10845 -1.04483
85.1662 35.1781 -4.68224
85.0403 35.2227 -4.68623
84.9074 35.2259 -4.68506
84.7815 35.2775 -4.69009
84.648 35.2767 -4.6889
84.5212 35.3215 -4.69291
84.4625 35.3764 -4.69955
79.54 9.54519 -1.05834
91.1973 -2.25579 -0.686498
72.2811 4.33641 -0.728725
77.0337 6.08382 -1.08778
76.9946 6.08548 -1.08903
76.9562 6.07893 -1.08923
76.9361 6.07983 -1.08935
76.8974 6.07737 -1.09058
76.858 6.07098 -1.08978
76.8204 6.0623 -1.08997
76.7874 6.00954 -1.0819
76.7518 5.98744 -1.079
76.7045 6.0438 -1.08958
76.6836 6.05289 -1.09175
76.6475 6.02684 -1.08884
84.438 -13.5628 -0.525425
85.8476 -9.59371 -0.607288
85.84 -9.57642 -0.604423
81.2351 -0.596633 -0.817754
47.5916 -3.23365 -10.9155
47.5726 -3.32992 -10.9181
47.5905 -3.37999 -10.9097
46.8435 -3.23761 -11.542
46.8301 -3.33672 -11.5426
46.8239 -3.38635 -11.5434
80.9529 -6.16941 0.0632665
80.9531 -6.16135 0.063226
80.8479 -7.10004 0.0534211
77.5063 -4.69673 0.313685
77.6473 -4.97249 0.415969
112.219 -20.2996 -14.3849
119.115 -10.8219 -16.8188
77.7233 -4.97848 0.415463
77.7527 -5.04529 0.447987
77.7327 -5.01717 0.43272
77.6116 -4.8545 0.32314
77.6856 -4.98826 0.393283
77.6836 -4.99503 0.396306
77.6639 -4.96494 0.37903
77.6326 -4.92411 0.355628
77.6007 -4.88017 0.330207
77.5508 -4.80841 0.289531
77.5813 -4.86829 0.321027
77.5712 -4.86178 0.315931
77.5759 -4.87759 0.324042
77.563 -4.86262 0.313886
77.3956 -4.60948 0.173557
77.635 -5.09192 0.422509
77.5441 -5.0314 0.374642
77.1882 -7.57421 0.24957
77.2946 -7.46409 0.319654
77.3307 -7.43084 0.341703
77.3703 -7.39305 0.36675
77.3986 -7.386 0.377887
77.3779 -7.41743 0.360922
77.2214 -7.60937 0.247954
79.7413 -7.44437 0.272459
79.7277 -7.51934 0.234761
79.726 -7.50999 0.237702
79.6215 -7.39848 0.307493
2.05783e-39 0 1.37888e-42
