ply
format ascii 1.0
element vertex 520
property float x
property float y
property float z
end_header
115.874 0.809075 3.15615
117.083 1.09221 3.19387
117.165 1.3449 3.19544
116.003 2.16699 3.15496
107.667 10.3534 2.87331
105.867 10.823 2.8166
89.9442 12.1003 2.31703
52.481 13.0307 1.24173
46.5745 21.1665 1.32969
46.6134 21.4763 1.33903
46.657 21.8057 1.34727
28.2164 14.9164 1.20961
24.3111 18.2491 1.36432
24.289 18.1486 1.36287
24.3016 18.0652 1.36028
24.0817 18.1211 1.36633
24.1904 17.2748 1.34453
24.1735 17.176 1.34306
24.1584 17.0749 1.34161
24.138 16.9823 1.34012
24.1249 16.8811 1.33766
24.1009 16.7929 1.33615
24.0915 16.6883 1.3347
24.1347 16.342 1.32542
24.1039 16.2674 1.32485
24.0631 16.2048 1.32424
23.908 16.2891 1.33004
23.8105 16.2988 1.33213
23.7285 16.3464 1.33501
23.629 16.3564 1.33711
23.5214 16.3771 1.34017
23.4417 16.3622 1.34136
23.2987 16.4242 1.34626
23.1955 16.4375 1.34935
23.0758 16.4684 1.35237
22.9814 16.4688 1.35451
22.9207 16.4854 1.35651
18.382 19.8188 1.53217
18.2668 19.8111 1.53439
18.1205 19.8363 1.53848
17.9859 19.8474 1.54162
17.8449 19.8641 1.54575
11.6972 21.4155 1.73303
11.6591 21.3044 1.73266
8.55874 21.1587 1.81609
7.26719 21.1766 1.85294
7.02399 21.2075 1.86015
6.77399 21.241 1.86836
6.50913 20.327 1.86247
10.2031 15.7271 1.69162
10.1187 15.6593 1.69309
9.84293 15.3498 1.69711
-1.07255 21.1259 2.10079
-3.56823 20.9499 2.17646
-27.4557 32.119 3.04591
-27.0261 30.4969 3.01563
-27.4326 30.4431 3.02852
-28.1512 30.1553 3.04909
1.52825 14.2035 1.94956
1.52142 14.0716 1.94826
-2.92774 15.8096 2.10801
0.306827 13.8285 1.98634
-5.13634 15.0184 2.17442
-5.13319 14.8635 2.17321
-3.30229 13.2949 2.10254
-5.52955 13.4021 2.17735
-36.4728 23.658 3.27315
-36.7704 22.5914 3.2771
-35.8812 22.0514 3.24455
-34.5971 18.4316 3.18528
-39.2572 -15.4241 3.47791
-39.4383 -15.708 3.48765
-19.043 -15.1696 2.77609
-20.4155 -17.7517 2.85848
-17.6047 -18.6613 2.77593
-17.5655 -18.8396 2.77779
19.553 -9.46361 1.38542
19.5118 -9.62054 1.38929
5.17178 -18.3833 2.02212
3.62569 -19.8133 2.10083
103.809 -17.5866 2.92722
103.826 -17.3713 2.92509
103.875 -17.1628 2.92394
103.918 -16.9538 2.92179
103.916 -16.8432 2.92023
103.949 -16.6323 2.91909
103.981 -16.4203 2.91695
104.012 -16.2083 2.91581
104.049 -15.9978 2.91367
107.629 10.252 2.42288
46.5864 20.9989 1.17353
46.6219 21.2939 1.17896
46.6663 21.6203 1.18621
-26.6499 30.6664 2.54918
-29.3007 31.2002 2.62243
87.7059 -22.1511 2.16104
103.257 -17.5404 2.48081
103.3 -17.3334 2.47968
103.327 -17.121 2.47754
103.362 -16.9123 2.47641
103.382 -16.6992 2.47428
103.403 -16.5957 2.47372
103.436 -16.3858 2.47159
103.459 -16.174 2.47046
103.723 -15.7981 2.47312
106.927 10.526 2.07452
78.0067 9.88015 1.47448
96.2338 15.6634 1.85216
95.7332 15.9132 1.84263
89.1499 14.1284 1.70676
52.5332 13.0218 1.0147
46.6271 21.1633 1.06262
46.6646 21.4682 1.06799
46.7028 21.7821 1.07332
70.3964 -19.8984 1.54353
88.6649 13.9649 1.29433
46.5881 21.0213 0.87741
46.6264 21.3251 0.880786
46.6997 21.6157 0.883176
-28.9408 33.0937 1.70511
50.7595 -18.43 1.03658
64.7296 -19.4263 1.18764
72.1087 -20.0918 1.28094
83.5196 -20.9866 1.43134
111.701 -25.5306 1.83827
112.978 -25.6873 1.85615
107.93 -18.6831 1.72464
108.857 9.91735 1.20274
78.4482 8.15093 0.952721
88.1828 13.821 1.01779
46.5729 21.0099 0.75449
46.6167 21.3303 0.755771
46.6547 21.6412 0.757111
46.7339 21.9533 0.758382
64.6715 -19.4109 1.02065
76.0729 -17.3706 1.08492
76.1152 -17.2468 1.08422
97.811 -20.4481 1.285
97.8594 -20.2556 1.28394
116.838 4.80209 0.739072
116.418 5.01856 0.737589
116.416 5.26671 0.736312
116.664 5.4131 0.735183
116.585 5.65519 0.734055
116.776 5.92211 0.733389
116.621 6.15797 0.732407
116.494 7.27078 0.72686
116.451 7.51662 0.724657
116.063 7.72218 0.723183
113.068 8.45802 0.714905
88.1003 13.5886 0.652112
88.0727 13.7517 0.651313
72.2031 10.0759 0.643211
46.6067 21.1315 0.586809
46.6532 21.4587 0.586052
46.7014 21.7947 0.585246
111.762 -25.6032 0.898538
97.6363 -20.6546 0.847327
102.746 -17.7702 0.837743
102.818 -17.5709 0.836606
102.888 -17.1545 0.834353
102.925 -16.947 0.833227
102.951 -16.7365 0.832102
102.974 -16.5257 0.83098
102.988 -16.4215 0.830422
103.031 -16.2155 0.829295
104.104 -15.8039 0.828553
115.692 -17.4392 0.856506
116.94 4.85223 0.364655
116.393 6.4285 0.358351
116.516 6.69055 0.356814
116.631 7.45423 0.351701
116.564 7.57177 0.352197
116.505 7.81597 0.351025
93.7761 8.58628 0.415344
88.1471 10.8943 0.419933
63.8521 -19.4196 0.643922
76.3602 -17.0847 0.59801
100.254 -23.8843 0.55903
107.786 -24.9939 0.541388
98.2101 -20.1876 0.547048
102.623 -17.4938 0.521498
102.613 -17.2751 0.520385
102.631 -17.0638 0.519268
102.653 -16.8539 0.518153
102.68 -16.6445 0.517032
102.693 -16.4328 0.515921
102.752 -16.2313 0.514792
102.822 -16.1392 0.514212
102.882 -15.9378 0.513082
103.838 -15.7164 0.509499
116.346 4.73025 -0.132828
111.609 5.53458 -0.0928288
105.691 6.38886 -0.0423053
88.583 9.12247 0.0994085
99.1161 -20.5252 0.138417
102.843 -17.7166 0.0963088
103.382 -17.5231 0.0904981
102.362 -16.841 0.0975196
102.274 -16.6063 0.0974407
102.435 -16.4299 0.0952892
103.787 -15.7643 0.0808166
115.574 0.332289 -0.578988
91.9742 1.09905 -0.216334
97.2187 3.30614 -0.31163
91.5942 4.40126 -0.231791
78.9797 8.8036 -0.0714618
51.3232 7.16099 0.349739
46.5459 20.7171 0.179032
46.5827 21.014 0.173446
46.6288 21.3382 0.166704
46.663 21.6403 0.161094
37.2725 27.6443 0.0832961
37.2269 27.6615 0.0832765
37.1677 26.187 0.11197
76.8545 -17.2865 0.0692976
92.7144 0.31259 -0.6064
74.9983 3.86112 -0.233968
54.9054 15.2202 0.0267674
52.4258 14.0386 0.0906025
43.9491 13.7727 0.208764
43.9031 13.8642 0.206361
43.7355 13.5851 0.215054
36.3165 19.9429 0.0834562
80.9338 -19.8539 -0.316621
81.1439 -19.7834 -0.321302
88.5669 -5.53958 -0.746965
88.6132 -5.3821 -0.748847
88.6954 -4.82523 -0.752843
88.8846 -4.19366 -0.760385
88.9352 -3.95424 -0.762697
94.6345 2.2879 -0.953489
68.81 5.16392 -0.270352
86.9858 9.62763 -0.8088
62.6352 11.7564 -0.201034
43.8246 13.2705 0.140541
43.7278 13.1657 0.145227
43.4678 12.7855 0.15858
29.8241 18.5658 -0.0116487
-27.7697 30.0377 -1.31994
84.9101 -14.6826 -0.643294
84.9516 -14.5337 -0.644125
86.6333 -12.3888 -0.685724
87.0997 -11.9247 -0.698821
88.2428 -11.2595 -0.728977
88.1221 -11.0719 -0.725762
86.7043 -10.4805 -0.687673
87.7674 -10.5159 -0.717094
86.7019 -10.0827 -0.687721
87.6359 -9.0402 -0.714507
87.5917 -8.87356 -0.713299
88.4054 -6.00698 -0.741311
81.3008 -4.95738 -0.809006
81.32 -4.82155 -0.809736
81.3383 -4.68564 -0.810464
81.3347 -4.54677 -0.811175
81.313 -4.40827 -0.810857
81.2962 -4.33848 -0.810191
81.2835 -4.19978 -0.809887
81.3218 -4.06467 -0.811642
81.3201 -3.92697 -0.812349
81.3363 -3.79088 -0.813076
81.3456 -3.65416 -0.813795
81.3749 -3.51824 -0.81554
81.394 -3.45069 -0.815917
81.4423 -3.31548 -0.818687
81.4166 -3.17662 -0.818365
81.4179 -3.03919 -0.819076
81.766 -2.01429 -0.834887
82.011 -1.87972 -0.84395
82.159 -1.74143 -0.848887
82.2517 -1.6032 -0.85274
82.3383 -1.53368 -0.856229
82.4703 -1.39396 -0.861149
82.6346 -1.25313 -0.868123
82.8652 -1.11123 -0.876203
82.9825 -0.968176 -0.881117
83.1208 -0.825007 -0.886065
83.3348 -0.678605 -0.894142
83.488 -0.605046 -0.899753
83.5954 -0.459103 -0.904668
83.7543 -0.311752 -0.910668
83.8809 -0.164521 -0.915618
84.0541 -0.0144451 -0.922653
84.1518 0.13439 -0.926568
84.2727 0.285146 -0.931528
84.4485 0.363702 -0.938199
84.6341 0.51868 -0.945278
84.7703 0.671082 -0.950269
84.8875 0.825184 -0.955241
84.9563 0.976615 -0.959126
85.1483 1.13504 -0.966233
85.2223 1.28901 -0.970138
85.4874 1.37861 -0.979001
85.5504 1.53256 -0.98289
85.8468 1.70168 -0.993209
86.0676 1.86854 -1.0024
86.0571 2.02009 -1.00317
86.3337 2.19298 -1.01348
86.4446 2.35468 -1.01848
87.0336 3.09984 -1.04421
87.0002 3.25344 -1.04395
87.0487 3.41373 -1.04685
86.9799 3.48519 -1.04512
73.9997 2.79822 -0.606986
60.9361 4.67893 -0.195971
46.5469 13.8132 -0.0143675
46.1117 17.7313 -0.139919
67.907 -18.7745 -0.433537
67.9292 -18.661 -0.433156
70.5905 -17.3462 -0.498952
70.7179 -17.2804 -0.502484
68.6427 -15.2119 -0.42202
72.0572 -14.1628 -0.520583
78.424 -13.767 -0.721232
78.5681 -13.6715 -0.725942
78.4103 -12.3098 -0.715726
78.8733 -12.2973 -0.73049
78.4264 -12.0412 -0.715136
79.2144 -11.0037 -0.738676
81.2046 -10.252 -0.802556
81.3305 -8.43702 -0.805106
81.0945 -8.25915 -0.797667
80.9989 -8.10496 -0.794318
80.9283 -7.88474 -0.792347
80.9901 -7.75576 -0.794106
81.0709 -7.62849 -0.796884
81.1297 -7.49824 -0.798644
81.1233 -7.3581 -0.798357
81.1386 -7.22092 -0.799088
81.1318 -7.15103 -0.799438
81.1184 -7.01026 -0.799144
81.0959 -6.86868 -0.79884
81.1172 -6.73304 -0.799572
81.1096 -6.5938 -0.799278
81.0722 -6.45088 -0.797959
81.158 -6.32305 -0.800748
81.2198 -6.26134 -0.803159
81.2917 -6.13127 -0.805939
81.3627 -6.00011 -0.808722
76.0433 -4.43622 -0.885763
76.044 -4.31581 -0.886386
76.0439 -4.19432 -0.887012
76.0467 -4.07408 -0.886636
76.0605 -3.95384 -0.888277
76.0523 -3.83262 -0.88789
76.0348 -3.77079 -0.887182
76.0126 -3.64931 -0.886775
75.9834 -3.52621 -0.886366
75.9742 -3.4059 -0.885973
75.98 -3.28494 -0.886605
75.9767 -3.16516 -0.887218
75.9735 -3.04439 -0.886836
75.9793 -2.92442 -0.887464
75.9717 -2.8635 -0.887766
75.9864 -2.74434 -0.888403
75.9983 -2.62392 -0.890042
76.018 -2.50422 -0.890689
76.0338 -2.38416 -0.892332
76.0295 -1.48216 -0.895977
76.1317 -1.36184 -0.900752
76.2577 -1.3009 -0.906257
76.6692 -0.93334 -0.924773
76.7294 -0.81025 -0.927499
76.8018 -0.686248 -0.931248
76.8813 -0.561877 -0.935009
76.9944 -0.498771 -0.940505
77.478 0.0118912 -0.962869
77.6213 0.142567 -0.968759
77.7444 0.27304 -0.974618
77.8509 0.340756 -0.980128
77.955 0.470942 -0.984956
78.033 0.601469 -0.988747
78.1493 0.734561 -0.994609
78.2617 0.868016 -0.999467
78.3863 1.00338 -1.00535
78.65 1.21156 -1.01782
78.7859 1.34992 -1.02474
78.8987 1.48735 -1.02962
78.8932 1.61635 -1.03128
79.0809 1.7611 -1.03931
79.1887 1.89998 -1.04519
79.2916 2.03931 -1.05006
79.5503 2.25898 -1.06259
79.6736 2.40249 -1.06851
79.799 2.54682 -1.07445
79.9306 2.69259 -1.0814
80.0542 2.83909 -1.08734
80.1048 2.9781 -1.09113
46.0751 17.6164 -0.271273
-35.4474 -11.7453 -2.04889
62.5371 -18.3304 -0.471727
62.63 -18.2795 -0.47413
62.7125 -18.2217 -0.475552
73.3708 -12.5694 -0.798786
73.5173 -12.3687 -0.803042
73.6229 -12.2778 -0.80667
74.2786 -7.56152 -0.814982
72.3015 -3.51601 -0.944865
72.2743 -3.40513 -0.943396
72.2582 -3.35046 -0.942653
74.4842 7.6596 -1.1478
48.2145 13.0989 -0.247203
43.9382 13.331 -0.156947
71.2325 6.7477 -1.18519
71.1924 6.79347 -1.18436
71.1657 6.89828 -1.18486
57.9685 14.747 -0.774425
46.0376 17.3916 -0.501061
29.6927 19.1209 -0.560321
58.5737 -16.3897 -0.607758
67.2315 -7.74809 -0.89039
66.2709 -2.0117 -1.01753
66.2749 -1.92171 -1.018
66.2719 -1.83208 -1.01845
66.2759 -1.74308 -1.01892
66.277 -1.65282 -1.01939
66.279 -1.56364 -1.01985
66.2881 -1.51827 -1.0201
66.2961 -1.42864 -1.02157
66.3082 -1.33936 -1.02205
66.3062 -1.24982 -1.02251
66.4824 0.242305 -1.04347
68.5461 6.1042 -1.24082
68.5924 6.21749 -1.24547
46.1332 17.6644 -0.649614
66.4746 5.68972 -1.27355
66.4772 5.78586 -1.27605
62.9076 11.5699 -1.2185
48.5626 12.3623 -0.530933
46.0498 17.7426 -0.762893
48.7984 12.217 -0.654541
48.7227 12.2117 -0.6514
46.0839 17.6324 -0.901378
52.6672 -15.1688 -0.716145
59.3678 -10.1736 -0.959019
48.465 6.48005 -0.399448
43.9971 13.7813 -0.766367
43.6693 14.2905 -0.796499
58.4455 2.95236 -1.23732
58.463 3.02406 -1.24072
58.4825 3.09659 -1.24312
58.5052 3.16984 -1.24754
58.5196 3.24082 -1.24992
50.7324 13.3087 -1.1441
43.9209 13.9854 -0.875306
36.4037 13.3353 -0.70661
48.0219 -14.594 -0.755102
57.6383 4.36179 -1.32738
58.06 5.60363 -1.40642
58.1246 5.69718 -1.415
45.777 14.733 -1.11297
37.6881 16.4148 -1.08943
27.6653 14.6551 -1.17124
46.7539 -13.745 -0.724567
56.5756 6.23589 -1.42844
51.914 11.9463 -1.36486
51.2107 12.623 -1.36528
51.1641 12.6623 -1.36442
42.6061 13.1874 -0.954208
40.7269 16.5014 -1.24047
45.2539 -14.5484 -0.802162
45.2093 -14.3746 -0.785991
54.3057 -0.392096 -1.12883
54.3141 -0.365747 -1.12998
54.2983 -0.261915 -1.12949
40.7661 16.3809 -1.33891
40.7097 16.39 -1.33887
51.1259 -10.6404 -1.04018
45.4631 15.6355 -1.53515
45.415 15.671 -1.53626
45.3381 15.6418 -1.53
45.2538 15.7427 -1.53639
40.7592 16.3166 -1.44957
40.0863 13.9418 -1.1643
45.0683 14.6169 -1.5163
45.0081 14.6173 -1.51321
44.9804 14.6218 -1.5122
44.9354 14.6569 -1.51431
44.8839 14.6756 -1.51333
35.1369 14.765 -1.35608
51.8376 2.32232 -1.19611
51.8305 2.34405 -1.19621
51.8298 2.3913 -1.19745
49.4265 9.49388 -1.39746
49.206 9.73257 -1.39935
47.9425 9.11309 -1.40725
47.9037 9.13968 -1.40633
35.1305 14.6526 -1.6325
44.9229 -10.3621 -1.01726
35.7038 9.43342 -1.61844
38.0062 -6.77275 -1.22033
40.281 -1.1076 -0.480972
40.2893 -1.09431 -0.485053
40.2698 -1.0875 -0.478059
36.6908 0.187248 -0.22023
36.9361 -0.134257 -0.0789397
36.9625 -0.0635466 -0.119345
37.0085 -0.144763 -0.0769947
37.0034 -0.145317 -0.0779841
36.9369 -0.0914346 -0.132163
36.7098 0.255277 -0.322611
36.9451 -0.112197 -0.122068
36.9374 -0.108509 -0.125075
36.8994 -0.0620628 -0.152258
36.8706 -0.0244535 -0.174408
36.8253 0.0306506 -0.206625
36.8193 0.0311772 -0.208619
36.8302 0.00617758 -0.195506
36.8527 -0.033893 -0.175333
36.8439 -0.0311112 -0.178334
36.7129 0.143782 -0.27904
36.8772 -0.186365 -0.111583
36.8479 -0.210835 -0.110412
36.7125 -0.0515827 -0.206031
39.1982 -2.60101 -0.345635
39.1329 -2.53467 -0.302878
39.1141 -2.50981 -0.288977
39.0292 -2.42759 -0.234272
-5.437 -1.65 -1.022
